<?xml version="1.0" encoding="UTF-8"?>
<svg width="375px" height="58px" viewBox="0 0 375 58" version="1.1" xmlns="http://www.w3.org/2000/svg" xmlns:xlink="http://www.w3.org/1999/xlink">
    <!-- Generator: Sketch 46.1 (44463) - http://www.bohemiancoding.com/sketch -->
    <title>btn-en-guide</title>
    <desc>Created with Sketch.</desc>
    <defs></defs>
    <g id="Page-1" stroke="none" stroke-width="1" fill="none" fill-rule="evenodd">
        <g id="英文2" transform="translate(0.000000, -310.000000)">
            <g id="btn-en-guide" transform="translate(0.000000, 310.000000)">
                <rect id="Rectangle-Copy" fill="#FFFFFF" x="0" y="0" width="375" height="58"></rect>
                <path d="M125.76,24.08 C127.35,24.08 128.625,24.605 129.555,25.685 C130.425,26.705 130.875,28.025 130.875,29.66 C130.875,31.28 130.425,32.585 129.555,33.605 C128.625,34.67 127.35,35.21 125.745,35.21 C124.14,35.21 122.88,34.67 121.95,33.605 C121.065,32.585 120.63,31.265 120.63,29.66 C120.63,28.04 121.065,26.72 121.95,25.7 C122.88,24.62 124.14,24.08 125.76,24.08 Z M125.76,25.175 C124.53,25.175 123.555,25.595 122.85,26.45 C122.19,27.26 121.86,28.325 121.86,29.66 C121.86,30.98 122.19,32.045 122.85,32.855 C123.54,33.695 124.515,34.115 125.745,34.115 C126.975,34.115 127.95,33.695 128.64,32.885 C129.3,32.075 129.645,31.01 129.645,29.66 C129.645,28.295 129.3,27.215 128.64,26.405 C127.95,25.58 126.99,25.175 125.76,25.175 Z M132.585,24.29 L136.965,24.29 C139.425,24.29 140.655,25.34 140.655,27.44 C140.655,29.555 139.41,30.62 136.95,30.62 L133.815,30.62 L133.815,35 L132.585,35 L132.585,24.29 Z M133.815,25.355 L133.815,29.555 L136.89,29.555 C137.76,29.555 138.39,29.375 138.81,29.03 C139.215,28.685 139.425,28.16 139.425,27.44 C139.425,26.72 139.215,26.195 138.795,25.88 C138.375,25.52 137.745,25.355 136.89,25.355 L133.815,25.355 Z M142.215,24.29 L142.215,35 L150.06,35 L150.06,33.935 L143.445,33.935 L143.445,30.005 L149.445,30.005 L149.445,28.94 L143.445,28.94 L143.445,25.355 L149.805,25.355 L149.805,24.29 L142.215,24.29 Z M151.77,24.29 L156.39,24.29 C157.455,24.29 158.295,24.53 158.91,25.025 C159.54,25.535 159.87,26.285 159.87,27.275 C159.87,27.875 159.705,28.4 159.375,28.865 C159.015,29.345 158.535,29.645 157.92,29.795 L157.92,29.825 C158.94,30.05 159.51,30.695 159.63,31.775 L159.795,33.425 C159.855,34.085 160.05,34.61 160.365,35 L159.03,35 C158.79,34.64 158.64,34.175 158.595,33.575 L158.46,32.15 C158.4,31.52 158.175,31.055 157.785,30.785 C157.425,30.515 156.915,30.395 156.24,30.395 L153,30.395 L153,35 L151.77,35 L151.77,24.29 Z M153,25.355 L153,29.33 L156.24,29.33 C157.02,29.33 157.635,29.135 158.055,28.775 C158.43,28.43 158.625,27.95 158.625,27.32 C158.625,26.66 158.43,26.165 158.07,25.85 C157.68,25.52 157.065,25.355 156.24,25.355 L153,25.355 Z M165.045,24.29 L166.47,24.29 L170.685,35 L169.35,35 L168.21,32 L163.29,32 L162.15,35 L160.83,35 L165.045,24.29 Z M163.68,30.965 L167.82,30.965 L165.795,25.61 L165.735,25.61 L163.68,30.965 Z M170.94,24.29 L170.94,25.355 L174.72,25.355 L174.72,35 L175.935,35 L175.935,25.355 L179.715,25.355 L179.715,24.29 L170.94,24.29 Z M181.14,24.29 L181.14,35 L182.355,35 L182.355,24.29 L181.14,24.29 Z M189.285,24.08 C190.875,24.08 192.15,24.605 193.08,25.685 C193.95,26.705 194.4,28.025 194.4,29.66 C194.4,31.28 193.95,32.585 193.08,33.605 C192.15,34.67 190.875,35.21 189.27,35.21 C187.665,35.21 186.405,34.67 185.475,33.605 C184.59,32.585 184.155,31.265 184.155,29.66 C184.155,28.04 184.59,26.72 185.475,25.7 C186.405,24.62 187.665,24.08 189.285,24.08 Z M189.285,25.175 C188.055,25.175 187.08,25.595 186.375,26.45 C185.715,27.26 185.385,28.325 185.385,29.66 C185.385,30.98 185.715,32.045 186.375,32.855 C187.065,33.695 188.04,34.115 189.27,34.115 C190.5,34.115 191.475,33.695 192.165,32.885 C192.825,32.075 193.17,31.01 193.17,29.66 C193.17,28.295 192.825,27.215 192.165,26.405 C191.475,25.58 190.515,25.175 189.285,25.175 Z M196.11,24.29 L196.11,35 L197.34,35 L197.34,26.195 L197.385,26.195 L203.475,35 L204.735,35 L204.735,24.29 L203.505,24.29 L203.505,33.005 L203.46,33.005 L197.4,24.29 L196.11,24.29 Z M216.465,24.08 C214.89,24.08 213.645,24.635 212.73,25.76 C211.86,26.795 211.44,28.1 211.44,29.69 C211.44,31.28 211.875,32.585 212.745,33.59 C213.675,34.67 214.995,35.21 216.69,35.21 C217.575,35.21 218.4,35.09 219.18,34.85 C219.915,34.61 220.545,34.295 221.055,33.875 L221.055,29.495 L216.48,29.495 L216.48,30.56 L219.84,30.56 L219.84,33.29 C219.465,33.53 219.015,33.74 218.49,33.89 C217.95,34.04 217.395,34.13 216.81,34.13 C215.415,34.13 214.365,33.71 213.66,32.885 C213,32.105 212.67,31.04 212.67,29.69 C212.67,28.31 213,27.215 213.69,26.405 C214.38,25.58 215.295,25.175 216.465,25.175 C217.41,25.175 218.175,25.4 218.76,25.865 C219.315,26.3 219.675,26.915 219.84,27.725 L221.07,27.725 C220.875,26.555 220.41,25.67 219.66,25.055 C218.865,24.395 217.8,24.08 216.465,24.08 Z M223.11,24.29 L223.11,30.89 C223.11,32.285 223.47,33.35 224.19,34.1 C224.91,34.835 225.975,35.21 227.385,35.21 C228.795,35.21 229.86,34.835 230.595,34.085 C231.3,33.35 231.66,32.285 231.66,30.89 L231.66,24.29 L230.43,24.29 L230.43,30.905 C230.43,31.955 230.19,32.75 229.725,33.29 C229.215,33.845 228.435,34.13 227.385,34.13 C226.32,34.13 225.54,33.845 225.045,33.29 C224.565,32.75 224.34,31.955 224.34,30.905 L224.34,24.29 L223.11,24.29 Z M233.91,24.29 L233.91,35 L235.125,35 L235.125,24.29 L233.91,24.29 Z M237.375,24.29 L241.215,24.29 C242.91,24.29 244.185,24.77 245.055,25.76 C245.85,26.66 246.255,27.965 246.255,29.645 C246.255,31.295 245.82,32.6 244.965,33.53 C244.065,34.505 242.775,35 241.095,35 L237.375,35 L237.375,24.29 Z M238.605,25.355 L238.605,33.935 L240.885,33.935 C242.28,33.935 243.33,33.56 244.035,32.825 C244.695,32.105 245.04,31.04 245.04,29.645 C245.04,28.205 244.725,27.14 244.11,26.45 C243.45,25.715 242.43,25.355 241.02,25.355 L238.605,25.355 Z M247.965,24.29 L247.965,35 L255.81,35 L255.81,33.935 L249.195,33.935 L249.195,30.005 L255.195,30.005 L255.195,28.94 L249.195,28.94 L249.195,25.355 L255.555,25.355 L255.555,24.29 L247.965,24.29 Z" id="OPERATION-GUIDE" fill="#111111"></path>
            </g>
        </g>
    </g>
</svg>