<?xml version="1.0" encoding="UTF-8"?>
<svg width="375px" height="58px" viewBox="0 0 375 58" version="1.1" xmlns="http://www.w3.org/2000/svg" xmlns:xlink="http://www.w3.org/1999/xlink">
    <!-- Generator: Sketch 46.1 (44463) - http://www.bohemiancoding.com/sketch -->
    <title>btn-en-about</title>
    <desc>Created with Sketch.</desc>
    <defs></defs>
    <g id="Page-1" stroke="none" stroke-width="1" fill="none" fill-rule="evenodd">
        <g id="英文2" transform="translate(0.000000, -252.000000)">
            <g id="btn-en-about" transform="translate(0.000000, 252.000000)">
                <rect id="Rectangle" fill="#FFFFFF" x="0" y="0" width="375" height="58"></rect>
                <path d="M137.215,22.29 L138.64,22.29 L142.855,33 L141.52,33 L140.38,30 L135.46,30 L134.32,33 L133,33 L137.215,22.29 Z M135.85,28.965 L139.99,28.965 L137.965,23.61 L137.905,23.61 L135.85,28.965 Z M143.935,22.29 L148.72,22.29 C149.71,22.29 150.505,22.53 151.09,23.01 C151.66,23.49 151.945,24.15 151.945,24.99 C151.945,25.59 151.78,26.115 151.465,26.55 C151.135,26.94 150.7,27.225 150.16,27.405 C150.865,27.525 151.405,27.825 151.795,28.275 C152.185,28.725 152.395,29.295 152.395,30.015 C152.395,31.065 152.02,31.845 151.285,32.355 C150.655,32.775 149.785,33 148.69,33 L143.935,33 L143.935,22.29 Z M145.165,23.325 L145.165,26.97 L148.42,26.97 C149.17,26.97 149.74,26.805 150.13,26.505 C150.52,26.19 150.73,25.725 150.73,25.11 C150.73,24.51 150.535,24.06 150.145,23.76 C149.755,23.46 149.185,23.325 148.435,23.325 L145.165,23.325 Z M145.165,27.99 L145.165,31.965 L148.585,31.965 C149.335,31.965 149.92,31.815 150.37,31.545 C150.895,31.215 151.165,30.69 151.165,30 C151.165,29.31 150.925,28.8 150.475,28.47 C150.04,28.14 149.41,27.99 148.585,27.99 L145.165,27.99 Z M158.77,22.08 C160.36,22.08 161.635,22.605 162.565,23.685 C163.435,24.705 163.885,26.025 163.885,27.66 C163.885,29.28 163.435,30.585 162.565,31.605 C161.635,32.67 160.36,33.21 158.755,33.21 C157.15,33.21 155.89,32.67 154.96,31.605 C154.075,30.585 153.64,29.265 153.64,27.66 C153.64,26.04 154.075,24.72 154.96,23.7 C155.89,22.62 157.15,22.08 158.77,22.08 Z M158.77,23.175 C157.54,23.175 156.565,23.595 155.86,24.45 C155.2,25.26 154.87,26.325 154.87,27.66 C154.87,28.98 155.2,30.045 155.86,30.855 C156.55,31.695 157.525,32.115 158.755,32.115 C159.985,32.115 160.96,31.695 161.65,30.885 C162.31,30.075 162.655,29.01 162.655,27.66 C162.655,26.295 162.31,25.215 161.65,24.405 C160.96,23.58 160,23.175 158.77,23.175 Z M165.595,22.29 L165.595,28.89 C165.595,30.285 165.955,31.35 166.675,32.1 C167.395,32.835 168.46,33.21 169.87,33.21 C171.28,33.21 172.345,32.835 173.08,32.085 C173.785,31.35 174.145,30.285 174.145,28.89 L174.145,22.29 L172.915,22.29 L172.915,28.905 C172.915,29.955 172.675,30.75 172.21,31.29 C171.7,31.845 170.92,32.13 169.87,32.13 C168.805,32.13 168.025,31.845 167.53,31.29 C167.05,30.75 166.825,29.955 166.825,28.905 L166.825,22.29 L165.595,22.29 Z M175.48,22.29 L175.48,23.355 L179.26,23.355 L179.26,33 L180.475,33 L180.475,23.355 L184.255,23.355 L184.255,22.29 L175.48,22.29 Z M189.865,22.29 L193.525,27.435 L189.58,33 L191.095,33 L194.275,28.41 L197.47,33 L198.985,33 L195.01,27.435 L198.7,22.29 L197.185,22.29 L194.275,26.46 L191.38,22.29 L189.865,22.29 Z M200.23,22.29 L200.23,33 L201.445,33 L201.445,22.29 L200.23,22.29 Z M206.83,22.29 L208.255,22.29 L212.47,33 L211.135,33 L209.995,30 L205.075,30 L203.935,33 L202.615,33 L206.83,22.29 Z M205.465,28.965 L209.605,28.965 L207.58,23.61 L207.52,23.61 L205.465,28.965 Z M218.23,22.08 C219.82,22.08 221.095,22.605 222.025,23.685 C222.895,24.705 223.345,26.025 223.345,27.66 C223.345,29.28 222.895,30.585 222.025,31.605 C221.095,32.67 219.82,33.21 218.215,33.21 C216.61,33.21 215.35,32.67 214.42,31.605 C213.535,30.585 213.1,29.265 213.1,27.66 C213.1,26.04 213.535,24.72 214.42,23.7 C215.35,22.62 216.61,22.08 218.23,22.08 Z M218.23,23.175 C217,23.175 216.025,23.595 215.32,24.45 C214.66,25.26 214.33,26.325 214.33,27.66 C214.33,28.98 214.66,30.045 215.32,30.855 C216.01,31.695 216.985,32.115 218.215,32.115 C219.445,32.115 220.42,31.695 221.11,30.885 C221.77,30.075 222.115,29.01 222.115,27.66 C222.115,26.295 221.77,25.215 221.11,24.405 C220.42,23.58 219.46,23.175 218.23,23.175 Z M225.055,22.29 L225.055,33 L226.285,33 L226.285,28.02 L231.91,28.02 L231.91,26.955 L226.285,26.955 L226.285,23.355 L232.225,23.355 L232.225,22.29 L225.055,22.29 Z M233.71,22.29 L233.71,28.89 C233.71,30.285 234.07,31.35 234.79,32.1 C235.51,32.835 236.575,33.21 237.985,33.21 C239.395,33.21 240.46,32.835 241.195,32.085 C241.9,31.35 242.26,30.285 242.26,28.89 L242.26,22.29 L241.03,22.29 L241.03,28.905 C241.03,29.955 240.79,30.75 240.325,31.29 C239.815,31.845 239.035,32.13 237.985,32.13 C236.92,32.13 236.14,31.845 235.645,31.29 C235.165,30.75 234.94,29.955 234.94,28.905 L234.94,22.29 L233.71,22.29 Z" id="ABOUT-XIAOFU" fill="#111111"></path>
            </g>
        </g>
    </g>
</svg>