<?xml version="1.0" encoding="UTF-8"?>
<svg width="79px" height="45px" viewBox="0 0 79 45" version="1.1" xmlns="http://www.w3.org/2000/svg" xmlns:xlink="http://www.w3.org/1999/xlink">
    <!-- Generator: Sketch 46.1 (44463) - http://www.bohemiancoding.com/sketch -->
    <title>language-enbtn</title>
    <desc>Created with Sketch.</desc>
    <defs></defs>
    <g id="Page-1" stroke="none" stroke-width="1" fill="none" fill-rule="evenodd">
        <g id="英文1" transform="translate(-284.000000, -71.000000)">
            <g id="Group-18">
                <g id="Group" transform="translate(0.000000, 65.000000)">
                    <g id="language-enbtn" transform="translate(284.000000, 6.000000)">
                        <rect id="Rectangle-9" fill="#FFFFFF" x="0" y="0" width="79" height="45"></rect>
                        <path d="M21.2325,16.718 L21.2325,26 L28.0315,26 L28.0315,25.077 L22.2985,25.077 L22.2985,21.671 L27.4985,21.671 L27.4985,20.748 L22.2985,20.748 L22.2985,17.641 L27.8105,17.641 L27.8105,16.718 L21.2325,16.718 Z M32.5295,19.097 C32.0875,19.097 31.6845,19.201 31.3205,19.409 C30.9565,19.604 30.6575,19.89 30.4235,20.267 L30.4235,19.279 L29.3835,19.279 L29.3835,26 L30.4235,26 L30.4235,21.944 C30.4625,21.333 30.6575,20.852 31.0215,20.488 C31.3595,20.15 31.7625,19.981 32.2305,19.981 C33.4005,19.981 33.9985,20.631 33.9985,21.944 L33.9985,26 L35.0385,26 L35.0385,21.866 C35.0385,20.02 34.1935,19.097 32.5295,19.097 Z M39.4195,19.097 C40.4335,19.097 41.1875,19.539 41.6815,20.436 L41.6815,19.279 L42.7215,19.279 L42.7215,25.532 C42.7215,27.677 41.6945,28.756 39.6535,28.756 C38.7435,28.756 38.0415,28.574 37.5735,28.21 C37.0925,27.846 36.7935,27.3 36.6765,26.572 L37.7165,26.572 C37.7945,27.027 37.9895,27.365 38.2885,27.573 C38.5875,27.794 39.0425,27.911 39.6535,27.911 C41.0055,27.911 41.6815,27.157 41.6815,25.675 L41.6815,24.492 C41.1875,25.389 40.4335,25.844 39.4195,25.844 C38.4835,25.844 37.7425,25.519 37.1965,24.882 C36.6505,24.258 36.3905,23.465 36.3905,22.49 C36.3905,21.502 36.6505,20.709 37.1965,20.085 C37.7425,19.422 38.4835,19.097 39.4195,19.097 Z M39.5755,19.955 C38.8995,19.955 38.3795,20.189 38.0025,20.683 C37.6385,21.125 37.4565,21.736 37.4565,22.49 C37.4565,23.192 37.6125,23.777 37.9375,24.219 C38.3015,24.713 38.8345,24.973 39.5625,24.973 C40.2385,24.973 40.7585,24.739 41.1485,24.271 C41.5125,23.816 41.6945,23.218 41.6945,22.49 C41.6945,21.736 41.5125,21.125 41.1485,20.683 C40.7585,20.189 40.2385,19.955 39.5755,19.955 Z M44.5415,16.536 L44.5415,26 L45.5685,26 L45.5685,16.536 L44.5415,16.536 Z M48.2465,16.744 C48.0255,16.744 47.8435,16.809 47.6875,16.965 C47.5315,17.095 47.4665,17.277 47.4665,17.511 C47.4665,17.732 47.5315,17.914 47.6875,18.07 C47.8435,18.213 48.0255,18.291 48.2465,18.291 C48.4675,18.291 48.6495,18.213 48.8055,18.07 C48.9615,17.914 49.0395,17.732 49.0395,17.511 C49.0395,17.277 48.9615,17.095 48.8055,16.965 C48.6495,16.809 48.4675,16.744 48.2465,16.744 Z M47.7265,19.279 L47.7265,26 L48.7665,26 L48.7665,19.279 L47.7265,19.279 Z M53.0955,19.097 C52.3415,19.097 51.7175,19.266 51.2495,19.604 C50.7425,19.942 50.4955,20.384 50.4955,20.956 C50.4955,21.528 50.7425,21.957 51.2625,22.269 C51.5745,22.477 52.1335,22.672 52.9265,22.867 C53.6545,23.049 54.1355,23.192 54.3565,23.296 C54.7725,23.504 54.9935,23.79 54.9935,24.167 C54.9935,24.921 54.3825,25.311 53.1865,25.311 C52.6145,25.311 52.1855,25.207 51.8995,24.999 C51.6135,24.765 51.4185,24.388 51.3405,23.855 L50.3265,23.855 C50.4825,25.402 51.4445,26.182 53.2125,26.182 C55.1105,26.182 56.0595,25.48 56.0595,24.102 C56.0595,23.517 55.7865,23.062 55.2535,22.724 C54.9025,22.503 54.3305,22.295 53.5245,22.1 C52.8485,21.918 52.3805,21.775 52.1335,21.658 C51.7435,21.463 51.5615,21.216 51.5615,20.93 C51.5615,20.631 51.7045,20.397 51.9905,20.228 C52.2505,20.046 52.6145,19.968 53.0825,19.968 C53.6155,19.968 54.0315,20.072 54.3175,20.28 C54.5775,20.462 54.7465,20.774 54.8375,21.19 L55.8515,21.19 C55.6695,19.786 54.7595,19.097 53.0955,19.097 Z M57.2815,16.536 L57.2815,26 L58.3215,26 L58.3215,22.165 C58.3215,21.541 58.4905,21.008 58.8415,20.592 C59.1795,20.176 59.6085,19.968 60.1285,19.968 C60.6875,19.968 61.1165,20.137 61.4285,20.475 C61.7145,20.813 61.8705,21.294 61.8705,21.918 L61.8705,26 L62.9105,26 L62.9105,21.762 C62.9105,20.904 62.7025,20.241 62.2865,19.786 C61.8705,19.318 61.2595,19.097 60.4795,19.097 C60.0245,19.097 59.6215,19.201 59.2575,19.409 C58.8675,19.63 58.5555,19.955 58.3215,20.384 L58.3215,16.536 L57.2815,16.536 Z" id="English" fill="#38393B"></path>
                        <path d="M15,21.4955439 C15,18.46044 12.5375967,16 9.50005502,16 C6.46245829,16 4,18.46044 4,21.4955439 C4,24.2992374 6.10114956,26.6123723 8.81585054,26.9489581 C8.96888629,26.9812073 9.15528445,27 9.37728971,27 C9.43961315,27 9.49971391,26.9967212 9.557757,26.9907797 C12.5687144,26.9598399 15,24.5115029 15,21.4955439 Z M14.2135626,21.5733005 C14.1977397,21.2991004 14.1615164,21.0306987 14.1063562,20.769856 C14.1112527,20.6767175 14.1125841,20.5884753 14.1100863,20.5064386 C14.1782966,20.825376 14.2142669,21.1562624 14.2142669,21.4955439 C14.2142779,21.5215214 14.2139808,21.547422 14.2135626,21.5733005 Z M4.78573315,21.4955439 C4.78573315,21.1624459 4.82041598,20.837457 4.88622751,20.5239 C5.08981302,20.7416229 5.56966174,20.7364846 5.68668324,20.4111766 C5.89606757,20.5359591 6.17744735,20.5586798 6.17744735,20.8080906 C6.17744735,21.6312301 6.2067605,22.5137075 6.95470787,22.5273399 C6.97576844,22.527615 7.37182601,22.6774287 7.56031481,23.1662379 C7.62548815,23.3351855 7.88327658,23.1662379 8.16597677,23.1662379 C8.30710682,23.1662379 8.16597677,23.4039858 8.16597677,23.9181014 C8.16597677,24.4302254 9.27016027,25.2187721 9.27016027,25.2187721 C9.26504368,25.5577676 9.27896302,25.8318796 9.30717582,26.0508678 C9.05793706,26.0462797 8.84789252,26.07931 8.68287404,26.1354791 C6.46874125,25.7488417 4.78573315,23.8186693 4.78573315,21.4955439 Z M10.6606311,26.0621677 C10.6361925,25.9425235 10.5292721,25.877002 10.3341923,25.9282749 C10.4898468,25.2654569 10.5655174,24.8941683 10.8904598,24.6122553 C11.3606035,24.2047346 10.9464453,23.7515524 10.5886797,23.8049599 C10.3066947,23.8475296 10.4848953,23.4558419 10.2332138,23.4341774 C9.98153224,23.4131181 9.65284869,22.912536 9.29062668,22.7402876 C9.09861678,22.6491076 8.9099189,22.404758 8.6137945,22.3938102 C8.35132962,22.3836327 7.96776094,22.6157252 7.96776094,22.4368201 C7.96776094,21.8605609 7.90940974,21.4493542 7.897416,21.2851379 C7.88773298,21.1532036 7.81117109,21.2406977 8.16597679,21.2492248 C8.35907603,21.2543961 8.2647546,20.8613881 8.45588423,20.8460392 C8.6436028,20.8311855 9.09091437,21.0217535 9.20487693,20.9458013 C9.31075197,20.8750755 9.98312775,22.7106461 9.98312775,21.2492138 C9.98312775,21.0758101 9.89331773,20.7743231 9.98312775,20.6100957 C10.3383186,19.9611302 10.6708423,19.4322269 10.640979,19.3548554 C10.6240337,19.3112954 10.2775906,19.2753274 10.0003921,19.3683338 C9.90684094,19.3995707 10.0301454,19.5460836 9.89578249,19.5773755 C9.39236443,19.6935868 8.94758365,19.4416453 9.10333726,19.2048326 C9.26283201,18.9621334 9.84072132,19.0989639 9.89138112,18.6120802 C9.92052922,18.3331929 9.94468176,18.0101955 9.9608458,17.7701371 C10.6383712,17.8760828 10.5637899,16.8908945 9.5563706,16.7854439 C11.5944485,16.8092869 13.3215033,18.1254276 13.955257,19.9520419 C13.923204,19.9228075 13.8859134,19.9050381 13.842846,19.900703 C13.5382599,19.1399382 12.7989503,19.690506 13.0497405,20.3615211 C11.7059793,21.3944174 12.0499466,22.1148129 12.4914373,22.5273399 C12.7237528,22.7441935 12.9452409,23.0703267 13.0894519,23.3045537 C12.9324879,23.7622141 13.6677924,23.5789519 14.0304325,22.8022882 C13.5691576,24.4019263 12.2823611,25.6519403 10.6606311,26.0621677 Z" id="Shape" fill="#8D8E91" fill-rule="nonzero"></path>
                        <polygon id="Triangle-2" fill="#38393B" points="72.5 23 69 19 76 19"></polygon>
                    </g>
                </g>
            </g>
        </g>
    </g>
</svg>