<?xml version="1.0" encoding="UTF-8"?>
<svg width="375px" height="58px" viewBox="0 0 375 58" version="1.1" xmlns="http://www.w3.org/2000/svg" xmlns:xlink="http://www.w3.org/1999/xlink">
    <!-- Generator: Sketch 46.1 (44463) - http://www.bohemiancoding.com/sketch -->
    <title>guanyuwomen</title>
    <desc>Created with Sketch.</desc>
    <defs></defs>
    <g id="Page-1" stroke="none" stroke-width="1" fill="none" fill-rule="evenodd">
        <g id="移动端首页-菜单展开" transform="translate(0.000000, -252.000000)">
            <g id="guanyuwomen" transform="translate(0.000000, 252.000000)">
                <rect id="Rectangle" fill="#FFFFFF" x="0" y="0" width="375" height="58"></rect>
                <path d="M162.5,20.835 C163.13,21.645 163.73,22.515 164.27,23.46 L163.55,23.82 C162.98,22.83 162.395,21.96 161.765,21.195 L162.5,20.835 Z M168.425,20.7 L169.22,20.91 C168.83,22.05 168.35,23.085 167.765,23.985 L171.035,23.985 L171.035,24.795 L165.905,24.795 L165.905,25.68 C165.89,26.46 165.83,27.165 165.71,27.825 L171.905,27.825 L171.905,28.635 L166.265,28.635 C167.015,30.795 169.01,32.49 172.25,33.69 L171.785,34.44 C168.395,33.06 166.31,31.17 165.5,28.755 C165.23,29.73 164.825,30.585 164.285,31.305 C163.265,32.61 161.6,33.63 159.29,34.365 L158.84,33.66 C161.12,32.94 162.755,31.95 163.715,30.705 C164.135,30.09 164.45,29.4 164.675,28.635 L159.095,28.635 L159.095,27.825 L164.87,27.825 C165.005,27.15 165.08,26.43 165.095,25.68 L165.095,24.795 L159.95,24.795 L159.95,23.985 L166.85,23.985 C167.45,23.085 167.975,21.99 168.425,20.7 Z M174.845,21.435 L174.845,22.23 L180.23,22.23 L180.23,26.625 L173.915,26.625 L173.915,27.435 L180.23,27.435 L180.23,32.73 C180.23,33.3 179.93,33.585 179.36,33.585 C178.655,33.585 177.92,33.555 177.155,33.525 L177.335,34.32 L179.63,34.32 C180.56,34.32 181.04,33.855 181.04,32.94 L181.04,27.435 L187.085,27.435 L187.085,26.625 L181.04,26.625 L181.04,22.23 L186.05,22.23 L186.05,21.435 L174.845,21.435 Z M195.665,27.825 L195.665,28.65 C194.75,28.965 193.79,29.25 192.785,29.505 L192.785,33.09 C192.785,33.87 192.365,34.26 191.54,34.26 L189.89,34.26 L189.71,33.495 C190.25,33.525 190.775,33.54 191.255,33.54 C191.735,33.54 191.975,33.315 191.975,32.88 L191.975,29.7 C190.97,29.925 189.935,30.12 188.855,30.3 L188.735,29.505 C189.875,29.325 190.955,29.115 191.975,28.875 L191.975,25.74 L188.765,25.74 L188.765,24.96 L191.975,24.96 L191.975,22.605 C191.135,22.785 190.265,22.935 189.35,23.055 L189.185,22.275 C191.345,22.035 193.25,21.585 194.9,20.94 L195.185,21.705 C194.435,21.975 193.64,22.215 192.785,22.425 L192.785,24.96 L196.715,24.96 C196.61,23.715 196.565,22.335 196.565,20.805 L197.375,20.805 C197.375,22.38 197.42,23.76 197.51,24.96 L202.235,24.96 L202.235,25.74 L197.57,25.74 C197.675,26.88 197.825,27.855 198.02,28.635 C198.125,29.085 198.245,29.505 198.38,29.895 C199.175,28.965 199.865,27.9 200.45,26.7 L201.155,27.075 C200.465,28.5 199.64,29.73 198.68,30.75 C198.905,31.335 199.16,31.83 199.43,32.25 C199.94,33 200.36,33.375 200.69,33.375 C201.05,33.36 201.365,32.46 201.62,30.69 L202.34,31.08 C201.98,33.18 201.47,34.245 200.81,34.245 C200.225,34.245 199.595,33.78 198.92,32.88 C198.605,32.445 198.32,31.935 198.065,31.35 C196.955,32.385 195.68,33.18 194.255,33.735 L193.805,33.045 C195.32,32.475 196.64,31.635 197.75,30.54 C197.555,30 197.39,29.43 197.24,28.8 C197.03,27.93 196.88,26.91 196.775,25.74 L192.785,25.74 L192.785,28.68 C193.805,28.41 194.765,28.125 195.665,27.825 Z M199.025,21 C200.105,21.735 201.02,22.485 201.77,23.25 L201.2,23.82 C200.525,23.1 199.61,22.335 198.47,21.525 L199.025,21 Z M215.3,34.365 C216.215,34.365 216.68,33.885 216.68,32.925 L216.68,21.84 L212.09,21.84 L212.09,22.635 L215.87,22.635 L215.87,32.715 C215.87,33.315 215.615,33.615 215.135,33.615 L213.605,33.585 L213.83,34.365 L215.3,34.365 Z M209.78,20.79 C210.53,21.69 211.1,22.485 211.49,23.175 L210.845,23.625 C210.425,22.875 209.87,22.065 209.15,21.18 L209.78,20.79 Z M207.215,20.715 C206.465,23.085 205.25,25.2 203.555,27.075 L203.81,27.915 C204.47,27.24 205.07,26.52 205.61,25.74 L205.61,34.5 L206.42,34.5 L206.42,24.48 C207.02,23.415 207.53,22.275 207.95,21.06 L207.215,20.715 Z M208.505,23.325 L209.315,23.325 L209.315,34.455 L208.505,34.455 L208.505,23.325 Z" id="关于我们" fill="#111111"></path>
            </g>
        </g>
    </g>
</svg>