<?xml version="1.0" encoding="UTF-8"?>
<svg width="375px" height="58px" viewBox="0 0 375 58" version="1.1" xmlns="http://www.w3.org/2000/svg" xmlns:xlink="http://www.w3.org/1999/xlink">
    <!-- Generator: Sketch 46.1 (44463) - http://www.bohemiancoding.com/sketch -->
    <title>jiejuefangan</title>
    <desc>Created with Sketch.</desc>
    <defs></defs>
    <g id="Page-1" stroke="none" stroke-width="1" fill="none" fill-rule="evenodd">
        <g id="移动端首页-菜单展开" transform="translate(0.000000, -195.000000)">
            <g id="jiejuefangan" transform="translate(0.000000, 195.000000)">
                <rect id="Rectangle" fill="#FFFFFF" x="0" y="0" width="375" height="58"></rect>
                <path d="M166.85,28.8911111 L168.755,28.8911111 L168.755,30.9461111 L165.41,30.9461111 L165.41,31.7111111 L168.755,31.7111111 L168.755,34.7111111 L169.55,34.7111111 L169.55,31.7111111 L172.235,31.7111111 L172.235,30.9461111 L169.55,30.9461111 L169.55,28.8911111 L171.92,28.8911111 L171.92,28.1411111 L169.55,28.1411111 L169.55,26.6861111 L168.755,26.6861111 L168.755,28.1411111 L167.135,28.1411111 C167.255,27.7811111 167.36,27.3761111 167.45,26.9411111 L166.76,26.8061111 C166.52,28.0361111 166.07,29.0261111 165.41,29.7611111 L165.89,30.3461111 C166.265,29.9411111 166.58,29.4611111 166.85,28.8911111 Z M167.66,22.6961111 C167.555,23.2361111 167.39,23.7311111 167.15,24.1661111 C166.805,24.7511111 166.28,25.2611111 165.59,25.6811111 L166.055,26.2961111 C166.805,25.8011111 167.375,25.2461111 167.765,24.6161111 C168.065,24.0761111 168.275,23.4311111 168.425,22.6961111 L170.9,22.6961111 C170.87,23.9111111 170.795,24.6611111 170.69,24.9461111 C170.57,25.2311111 170.27,25.3811111 169.82,25.3961111 C169.49,25.3811111 169.055,25.3661111 168.545,25.3361111 L168.74,26.0411111 C169.235,26.0561111 169.655,26.0711111 170,26.0711111 C170.615,26.0711111 171.05,25.8761111 171.29,25.4861111 C171.53,25.0961111 171.665,23.9261111 171.68,21.9761111 L165.56,21.9761111 L165.56,22.6961111 L167.66,22.6961111 Z M160.34,28.1411111 L160.34,29.8511111 C160.34,30.0011111 160.325,30.1511111 160.325,30.3011111 L161.915,30.3011111 L161.915,28.1411111 L160.34,28.1411111 Z M162.605,28.1411111 L162.605,30.3011111 L164.225,30.3011111 L164.225,28.1411111 L162.605,28.1411111 Z M164.225,27.4211111 L164.225,25.3511111 L162.605,25.3511111 L162.605,27.4211111 L164.225,27.4211111 Z M161.915,27.4211111 L161.915,25.3511111 L160.34,25.3511111 L160.34,27.4211111 L161.915,27.4211111 Z M160.295,31.0061111 C160.175,32.5211111 159.83,33.7811111 159.26,34.7861111 L158.705,34.2761111 C159.305,33.1361111 159.605,31.6811111 159.62,29.9111111 L159.62,24.9911111 C159.5,25.1261111 159.395,25.2611111 159.275,25.3811111 L158.78,24.7811111 C159.725,23.7611111 160.475,22.4711111 161.015,20.9111111 L161.765,21.0911111 C161.63,21.4661111 161.495,21.8261111 161.345,22.1711111 L164.105,22.1711111 L164.105,22.7561111 C163.73,23.4911111 163.37,24.1211111 163.01,24.6311111 L164.93,24.6311111 L164.93,33.5411111 C164.93,34.2311111 164.585,34.5761111 163.895,34.5761111 L162.845,34.5761111 L162.665,33.8861111 C163.025,33.9011111 163.355,33.9161111 163.67,33.9161111 C164.03,33.9161111 164.225,33.7061111 164.225,33.3011111 L164.225,31.0061111 L160.295,31.0061111 Z M162.155,24.6311111 C162.53,24.1211111 162.89,23.5361111 163.22,22.8761111 L161,22.8761111 C160.67,23.5061111 160.295,24.0911111 159.905,24.6311111 L162.155,24.6311111 Z M178.34,23.3711111 L181.52,23.3711111 L181.52,21.0011111 L182.315,21.0011111 L182.315,23.3711111 L185.765,23.3711111 L185.765,27.7811111 L187.175,27.7811111 L187.175,28.5461111 L181.925,28.5461111 C181.265,31.3361111 179.705,33.3611111 177.275,34.6211111 L176.765,33.9461111 C179.045,32.8361111 180.5,31.0361111 181.13,28.5461111 L177.755,28.5461111 L177.755,27.7811111 L181.295,27.7811111 C181.445,27.0011111 181.52,26.1761111 181.52,25.3061111 L181.52,24.1361111 L178.34,24.1361111 L178.34,23.3711111 Z M182.315,24.1361111 L182.315,25.1261111 C182.315,26.0711111 182.24,26.9561111 182.09,27.7811111 L184.97,27.7811111 L184.97,24.1361111 L182.315,24.1361111 Z M174.65,21.4811111 C175.61,22.8311111 176.36,24.0161111 176.87,25.0361111 L176.195,25.5161111 C175.655,24.4211111 174.92,23.2211111 173.975,21.9011111 L174.65,21.4811111 Z M176.255,27.6461111 L176.99,27.9461111 C176.33,30.1961111 175.58,32.2961111 174.755,34.2611111 L173.96,33.9161111 C174.845,31.8761111 175.61,29.7761111 176.255,27.6461111 Z M186.785,34.5461111 C185.315,32.8061111 183.905,31.3661111 182.585,30.2561111 L183.14,29.7311111 C184.34,30.6911111 185.75,32.1011111 187.37,33.9761111 L186.785,34.5461111 Z M189.065,23.2811111 L189.065,24.0761111 L193.31,24.0761111 C193.295,24.5861111 193.265,25.3661111 193.22,26.4311111 C193.13,27.8711111 192.845,29.1761111 192.335,30.3461111 C191.78,31.5161111 190.7,32.7761111 189.11,34.1261111 L189.71,34.6961111 C191,33.6311111 192.035,32.4761111 192.785,31.2161111 C193.325,30.1811111 193.685,29.0411111 193.865,27.7961111 L199.385,27.7961111 C199.385,29.8811111 199.34,31.2761111 199.25,31.9961111 C199.07,33.1661111 198.545,33.7811111 197.675,33.8261111 C197.165,33.8261111 196.535,33.7961111 195.785,33.7661111 L196.025,34.5161111 C196.7,34.5461111 197.285,34.5611111 197.765,34.5611111 C198.95,34.5161111 199.67,33.8261111 199.925,32.4761111 C200.09,31.6061111 200.18,29.7911111 200.21,27.0161111 L193.955,27.0161111 C193.955,26.9561111 193.97,26.9111111 193.97,26.8661111 C194.045,25.6211111 194.09,24.6911111 194.12,24.0761111 L202.085,24.0761111 L202.085,23.2811111 L196.445,23.2811111 C196.085,22.3811111 195.68,21.6011111 195.245,20.9561111 L194.465,21.2411111 C194.915,21.8711111 195.305,22.5611111 195.62,23.2811111 L189.065,23.2811111 Z M209.51,23.3561111 L210.26,23.5961111 C209.96,24.0161111 209.675,24.4061111 209.405,24.7511111 L216.455,24.7511111 L216.455,25.4261111 L213.89,25.4261111 C213.305,26.2211111 212.675,26.8511111 212,27.3161111 C213.38,27.6761111 214.79,28.0961111 216.245,28.5911111 L215.78,29.2211111 C214.25,28.6661111 212.705,28.1861111 211.175,27.7811111 C209.585,28.5461111 207.5,28.9361111 204.92,28.9661111 L204.47,28.3061111 C206.855,28.3061111 208.745,28.0361111 210.125,27.5111111 C209.03,27.2261111 207.935,26.9861111 206.84,26.7761111 C207.23,26.3261111 207.62,25.8761111 207.98,25.4261111 L204.575,25.4261111 L204.575,24.7511111 L208.505,24.7511111 C208.85,24.2711111 209.18,23.8061111 209.51,23.3561111 Z M211.055,27.0761111 C211.865,26.5961111 212.525,26.0561111 213.02,25.4261111 L208.88,25.4261111 C208.58,25.8011111 208.295,26.1311111 208.04,26.4161111 C209.03,26.5961111 210.035,26.8061111 211.055,27.0761111 Z M216.47,22.2611111 L216.47,24.2561111 L215.705,24.2561111 L215.705,22.9511111 L205.295,22.9511111 L205.295,24.2561111 L204.53,24.2561111 L204.53,22.2611111 L210.215,22.2611111 C210.005,21.8261111 209.795,21.4361111 209.555,21.0911111 L210.41,20.9411111 C210.62,21.3311111 210.815,21.7661111 211.01,22.2611111 L216.47,22.2611111 Z M204.11,30.0011111 L210.125,30.0011111 L210.125,28.7561111 L210.935,28.7561111 L210.935,30.0011111 L216.905,30.0011111 L216.905,30.7211111 L211.73,30.7211111 C212.84,31.8761111 214.61,32.7911111 217.07,33.4511111 L216.725,34.1561111 C213.995,33.2861111 212.075,32.1461111 210.98,30.7211111 L210.935,30.7211111 L210.935,34.6661111 L210.125,34.6661111 L210.125,30.7211111 L210.065,30.7211111 C209.105,32.1011111 207.215,33.2711111 204.41,34.2611111 L203.975,33.5411111 C206.645,32.7161111 208.43,31.7711111 209.33,30.7211111 L204.11,30.7211111 L204.11,30.0011111 Z" id="解决方案" fill="#111111"></path>
            </g>
        </g>
    </g>
</svg>