<?xml version="1.0" encoding="UTF-8"?>
<svg width="79px" height="45px" viewBox="0 0 79 45" version="1.1" xmlns="http://www.w3.org/2000/svg" xmlns:xlink="http://www.w3.org/1999/xlink">
    <!-- Generator: Sketch 46 (44423) - http://www.bohemiancoding.com/sketch -->
    <title>language</title>
    <desc>Created with Sketch.</desc>
    <defs></defs>
    <g id="Page-1" stroke="none" stroke-width="1" fill="none" fill-rule="evenodd">
        <g id="移动端首页" transform="translate(-288.000000, -70.000000)">
            <g id="Group-18">
                <g id="Group" transform="translate(0.000000, 65.000000)">
                    <g id="language" transform="translate(288.000000, 5.000000)">
                        <rect id="Rectangle-9" fill="#FFFFFF" x="0" y="0" width="79" height="45"></rect>
                        <path d="M38.019,16.327 L38.981,16.327 L38.981,18.667 L43.648,18.667 L43.648,24.777 L42.712,24.777 L42.712,23.958 L38.981,23.958 L38.981,28.391 L38.019,28.391 L38.019,23.958 L34.301,23.958 L34.301,24.777 L33.365,24.777 L33.365,18.667 L38.019,18.667 L38.019,16.327 Z M34.301,23.048 L38.019,23.048 L38.019,19.577 L34.301,19.577 L34.301,23.048 Z M38.981,23.048 L42.712,23.048 L42.712,19.577 L38.981,19.577 L38.981,23.048 Z M45.832,18.576 L51.214,18.576 C50.863,17.887 50.434,17.237 49.914,16.626 L50.85,16.288 C51.344,16.912 51.786,17.679 52.202,18.576 L57.168,18.576 L57.168,19.512 L55.14,19.512 C54.503,21.566 53.541,23.295 52.267,24.673 C53.645,25.843 55.374,26.805 57.454,27.572 L56.947,28.352 C54.789,27.546 53.021,26.545 51.617,25.336 C50.135,26.701 48.289,27.702 46.079,28.339 L45.585,27.52 C47.769,26.935 49.563,26.012 50.967,24.738 C49.459,23.256 48.419,21.514 47.834,19.512 L45.832,19.512 L45.832,18.576 Z M48.757,19.512 C49.316,21.267 50.265,22.788 51.617,24.088 C52.774,22.827 53.619,21.306 54.165,19.512 L48.757,19.512 Z" id="中文" fill="#38393B"></path>
                        <path d="M22,22.4953338 C22,19.460346 19.5378387,17 16.5005954,17 C13.4632971,17 11.0010807,19.4603459 11.0010807,22.4953338 C11.0010807,25.2989201 13.1020238,27.6119666 15.8164581,27.9485395 C15.9694788,27.9807874 16.1558587,27.9995794 16.3778421,27.9995794 C16.4401594,27.9995794 16.5002543,27.9963007 16.5582917,27.9903594 C19.5689533,27.9594208 22,25.5111775 22,22.4953338 Z M21.2136399,22.5730874 C21.1978185,22.2988978 21.1615988,22.0305064 21.106444,21.7696736 C21.11134,21.6765387 21.1126713,21.5882999 21.1101738,21.5062663 C21.1783774,21.8251915 21.2143441,22.1560652 21.2143441,22.4953338 C21.214355,22.5213103 21.214058,22.5472098 21.2136399,22.5730874 Z M11.7867367,22.4953338 C11.7867367,22.1622485 11.8214161,21.8372721 11.8872212,21.5237271 C12.0907867,21.7414416 12.5705883,21.7363035 12.6875983,21.411008 C12.896962,21.5357856 13.1783141,21.5585055 13.1783141,21.8079068 C13.1783141,22.6310147 13.2076244,23.5134584 13.9554983,23.5270903 C13.9765568,23.5273654 14.3725755,23.6771734 14.5610457,24.1659639 C14.6262127,24.334905 14.8839758,24.1659639 15.1666482,24.1659639 C15.3077644,24.1659639 15.1666482,24.4037027 15.1666482,24.9177986 C15.1666482,25.4299031 16.2707232,26.2184197 16.2707232,26.2184197 C16.2656071,26.5574021 16.2795251,26.8315037 16.3077351,27.0504835 C16.0585209,27.0458955 15.8484969,27.0789246 15.6834947,27.1350916 C13.4695794,26.748469 11.7867367,24.8183704 11.7867367,22.4953338 Z M17.6610574,27.0617829 C17.6366212,26.9421434 17.5297114,26.8766244 17.3346507,26.9278953 C17.4902899,26.2651026 17.5659531,25.8938283 17.8908636,25.611926 C18.3609611,25.2044209 17.9468435,24.751256 17.5891131,24.8046614 C17.3071558,24.8472295 17.4853389,24.4555568 17.2336821,24.4338932 C16.9820253,24.4128347 16.653374,23.9122717 16.2911876,23.7400298 C16.0991966,23.6488533 15.9105172,23.4045131 15.6144219,23.3935658 C15.3519828,23.3833886 14.9684518,23.6154722 14.9684518,23.436574 C14.9684518,22.8603368 14.9101064,22.4491459 14.8981138,22.2849358 C14.8884317,22.1530066 14.8118774,22.2404973 15.1666482,22.2490241 C15.3597285,22.2541952 15.2654163,21.8612022 15.4565272,21.8458539 C15.6442273,21.8310007 16.0914949,22.0215615 16.2054463,21.9456122 C16.3113109,21.8748891 16.9836206,23.7103895 16.9836206,22.2490131 C16.9836206,22.075616 16.8938194,21.7741406 16.9836206,21.6099195 C17.3387766,20.9609787 17.6712676,20.4320957 17.6414073,20.3547271 C17.6244636,20.3111688 17.2780546,20.2752021 17.0008833,20.368205 C16.9073413,20.3994407 17.0306337,20.545948 16.896284,20.5772387 C16.3929154,20.6934455 15.9481783,20.4415137 16.1039166,20.2047101 C16.2633957,19.9620202 16.8412282,20.0988454 16.891883,19.6119803 C16.9210283,19.3331037 16.9451784,19.0101187 16.9613409,18.7700694 C17.6387997,18.876011 17.5642258,17.8908604 16.5569054,17.7854139 C18.5947831,17.809256 20.3216682,19.1253463 20.9553597,20.9518908 C20.9233098,20.9226575 20.8860229,20.9048887 20.8429597,20.9005538 C20.5384036,20.1398182 19.7991665,20.6903649 20.0499321,21.3613543 C18.7063029,22.3942111 19.0502364,23.1145791 19.4916838,23.5270903 C19.7239765,23.7439356 19.9454428,24.0700564 20.0896396,24.3042744 C19.9326911,24.7619173 20.6679233,24.5786621 21.0305278,23.8020281 C20.5692981,25.401605 19.2826281,26.6515712 17.6610574,27.0617829 Z" id="Shape" fill="#8D8E91" fill-rule="nonzero"></path>
                        <polygon id="Triangle-2" fill="#38393B" points="68.5 24 65 20 72 20"></polygon>
                    </g>
                </g>
            </g>
        </g>
    </g>
</svg>