<?xml version="1.0" encoding="UTF-8"?>
<svg width="375px" height="58px" viewBox="0 0 375 58" version="1.1" xmlns="http://www.w3.org/2000/svg" xmlns:xlink="http://www.w3.org/1999/xlink">
    <!-- Generator: Sketch 46.1 (44463) - http://www.bohemiancoding.com/sketch -->
    <title>shouye</title>
    <desc>Created with Sketch.</desc>
    <defs></defs>
    <g id="Page-1" stroke="none" stroke-width="1" fill="none" fill-rule="evenodd">
        <g id="移动端首页-菜单展开" transform="translate(0.000000, -137.000000)">
            <g id="shouye" transform="translate(0.000000, 137.000000)">
                <rect id="Rectangle" fill="#FFFFFF" x="0" y="0" width="375" height="58"></rect>
                <path d="M185.48,25.5011111 L185.48,34.7261111 L184.415,34.7261111 L184.415,34.1111111 L176.585,34.1111111 L176.585,34.7261111 L175.52,34.7261111 L175.52,25.5011111 L179.585,25.5011111 C179.705,25.0211111 179.81,24.5111111 179.87,23.9861111 L173.855,23.9861111 L173.855,22.9361111 L177.68,22.9361111 C177.455,22.3511111 177.2,21.7961111 176.9,21.2861111 L177.95,20.8961111 C178.25,21.4661111 178.535,22.1411111 178.79,22.9361111 L182.12,22.9361111 C182.465,22.2761111 182.765,21.5861111 183.02,20.8511111 L184.085,21.2261111 C183.845,21.8711111 183.59,22.4411111 183.305,22.9361111 L187.145,22.9361111 L187.145,23.9861111 L181.01,23.9861111 C180.92,24.5111111 180.83,25.0211111 180.71,25.5011111 L185.48,25.5011111 Z M176.585,33.1361111 L184.415,33.1361111 L184.415,31.5311111 L176.585,31.5311111 L176.585,33.1361111 Z M176.585,30.5711111 L184.415,30.5711111 L184.415,29.0111111 L176.585,29.0111111 L176.585,30.5711111 Z M176.585,28.0511111 L184.415,28.0511111 L184.415,26.4911111 L176.585,26.4911111 L176.585,28.0511111 Z M200.135,24.2411111 L200.135,31.3361111 L199.055,31.3361111 L199.055,25.2911111 L191.885,25.2911111 L191.885,31.3661111 L190.805,31.3661111 L190.805,24.2411111 L194.6,24.2411111 C194.75,23.7161111 194.855,23.1761111 194.93,22.6061111 L188.9,22.6061111 L188.9,21.5861111 L202.1,21.5861111 L202.1,22.6061111 L196.07,22.6061111 C195.98,23.1761111 195.875,23.7311111 195.725,24.2411111 L200.135,24.2411111 Z M196.49,31.3661111 C198.425,32.0261111 200.195,32.8061111 201.785,33.7361111 L201.125,34.7561111 C199.415,33.6911111 197.675,32.8511111 195.89,32.2511111 L196.49,31.3661111 Z M194.945,26.1911111 L196.055,26.1911111 L196.055,28.5761111 C195.995,30.2261111 195.455,31.5311111 194.465,32.5211111 C193.505,33.4361111 191.93,34.1411111 189.74,34.6511111 L189.125,33.6911111 C191.3,33.2111111 192.815,32.5811111 193.67,31.7861111 C194.48,30.9611111 194.9,29.8961111 194.945,28.5761111 L194.945,26.1911111 Z" id="首页" fill="#111111"></path>
            </g>
        </g>
    </g>
</svg>