<?xml version="1.0" encoding="UTF-8"?>
<svg width="375px" height="58px" viewBox="0 0 375 58" version="1.1" xmlns="http://www.w3.org/2000/svg" xmlns:xlink="http://www.w3.org/1999/xlink">
    <!-- Generator: Sketch 46.1 (44463) - http://www.bohemiancoding.com/sketch -->
    <title>chaozuozhiyin</title>
    <desc>Created with Sketch.</desc>
    <defs></defs>
    <g id="Page-1" stroke="none" stroke-width="1" fill="none" fill-rule="evenodd">
        <g id="移动端首页-菜单展开" transform="translate(0.000000, -310.000000)">
            <g id="chaozuozhiyin" transform="translate(0.000000, 310.000000)">
                <rect id="Rectangle-Copy" fill="#FFFFFF" x="0" y="0" width="375" height="58"></rect>
                <path d="M166.01,30.3 L163.16,30.3 L163.16,29.55 L167.18,29.55 L167.18,28.575 L167.945,28.575 L167.945,29.55 L171.965,29.55 L171.965,30.3 L169.055,30.3 C169.715,31.41 170.825,32.4 172.4,33.27 L171.875,33.93 C170.225,32.85 169.055,31.635 168.38,30.3 L167.945,30.3 L167.945,34.41 L167.18,34.41 L167.18,30.3 L166.715,30.3 C165.98,31.785 164.78,33 163.115,33.96 L162.695,33.27 C164.21,32.505 165.32,31.515 166.01,30.3 Z M163.01,27.105 L163.01,27.93 C162.5,28.2 161.99,28.455 161.45,28.695 L161.45,33.24 C161.45,33.96 161.09,34.32 160.37,34.32 L159.14,34.32 L158.96,33.555 C159.35,33.585 159.725,33.6 160.085,33.6 C160.445,33.6 160.64,33.405 160.64,33.045 L160.64,29.025 C160.07,29.235 159.515,29.43 158.945,29.61 L158.75,28.815 C159.41,28.635 160.04,28.44 160.64,28.215 L160.64,24.54 L158.855,24.54 L158.855,23.745 L160.64,23.745 L160.64,20.85 L161.45,20.85 L161.45,23.745 L163.16,23.745 L163.16,24.54 L161.45,24.54 L161.45,27.885 C161.99,27.645 162.5,27.39 163.01,27.105 Z M164.78,21.375 L170.345,21.375 L170.345,24.27 L164.78,24.27 L164.78,21.375 Z M169.595,23.595 L169.595,22.035 L165.515,22.035 L165.515,23.595 L169.595,23.595 Z M163.535,25.29 L167.075,25.29 L167.075,28.155 L163.535,28.155 L163.535,25.29 Z M166.37,27.54 L166.37,25.92 L164.21,25.92 L164.21,27.54 L166.37,27.54 Z M168.05,25.29 L171.635,25.29 L171.635,28.155 L168.05,28.155 L168.05,25.29 Z M170.945,27.54 L170.945,25.92 L168.74,25.92 L168.74,27.54 L170.945,27.54 Z M180.125,23.79 C179.435,25.26 178.625,26.535 177.695,27.645 L177.125,26.97 C178.535,25.32 179.645,23.22 180.455,20.7 L181.265,20.895 C181.025,21.645 180.755,22.335 180.485,22.995 L187.205,22.995 L187.205,23.79 L181.97,23.79 L181.97,26.52 L186.515,26.52 L186.515,27.33 L181.97,27.33 L181.97,30.105 L186.635,30.105 L186.635,30.9 L181.97,30.9 L181.97,34.47 L181.16,34.47 L181.16,23.79 L180.125,23.79 Z M175.61,25.68 C175.07,26.4 174.485,27.09 173.84,27.75 L173.585,26.895 C175.265,25.08 176.465,23.04 177.215,20.775 L177.965,21.12 C177.56,22.32 177.05,23.43 176.42,24.465 L176.42,34.47 L175.61,34.47 L175.61,25.68 Z M201.47,27.585 L201.47,34.47 L200.645,34.47 L200.645,33.63 L195.62,33.63 L195.62,34.47 L194.825,34.47 L194.825,27.585 L201.47,27.585 Z M195.62,32.88 L200.645,32.88 L200.645,30.96 L195.62,30.96 L195.62,32.88 Z M195.62,30.21 L200.645,30.21 L200.645,28.32 L195.62,28.32 L195.62,30.21 Z M190.685,34.32 C191.45,34.32 191.84,33.93 191.84,33.18 L191.84,28.725 C192.5,28.47 193.145,28.2 193.775,27.9 L193.775,27.075 C193.145,27.375 192.5,27.66 191.84,27.915 L191.84,24.525 L193.595,24.525 L193.595,23.76 L191.84,23.76 L191.84,20.85 L191.045,20.85 L191.045,23.76 L188.945,23.76 L188.945,24.525 L191.045,24.525 L191.045,28.2 C190.28,28.455 189.5,28.68 188.705,28.86 L188.915,29.67 C189.635,29.475 190.355,29.25 191.045,29.01 L191.045,32.97 C191.045,33.39 190.82,33.6 190.4,33.6 C189.935,33.6 189.455,33.585 188.945,33.555 L189.125,34.32 L190.685,34.32 Z M201.59,22.125 L195.455,22.41 L195.455,20.91 L194.69,20.91 L194.69,24.99 C194.69,25.68 195.05,26.025 195.785,26.025 L201.92,26.025 L201.92,25.26 L196.175,25.26 C195.695,25.26 195.455,25.05 195.455,24.645 L195.455,23.13 L201.59,22.86 L201.59,22.125 Z M214.745,20.775 L214.745,34.485 L215.555,34.485 L215.555,20.775 L214.745,20.775 Z M205.655,25.545 L210.815,25.545 L210.815,21.45 L204.515,21.45 L204.515,22.2 L210.005,22.2 L210.005,24.795 L204.98,24.795 L204.2,29.04 L210.155,29.04 C210.155,30.9 210.065,32.145 209.9,32.745 C209.69,33.315 208.985,33.615 207.815,33.615 C207.335,33.615 206.855,33.585 206.375,33.54 L206.57,34.305 C207.05,34.335 207.53,34.365 207.98,34.365 C209.54,34.335 210.44,33.885 210.68,33.045 C210.875,32.31 210.98,30.72 210.98,28.275 L205.07,28.275 L205.655,25.545 Z" id="操作指引" fill="#111111"></path>
            </g>
        </g>
    </g>
</svg>