<?xml version="1.0" encoding="UTF-8"?>
<svg width="195px" height="75px" viewBox="0 0 195 75" version="1.1" xmlns="http://www.w3.org/2000/svg" xmlns:xlink="http://www.w3.org/1999/xlink">
    <!-- Generator: Sketch 43.1 (39012) - http://www.bohemiancoding.com/sketch -->
    <title>Group 10</title>
    <desc>Created with Sketch.</desc>
    <defs></defs>
    <g id="Page-1" stroke="none" stroke-width="1" fill="none" fill-rule="evenodd">
        <g id="效果图-copy" transform="translate(-865.000000, -5576.000000)" fill="#FFFFFF">
            <g id="P6" transform="translate(0.000000, 5403.000000)">
                <g id="Group-8" transform="translate(865.000000, 173.000000)">
                    <g id="Group-10">
                        <path d="M6,1.6 L2.5,40.1 L6.3,40.1 C7.9,36.8 10.4,34.2 13.6,32.4 C16.8,30.6 20.3,29.7 24.1,29.7 C29.9,29.7 34.6,31.4 38.2,34.9 C41.9,38.6 43.8,43.8 43.8,50.4 C43.8,56.2 41.9,61.1 38.1,65.1 C34.3,68.9 29.5,70.9 23.6,70.9 C18.6,70.9 14.3,69.5 10.8,66.8 C7,63.8 4.8,59.6 4.4,54.4 L0.4,54.4 C0.9,60.8 3.5,65.8 8.3,69.4 C12.5,72.7 17.6,74.4 23.6,74.4 C30.6,74.4 36.3,72.1 40.8,67.7 C45.3,63.1 47.6,57.3 47.6,50.4 C47.6,42.7 45.4,36.7 41.1,32.4 C36.9,28.2 31.4,26.2 24.6,26.2 C21.2,26.2 18,26.8 15,28.2 C11.7,29.6 9,31.7 7,34.3 L6.7,34.3 L9.4,5.3 L45.2,5.3 L45.2,1.6 L6,1.6 Z M87.3333333,0.2 C96.0333333,0.2 102.433333,4.3 106.433333,12.5 C109.433333,18.7 111.033333,27 111.033333,37.3 C111.033333,47.5 109.433333,55.8 106.433333,62.1 C102.433333,70.3 96.0333333,74.4 87.3333333,74.4 C78.5333333,74.4 72.2333333,70.3 68.2333333,62.1 C65.1333333,55.9 63.6333333,47.6 63.6333333,37.3 C63.6333333,26.9 65.1333333,18.7 68.2333333,12.5 C72.2333333,4.3 78.5333333,0.2 87.3333333,0.2 Z M87.3333333,3.8 C79.9333333,3.8 74.6333333,7.5 71.3333333,14.9 C68.7333333,20.4 67.5333333,27.9 67.5333333,37.3 C67.5333333,46.7 68.7333333,54.1 71.3333333,59.7 C74.6333333,67.1 79.9333333,70.8 87.3333333,70.8 C94.6333333,70.8 99.9333333,67.1 103.333333,59.7 C105.933333,54.1 107.233333,46.6 107.233333,37.3 C107.233333,27.9 105.933333,20.5 103.333333,14.9 C99.9333333,7.5 94.6333333,3.8 87.3333333,3.8 Z" id="50"></path>
                        <path d="M129.5,53.25 L135.95,53.25 C135.625,52.275 135.275,51.4 134.925,50.65 L136.3,50.4 C136.625,51.25 136.95,52.2 137.25,53.25 L143.95,53.25 L143.95,54.55 L142.05,54.55 C141.375,56.65 140.625,58.5 139.8,60.1 L144.6,60.1 L144.6,61.425 L128.525,61.425 L128.525,60.1 L133.275,60.1 C132.725,58.15 132,56.3 131.15,54.55 L129.5,54.55 L129.5,53.25 Z M138.45,60.1 C139.275,58.375 140,56.525 140.625,54.55 L132.625,54.55 C133.35,56.15 134,58 134.6,60.1 L138.45,60.1 Z M142.3,64.275 L142.3,73.4 L140.925,73.4 L140.925,72 L132.075,72 L132.075,73.4 L130.7,73.4 L130.7,64.275 L142.3,64.275 Z M132.075,70.675 L140.925,70.675 L140.925,65.625 L132.075,65.625 L132.075,70.675 Z M124.975,59.175 C124.175,60.4 123.325,61.55 122.375,62.65 L121.95,61.2 C124.475,58.05 126.3,54.475 127.425,50.475 L128.675,51.05 C128.05,53.1 127.275,55.05 126.325,56.85 L126.325,73.5 L124.975,73.5 L124.975,59.175 Z M147.45,54.475 L152.425,54.475 C151.95,53.2 151.375,51.95 150.725,50.75 L152.05,50.4 C152.75,51.725 153.275,52.95 153.65,54.075 L152.575,54.475 L157.675,54.475 L157.675,55.8 L151.45,55.8 L151.45,58.375 C151.45,58.875 151.425,59.375 151.425,59.85 L156.4,59.85 C156.4,65.85 156.275,69.55 156.05,70.925 C155.8,72.375 154.775,73.1 153,73.1 C152.65,73.1 152.1,73.075 151.3,73.025 L150.975,71.825 C151.675,71.875 152.275,71.9 152.775,71.9 C153.875,71.9 154.55,71.425 154.75,70.525 C154.975,69.475 155.1,66.325 155.125,61.1 L151.375,61.1 C151.05,66.55 149.925,70.65 147.975,73.375 L146.925,72.475 C149.05,69.55 150.125,64.85 150.175,58.375 L150.175,55.8 L147.45,55.8 L147.45,54.475 Z M161.175,55.925 C160.35,58.175 159.3,60.05 158,61.55 L157.15,60.525 C159.15,58.025 160.525,54.675 161.25,50.45 L162.575,50.7 C162.325,52.1 162,53.4 161.625,54.6 L169.15,54.6 L169.15,55.925 L167.15,55.925 C167,60.075 166.05,63.625 164.275,66.55 C165.8,68.7 167.65,70.575 169.8,72.225 L168.9,73.3 C166.75,71.65 164.95,69.8 163.475,67.75 C161.875,69.925 159.825,71.725 157.275,73.175 L156.5,71.95 C159.1,70.55 161.175,68.775 162.7,66.625 C161.45,64.725 160.475,62.65 159.75,60.4 L160.825,59.775 C161.5,61.8 162.375,63.675 163.475,65.375 C164.975,62.7 165.775,59.55 165.875,55.925 L161.175,55.925 Z M172.6,57.35 L172.6,58.7 L182.225,58.7 C180.95,65.1 177.575,69.65 172.1,72.35 L172.95,73.475 C178.5,70.6 181.975,65.95 183.4,59.5 C185.225,65.5 188.775,70.125 194.025,73.325 L194.85,72.225 C189.6,69.075 186.125,64.575 184.375,58.7 L194.4,58.7 L194.4,57.35 L183.8,57.35 C184.05,55.775 184.175,54.075 184.175,52.275 L184.175,50.675 L182.825,50.675 L182.825,52.575 C182.8,54.225 182.675,55.825 182.45,57.35 L172.6,57.35 Z" id="倍放大"></path>
                    </g>
                </g>
            </g>
        </g>
    </g>
</svg>