<?xml version="1.0" encoding="UTF-8"?>
<svg width="367px" height="19px" viewBox="0 0 367 19" version="1.1" xmlns="http://www.w3.org/2000/svg" xmlns:xlink="http://www.w3.org/1999/xlink">
    <!-- Generator: Sketch 43.1 (39012) - http://www.bohemiancoding.com/sketch -->
    <title>副文字</title>
    <desc>Created with Sketch.</desc>
    <defs></defs>
    <g id="Page-1" stroke="none" stroke-width="1" fill="none" fill-rule="evenodd">
        <g id="效果图-copy" transform="translate(-777.000000, -5683.000000)">
            <g id="P6" transform="translate(0.000000, 5403.000000)">
                <g id="副文字" transform="translate(777.000000, 280.000000)">
                    <path d="M6.808,6.658 C6.358,7.378 5.854,7.972 5.296,8.476 L4.378,7.63 C5.476,6.568 6.304,5.236 6.844,3.652 L7.996,3.958 C7.816,4.498 7.636,5.02 7.42,5.488 L14.386,5.488 L14.386,6.658 L10.642,6.658 L10.642,7.864 C10.624,8.296 10.588,8.728 10.552,9.124 L15.448,9.124 L15.448,10.348 L10.3,10.348 C10.048,11.248 9.688,12.022 9.22,12.688 C8.356,13.786 6.934,14.65 4.972,15.28 L4.27,14.182 C6.178,13.606 7.528,12.814 8.284,11.824 C8.572,11.374 8.806,10.888 8.986,10.348 L4.27,10.348 L4.27,9.124 L9.274,9.124 C9.328,8.71 9.364,8.296 9.382,7.864 L9.382,6.658 L6.808,6.658 Z M11.056,11.356 C12.766,12.256 14.242,13.264 15.466,14.38 L14.656,15.334 C13.54,14.218 12.1,13.174 10.354,12.22 L11.056,11.356 Z M0.85,1.996 L15.592,1.996 L15.592,3.184 L3.1,3.184 L3.1,15.334 C3.1,15.73 3.298,15.946 3.712,15.946 L16.042,15.946 L16.042,17.134 L3.37,17.134 C2.362,17.134 1.858,16.63 1.858,15.622 L1.858,3.184 L0.85,3.184 L0.85,1.996 Z M23.98,5.866 L33.448,5.866 L33.448,7.09 C32.332,8.152 31.054,9.16 29.614,10.132 L29.614,16.054 C29.614,17.206 29.02,17.782 27.85,17.782 L25.672,17.782 L25.366,16.63 C25.978,16.648 26.626,16.666 27.346,16.666 C27.994,16.666 28.336,16.324 28.336,15.658 L28.336,9.484 C29.506,8.818 30.622,8.026 31.702,7.09 L23.98,7.09 L23.98,5.866 Z M21.262,9.178 C21.262,8.962 21.28,8.764 21.28,8.584 L21.28,2.752 L27.4,2.752 C27.202,2.23 26.986,1.744 26.752,1.312 L28.084,1.078 C28.282,1.582 28.48,2.14 28.66,2.752 L34.222,2.752 L34.222,4.03 L22.576,4.03 L22.576,8.584 C22.504,12.382 21.694,15.424 20.182,17.71 L19.21,16.846 C20.254,15.262 20.902,13.192 21.154,10.636 C20.362,11.32 19.462,11.968 18.49,12.58 L18.112,11.32 C19.264,10.69 20.308,9.97 21.262,9.178 Z M19.372,4.354 C19.984,5.434 20.506,6.568 20.938,7.756 L19.894,8.206 C19.408,6.892 18.886,5.74 18.31,4.768 L19.372,4.354 Z M41.764,14.002 L41.764,15.226 C40.18,15.874 38.398,16.396 36.382,16.774 L36.22,15.514 C38.326,15.136 40.18,14.632 41.764,14.002 Z M39.568,1.276 L40.792,1.762 C39.856,4.03 38.902,5.83 37.93,7.162 C38.794,7.072 39.658,6.964 40.522,6.82 C40.864,6.208 41.224,5.578 41.602,4.912 L42.736,5.326 C41.044,8.242 39.658,10.33 38.542,11.572 C39.838,11.338 41.152,11.014 42.448,10.618 L42.448,11.788 C40.54,12.364 38.704,12.742 36.958,12.958 L36.616,11.788 C36.85,11.698 37.048,11.572 37.21,11.428 C37.93,10.744 38.794,9.61 39.802,7.99 C38.758,8.152 37.714,8.296 36.67,8.422 L36.346,7.234 C36.544,7.162 36.724,7 36.886,6.766 C37.912,5.164 38.812,3.328 39.568,1.276 Z M44.482,3.256 L42.7,3.256 L42.7,2.032 L50.602,2.032 L50.602,2.842 C50.314,4.462 50.026,5.848 49.738,7 L52.024,7 L52.024,7.72 C51.646,10.204 50.818,12.31 49.522,14.02 C50.458,15.028 51.556,15.91 52.816,16.702 L52.006,17.782 C50.746,16.954 49.648,16.018 48.748,14.974 C47.668,16.126 46.336,17.062 44.788,17.818 L44.068,16.63 C45.58,15.892 46.858,14.974 47.884,13.894 C46.804,12.436 45.976,10.78 45.418,8.944 C44.878,12.742 43.69,15.676 41.872,17.728 L40.918,16.882 C43.258,14.254 44.446,10.042 44.482,4.228 L44.482,3.256 Z M48.64,12.994 C49.684,11.608 50.368,9.988 50.728,8.134 L48.226,8.134 C48.55,7.018 48.892,5.398 49.27,3.256 L45.742,3.256 L45.742,4.228 C45.742,4.894 45.724,5.542 45.688,6.154 C46.138,8.782 47.128,11.068 48.64,12.994 Z M62.734,1.186 L61.312,1.438 C61.528,1.852 61.744,2.302 61.924,2.806 L54.544,2.806 L54.544,3.994 L70.438,3.994 L70.438,2.806 L63.31,2.806 C63.13,2.212 62.932,1.672 62.734,1.186 Z M67.558,17.746 L66.046,17.746 L65.74,16.576 L67.18,16.63 C67.918,16.63 68.296,16.342 68.296,15.766 L68.296,10.87 L56.704,10.87 L56.704,17.8 L55.462,17.8 L55.462,9.736 L69.538,9.736 L69.538,16.036 C69.538,17.17 68.872,17.746 67.558,17.746 Z M57.478,5.164 L67.54,5.164 L67.54,8.656 L57.478,8.656 L57.478,5.164 Z M66.28,7.648 L66.28,6.172 L58.738,6.172 L58.738,7.648 L66.28,7.648 Z M58.972,12.022 L66.046,12.022 L66.046,15.622 L58.972,15.622 L58.972,12.022 Z M64.894,14.65 L64.894,12.994 L60.142,12.994 L60.142,14.65 L64.894,14.65 Z M74.02,1.528 L73.102,2.428 C74.254,3.256 75.154,4.03 75.82,4.768 L76.738,3.85 C76,3.076 75.1,2.302 74.02,1.528 Z M73.462,5.848 L72.526,6.748 C73.768,7.684 74.74,8.584 75.424,9.412 L76.36,8.494 C75.568,7.612 74.614,6.73 73.462,5.848 Z M75.244,10.852 C74.56,12.976 73.732,15.046 72.778,17.062 L73.966,17.584 C74.866,15.622 75.658,13.534 76.378,11.302 L75.244,10.852 Z M82.12,1.294 L82.12,2.428 L77.458,2.428 L77.458,3.508 L82.12,3.508 L82.12,4.696 L78.196,4.696 L78.196,5.74 L82.12,5.74 L82.12,6.964 L76.882,6.964 L76.882,8.044 L88.672,8.044 L88.672,6.964 L83.38,6.964 L83.38,5.74 L87.484,5.74 L87.484,4.696 L83.38,4.696 L83.38,3.508 L88.168,3.508 L88.168,2.428 L83.38,2.428 L83.38,1.294 L82.12,1.294 Z M79.744,12.616 L79.744,13.894 L85.81,13.894 L85.81,12.616 L79.744,12.616 Z M85.81,11.608 L85.81,10.276 L79.744,10.276 L79.744,11.608 L85.81,11.608 Z M79.744,14.884 L79.744,17.8 L78.52,17.8 L78.52,9.214 L87.07,9.214 L87.07,16.216 C87.07,17.188 86.584,17.692 85.63,17.692 L83.902,17.692 L83.578,16.54 L85.252,16.594 C85.612,16.594 85.81,16.378 85.81,15.946 L85.81,14.884 L79.744,14.884 Z M92.254,17.638 L90.868,17.638 L90.598,16.396 C91.03,16.45 91.426,16.486 91.804,16.486 C92.272,16.486 92.506,16.234 92.506,15.766 L92.506,11.41 C91.84,11.698 91.174,11.95 90.49,12.166 L90.166,10.924 C90.958,10.708 91.75,10.456 92.506,10.15 L92.506,5.974 L90.49,5.974 L90.49,4.768 L92.506,4.768 L92.506,1.348 L93.802,1.348 L93.802,4.768 L95.512,4.768 L95.512,5.974 L93.802,5.974 L93.802,9.574 C94.342,9.322 94.864,9.034 95.386,8.728 L95.386,10.006 C94.864,10.294 94.342,10.582 93.802,10.834 L93.802,16.108 C93.802,17.116 93.28,17.638 92.254,17.638 Z M95.89,1.924 L106.006,1.924 L106.006,2.968 L104.548,2.968 L104.548,8.08 C105.124,8.026 105.682,7.99 106.24,7.954 L106.24,8.962 L104.548,9.07 L104.548,9.97 L103.306,9.97 L103.306,9.142 C100.966,9.268 98.536,9.376 95.98,9.484 L95.728,8.494 C96.304,8.458 96.862,8.44 97.402,8.44 L97.402,2.968 L95.89,2.968 L95.89,1.924 Z M98.626,8.386 C100.21,8.314 101.776,8.242 103.306,8.152 L103.306,7.09 L98.626,7.09 L98.626,8.386 Z M98.626,6.226 L103.306,6.226 L103.306,5.056 L98.626,5.056 L98.626,6.226 Z M98.626,4.174 L103.306,4.174 L103.306,2.968 L98.626,2.968 L98.626,4.174 Z M96.448,12.238 C97.06,12.76 97.654,13.282 98.194,13.804 C98.554,13.156 98.842,12.436 99.04,11.644 L95.674,11.644 L95.674,10.528 L100.174,10.528 L100.174,11.59 C99.94,12.76 99.562,13.786 99.058,14.686 C99.544,15.208 99.994,15.712 100.408,16.216 L99.526,17.116 C99.184,16.648 98.806,16.162 98.374,15.676 C97.636,16.576 96.736,17.314 95.674,17.89 L94.99,16.846 C96.034,16.288 96.88,15.604 97.528,14.776 C96.952,14.2 96.34,13.606 95.656,13.012 L96.448,12.238 Z M100.894,10.528 L106.06,10.528 L106.06,11.59 C105.754,12.958 105.232,14.164 104.476,15.172 C105.124,15.766 105.88,16.288 106.762,16.756 L106.114,17.782 C105.178,17.242 104.404,16.666 103.756,16.018 C103,16.756 102.118,17.386 101.11,17.89 L100.444,16.864 C101.434,16.378 102.262,15.784 102.946,15.1 C102.154,14.074 101.632,12.922 101.344,11.644 L100.894,11.644 L100.894,10.528 Z M102.406,11.644 C102.64,12.616 103.054,13.48 103.648,14.254 C104.188,13.48 104.602,12.616 104.872,11.644 L102.406,11.644 Z M118.336,10.654 C118.12,10.33 117.886,10.024 117.634,9.754 C116.626,10.6 115.222,11.356 113.404,12.022 L112.774,10.996 C114.862,10.348 116.338,9.61 117.202,8.818 L113.782,8.818 L113.782,5.56 C113.53,5.722 113.278,5.884 113.044,6.028 L112.252,5.074 C114.052,4.066 115.51,2.77 116.662,1.15 L117.976,1.456 C117.724,1.816 117.49,2.14 117.238,2.464 L121.738,2.464 L121.738,3.31 C121.27,3.922 120.802,4.444 120.334,4.894 L123.7,4.894 L123.7,8.818 L118.534,8.818 C118.498,8.89 118.444,8.944 118.39,9.016 C119.146,9.808 119.722,10.636 120.118,11.518 C121.342,10.942 122.368,10.258 123.196,9.448 L124.006,10.366 C123.214,11.086 122.296,11.698 121.216,12.238 C121.936,13.678 123.124,14.956 124.798,16.09 L123.988,17.098 C122.494,15.874 121.378,14.56 120.622,13.12 C120.712,13.552 120.766,14.002 120.784,14.47 C120.784,15.73 120.586,16.594 120.19,17.08 C119.866,17.476 119.254,17.746 118.354,17.854 C118.03,17.89 117.67,17.908 117.292,17.908 L116.896,16.72 C117.418,16.72 117.85,16.702 118.21,16.684 C118.606,16.648 118.93,16.504 119.2,16.216 C119.434,15.928 119.56,15.334 119.56,14.47 C119.56,14.236 119.542,14.02 119.506,13.804 C117.976,15.244 115.942,16.414 113.422,17.332 L112.774,16.216 C115.6,15.28 117.76,14.074 119.272,12.634 C119.164,12.238 119.02,11.86 118.84,11.518 C117.508,12.796 115.726,13.84 113.458,14.632 L112.846,13.57 C115.204,12.814 117.04,11.842 118.336,10.654 Z M119.362,7.756 L122.44,7.756 L122.44,5.956 L119.362,5.956 L119.362,7.756 Z M114.718,4.894 L118.678,4.894 C119.2,4.462 119.704,3.976 120.208,3.472 L116.338,3.472 C115.834,3.976 115.294,4.462 114.718,4.894 Z M118.138,5.956 L115.042,5.956 L115.042,7.756 L118.138,7.756 L118.138,5.956 Z M111.766,1.204 L112.972,1.762 C112.612,3.004 112.144,4.192 111.604,5.308 L111.604,17.782 L110.29,17.782 L110.29,7.648 C109.768,8.44 109.192,9.214 108.58,9.952 L108.166,8.566 C109.822,6.424 111.01,3.976 111.766,1.204 Z M132.592,13.768 L132.592,14.992 C130.9,15.784 128.956,16.432 126.76,16.9 L126.598,15.622 C128.902,15.154 130.9,14.542 132.592,13.768 Z M129.766,1.312 L130.99,1.798 C130.018,4.03 129.046,5.812 128.056,7.144 C128.92,7.072 129.766,6.946 130.63,6.802 C131.008,6.136 131.404,5.416 131.818,4.642 L132.988,5.092 C131.26,8.188 129.838,10.384 128.704,11.698 C130.036,11.41 131.368,11.014 132.7,10.51 L132.7,11.698 C130.738,12.4 128.866,12.886 127.066,13.138 L126.724,11.932 C126.958,11.824 127.156,11.698 127.318,11.554 C128.038,10.852 128.902,9.664 129.928,7.99 C128.884,8.152 127.84,8.296 126.76,8.44 L126.436,7.234 C126.634,7.162 126.814,7 126.994,6.748 C128.056,5.164 128.974,3.364 129.766,1.312 Z M141.16,2.14 L141.16,15.91 L142.69,15.91 L142.69,17.17 L132.286,17.17 L132.286,15.91 L133.852,15.91 L133.852,2.14 L141.16,2.14 Z M135.13,15.91 L139.882,15.91 L139.882,12.49 L135.13,12.49 L135.13,15.91 Z M135.13,11.266 L139.882,11.266 L139.882,7.864 L135.13,7.864 L135.13,11.266 Z M135.13,6.64 L139.882,6.64 L139.882,3.382 L135.13,3.382 L135.13,6.64 Z M148.216,1.186 L149.44,1.744 C148.972,3.166 148.378,4.516 147.658,5.794 L147.658,17.818 L146.38,17.818 L146.38,7.774 C145.804,8.566 145.174,9.322 144.49,10.042 L144.076,8.656 C145.984,6.496 147.352,3.994 148.216,1.186 Z M151.24,2.374 L152.518,2.536 C152.374,3.436 152.176,4.3 151.924,5.092 L154.57,5.092 L154.57,1.348 L155.866,1.348 L155.866,5.092 L160.006,5.092 L160.006,6.352 L155.866,6.352 L155.866,10.69 L160.672,10.69 L160.672,11.932 L155.866,11.932 L155.866,17.728 L154.57,17.728 L154.57,11.932 L149.278,11.932 L149.278,10.69 L154.57,10.69 L154.57,6.352 L151.51,6.352 C151.06,7.54 150.502,8.602 149.836,9.538 L149.008,8.458 C150.106,6.802 150.844,4.768 151.24,2.374 Z" id="医疗级高清摄像组件" fill="#777777"></path>
                    <path d="M198.836,4.282 L190.754,4.282 L190.754,6.64 L198.836,6.64 L198.836,4.282 Z M190.754,7.756 C190.718,11.608 190.016,14.902 188.63,17.674 L187.694,16.846 C188.954,14.47 189.584,11.41 189.602,7.666 L189.602,3.13 L194.318,3.13 C194.066,2.518 193.796,1.96 193.508,1.456 L194.804,1.24 C195.074,1.798 195.326,2.428 195.578,3.13 L199.988,3.13 L199.988,7.756 L190.754,7.756 Z M186.29,7.666 C185.786,8.422 185.228,9.142 184.616,9.844 L184.238,8.548 C185.894,6.46 187.082,4.048 187.838,1.348 L188.99,1.888 C188.594,3.184 188.108,4.39 187.532,5.542 L187.532,17.836 L186.29,17.836 L186.29,7.666 Z M198.872,17.746 L198.044,17.746 L197.792,16.756 L198.53,16.81 C198.8,16.81 198.944,16.666 198.944,16.414 L198.944,13.876 L197.342,13.876 L197.342,17.458 L196.406,17.458 L196.406,13.876 L194.876,13.876 L194.876,17.458 L193.94,17.458 L193.94,13.876 L192.338,13.876 L192.338,17.71 L191.258,17.71 L191.258,9.358 L200.06,9.358 L200.06,16.666 C200.06,17.386 199.664,17.746 198.872,17.746 Z M192.338,12.832 L193.94,12.832 L193.94,10.402 L192.338,10.402 L192.338,12.832 Z M194.876,10.402 L194.876,12.832 L196.406,12.832 L196.406,10.402 L194.876,10.402 Z M197.342,10.402 L197.342,12.832 L198.944,12.832 L198.944,10.402 L197.342,10.402 Z M209.834,1.312 L211.166,1.312 L211.166,7.99 L218.366,7.99 L218.366,9.268 L213.2,9.268 L213.2,15.298 C213.2,15.838 213.452,16.108 213.956,16.108 L216.134,16.108 C216.53,16.108 216.818,15.982 216.998,15.73 C217.214,15.406 217.358,14.488 217.43,12.94 L218.672,13.336 C218.546,15.244 218.294,16.396 217.934,16.792 C217.61,17.152 217.088,17.332 216.368,17.332 L213.56,17.332 C212.444,17.332 211.904,16.738 211.904,15.568 L211.904,9.268 L208.862,9.268 L208.862,9.394 C208.808,11.644 208.322,13.444 207.404,14.812 C206.504,16.072 205.028,17.044 202.994,17.746 L202.256,16.594 C204.236,15.91 205.604,15.028 206.396,13.912 C207.116,12.76 207.512,11.248 207.548,9.394 L207.548,9.268 L202.652,9.268 L202.652,7.99 L209.834,7.99 L209.834,1.312 Z M215.81,2.176 L217.016,2.752 C216.404,4.228 215.594,5.668 214.604,7.054 L213.434,6.46 C214.424,5.02 215.216,3.58 215.81,2.176 Z M205.244,2.338 C206.126,3.598 206.954,4.966 207.746,6.46 L206.54,7.054 C205.748,5.506 204.902,4.138 204.02,2.914 L205.244,2.338 Z M227.168,2.662 L230.75,2.662 C230.57,2.194 230.354,1.744 230.138,1.33 L231.434,1.114 C231.614,1.564 231.812,2.086 231.992,2.662 L235.808,2.662 L235.808,3.742 L234.332,3.742 C234.17,4.426 233.954,5.074 233.666,5.686 L236.402,5.686 L236.402,6.784 L226.628,6.784 L226.628,5.686 L229.31,5.686 C229.094,4.966 228.86,4.318 228.608,3.742 L227.168,3.742 L227.168,2.662 Z M232.424,5.686 C232.748,5.056 232.982,4.408 233.126,3.742 L229.868,3.742 C230.084,4.336 230.282,4.984 230.48,5.686 L232.424,5.686 Z M227.726,7.864 L235.178,7.864 L235.178,13.516 L233.342,13.516 L233.342,15.856 C233.342,16.306 233.558,16.54 234.008,16.54 L234.782,16.54 C235.07,16.54 235.286,16.45 235.412,16.288 C235.574,16.072 235.682,15.442 235.736,14.416 L236.798,14.74 C236.69,16.108 236.492,16.936 236.204,17.242 C235.952,17.476 235.538,17.602 234.98,17.602 L233.666,17.602 C232.64,17.602 232.136,17.098 232.136,16.108 L232.136,13.516 L230.552,13.516 C230.354,14.596 229.976,15.478 229.418,16.144 C228.77,16.9 227.708,17.476 226.214,17.89 L225.764,16.81 C226.988,16.486 227.888,16.018 228.446,15.442 C228.878,14.938 229.184,14.308 229.346,13.516 L227.726,13.516 L227.726,7.864 Z M234.008,12.472 L234.008,11.158 L228.896,11.158 L228.896,12.472 L234.008,12.472 Z M228.896,10.204 L234.008,10.204 L234.008,8.89 L228.896,8.89 L228.896,10.204 Z M222.434,1.186 L223.676,1.456 C223.514,2.122 223.352,2.752 223.172,3.328 L226.286,3.328 L226.286,4.57 L222.758,4.57 C222.29,5.812 221.768,6.946 221.174,7.954 L220.112,7.288 C221.174,5.452 221.948,3.418 222.434,1.186 Z M221.984,6.964 L226.07,6.964 L226.07,8.134 L224.18,8.134 L224.18,10.348 L226.484,10.348 L226.484,11.536 L224.18,11.536 L224.18,15.712 C224.792,15.424 225.422,15.046 226.052,14.596 L226.286,15.712 C225.314,16.36 224.216,16.882 222.956,17.278 L222.452,16.198 C222.758,16.09 222.92,15.892 222.92,15.622 L222.92,11.536 L220.67,11.536 L220.67,10.348 L222.92,10.348 L222.92,8.134 L221.984,8.134 L221.984,6.964 Z M243.08,7.324 L253.682,7.324 L253.682,6.082 L249.632,6.082 L249.632,1.294 L248.354,1.294 L248.354,6.082 L243.08,6.082 L243.08,1.798 L241.766,1.798 L241.766,8.404 C241.73,12.292 240.776,15.136 238.886,16.918 L239.876,17.782 C241.406,16.342 242.396,14.254 242.828,11.554 L250.064,11.554 L250.064,17.836 L251.36,17.836 L251.36,10.294 L242.99,10.294 C243.026,9.7 243.062,9.07 243.08,8.404 L243.08,7.324 Z" id="偏光镜片" fill="#777777"></path>
                    <path d="M278.476,2.014 L284.038,2.014 L284.038,3.04 C283.498,4.66 282.85,6.352 282.112,8.116 C283.228,9.736 283.84,11.212 283.912,12.544 C283.912,13.3 283.714,13.84 283.354,14.164 C282.85,14.56 281.932,14.776 280.636,14.794 L280.222,13.48 C280.492,13.516 280.726,13.552 280.924,13.552 C281.608,13.516 282.058,13.426 282.274,13.282 C282.49,13.138 282.616,12.904 282.616,12.544 C282.616,11.284 282.004,9.862 280.78,8.314 C281.608,6.442 282.274,4.75 282.742,3.238 L279.754,3.238 L279.754,17.818 L278.476,17.818 L278.476,2.014 Z M284.29,3.976 L288.79,3.976 C288.538,3.058 288.268,2.212 287.944,1.456 L289.24,1.24 C289.546,2.032 289.834,2.932 290.104,3.976 L294.01,3.976 L294.01,5.236 L288.052,5.236 C288.034,5.938 287.998,6.982 287.926,8.35 L293.074,8.35 C293.038,12.202 292.894,14.668 292.66,15.766 C292.336,16.954 291.526,17.584 290.266,17.62 C289.834,17.62 289.312,17.584 288.7,17.53 L288.286,16.324 C289.006,16.36 289.636,16.396 290.14,16.396 C290.896,16.36 291.382,15.892 291.58,14.992 C291.688,14.146 291.742,12.346 291.76,9.61 L287.818,9.61 C287.638,11.104 287.296,12.472 286.774,13.714 C286.072,15.226 285.1,16.612 283.858,17.872 L282.904,16.972 C284.38,15.37 285.37,13.894 285.856,12.526 C286.324,11.158 286.594,9.628 286.666,7.936 C286.702,6.712 286.738,5.812 286.756,5.236 L284.29,5.236 L284.29,3.976 Z M301.318,2.248 L301.318,16.648 L300.13,16.648 L300.13,15.676 L297.7,15.676 L297.7,17.044 L296.476,17.044 L296.476,2.248 L301.318,2.248 Z M297.7,14.506 L300.13,14.506 L300.13,11.554 L297.7,11.554 L297.7,14.506 Z M297.7,10.402 L300.13,10.402 L300.13,7.504 L297.7,7.504 L297.7,10.402 Z M297.7,6.37 L300.13,6.37 L300.13,3.436 L297.7,3.436 L297.7,6.37 Z M310.174,11.95 L308.986,12.328 C309.346,13.228 309.688,14.146 309.994,15.082 C308.32,15.424 306.538,15.676 304.666,15.856 C306.7,13.768 308.716,10.924 310.714,7.324 L309.49,6.91 C308.95,7.918 308.41,8.836 307.906,9.7 C306.61,9.88 305.314,10.006 304.018,10.114 C305.134,8.782 306.232,7.036 307.312,4.858 L312.028,4.858 L312.028,3.634 L307.852,3.634 C307.564,2.734 307.276,1.942 306.988,1.258 L305.638,1.474 C305.98,2.122 306.304,2.842 306.592,3.634 L302.128,3.634 L302.128,4.858 L305.908,4.858 C305.044,6.64 304.072,8.242 302.974,9.682 C302.83,9.934 302.65,10.096 302.452,10.186 L302.776,11.32 C304.252,11.194 305.728,11.05 307.168,10.906 C305.368,13.696 303.802,15.37 302.488,15.946 L302.704,17.134 C305.494,16.936 308.032,16.63 310.336,16.216 C310.498,16.774 310.66,17.332 310.804,17.908 L312.028,17.602 C311.488,15.478 310.876,13.588 310.174,11.95 Z M321.334,1.312 L322.666,1.312 L322.666,7.99 L329.866,7.99 L329.866,9.268 L324.7,9.268 L324.7,15.298 C324.7,15.838 324.952,16.108 325.456,16.108 L327.634,16.108 C328.03,16.108 328.318,15.982 328.498,15.73 C328.714,15.406 328.858,14.488 328.93,12.94 L330.172,13.336 C330.046,15.244 329.794,16.396 329.434,16.792 C329.11,17.152 328.588,17.332 327.868,17.332 L325.06,17.332 C323.944,17.332 323.404,16.738 323.404,15.568 L323.404,9.268 L320.362,9.268 L320.362,9.394 C320.308,11.644 319.822,13.444 318.904,14.812 C318.004,16.072 316.528,17.044 314.494,17.746 L313.756,16.594 C315.736,15.91 317.104,15.028 317.896,13.912 C318.616,12.76 319.012,11.248 319.048,9.394 L319.048,9.268 L314.152,9.268 L314.152,7.99 L321.334,7.99 L321.334,1.312 Z M327.31,2.176 L328.516,2.752 C327.904,4.228 327.094,5.668 326.104,7.054 L324.934,6.46 C325.924,5.02 326.716,3.58 327.31,2.176 Z M316.744,2.338 C317.626,3.598 318.454,4.966 319.246,6.46 L318.04,7.054 C317.248,5.506 316.402,4.138 315.52,2.914 L316.744,2.338 Z M333.844,1.294 L335.086,1.546 C334.942,2.176 334.78,2.77 334.6,3.346 L337.732,3.346 L337.732,4.552 L334.222,4.552 C333.772,5.794 333.25,6.91 332.674,7.918 L331.648,7.27 C332.656,5.47 333.376,3.472 333.844,1.294 Z M333.394,6.82 L337.336,6.82 L337.336,8.008 L335.608,8.008 L335.608,10.348 L337.678,10.348 L337.678,11.536 L335.608,11.536 L335.608,15.55 C336.13,15.28 336.652,14.92 337.192,14.488 L337.408,15.64 C336.544,16.252 335.554,16.774 334.438,17.17 L333.916,16.09 C334.222,15.964 334.384,15.784 334.384,15.55 L334.384,11.536 L332.188,11.536 L332.188,10.348 L334.384,10.348 L334.384,8.008 L333.394,8.008 L333.394,6.82 Z M339.838,7.198 L339.838,8.728 C339.766,12.508 339.172,15.532 338.038,17.818 L337.084,16.954 C338.074,14.992 338.596,12.256 338.632,8.728 L338.632,2.734 L342.934,2.734 C342.718,2.248 342.484,1.798 342.232,1.384 L343.564,1.168 C343.78,1.636 343.978,2.158 344.194,2.734 L347.992,2.734 L347.992,3.94 L339.838,3.94 L339.838,6.028 L341.512,6.028 L341.512,4.66 L342.718,4.66 L342.718,6.028 L345.31,6.028 L345.31,4.66 L346.516,4.66 L346.516,6.028 L348.01,6.028 L348.01,7.198 L346.516,7.198 L346.516,9.898 L341.512,9.898 L341.512,7.198 L339.838,7.198 Z M342.718,7.198 L342.718,8.836 L345.31,8.836 L345.31,7.198 L342.718,7.198 Z M340.432,11.068 L347.164,11.068 L347.164,12.112 C346.786,13.336 346.12,14.38 345.166,15.28 C346.03,15.82 347.074,16.288 348.298,16.702 L347.614,17.818 C346.282,17.296 345.148,16.702 344.212,16.036 C343.114,16.81 341.746,17.44 340.09,17.908 L339.478,16.792 C340.954,16.396 342.196,15.874 343.204,15.226 C342.214,14.326 341.53,13.318 341.17,12.202 L340.432,12.202 L340.432,11.068 Z M342.34,12.202 C342.682,13.066 343.276,13.858 344.122,14.542 C344.914,13.858 345.49,13.066 345.886,12.202 L342.34,12.202 Z M357.19,5.83 L365.056,5.83 L365.056,11.338 L361.744,11.338 C361.672,11.806 361.6,12.256 361.492,12.67 L366.136,12.67 L366.136,13.858 L361.096,13.858 C360.862,14.398 360.592,14.866 360.286,15.298 C359.53,16.324 358.216,17.116 356.344,17.692 L355.894,16.63 C357.496,16.144 358.648,15.46 359.35,14.56 C359.53,14.326 359.674,14.092 359.8,13.858 L356.2,13.858 L356.2,12.67 L360.286,12.67 C360.412,12.238 360.502,11.806 360.574,11.338 L357.19,11.338 L357.19,5.83 Z M363.886,10.33 L363.886,9.07 L358.36,9.07 L358.36,10.33 L363.886,10.33 Z M358.36,8.098 L363.886,8.098 L363.886,6.856 L358.36,6.856 L358.36,8.098 Z M356.128,2.788 L356.128,3.85 L358.414,3.85 L358.414,5.254 L359.584,5.254 L359.584,3.85 L360.754,3.85 L360.754,2.788 L359.584,2.788 L359.584,1.312 L358.414,1.312 L358.414,2.788 L356.128,2.788 Z M362.554,1.276 L362.554,2.788 L361.348,2.788 L361.348,3.85 L362.554,3.85 L362.554,5.254 L363.742,5.254 L363.742,3.85 L365.992,3.85 L365.992,2.788 L363.742,2.788 L363.742,1.276 L362.554,1.276 Z M362.122,14.578 C363.652,15.19 365.056,15.946 366.316,16.828 L365.668,17.818 C364.318,16.846 362.932,16.072 361.492,15.514 L362.122,14.578 Z M355.498,2.032 L355.498,16.45 C355.498,17.314 355.012,17.746 354.076,17.746 L352.834,17.746 L352.528,16.594 C352.96,16.63 353.356,16.666 353.716,16.666 C354.076,16.666 354.274,16.45 354.274,16.018 L354.274,11.608 C353.518,11.824 352.726,12.022 351.88,12.166 C351.736,14.434 351.34,16.324 350.656,17.836 L349.684,16.954 C350.368,15.316 350.71,13.228 350.728,10.708 L350.728,2.032 L355.498,2.032 Z M351.934,10.96 C352.798,10.816 353.572,10.636 354.274,10.438 L354.274,8.008 C353.5,7.738 352.726,7.522 351.934,7.378 L351.934,10.96 Z M351.934,6.262 C352.744,6.424 353.518,6.622 354.274,6.856 L354.274,3.202 L351.934,3.202 L351.934,6.262 Z" id="防眩光镀膜" fill="#777777"></path>
                    <rect id="Rectangle-6" fill="#6D6D6D" x="172" y="0" width="1" height="19"></rect>
                    <rect id="Rectangle-6" fill="#6D6D6D" x="266" y="0" width="1" height="19"></rect>
                </g>
            </g>
        </g>
    </g>
</svg>