<?xml version="1.0" encoding="UTF-8"?>
<svg width="781px" height="781px" viewBox="0 0 781 781" version="1.1" xmlns="http://www.w3.org/2000/svg" xmlns:xlink="http://www.w3.org/1999/xlink">
    <!-- Generator: Sketch 43.1 (39012) - http://www.bohemiancoding.com/sketch -->
    <title>大圆</title>
    <desc>Created with Sketch.</desc>
    <defs></defs>
    <g id="Page-1" stroke="none" stroke-width="1" fill="none" fill-rule="evenodd">
        <g id="效果图-copy" transform="translate(-577.000000, -3465.000000)">
            <g id="P4" transform="translate(0.000000, 3241.000000)">
                <g id="大圆" transform="translate(577.000000, 224.000000)">
                    <ellipse id="Oval-4" stroke="#FFFFFF" stroke-width="2" opacity="0.5" cx="390.5" cy="390.5" rx="365.90791" ry="365.90791"></ellipse>
                    <path d="M389.168728,5.68434189e-14 L391.816186,5.68434189e-14 L391.816186,10.5898305 L389.168728,10.5898305 L389.168728,5.68434189e-14 Z M398.903021,0.0983887255 L401.550075,0.144593232 L401.365257,10.7328109 L398.718203,10.6866064 L398.903021,0.0983887255 Z M408.724979,0.420640414 L411.368808,0.55919764 L410.814579,11.1345152 L408.17075,10.9959579 L408.724979,0.420640414 Z M418.442191,1.00626665 L421.083199,1.19094396 L420.34449,11.7549782 L417.703482,11.5703009 L418.442191,1.00626665 Z M428.235785,1.82007933 L430.868739,2.096814 L429.761801,12.6286323 L427.128846,12.3518976 L428.235785,1.82007933 Z M437.911542,2.89147959 L440.539266,3.21412351 L439.248691,13.725019 L436.620967,13.4023751 L437.911542,2.89147959 Z M447.652185,4.19482086 L450.267048,4.60897448 L448.610433,15.0684266 L445.99557,14.654273 L447.652185,4.19482086 Z M457.262219,5.74931315 L459.869456,6.20903935 L458.030551,16.6379865 L455.423314,16.1782603 L457.262219,5.74931315 Z M466.830291,7.54313678 L469.429108,8.04829551 L467.408473,18.443561 L464.809657,17.9384023 L466.830291,7.54313678 Z M476.44566,9.57261208 L479.025264,10.1681605 L476.64307,20.4865743 L474.063467,19.8910259 L476.44566,9.57261208 Z M485.911976,11.8432342 L488.480792,12.4837122 L485.918881,22.7589794 L483.350064,22.1185015 L485.911976,11.8432342 Z M495.413726,14.3517981 L497.958625,15.0815364 L495.039672,25.2611348 L492.494773,24.5313966 L495.413726,14.3517981 Z M504.754539,17.0935288 L507.286315,17.8675705 L504.190149,27.9946757 L501.658372,27.220634 L504.754539,17.0935288 Z M514.118814,20.0748941 L516.622035,20.936822 L513.174323,30.9497035 L510.671103,30.0877756 L514.118814,20.0748941 Z M523.310695,23.2808615 L525.798491,24.1863454 L522.176556,34.1375309 L519.68876,33.2320471 L523.310695,23.2808615 Z M532.513984,26.7275539 L534.968664,27.719309 L531.001644,37.5380289 L528.546964,36.5462738 L532.513984,26.7275539 Z M541.533875,30.3897218 L543.970873,31.4241659 L539.833096,41.1721563 L537.396098,40.1377122 L541.533875,30.3897218 Z M550.459397,34.2757984 L552.87797,35.3526165 L548.570698,45.026908 L546.152125,43.95009 L550.459397,34.2757984 Z M559.378345,38.402286 L561.757864,39.562855 L557.115588,49.0809316 L554.736069,47.9203626 L559.378345,38.402286 Z M568.09816,42.7303784 L570.457062,43.9322991 L565.64938,53.3679071 L563.290478,52.1659865 L568.09816,42.7303784 Z M576.79932,47.2984624 L579.114839,48.5819753 L573.980787,57.8440498 L571.665269,56.5605369 L576.79932,47.2984624 Z M585.291556,52.0577197 L587.584321,53.3814485 L582.289406,62.5525107 L579.99664,61.2287819 L585.291556,52.0577197 Z M593.753079,57.0559416 L595.998251,58.4588804 L590.386496,67.439566 L588.141324,66.0366272 L593.753079,57.0559416 Z M601.996431,62.234431 L604.216776,63.6763398 L598.449141,72.5577189 L596.228796,71.1158102 L601.996431,62.234431 Z M610.107826,67.6169492 L612.302668,69.0973887 L606.38091,77.8767561 L604.186068,76.3963166 L610.107826,67.6169492 Z M618.17086,73.2349894 L620.312698,74.7911259 L614.088152,83.3584788 L611.946314,81.8023422 L618.17086,73.2349894 Z M626.002644,79.0168945 L628.116997,80.6101743 L621.743878,89.067589 L619.629525,87.4743092 L626.002644,79.0168945 Z M633.774247,85.031804 L635.831708,86.697903 L629.167312,94.927747 L627.109851,93.261648 L633.774247,85.031804 Z M641.306772,91.198598 L643.334842,92.900351 L636.52783,101.012632 L634.49976,99.3108788 L641.306772,91.198598 Z M648.767428,97.5952851 L650.734872,99.3667801 L643.648893,107.236558 L641.681448,105.465063 L648.767428,97.5952851 Z M655.981798,104.131504 L657.918026,105.937066 L650.695779,113.681978 L648.759551,111.876416 L655.981798,104.131504 Z M663.030663,110.845624 L664.935085,112.684703 L657.578771,120.30239 L655.674349,118.463311 L663.030663,110.845624 Z M669.990885,117.783173 L671.829964,119.687595 L664.212278,127.043909 L662.373199,125.139487 L669.990885,117.783173 Z M676.694798,124.84182 L678.50036,126.778048 L670.755448,134.000295 L668.949886,132.064067 L676.694798,124.84182 Z M683.298871,132.119359 L685.035759,134.11742 L677.043513,141.064974 L675.306624,139.066913 L683.298871,132.119359 Z M689.641011,139.504832 L691.342764,141.532902 L683.230484,148.339914 L681.528731,146.311844 L689.641011,139.504832 Z M695.872347,147.104098 L697.502285,149.190323 L689.157384,155.710073 L687.527447,153.623848 L695.872347,147.104098 Z M701.836805,154.797877 L703.430084,156.91223 L694.97267,163.285349 L693.37939,161.170996 L701.836805,154.797877 Z M707.679752,162.699798 L709.198271,164.868469 L700.52359,170.942546 L699.005071,168.773875 L707.679752,162.699798 Z M713.251562,170.682588 L714.732001,172.87743 L705.952634,178.799188 L704.472194,176.604346 L713.251562,170.682588 Z M718.622306,178.801808 L720.064215,181.022153 L711.182835,186.789788 L709.740927,184.569444 L718.622306,178.801808 Z M723.856626,187.119116 L725.220168,189.38843 L716.142911,194.842596 L714.77937,192.573282 L723.856626,187.119116 Z M728.814164,195.497092 L730.137893,197.789857 L720.966831,203.084773 L719.643102,200.792007 L728.814164,195.497092 Z M733.625373,204.066224 L734.868279,206.403791 L725.518014,211.375415 L724.275107,209.037849 L733.625373,204.066224 Z M738.157266,212.681944 L739.359186,215.040846 L729.923578,219.848529 L728.721658,217.489627 L738.157266,212.681944 Z M742.533275,221.481395 L743.652139,223.880806 L734.054493,228.356262 L732.935629,225.95685 L742.533275,221.481395 Z M746.628151,230.313251 L747.704969,232.731824 L738.030678,237.039096 L736.95386,234.620523 L746.628151,230.313251 Z M750.501257,239.244397 L751.535701,241.681395 L741.787711,245.819171 L740.753267,243.382173 L750.501257,239.244397 Z M754.20555,248.346776 L755.154313,250.818391 L745.267855,254.613447 L744.319091,252.141832 L754.20555,248.346776 Z M757.626669,257.460682 L758.532153,259.948479 L748.580968,263.570414 L747.675484,261.082618 L757.626669,257.460682 Z M760.870432,266.737274 L761.688541,269.255156 L751.617014,272.527593 L750.798905,270.009711 L760.870432,266.737274 Z M763.83098,276.011083 L764.605022,278.542859 L754.477916,281.639026 L753.703875,279.107249 L763.83098,276.011083 Z M766.606059,285.438601 L767.291272,287.995849 L757.062281,290.736699 L756.377068,288.179451 L766.606059,285.438601 Z M769.098604,294.849053 L769.739082,297.41787 L759.463815,299.979782 L758.823337,297.410965 L769.098604,294.849053 Z M771.355466,304.318614 L771.951015,306.898218 L761.632601,309.280411 L761.037052,306.700808 L771.355466,304.318614 Z M773.416309,313.927328 L773.921468,316.526145 L763.526202,318.54678 L763.021043,315.947963 L773.416309,313.927328 Z M775.196247,323.498058 L775.655973,326.105295 L765.227026,327.944199 L764.767299,325.336963 L775.196247,323.498058 Z M776.773243,333.198037 L777.141698,335.81973 L766.654927,337.29355 L766.286472,334.671857 L776.773243,333.198037 Z M778.071787,342.845931 L778.394431,345.473655 L767.883536,346.76423 L767.560892,344.136507 L778.071787,342.845931 Z M779.160969,352.612826 L779.39171,355.25021 L768.842177,356.173174 L768.611436,353.535791 L779.160969,352.612826 Z M779.974856,362.313685 L780.159533,364.954694 L769.595499,365.693403 L769.410822,363.052395 L779.974856,362.313685 Z M780.546365,372.031662 L780.684922,374.675491 L770.109605,375.22972 L769.971048,372.585891 L780.546365,372.031662 Z M780.900662,381.852472 L780.946866,384.499526 L770.358648,384.684344 L770.312444,382.03729 L780.900662,381.852472 Z M780.984914,391.586928 L780.984914,394.234385 L770.395083,394.234385 L770.395083,391.586928 L780.984914,391.586928 Z M780.846865,401.413262 L780.75447,404.059107 L770.17109,403.689527 L770.263485,401.043682 L780.846865,401.413262 Z M780.443643,411.139781 L780.305086,413.78361 L769.729768,413.229381 L769.868326,410.585552 L780.443643,411.139781 Z M779.813585,420.94697 L779.582844,423.584354 L769.033311,422.661389 L769.264052,420.024006 L779.813585,420.94697 Z M778.923895,430.641156 L778.647161,433.27411 L768.115342,432.167171 L768.392077,429.534217 L778.923895,430.641156 Z M777.803398,440.40458 L777.434943,443.026273 L766.948172,441.552453 L767.316627,438.930761 L777.803398,440.40458 Z M776.429467,450.042116 L776.015314,452.656979 L765.555862,451.000365 L765.970015,448.385502 L776.429467,450.042116 Z M774.815459,459.642189 L774.355733,462.249425 L763.926786,460.410521 L764.386512,457.803284 L774.815459,459.642189 Z M772.966603,469.293976 L772.416166,471.883581 L762.057748,469.681831 L762.608186,467.092227 L772.966603,469.293976 Z M770.87397,478.801254 L770.278421,481.380858 L759.960008,478.998664 L760.555556,476.419061 L770.87397,478.801254 Z M768.543976,488.348424 L767.858764,490.905672 L757.629773,488.164822 L758.314985,485.607574 L768.543976,488.348424 Z M765.977961,497.73906 L765.248223,500.283959 L755.068624,497.365006 L755.798363,494.820107 L765.977961,497.73906 Z M763.172669,507.157642 L762.354559,509.675524 L752.283032,506.403086 L753.101141,503.885204 L763.172669,507.157642 Z M760.139703,516.40808 L759.277775,518.9113 L749.264894,515.463589 L750.126822,512.960368 L760.139703,516.40808 Z M756.876868,525.579776 L755.971384,528.067572 L746.020199,524.445637 L746.925682,521.95784 L756.876868,525.579776 Z M753.373831,534.761463 L752.382076,537.216143 L742.563356,533.249123 L743.555111,530.794443 L753.373831,534.761463 Z M749.655877,543.758349 L748.621433,546.195346 L738.873442,542.05757 L739.907886,539.620572 L749.655877,543.758349 Z M745.697307,552.753149 L744.578443,555.15256 L734.980797,550.677105 L736.099661,548.277693 L745.697307,552.753149 Z M741.533554,561.552656 L740.372985,563.932175 L730.854908,559.289899 L732.015477,556.91038 L741.533554,561.552656 Z M737.12938,570.337984 L735.886474,572.675551 L726.536208,567.703926 L727.779114,565.36636 L737.12938,570.337984 Z M732.530267,578.918039 L731.246754,581.233557 L721.98468,576.099506 L723.268193,573.783987 L732.530267,578.918039 Z M727.718532,587.380484 L726.394803,589.67325 L717.223741,584.378335 L718.54747,582.085569 L727.718532,587.380484 Z M722.668594,595.810914 L721.265655,598.056086 L712.284969,592.444331 L713.687908,590.199159 L722.668594,595.810914 Z M717.439183,604.021888 L715.997274,606.242233 L707.115895,600.474597 L708.557804,598.254253 L717.439183,604.021888 Z M711.973266,612.188885 L710.454747,614.357555 L701.780066,608.283478 L703.298585,606.114808 L711.973266,612.188885 Z M706.339292,620.127788 L704.783155,622.269626 L696.215803,616.04508 L697.771939,613.903242 L706.339292,620.127788 Z M700.47111,628.010844 L698.841172,630.097069 L690.496272,623.577318 L692.126209,621.491093 L700.47111,628.010844 Z M694.446699,635.657761 L692.7806,637.715222 L684.550756,631.050825 L686.216855,628.993364 L694.446699,635.657761 Z M688.190974,643.237079 L686.454086,645.235141 L678.461839,638.287587 L680.198728,636.289525 L688.190974,643.237079 Z M681.791233,650.572826 L680.019738,652.54027 L672.14996,645.454291 L673.921455,643.486846 L681.791233,650.572826 Z M675.210516,657.746436 L673.404955,659.682664 L665.660043,652.460417 L667.465605,650.524189 L675.210516,657.746436 Z M668.404639,664.835547 L666.532604,666.707582 L659.044463,659.219441 L660.916498,657.347406 L668.404639,664.835547 Z M661.472983,671.670727 L659.568562,673.509806 L652.212247,665.892119 L654.116669,664.053041 L661.472983,671.670727 Z M654.320497,678.410123 L652.353052,680.181618 L645.267073,672.31184 L647.234517,670.540345 L654.320497,678.410123 Z M647.055284,684.889725 L645.057223,686.626613 L638.109669,678.634367 L640.10773,676.897478 L647.055284,684.889725 Z M639.574137,691.262478 L637.516676,692.928577 L630.85228,684.698733 L632.909741,683.032634 L639.574137,691.262478 Z M631.993587,697.370246 L629.907362,699.000184 L623.387612,690.655284 L625.473837,689.025346 L631.993587,697.370246 Z M624.263098,703.286811 L622.148745,704.88009 L615.775626,696.422676 L617.889979,694.829396 L624.263098,703.286811 Z M616.325677,709.080961 L614.157007,710.59948 L608.082929,701.924799 L610.2516,700.40628 L616.325677,709.080961 Z M608.30862,714.603101 L606.113778,716.08354 L600.19202,707.304173 L602.386862,705.823733 L608.30862,714.603101 Z M600.09086,719.992471 L597.845688,721.395409 L592.233933,712.414724 L594.479104,711.011785 L600.09086,719.992471 Z M591.80734,725.10633 L589.538026,726.469871 L584.08386,717.392615 L586.353174,716.029073 L591.80734,725.10633 Z M583.329865,730.077381 L581.014347,731.360894 L575.880295,722.098819 L578.195814,720.815307 L583.329865,730.077381 Z M574.800658,734.770129 L572.463091,736.013035 L567.491467,726.662769 L569.829033,725.419863 L574.800658,734.770129 Z M566.157139,739.248462 L563.798237,740.450383 L558.990555,731.014775 L561.349457,729.812854 L566.157139,739.248462 Z M557.331239,743.570233 L554.931828,744.689097 L550.456372,735.091451 L552.855784,733.972587 L557.331239,743.570233 Z M548.4743,747.610226 L546.055727,748.687044 L541.748455,739.012752 L544.167028,737.935934 L548.4743,747.610226 Z M539.442915,751.484547 L536.988235,752.476302 L533.021215,742.657582 L535.475895,741.665827 L539.442915,751.484547 Z M530.394768,755.07606 L527.923153,756.024824 L524.128097,746.138365 L526.599712,745.189601 L530.394768,755.07606 Z M521.180567,758.493195 L518.677346,759.355123 L515.229635,749.342241 L517.732855,748.480314 L521.180567,758.493195 Z M511.963904,761.627216 L509.446022,762.445325 L506.173584,752.373798 L508.691466,751.555688 L511.963904,761.627216 Z M502.590014,764.578576 L500.045114,765.308315 L497.126162,755.128716 L499.671061,754.398978 L502.590014,764.578576 Z M493.227952,767.247239 L490.670704,767.932451 L487.929854,757.70346 L490.487102,757.018248 L493.227952,767.247239 Z M483.802369,769.681368 L481.233552,770.321846 L478.67164,760.046578 L481.240457,759.406101 L483.802369,769.681368 Z M474.233922,771.922011 L471.644318,772.472448 L469.442568,762.114031 L472.032173,761.563593 L474.233922,771.922011 Z M464.698241,773.881196 L462.099424,774.386355 L460.078789,763.991089 L462.677606,763.485931 L464.698241,773.881196 Z M455.029473,775.639786 L452.41461,776.05394 L450.757996,765.594488 L453.372859,765.180334 L455.029473,775.639786 Z M445.40761,777.119108 L442.785917,777.487563 L441.312098,767.000792 L443.93379,766.632337 L445.40761,777.119108 Z M435.662793,778.39122 L433.029838,778.667955 L431.9229,768.136137 L434.555854,767.859402 L435.662793,778.39122 Z M425.978881,779.386963 L423.341497,779.617705 L422.418533,769.068172 L425.055916,768.83743 L425.978881,779.386963 Z M416.273306,780.140692 L413.632297,780.325369 L412.893588,769.761335 L415.534597,769.576657 L416.273306,780.140692 Z M406.460804,780.679055 L403.814959,780.771449 L403.445379,770.18807 L406.091224,770.095675 L406.460804,780.679055 Z M396.729612,780.945919 L394.082557,780.992123 L393.897739,770.403906 L396.544794,770.357701 L396.729612,780.945919 Z M386.902356,780.992123 L384.255302,780.945919 L384.44012,770.357701 L387.087174,770.403906 L386.902356,780.992123 Z M377.169955,780.771449 L374.52411,780.679055 L374.893689,770.095675 L377.539534,770.18807 L377.169955,780.771449 Z M367.352616,780.325369 L364.711608,780.140692 L365.450317,769.576657 L368.091326,769.761335 L367.352616,780.325369 Z M357.643416,779.617705 L355.006033,779.386963 L355.928998,768.83743 L358.566381,769.068172 L357.643416,779.617705 Z M347.955075,778.667955 L345.322121,778.39122 L346.42906,767.859402 L349.062014,768.136137 L347.955075,778.667955 Z M338.198997,777.487563 L335.577304,777.119108 L337.051123,766.632337 L339.672816,767.000792 L338.198997,777.487563 Z M328.570303,776.05394 L325.95544,775.639786 L327.612055,765.180334 L330.226918,765.594488 L328.570303,776.05394 Z M318.885489,774.386355 L316.286673,773.881196 L318.307308,763.485931 L320.906124,763.991089 L318.885489,774.386355 Z M309.340596,772.472448 L306.750991,771.922011 L308.952741,761.563593 L311.542345,762.114031 L309.340596,772.472448 Z M299.751362,770.321846 L297.182545,769.681368 L299.744457,759.406101 L302.313274,760.046578 L299.751362,770.321846 Z M290.314209,767.932451 L287.756962,767.247239 L290.497812,757.018248 L293.055059,757.70346 L290.314209,767.932451 Z M280.939799,765.308315 L278.3949,764.578576 L281.313852,754.398978 L283.858752,755.128716 L280.939799,765.308315 Z M271.538892,762.445325 L269.02101,761.627216 L272.293447,751.555688 L274.811329,752.373798 L271.538892,762.445325 Z M262.307567,759.355123 L259.804347,758.493195 L263.252059,748.480314 L265.755279,749.342241 L262.307567,759.355123 Z M253.061761,756.024824 L250.590146,755.07606 L254.385202,745.189601 L256.856816,746.138365 L253.061761,756.024824 Z M243.996678,752.476302 L241.541998,751.484547 L245.509019,741.665827 L247.963699,742.657582 L243.996678,752.476302 Z M234.929187,748.687044 L232.510614,747.610226 L236.817886,737.935934 L239.236459,739.012752 L234.929187,748.687044 Z M226.053086,744.689097 L223.653674,743.570233 L228.12913,733.972587 L230.528541,735.091451 L226.053086,744.689097 Z M217.186676,740.450383 L214.827774,739.248462 L219.635457,729.812854 L221.994359,731.014775 L217.186676,740.450383 Z M208.521822,736.013035 L206.184256,734.770129 L211.15588,725.419863 L213.493447,726.662769 L208.521822,736.013035 Z M199.970567,731.360894 L197.655048,730.077381 L202.7891,720.815307 L205.104619,722.098819 L199.970567,731.360894 Z M191.446888,726.469871 L189.177573,725.10633 L194.631739,716.029073 L196.901054,717.392615 L191.446888,726.469871 Z M183.139225,721.395409 L180.894054,719.992471 L186.505809,711.011785 L188.750981,712.414724 L183.139225,721.395409 Z M174.871136,716.08354 L172.676294,714.603101 L178.598052,705.823733 L180.792894,707.304173 L174.871136,716.08354 Z M166.827907,710.59948 L164.659237,709.080961 L170.733314,700.40628 L172.901984,701.924799 L166.827907,710.59948 Z M158.836169,704.88009 L156.721815,703.286811 L163.094934,694.829396 L165.209288,696.422676 L158.836169,704.88009 Z M151.077551,699.000184 L148.991326,697.370246 L155.511077,689.025346 L157.597302,690.655284 L151.077551,699.000184 Z M143.468237,692.928577 L141.410776,691.262478 L148.075172,683.032634 L150.132633,684.698733 L143.468237,692.928577 Z M135.927691,686.626613 L133.929629,684.889725 L140.877183,676.897478 L142.875245,678.634367 L135.927691,686.626613 Z M128.631861,680.181618 L126.664417,678.410123 L133.750397,670.540345 L135.717841,672.31184 L128.631861,680.181618 Z M121.416352,673.509806 L119.51193,671.670727 L126.868245,664.053041 L128.772666,665.892119 L121.416352,673.509806 Z M114.45231,666.707582 L112.580275,664.835547 L120.068416,657.347406 L121.940451,659.219441 L114.45231,666.707582 Z M107.579959,659.682664 L105.774397,657.746436 L113.519309,650.524189 L115.324871,652.460417 L107.579959,659.682664 Z M100.965176,652.54027 L99.1936808,650.572826 L107.063459,643.486846 L108.834953,645.454291 L100.965176,652.54027 Z M94.5308281,645.235141 L92.7939396,643.237079 L100.786186,636.289525 L102.523075,638.287587 L94.5308281,645.235141 Z M88.204314,637.715222 L86.5382149,635.657761 L94.768059,628.993364 L96.434158,631.050825 L88.204314,637.715222 Z M82.1437416,630.097069 L80.5138039,628.010844 L88.8587042,621.491093 L90.4886419,623.577318 L82.1437416,630.097069 Z M76.2017583,622.269626 L74.6456217,620.127788 L83.2129746,613.903242 L84.7691111,616.04508 L76.2017583,622.269626 Z M70.5301666,614.357555 L69.0116473,612.188885 L77.6863286,606.114808 L79.2048479,608.283478 L70.5301666,614.357555 Z M64.9876395,606.242233 L63.5457308,604.021888 L72.4271099,598.254253 L73.8690187,600.474597 L64.9876395,606.242233 Z M59.7192587,598.056086 L58.3163199,595.810914 L67.2970055,590.199159 L68.6999443,592.444331 L59.7192587,598.056086 Z M54.5901107,589.67325 L53.2663819,587.380484 L62.4374441,582.085569 L63.7611729,584.378335 L54.5901107,589.67325 Z M49.7381594,581.233557 L48.4546465,578.918039 L57.7167209,573.783987 L59.0002339,576.099506 L49.7381594,581.233557 Z M45.0984399,572.675551 L43.8555338,570.337984 L53.2057992,565.36636 L54.4487053,567.703926 L45.0984399,572.675551 Z M40.6119286,563.932175 L39.4513596,561.552656 L48.9694362,556.91038 L50.1300052,559.289899 L40.6119286,563.932175 Z M36.4064707,555.15256 L35.2876067,552.753149 L44.8852526,548.277693 L46.0041165,550.677105 L36.4064707,555.15256 Z M32.3634812,546.195346 L31.329037,543.758349 L41.0770274,539.620572 L42.1114715,542.05757 L32.3634812,546.195346 Z M28.6028378,537.216143 L27.6110828,534.761463 L37.4298026,530.794443 L38.4215577,533.249123 L28.6028378,537.216143 Z M25.0135295,528.067572 L24.1080456,525.579776 L34.0592312,521.95784 L34.964715,524.445637 L25.0135295,528.067572 Z M21.7071383,518.9113 L20.8452104,516.40808 L30.8580919,512.960368 L31.7200198,515.463589 L21.7071383,518.9113 Z M18.6303544,509.675524 L17.812245,507.157642 L27.8837723,503.885204 L28.7018817,506.403086 L18.6303544,509.675524 Z M15.7366908,500.283959 L15.0069526,497.73906 L25.186551,494.820107 L25.9162892,497.365006 L15.7366908,500.283959 Z M13.1261502,490.905672 L12.4409377,488.348424 L22.6699285,485.607574 L23.355141,488.164822 L13.1261502,490.905672 Z M10.7064923,481.380858 L10.1109439,478.801254 L20.4293578,476.419061 L21.0249061,478.998664 L10.7064923,481.380858 Z M8.56874805,471.883581 L8.01831066,469.293976 L18.376728,467.092227 L18.9271654,469.681831 L8.56874805,471.883581 Z M6.62918063,462.249425 L6.16945444,459.642189 L16.5984016,457.803284 L17.0581278,460.410521 L6.62918063,462.249425 Z M4.96959994,452.656979 L4.55544632,450.042116 L15.0148984,448.385502 L15.4290521,451.000365 L4.96959994,452.656979 Z M3.5499702,443.026273 L3.18151531,440.40458 L13.6682863,438.930761 L14.0367412,441.552453 L3.5499702,443.026273 Z M2.33775318,433.27411 L2.0610185,430.641156 L12.5928368,429.534217 L12.8695715,432.167171 L2.33775318,433.27411 Z M1.40207018,423.584354 L1.17132905,420.94697 L11.7208621,420.024006 L11.9516032,422.661389 L1.40207018,423.584354 Z M0.679827828,413.78361 L0.541270601,411.139781 L11.1165881,410.585552 L11.2551453,413.229381 L0.679827828,413.78361 Z M0.230443887,404.059107 L0.138048948,401.413262 L10.7214284,401.043682 L10.8138234,403.689527 L0.230443887,404.059107 Z M1.82076576e-13,394.234385 L1.81590246e-13,391.586928 L10.5898305,391.586928 L10.5898305,394.234385 L1.82076576e-13,394.234385 Z M0.0380476384,384.499526 L0.0842521449,381.852472 L10.6724698,382.03729 L10.6262653,384.684344 L0.0380476384,384.499526 Z M0.299991322,374.675491 L0.438548549,372.031662 L11.0138661,372.585891 L10.8753088,375.22972 L0.299991322,374.675491 Z M0.825380431,364.954694 L1.01005774,362.313685 L11.574092,363.052395 L11.3894146,365.693403 L0.825380431,364.954694 Z M1.59320401,355.25021 L1.82394514,352.612826 L12.3734782,353.535791 L12.142737,356.173174 L1.59320401,355.25021 Z M2.59048263,345.473655 L2.91312655,342.845931 L13.4240221,344.136507 L13.1013781,346.76423 L2.59048263,345.473655 Z M3.84321548,335.81973 L4.21167036,333.198037 L14.6984414,334.671857 L14.3299865,337.29355 L3.84321548,335.81973 Z M5.32894085,326.105295 L5.78866704,323.498058 L16.2176142,325.336963 L15.757888,327.944199 L5.32894085,326.105295 Z M7.06344616,316.526145 L7.56860489,313.927328 L17.9638704,315.947963 L17.4587117,318.54678 L7.06344616,316.526145 Z M9.03389898,306.898218 L9.62944737,304.318614 L19.9478612,306.700808 L19.3523128,309.280411 L9.03389898,306.898218 Z M11.2458315,297.41787 L11.8863094,294.849053 L22.1615767,297.410965 L21.5210987,299.979782 L11.2458315,297.41787 Z M13.6936421,287.995849 L14.3788545,285.438601 L24.6078453,288.179451 L23.9226329,290.736699 L13.6936421,287.995849 Z M16.3798921,278.542859 L17.1539338,276.011083 L27.2810391,279.107249 L26.5069974,281.639026 L16.3798921,278.542859 Z M19.2963723,269.255156 L20.1144817,266.737274 L30.186009,270.009711 L29.3678997,272.527593 L19.2963723,269.255156 Z M22.4527604,259.948479 L23.3582443,257.460682 L33.3094298,261.082618 L32.403946,263.570414 L22.4527604,259.948479 Z M25.8306002,250.818391 L26.7793642,248.346776 L36.6658227,252.141832 L35.7170587,254.613447 L25.8306002,250.818391 Z M29.4492125,241.681395 L30.4836566,239.244397 L40.231647,243.382173 L39.1972029,245.819171 L29.4492125,241.681395 Z M33.2799445,232.731824 L34.3567625,230.313251 L44.0310541,234.620523 L42.9542361,237.039096 L33.2799445,232.731824 Z M37.3327745,223.880806 L38.4516385,221.481395 L48.0492843,225.95685 L46.9304204,228.356262 L37.3327745,223.880806 Z M41.6257272,215.040846 L42.8276479,212.681944 L52.2632559,217.489627 L51.0613353,219.848529 L41.6257272,215.040846 Z M46.1166348,206.403791 L47.3595409,204.066224 L56.7098062,209.037849 L55.4669001,211.375415 L46.1166348,206.403791 Z M50.8470205,197.789857 L52.1707494,195.497092 L61.3418116,200.792007 L60.0180828,203.084773 L50.8470205,197.789857 Z M55.7647461,189.38843 L57.1282876,187.119116 L66.205544,192.573282 L64.8420026,194.842596 L55.7647461,189.38843 Z M60.9206991,181.022153 L62.3626078,178.801808 L71.243987,184.569444 L69.8020782,186.789788 L60.9206991,181.022153 Z M66.2529125,172.87743 L67.733352,170.682588 L76.5127194,176.604346 L75.0322799,178.799188 L66.2529125,172.87743 Z M71.7866423,164.868469 L73.3051617,162.699798 L81.979843,168.773875 L80.4613237,170.942546 L71.7866423,164.868469 Z M77.5548293,156.91223 L79.1481091,154.797877 L87.6055238,161.170996 L86.012244,163.285349 L77.5548293,156.91223 Z M83.4826289,149.190323 L85.1125666,147.104098 L93.4574669,153.623848 L91.8275292,155.710073 L83.4826289,149.190323 Z M89.6421493,141.532902 L91.3439022,139.504832 L99.456183,146.311844 L97.7544301,148.339914 L89.6421493,141.532902 Z M95.9491547,134.11742 L97.6860431,132.119359 L105.67829,139.066913 L103.941401,141.064974 L95.9491547,134.11742 Z M102.484554,126.778048 L104.290116,124.84182 L112.035027,132.064067 L110.229466,134.000295 L102.484554,126.778048 Z M109.15495,119.687595 L110.994028,117.783173 L118.611715,125.139487 L116.772636,127.043909 L109.15495,119.687595 Z M116.049829,112.684703 L117.95425,110.845624 L125.310565,118.463311 L123.406143,120.30239 L116.049829,112.684703 Z M123.066888,105.937066 L125.003116,104.131504 L132.225363,111.876416 L130.289135,113.681978 L123.066888,105.937066 Z M130.250041,99.3667801 L132.217486,97.5952851 L139.303465,105.465063 L137.336021,107.236558 L130.250041,99.3667801 Z M137.650071,92.900351 L139.678142,91.198598 L146.485153,99.3108788 L144.457083,101.012632 L137.650071,92.900351 Z M145.153206,86.697903 L147.210667,85.031804 L153.875063,93.261648 L151.817602,94.927747 L145.153206,86.697903 Z M152.867916,80.6101743 L154.98227,79.0168945 L161.355389,87.4743092 L159.241035,89.067589 L152.867916,80.6101743 Z M160.672215,74.7911259 L162.814053,73.2349894 L169.0386,81.8023422 L166.896761,83.3584788 L160.672215,74.7911259 Z M168.682246,69.0973887 L170.877088,67.6169492 L176.798846,76.3963166 L174.604004,77.8767561 L168.682246,69.0973887 Z M176.768138,63.6763398 L178.988483,62.234431 L184.756118,71.1158102 L182.535773,72.5577189 L176.768138,63.6763398 Z M184.986663,58.4588804 L187.231834,57.0559416 L192.84359,66.0366272 L190.598418,67.439566 L184.986663,58.4588804 Z M193.400593,53.3814485 L195.693358,52.0577197 L200.988273,61.2287819 L198.695508,62.5525107 L193.400593,53.3814485 Z M201.870075,48.5819753 L204.185593,47.2984624 L209.319645,56.5605369 L207.004126,57.8440498 L201.870075,48.5819753 Z M210.527851,43.9322991 L212.886753,42.7303784 L217.694436,52.1659865 L215.335534,53.3679071 L210.527851,43.9322991 Z M219.22705,39.562855 L221.606569,38.402286 L226.248845,47.9203626 L223.869326,49.0809316 L219.22705,39.562855 Z M228.106944,35.3526165 L230.525516,34.2757984 L234.832789,43.95009 L232.414216,45.026908 L228.106944,35.3526165 Z M237.014041,31.4241659 L239.451039,30.3897218 L243.588815,40.1377122 L241.151818,41.1721563 L237.014041,31.4241659 Z M246.01625,27.719309 L248.47093,26.7275539 L252.43795,36.5462738 L249.98327,37.5380289 L246.01625,27.719309 Z M255.186422,24.1863454 L257.674219,23.2808615 L261.296154,33.2320471 L258.808358,34.1375309 L255.186422,24.1863454 Z M264.362879,20.936822 L266.866099,20.0748941 L270.313811,30.0877756 L267.810591,30.9497035 L264.362879,20.936822 Z M273.698598,17.8675705 L276.230375,17.0935288 L279.326541,27.220634 L276.794765,27.9946757 L273.698598,17.8675705 Z M283.026288,15.0815364 L285.571188,14.3517981 L288.490141,24.5313966 L285.945241,25.2611348 L283.026288,15.0815364 Z M292.504121,12.4837122 L295.072938,11.8432342 L297.63485,22.1185015 L295.066033,22.7589794 L292.504121,12.4837122 Z M301.95965,10.1681605 L304.539254,9.57261208 L306.921447,19.8910259 L304.341844,20.4865743 L301.95965,10.1681605 Z M311.555806,8.04829551 L314.154622,7.54313678 L316.175257,17.9384023 L313.576441,18.443561 L311.555806,8.04829551 Z M321.115458,6.20903935 L323.722695,5.74931315 L325.5616,16.1782603 L322.954363,16.6379865 L321.115458,6.20903935 Z M330.717866,4.60897448 L333.332729,4.19482086 L334.989344,14.654273 L332.37448,15.0684266 L330.717866,4.60897448 Z M340.445647,3.21412351 L343.073371,2.89147959 L344.363947,13.4023751 L341.736223,13.725019 L340.445647,3.21412351 Z M350.116174,2.096814 L352.749129,1.82007933 L353.856068,12.3518976 L351.223113,12.6286323 L350.116174,2.096814 Z M359.901714,1.19094396 L362.542723,1.00626665 L363.281432,11.5703009 L360.640424,11.7549782 L359.901714,1.19094396 Z M369.616105,0.55919764 L372.259935,0.420640414 L372.814164,10.9959579 L370.170334,11.1345152 L369.616105,0.55919764 Z M379.434839,0.144593232 L382.081893,0.0983887255 L382.266711,10.6866064 L379.619657,10.7328109 L379.434839,0.144593232 Z" id="Rectangle-2" fill="#9AC8FF" opacity="0.699999988"></path>
                </g>
            </g>
        </g>
    </g>
</svg>