<?xml version="1.0" encoding="UTF-8"?>
<svg width="646px" height="662px" viewBox="0 0 646 662" version="1.1" xmlns="http://www.w3.org/2000/svg" xmlns:xlink="http://www.w3.org/1999/xlink">
    <!-- Generator: Sketch 43.1 (39012) - http://www.bohemiancoding.com/sketch -->
    <title>Oval 9</title>
    <desc>Created with Sketch.</desc>
    <defs></defs>
    <g id="Page-1" stroke="none" stroke-width="1" fill="none" fill-rule="evenodd">
        <g id="效果图-copy" transform="translate(-645.000000, -3525.000000)" fill="#FFFFFF">
            <g id="P4" transform="translate(0.000000, 3241.000000)">
                <path d="M967.704125,289.46243 C966.195717,289.46243 964.97291,288.239623 964.97291,286.731215 C964.97291,285.222807 966.195717,284 967.704125,284 C969.212533,284 970.43534,285.222807 970.43534,286.731215 C970.43534,288.239623 969.212533,289.46243 967.704125,289.46243 Z M1108.90791,321.68813 C1107.55216,321.026887 1106.98915,319.391793 1107.6504,318.036045 C1108.31164,316.680296 1109.94673,316.117288 1111.30248,316.778531 C1112.65823,317.439773 1113.22124,319.074868 1112.56,320.430616 C1111.89875,321.786365 1110.26366,322.349373 1108.90791,321.68813 Z M1222.17944,412.021043 C1221.23017,410.84879 1221.41093,409.128954 1222.58318,408.179681 C1223.75543,407.230409 1225.47527,407.411171 1226.42454,408.583425 C1227.37382,409.755678 1227.19305,411.475515 1226.0208,412.424787 C1224.84855,413.374059 1223.12871,413.193297 1222.17944,412.021043 Z M1285.01522,542.515003 C1284.6759,541.045255 1285.59229,539.578717 1287.06204,539.239399 C1288.53179,538.900081 1289.99833,539.816475 1290.33764,541.286223 C1290.67696,542.755971 1289.76057,544.222509 1288.29082,544.561827 C1286.82107,544.901145 1285.35453,543.98475 1285.01522,542.515003 Z M1285.01522,687.349404 C1285.35453,685.879656 1286.82107,684.963262 1288.29082,685.30258 C1289.76057,685.641898 1290.67696,687.108436 1290.33764,688.578184 C1289.99833,690.047931 1288.53179,690.964326 1287.06204,690.625008 C1285.59229,690.28569 1284.6759,688.819152 1285.01522,687.349404 Z M1222.17944,817.843363 C1223.12871,816.67111 1224.84855,816.490348 1226.0208,817.43962 C1227.19305,818.388892 1227.37382,820.108728 1226.42454,821.280982 C1225.47527,822.453235 1223.75543,822.633997 1222.58318,821.684725 C1221.41093,820.735453 1221.23017,819.015617 1222.17944,817.843363 Z M1108.90791,908.176277 C1110.26366,907.515034 1111.89875,908.078042 1112.56,909.433791 C1113.22124,910.789539 1112.65823,912.424633 1111.30248,913.085876 C1109.94673,913.747119 1108.31164,913.184111 1107.6504,911.828362 C1106.98915,910.472614 1107.55216,908.837519 1108.90791,908.176277 Z M967.704125,940.401977 C969.212533,940.401977 970.43534,941.624784 970.43534,943.133192 C970.43534,944.6416 969.212533,945.864407 967.704125,945.864407 C966.195717,945.864407 964.97291,944.6416 964.97291,943.133192 C964.97291,941.624784 966.195717,940.401977 967.704125,940.401977 Z M826.500339,908.176277 C827.856087,908.837519 828.419095,910.472614 827.757853,911.828362 C827.09661,913.184111 825.461515,913.747119 824.105767,913.085876 C822.750019,912.424633 822.18701,910.789539 822.848253,909.433791 C823.509496,908.078042 825.14459,907.515034 826.500339,908.176277 Z M713.228812,817.843363 C714.178084,819.015617 713.997322,820.735453 712.825069,821.684725 C711.652815,822.633997 709.932979,822.453235 708.983707,821.280982 C708.034435,820.108728 708.215197,818.388892 709.38745,817.43962 C710.559704,816.490348 712.27954,816.67111 713.228812,817.843363 Z M650.393034,687.349404 C650.732352,688.819152 649.815958,690.28569 648.34621,690.625008 C646.876462,690.964326 645.409924,690.047931 645.070606,688.578184 C644.731288,687.108436 645.647683,685.641898 647.117431,685.30258 C648.587179,684.963262 650.053716,685.879656 650.393034,687.349404 Z M650.393034,542.515003 C650.053716,543.98475 648.587179,544.901145 647.117431,544.561827 C645.647683,544.222509 644.731288,542.755971 645.070606,541.286223 C645.409924,539.816475 646.876462,538.900081 648.34621,539.239399 C649.815958,539.578717 650.732352,541.045255 650.393034,542.515003 Z M713.228812,412.021043 C712.27954,413.193297 710.559704,413.374059 709.38745,412.424787 C708.215197,411.475515 708.034435,409.755678 708.983707,408.583425 C709.932979,407.411171 711.652815,407.230409 712.825069,408.179681 C713.997322,409.128954 714.178084,410.84879 713.228812,412.021043 Z M826.500339,321.68813 C825.14459,322.349373 823.509496,321.786365 822.848253,320.430616 C822.18701,319.074868 822.750019,317.439773 824.105767,316.778531 C825.461515,316.117288 827.09661,316.680296 827.757853,318.036045 C828.419095,319.391793 827.856087,321.026887 826.500339,321.68813 Z" id="Oval-9"></path>
            </g>
        </g>
    </g>
</svg>