<?xml version="1.0" encoding="UTF-8"?>
<svg width="209px" height="26px" viewBox="0 0 209 26" version="1.1" xmlns="http://www.w3.org/2000/svg" xmlns:xlink="http://www.w3.org/1999/xlink">
    <!-- Generator: Sketch 43.1 (39012) - http://www.bohemiancoding.com/sketch -->
    <title>logo</title>
    <desc>Created with Sketch.</desc>
    <defs>
        <polygon id="path-1" points="1.43804824e-15 25.9998732 1.43804824e-15 0.0141414634 52.3950244 0.0141414634 52.3950244 25.9998732 0 25.9998732"></polygon>
    </defs>
    <g id="Page-1" stroke="none" stroke-width="1" fill="none" fill-rule="evenodd">
        <g id="效果图-copy" transform="translate(-97.000000, -27.000000)">
            <g id="导航栏">
                <g id="logo" transform="translate(97.000000, 27.000000)">
                    <g>
                        <g id="Group-3" transform="translate(17.000000, 17.000000)" fill="#FFFFFF">
                            <path d="M4.87193684,0.590207143 L0.161621053,5.38399286 L3.2772,8.55456429 C3.55698947,8.83999286 3.9372,9.00006429 4.3332,9.00006429 L10.9698316,9.00006429 C11.7687789,9.00006429 12.1685684,8.01713571 11.6039368,7.44242143 L4.87193684,0.590207143 Z" id="Fill-1"></path>
                        </g>
                        <g id="Group-6">
                            <mask id="mask-2" fill="white">
                                <use xlink:href="#path-1"></use>
                            </mask>
                            <g id="Clip-5"></g>
                            <path d="M52.1248537,24.4633366 L27.9264756,0.717092683 C26.9718293,-0.22017561 25.4231951,-0.22017561 24.4685488,0.717092683 L14.4741707,10.5254341 L4.31691463,0.55982439 C3.73908537,-0.00710243902 2.75018293,0.394312195 2.75018293,1.19650732 L2.75018293,7.85948293 C2.75018293,8.25772683 2.91176829,8.63884878 3.19809756,8.92040976 L9.65440244,15.2548976 L0.270170732,24.4633366 C-0.307658537,25.0308976 0.102121951,25.9998732 0.919097561,25.9998732 L7.7115,25.9998732 C8.1167561,25.9998732 8.50585366,25.8419707 8.79282927,25.5604098 L14.3733415,20.0845561 L14.4754634,19.9849951 L19.2952317,15.2555317 L19.3973537,15.1559707 L24.4685488,10.1804585 C25.4231951,9.23811707 26.9718293,9.23811707 27.9264756,10.1804585 L43.6028415,25.5604098 C43.8898171,25.8419707 44.2782683,25.9998732 44.6841707,25.9998732 L51.4759268,25.9998732 C52.2935488,25.9998732 52.7026829,25.0308976 52.1248537,24.4633366" id="Fill-4" fill="#FFFFFF" mask="url(#mask-2)"></path>
                        </g>
                    </g>
                    <text id="XIAOFUTECH" font-family="PingFangHK-Light, PingFang HK" font-size="22" font-weight="300" line-spacing="25" fill="#FFFFFF">
                        <tspan x="73" y="24">XIAOFUTECH</tspan>
                    </text>
                </g>
            </g>
        </g>
    </g>
</svg>