<?xml version="1.0" encoding="UTF-8"?>
<svg width="196px" height="337px" viewBox="0 0 196 337" version="1.1" xmlns="http://www.w3.org/2000/svg" xmlns:xlink="http://www.w3.org/1999/xlink">
    <!-- Generator: Sketch 43.1 (39012) - http://www.bohemiancoding.com/sketch -->
    <title>设备线图</title>
    <desc>Created with Sketch.</desc>
    <defs>
        <filter x="-191.2%" y="-191.4%" width="482.3%" height="482.7%" filterUnits="objectBoundingBox" id="filter-1">
            <feGaussianBlur stdDeviation="3.00223214" in="SourceGraphic"></feGaussianBlur>
        </filter>
    </defs>
    <g id="Page-1" stroke="none" stroke-width="1" fill="none" fill-rule="evenodd">
        <g id="效果图-copy" transform="translate(-869.000000, -3707.000000)">
            <g id="P4" transform="translate(0.000000, 3241.000000)">
                <g id="设备线图" transform="translate(869.000000, 466.000000)">
                    <g>
                        <g id="图层_2" fill-rule="nonzero" fill="#FFFFFF">
                            <path d="M102.44476,4.842417 C153.615561,4.842417 195.09849,46.2356839 195.09849,97.2958831 L195.09849,239.077556 C195.09849,292.603718 151.592769,335.997503 97.9686041,335.997503 L97.9686041,335.997503 C44.3264989,335.997503 0.838718535,292.585817 0.838718535,239.077556 L0.838718535,97.2958831 C0.838718535,46.2356839 42.3216476,4.842417 93.4924485,4.842417 L102.440275,4.842417 L102.44476,4.842417 Z M102.440275,4.00103586 L93.5014188,4.00103586 C68.7037131,3.99984886 44.92125,13.8285752 27.3862036,31.3248816 C9.85115716,48.8211881 -2.8532245e-08,72.5517758 0,97.2958831 L0,239.077556 C1.27474944e-14,293.069647 43.8640462,336.838884 97.9730892,336.838884 C152.082132,336.838884 195.946178,293.069647 195.946178,239.077556 L195.946178,97.2958831 C195.946179,72.5517758 186.095021,48.8211881 168.559975,31.3248816 C151.024929,13.8285752 127.242465,3.99984886 102.44476,4.00103586 L102.440275,4.00103586 Z" id="Shape"></path>
                            <path d="M98.7714416,187.023811 C100.230434,187.023811 101.413181,188.204002 101.413181,189.659841 C101.413181,191.115679 100.230434,192.29587 98.7714416,192.29587 C97.3124494,192.29587 96.1297025,191.115679 96.1297025,189.659841 C96.1297025,188.204002 97.3124494,187.023811 98.7714416,187.023811 L98.7714416,187.023811 Z M98.7714416,186.459907 C97.4761999,186.459907 96.308496,187.238455 95.8128284,188.432516 C95.3171609,189.626577 95.5911429,191.001001 96.5070171,191.914895 C97.4228914,192.82879 98.800292,193.10218 99.9969394,192.607584 C101.193587,192.112987 101.973822,190.947807 101.973822,189.655365 C101.971351,187.891584 100.539043,186.462372 98.7714416,186.459907 L98.7714416,186.459907 Z" id="Shape"></path>
                            <path d="M98.7714416,213.428858 C100.230434,213.428858 101.413181,214.609048 101.413181,216.064887 C101.413181,217.520726 100.230434,218.700916 98.7714416,218.700916 C97.3124494,218.700916 96.1297025,217.520726 96.1297025,216.064887 C96.1297025,214.609048 97.3124494,213.428858 98.7714416,213.428858 L98.7714416,213.428858 Z M98.7714416,212.864954 C97.0028161,212.864954 95.5690618,214.295609 95.5690618,216.060412 C95.5690618,217.825215 97.0028161,219.25587 98.7714416,219.25587 C100.540067,219.25587 101.973822,217.825215 101.973822,216.060412 C101.971351,214.296631 100.539043,212.867419 98.7714416,212.864954 L98.7714416,212.864954 Z" id="Shape"></path>
                            <path d="M100.085584,50.1919655 C121.30909,50.1919655 138.514142,67.3598297 138.514142,88.5374635 C138.514142,109.715097 121.30909,126.882961 100.085584,126.882961 C78.8620768,126.882961 61.6570252,109.715097 61.6570252,88.5374635 C61.6570252,67.3598297 78.8620768,50.1919655 100.085584,50.1919655 L100.085584,50.1919655 Z M100.085584,49.3505843 C78.3963883,49.3505843 60.8138215,66.8951477 60.8138215,88.5374635 C60.8138215,110.179779 78.3963883,127.724343 100.085584,127.724343 C121.774779,127.724343 139.357346,110.179779 139.357346,88.5374635 C139.332629,66.9053718 121.764533,49.3752476 100.085584,49.3505843 L100.085584,49.3505843 Z" id="Shape"></path>
                            <path d="M100.085584,60.5839177 C115.557342,60.5839177 128.09968,73.0991464 128.09968,88.5374635 C128.09968,103.975781 115.557342,116.491009 100.085584,116.491009 C84.6138255,116.491009 72.0714874,103.975781 72.0714874,88.5374635 C72.0714874,73.0991464 84.6138255,60.5839177 100.085584,60.5839177 L100.085584,60.5839177 Z M100.085584,60.0200133 C84.3041921,60.0200133 71.5108467,72.7857069 71.5108467,88.532988 C71.5108467,104.280269 84.3041921,117.045963 100.085584,117.045963 C115.866975,117.045963 128.66032,104.280269 128.66032,88.532988 C128.643017,72.7928641 115.859802,60.037279 100.085584,60.0200133 L100.085584,60.0200133 Z" id="Shape"></path>
                            <path d="M100.085584,73.5089641 C108.403573,73.5089641 115.146636,80.2374525 115.146636,88.5374635 C115.146636,96.8374745 108.403573,103.565963 100.085584,103.565963 C91.7675938,103.565963 85.0245309,96.8374745 85.0245309,88.5374635 C85.0245309,80.2374525 91.7675938,73.5089641 100.085584,73.5089641 L100.085584,73.5089641 Z M100.085584,73.227012 C91.6115386,73.227012 84.741968,80.0817346 84.741968,88.5374635 C84.741968,96.9931924 91.6115386,103.847915 100.085584,103.847915 C108.559628,103.847915 115.429199,96.9931924 115.429199,88.5374635 C115.419313,80.0858241 108.55553,73.2368767 100.085584,73.227012 L100.085584,73.227012 Z" id="Shape"></path>
                            <path d="M98.9104805,0.845856574 C98.9104805,0.845856574 114.115057,0.845856574 117.864622,3.08357238 L117.864622,6.11343958 C111.571188,6.83340425 105.24475,7.22925901 98.9104805,7.29942895 C92.5762107,7.22925901 86.2497735,6.83340425 79.9563387,6.11343958 L79.9563387,3.08357238 C83.710389,0.845856574 98.9104805,0.845856574 98.9104805,0.845856574 L98.9104805,0.845856574 Z M98.9104805,0.00447543161 C98.8701144,0.00447543161 95.0308467,0.00447543161 90.7834325,0.286427623 C84.9796796,0.666839309 81.1897483,1.36948207 79.5167963,2.37197875 L79.1086499,2.61812749 L79.1086499,6.87426295 L79.8531808,6.96377158 C86.1811244,7.68448228 92.5418637,8.08182274 98.9104805,8.15423639 C105.279097,8.08182274 111.639837,7.68448228 117.96778,6.96377158 L118.712311,6.87426295 L118.712311,2.61365206 L118.304165,2.36750332 C116.631213,1.36500664 112.841281,0.662363878 107.037529,0.281952191 C102.790114,0.00447543161 98.9643021,0 98.9104805,0 L98.9104805,0.00447543161 Z" id="Shape"></path>
                        </g>
                        <ellipse id="Oval-6" fill="#00FFCF" filter="url(#filter-1)" cx="98.7538347" cy="189.680168" rx="2.35576923" ry="2.35335196"></ellipse>
                        <ellipse id="Oval-6" fill="#00FFAD" opacity="0.900701993" cx="98.7538347" cy="189.680168" rx="2.35576923" ry="2.35335196"></ellipse>
                    </g>
                </g>
            </g>
        </g>
    </g>
</svg>