<?xml version="1.0" encoding="UTF-8"?>
<svg width="25px" height="45px" viewBox="0 0 25 45" version="1.1" xmlns="http://www.w3.org/2000/svg" xmlns:xlink="http://www.w3.org/1999/xlink">
    <!-- Generator: Sketch 43.1 (39012) - http://www.bohemiancoding.com/sketch -->
    <title>Shape</title>
    <desc>Created with Sketch.</desc>
    <defs></defs>
    <g id="Page-1" stroke="none" stroke-width="1" fill="none" fill-rule="evenodd">
        <g id="效果图-copy" transform="translate(-948.000000, -990.000000)" fill-rule="nonzero" fill="#3E9BFF">
            <g id="P1">
                <g id="向下" transform="translate(948.000000, 990.000000)">
                    <path d="M15.6093489,41.7886572 C15.2779906,42.1219073 14.8525493,42.2836788 14.4190523,42.3287477 C14.315492,43.3189208 13.5116078,44.1 12.5002154,44.1 C11.4883922,44.1 10.6848095,43.3188774 10.5790092,42.3287477 C10.1474507,42.2836788 9.72200937,42.121864 9.39065107,41.7886572 L1.07490149,33.4231704 C0.308366171,32.6520583 0.308366171,31.4035622 1.07490149,30.6324502 C1.83949832,29.8632882 3.08049809,29.8632882 3.84703341,30.6324502 L12.1629123,38.9998871 C12.314031,39.1500013 12.4078555,39.329367 12.5002585,39.508776 C12.5902491,39.329367 12.6863568,39.1500013 12.8370016,38.9998871 L21.1533543,30.6324502 C21.9197604,29.8632882 23.1605017,29.8632882 23.9250985,30.6324502 C24.6916338,31.4035622 24.6916338,32.6520583 23.9250985,33.4231704 L15.6093489,41.7886572 L15.6093489,41.7886572 Z M12.5002585,28.1360214 C11.0059152,28.1360214 9.792744,26.9157368 9.792744,25.4124713 C9.792744,23.9089891 11.0059152,22.6886611 12.5002585,22.6886611 C13.994731,22.6886611 15.2072991,23.9089457 15.2072991,25.4124713 C15.2072991,26.9156935 13.9946879,28.1360214 12.5002585,28.1360214 L12.5002585,28.1360214 Z M12.5002585,17.2413875 C11.0059152,17.2413875 9.792744,16.0211029 9.792744,14.5179241 C9.792744,13.0143119 11.0059152,11.7941139 12.5002585,11.7941139 C13.994731,11.7941139 15.2072991,13.0143119 15.2072991,14.5179241 C15.2072991,16.0211029 13.9946879,17.2413875 12.5002585,17.2413875 L12.5002585,17.2413875 Z M12.5002585,6.34749032 C11.0059152,6.34749032 9.792744,5.12707569 9.792744,3.62381016 C9.792744,2.12041463 11.0059152,0.9 12.5002585,0.9 C13.994731,0.9 15.2072991,2.12041463 15.2072991,3.62381016 C15.2072991,5.12707569 13.9946879,6.34749032 12.5002585,6.34749032 L12.5002585,6.34749032 Z" id="Shape"></path>
                </g>
            </g>
        </g>
    </g>
</svg>