<?xml version="1.0" encoding="UTF-8"?>
<svg width="375px" height="58px" viewBox="0 0 375 58" version="1.1" xmlns="http://www.w3.org/2000/svg" xmlns:xlink="http://www.w3.org/1999/xlink">
    <!-- Generator: Sketch 46.1 (44463) - http://www.bohemiancoding.com/sketch -->
    <title>btn-en-sol</title>
    <desc>Created with Sketch.</desc>
    <defs></defs>
    <g id="Page-1" stroke="none" stroke-width="1" fill="none" fill-rule="evenodd">
        <g id="英文2" transform="translate(0.000000, -195.000000)">
            <g id="btn-en-sol" transform="translate(0.000000, 195.000000)">
                <rect id="Rectangle" fill="#FFFFFF" x="0" y="0" width="375" height="58"></rect>
                <path d="M154.68,22.08 C153.57,22.08 152.655,22.32 151.95,22.8 C151.155,23.31 150.765,24.045 150.765,24.975 C150.765,25.875 151.17,26.565 151.995,27.045 C152.34,27.225 153.165,27.525 154.455,27.915 C155.655,28.26 156.42,28.515 156.72,28.695 C157.425,29.07 157.785,29.595 157.785,30.27 C157.785,30.84 157.515,31.29 156.975,31.62 C156.435,31.95 155.715,32.115 154.845,32.115 C153.885,32.115 153.165,31.905 152.67,31.515 C152.13,31.08 151.8,30.39 151.695,29.46 L150.48,29.46 C150.57,30.78 151.035,31.755 151.875,32.4 C152.595,32.94 153.585,33.21 154.845,33.21 C156.12,33.21 157.125,32.94 157.875,32.415 C158.625,31.875 159,31.125 159,30.195 C159,29.22 158.55,28.47 157.665,27.93 C157.215,27.66 156.285,27.315 154.875,26.895 C153.84,26.595 153.18,26.37 152.91,26.22 C152.295,25.89 151.995,25.455 151.995,24.915 C151.995,24.3 152.25,23.85 152.76,23.55 C153.21,23.28 153.825,23.16 154.62,23.16 C155.49,23.16 156.165,23.34 156.645,23.73 C157.11,24.105 157.41,24.675 157.545,25.455 L158.76,25.455 C158.655,24.33 158.25,23.475 157.53,22.905 C156.84,22.35 155.88,22.08 154.68,22.08 Z M165.24,22.08 C166.83,22.08 168.105,22.605 169.035,23.685 C169.905,24.705 170.355,26.025 170.355,27.66 C170.355,29.28 169.905,30.585 169.035,31.605 C168.105,32.67 166.83,33.21 165.225,33.21 C163.62,33.21 162.36,32.67 161.43,31.605 C160.545,30.585 160.11,29.265 160.11,27.66 C160.11,26.04 160.545,24.72 161.43,23.7 C162.36,22.62 163.62,22.08 165.24,22.08 Z M165.24,23.175 C164.01,23.175 163.035,23.595 162.33,24.45 C161.67,25.26 161.34,26.325 161.34,27.66 C161.34,28.98 161.67,30.045 162.33,30.855 C163.02,31.695 163.995,32.115 165.225,32.115 C166.455,32.115 167.43,31.695 168.12,30.885 C168.78,30.075 169.125,29.01 169.125,27.66 C169.125,26.295 168.78,25.215 168.12,24.405 C167.43,23.58 166.47,23.175 165.24,23.175 Z M172.065,22.29 L172.065,33 L179.475,33 L179.475,31.935 L173.28,31.935 L173.28,22.29 L172.065,22.29 Z M180.885,22.29 L180.885,28.89 C180.885,30.285 181.245,31.35 181.965,32.1 C182.685,32.835 183.75,33.21 185.16,33.21 C186.57,33.21 187.635,32.835 188.37,32.085 C189.075,31.35 189.435,30.285 189.435,28.89 L189.435,22.29 L188.205,22.29 L188.205,28.905 C188.205,29.955 187.965,30.75 187.5,31.29 C186.99,31.845 186.21,32.13 185.16,32.13 C184.095,32.13 183.315,31.845 182.82,31.29 C182.34,30.75 182.115,29.955 182.115,28.905 L182.115,22.29 L180.885,22.29 Z M190.77,22.29 L190.77,23.355 L194.55,23.355 L194.55,33 L195.765,33 L195.765,23.355 L199.545,23.355 L199.545,22.29 L190.77,22.29 Z M200.97,22.29 L200.97,33 L202.185,33 L202.185,22.29 L200.97,22.29 Z M209.115,22.08 C210.705,22.08 211.98,22.605 212.91,23.685 C213.78,24.705 214.23,26.025 214.23,27.66 C214.23,29.28 213.78,30.585 212.91,31.605 C211.98,32.67 210.705,33.21 209.1,33.21 C207.495,33.21 206.235,32.67 205.305,31.605 C204.42,30.585 203.985,29.265 203.985,27.66 C203.985,26.04 204.42,24.72 205.305,23.7 C206.235,22.62 207.495,22.08 209.115,22.08 Z M209.115,23.175 C207.885,23.175 206.91,23.595 206.205,24.45 C205.545,25.26 205.215,26.325 205.215,27.66 C205.215,28.98 205.545,30.045 206.205,30.855 C206.895,31.695 207.87,32.115 209.1,32.115 C210.33,32.115 211.305,31.695 211.995,30.885 C212.655,30.075 213,29.01 213,27.66 C213,26.295 212.655,25.215 211.995,24.405 C211.305,23.58 210.345,23.175 209.115,23.175 Z M215.94,22.29 L215.94,33 L217.17,33 L217.17,24.195 L217.215,24.195 L223.305,33 L224.565,33 L224.565,22.29 L223.335,22.29 L223.335,31.005 L223.29,31.005 L217.23,22.29 L215.94,22.29 Z" id="SOLUTION" fill="#111111"></path>
            </g>
        </g>
    </g>
</svg>