<?xml version="1.0" encoding="UTF-8"?>
<svg width="113px" height="58px" viewBox="0 0 113 58" version="1.1" xmlns="http://www.w3.org/2000/svg" xmlns:xlink="http://www.w3.org/1999/xlink">
    <!-- Generator: Sketch 46.1 (44463) - http://www.bohemiancoding.com/sketch -->
    <title>china-en</title>
    <desc>Created with Sketch.</desc>
    <defs></defs>
    <g id="Page-1" stroke="none" stroke-width="1" fill="none" fill-rule="evenodd">
        <g id="选择语言" transform="translate(-241.000000, -125.000000)">
            <g id="Group-33" transform="translate(231.000000, 111.000000)">
                <g id="Group-4" transform="translate(10.000000, 14.000000)">
                    <g id="china-en">
                        <rect id="Rectangle" fill="#FFFFFF" opacity="0.0506680254" x="0" y="0" width="113" height="58"></rect>
                        <path d="M49.019,24.327 L49.981,24.327 L49.981,26.667 L54.648,26.667 L54.648,32.777 L53.712,32.777 L53.712,31.958 L49.981,31.958 L49.981,36.391 L49.019,36.391 L49.019,31.958 L45.301,31.958 L45.301,32.777 L44.365,32.777 L44.365,26.667 L49.019,26.667 L49.019,24.327 Z M45.301,31.048 L49.019,31.048 L49.019,27.577 L45.301,27.577 L45.301,31.048 Z M49.981,31.048 L53.712,31.048 L53.712,27.577 L49.981,27.577 L49.981,31.048 Z M56.832,26.576 L62.214,26.576 C61.863,25.887 61.434,25.237 60.914,24.626 L61.85,24.288 C62.344,24.912 62.786,25.679 63.202,26.576 L68.168,26.576 L68.168,27.512 L66.14,27.512 C65.503,29.566 64.541,31.295 63.267,32.673 C64.645,33.843 66.374,34.805 68.454,35.572 L67.947,36.352 C65.789,35.546 64.021,34.545 62.617,33.336 C61.135,34.701 59.289,35.702 57.079,36.339 L56.585,35.52 C58.769,34.935 60.563,34.012 61.967,32.738 C60.459,31.256 59.419,29.514 58.834,27.512 L56.832,27.512 L56.832,26.576 Z M59.757,27.512 C60.316,29.267 61.265,30.788 62.617,32.088 C63.774,30.827 64.619,29.306 65.165,27.512 L59.757,27.512 Z" id="中文" fill="#707070"></path>
                    </g>
                </g>
            </g>
        </g>
    </g>
</svg>