<?xml version="1.0" encoding="UTF-8"?>
<svg width="113px" height="58px" viewBox="0 0 113 58" version="1.1" xmlns="http://www.w3.org/2000/svg" xmlns:xlink="http://www.w3.org/1999/xlink">
    <!-- Generator: Sketch 46.1 (44463) - http://www.bohemiancoding.com/sketch -->
    <title>english-en</title>
    <desc>Created with Sketch.</desc>
    <defs></defs>
    <g id="Page-1" stroke="none" stroke-width="1" fill="none" fill-rule="evenodd">
        <g id="选择语言" transform="translate(-241.000000, -198.000000)">
            <g id="Group-33" transform="translate(231.000000, 111.000000)">
                <g id="Group-4" transform="translate(10.000000, 14.000000)">
                    <g id="english-en" transform="translate(0.000000, 73.000000)">
                        <rect id="Rectangle-Copy" fill="#FFFFFF" opacity="0.0506680254" x="0" y="0" width="113" height="58"></rect>
                        <path d="M34.949,23.718 L34.949,33 L41.683,33 L41.683,32.298 L35.742,32.298 L35.742,28.554 L41.15,28.554 L41.15,27.839 L35.742,27.839 L35.742,24.42 L41.462,24.42 L41.462,23.718 L34.949,23.718 Z M46.025,26.097 C45.557,26.097 45.128,26.201 44.751,26.435 C44.374,26.669 44.075,26.981 43.841,27.384 L43.841,26.279 L43.061,26.279 L43.061,33 L43.841,33 L43.841,28.944 C43.88,28.281 44.088,27.748 44.478,27.358 C44.842,26.968 45.284,26.773 45.83,26.773 C47.104,26.773 47.741,27.488 47.741,28.918 L47.741,33 L48.521,33 L48.521,28.866 C48.521,27.02 47.689,26.097 46.025,26.097 Z M52.928,26.097 C54.033,26.097 54.839,26.604 55.333,27.631 L55.333,26.279 L56.113,26.279 L56.113,32.506 C56.113,34.664 55.099,35.756 53.097,35.756 C52.213,35.756 51.537,35.561 51.056,35.184 C50.601,34.82 50.315,34.287 50.198,33.572 L50.978,33.572 C51.069,34.066 51.277,34.443 51.602,34.69 C51.94,34.963 52.434,35.106 53.097,35.106 C54.579,35.106 55.333,34.261 55.333,32.597 L55.333,31.31 C54.839,32.324 54.033,32.844 52.928,32.844 C51.992,32.844 51.238,32.506 50.679,31.843 C50.159,31.219 49.899,30.439 49.899,29.477 C49.899,28.528 50.159,27.735 50.679,27.111 C51.238,26.435 51.992,26.097 52.928,26.097 Z M53.019,26.76 C52.278,26.76 51.706,27.02 51.29,27.566 C50.887,28.06 50.692,28.697 50.692,29.477 C50.692,30.231 50.874,30.855 51.251,31.349 C51.654,31.895 52.239,32.168 53.006,32.168 C53.747,32.168 54.332,31.908 54.748,31.388 C55.138,30.894 55.333,30.257 55.333,29.477 C55.333,28.697 55.138,28.06 54.748,27.566 C54.332,27.02 53.747,26.76 53.019,26.76 Z M57.998,23.536 L57.998,33 L58.778,33 L58.778,23.536 L57.998,23.536 Z M61.443,23.861 C61.248,23.861 61.092,23.926 60.975,24.056 C60.845,24.16 60.78,24.316 60.78,24.511 C60.78,24.693 60.845,24.849 60.975,24.979 C61.092,25.096 61.248,25.161 61.443,25.161 C61.625,25.161 61.768,25.096 61.898,24.979 C62.028,24.849 62.106,24.693 62.106,24.511 C62.106,24.316 62.041,24.16 61.911,24.056 C61.781,23.926 61.625,23.861 61.443,23.861 Z M61.053,26.279 L61.053,33 L61.833,33 L61.833,26.279 L61.053,26.279 Z M66.149,26.097 C65.447,26.097 64.849,26.253 64.381,26.578 C63.887,26.916 63.653,27.345 63.653,27.891 C63.653,28.437 63.9,28.866 64.42,29.178 C64.732,29.373 65.278,29.568 66.058,29.776 C66.825,29.971 67.319,30.127 67.553,30.244 C67.995,30.465 68.216,30.777 68.216,31.18 C68.216,32.064 67.566,32.506 66.266,32.506 C65.642,32.506 65.174,32.389 64.862,32.155 C64.524,31.895 64.316,31.466 64.238,30.881 L63.471,30.881 C63.627,32.415 64.563,33.182 66.292,33.182 C68.112,33.182 69.022,32.493 69.022,31.141 C69.022,30.569 68.749,30.114 68.216,29.789 C67.878,29.581 67.293,29.373 66.474,29.165 C65.785,28.983 65.317,28.827 65.057,28.697 C64.654,28.489 64.459,28.216 64.459,27.878 C64.459,27.54 64.615,27.28 64.927,27.072 C65.239,26.864 65.642,26.773 66.136,26.773 C66.734,26.773 67.189,26.89 67.501,27.137 C67.787,27.358 67.969,27.696 68.06,28.164 L68.827,28.164 C68.632,26.786 67.735,26.097 66.149,26.097 Z M70.27,23.536 L70.27,33 L71.063,33 L71.063,29.113 C71.063,28.45 71.245,27.891 71.635,27.449 C72.025,26.994 72.493,26.773 73.052,26.773 C73.65,26.773 74.105,26.942 74.443,27.293 C74.768,27.657 74.937,28.164 74.937,28.814 L74.937,33 L75.717,33 L75.717,28.71 C75.717,27.878 75.496,27.228 75.067,26.773 C74.638,26.318 74.04,26.097 73.273,26.097 C72.805,26.097 72.376,26.214 71.999,26.448 C71.609,26.695 71.297,27.046 71.063,27.501 L71.063,23.536 L70.27,23.536 Z" id="English" fill="#2E91EE"></path>
                    </g>
                </g>
            </g>
        </g>
    </g>
</svg>