<?xml version="1.0" encoding="UTF-8"?>
<svg width="59px" height="59px" viewBox="0 0 59 59" version="1.1" xmlns="http://www.w3.org/2000/svg" xmlns:xlink="http://www.w3.org/1999/xlink">
    <!-- Generator: Sketch 43.2 (39069) - http://www.bohemiancoding.com/sketch -->
    <title>Group 2</title>
    <desc>Created with Sketch.</desc>
    <defs>
        <polygon id="path-1" points="1.07454057e-15 19.3047982 1.07454057e-15 0.010499978 39.1506889 0.010499978 39.1506889 19.3047982 0 19.3047982"></polygon>
    </defs>
    <g id="Page-1" stroke="none" stroke-width="1" fill="none" fill-rule="evenodd">
        <g id="iPhone-7" transform="translate(-158.000000, -94.000000)">
            <g id="Group-4" transform="translate(-183.000000, -2.000000)">
                <g id="Group-2" transform="translate(341.000000, 96.000000)">
                    <rect id="Rectangle-2" fill="#FFFFFF" x="0" y="0" width="59" height="59" rx="13"></rect>
                    <g id="Group" transform="translate(11.315068, 18.589041)">
                        <path d="M16.3431815,13.060656 L12.8235323,16.620022 L15.1515599,18.9741582 C15.3606246,19.1860877 15.6447261,19.3049401 15.9406258,19.3049401 L20.8996596,19.3049401 C21.4966502,19.3049401 21.7953816,18.5751197 21.3734767,18.1483967 L16.3431815,13.060656 Z" id="Fill-1" fill="#000000" fill-rule="nonzero"></path>
                        <g id="Fill-4-Clipped">
                            <mask id="mask-2" fill="white">
                                <use xlink:href="#path-1"></use>
                            </mask>
                            <g id="path-1"></g>
                            <path d="M38.9488116,18.1639262 L20.8672631,0.532438349 C20.1539309,-0.163479479 18.9967581,-0.163479479 18.2834258,0.532438349 L10.8154116,7.81509125 L3.22569144,0.415667292 C2.79392499,-0.00527353157 2.05499583,0.292775172 2.05499583,0.888401732 L2.05499583,5.83563354 C2.05499583,6.13132799 2.17573588,6.41430946 2.38968727,6.62336732 L7.21397711,11.3266983 L0.201877381,18.1639262 C-0.229889075,18.5853378 0.0763077178,19.3047982 0.686769462,19.3047982 L5.76219863,19.3047982 C6.0650147,19.3047982 6.35575677,19.1875563 6.57019111,18.9784985 L10.7400699,14.9126998 L10.8163775,14.8387761 L14.4178121,11.3271691 L14.4941198,11.2532455 L18.2834258,7.55894829 C18.9967581,6.85926368 20.1539309,6.85926368 20.8672631,7.55894829 L32.5809808,18.9784985 C32.7954152,19.1875563 33.0856742,19.3047982 33.3889732,19.3047982 L38.4639195,19.3047982 C39.0748642,19.3047982 39.380578,18.5853378 38.9488116,18.1639262" id="Fill-4" fill="#000000" fill-rule="nonzero" mask="url(#mask-2)"></path>
                        </g>
                    </g>
                </g>
            </g>
        </g>
    </g>
</svg>