<?xml version="1.0" encoding="UTF-8"?>
<svg width="79px" height="18px" viewBox="0 0 79 18" version="1.1" xmlns="http://www.w3.org/2000/svg" xmlns:xlink="http://www.w3.org/1999/xlink">
    <!-- Generator: Sketch 45 (43475) - http://www.bohemiancoding.com/sketch -->
    <title>language</title>
    <desc>Created with Sketch.</desc>
    <defs></defs>
    <g id="Page-1" stroke="none" stroke-width="1" fill="none" fill-rule="evenodd">
        <g id="新版" transform="translate(-1321.000000, -30.000000)">
            <g id="1" transform="translate(-2.000000, 0.000000)">
                <g id="language" transform="translate(1323.000000, 30.000000)">
                    <path d="M38.945,1.685 L40.055,1.685 L40.055,4.385 L45.44,4.385 L45.44,11.435 L44.36,11.435 L44.36,10.49 L40.055,10.49 L40.055,15.605 L38.945,15.605 L38.945,10.49 L34.655,10.49 L34.655,11.435 L33.575,11.435 L33.575,4.385 L38.945,4.385 L38.945,1.685 Z M34.655,9.44 L38.945,9.44 L38.945,5.435 L34.655,5.435 L34.655,9.44 Z M40.055,9.44 L44.36,9.44 L44.36,5.435 L40.055,5.435 L40.055,9.44 Z M47.96,4.28 L54.17,4.28 C53.765,3.485 53.27,2.735 52.67,2.03 L53.75,1.64 C54.32,2.36 54.83,3.245 55.31,4.28 L61.04,4.28 L61.04,5.36 L58.7,5.36 C57.965,7.73 56.855,9.725 55.385,11.315 C56.975,12.665 58.97,13.775 61.37,14.66 L60.785,15.56 C58.295,14.63 56.255,13.475 54.635,12.08 C52.925,13.655 50.795,14.81 48.245,15.545 L47.675,14.6 C50.195,13.925 52.265,12.86 53.885,11.39 C52.145,9.68 50.945,7.67 50.27,5.36 L47.96,5.36 L47.96,4.28 Z M51.335,5.36 C51.98,7.385 53.075,9.14 54.635,10.64 C55.97,9.185 56.945,7.43 57.575,5.36 L51.335,5.36 Z" id="中文" fill="#38393B"></path>
                    <path d="M17.9989193,8.99270794 C17.9989193,4.02617452 13.969774,0 8.99954966,0 C4.02923527,0 0,4.02617448 0,8.99270794 C0,13.58057 3.4380383,17.3656997 7.88000956,17.9164765 C8.13041666,17.9692478 8.43541351,17.9999995 8.79867303,17.9999995 C8.90065073,17.9999995 8.99899152,17.9946342 9.09396543,17.9849117 C14.0206908,17.934283 17.9989193,13.9279135 17.9989193,8.99270794 Z M16.712099,9.119946 C16.6862085,8.67125495 16.6269376,8.23205228 16.5366808,7.80521873 C16.5446928,7.65281032 16.5468714,7.50841395 16.5427844,7.37417211 C16.6543945,7.89606962 16.7132513,8.43752005 16.7132513,8.99270794 C16.7132693,9.03521665 16.7127832,9.07759932 16.712099,9.119946 Z M1.28566796,8.99270794 C1.28566796,8.44763858 1.34241827,7.91583859 1.4501034,7.40274531 C1.78322332,7.75901907 2.56838318,7.75061094 2.75986141,7.21828882 C3.10246973,7.42247827 3.56288174,7.45965765 3.56288174,7.86778447 C3.56288174,9.21473986 3.61084583,10.6587937 4.83468622,10.6811014 C4.8691469,10.6815515 5.5172022,10.9267013 5.8256199,11.7265708 C5.93226078,12.0030304 6.35407106,11.7265708 6.81664361,11.7265708 C7.04756981,11.7265708 6.81664361,12.1156128 6.81664361,12.9568928 C6.81664361,13.794914 8.62338085,15.0852631 8.62338085,15.0852631 C8.61500874,15.6399829 8.63778448,16.0885299 8.68394811,16.4468742 C8.27612735,16.4393663 7.93243874,16.4934159 7.66242471,16.5853291 C4.03951586,15.9526497 1.28566796,12.7941858 1.28566796,8.99270794 Z M10.8985602,16.4653649 C10.8585721,16.2695835 10.683622,16.1623665 10.3644196,16.2462677 C10.6191118,15.1616564 10.7429289,14.5540933 11.2746209,14.092781 C12.0439008,13.425929 11.366228,12.6843581 10.7808285,12.7717522 C10.3194262,12.8414117 10.6110097,12.2004682 10.1991919,12.1650173 C9.78737418,12.1305566 9.24956066,11.3114222 8.65686932,11.0295612 C8.34269017,10.8803576 8.03393035,10.4805128 7.54939226,10.4625983 C7.11993005,10.4459441 6.4923099,10.8257318 6.4923099,10.532978 C6.4923099,9.59000844 6.39683185,8.91712489 6.3772069,8.64840719 C6.36136291,8.43251477 6.23608734,8.57568686 6.81664362,8.58964038 C7.13260524,8.5981025 6.97827035,7.95499846 7.29100915,7.92988213 C7.59816654,7.905576 8.33008698,8.21741457 8.51655997,8.09312926 C8.68979963,7.9773961 9.78998485,10.9810569 9.78998485,8.58962236 C9.78998485,8.30587087 9.64303182,7.81252857 9.78998485,7.54379283 C10.3711713,6.48184924 10.9152684,5.61637117 10.8664041,5.48976326 C10.8386771,5.4184833 10.2718043,5.35962647 9.81823397,5.51181881 C9.66515939,5.56293369 9.86691823,5.8026821 9.64706483,5.853887 C8.82333928,6.04405092 8.09555988,5.63178302 8.35041412,5.24427139 C8.61138987,4.84712732 9.55697014,5.07103172 9.63986303,4.27431298 C9.68755705,3.817952 9.72707701,3.28941081 9.75352567,2.89658784 C10.862137,3.06995352 10.7401022,1.45782732 9.0916969,1.28527183 C12.4265332,1.32428765 15.2524532,3.47797233 16.2894425,6.46697749 C16.2369953,6.41913944 16.1759779,6.39006211 16.1055082,6.38296831 C15.6071246,5.13808062 14.3974178,6.03900964 14.8077772,7.13703432 C12.6090272,8.82722821 13.171849,10.0060572 13.894245,10.6811013 C14.2743748,11.0359527 14.6367881,11.5696252 14.8727556,11.9529058 C14.6159209,12.7018045 15.819074,12.4019209 16.4124496,11.1310167 C15.6576813,13.7486063 13.5521408,15.7940837 10.8985602,16.4653649 Z" id="Shape" fill="#8D8E91" fill-rule="nonzero"></path>
                    <polygon id="Triangle-2" fill="#38393B" points="73 12 67 6 79 6"></polygon>
                </g>
            </g>
        </g>
    </g>
</svg>