<?xml version="1.0" encoding="UTF-8"?>
<svg width="94px" height="41px" viewBox="0 0 94 41" version="1.1" xmlns="http://www.w3.org/2000/svg" xmlns:xlink="http://www.w3.org/1999/xlink">
    <!-- Generator: Sketch 45.2 (43514) - http://www.bohemiancoding.com/sketch -->
    <title>Group 34</title>
    <desc>Created with Sketch.</desc>
    <defs></defs>
    <g id="Page-1" stroke="none" stroke-width="1" fill="none" fill-rule="evenodd">
        <g id="首页" transform="translate(-749.000000, -31.000000)">
            <g id="导航">
                <g id="Group-22" transform="translate(749.000000, 31.000000)">
                    <g id="Group-34">
                        <rect id="Rectangle-18" fill-opacity="0.01" fill="#D8D8D8" x="0" y="0" width="94" height="41"></rect>
                        <path d="M44.4,17.96 L44.4,27.8 L43.264,27.8 L43.264,27.144 L34.912,27.144 L34.912,27.8 L33.776,27.8 L33.776,17.96 L38.112,17.96 C38.24,17.448 38.352,16.904 38.416,16.344 L32,16.344 L32,15.224 L36.08,15.224 C35.84,14.6 35.568,14.008 35.248,13.464 L36.368,13.048 C36.688,13.656 36.992,14.376 37.264,15.224 L40.816,15.224 C41.184,14.52 41.504,13.784 41.776,13 L42.912,13.4 C42.656,14.088 42.384,14.696 42.08,15.224 L46.176,15.224 L46.176,16.344 L39.632,16.344 C39.536,16.904 39.44,17.448 39.312,17.96 L44.4,17.96 Z M34.912,26.104 L43.264,26.104 L43.264,24.392 L34.912,24.392 L34.912,26.104 Z M34.912,23.368 L43.264,23.368 L43.264,21.704 L34.912,21.704 L34.912,23.368 Z M34.912,20.68 L43.264,20.68 L43.264,19.016 L34.912,19.016 L34.912,20.68 Z M60.032,16.616 L60.032,24.184 L58.88,24.184 L58.88,17.736 L51.232,17.736 L51.232,24.216 L50.08,24.216 L50.08,16.616 L54.128,16.616 C54.288,16.056 54.4,15.48 54.48,14.872 L48.048,14.872 L48.048,13.784 L62.128,13.784 L62.128,14.872 L55.696,14.872 C55.6,15.48 55.488,16.072 55.328,16.616 L60.032,16.616 Z M56.144,24.216 C58.208,24.92 60.096,25.752 61.792,26.744 L61.088,27.832 C59.264,26.696 57.408,25.8 55.504,25.16 L56.144,24.216 Z M54.496,18.696 L55.68,18.696 L55.68,21.24 C55.616,23 55.04,24.392 53.984,25.448 C52.96,26.424 51.28,27.176 48.944,27.72 L48.288,26.696 C50.608,26.184 52.224,25.512 53.136,24.664 C54,23.784 54.448,22.648 54.496,21.24 L54.496,18.696 Z" id="首页" fill="#0D2A50"></path>
                    </g>
                </g>
            </g>
        </g>
    </g>
</svg>