<?xml version="1.0" encoding="UTF-8"?>
<svg width="205px" height="66px" viewBox="0 0 205 66" version="1.1" xmlns="http://www.w3.org/2000/svg" xmlns:xlink="http://www.w3.org/1999/xlink">
    <!-- Generator: Sketch 45.2 (43514) - http://www.bohemiancoding.com/sketch -->
    <title>zhognwen</title>
    <desc>Created with Sketch.</desc>
    <defs></defs>
    <g id="Page-1" stroke="none" stroke-width="1" fill="none" fill-rule="evenodd">
        <g id="Group-33" transform="translate(-6.000000, -13.000000)">
            <g id="zhognwen" transform="translate(6.000000, 13.000000)">
                <rect id="Rectangle-23" fill="#FFFFFF" x="0" y="0" width="205" height="66.0019531"></rect>
                <path d="M90.186,21.938 L91.814,21.938 L91.814,25.898 L99.712,25.898 L99.712,36.238 L98.128,36.238 L98.128,34.852 L91.814,34.852 L91.814,42.354 L90.186,42.354 L90.186,34.852 L83.894,34.852 L83.894,36.238 L82.31,36.238 L82.31,25.898 L90.186,25.898 L90.186,21.938 Z M83.894,33.312 L90.186,33.312 L90.186,27.438 L83.894,27.438 L83.894,33.312 Z M91.814,33.312 L98.128,33.312 L98.128,27.438 L91.814,27.438 L91.814,33.312 Z M103.408,25.744 L112.516,25.744 C111.922,24.578 111.196,23.478 110.316,22.444 L111.9,21.872 C112.736,22.928 113.484,24.226 114.188,25.744 L122.592,25.744 L122.592,27.328 L119.16,27.328 C118.082,30.804 116.454,33.73 114.298,36.062 C116.63,38.042 119.556,39.67 123.076,40.968 L122.218,42.288 C118.566,40.924 115.574,39.23 113.198,37.184 C110.69,39.494 107.566,41.188 103.826,42.266 L102.99,40.88 C106.686,39.89 109.722,38.328 112.098,36.172 C109.546,33.664 107.786,30.716 106.796,27.328 L103.408,27.328 L103.408,25.744 Z M108.358,27.328 C109.304,30.298 110.91,32.872 113.198,35.072 C115.156,32.938 116.586,30.364 117.51,27.328 L108.358,27.328 Z" id="中文" fill="#2E91EE"></path>
            </g>
        </g>
    </g>
</svg>