<?xml version="1.0" encoding="UTF-8"?>
<svg width="128px" height="40px" viewBox="0 0 128 40" version="1.1" xmlns="http://www.w3.org/2000/svg" xmlns:xlink="http://www.w3.org/1999/xlink">
    <!-- Generator: Sketch 45.2 (43514) - http://www.bohemiancoding.com/sketch -->
    <title>Group 5</title>
    <desc>Created with Sketch.</desc>
    <defs>
        <linearGradient x1="5.96008301%" y1="0%" x2="100%" y2="100%" id="linearGradient-1">
            <stop stop-color="#5BC4F8" offset="0%"></stop>
            <stop stop-color="#2E91EE" offset="100%"></stop>
        </linearGradient>
    </defs>
    <g id="Page-1" stroke="none" stroke-width="1" fill="none" fill-rule="evenodd">
        <g id="按钮状态" transform="translate(-531.000000, -57.000000)">
            <g id="按钮" transform="translate(531.000000, 57.000000)">
                <g id="Group-5">
                    <rect id="Rectangle-4" fill="url(#linearGradient-1)" x="0" y="0" width="128" height="40" rx="4"></rect>
                    <path d="M45.984,13.568 L45.984,22.352 L44.88,22.352 L44.88,14.64 L40.4,14.64 L40.4,22.352 L39.296,22.352 L39.296,13.568 L45.984,13.568 Z M45.712,27.312 L44.16,27.312 C43.28,27.312 42.848,26.864 42.848,25.968 L42.848,22.4 L43.936,22.4 L43.936,25.728 C43.936,26.096 44.112,26.288 44.48,26.288 L45.52,26.288 C45.792,26.288 45.984,26.192 46.112,26.016 C46.256,25.792 46.352,25.168 46.416,24.112 L47.424,24.448 C47.328,25.808 47.136,26.64 46.864,26.928 C46.608,27.184 46.224,27.312 45.712,27.312 Z M42.08,15.808 L43.168,15.808 L43.168,18.928 C43.12,21.296 42.688,23.184 41.856,24.592 C41.056,25.904 39.744,26.928 37.92,27.664 L37.296,26.688 C39.072,25.952 40.32,24.992 41.04,23.792 C41.68,22.544 42.032,20.928 42.08,18.928 L42.08,15.808 Z M33.728,16.64 C34.624,17.728 35.472,18.816 36.24,19.904 C36.64,18.496 36.896,16.96 37.008,15.312 L33.056,15.312 L33.056,14.192 L38.08,14.192 L38.08,15.072 C37.984,17.28 37.632,19.264 37.024,21.04 C37.696,22.048 38.304,23.056 38.864,24.048 L38.048,24.864 C37.6,24 37.088,23.152 36.544,22.304 C35.776,24.096 34.72,25.648 33.376,26.976 L32.64,26.128 C34.016,24.752 35.072,23.104 35.808,21.184 C34.96,19.952 34,18.688 32.944,17.392 L33.728,16.64 Z M49.952,15.872 L55.024,15.872 C55.2,15.488 55.36,15.088 55.52,14.704 C53.952,14.8 52.256,14.848 50.432,14.848 L50.096,13.888 C54.64,13.888 58.4,13.584 61.392,12.976 L61.92,13.888 C60.4,14.224 58.64,14.464 56.624,14.624 C56.48,15.056 56.32,15.472 56.16,15.872 L62.112,15.872 L62.112,16.864 L55.696,16.864 C55.504,17.248 55.296,17.6 55.088,17.952 L63.04,17.952 L63.04,18.976 L54.384,18.976 C54.096,19.36 53.808,19.728 53.504,20.08 L61.44,20.08 L61.44,27.616 L60.336,27.616 L60.336,26.928 L53.104,26.928 L53.104,27.616 L52,27.616 L52,21.616 C51.184,22.352 50.288,23.072 49.296,23.744 L48.672,22.752 C50.416,21.568 51.856,20.32 52.992,18.976 L49.088,18.976 L49.088,17.952 L53.792,17.952 C54.048,17.584 54.288,17.216 54.496,16.864 L49.952,16.864 L49.952,15.872 Z M53.104,22.992 L53.104,24 L60.336,24 L60.336,22.992 L53.104,22.992 Z M60.336,22.096 L60.336,21.024 L53.104,21.024 L53.104,22.096 L60.336,22.096 Z M53.104,24.896 L53.104,25.984 L60.336,25.984 L60.336,24.896 L53.104,24.896 Z M65.632,13.472 L72.512,13.472 L72.512,17.792 L69.392,17.792 L69.616,18.784 L73.296,18.784 L73.296,19.696 L64.752,19.696 L64.752,18.784 L68.544,18.784 L68.304,17.792 L65.632,17.792 L65.632,13.472 Z M71.456,17.008 L71.456,16.032 L66.672,16.032 L66.672,17.008 L71.456,17.008 Z M66.672,15.296 L71.456,15.296 L71.456,14.272 L66.672,14.272 L66.672,15.296 Z M65.776,20.608 L72.4,20.608 L72.4,23.696 L69.632,23.696 L69.632,26.32 C69.632,27.072 69.232,27.456 68.464,27.456 L67.312,27.456 L67.088,26.448 C67.44,26.48 67.792,26.512 68.112,26.512 C68.384,26.512 68.528,26.368 68.528,26.08 L68.528,23.696 L65.776,23.696 L65.776,20.608 Z M71.344,22.88 L71.344,21.424 L66.832,21.424 L66.832,22.88 L71.344,22.88 Z M66.16,24.224 L67.024,24.656 C66.576,25.68 66.064,26.592 65.456,27.36 L64.64,26.768 C65.216,26.064 65.728,25.216 66.16,24.224 Z M71.424,24.256 C72.016,25.088 72.48,25.824 72.8,26.464 L71.984,27.04 C71.648,26.352 71.2,25.584 70.624,24.752 L71.424,24.256 Z M77.872,13.088 C76.688,14.304 75.184,15.296 73.36,16.032 L73.84,17.024 C75.728,16.192 77.312,15.136 78.576,13.888 L77.872,13.088 Z M78.272,17.296 L78.976,18.096 C77.696,19.568 76.096,20.784 74.176,21.744 L73.696,20.752 C75.552,19.888 77.072,18.736 78.272,17.296 Z M78.496,21.344 L79.392,22.016 C78.048,24.592 76.08,26.448 73.456,27.568 L72.992,26.528 C75.424,25.472 77.264,23.744 78.496,21.344 Z M84.96,18.288 L94.384,18.288 L94.384,17.184 L90.784,17.184 L90.784,12.928 L89.648,12.928 L89.648,17.184 L84.96,17.184 L84.96,13.376 L83.792,13.376 L83.792,19.248 C83.76,22.704 82.912,25.232 81.232,26.816 L82.112,27.584 C83.472,26.304 84.352,24.448 84.736,22.048 L91.168,22.048 L91.168,27.632 L92.32,27.632 L92.32,20.928 L84.88,20.928 C84.912,20.4 84.944,19.84 84.96,19.248 L84.96,18.288 Z" id="观看影片" fill="#FFFFFF"></path>
                </g>
            </g>
        </g>
    </g>
</svg>