<?xml version="1.0" encoding="UTF-8"?>
<svg width="650px" height="150px" viewBox="0 0 650 150" version="1.1" xmlns="http://www.w3.org/2000/svg" xmlns:xlink="http://www.w3.org/1999/xlink">
    <!-- Generator: Sketch 48.2 (47327) - http://www.bohemiancoding.com/sketch -->
    <title>Group 31</title>
    <desc>Created with Sketch.</desc>
    <defs></defs>
    <g id="解决方案" stroke="none" stroke-width="1" fill="none" fill-rule="evenodd" transform="translate(-155.000000, -3670.000000)">
        <g id="Group-32" transform="translate(0.000000, 3608.000000)">
            <g id="Group-31" transform="translate(155.000000, 62.000000)">
                <g id="Group-30" transform="translate(0.000000, 60.000000)" fill="#949494">
                    <g id="Group-29">
                        <path d="M9.63,3.745 L10.665,3.745 L10.665,7.24 L13.815,6.31 C13.785,8.17 13.56,10.15 13.14,12.235 L12.15,11.935 C12.435,10.615 12.645,9.205 12.78,7.675 L10.665,8.305 L10.665,14.275 L9.63,14.275 L9.63,8.605 L7.71,9.175 L7.71,15.43 C7.71,15.94 7.95,16.21 8.43,16.21 L12.285,16.21 C12.615,16.21 12.84,16.105 12.975,15.895 C13.155,15.64 13.26,14.89 13.32,13.66 L14.325,13.975 C14.22,15.52 14.025,16.465 13.725,16.795 C13.455,17.08 13.05,17.23 12.48,17.23 L8.1,17.23 C7.14,17.23 6.675,16.69 6.675,15.64 L6.675,9.49 L5.595,9.805 L5.595,8.755 L6.675,8.44 L6.675,5.275 L7.71,5.275 L7.71,8.125 L9.63,7.555 L9.63,3.745 Z M0.795,7.795 L2.565,7.795 L2.565,3.805 L3.645,3.805 L3.645,7.795 L5.325,7.795 L5.325,8.845 L3.645,8.845 L3.645,13.78 C4.32,13.54 4.98,13.285 5.625,12.985 L5.625,14.05 C4.155,14.71 2.58,15.265 0.87,15.715 L0.6,14.635 C1.26,14.485 1.92,14.32 2.565,14.14 L2.565,8.845 L0.795,8.845 L0.795,7.795 Z M24.945,3.73 L26.04,3.73 L26.04,8.53 L28.89,8.53 L28.89,9.565 L26.04,9.565 L26.04,15.85 L29.325,15.85 L29.325,16.9 L19.875,16.9 L19.875,15.85 L21.615,15.85 L21.615,6.91 L22.695,6.91 L22.695,15.85 L24.945,15.85 L24.945,3.73 Z M20.625,13.135 L20.625,14.26 C19.125,14.8 17.49,15.265 15.75,15.625 L15.465,14.485 C16.155,14.365 16.83,14.23 17.49,14.08 L17.49,8.665 L15.615,8.665 L15.615,7.615 L17.49,7.615 L17.49,3.805 L18.6,3.805 L18.6,7.615 L20.445,7.615 L20.445,8.665 L18.6,8.665 L18.6,13.78 C19.29,13.585 19.965,13.375 20.625,13.135 Z M31.98,8.695 C32.22,8.695 32.445,8.785 32.625,8.965 C32.805,9.145 32.895,9.355 32.895,9.61 C32.895,9.865 32.805,10.09 32.625,10.27 C32.445,10.435 32.22,10.525 31.98,10.525 C31.71,10.525 31.5,10.435 31.335,10.27 C31.155,10.09 31.065,9.865 31.065,9.61 C31.065,9.355 31.155,9.145 31.335,8.965 C31.5,8.785 31.71,8.695 31.98,8.695 Z M31.98,14.185 C32.22,14.185 32.445,14.275 32.625,14.455 C32.805,14.635 32.895,14.845 32.895,15.1 C32.895,15.355 32.805,15.58 32.625,15.76 C32.445,15.925 32.22,16.015 31.98,16.015 C31.71,16.015 31.5,15.925 31.335,15.76 C31.155,15.58 31.065,15.355 31.065,15.1 C31.065,14.845 31.155,14.635 31.335,14.455 C31.5,14.275 31.71,14.185 31.98,14.185 Z M35.805,4 C36.63,4.72 37.32,5.425 37.89,6.13 L37.14,6.88 C36.63,6.205 35.94,5.485 35.04,4.735 L35.805,4 Z M35.445,7.585 C36.285,8.305 37.005,9.01 37.575,9.73 L36.825,10.48 C36.315,9.79 35.595,9.07 34.695,8.32 L35.445,7.585 Z M36.63,11.575 L37.575,11.935 C37.05,13.87 36.465,15.685 35.835,17.38 L34.83,16.945 C35.52,15.19 36.12,13.405 36.63,11.575 Z M42.15,9.955 L42.15,11.05 C41.67,11.305 41.205,11.545 40.725,11.77 L40.725,16 C40.725,16.9 40.32,17.365 39.51,17.365 L38.295,17.365 L38.07,16.42 C38.46,16.45 38.82,16.48 39.18,16.48 C39.51,16.48 39.675,16.24 39.675,15.76 L39.675,12.235 C39.18,12.43 38.7,12.61 38.22,12.775 L37.965,11.74 C38.55,11.575 39.12,11.38 39.675,11.17 L39.675,7.495 L38.07,7.495 L38.07,6.55 L39.675,6.55 L39.675,3.79 L40.725,3.79 L40.725,6.55 L42.09,6.55 L42.09,7.495 L40.725,7.495 L40.725,10.72 C41.205,10.48 41.685,10.225 42.15,9.955 Z M47.52,4.03 L48.015,4.945 C46.785,5.395 45.42,5.68 43.92,5.77 L43.92,8.635 L48.315,8.635 L48.315,9.61 L46.86,9.61 L46.86,17.53 L45.84,17.53 L45.84,9.61 L43.92,9.61 L43.92,10.675 C43.845,13.495 43.29,15.76 42.24,17.455 L41.505,16.675 C42.375,15.235 42.84,13.225 42.915,10.675 L42.915,4.9 C44.625,4.87 46.155,4.57 47.52,4.03 Z M58.065,5.71 L54.3,5.71 L54.3,4.69 L62.775,4.69 L62.775,5.71 L59.13,5.71 L59.13,15.895 L63.285,15.895 L63.285,16.93 L53.565,16.93 L53.565,15.895 L58.065,15.895 L58.065,5.71 Z M50.835,4.015 C51.9,4.735 52.8,5.44 53.52,6.145 L52.77,6.895 C52.11,6.22 51.21,5.5 50.07,4.75 L50.835,4.015 Z M50.445,7.6 C51.495,8.32 52.38,9.055 53.085,9.775 L52.335,10.525 C51.705,9.835 50.82,9.1 49.695,8.335 L50.445,7.6 Z M52.365,11.575 L53.31,11.935 C52.575,13.855 51.765,15.655 50.865,17.335 L49.875,16.9 C50.835,15.16 51.675,13.375 52.365,11.575 Z M67.32,10.315 C66.615,10.465 65.895,10.615 65.145,10.75 L64.695,9.79 C69.345,9.025 72.87,7.81 75.3,6.145 C74.76,5.725 74.19,5.29 73.56,4.84 L74.28,4.15 C75.855,5.245 77.175,6.34 78.255,7.42 L77.505,8.185 C77.085,7.72 76.605,7.255 76.05,6.775 C74.55,7.855 72.705,8.74 70.485,9.46 L76.455,9.46 L76.455,17.455 L75.405,17.455 L75.405,16.78 L68.37,16.78 L68.37,17.485 L67.32,17.485 L67.32,10.315 Z M68.37,15.82 L75.405,15.82 L75.405,14.53 L68.37,14.53 L68.37,15.82 Z M68.37,13.66 L75.405,13.66 L75.405,12.46 L68.37,12.46 L68.37,13.66 Z M68.37,11.59 L75.405,11.59 L75.405,10.375 L68.37,10.375 L68.37,11.59 Z M68.355,4.57 L69.12,5.245 C68.22,6.355 67.11,7.33 65.79,8.155 L65.16,7.345 C66.435,6.55 67.5,5.62 68.355,4.57 Z M70.755,7.69 L69.36,7.69 L69.15,6.745 C69.6,6.775 70.02,6.805 70.425,6.805 C70.755,6.805 70.935,6.64 70.935,6.31 L70.935,3.715 L72.015,3.715 L72.015,6.55 C72.015,7.3 71.595,7.69 70.755,7.69 Z M84.9,5.71 L88.215,5.71 C87.945,5.035 87.66,4.42 87.345,3.865 L88.485,3.685 C88.785,4.285 89.055,4.96 89.325,5.71 L92.61,5.71 L92.61,6.775 L84.9,6.775 L84.9,5.71 Z M84.285,16.795 C84.975,16.075 85.455,15.28 85.74,14.44 C85.98,13.69 86.115,12.625 86.115,11.245 L86.115,8.425 L90.87,8.425 L90.87,15.835 C90.87,16.165 91.005,16.345 91.275,16.345 L91.62,16.345 C91.77,16.345 91.905,16.315 92.01,16.285 C92.1,16.255 92.175,16.195 92.22,16.135 C92.31,16 92.355,15.31 92.355,14.05 L93.315,14.35 C93.315,15.205 93.27,15.865 93.21,16.315 C93.15,16.69 93.015,16.96 92.805,17.11 C92.58,17.23 92.235,17.29 91.755,17.29 L91.245,17.29 C90.315,17.29 89.85,16.84 89.85,15.955 L89.85,9.415 L87.135,9.415 L87.135,11.245 C87.135,12.655 86.985,13.81 86.7,14.74 C86.415,15.685 85.875,16.615 85.08,17.515 L84.285,16.795 Z M81.72,3.79 L82.785,3.79 L82.785,6.61 L84.45,6.61 L84.45,7.66 L82.785,7.66 L82.785,8.755 C83.505,9.535 84.255,10.435 85.005,11.425 L84.39,12.34 C83.76,11.335 83.235,10.525 82.785,9.91 L82.785,17.485 L81.72,17.485 L81.72,10.135 C81.27,11.515 80.7,12.775 80.01,13.915 L79.53,12.745 C80.55,11.245 81.285,9.565 81.72,7.675 L81.72,7.66 L79.965,7.66 L79.965,6.61 L81.72,6.61 L81.72,3.79 Z M102.21,4.3 L103.26,4.3 L103.26,17.005 L102.21,17.005 L102.21,4.3 Z M106.35,3.82 L107.385,3.82 L107.385,17.515 L106.35,17.515 L106.35,3.82 Z M100.05,7.705 C100.65,8.845 101.19,10.09 101.655,11.455 L100.785,11.905 C100.305,10.465 99.765,9.19 99.18,8.08 L100.05,7.705 Z M97.995,3.94 L99.03,3.94 L99.03,8.515 C99,12.625 98.04,15.625 96.18,17.515 L95.385,16.81 C97.095,15.085 97.965,12.325 97.995,8.515 L97.995,3.94 Z M104.22,7.57 C104.82,8.68 105.36,9.91 105.81,11.245 L104.94,11.695 C104.46,10.285 103.935,9.025 103.35,7.945 L104.22,7.57 Z M95.85,7.585 C96.48,8.785 97.05,10.105 97.53,11.545 L96.69,11.98 C96.15,10.48 95.565,9.145 94.935,7.975 L95.85,7.585 Z M109.815,5.47 L115.875,5.47 C115.635,4.84 115.365,4.285 115.095,3.775 L116.25,3.595 C116.49,4.15 116.73,4.78 116.97,5.47 L123.105,5.47 L123.105,6.505 L117.015,6.505 L117.015,8.47 L121.89,8.47 L121.89,13.915 C121.89,14.815 121.425,15.28 120.525,15.28 L119.025,15.28 L118.755,14.245 L120.18,14.305 C120.6,14.305 120.81,14.095 120.81,13.675 L120.81,9.505 L117.015,9.505 L117.015,17.47 L115.905,17.47 L115.905,9.505 L112.29,9.505 L112.29,15.385 L111.225,15.385 L111.225,8.47 L115.905,8.47 L115.905,6.505 L109.815,6.505 L109.815,5.47 Z M131.085,3.805 L131.85,3.805 C133.74,5.575 135.93,6.97 138.42,8.005 L137.85,8.995 C135.36,7.915 133.23,6.505 131.46,4.75 C129.84,6.415 127.68,7.855 125.01,9.07 L124.47,8.08 C127.11,6.925 129.315,5.5 131.085,3.805 Z M127.5,7.825 L135.465,7.825 L135.465,8.86 L132.135,8.86 L132.135,10.795 L137.58,10.795 L137.58,11.845 L132.135,11.845 L132.135,15.805 C132.135,16.81 131.61,17.32 130.575,17.32 L128.775,17.32 L128.535,16.3 C129.12,16.33 129.675,16.36 130.215,16.36 C130.785,16.36 131.07,16.075 131.07,15.535 L131.07,11.845 L125.355,11.845 L125.355,10.795 L131.07,10.795 L131.07,8.86 L127.5,8.86 L127.5,7.825 Z M128.265,12.82 L129.21,13.21 C128.355,14.77 127.23,15.955 125.835,16.78 L125.01,16.09 C126.45,15.28 127.53,14.185 128.265,12.82 Z M134.625,12.625 C136.095,13.975 137.235,15.16 138.03,16.165 L137.13,16.795 C136.32,15.7 135.21,14.485 133.8,13.15 L134.625,12.625 Z M144.9,5.71 L148.215,5.71 C147.945,5.035 147.66,4.42 147.345,3.865 L148.485,3.685 C148.785,4.285 149.055,4.96 149.325,5.71 L152.61,5.71 L152.61,6.775 L144.9,6.775 L144.9,5.71 Z M144.285,16.795 C144.975,16.075 145.455,15.28 145.74,14.44 C145.98,13.69 146.115,12.625 146.115,11.245 L146.115,8.425 L150.87,8.425 L150.87,15.835 C150.87,16.165 151.005,16.345 151.275,16.345 L151.62,16.345 C151.77,16.345 151.905,16.315 152.01,16.285 C152.1,16.255 152.175,16.195 152.22,16.135 C152.31,16 152.355,15.31 152.355,14.05 L153.315,14.35 C153.315,15.205 153.27,15.865 153.21,16.315 C153.15,16.69 153.015,16.96 152.805,17.11 C152.58,17.23 152.235,17.29 151.755,17.29 L151.245,17.29 C150.315,17.29 149.85,16.84 149.85,15.955 L149.85,9.415 L147.135,9.415 L147.135,11.245 C147.135,12.655 146.985,13.81 146.7,14.74 C146.415,15.685 145.875,16.615 145.08,17.515 L144.285,16.795 Z M141.72,3.79 L142.785,3.79 L142.785,6.61 L144.45,6.61 L144.45,7.66 L142.785,7.66 L142.785,8.755 C143.505,9.535 144.255,10.435 145.005,11.425 L144.39,12.34 C143.76,11.335 143.235,10.525 142.785,9.91 L142.785,17.485 L141.72,17.485 L141.72,10.135 C141.27,11.515 140.7,12.775 140.01,13.915 L139.53,12.745 C140.55,11.245 141.285,9.565 141.72,7.675 L141.72,7.66 L139.965,7.66 L139.965,6.61 L141.72,6.61 L141.72,3.79 Z M155.01,4.495 L167.34,4.495 L167.34,5.485 L156.93,5.485 L156.93,15.325 C156.93,15.685 157.11,15.88 157.5,15.88 L167.58,15.88 L167.58,16.9 L157.215,16.9 C156.315,16.9 155.88,16.45 155.88,15.565 L155.88,5.485 L155.01,5.485 L155.01,4.495 Z M165.03,6.25 L166.02,6.76 C165.345,8.29 164.565,9.61 163.665,10.75 C164.835,11.845 165.9,12.925 166.845,13.99 L166.02,14.815 C165.135,13.765 164.115,12.685 162.96,11.59 C161.64,13.015 160.125,14.095 158.4,14.845 L157.77,13.87 C159.45,13.18 160.905,12.16 162.135,10.825 C160.92,9.745 159.585,8.635 158.115,7.495 L158.895,6.745 C160.305,7.825 161.625,8.92 162.84,10 C163.68,8.92 164.415,7.66 165.03,6.25 Z M176.07,3.805 L176.85,3.805 C178.71,6.055 180.87,7.825 183.33,9.115 L182.79,10.075 C180.315,8.725 178.2,6.97 176.46,4.78 C174.84,6.85 172.725,8.635 170.085,10.15 L169.545,9.175 C172.155,7.735 174.33,5.95 176.07,3.805 Z M179.055,10.12 L173.79,10.12 L173.79,15.4 C173.79,15.955 174.06,16.24 174.63,16.24 L179.19,16.24 C180.045,16.24 180.57,16.09 180.78,15.79 C180.99,15.46 181.155,14.8 181.26,13.81 L182.265,14.14 C182.115,15.61 181.86,16.495 181.485,16.825 C181.125,17.095 180.465,17.245 179.475,17.245 L174.195,17.245 C173.19,17.245 172.695,16.75 172.695,15.76 L172.695,9.13 L180.135,9.13 L180.135,12.595 C180.12,13.525 179.685,14.02 178.845,14.065 C178.095,14.065 177.375,14.05 176.685,14.02 L176.4,12.985 C177.15,13.045 177.825,13.075 178.455,13.075 C178.845,13.075 179.055,12.805 179.055,12.265 L179.055,10.12 Z M194.085,3.64 L195.135,4 C194.82,4.6 194.475,5.14 194.115,5.62 L198.165,5.62 L198.165,6.67 L184.74,6.67 L184.74,5.62 L188.85,5.62 C188.55,4.99 188.235,4.435 187.875,3.925 L189.015,3.73 C189.345,4.285 189.675,4.915 190.005,5.62 L192.93,5.62 C193.365,4.99 193.755,4.33 194.085,3.64 Z M189.945,17.41 L188.76,17.41 L188.475,16.345 L189.6,16.39 C189.99,16.39 190.185,16.135 190.185,15.64 L190.185,14.245 L186.84,14.245 L186.84,17.53 L185.79,17.53 L185.79,7.885 L191.235,7.885 L191.235,15.88 C191.235,16.9 190.8,17.41 189.945,17.41 Z M186.84,13.285 L190.185,13.285 L190.185,11.575 L186.84,11.575 L186.84,13.285 Z M186.84,10.615 L190.185,10.615 L190.185,8.89 L186.84,8.89 L186.84,10.615 Z M195.78,17.365 L193.785,17.365 L193.56,16.33 C194.19,16.375 194.805,16.405 195.405,16.405 C195.825,16.405 196.035,16.165 196.035,15.715 L196.035,7.465 L197.115,7.465 L197.115,15.985 C197.115,16.9 196.665,17.365 195.78,17.365 Z M192.915,8.59 L193.965,8.59 L193.965,15.055 L192.915,15.055 L192.915,8.59 Z M203.67,5.92 L205.71,5.92 L205.71,3.94 L206.745,3.94 L206.745,5.92 L208.83,5.92 L208.83,6.88 L206.745,6.88 L206.745,8.905 L209.145,8.905 L209.145,8.26 L213.39,8.26 L213.39,9.25 L211.965,9.25 L211.965,16.015 C211.965,16.945 211.56,17.41 210.765,17.41 L208.995,17.41 L208.77,16.405 C209.34,16.45 209.895,16.48 210.42,16.48 C210.75,16.48 210.915,16.24 210.915,15.76 L210.915,9.25 L209.205,9.25 L209.205,9.865 L203.37,9.865 L203.37,8.905 L205.71,8.905 L205.71,6.88 L203.67,6.88 L203.67,5.92 Z M203.58,11.92 L205.695,11.92 L205.695,10.435 L206.73,10.435 L206.73,11.92 L208.905,11.92 L208.905,12.88 L206.73,12.88 L206.73,14.995 C207.615,14.845 208.485,14.665 209.34,14.485 L209.34,15.445 C207.48,15.895 205.485,16.255 203.34,16.555 L203.085,15.52 C203.97,15.43 204.84,15.31 205.695,15.175 L205.695,12.88 L203.58,12.88 L203.58,11.92 Z M202.155,3.64 L203.085,4.06 C202.395,5.755 201.3,7.255 199.77,8.56 L199.455,7.54 C200.7,6.4 201.6,5.11 202.155,3.64 Z M202.545,7.54 L203.415,7.945 C203.085,8.755 202.68,9.52 202.17,10.24 L202.17,17.455 L201.195,17.455 L201.195,11.44 C200.805,11.875 200.37,12.295 199.905,12.685 L199.59,11.695 C200.94,10.48 201.915,9.1 202.545,7.54 Z M209.4,4.765 L213.12,4.765 L213.12,5.74 L209.4,5.74 L209.4,4.765 Z M218.91,5.485 L221.4,5.485 C221.145,5.005 220.83,4.54 220.455,4.105 L221.46,3.73 C221.835,4.225 222.18,4.81 222.495,5.485 L224.385,5.485 C224.805,4.915 225.165,4.3 225.48,3.67 L226.5,4.015 C226.215,4.555 225.9,5.05 225.555,5.485 L228.135,5.485 L228.135,6.46 L223.86,6.46 C223.74,6.88 223.605,7.27 223.44,7.66 L227.01,7.66 L227.01,14.995 L220.095,14.995 L220.095,7.66 L222.3,7.66 C222.48,7.27 222.615,6.865 222.705,6.46 L218.91,6.46 L218.91,5.485 Z M226.005,14.05 L226.005,12.79 L221.1,12.79 L221.1,14.05 L226.005,14.05 Z M221.1,11.935 L226.005,11.935 L226.005,10.705 L221.1,10.705 L221.1,11.935 Z M221.1,9.85 L226.005,9.85 L226.005,8.62 L221.1,8.62 L221.1,9.85 Z M215.88,3.895 C216.78,4.615 217.56,5.32 218.19,6.04 L217.485,6.745 C216.915,6.07 216.15,5.35 215.175,4.57 L215.88,3.895 Z M214.8,7.495 L218.25,7.495 L218.25,8.35 C217.71,9.235 217.11,10.09 216.42,10.93 L218.43,10.93 L218.43,11.65 C218.22,12.835 217.95,13.825 217.62,14.635 C217.74,14.725 217.875,14.83 218.01,14.95 C218.49,15.4 218.97,15.745 219.48,15.97 C219.975,16.165 220.665,16.27 221.535,16.285 C222.375,16.285 223.32,16.3 224.4,16.3 C225.405,16.3 226.71,16.27 228.33,16.225 L228.09,17.26 L224.535,17.26 C223.38,17.26 222.36,17.245 221.475,17.215 C220.425,17.185 219.63,17.05 219.09,16.825 C218.46,16.555 217.875,16.165 217.365,15.625 C217.245,15.52 217.11,15.475 216.99,15.475 C216.615,15.475 216.09,16.135 215.4,17.47 L214.605,16.765 C215.31,15.415 215.985,14.65 216.63,14.47 C216.96,13.705 217.215,12.835 217.41,11.845 L215.145,11.845 L215.145,11.02 C215.895,10.165 216.54,9.325 217.05,8.485 L214.8,8.485 L214.8,7.495 Z M236.07,3.805 L236.85,3.805 C238.71,6.055 240.87,7.825 243.33,9.115 L242.79,10.075 C240.315,8.725 238.2,6.97 236.46,4.78 C234.84,6.85 232.725,8.635 230.085,10.15 L229.545,9.175 C232.155,7.735 234.33,5.95 236.07,3.805 Z M239.055,10.12 L233.79,10.12 L233.79,15.4 C233.79,15.955 234.06,16.24 234.63,16.24 L239.19,16.24 C240.045,16.24 240.57,16.09 240.78,15.79 C240.99,15.46 241.155,14.8 241.26,13.81 L242.265,14.14 C242.115,15.61 241.86,16.495 241.485,16.825 C241.125,17.095 240.465,17.245 239.475,17.245 L234.195,17.245 C233.19,17.245 232.695,16.75 232.695,15.76 L232.695,9.13 L240.135,9.13 L240.135,12.595 C240.12,13.525 239.685,14.02 238.845,14.065 C238.095,14.065 237.375,14.05 236.685,14.02 L236.4,12.985 C237.15,13.045 237.825,13.075 238.455,13.075 C238.845,13.075 239.055,12.805 239.055,12.265 L239.055,10.12 Z M244.665,10.525 L253.05,10.525 C254.16,8.485 255.075,6.25 255.825,3.82 L256.905,4.195 C256.035,6.775 255.12,8.875 254.19,10.525 L258.255,10.525 L258.255,11.575 L244.665,11.575 L244.665,10.525 Z M246.63,4.69 C247.38,6.025 248.085,7.495 248.745,9.085 L247.725,9.595 C247.065,7.945 246.375,6.46 245.625,5.17 L246.63,4.69 Z M250.275,3.82 C251.01,5.23 251.7,6.79 252.33,8.47 L251.34,8.965 C250.68,7.24 249.99,5.68 249.255,4.3 L250.275,3.82 Z M248.775,12.4 L249.735,12.88 C248.715,14.605 247.485,16.09 246.075,17.35 L245.19,16.72 C246.585,15.52 247.785,14.08 248.775,12.4 Z M254.22,12.34 C255.735,13.99 256.89,15.43 257.7,16.645 L256.74,17.32 C255.9,16 254.76,14.53 253.32,12.91 L254.22,12.34 Z M263.67,5.92 L265.71,5.92 L265.71,3.94 L266.745,3.94 L266.745,5.92 L268.83,5.92 L268.83,6.88 L266.745,6.88 L266.745,8.905 L269.145,8.905 L269.145,8.26 L273.39,8.26 L273.39,9.25 L271.965,9.25 L271.965,16.015 C271.965,16.945 271.56,17.41 270.765,17.41 L268.995,17.41 L268.77,16.405 C269.34,16.45 269.895,16.48 270.42,16.48 C270.75,16.48 270.915,16.24 270.915,15.76 L270.915,9.25 L269.205,9.25 L269.205,9.865 L263.37,9.865 L263.37,8.905 L265.71,8.905 L265.71,6.88 L263.67,6.88 L263.67,5.92 Z M263.58,11.92 L265.695,11.92 L265.695,10.435 L266.73,10.435 L266.73,11.92 L268.905,11.92 L268.905,12.88 L266.73,12.88 L266.73,14.995 C267.615,14.845 268.485,14.665 269.34,14.485 L269.34,15.445 C267.48,15.895 265.485,16.255 263.34,16.555 L263.085,15.52 C263.97,15.43 264.84,15.31 265.695,15.175 L265.695,12.88 L263.58,12.88 L263.58,11.92 Z M262.155,3.64 L263.085,4.06 C262.395,5.755 261.3,7.255 259.77,8.56 L259.455,7.54 C260.7,6.4 261.6,5.11 262.155,3.64 Z M262.545,7.54 L263.415,7.945 C263.085,8.755 262.68,9.52 262.17,10.24 L262.17,17.455 L261.195,17.455 L261.195,11.44 C260.805,11.875 260.37,12.295 259.905,12.685 L259.59,11.695 C260.94,10.48 261.915,9.1 262.545,7.54 Z M269.4,4.765 L273.12,4.765 L273.12,5.74 L269.4,5.74 L269.4,4.765 Z M277.41,5.29 L278.37,5.29 L278.37,16 L277.14,16 L277.14,6.79 C276.465,7.48 275.625,7.96 274.62,8.26 L274.62,7.03 C275.1,6.895 275.61,6.685 276.12,6.385 C276.63,6.055 277.05,5.695 277.41,5.29 Z M283.08,4.285 L291.87,4.285 L291.87,8.335 L283.08,8.335 L283.08,4.285 Z M290.76,7.36 L290.76,5.26 L284.19,5.26 L284.19,7.36 L290.76,7.36 Z M284.16,10.66 L280.725,10.66 L280.725,9.625 L294.21,9.625 L294.21,10.66 L285.255,10.66 L284.745,12.415 L292.08,12.415 C291.99,14.815 291.75,16.255 291.39,16.72 C291.03,17.17 290.34,17.395 289.32,17.395 C288.57,17.395 287.91,17.365 287.325,17.305 L286.965,16.315 C287.76,16.375 288.465,16.405 289.08,16.405 C289.89,16.405 290.385,16.24 290.58,15.91 C290.76,15.58 290.895,14.74 290.985,13.39 L283.455,13.39 L284.16,10.66 Z M299.475,5.08 C300.585,5.08 301.47,5.365 302.1,5.95 C302.67,6.475 302.97,7.135 302.97,7.915 C302.97,8.485 302.835,8.965 302.565,9.355 C302.265,9.775 301.845,10.09 301.29,10.285 L301.29,10.315 C301.845,10.45 302.325,10.765 302.715,11.245 C303.135,11.755 303.345,12.355 303.345,13.045 C303.345,13.99 303.015,14.755 302.355,15.325 C301.665,15.91 300.705,16.21 299.475,16.21 C298.23,16.21 297.27,15.91 296.595,15.325 C295.935,14.755 295.605,13.99 295.605,13.045 C295.605,12.355 295.815,11.755 296.235,11.245 C296.625,10.765 297.09,10.45 297.66,10.315 L297.66,10.285 C297.09,10.09 296.67,9.775 296.385,9.355 C296.115,8.965 295.98,8.485 295.98,7.915 C295.98,7.135 296.265,6.475 296.85,5.95 C297.48,5.365 298.35,5.08 299.475,5.08 Z M299.475,6.085 C298.71,6.085 298.11,6.28 297.69,6.67 C297.315,7 297.135,7.435 297.135,7.96 C297.135,8.5 297.3,8.95 297.63,9.28 C298.02,9.67 298.635,9.88 299.475,9.88 C300.3,9.88 300.915,9.67 301.32,9.28 C301.65,8.95 301.815,8.5 301.815,7.96 C301.815,7.435 301.62,7 301.26,6.67 C300.825,6.28 300.225,6.085 299.475,6.085 Z M299.475,10.84 C298.605,10.84 297.945,11.05 297.48,11.485 C297.03,11.875 296.82,12.4 296.82,13.045 C296.82,13.675 297.03,14.2 297.48,14.59 C297.93,14.995 298.605,15.205 299.475,15.205 C300.345,15.205 301.005,14.995 301.485,14.575 C301.905,14.185 302.13,13.675 302.13,13.045 C302.13,12.4 301.905,11.875 301.485,11.485 C301.005,11.05 300.33,10.84 299.475,10.84 Z M308.76,14.995 L307.95,14.995 L307.95,17.38 L306.975,17.38 L306.975,7.27 L305.925,7.27 L305.925,15.265 L305.085,15.265 L305.085,6.31 L306.975,6.31 L306.975,3.865 L307.95,3.865 L307.95,6.31 L309.87,6.31 L309.87,13.735 C309.87,14.575 309.495,14.995 308.76,14.995 Z M307.95,7.27 L307.95,14.155 L308.475,14.185 C308.835,14.185 309.015,13.975 309.015,13.57 L309.015,7.27 L307.95,7.27 Z M310.725,4.915 L313.62,4.915 C313.44,4.525 313.23,4.165 313.02,3.835 L314.1,3.655 C314.295,4.03 314.475,4.45 314.655,4.915 L317.7,4.915 L317.7,5.785 L316.575,5.785 L316.17,7.345 L318.045,7.345 L318.045,8.23 L310.485,8.23 L310.485,7.345 L312.27,7.345 L311.865,5.785 L310.725,5.785 L310.725,4.915 Z M313.26,7.345 L315.18,7.345 L315.585,5.785 L312.84,5.785 L313.26,7.345 Z M311.025,9.1 L317.385,9.1 L317.385,13.39 L314.685,13.39 L314.685,14.335 L317.775,14.335 L317.775,15.175 L314.685,15.175 L314.685,16.195 L318.27,16.195 L318.27,17.08 L310.245,17.08 L310.245,16.195 L313.74,16.195 L313.74,15.175 L310.71,15.175 L310.71,14.335 L313.74,14.335 L313.74,13.39 L311.025,13.39 L311.025,9.1 Z M316.44,12.625 L316.44,11.635 L314.685,11.635 L314.685,12.625 L316.44,12.625 Z M313.74,12.625 L313.74,11.635 L311.97,11.635 L311.97,12.625 L313.74,12.625 Z M311.97,10.885 L313.74,10.885 L313.74,9.865 L311.97,9.865 L311.97,10.885 Z M314.685,9.865 L314.685,10.885 L316.44,10.885 L316.44,9.865 L314.685,9.865 Z M324.675,5.08 C325.86,5.08 326.865,5.395 327.675,6.025 C328.485,6.655 328.965,7.51 329.115,8.575 L327.93,8.575 C327.78,7.795 327.39,7.195 326.79,6.775 C326.205,6.37 325.5,6.175 324.66,6.175 C323.415,6.175 322.455,6.61 321.78,7.48 C321.15,8.29 320.835,9.355 320.835,10.69 C320.835,12.025 321.135,13.09 321.765,13.87 C322.425,14.695 323.37,15.115 324.63,15.115 C325.485,15.115 326.205,14.89 326.805,14.44 C327.435,13.96 327.87,13.255 328.08,12.325 L329.265,12.325 C329.025,13.57 328.47,14.545 327.585,15.235 C326.76,15.88 325.77,16.21 324.63,16.21 C322.965,16.21 321.69,15.655 320.805,14.56 C319.995,13.57 319.605,12.28 319.605,10.69 C319.605,9.1 320.01,7.795 320.835,6.775 C321.735,5.635 323.025,5.08 324.675,5.08 Z M333.93,13 L337.935,13 L337.935,6.745 L339,6.745 L339,13 L343.305,13 L343.305,14.005 L339,14.005 L339,16.105 L344.055,16.105 L344.055,17.14 L333.09,17.14 L333.09,16.105 L337.935,16.105 L337.935,14.005 L333.93,14.005 L333.93,13 Z M341.52,9.805 C341.13,10.795 340.665,11.62 340.095,12.31 L339.435,11.485 C340.35,10.345 340.965,8.815 341.295,6.865 L342.27,7.045 C342.135,7.765 341.97,8.41 341.79,9.01 C342.495,9.715 343.2,10.495 343.905,11.335 L343.305,12.25 C342.6,11.185 342,10.375 341.52,9.805 Z M335.505,9.94 C335.1,10.9 334.605,11.725 334.02,12.4 L333.36,11.575 C334.32,10.42 334.965,8.86 335.31,6.895 L336.315,7.075 C336.165,7.825 336,8.515 335.79,9.145 C336.39,9.745 336.945,10.435 337.455,11.215 L336.855,12.145 C336.405,11.26 335.955,10.525 335.505,9.94 Z M343.92,5.005 L343.92,6.055 L332.94,6.055 L332.94,9.64 C332.88,12.91 332.325,15.52 331.245,17.485 L330.435,16.765 C331.335,15.055 331.815,12.685 331.86,9.64 L331.86,5.005 L337.395,5.005 C337.215,4.555 337.02,4.135 336.81,3.745 L337.95,3.565 C338.13,3.985 338.31,4.465 338.49,5.005 L343.92,5.005 Z M349.545,5.08 C350.535,5.08 351.345,5.365 351.99,5.935 C352.62,6.505 352.95,7.27 352.95,8.2 C352.95,9.13 352.59,9.97 351.9,10.72 C351.525,11.11 350.79,11.695 349.68,12.445 C348.315,13.36 347.535,14.185 347.34,14.905 L352.965,14.905 L352.965,16 L345.825,16 C345.825,15.025 346.17,14.14 346.89,13.345 C347.31,12.865 348.075,12.22 349.215,11.44 C350.055,10.84 350.61,10.405 350.895,10.105 C351.435,9.52 351.72,8.875 351.72,8.185 C351.72,7.525 351.525,7.03 351.135,6.67 C350.745,6.31 350.19,6.13 349.5,6.13 C348.765,6.13 348.195,6.37 347.805,6.88 C347.385,7.36 347.16,8.08 347.145,9.025 L345.915,9.025 C345.915,7.825 346.26,6.865 346.92,6.16 C347.58,5.44 348.465,5.08 349.545,5.08 Z M358.395,5.08 C359.67,5.08 360.63,5.635 361.29,6.775 C361.86,7.735 362.145,9.025 362.145,10.645 C362.145,12.265 361.86,13.555 361.29,14.515 C360.63,15.64 359.67,16.21 358.395,16.21 C357.105,16.21 356.145,15.64 355.5,14.515 C354.93,13.555 354.645,12.265 354.645,10.645 C354.645,9.025 354.93,7.735 355.5,6.775 C356.145,5.635 357.105,5.08 358.395,5.08 Z M358.395,6.13 C357.435,6.13 356.745,6.64 356.325,7.675 C356.025,8.395 355.875,9.385 355.875,10.645 C355.875,11.89 356.025,12.88 356.325,13.615 C356.745,14.635 357.435,15.16 358.395,15.16 C359.355,15.16 360.045,14.635 360.465,13.615 C360.765,12.88 360.93,11.89 360.93,10.645 C360.93,9.385 360.765,8.395 360.465,7.675 C360.045,6.64 359.355,6.13 358.395,6.13 Z M366.345,5.29 L367.305,5.29 L367.305,16 L366.075,16 L366.075,6.79 C365.4,7.48 364.56,7.96 363.555,8.26 L363.555,7.03 C364.035,6.895 364.545,6.685 365.055,6.385 C365.565,6.055 365.985,5.695 366.345,5.29 Z M371.445,7.585 L381.375,7.585 L381.375,8.575 L375.135,8.575 C374.355,9.625 373.68,10.375 373.095,10.855 C375.21,10.765 377.325,10.66 379.44,10.51 C379.02,10.09 378.585,9.685 378.135,9.28 L378.825,8.62 C380.055,9.64 381.09,10.66 381.93,11.665 L381.15,12.46 C380.88,12.085 380.565,11.71 380.235,11.35 C379.17,11.425 378.075,11.5 376.965,11.56 L376.965,13.24 L381.75,13.24 L381.75,14.245 L376.965,14.245 L376.965,16.12 L382.92,16.12 L382.92,17.14 L369.9,17.14 L369.9,16.12 L375.855,16.12 L375.855,14.245 L371.1,14.245 L371.1,13.24 L375.855,13.24 L375.855,11.62 C374.445,11.695 373.005,11.755 371.535,11.815 L371.295,10.885 C371.385,10.855 371.46,10.81 371.52,10.78 C372.135,10.51 372.93,9.775 373.905,8.575 L371.445,8.575 L371.445,7.585 Z M376.35,3.61 C376.59,4.06 376.83,4.585 377.07,5.155 L382.68,5.155 L382.68,8.065 L381.585,8.065 L381.585,6.175 L371.235,6.175 L371.235,8.065 L370.14,8.065 L370.14,5.155 L375.9,5.155 C375.675,4.675 375.42,4.225 375.15,3.82 L376.35,3.61 Z" id="地址:浙江省杭州市余杭区仓前街道仓兴街1"></path>
                        <path d="M407.015,10.045 L407.015,12.295 L410.705,12.295 L410.705,10.045 L407.015,10.045 Z M410.705,13.3 L407.015,13.3 L407.015,14.575 L405.935,14.575 L405.935,5.83 L410.705,5.83 L410.705,3.775 L411.8,3.775 L411.8,5.83 L416.66,5.83 L416.66,13.3 L411.8,13.3 L411.8,15.145 C411.8,15.88 412.13,16.255 412.79,16.255 L416.21,16.255 C416.585,16.255 416.855,16.165 417.035,16 C417.185,15.82 417.29,15.235 417.35,14.215 L418.37,14.56 C418.28,15.835 418.115,16.615 417.845,16.885 C417.575,17.14 417.095,17.275 416.39,17.275 L412.535,17.275 C411.305,17.275 410.705,16.615 410.705,15.31 L410.705,13.3 Z M411.8,12.295 L415.595,12.295 L415.595,10.045 L411.8,10.045 L411.8,12.295 Z M415.595,9.055 L415.595,6.85 L411.8,6.85 L411.8,9.055 L415.595,9.055 Z M410.705,6.85 L407.015,6.85 L407.015,9.055 L410.705,9.055 L410.705,6.85 Z M424.4,8.125 L428.51,8.125 L428.51,5.755 C427.43,5.86 426.26,5.92 425.015,5.92 L424.7,4.945 C427.805,4.945 430.385,4.6 432.425,3.91 L432.95,4.825 C431.99,5.17 430.865,5.44 429.605,5.62 L429.605,8.125 L433.475,8.125 L433.475,9.175 L429.605,9.175 L429.605,11.59 L432.455,11.59 L432.455,17.455 L431.375,17.455 L431.375,16.705 L426.77,16.705 L426.77,17.455 L425.705,17.455 L425.705,11.59 L428.51,11.59 L428.51,9.175 L424.4,9.175 L424.4,8.125 Z M426.77,15.685 L431.375,15.685 L431.375,12.565 L426.77,12.565 L426.77,15.685 Z M421.43,3.895 C422.45,4.66 423.305,5.425 423.995,6.205 L423.26,6.955 C422.63,6.22 421.76,5.44 420.68,4.63 L421.43,3.895 Z M419.63,8.335 L422.87,8.335 L422.87,15.025 C423.38,14.605 423.95,14.095 424.55,13.51 L424.835,14.65 C423.935,15.52 422.96,16.285 421.925,16.96 L421.505,16 C421.715,15.805 421.835,15.595 421.835,15.37 L421.835,9.37 L419.63,9.37 L419.63,8.335 Z M441.5,6.865 C441.755,6.865 441.98,6.955 442.16,7.15 C442.34,7.315 442.43,7.525 442.43,7.795 C442.43,8.05 442.34,8.26 442.16,8.44 C441.98,8.62 441.755,8.71 441.5,8.71 C441.23,8.71 441.02,8.62 440.84,8.44 C440.66,8.26 440.585,8.05 440.585,7.795 C440.585,7.525 440.66,7.315 440.84,7.15 C441.02,6.955 441.23,6.865 441.5,6.865 Z M441.5,12.355 C441.755,12.355 441.98,12.445 442.16,12.64 C442.34,12.805 442.43,13.015 442.43,13.285 C442.43,13.54 442.34,13.75 442.16,13.93 C441.98,14.11 441.755,14.2 441.5,14.2 C441.23,14.2 441.02,14.11 440.84,13.93 C440.66,13.75 440.585,13.54 440.585,13.285 C440.585,13.015 440.66,12.805 440.84,12.64 C441.02,12.445 441.23,12.355 441.5,12.355 Z M452.45,5.29 L453.41,5.29 L453.41,16 L452.18,16 L452.18,6.79 C451.505,7.48 450.665,7.96 449.66,8.26 L449.66,7.03 C450.14,6.895 450.65,6.685 451.16,6.385 C451.67,6.055 452.09,5.695 452.45,5.29 Z M459.515,5.08 C460.625,5.08 461.51,5.365 462.14,5.95 C462.71,6.475 463.01,7.135 463.01,7.915 C463.01,8.485 462.875,8.965 462.605,9.355 C462.305,9.775 461.885,10.09 461.33,10.285 L461.33,10.315 C461.885,10.45 462.365,10.765 462.755,11.245 C463.175,11.755 463.385,12.355 463.385,13.045 C463.385,13.99 463.055,14.755 462.395,15.325 C461.705,15.91 460.745,16.21 459.515,16.21 C458.27,16.21 457.31,15.91 456.635,15.325 C455.975,14.755 455.645,13.99 455.645,13.045 C455.645,12.355 455.855,11.755 456.275,11.245 C456.665,10.765 457.13,10.45 457.7,10.315 L457.7,10.285 C457.13,10.09 456.71,9.775 456.425,9.355 C456.155,8.965 456.02,8.485 456.02,7.915 C456.02,7.135 456.305,6.475 456.89,5.95 C457.52,5.365 458.39,5.08 459.515,5.08 Z M459.515,6.085 C458.75,6.085 458.15,6.28 457.73,6.67 C457.355,7 457.175,7.435 457.175,7.96 C457.175,8.5 457.34,8.95 457.67,9.28 C458.06,9.67 458.675,9.88 459.515,9.88 C460.34,9.88 460.955,9.67 461.36,9.28 C461.69,8.95 461.855,8.5 461.855,7.96 C461.855,7.435 461.66,7 461.3,6.67 C460.865,6.28 460.265,6.085 459.515,6.085 Z M459.515,10.84 C458.645,10.84 457.985,11.05 457.52,11.485 C457.07,11.875 456.86,12.4 456.86,13.045 C456.86,13.675 457.07,14.2 457.52,14.59 C457.97,14.995 458.645,15.205 459.515,15.205 C460.385,15.205 461.045,14.995 461.525,14.575 C461.945,14.185 462.17,13.675 462.17,13.045 C462.17,12.4 461.945,11.875 461.525,11.485 C461.045,11.05 460.37,10.84 459.515,10.84 Z M468.515,5.08 C469.79,5.08 470.75,5.635 471.41,6.775 C471.98,7.735 472.265,9.025 472.265,10.645 C472.265,12.265 471.98,13.555 471.41,14.515 C470.75,15.64 469.79,16.21 468.515,16.21 C467.225,16.21 466.265,15.64 465.62,14.515 C465.05,13.555 464.765,12.265 464.765,10.645 C464.765,9.025 465.05,7.735 465.62,6.775 C466.265,5.635 467.225,5.08 468.515,5.08 Z M468.515,6.13 C467.555,6.13 466.865,6.64 466.445,7.675 C466.145,8.395 465.995,9.385 465.995,10.645 C465.995,11.89 466.145,12.88 466.445,13.615 C466.865,14.635 467.555,15.16 468.515,15.16 C469.475,15.16 470.165,14.635 470.585,13.615 C470.885,12.88 471.05,11.89 471.05,10.645 C471.05,9.385 470.885,8.395 470.585,7.675 C470.165,6.64 469.475,6.13 468.515,6.13 Z M473.525,5.29 L480.56,5.29 L480.56,6.295 L476.615,16 L475.31,16 L479.3,6.415 L473.525,6.415 L473.525,5.29 Z M485.87,5.08 C486.86,5.08 487.67,5.365 488.315,5.935 C488.945,6.505 489.275,7.27 489.275,8.2 C489.275,9.13 488.915,9.97 488.225,10.72 C487.85,11.11 487.115,11.695 486.005,12.445 C484.64,13.36 483.86,14.185 483.665,14.905 L489.29,14.905 L489.29,16 L482.15,16 C482.15,15.025 482.495,14.14 483.215,13.345 C483.635,12.865 484.4,12.22 485.54,11.44 C486.38,10.84 486.935,10.405 487.22,10.105 C487.76,9.52 488.045,8.875 488.045,8.185 C488.045,7.525 487.85,7.03 487.46,6.67 C487.07,6.31 486.515,6.13 485.825,6.13 C485.09,6.13 484.52,6.37 484.13,6.88 C483.71,7.36 483.485,8.08 483.47,9.025 L482.24,9.025 C482.24,7.825 482.585,6.865 483.245,6.16 C483.905,5.44 484.79,5.08 485.87,5.08 Z M490.73,5.29 L497.765,5.29 L497.765,6.295 L493.82,16 L492.515,16 L496.505,6.415 L490.73,6.415 L490.73,5.29 Z M498.935,5.29 L505.97,5.29 L505.97,6.295 L502.025,16 L500.72,16 L504.71,6.415 L498.935,6.415 L498.935,5.29 Z M511.28,5.08 C513.26,5.08 514.4,6.025 514.7,7.945 L513.485,7.945 C513.245,6.715 512.51,6.115 511.265,6.115 C510.425,6.115 509.765,6.52 509.285,7.36 C508.805,8.14 508.58,9.145 508.58,10.36 C508.58,10.42 508.58,10.555 508.595,10.75 L508.655,10.75 C508.925,10.195 509.3,9.76 509.81,9.46 C510.29,9.145 510.845,8.995 511.475,8.995 C512.495,8.995 513.32,9.325 513.95,9.985 C514.565,10.645 514.88,11.485 514.88,12.535 C514.88,13.585 514.535,14.47 513.86,15.16 C513.17,15.85 512.315,16.21 511.265,16.21 C509.96,16.21 508.985,15.715 508.325,14.755 C507.695,13.84 507.395,12.565 507.395,10.93 C507.395,9.22 507.725,7.825 508.4,6.76 C509.105,5.635 510.065,5.08 511.28,5.08 Z M511.235,10.015 C510.53,10.015 509.945,10.255 509.48,10.735 C509.015,11.215 508.79,11.815 508.79,12.565 C508.79,13.315 509,13.93 509.45,14.41 C509.9,14.92 510.485,15.175 511.235,15.175 C511.955,15.175 512.54,14.92 512.99,14.44 C513.44,13.93 513.665,13.3 513.665,12.535 C513.665,11.77 513.44,11.17 513.005,10.72 C512.555,10.24 511.97,10.015 511.235,10.015 Z M519.08,5.29 L520.04,5.29 L520.04,16 L518.81,16 L518.81,6.79 C518.135,7.48 517.295,7.96 516.29,8.26 L516.29,7.03 C516.77,6.895 517.28,6.685 517.79,6.385 C518.3,6.055 518.72,5.695 519.08,5.29 Z M526.145,5.08 C527.255,5.08 528.14,5.365 528.77,5.95 C529.34,6.475 529.64,7.135 529.64,7.915 C529.64,8.485 529.505,8.965 529.235,9.355 C528.935,9.775 528.515,10.09 527.96,10.285 L527.96,10.315 C528.515,10.45 528.995,10.765 529.385,11.245 C529.805,11.755 530.015,12.355 530.015,13.045 C530.015,13.99 529.685,14.755 529.025,15.325 C528.335,15.91 527.375,16.21 526.145,16.21 C524.9,16.21 523.94,15.91 523.265,15.325 C522.605,14.755 522.275,13.99 522.275,13.045 C522.275,12.355 522.485,11.755 522.905,11.245 C523.295,10.765 523.76,10.45 524.33,10.315 L524.33,10.285 C523.76,10.09 523.34,9.775 523.055,9.355 C522.785,8.965 522.65,8.485 522.65,7.915 C522.65,7.135 522.935,6.475 523.52,5.95 C524.15,5.365 525.02,5.08 526.145,5.08 Z M526.145,6.085 C525.38,6.085 524.78,6.28 524.36,6.67 C523.985,7 523.805,7.435 523.805,7.96 C523.805,8.5 523.97,8.95 524.3,9.28 C524.69,9.67 525.305,9.88 526.145,9.88 C526.97,9.88 527.585,9.67 527.99,9.28 C528.32,8.95 528.485,8.5 528.485,7.96 C528.485,7.435 528.29,7 527.93,6.67 C527.495,6.28 526.895,6.085 526.145,6.085 Z M526.145,10.84 C525.275,10.84 524.615,11.05 524.15,11.485 C523.7,11.875 523.49,12.4 523.49,13.045 C523.49,13.675 523.7,14.2 524.15,14.59 C524.6,14.995 525.275,15.205 526.145,15.205 C527.015,15.205 527.675,14.995 528.155,14.575 C528.575,14.185 528.8,13.675 528.8,13.045 C528.8,12.4 528.575,11.875 528.155,11.485 C527.675,11.05 527,10.84 526.145,10.84 Z M535.145,5.08 C536.42,5.08 537.38,5.635 538.04,6.775 C538.61,7.735 538.895,9.025 538.895,10.645 C538.895,12.265 538.61,13.555 538.04,14.515 C537.38,15.64 536.42,16.21 535.145,16.21 C533.855,16.21 532.895,15.64 532.25,14.515 C531.68,13.555 531.395,12.265 531.395,10.645 C531.395,9.025 531.68,7.735 532.25,6.775 C532.895,5.635 533.855,5.08 535.145,5.08 Z M535.145,6.13 C534.185,6.13 533.495,6.64 533.075,7.675 C532.775,8.395 532.625,9.385 532.625,10.645 C532.625,11.89 532.775,12.88 533.075,13.615 C533.495,14.635 534.185,15.16 535.145,15.16 C536.105,15.16 536.795,14.635 537.215,13.615 C537.515,12.88 537.68,11.89 537.68,10.645 C537.68,9.385 537.515,8.395 537.215,7.675 C536.795,6.64 536.105,6.13 535.145,6.13 Z" id="电话：18072776180"></path>
                        <path d="M567.785,5.86 L567.785,16.84 L566.765,16.84 L566.765,15.895 L562.205,15.895 L562.205,16.84 L561.185,16.84 L561.185,5.86 L563.96,5.86 L563.96,3.685 L565.01,3.685 L565.01,5.86 L567.785,5.86 Z M562.205,14.92 L563.96,14.92 L563.96,11.245 L562.205,11.245 L562.205,14.92 Z M565.01,14.92 L566.765,14.92 L566.765,11.245 L565.01,11.245 L565.01,14.92 Z M562.205,10.285 L563.96,10.285 L563.96,6.85 L562.205,6.85 L562.205,10.285 Z M565.01,6.85 L565.01,10.285 L566.765,10.285 L566.765,6.85 L565.01,6.85 Z M569.045,4.555 L573.845,4.555 L573.845,5.35 C573.395,6.925 572.915,8.38 572.39,9.715 C573.425,11.215 573.95,12.445 573.965,13.405 C573.965,14.185 573.77,14.725 573.41,15.04 C573.02,15.355 572.24,15.52 571.07,15.52 L570.755,14.425 C571.145,14.47 571.475,14.5 571.745,14.5 C572.255,14.47 572.585,14.395 572.735,14.245 C572.87,14.095 572.945,13.825 572.96,13.405 C572.945,12.475 572.39,11.245 571.31,9.715 C571.79,8.53 572.27,7.135 572.735,5.53 L570.08,5.53 L570.08,17.515 L569.045,17.515 L569.045,4.555 Z M579.53,14.32 L579.53,15.31 C578.48,15.865 577.28,16.315 575.945,16.645 L575.81,15.595 C577.22,15.28 578.465,14.86 579.53,14.32 Z M578,3.715 L579.005,4.105 C578.3,6.01 577.58,7.525 576.86,8.65 C577.505,8.56 578.15,8.455 578.78,8.32 C579.02,7.84 579.29,7.33 579.56,6.79 L580.505,7.135 C579.245,9.565 578.195,11.29 577.385,12.31 C578.255,12.13 579.11,11.875 579.98,11.575 L579.98,12.535 C578.63,12.985 577.355,13.3 576.125,13.48 L575.825,12.505 C576.02,12.43 576.185,12.325 576.32,12.205 C576.86,11.635 577.505,10.66 578.27,9.28 C577.475,9.445 576.68,9.58 575.885,9.7 L575.615,8.725 C575.78,8.665 575.93,8.53 576.05,8.335 C576.8,6.985 577.46,5.455 578,3.715 Z M587.81,17.455 L587.165,17.455 L586.925,16.615 L587.525,16.645 C587.795,16.645 587.93,16.495 587.93,16.195 L587.93,14.17 L586.73,14.17 L586.73,17.245 L585.935,17.245 L585.935,14.17 L584.84,14.17 L584.84,17.245 L584.045,17.245 L584.045,14.17 L582.86,14.17 L582.86,17.515 L581.975,17.515 L581.975,10.375 L588.83,10.375 L588.83,16.405 C588.83,17.095 588.485,17.455 587.81,17.455 Z M582.86,13.27 L584.045,13.27 L584.045,11.305 L582.86,11.305 L582.86,13.27 Z M584.84,11.305 L584.84,13.27 L585.935,13.27 L585.935,11.305 L584.84,11.305 Z M586.73,11.305 L586.73,13.27 L587.93,13.27 L587.93,11.305 L586.73,11.305 Z M587.78,6.22 L581.93,6.22 L581.93,8.14 L587.78,8.14 L587.78,6.22 Z M581.93,9.07 C581.885,12.34 581.21,15.145 579.89,17.485 L579.11,16.795 C580.31,14.755 580.91,12.13 580.925,8.905 L580.925,5.26 L584.345,5.26 C584.15,4.75 583.94,4.27 583.7,3.85 L584.825,3.67 C585.02,4.135 585.215,4.66 585.395,5.26 L588.77,5.26 L588.77,9.07 L581.93,9.07 Z M597.5,6.865 C597.755,6.865 597.98,6.955 598.16,7.15 C598.34,7.315 598.43,7.525 598.43,7.795 C598.43,8.05 598.34,8.26 598.16,8.44 C597.98,8.62 597.755,8.71 597.5,8.71 C597.23,8.71 597.02,8.62 596.84,8.44 C596.66,8.26 596.585,8.05 596.585,7.795 C596.585,7.525 596.66,7.315 596.84,7.15 C597.02,6.955 597.23,6.865 597.5,6.865 Z M597.5,12.355 C597.755,12.355 597.98,12.445 598.16,12.64 C598.34,12.805 598.43,13.015 598.43,13.285 C598.43,13.54 598.34,13.75 598.16,13.93 C597.98,14.11 597.755,14.2 597.5,14.2 C597.23,14.2 597.02,14.11 596.84,13.93 C596.66,13.75 596.585,13.54 596.585,13.285 C596.585,13.015 596.66,12.805 596.84,12.64 C597.02,12.445 597.23,12.355 597.5,12.355 Z M609.605,5.08 C610.625,5.08 611.465,5.335 612.095,5.86 C612.71,6.385 613.025,7.09 613.025,7.99 C613.025,9.19 612.44,10 611.27,10.39 C611.9,10.585 612.38,10.885 612.71,11.305 C613.07,11.725 613.25,12.25 613.25,12.88 C613.25,13.855 612.905,14.65 612.23,15.265 C611.54,15.895 610.64,16.21 609.53,16.21 C608.51,16.21 607.685,15.94 607.04,15.43 C606.275,14.8 605.855,13.885 605.765,12.685 L607.01,12.685 C607.04,13.525 607.325,14.17 607.85,14.605 C608.3,14.965 608.855,15.16 609.53,15.16 C610.295,15.16 610.91,14.935 611.375,14.5 C611.795,14.08 612.02,13.555 612.02,12.925 C612.02,12.28 611.81,11.785 611.39,11.425 C610.97,11.065 610.4,10.9 609.65,10.9 L608.78,10.9 L608.78,9.94 L609.605,9.94 C610.325,9.94 610.865,9.775 611.24,9.46 C611.615,9.13 611.81,8.665 611.81,8.065 C611.81,7.465 611.615,7 611.255,6.67 C610.865,6.31 610.31,6.145 609.62,6.145 C608.9,6.145 608.345,6.325 607.94,6.715 C607.52,7.105 607.28,7.66 607.205,8.38 L605.99,8.38 C606.08,7.345 606.47,6.535 607.13,5.95 C607.76,5.365 608.585,5.08 609.605,5.08 Z M617.45,5.29 L618.41,5.29 L618.41,16 L617.18,16 L617.18,6.79 C616.505,7.48 615.665,7.96 614.66,8.26 L614.66,7.03 C615.14,6.895 615.65,6.685 616.16,6.385 C616.67,6.055 617.09,5.695 617.45,5.29 Z M623.465,5.29 L624.425,5.29 L624.425,16 L623.195,16 L623.195,6.79 C622.52,7.48 621.68,7.96 620.675,8.26 L620.675,7.03 C621.155,6.895 621.665,6.685 622.175,6.385 C622.685,6.055 623.105,5.695 623.465,5.29 Z M629.48,5.29 L630.44,5.29 L630.44,16 L629.21,16 L629.21,6.79 C628.535,7.48 627.695,7.96 626.69,8.26 L626.69,7.03 C627.17,6.895 627.68,6.685 628.19,6.385 C628.7,6.055 629.12,5.695 629.48,5.29 Z M636.545,5.08 C637.82,5.08 638.78,5.635 639.44,6.775 C640.01,7.735 640.295,9.025 640.295,10.645 C640.295,12.265 640.01,13.555 639.44,14.515 C638.78,15.64 637.82,16.21 636.545,16.21 C635.255,16.21 634.295,15.64 633.65,14.515 C633.08,13.555 632.795,12.265 632.795,10.645 C632.795,9.025 633.08,7.735 633.65,6.775 C634.295,5.635 635.255,5.08 636.545,5.08 Z M636.545,6.13 C635.585,6.13 634.895,6.64 634.475,7.675 C634.175,8.395 634.025,9.385 634.025,10.645 C634.025,11.89 634.175,12.88 634.475,13.615 C634.895,14.635 635.585,15.16 636.545,15.16 C637.505,15.16 638.195,14.635 638.615,13.615 C638.915,12.88 639.08,11.89 639.08,10.645 C639.08,9.385 638.915,8.395 638.615,7.675 C638.195,6.64 637.505,6.13 636.545,6.13 Z M645.545,5.08 C646.82,5.08 647.78,5.635 648.44,6.775 C649.01,7.735 649.295,9.025 649.295,10.645 C649.295,12.265 649.01,13.555 648.44,14.515 C647.78,15.64 646.82,16.21 645.545,16.21 C644.255,16.21 643.295,15.64 642.65,14.515 C642.08,13.555 641.795,12.265 641.795,10.645 C641.795,9.025 642.08,7.735 642.65,6.775 C643.295,5.635 644.255,5.08 645.545,5.08 Z M645.545,6.13 C644.585,6.13 643.895,6.64 643.475,7.675 C643.175,8.395 643.025,9.385 643.025,10.645 C643.025,11.89 643.175,12.88 643.475,13.615 C643.895,14.635 644.585,15.16 645.545,15.16 C646.505,15.16 647.195,14.635 647.615,13.615 C647.915,12.88 648.08,11.89 648.08,10.645 C648.08,9.385 647.915,8.395 647.615,7.675 C647.195,6.64 646.505,6.13 645.545,6.13 Z" id="邮编：311100-copy"></path>
                    </g>
                    <path d="M1.815,45.49 L2.88,45.49 L2.88,53.515 L1.815,53.515 L1.815,45.49 Z M11.85,53.455 L10.47,53.455 L10.215,52.48 L11.625,52.51 C12,52.51 12.195,52.285 12.195,51.85 L12.195,44.86 L6.375,44.86 L6.375,43.87 L13.26,43.87 L13.26,52.15 C13.26,53.02 12.78,53.455 11.85,53.455 Z M4.815,46.195 L10.23,46.195 L10.23,51.85 L4.815,51.85 L4.815,46.195 Z M9.225,50.935 L9.225,49.435 L5.85,49.435 L5.85,50.935 L9.225,50.935 Z M5.85,48.565 L9.225,48.565 L9.225,47.095 L5.85,47.095 L5.85,48.565 Z M3.33,43.255 C4.125,43.945 4.74,44.545 5.16,45.07 L4.365,45.625 C3.915,45.07 3.3,44.44 2.535,43.75 L3.33,43.255 Z M2.985,41.77 C2.595,42.43 2.175,43.045 1.695,43.6 L0.78,43.015 C1.68,42.01 2.34,40.9 2.76,39.7 L3.81,39.925 C3.69,40.24 3.57,40.54 3.45,40.825 L7.41,40.825 L7.41,41.77 L5.16,41.77 C5.535,42.295 5.835,42.79 6.045,43.255 L5.085,43.615 C4.785,42.97 4.425,42.355 4.02,41.77 L2.985,41.77 Z M9.36,41.77 C9.06,42.34 8.73,42.865 8.355,43.345 L7.44,42.76 C8.19,41.83 8.73,40.825 9.06,39.715 L10.095,39.94 C10.005,40.24 9.9,40.54 9.78,40.825 L14.16,40.825 L14.16,41.77 L11.67,41.77 C12.015,42.25 12.3,42.715 12.525,43.135 L11.565,43.495 C11.265,42.895 10.92,42.325 10.515,41.77 L9.36,41.77 Z M28.95,40.48 L28.95,41.53 L18.015,41.53 L18.015,45.97 C17.955,49.09 17.43,51.595 16.41,53.485 L15.57,52.735 C16.425,51.115 16.875,48.85 16.92,45.97 L16.92,40.48 L28.95,40.48 Z M28.32,44.935 C28.29,48.94 28.095,51.34 27.72,52.135 C27.33,52.915 26.67,53.32 25.74,53.32 C25.26,53.32 24.66,53.305 23.97,53.275 L23.685,52.255 C24.42,52.285 25.02,52.315 25.485,52.33 C26.235,52.3 26.7,51.955 26.88,51.265 C27.075,50.575 27.195,48.79 27.24,45.91 L23.76,45.91 C23.58,47.56 23.205,48.94 22.635,50.05 C21.855,51.52 20.595,52.66 18.855,53.47 L18.255,52.525 C19.95,51.7 21.135,50.605 21.81,49.255 C22.23,48.31 22.515,47.2 22.665,45.91 L19.14,45.91 L19.14,44.935 L22.755,44.935 L22.8,43.75 L22.8,42.295 L23.895,42.295 L23.895,43.75 L23.85,44.935 L28.32,44.935 Z M39.21,39.745 L40.245,39.745 L40.245,40.72 L43.965,40.72 L43.965,41.605 L40.245,41.605 L40.245,42.61 L43.425,42.61 L43.425,43.48 L40.245,43.48 L40.245,44.5 L44.34,44.5 L44.34,45.4 L35.16,45.4 L35.16,44.5 L39.21,44.5 L39.21,43.48 L36.18,43.48 L36.18,42.61 L39.21,42.61 L39.21,41.605 L35.58,41.605 L35.58,40.72 L39.21,40.72 L39.21,39.745 Z M37.335,49.18 L37.335,50.275 L42.18,50.275 L42.18,49.18 L37.335,49.18 Z M42.18,48.34 L42.18,47.23 L37.335,47.23 L37.335,48.34 L42.18,48.34 Z M37.335,51.115 L37.335,53.5 L36.3,53.5 L36.3,46.345 L43.215,46.345 L43.215,52.195 C43.215,53.005 42.78,53.41 41.94,53.41 L40.68,53.41 L40.425,52.45 L41.625,52.495 C41.985,52.495 42.18,52.315 42.18,51.97 L42.18,51.115 L37.335,51.115 Z M32.445,39.91 C33.45,40.66 34.29,41.425 34.98,42.19 L34.245,42.94 C33.615,42.22 32.76,41.455 31.68,40.645 L32.445,39.91 Z M30.63,44.335 L33.81,44.335 L33.81,50.92 C34.26,50.5 34.725,50.035 35.235,49.51 L35.52,50.65 C34.68,51.52 33.78,52.3 32.85,52.975 L32.43,52.015 C32.655,51.805 32.775,51.58 32.775,51.325 L32.775,45.37 L30.63,45.37 L30.63,44.335 Z M47.43,53.335 L46.14,53.335 L45.915,52.285 C46.305,52.315 46.695,52.345 47.055,52.345 C47.46,52.345 47.67,52.135 47.67,51.715 L47.67,48.055 C47.07,48.31 46.44,48.55 45.81,48.76 L45.54,47.68 C46.26,47.485 46.98,47.245 47.67,46.96 L47.67,43.54 L45.84,43.54 L45.84,42.505 L47.67,42.505 L47.67,39.76 L48.75,39.76 L48.75,42.505 L50.46,42.505 L50.46,43.54 L48.75,43.54 L48.75,46.48 C49.305,46.21 49.845,45.91 50.385,45.58 L50.385,46.69 C49.845,46.99 49.305,47.29 48.75,47.56 L48.75,51.985 C48.75,52.885 48.3,53.335 47.43,53.335 Z M50.955,46.165 L58.125,46.165 L58.125,47.17 C57.66,48.58 56.895,49.795 55.815,50.8 C56.82,51.49 58.05,52.09 59.505,52.6 L58.92,53.53 C57.375,52.93 56.085,52.24 55.05,51.46 C53.88,52.33 52.44,53.035 50.745,53.56 L50.16,52.645 C51.75,52.15 53.085,51.52 54.18,50.74 C53.025,49.69 52.245,48.52 51.855,47.215 L50.955,47.215 L50.955,46.165 Z M52.845,47.215 C53.235,48.295 53.925,49.27 54.945,50.14 C55.89,49.3 56.595,48.325 57.06,47.215 L52.845,47.215 Z M52.11,40.345 L57.15,40.345 L57.15,43.57 C57.15,43.93 57.36,44.125 57.78,44.125 L59.04,44.125 L59.04,45.13 L57.51,45.13 C56.55,45.13 56.085,44.68 56.085,43.81 L56.085,41.365 L53.175,41.365 L53.175,42.235 C53.175,43.645 52.485,44.74 51.105,45.52 L50.385,44.695 C51.525,44.14 52.11,43.36 52.11,42.34 L52.11,40.345 Z M67.5,42.865 C67.755,42.865 67.98,42.955 68.16,43.15 C68.34,43.315 68.43,43.525 68.43,43.795 C68.43,44.05 68.34,44.26 68.16,44.44 C67.98,44.62 67.755,44.71 67.5,44.71 C67.23,44.71 67.02,44.62 66.84,44.44 C66.66,44.26 66.585,44.05 66.585,43.795 C66.585,43.525 66.66,43.315 66.84,43.15 C67.02,42.955 67.23,42.865 67.5,42.865 Z M67.5,48.355 C67.755,48.355 67.98,48.445 68.16,48.64 C68.34,48.805 68.43,49.015 68.43,49.285 C68.43,49.54 68.34,49.75 68.16,49.93 C67.98,50.11 67.755,50.2 67.5,50.2 C67.23,50.2 67.02,50.11 66.84,49.93 C66.66,49.75 66.585,49.54 66.585,49.285 C66.585,49.015 66.66,48.805 66.84,48.64 C67.02,48.445 67.23,48.355 67.5,48.355 Z M75.93,41.08 L77.13,41.08 L77.13,45.52 C77.4,45.025 77.76,44.65 78.21,44.395 C78.63,44.155 79.095,44.035 79.62,44.035 C80.52,44.035 81.225,44.29 81.705,44.83 C82.185,45.355 82.425,46.12 82.425,47.11 L82.425,52 L81.225,52 L81.225,47.29 C81.225,46.57 81.045,46.015 80.715,45.625 C80.355,45.235 79.86,45.04 79.215,45.04 C78.615,45.04 78.12,45.28 77.73,45.76 C77.325,46.24 77.13,46.855 77.13,47.575 L77.13,52 L75.93,52 L75.93,41.08 Z M87.675,44.035 C88.095,44.035 88.455,44.095 88.74,44.215 L88.74,45.415 C88.35,45.295 87.96,45.25 87.585,45.25 C86.985,45.25 86.475,45.505 86.07,46.045 C85.65,46.555 85.455,47.17 85.455,47.89 L85.455,52 L84.27,52 L84.27,44.245 L85.455,44.245 L85.455,45.595 C85.665,45.145 85.935,44.785 86.265,44.53 C86.67,44.2 87.135,44.035 87.675,44.035 Z M95.43,41.08 C96.99,41.08 98.235,41.545 99.15,42.49 C99.99,43.345 100.41,44.41 100.41,45.7 C100.41,46.78 100.065,47.74 99.405,48.61 C98.745,49.435 98.025,49.855 97.245,49.855 C96.615,49.855 96.27,49.525 96.21,48.865 C95.7,49.54 95.07,49.885 94.32,49.885 C93.69,49.885 93.18,49.66 92.79,49.24 C92.4,48.82 92.205,48.28 92.205,47.635 C92.205,46.525 92.535,45.55 93.225,44.74 C93.885,43.93 94.65,43.54 95.55,43.54 C96.27,43.54 96.75,43.915 96.99,44.665 L97.215,43.825 L98.19,43.825 L97.125,47.74 C97.005,48.175 96.945,48.475 96.945,48.655 C96.945,48.895 97.08,49.03 97.365,49.03 C97.83,49.03 98.295,48.73 98.76,48.145 C99.3,47.455 99.57,46.645 99.57,45.715 C99.57,44.65 99.21,43.765 98.49,43.06 C97.71,42.295 96.66,41.92 95.37,41.92 C93.99,41.92 92.85,42.37 91.95,43.285 C91.065,44.185 90.63,45.34 90.63,46.72 C90.63,48.235 91.065,49.405 91.965,50.23 C92.805,51.01 93.96,51.415 95.43,51.415 C96.48,51.415 97.41,51.22 98.19,50.845 C98.88,50.5 99.435,50.035 99.855,49.435 L100.905,49.435 C100.38,50.335 99.63,51.025 98.64,51.505 C97.68,51.97 96.615,52.21 95.43,52.21 C93.63,52.21 92.22,51.715 91.185,50.725 C90.12,49.705 89.595,48.37 89.595,46.69 C89.595,45.115 90.12,43.81 91.185,42.76 C92.295,41.635 93.705,41.08 95.43,41.08 Z M95.715,44.485 C95.07,44.485 94.5,44.785 94.02,45.415 C93.51,46.045 93.255,46.795 93.255,47.68 C93.255,48.085 93.345,48.4 93.54,48.64 C93.735,48.88 94.02,49 94.395,49 C94.77,49 95.145,48.85 95.505,48.55 C95.865,48.25 96.105,47.89 96.225,47.5 L96.555,46.27 C96.645,45.88 96.705,45.64 96.705,45.55 C96.705,45.28 96.615,45.04 96.45,44.845 C96.255,44.605 96.015,44.485 95.715,44.485 Z M102.09,44.245 L103.5,44.245 L105.51,47.005 L107.505,44.245 L108.915,44.245 L106.17,47.89 L109.245,52 L107.82,52 L105.51,48.775 L103.185,52 L101.76,52 L104.835,47.89 L102.09,44.245 Z M111.24,41.32 C111.495,41.32 111.705,41.395 111.885,41.575 C112.065,41.725 112.155,41.935 112.155,42.205 C112.155,42.46 112.065,42.67 111.885,42.85 C111.705,43.015 111.495,43.105 111.24,43.105 C110.985,43.105 110.775,43.015 110.595,42.85 C110.415,42.67 110.34,42.46 110.34,42.205 C110.34,41.935 110.415,41.725 110.595,41.575 C110.775,41.395 110.985,41.32 111.24,41.32 Z M110.64,44.245 L111.84,44.245 L111.84,52 L110.64,52 L110.64,44.245 Z M117.465,44.035 C118.575,44.035 119.385,44.32 119.925,44.905 C120.375,45.415 120.615,46.12 120.615,47.02 L120.615,52 L119.49,52 L119.49,50.695 C119.19,51.115 118.785,51.46 118.305,51.73 C117.735,52.045 117.09,52.21 116.37,52.21 C115.59,52.21 114.975,52.015 114.51,51.625 C114.03,51.22 113.79,50.695 113.79,50.065 C113.79,49.18 114.135,48.52 114.855,48.07 C115.485,47.65 116.385,47.425 117.555,47.41 L119.415,47.38 L119.415,46.975 C119.415,45.67 118.74,45.025 117.39,45.025 C116.82,45.025 116.355,45.13 115.995,45.37 C115.59,45.61 115.335,45.985 115.215,46.48 L114.03,46.39 C114.195,45.58 114.6,44.965 115.23,44.575 C115.8,44.215 116.535,44.035 117.465,44.035 Z M119.415,48.28 L117.63,48.31 C115.89,48.34 115.02,48.91 115.02,50.035 C115.02,50.395 115.155,50.68 115.455,50.92 C115.755,51.145 116.145,51.265 116.625,51.265 C117.36,51.265 118.005,51.025 118.575,50.545 C119.13,50.08 119.415,49.54 119.415,48.94 L119.415,48.28 Z M125.94,44.035 C127.095,44.035 128.025,44.425 128.715,45.235 C129.375,46 129.705,46.96 129.705,48.13 C129.705,49.285 129.375,50.245 128.73,50.995 C128.025,51.805 127.095,52.21 125.94,52.21 C124.77,52.21 123.855,51.805 123.165,50.995 C122.505,50.245 122.175,49.285 122.175,48.13 C122.175,46.96 122.505,46 123.165,45.235 C123.855,44.425 124.77,44.035 125.94,44.035 Z M125.94,45.04 C125.115,45.04 124.47,45.355 124.02,45.985 C123.6,46.555 123.405,47.26 123.405,48.13 C123.405,48.985 123.6,49.69 124.02,50.26 C124.47,50.89 125.115,51.205 125.94,51.205 C126.75,51.205 127.395,50.89 127.875,50.26 C128.28,49.69 128.49,48.97 128.49,48.13 C128.49,47.26 128.28,46.555 127.875,45.985 C127.395,45.355 126.75,45.04 125.94,45.04 Z M134.37,41.29 L135.855,41.29 L135.855,42.325 L134.52,42.325 C134.19,42.325 133.935,42.4 133.785,42.58 C133.635,42.745 133.56,43.015 133.56,43.39 L133.56,44.245 L135.75,44.245 L135.75,45.25 L133.56,45.25 L133.56,52 L132.36,52 L132.36,45.25 L130.41,45.25 L130.41,44.245 L132.36,44.245 L132.36,43.36 C132.36,42.7 132.525,42.205 132.855,41.845 C133.2,41.47 133.71,41.29 134.37,41.29 Z M136.86,44.245 L138.06,44.245 L138.06,48.985 C138.06,49.72 138.21,50.275 138.525,50.635 C138.84,50.995 139.35,51.19 140.055,51.19 C140.565,51.19 141.03,50.98 141.435,50.59 C141.855,50.17 142.11,49.63 142.2,48.97 L142.2,44.245 L143.4,44.245 L143.4,52 L142.2,52 L142.2,50.8 C141.57,51.73 140.73,52.21 139.68,52.21 C137.79,52.21 136.86,51.145 136.86,49.045 L136.86,44.245 Z M147.33,41.74 L147.33,44.245 L149.25,44.245 L149.25,45.25 L147.33,45.25 L147.33,50.185 C147.33,50.47 147.375,50.68 147.495,50.8 C147.6,50.92 147.795,50.995 148.065,50.995 L149.055,50.995 L149.055,52 L147.885,52 C147.255,52 146.79,51.835 146.52,51.505 C146.265,51.205 146.145,50.77 146.145,50.185 L146.145,45.25 L144.585,45.25 L144.585,44.245 L146.145,44.245 L146.145,42.235 L147.33,41.74 Z M153.78,44.035 C155.025,44.035 155.97,44.455 156.6,45.295 C157.17,46.045 157.47,47.11 157.5,48.46 L151.38,48.46 C151.44,49.33 151.665,50.005 152.085,50.485 C152.505,50.965 153.09,51.205 153.825,51.205 C154.455,51.205 154.98,51.04 155.37,50.725 C155.7,50.455 155.955,50.05 156.15,49.51 L157.35,49.51 C157.17,50.26 156.825,50.86 156.3,51.34 C155.655,51.91 154.83,52.21 153.825,52.21 C152.715,52.21 151.815,51.835 151.155,51.115 C150.465,50.365 150.135,49.375 150.135,48.115 C150.135,46.975 150.45,46.015 151.11,45.25 C151.77,44.44 152.655,44.035 153.78,44.035 Z M153.81,45.04 C153.12,45.04 152.565,45.265 152.145,45.715 C151.725,46.165 151.485,46.765 151.41,47.53 L156.255,47.53 C156.105,45.865 155.28,45.04 153.81,45.04 Z M162.255,44.035 C163.215,44.035 163.98,44.26 164.565,44.71 C165.165,45.175 165.525,45.88 165.66,46.825 L164.475,46.825 C164.37,46.225 164.13,45.775 163.755,45.475 C163.365,45.175 162.87,45.04 162.255,45.04 C161.505,45.04 160.905,45.325 160.47,45.895 C160.05,46.45 159.84,47.2 159.84,48.145 C159.84,49.09 160.035,49.84 160.455,50.38 C160.86,50.92 161.46,51.205 162.24,51.205 C163.56,51.205 164.325,50.53 164.505,49.195 L165.705,49.195 C165.525,50.185 165.15,50.95 164.55,51.46 C163.965,51.955 163.2,52.21 162.24,52.21 C161.07,52.21 160.17,51.82 159.525,51.04 C158.91,50.305 158.61,49.345 158.61,48.16 C158.61,46.975 158.91,46.015 159.525,45.265 C160.185,44.44 161.1,44.035 162.255,44.035 Z M167.115,41.08 L168.315,41.08 L168.315,45.52 C168.585,45.025 168.945,44.65 169.395,44.395 C169.815,44.155 170.28,44.035 170.805,44.035 C171.705,44.035 172.41,44.29 172.89,44.83 C173.37,45.355 173.61,46.12 173.61,47.11 L173.61,52 L172.41,52 L172.41,47.29 C172.41,46.57 172.23,46.015 171.9,45.625 C171.54,45.235 171.045,45.04 170.4,45.04 C169.8,45.04 169.305,45.28 168.915,45.76 C168.51,46.24 168.315,46.855 168.315,47.575 L168.315,52 L167.115,52 L167.115,41.08 Z M176.505,50.215 C176.745,50.215 176.97,50.305 177.15,50.485 C177.33,50.665 177.42,50.875 177.42,51.145 C177.42,51.4 177.33,51.61 177.15,51.79 C176.97,51.97 176.745,52.06 176.505,52.06 C176.235,52.06 176.025,51.97 175.86,51.79 C175.68,51.61 175.59,51.4 175.59,51.145 C175.59,50.875 175.68,50.665 175.86,50.485 C176.025,50.305 176.235,50.215 176.505,50.215 Z M182.76,44.035 C183.72,44.035 184.485,44.26 185.07,44.71 C185.67,45.175 186.03,45.88 186.165,46.825 L184.98,46.825 C184.875,46.225 184.635,45.775 184.26,45.475 C183.87,45.175 183.375,45.04 182.76,45.04 C182.01,45.04 181.41,45.325 180.975,45.895 C180.555,46.45 180.345,47.2 180.345,48.145 C180.345,49.09 180.54,49.84 180.96,50.38 C181.365,50.92 181.965,51.205 182.745,51.205 C184.065,51.205 184.83,50.53 185.01,49.195 L186.21,49.195 C186.03,50.185 185.655,50.95 185.055,51.46 C184.47,51.955 183.705,52.21 182.745,52.21 C181.575,52.21 180.675,51.82 180.03,51.04 C179.415,50.305 179.115,49.345 179.115,48.16 C179.115,46.975 179.415,46.015 180.03,45.265 C180.69,44.44 181.605,44.035 182.76,44.035 Z M191.085,44.035 C192.24,44.035 193.17,44.425 193.86,45.235 C194.52,46 194.85,46.96 194.85,48.13 C194.85,49.285 194.52,50.245 193.875,50.995 C193.17,51.805 192.24,52.21 191.085,52.21 C189.915,52.21 189,51.805 188.31,50.995 C187.65,50.245 187.32,49.285 187.32,48.13 C187.32,46.96 187.65,46 188.31,45.235 C189,44.425 189.915,44.035 191.085,44.035 Z M191.085,45.04 C190.26,45.04 189.615,45.355 189.165,45.985 C188.745,46.555 188.55,47.26 188.55,48.13 C188.55,48.985 188.745,49.69 189.165,50.26 C189.615,50.89 190.26,51.205 191.085,51.205 C191.895,51.205 192.54,50.89 193.02,50.26 C193.425,49.69 193.635,48.97 193.635,48.13 C193.635,47.26 193.425,46.555 193.02,45.985 C192.54,45.355 191.895,45.04 191.085,45.04 Z M199.8,44.035 C200.985,44.035 201.795,44.515 202.23,45.505 C202.53,44.995 202.89,44.62 203.31,44.395 C203.685,44.155 204.135,44.035 204.675,44.035 C205.485,44.035 206.13,44.29 206.64,44.8 C207.12,45.325 207.375,46.03 207.375,46.915 L207.375,52 L206.175,52 L206.175,47.11 C206.175,46.42 206.025,45.91 205.74,45.58 C205.44,45.22 204.96,45.055 204.3,45.055 C203.79,45.055 203.355,45.235 203.025,45.625 C202.665,46.015 202.5,46.51 202.5,47.14 L202.5,52 L201.3,52 L201.3,47.11 C201.3,45.73 200.7,45.055 199.515,45.055 C198.96,45.055 198.51,45.265 198.15,45.715 C197.79,46.135 197.61,46.66 197.61,47.275 L197.61,52 L196.41,52 L196.41,44.245 L197.61,44.245 L197.61,45.28 C198.195,44.44 198.93,44.035 199.8,44.035 Z" id="简历请投：hr@xiaofutech.c"></path>
                    <path d="M5.94,77.71 L9.255,77.71 C8.985,77.035 8.7,76.42 8.385,75.865 L9.525,75.685 C9.825,76.285 10.095,76.96 10.365,77.71 L13.65,77.71 L13.65,78.775 L5.94,78.775 L5.94,77.71 Z M5.325,88.795 C6.015,88.075 6.495,87.28 6.78,86.44 C7.02,85.69 7.155,84.625 7.155,83.245 L7.155,80.425 L11.91,80.425 L11.91,87.835 C11.91,88.165 12.045,88.345 12.315,88.345 L12.66,88.345 C12.81,88.345 12.945,88.315 13.05,88.285 C13.14,88.255 13.215,88.195 13.26,88.135 C13.35,88 13.395,87.31 13.395,86.05 L14.355,86.35 C14.355,87.205 14.31,87.865 14.25,88.315 C14.19,88.69 14.055,88.96 13.845,89.11 C13.62,89.23 13.275,89.29 12.795,89.29 L12.285,89.29 C11.355,89.29 10.89,88.84 10.89,87.955 L10.89,81.415 L8.175,81.415 L8.175,83.245 C8.175,84.655 8.025,85.81 7.74,86.74 C7.455,87.685 6.915,88.615 6.12,89.515 L5.325,88.795 Z M2.76,75.79 L3.825,75.79 L3.825,78.61 L5.49,78.61 L5.49,79.66 L3.825,79.66 L3.825,80.755 C4.545,81.535 5.295,82.435 6.045,83.425 L5.43,84.34 C4.8,83.335 4.275,82.525 3.825,81.91 L3.825,89.485 L2.76,89.485 L2.76,82.135 C2.31,83.515 1.74,84.775 1.05,85.915 L0.57,84.745 C1.59,83.245 2.325,81.565 2.76,79.675 L2.76,79.66 L1.005,79.66 L1.005,78.61 L2.76,78.61 L2.76,75.79 Z M23.25,76.3 L24.3,76.3 L24.3,89.005 L23.25,89.005 L23.25,76.3 Z M27.39,75.82 L28.425,75.82 L28.425,89.515 L27.39,89.515 L27.39,75.82 Z M21.09,79.705 C21.69,80.845 22.23,82.09 22.695,83.455 L21.825,83.905 C21.345,82.465 20.805,81.19 20.22,80.08 L21.09,79.705 Z M19.035,75.94 L20.07,75.94 L20.07,80.515 C20.04,84.625 19.08,87.625 17.22,89.515 L16.425,88.81 C18.135,87.085 19.005,84.325 19.035,80.515 L19.035,75.94 Z M25.26,79.57 C25.86,80.68 26.4,81.91 26.85,83.245 L25.98,83.695 C25.5,82.285 24.975,81.025 24.39,79.945 L25.26,79.57 Z M16.89,79.585 C17.52,80.785 18.09,82.105 18.57,83.545 L17.73,83.98 C17.19,82.48 16.605,81.145 15.975,79.975 L16.89,79.585 Z M36.78,89.335 L34.485,89.335 L34.23,88.21 C34.98,88.27 35.7,88.3 36.375,88.3 C36.93,88.3 37.215,88.015 37.215,87.46 L37.215,75.97 L38.325,75.97 L38.325,87.745 C38.325,88.795 37.8,89.335 36.78,89.335 Z M33.195,79.45 L34.275,79.87 C33.555,82.87 32.61,85.15 31.44,86.71 L30.51,85.885 C31.71,84.295 32.595,82.15 33.195,79.45 Z M41.715,79.09 C42.9,81.775 43.815,84.115 44.445,86.11 L43.485,86.785 C42.81,84.655 41.895,82.3 40.74,79.705 L41.715,79.09 Z M51.81,78.205 L54.66,78.205 L54.66,75.79 L55.695,75.79 L55.695,78.205 L58.545,78.205 L58.545,79.255 L55.695,79.255 L55.695,80.62 C55.68,81.19 55.65,81.73 55.59,82.24 L59.16,82.24 L59.16,83.29 L55.875,83.29 C56.61,85.525 57.795,87.325 59.445,88.69 L58.74,89.5 C57.15,88.09 55.965,86.32 55.185,84.205 C54.585,86.2 53.505,87.97 51.915,89.5 L51.09,88.795 C52.785,87.205 53.88,85.375 54.36,83.29 L51.39,83.29 L51.39,82.24 L54.555,82.24 C54.615,81.7 54.66,81.16 54.66,80.62 L54.66,79.255 L51.81,79.255 L51.81,78.205 Z M50.715,76.36 L50.715,88.24 C50.715,89.05 50.28,89.455 49.44,89.455 L48.375,89.455 L48.12,88.48 C48.48,88.51 48.81,88.54 49.125,88.54 C49.5,88.54 49.695,88.315 49.695,87.88 L49.695,84.34 C49.02,84.52 48.3,84.685 47.535,84.82 C47.415,86.71 47.085,88.285 46.545,89.545 L45.75,88.81 C46.29,87.445 46.575,85.705 46.59,83.59 L46.59,76.36 L50.715,76.36 Z M47.58,83.815 C48.345,83.695 49.05,83.545 49.695,83.365 L49.695,81.31 C49.005,81.07 48.3,80.89 47.58,80.755 L47.58,83.815 Z M47.58,79.81 C48.315,79.945 49.02,80.125 49.695,80.35 L49.695,77.335 L47.58,77.335 L47.58,79.81 Z M74.25,83.875 L74.415,84.925 L72.9,85.165 L72.9,89.455 L71.805,89.455 L71.805,85.345 L67.125,86.11 L66.975,85.06 L71.805,84.28 L71.805,75.805 L72.9,75.805 L72.9,84.1 L74.25,83.875 Z M68.4,76.585 C69.48,77.35 70.38,78.115 71.115,78.895 L70.38,79.645 C69.72,78.91 68.805,78.13 67.635,77.32 L68.4,76.585 Z M67.95,80.035 C69.045,80.845 69.975,81.64 70.725,82.45 L69.96,83.215 C69.285,82.45 68.355,81.64 67.185,80.77 L67.95,80.035 Z M60.945,79.795 L63.405,79.795 L63.405,77.575 C62.685,77.68 61.95,77.77 61.17,77.845 L60.96,76.825 C62.91,76.675 64.65,76.36 66.15,75.91 L66.525,76.93 C65.88,77.11 65.205,77.26 64.485,77.395 L64.485,79.795 L66.555,79.795 L66.555,80.83 L64.485,80.83 L64.485,81.565 C65.325,82.24 66.195,83.005 67.065,83.845 L66.45,84.76 C65.67,83.845 65.025,83.125 64.485,82.6 L64.485,89.455 L63.405,89.455 L63.405,82.45 C62.805,83.92 62.01,85.255 60.99,86.455 L60.525,85.255 C61.8,83.965 62.715,82.48 63.285,80.83 L60.945,80.83 L60.945,79.795 Z M77.37,89.335 L76.11,89.335 L75.885,88.315 C76.275,88.36 76.65,88.39 77.01,88.39 C77.415,88.39 77.625,88.165 77.625,87.715 L77.625,84.13 C77.025,84.37 76.425,84.595 75.795,84.805 L75.525,83.74 C76.245,83.56 76.935,83.335 77.625,83.08 L77.625,79.54 L75.81,79.54 L75.81,78.505 L77.625,78.505 L77.625,75.76 L78.675,75.76 L78.675,78.505 L80.265,78.505 L80.265,79.54 L78.675,79.54 L78.675,82.645 C79.23,82.375 79.77,82.105 80.295,81.805 L80.295,82.855 C79.755,83.155 79.215,83.425 78.675,83.68 L78.675,87.985 C78.675,88.885 78.24,89.335 77.37,89.335 Z M80.805,77.92 L84.405,77.92 L84.405,75.79 L85.455,75.79 L85.455,77.92 L89.07,77.92 L89.07,78.955 L85.455,78.955 L85.455,81.4 L88.485,81.4 L88.485,82.36 C87.96,84.01 87.09,85.42 85.875,86.59 C86.865,87.355 88.08,88.03 89.505,88.615 L88.935,89.515 C87.435,88.855 86.16,88.09 85.14,87.25 C83.97,88.18 82.545,88.945 80.865,89.545 L80.355,88.645 C81.945,88.12 83.295,87.43 84.39,86.575 C83.13,85.345 82.305,83.965 81.885,82.42 L81.09,82.42 L81.09,81.4 L84.405,81.4 L84.405,78.955 L80.805,78.955 L80.805,77.92 Z M82.89,82.42 C83.28,83.74 84.03,84.91 85.11,85.945 C86.145,84.94 86.91,83.77 87.405,82.42 L82.89,82.42 Z M95.25,81.145 L95.25,82.78 L101.205,82.78 L101.205,81.145 L95.25,81.145 Z M101.205,83.725 L95.25,83.725 L95.25,85.315 L101.205,85.315 L101.205,83.725 Z M101.205,86.26 L95.25,86.26 L95.25,89.47 L94.23,89.47 L94.23,81.625 C93.39,82.675 92.415,83.65 91.335,84.52 L90.63,83.605 C92.52,82.105 93.975,80.395 95.01,78.46 L91.035,78.46 L91.035,77.41 L95.505,77.41 C95.76,76.825 95.985,76.24 96.165,75.655 L97.26,75.79 C97.08,76.345 96.9,76.885 96.69,77.41 L104.145,77.41 L104.145,78.46 L96.24,78.46 C95.94,79.06 95.625,79.645 95.265,80.2 L102.225,80.2 L102.225,88.3 C102.225,89.035 101.805,89.41 100.965,89.44 L99.285,89.44 L99.015,88.45 C99.585,88.48 100.125,88.51 100.62,88.51 C101.01,88.51 101.205,88.33 101.205,87.97 L101.205,86.26 Z M106.26,76.345 L110.865,76.345 L110.865,77.2 C110.415,78.55 109.875,79.96 109.245,81.43 C110.205,82.75 110.73,83.95 110.79,85.03 C110.79,85.675 110.625,86.14 110.325,86.425 C109.905,86.785 109.155,86.965 108.075,86.965 L107.715,85.87 C107.955,85.9 108.15,85.93 108.3,85.93 C108.855,85.9 109.23,85.825 109.425,85.705 C109.605,85.57 109.71,85.345 109.71,85.03 C109.71,84.01 109.185,82.855 108.135,81.595 C108.84,80.035 109.395,78.625 109.785,77.365 L107.31,77.365 L107.31,89.515 L106.26,89.515 L106.26,76.345 Z M112.635,80.08 L112.635,81.79 L117.06,81.79 L117.06,80.08 L112.635,80.08 Z M117.06,79.105 L117.06,77.38 L112.635,77.38 L112.635,79.105 L117.06,79.105 Z M118.35,83.425 L119.055,84.13 C118.365,84.94 117.6,85.57 116.76,86.005 C117.51,87.025 118.41,87.835 119.475,88.435 L118.845,89.35 C116.895,88.21 115.485,86.425 114.6,83.995 L115.425,83.53 C115.665,84.145 115.935,84.715 116.25,85.24 C116.985,84.835 117.69,84.235 118.35,83.425 Z M112.635,82.78 L112.635,87.91 C113.535,87.64 114.435,87.31 115.32,86.89 L115.575,87.895 C114.495,88.36 113.145,88.81 111.51,89.245 L111.24,88.3 C111.45,88.24 111.57,88.12 111.57,87.955 L111.57,76.36 L118.11,76.36 L118.11,82.78 L112.635,82.78 Z M124.935,75.895 L125.925,76.285 C124.815,79.435 123.36,81.835 121.53,83.485 L120.69,82.75 C122.565,81.04 123.975,78.76 124.935,75.895 Z M130.05,83.845 C131.22,85.465 132.21,87.205 133.05,89.05 L132.045,89.5 C131.82,88.99 131.595,88.51 131.37,88.06 C128.73,88.48 125.775,88.78 122.505,88.99 L122.31,87.94 C123.51,87.31 125.01,84.94 126.825,80.83 L127.875,81.19 C126.585,84.04 125.295,86.275 124.005,87.895 C126.45,87.745 128.745,87.49 130.89,87.145 C130.305,86.065 129.705,85.075 129.075,84.175 L130.05,83.845 Z M129.825,75.79 C130.695,78.58 132.195,80.86 134.34,82.63 L133.575,83.515 C131.34,81.655 129.78,79.24 128.91,76.3 L129.825,75.79 Z M137.22,82.15 L143.835,82.15 L143.835,86.77 L137.22,86.77 L137.22,82.15 Z M142.8,85.81 L142.8,83.125 L138.27,83.125 L138.27,85.81 L142.8,85.81 Z M146.445,89.395 L144.375,89.395 L144.105,88.36 L146.205,88.39 C146.655,88.39 146.895,88.09 146.895,87.49 L146.895,77.425 L136.695,77.425 L136.695,76.375 L147.975,76.375 L147.975,87.79 C147.975,88.855 147.465,89.395 146.445,89.395 Z M136.095,79.33 L145.32,79.33 L145.32,80.305 L136.095,80.305 L136.095,79.33 Z M156.84,76 C157.665,76.72 158.355,77.425 158.925,78.13 L158.175,78.88 C157.665,78.205 156.975,77.485 156.075,76.735 L156.84,76 Z M156.48,79.585 C157.32,80.305 158.04,81.01 158.61,81.73 L157.86,82.48 C157.35,81.79 156.63,81.07 155.73,80.32 L156.48,79.585 Z M157.665,83.575 L158.61,83.935 C158.085,85.87 157.5,87.685 156.87,89.38 L155.865,88.945 C156.555,87.19 157.155,85.405 157.665,83.575 Z M163.185,81.955 L163.185,83.05 C162.705,83.305 162.24,83.545 161.76,83.77 L161.76,88 C161.76,88.9 161.355,89.365 160.545,89.365 L159.33,89.365 L159.105,88.42 C159.495,88.45 159.855,88.48 160.215,88.48 C160.545,88.48 160.71,88.24 160.71,87.76 L160.71,84.235 C160.215,84.43 159.735,84.61 159.255,84.775 L159,83.74 C159.585,83.575 160.155,83.38 160.71,83.17 L160.71,79.495 L159.105,79.495 L159.105,78.55 L160.71,78.55 L160.71,75.79 L161.76,75.79 L161.76,78.55 L163.125,78.55 L163.125,79.495 L161.76,79.495 L161.76,82.72 C162.24,82.48 162.72,82.225 163.185,81.955 Z M168.555,76.03 L169.05,76.945 C167.82,77.395 166.455,77.68 164.955,77.77 L164.955,80.635 L169.35,80.635 L169.35,81.61 L167.895,81.61 L167.895,89.53 L166.875,89.53 L166.875,81.61 L164.955,81.61 L164.955,82.675 C164.88,85.495 164.325,87.76 163.275,89.455 L162.54,88.675 C163.41,87.235 163.875,85.225 163.95,82.675 L163.95,76.9 C165.66,76.87 167.19,76.57 168.555,76.03 Z M171.165,77.29 L172.38,77.29 L172.38,88 L171.165,88 L171.165,77.29 Z M179.25,77.08 C180.435,77.08 181.44,77.395 182.25,78.025 C183.06,78.655 183.54,79.51 183.69,80.575 L182.505,80.575 C182.355,79.795 181.965,79.195 181.365,78.775 C180.78,78.37 180.075,78.175 179.235,78.175 C177.99,78.175 177.03,78.61 176.355,79.48 C175.725,80.29 175.41,81.355 175.41,82.69 C175.41,84.025 175.71,85.09 176.34,85.87 C177,86.695 177.945,87.115 179.205,87.115 C180.06,87.115 180.78,86.89 181.38,86.44 C182.01,85.96 182.445,85.255 182.655,84.325 L183.84,84.325 C183.6,85.57 183.045,86.545 182.16,87.235 C181.335,87.88 180.345,88.21 179.205,88.21 C177.54,88.21 176.265,87.655 175.38,86.56 C174.57,85.57 174.18,84.28 174.18,82.69 C174.18,81.1 174.585,79.795 175.41,78.775 C176.31,77.635 177.6,77.08 179.25,77.08 Z M185.55,77.29 L189.93,77.29 C192.39,77.29 193.62,78.34 193.62,80.44 C193.62,82.555 192.375,83.62 189.915,83.62 L186.78,83.62 L186.78,88 L185.55,88 L185.55,77.29 Z M186.78,78.355 L186.78,82.555 L189.855,82.555 C190.725,82.555 191.355,82.375 191.775,82.03 C192.18,81.685 192.39,81.16 192.39,80.44 C192.39,79.72 192.18,79.195 191.76,78.88 C191.34,78.52 190.71,78.355 189.855,78.355 L186.78,78.355 Z M206.34,82.96 L206.34,89.5 L205.305,89.5 L205.305,88.84 L197.925,88.84 L197.925,89.5 L196.89,89.5 L196.89,82.96 L206.34,82.96 Z M197.925,87.91 L201.09,87.91 L201.09,86.32 L197.925,86.32 L197.925,87.91 Z M202.11,87.91 L205.305,87.91 L205.305,86.32 L202.11,86.32 L202.11,87.91 Z M197.925,85.45 L201.09,85.45 L201.09,83.86 L197.925,83.86 L197.925,85.45 Z M202.11,83.86 L202.11,85.45 L205.305,85.45 L205.305,83.86 L202.11,83.86 Z M199.605,75.565 L200.67,75.805 C200.445,76.165 200.205,76.495 199.965,76.81 L206.07,76.81 L206.07,77.635 C205.14,78.775 204.015,79.735 202.695,80.545 C204.315,81.235 206.22,81.715 208.44,82.015 L207.975,82.975 C205.515,82.6 203.415,81.985 201.675,81.115 C199.845,82.03 197.685,82.69 195.21,83.095 L194.745,82.15 C196.995,81.835 198.945,81.295 200.625,80.545 C199.725,80.005 198.93,79.375 198.24,78.67 C197.58,79.27 196.875,79.795 196.125,80.275 L195.435,79.435 C197.115,78.46 198.51,77.17 199.605,75.565 Z M198.885,78.055 C199.635,78.82 200.55,79.48 201.63,80.05 C202.83,79.39 203.865,78.625 204.735,77.755 L199.185,77.755 L198.885,78.055 Z M212.55,77.29 L213.51,77.29 L213.51,88 L212.28,88 L212.28,78.79 C211.605,79.48 210.765,79.96 209.76,80.26 L209.76,79.03 C210.24,78.895 210.75,78.685 211.26,78.385 C211.77,78.055 212.19,77.695 212.55,77.29 Z M215.625,77.29 L222.66,77.29 L222.66,78.295 L218.715,88 L217.41,88 L221.4,78.415 L215.625,78.415 L215.625,77.29 Z M227.82,77.08 C229.095,77.08 230.055,77.635 230.715,78.775 C231.285,79.735 231.57,81.025 231.57,82.645 C231.57,84.265 231.285,85.555 230.715,86.515 C230.055,87.64 229.095,88.21 227.82,88.21 C226.53,88.21 225.57,87.64 224.925,86.515 C224.355,85.555 224.07,84.265 224.07,82.645 C224.07,81.025 224.355,79.735 224.925,78.775 C225.57,77.635 226.53,77.08 227.82,77.08 Z M227.82,78.13 C226.86,78.13 226.17,78.64 225.75,79.675 C225.45,80.395 225.3,81.385 225.3,82.645 C225.3,83.89 225.45,84.88 225.75,85.615 C226.17,86.635 226.86,87.16 227.82,87.16 C228.78,87.16 229.47,86.635 229.89,85.615 C230.19,84.88 230.355,83.89 230.355,82.645 C230.355,81.385 230.19,80.395 229.89,79.675 C229.47,78.64 228.78,78.13 227.82,78.13 Z M236.82,77.08 C238.095,77.08 239.055,77.635 239.715,78.775 C240.285,79.735 240.57,81.025 240.57,82.645 C240.57,84.265 240.285,85.555 239.715,86.515 C239.055,87.64 238.095,88.21 236.82,88.21 C235.53,88.21 234.57,87.64 233.925,86.515 C233.355,85.555 233.07,84.265 233.07,82.645 C233.07,81.025 233.355,79.735 233.925,78.775 C234.57,77.635 235.53,77.08 236.82,77.08 Z M236.82,78.13 C235.86,78.13 235.17,78.64 234.75,79.675 C234.45,80.395 234.3,81.385 234.3,82.645 C234.3,83.89 234.45,84.88 234.75,85.615 C235.17,86.635 235.86,87.16 236.82,87.16 C237.78,87.16 238.47,86.635 238.89,85.615 C239.19,84.88 239.355,83.89 239.355,82.645 C239.355,81.385 239.19,80.395 238.89,79.675 C238.47,78.64 237.78,78.13 236.82,78.13 Z M241.83,77.29 L248.865,77.29 L248.865,78.295 L244.92,88 L243.615,88 L247.605,78.415 L241.83,78.415 L241.83,77.29 Z M251.1,77.29 L257.325,77.29 L257.325,78.385 L252.105,78.385 L251.745,81.97 L251.805,81.97 C252.105,81.61 252.495,81.34 252.96,81.16 C253.38,80.98 253.83,80.905 254.325,80.905 C255.345,80.905 256.17,81.22 256.8,81.865 C257.43,82.525 257.76,83.425 257.76,84.58 C257.76,85.66 257.37,86.545 256.605,87.235 C255.885,87.88 254.985,88.21 253.935,88.21 C252.99,88.21 252.18,87.955 251.52,87.445 C250.77,86.875 250.365,86.095 250.29,85.12 L251.505,85.12 C251.565,85.795 251.835,86.32 252.315,86.68 C252.735,86.995 253.29,87.16 253.95,87.16 C254.7,87.16 255.315,86.92 255.81,86.44 C256.29,85.96 256.545,85.345 256.545,84.595 C256.545,83.74 256.305,83.08 255.855,82.615 C255.42,82.135 254.805,81.91 254.025,81.91 C253.515,81.91 253.065,82.015 252.66,82.24 C252.24,82.45 251.91,82.78 251.7,83.2 L250.53,83.2 L251.1,77.29 Z M263.175,77.08 C264.165,77.08 264.975,77.365 265.62,77.935 C266.25,78.505 266.58,79.27 266.58,80.2 C266.58,81.13 266.22,81.97 265.53,82.72 C265.155,83.11 264.42,83.695 263.31,84.445 C261.945,85.36 261.165,86.185 260.97,86.905 L266.595,86.905 L266.595,88 L259.455,88 C259.455,87.025 259.8,86.14 260.52,85.345 C260.94,84.865 261.705,84.22 262.845,83.44 C263.685,82.84 264.24,82.405 264.525,82.105 C265.065,81.52 265.35,80.875 265.35,80.185 C265.35,79.525 265.155,79.03 264.765,78.67 C264.375,78.31 263.82,78.13 263.13,78.13 C262.395,78.13 261.825,78.37 261.435,78.88 C261.015,79.36 260.79,80.08 260.775,81.025 L259.545,81.025 C259.545,79.825 259.89,78.865 260.55,78.16 C261.21,77.44 262.095,77.08 263.175,77.08 Z M272.175,77.08 C273.165,77.08 273.975,77.365 274.62,77.935 C275.25,78.505 275.58,79.27 275.58,80.2 C275.58,81.13 275.22,81.97 274.53,82.72 C274.155,83.11 273.42,83.695 272.31,84.445 C270.945,85.36 270.165,86.185 269.97,86.905 L275.595,86.905 L275.595,88 L268.455,88 C268.455,87.025 268.8,86.14 269.52,85.345 C269.94,84.865 270.705,84.22 271.845,83.44 C272.685,82.84 273.24,82.405 273.525,82.105 C274.065,81.52 274.35,80.875 274.35,80.185 C274.35,79.525 274.155,79.03 273.765,78.67 C273.375,78.31 272.82,78.13 272.13,78.13 C271.395,78.13 270.825,78.37 270.435,78.88 C270.015,79.36 269.79,80.08 269.775,81.025 L268.545,81.025 C268.545,79.825 268.89,78.865 269.55,78.16 C270.21,77.44 271.095,77.08 272.175,77.08 Z M279.63,76.285 L288.42,76.285 L288.42,80.335 L279.63,80.335 L279.63,76.285 Z M287.31,79.36 L287.31,77.26 L280.74,77.26 L280.74,79.36 L287.31,79.36 Z M280.71,82.66 L277.275,82.66 L277.275,81.625 L290.76,81.625 L290.76,82.66 L281.805,82.66 L281.295,84.415 L288.63,84.415 C288.54,86.815 288.3,88.255 287.94,88.72 C287.58,89.17 286.89,89.395 285.87,89.395 C285.12,89.395 284.46,89.365 283.875,89.305 L283.515,88.315 C284.31,88.375 285.015,88.405 285.63,88.405 C286.44,88.405 286.935,88.24 287.13,87.91 C287.31,87.58 287.445,86.74 287.535,85.39 L280.005,85.39 L280.71,82.66 Z M292.275,83.605 L299.85,83.605 L299.85,84.625 L292.275,84.625 L292.275,83.605 Z M304.05,77.29 L305.01,77.29 L305.01,88 L303.78,88 L303.78,78.79 C303.105,79.48 302.265,79.96 301.26,80.26 L301.26,79.03 C301.74,78.895 302.25,78.685 302.76,78.385 C303.27,78.055 303.69,77.695 304.05,77.29 Z" id="杭州小肤科技有限公司-浙ICP备1700"></path>
                </g>
                <path d="M1,20.64 L4.24,9.78 L1.48,0.12 L3.13,0.12 C3.1700002,0.12 3.289999,0.1499997 3.49,0.21 C3.690001,0.2700003 3.8399995,0.4699983 3.94,0.81 L5.44,6.3 L6.85,0.81 C6.9500005,0.4699983 7.099999,0.2700003 7.3,0.21 C7.500001,0.1499997 7.6199998,0.12 7.66,0.12 L9.34,0.12 L6.67,9.81 L9.73,20.64 L7.45,20.64 L5.53,13.2 L3.43,20.64 L1,20.64 Z M15.76,0.12 C16.0800016,0.12 16.2999994,0.21499905 16.42,0.405 C16.5400006,0.59500095 16.6,0.7699992 16.6,0.93 L16.6,20.64 L15.1,20.64 C14.8599988,20.64 14.7050003,20.5900005 14.635,20.49 C14.5649996,20.3899995 14.5200001,20.2900005 14.5,20.19 L14.5,0.12 L15.76,0.12 Z M29.68,20.64 L27.37,20.64 L25.54,6.48 L23.68,20.64 L21.37,20.64 L24.49,0.12 L25.6,0.12 C26.0600023,0.12 26.3549993,0.23499885 26.485,0.465 C26.6150006,0.69500115 26.6999998,0.9499986 26.74,1.23 L29.68,20.64 Z M37.81,18.96 C38.1300016,18.96 38.3999989,18.8500011 38.62,18.63 C38.8400011,18.4099989 38.95,18.1400016 38.95,17.82 L38.95,2.97 C38.95,2.6499984 38.8400011,2.3800011 38.62,2.16 C38.3999989,1.9399989 38.1300016,1.83 37.81,1.83 L37.48,1.83 C37.1799985,1.8500001 36.9250011,1.96499895 36.715,2.175 C36.504999,2.38500105 36.4,2.6499984 36.4,2.97 L36.4,17.82 C36.4,18.1400016 36.504999,18.4049989 36.715,18.615 C36.9250011,18.8250011 37.1899984,18.9399999 37.51,18.96 L37.81,18.96 Z M38.53,0 C39.2100034,0.0400002 39.7999975,0.3099975 40.3,0.81 C40.8000025,1.3100025 41.05,1.9099965 41.05,2.61 L41.05,18.21 C41.05,18.5700018 40.9850006,18.8999985 40.855,19.2 C40.7249994,19.5000015 40.5450012,19.7649989 40.315,19.995 C40.0849988,20.2250012 39.8150015,20.4099993 39.505,20.55 C39.1949984,20.6900007 38.8700017,20.7699999 38.53,20.79 L36.91,20.79 C36.1899964,20.79 35.5750026,20.5400025 35.065,20.04 C34.5549974,19.5399975 34.3,18.9300036 34.3,18.21 L34.3,2.61 C34.3,1.8899964 34.5549974,1.27500255 35.065,0.765 C35.5750026,0.25499745 36.1899964,0 36.91,0 L38.53,0 Z M53.62,0.12 C53.4999994,0.3800013 53.3650008,0.67499835 53.215,1.005 C53.0649993,1.33500165 52.9700002,1.5399996 52.93,1.62 C52.8499996,1.7600007 52.7300008,1.89499935 52.57,2.025 C52.4099992,2.15500065 52.1600017,2.22 51.82,2.22 L49.48,2.22 C49.3399993,2.22 49.2200005,2.26499955 49.12,2.355 C49.0199995,2.44500045 48.97,2.5599993 48.97,2.7 L48.97,9.12 L52.72,9.09 C52.5999994,9.3700014 52.4650008,9.67499835 52.315,10.005 C52.1649993,10.3350017 52.0700002,10.5499995 52.03,10.65 C51.9499996,10.7900007 51.8250009,10.9199994 51.655,11.04 C51.4849992,11.1600006 51.2300017,11.22 50.89,11.22 L49.48,11.22 C49.3399993,11.22 49.2200005,11.2649995 49.12,11.355 C49.0199995,11.4450005 48.97,11.5599993 48.97,11.7 L48.97,20.01 C48.97,20.1900009 48.9100006,20.3399994 48.79,20.46 C48.6699994,20.5800006 48.5200009,20.64 48.34,20.64 L46.87,20.64 L46.87,0.72 C46.87,0.5599992 46.9349994,0.4200006 47.065,0.3 C47.1950007,0.1799994 47.3399992,0.12 47.5,0.12 L53.62,0.12 Z M63.4,0.12 L63.4,18.21 C63.3799999,18.9100035 63.1300024,19.5049976 62.65,19.995 C62.1699976,20.4850025 61.5800035,20.7499998 60.88,20.79 L59.26,20.79 C58.8999982,20.79 58.5600016,20.7200007 58.24,20.58 C57.9199984,20.4399993 57.6450012,20.2550012 57.415,20.025 C57.1849989,19.7949989 57.0000007,19.5250016 56.86,19.215 C56.7199993,18.9049985 56.65,18.5700018 56.65,18.21 L56.65,0.69 C56.65,0.5299992 56.7149993,0.39500055 56.845,0.285 C56.9750006,0.17499945 57.1199992,0.12 57.28,0.12 L58.75,0.12 L58.75,17.82 C58.75,18.1200015 58.854999,18.3799989 59.065,18.6 C59.2750011,18.8200011 59.5299985,18.93 59.83,18.93 L60.16,18.93 C60.4800016,18.93 60.7499989,18.8250011 60.97,18.615 C61.1900011,18.404999 61.3,18.1400016 61.3,17.82 L61.3,0.12 L63.4,0.12 Z M76.42,0.12 C76.2999994,0.3800013 76.1650007,0.67499835 76.015,1.005 C75.8649992,1.33500165 75.7700002,1.5399996 75.73,1.62 C75.6699997,1.7600007 75.5550008,1.8899994 75.385,2.01 C75.2149991,2.1300006 74.9600017,2.19 74.62,2.19 L72.97,2.19 C72.8099992,2.19 72.6850005,2.2399995 72.595,2.34 C72.5049995,2.4400005 72.46,2.5599993 72.46,2.7 L72.46,20.64 L70.84,20.64 C70.5999988,20.64 70.4450004,20.5850006 70.375,20.475 C70.3049996,20.3649994 70.2600001,20.2700004 70.24,20.19 L70.24,2.19 L67.3,2.19 L67.3,0.75 C67.3,0.5699991 67.3599994,0.4200006 67.48,0.3 C67.6000006,0.1799994 67.7499991,0.12 67.93,0.12 L76.42,0.12 Z M81.7,18.54 L86.11,18.54 C86.2500007,18.54 86.3000002,18.6149993 86.26,18.765 C86.2199998,18.9150008 86.1450005,19.0849991 86.035,19.275 C85.9249994,19.465001 85.8050006,19.6399992 85.675,19.8 C85.5449993,19.9600008 85.4600002,20.0499999 85.42,20.07 C85.3599997,20.2100007 85.2450008,20.3399994 85.075,20.46 C84.9049991,20.5800006 84.6500017,20.64 84.31,20.64 L79.6,20.64 L79.6,0.72 C79.6,0.5399991 79.6649993,0.39500055 79.795,0.285 C79.9250006,0.17499945 80.0699992,0.12 80.23,0.12 L85.72,0.12 C85.8600007,0.12 85.9100002,0.19499925 85.87,0.345 C85.8299998,0.49500075 85.7550005,0.6599991 85.645,0.84 C85.5349994,1.0200009 85.4150006,1.1899992 85.285,1.35 C85.1549993,1.5100008 85.0700002,1.5999999 85.03,1.62 C84.9699997,1.7600007 84.8550008,1.89499935 84.685,2.025 C84.5149991,2.15500065 84.2600017,2.22 83.92,2.22 L82.21,2.22 C82.0699993,2.22 81.9500005,2.26499955 81.85,2.355 C81.7499995,2.44500045 81.7,2.5599993 81.7,2.7 L81.7,8.82 L84.88,8.82 C85.0200007,8.82 85.0750001,8.89499925 85.045,9.045 C85.0149998,9.19500075 84.9450006,9.36499905 84.835,9.555 C84.7249994,9.74500095 84.6000007,9.9199992 84.46,10.08 C84.3199993,10.2400008 84.2300002,10.3299999 84.19,10.35 C84.1299997,10.5100008 84.0150008,10.6499994 83.845,10.77 C83.6749991,10.8900006 83.4200017,10.95 83.08,10.95 L82.21,10.92 C82.0699993,10.92 81.9500005,10.9699995 81.85,11.07 C81.7499995,11.1700005 81.7,11.2899993 81.7,11.43 L81.7,18.54 Z M95.98,18.18 C95.98,18.8800035 95.7350024,19.4799975 95.245,19.98 C94.7549975,20.4800025 94.1600035,20.7499998 93.46,20.79 L92.14,20.79 C91.4199964,20.79 90.8100025,20.5350026 90.31,20.025 C89.8099975,19.5149974 89.56,18.9000036 89.56,18.18 L89.56,2.61 C89.56,1.8899964 89.8099975,1.27500255 90.31,0.765 C90.8100025,0.25499745 91.4199964,0 92.14,0 L93.46,0 C94.1600035,0.0400002 94.7549975,0.3099975 95.245,0.81 C95.7350024,1.3100025 95.98,1.9099965 95.98,2.61 L95.98,5.7 C95.98,6.0400017 95.9200006,6.29499915 95.8,6.465 C95.6799994,6.63500085 95.5500007,6.7599996 95.41,6.84 C95.3099995,6.8800002 95.1000016,6.97499925 94.78,7.125 C94.4599984,7.27500075 94.1600014,7.4099994 93.88,7.53 L93.88,2.94 C93.88,2.6399985 93.7700011,2.39500095 93.55,2.205 C93.3299989,2.01499905 93.0700015,1.92 92.77,1.92 C92.4499984,1.92 92.1850011,2.01499905 91.975,2.205 C91.764999,2.39500095 91.66,2.6399985 91.66,2.94 L91.66,17.85 C91.66,18.1500015 91.764999,18.4099989 91.975,18.63 C92.1850011,18.8500011 92.4499984,18.96 92.77,18.96 C93.0700015,18.96 93.3299989,18.8500011 93.55,18.63 C93.7700011,18.4099989 93.88,18.1500015 93.88,17.85 L93.88,15.09 C93.88,14.7499983 93.9399994,14.4950009 94.06,14.325 C94.1800006,14.1549992 94.3099993,14.0300004 94.45,13.95 C94.5500005,13.9099998 94.7649983,13.8150008 95.095,13.665 C95.4250016,13.5149993 95.7199987,13.3800006 95.98,13.26 L95.98,18.18 Z M107.17,0.12 C107.490002,0.12 107.709999,0.2099991 107.83,0.39 C107.950001,0.5700009 108.01,0.7499991 108.01,0.93 L108.01,20.64 L105.91,20.64 L105.91,11.7 C105.87,11.3999985 105.700001,11.25 105.4,11.25 L103.12,11.25 L103.12,20.64 L101.02,20.64 L101.02,0.93 C101.02,0.7499991 101.079999,0.5700009 101.2,0.39 C101.320001,0.2099991 101.539998,0.12 101.86,0.12 L103.12,0.12 L103.12,8.4 C103.12,8.7000015 103.179999,8.8999995 103.3,9 C103.420001,9.1000005 103.599999,9.15 103.84,9.15 L105.91,9.15 L105.91,0.12 L107.17,0.12 Z" id="XIAOFUTECH" fill="#FFFFFF"></path>
            </g>
        </g>
    </g>
</svg>