<?xml version="1.0" encoding="UTF-8"?>
<svg width="18px" height="32px" viewBox="0 0 18 32" version="1.1" xmlns="http://www.w3.org/2000/svg" xmlns:xlink="http://www.w3.org/1999/xlink">
    <!-- Generator: Sketch 45.1 (43504) - http://www.bohemiancoding.com/sketch -->
    <title>jiantou</title>
    <desc>Created with Sketch.</desc>
    <defs></defs>
    <g id="Page-1" stroke="none" stroke-width="1" fill="none" fill-rule="evenodd">
        <g id="新版" transform="translate(-711.000000, -965.000000)" fill-rule="nonzero" fill="#3E9BFF">
            <g id="1" transform="translate(-2.000000, 0.000000)">
                <g id="向下" transform="translate(713.000000, 965.000000)">
                    <path d="M11.2387312,29.7163785 C11.0001532,29.9533563 10.6938355,30.0683938 10.3817176,30.1004428 C10.3071543,30.8045659 9.72835761,31.36 9.00015507,31.36 C8.27164236,31.36 7.69306283,30.8045351 7.6168866,30.1004428 C7.30616453,30.0683938 6.99984675,29.9533255 6.76126877,29.7163785 L0.773929072,23.7675878 C0.222023643,23.2192415 0.222023643,22.331422 0.773929072,21.7830757 C1.32443879,21.236116 2.21795863,21.236116 2.76986406,21.7830757 L8.75729684,27.7332531 C8.86610229,27.8400009 8.93365596,27.9675499 9.0001861,28.0951296 C9.06497933,27.9675499 9.13417687,27.8400009 9.24264115,27.7332531 L15.2304151,21.7830757 C15.7822275,21.236116 16.6755612,21.236116 17.2260709,21.7830757 C17.7779764,22.331422 17.7779764,23.2192414 17.2260709,23.7675878 L11.2387312,29.7163785 L11.2387312,29.7163785 Z M9.0001861,20.0078375 C7.92425893,20.0078375 7.05077568,19.1400795 7.05077568,18.0710907 C7.05077568,17.0019478 7.92425893,16.134159 9.0001861,16.134159 C10.0762063,16.134159 10.9492554,17.001917 10.9492554,18.0710907 C10.9492553,19.1400487 10.0761753,20.0078375 9.0001861,20.0078375 L9.0001861,20.0078375 Z M9.0001861,12.2605423 C7.92425893,12.2605423 7.05077568,11.3927843 7.05077568,10.3238571 C7.05077568,9.2546218 7.92425893,8.38692546 9.0001861,8.38692546 C10.0762063,8.38692546 10.9492554,9.2546218 10.9492554,10.3238571 C10.9492553,11.3927843 10.0761753,12.2605423 9.0001861,12.2605423 L9.0001861,12.2605423 Z M9.0001861,4.51377089 C7.92425893,4.51377089 7.05077568,3.64592049 7.05077568,2.57693167 C7.05077568,1.5078504 7.92425893,0.64 9.0001861,0.64 C10.0762063,0.64 10.9492554,1.5078504 10.9492554,2.57693167 C10.9492553,3.64592049 10.0761753,4.51377089 9.0001861,4.51377089 L9.0001861,4.51377089 Z" id="jiantou"></path>
                </g>
            </g>
        </g>
    </g>
</svg>