<?xml version="1.0" encoding="UTF-8"?>
<svg width="94px" height="41px" viewBox="0 0 94 41" version="1.1" xmlns="http://www.w3.org/2000/svg" xmlns:xlink="http://www.w3.org/1999/xlink">
    <!-- Generator: Sketch 45.2 (43514) - http://www.bohemiancoding.com/sketch -->
    <title>Group 35</title>
    <desc>Created with Sketch.</desc>
    <defs></defs>
    <g id="Page-1" stroke="none" stroke-width="1" fill="none" fill-rule="evenodd">
        <g id="首页" transform="translate(-877.000000, -31.000000)">
            <g id="导航">
                <g id="Group-22" transform="translate(749.000000, 31.000000)">
                    <g id="Group-35" transform="translate(128.000000, 0.000000)">
                        <rect id="Rectangle-18" fill-opacity="0.01" fill="#D8D8D8" x="0" y="0" width="94" height="41"></rect>
                        <path d="M24.44,22.392 L26.472,22.392 L26.472,24.584 L22.904,24.584 L22.904,25.4 L26.472,25.4 L26.472,28.6 L27.32,28.6 L27.32,25.4 L30.184,25.4 L30.184,24.584 L27.32,24.584 L27.32,22.392 L29.848,22.392 L29.848,21.592 L27.32,21.592 L27.32,20.04 L26.472,20.04 L26.472,21.592 L24.744,21.592 C24.872,21.208 24.984,20.776 25.08,20.312 L24.344,20.168 C24.088,21.48 23.608,22.536 22.904,23.32 L23.416,23.944 C23.816,23.512 24.152,23 24.44,22.392 Z M25.304,15.784 C25.192,16.36 25.016,16.888 24.76,17.352 C24.392,17.976 23.832,18.52 23.096,18.968 L23.592,19.624 C24.392,19.096 25,18.504 25.416,17.832 C25.736,17.256 25.96,16.568 26.12,15.784 L28.76,15.784 C28.728,17.08 28.648,17.88 28.536,18.184 C28.408,18.488 28.088,18.648 27.608,18.664 C27.256,18.648 26.792,18.632 26.248,18.6 L26.456,19.352 C26.984,19.368 27.432,19.384 27.8,19.384 C28.456,19.384 28.92,19.176 29.176,18.76 C29.432,18.344 29.576,17.096 29.592,15.016 L23.064,15.016 L23.064,15.784 L25.304,15.784 Z M17.496,21.592 L17.496,23.416 C17.496,23.576 17.48,23.736 17.48,23.896 L19.176,23.896 L19.176,21.592 L17.496,21.592 Z M19.912,21.592 L19.912,23.896 L21.64,23.896 L21.64,21.592 L19.912,21.592 Z M21.64,20.824 L21.64,18.616 L19.912,18.616 L19.912,20.824 L21.64,20.824 Z M19.176,20.824 L19.176,18.616 L17.496,18.616 L17.496,20.824 L19.176,20.824 Z M17.448,24.648 C17.32,26.264 16.952,27.608 16.344,28.68 L15.752,28.136 C16.392,26.92 16.712,25.368 16.728,23.48 L16.728,18.232 C16.6,18.376 16.488,18.52 16.36,18.648 L15.832,18.008 C16.84,16.92 17.64,15.544 18.216,13.88 L19.016,14.072 C18.872,14.472 18.728,14.856 18.568,15.224 L21.512,15.224 L21.512,15.848 C21.112,16.632 20.728,17.304 20.344,17.848 L22.392,17.848 L22.392,27.352 C22.392,28.088 22.024,28.456 21.288,28.456 L20.168,28.456 L19.976,27.72 C20.36,27.736 20.712,27.752 21.048,27.752 C21.432,27.752 21.64,27.528 21.64,27.096 L21.64,24.648 L17.448,24.648 Z M19.432,17.848 C19.832,17.304 20.216,16.68 20.568,15.976 L18.2,15.976 C17.848,16.648 17.448,17.272 17.032,17.848 L19.432,17.848 Z M36.696,16.504 L40.088,16.504 L40.088,13.976 L40.936,13.976 L40.936,16.504 L44.616,16.504 L44.616,21.208 L46.12,21.208 L46.12,22.024 L40.52,22.024 C39.816,25 38.152,27.16 35.56,28.504 L35.016,27.784 C37.448,26.6 39,24.68 39.672,22.024 L36.072,22.024 L36.072,21.208 L39.848,21.208 C40.008,20.376 40.088,19.496 40.088,18.568 L40.088,17.32 L36.696,17.32 L36.696,16.504 Z M40.936,17.32 L40.936,18.376 C40.936,19.384 40.856,20.328 40.696,21.208 L43.768,21.208 L43.768,17.32 L40.936,17.32 Z M32.76,14.488 C33.784,15.928 34.584,17.192 35.128,18.28 L34.408,18.792 C33.832,17.624 33.048,16.344 32.04,14.936 L32.76,14.488 Z M34.472,21.064 L35.256,21.384 C34.552,23.784 33.752,26.024 32.872,28.12 L32.024,27.752 C32.968,25.576 33.784,23.336 34.472,21.064 Z M45.704,28.424 C44.136,26.568 42.632,25.032 41.224,23.848 L41.816,23.288 C43.096,24.312 44.6,25.816 46.328,27.816 L45.704,28.424 Z M48.136,16.408 L48.136,17.256 L52.664,17.256 C52.648,17.8 52.616,18.632 52.568,19.768 C52.472,21.304 52.168,22.696 51.624,23.944 C51.032,25.192 49.88,26.536 48.184,27.976 L48.824,28.584 C50.2,27.448 51.304,26.216 52.104,24.872 C52.68,23.768 53.064,22.552 53.256,21.224 L59.144,21.224 C59.144,23.448 59.096,24.936 59,25.704 C58.808,26.952 58.248,27.608 57.32,27.656 C56.776,27.656 56.104,27.624 55.304,27.592 L55.56,28.392 C56.28,28.424 56.904,28.44 57.416,28.44 C58.68,28.392 59.448,27.656 59.72,26.216 C59.896,25.288 59.992,23.352 60.024,20.392 L53.352,20.392 C53.352,20.328 53.368,20.28 53.368,20.232 C53.448,18.904 53.496,17.912 53.528,17.256 L62.024,17.256 L62.024,16.408 L56.008,16.408 C55.624,15.448 55.192,14.616 54.728,13.928 L53.896,14.232 C54.376,14.904 54.792,15.64 55.128,16.408 L48.136,16.408 Z M69.944,16.488 L70.744,16.744 C70.424,17.192 70.12,17.608 69.832,17.976 L77.352,17.976 L77.352,18.696 L74.616,18.696 C73.992,19.544 73.32,20.216 72.6,20.712 C74.072,21.096 75.576,21.544 77.128,22.072 L76.632,22.744 C75,22.152 73.352,21.64 71.72,21.208 C70.024,22.024 67.8,22.44 65.048,22.472 L64.568,21.768 C67.112,21.768 69.128,21.48 70.6,20.92 C69.432,20.616 68.264,20.36 67.096,20.136 C67.512,19.656 67.928,19.176 68.312,18.696 L64.68,18.696 L64.68,17.976 L68.872,17.976 C69.24,17.464 69.592,16.968 69.944,16.488 Z M71.592,20.456 C72.456,19.944 73.16,19.368 73.688,18.696 L69.272,18.696 C68.952,19.096 68.648,19.448 68.376,19.752 C69.432,19.944 70.504,20.168 71.592,20.456 Z M77.368,15.32 L77.368,17.448 L76.552,17.448 L76.552,16.056 L65.448,16.056 L65.448,17.448 L64.632,17.448 L64.632,15.32 L70.696,15.32 C70.472,14.856 70.248,14.44 69.992,14.072 L70.904,13.912 C71.128,14.328 71.336,14.792 71.544,15.32 L77.368,15.32 Z M64.184,23.576 L70.6,23.576 L70.6,22.248 L71.464,22.248 L71.464,23.576 L77.832,23.576 L77.832,24.344 L72.312,24.344 C73.496,25.576 75.384,26.552 78.008,27.256 L77.64,28.008 C74.728,27.08 72.68,25.864 71.512,24.344 L71.464,24.344 L71.464,28.552 L70.6,28.552 L70.6,24.344 L70.536,24.344 C69.512,25.816 67.496,27.064 64.504,28.12 L64.04,27.352 C66.888,26.472 68.792,25.464 69.752,24.344 L64.184,24.344 L64.184,23.576 Z" id="解决方案" fill="#0D2A50"></path>
                    </g>
                </g>
            </g>
        </g>
    </g>
</svg>