<?xml version="1.0" encoding="UTF-8"?>
<svg width="94px" height="41px" viewBox="0 0 94 41" version="1.1" xmlns="http://www.w3.org/2000/svg" xmlns:xlink="http://www.w3.org/1999/xlink">
    <!-- Generator: Sketch 45.2 (43514) - http://www.bohemiancoding.com/sketch -->
    <title>Group 36</title>
    <desc>Created with Sketch.</desc>
    <defs></defs>
    <g id="Page-1" stroke="none" stroke-width="1" fill="none" fill-rule="evenodd">
        <g id="首页" transform="translate(-1022.000000, -31.000000)">
            <g id="导航">
                <g id="Group-22" transform="translate(749.000000, 31.000000)">
                    <g id="Group-36" transform="translate(273.000000, 0.000000)">
                        <rect id="Rectangle-18" fill-opacity="0.01" fill="#D8D8D8" x="0" y="0" width="94" height="41"></rect>
                        <path d="M21.952,18.44 L21.952,26.056 C21.952,26.504 21.696,26.744 21.216,26.744 C20.304,26.744 19.456,26.712 18.688,26.648 L18.928,27.496 C19.632,27.528 20.48,27.56 21.456,27.56 C22.352,27.56 22.8,27.112 22.8,26.232 L22.8,18.872 C24.688,17.64 26.4,16.344 27.904,14.968 L27.904,14.136 L16,14.136 L16,14.968 L26.72,14.968 C25.216,16.28 23.616,17.448 21.952,18.44 Z M39.568,21.512 L41.6,21.512 L41.6,23.704 L38.032,23.704 L38.032,24.52 L41.6,24.52 L41.6,27.72 L42.448,27.72 L42.448,24.52 L45.312,24.52 L45.312,23.704 L42.448,23.704 L42.448,21.512 L44.976,21.512 L44.976,20.712 L42.448,20.712 L42.448,19.16 L41.6,19.16 L41.6,20.712 L39.872,20.712 C40,20.328 40.112,19.896 40.208,19.432 L39.472,19.288 C39.216,20.6 38.736,21.656 38.032,22.44 L38.544,23.064 C38.944,22.632 39.28,22.12 39.568,21.512 Z M40.432,14.904 C40.32,15.48 40.144,16.008 39.888,16.472 C39.52,17.096 38.96,17.64 38.224,18.088 L38.72,18.744 C39.52,18.216 40.128,17.624 40.544,16.952 C40.864,16.376 41.088,15.688 41.248,14.904 L43.888,14.904 C43.856,16.2 43.776,17 43.664,17.304 C43.536,17.608 43.216,17.768 42.736,17.784 C42.384,17.768 41.92,17.752 41.376,17.72 L41.584,18.472 C42.112,18.488 42.56,18.504 42.928,18.504 C43.584,18.504 44.048,18.296 44.304,17.88 C44.56,17.464 44.704,16.216 44.72,14.136 L38.192,14.136 L38.192,14.904 L40.432,14.904 Z M32.624,20.712 L32.624,22.536 C32.624,22.696 32.608,22.856 32.608,23.016 L34.304,23.016 L34.304,20.712 L32.624,20.712 Z M35.04,20.712 L35.04,23.016 L36.768,23.016 L36.768,20.712 L35.04,20.712 Z M36.768,19.944 L36.768,17.736 L35.04,17.736 L35.04,19.944 L36.768,19.944 Z M34.304,19.944 L34.304,17.736 L32.624,17.736 L32.624,19.944 L34.304,19.944 Z M32.576,23.768 C32.448,25.384 32.08,26.728 31.472,27.8 L30.88,27.256 C31.52,26.04 31.84,24.488 31.856,22.6 L31.856,17.352 C31.728,17.496 31.616,17.64 31.488,17.768 L30.96,17.128 C31.968,16.04 32.768,14.664 33.344,13 L34.144,13.192 C34,13.592 33.856,13.976 33.696,14.344 L36.64,14.344 L36.64,14.968 C36.24,15.752 35.856,16.424 35.472,16.968 L37.52,16.968 L37.52,26.472 C37.52,27.208 37.152,27.576 36.416,27.576 L35.296,27.576 L35.104,26.84 C35.488,26.856 35.84,26.872 36.176,26.872 C36.56,26.872 36.768,26.648 36.768,26.216 L36.768,23.768 L32.576,23.768 Z M34.56,16.968 C34.96,16.424 35.344,15.8 35.696,15.096 L33.328,15.096 C32.976,15.768 32.576,16.392 32.16,16.968 L34.56,16.968 Z M53.456,27.496 C54.4,27.496 54.88,27.016 54.88,26.056 L54.88,13.336 L53.984,13.336 L53.984,25.832 C53.984,26.392 53.696,26.68 53.136,26.68 C52.368,26.68 51.568,26.648 50.72,26.616 L50.928,27.496 L53.456,27.496 Z M49.712,17.048 C49.04,19.992 48.048,22.344 46.736,24.072 L47.488,24.712 C48.768,23.032 49.792,20.584 50.576,17.384 L49.712,17.048 Z M58.384,16.68 L57.6,17.16 C58.912,19.944 59.952,22.472 60.72,24.776 L61.504,24.232 C60.784,22.088 59.744,19.56 58.384,16.68 Z M69.424,15.816 L69.424,16.648 L72.56,16.648 L72.56,18.328 C72.56,18.936 72.512,19.528 72.432,20.12 L68.976,20.12 L68.976,20.952 L72.288,20.952 C71.792,23.288 70.592,25.336 68.704,27.096 L69.376,27.656 C71.168,25.96 72.352,23.992 72.96,21.752 C73.792,24.12 75.136,26.104 76.96,27.672 L77.52,27.016 C75.664,25.512 74.32,23.48 73.504,20.952 L77.184,20.952 L77.184,20.12 L73.28,20.12 C73.344,19.544 73.392,18.936 73.408,18.328 L73.408,16.648 L76.544,16.648 L76.544,15.816 L73.408,15.816 L73.408,13.144 L72.56,13.144 L72.56,15.816 L69.424,15.816 Z M68.144,13.816 L68.144,26.44 C68.144,27.24 67.728,27.64 66.912,27.64 L65.76,27.64 L65.552,26.856 C65.936,26.872 66.304,26.888 66.656,26.888 C67.104,26.888 67.344,26.632 67.344,26.152 L67.344,22.072 C66.544,22.312 65.664,22.52 64.736,22.68 C64.64,24.712 64.288,26.392 63.712,27.72 L63.056,27.128 C63.648,25.624 63.952,23.72 63.968,21.416 L63.968,13.816 L68.144,13.816 Z M64.768,21.864 C65.712,21.704 66.576,21.512 67.344,21.272 L67.344,18.936 C66.512,18.648 65.648,18.408 64.784,18.248 L64.784,21.368 C64.784,21.528 64.768,21.704 64.768,21.864 Z M64.784,17.464 C65.68,17.64 66.528,17.864 67.344,18.152 L67.344,14.632 L64.784,14.632 L64.784,17.464 Z" id="了解小肤" fill="#707070"></path>
                    </g>
                </g>
            </g>
        </g>
    </g>
</svg>