<?xml version="1.0" encoding="UTF-8"?>
<svg width="93px" height="29px" viewBox="0 0 93 29" version="1.1" xmlns="http://www.w3.org/2000/svg" xmlns:xlink="http://www.w3.org/1999/xlink">
    <!-- Generator: Sketch 45.2 (43514) - http://www.bohemiancoding.com/sketch -->
    <title>Group 2</title>
    <desc>Created with Sketch.</desc>
    <defs>
        <linearGradient x1="50%" y1="0%" x2="50%" y2="100%" id="linearGradient-1">
            <stop stop-color="#2DA8F5" offset="0%"></stop>
            <stop stop-color="#2E7BE6" offset="100%"></stop>
        </linearGradient>
        <path d="M4,-1.34728383e-15 L86.5806452,-1.34728383e-15 L86.5806452,-1.77635684e-15 C88.7897842,-2.18217371e-15 90.5806452,1.790861 90.5806452,4 L90.5806452,23 L90.5806452,23 C90.5806452,25.209139 88.7897842,27 86.5806452,27 L4,27 L4,27 C1.790861,27 2.705415e-16,25.209139 0,23 L0,4 L-8.8817842e-16,4 C-1.15871992e-15,1.790861 1.790861,-1.37053997e-15 4,-1.77635684e-15 Z" id="path-2"></path>
    </defs>
    <g id="Page-1" stroke="none" stroke-width="1" fill="none" fill-rule="evenodd">
        <g id="按钮状态" transform="translate(-321.000000, -62.000000)">
            <g id="Group-2" transform="translate(322.000000, 63.000000)">
                <g id="操作指引-copy">
                    <g id="Rectangle-3">
                        <use fill="url(#linearGradient-1)" fill-rule="evenodd" xlink:href="#path-2"></use>
                        <path stroke="#0C57BA" stroke-width="0.5" d="M4,-0.25 L86.5806452,-0.25 C88.9278553,-0.25 90.8306452,1.65278981 90.8306452,4 L90.8306452,23 C90.8306452,25.3472102 88.9278553,27.25 86.5806452,27.25 L4,27.25 C1.65278981,27.25 -0.25,25.3472102 -0.25,23 L-0.25,4 C-0.25,1.65278981 1.65278981,-0.25 4,-0.25 Z"></path>
                    </g>
                    <path d="M26.773,15.777 L24.433,15.777 L24.433,14.932 L27.839,14.932 L27.839,14.152 L28.736,14.152 L28.736,14.932 L32.142,14.932 L32.142,15.777 L29.75,15.777 C30.322,16.635 31.245,17.389 32.519,18.065 L31.908,18.819 C30.53,17.909 29.542,16.895 28.97,15.777 L28.736,15.777 L28.736,19.261 L27.839,19.261 L27.839,15.777 L27.579,15.777 C26.942,17.012 25.928,18.039 24.524,18.858 L24.043,18.052 C25.278,17.454 26.188,16.687 26.773,15.777 Z M24.355,12.761 L24.355,13.684 C23.939,13.905 23.523,14.113 23.107,14.295 L23.107,18.117 C23.107,18.819 22.743,19.183 22.028,19.183 L20.988,19.183 L20.793,18.286 C21.105,18.325 21.417,18.351 21.703,18.351 C22.015,18.351 22.171,18.195 22.171,17.883 L22.171,14.685 C21.729,14.867 21.274,15.023 20.819,15.166 L20.598,14.23 C21.144,14.1 21.664,13.944 22.171,13.762 L22.171,10.772 L20.715,10.772 L20.715,9.875 L22.171,9.875 L22.171,7.431 L23.107,7.431 L23.107,9.875 L24.472,9.875 L24.472,10.772 L23.107,10.772 L23.107,13.385 C23.523,13.19 23.939,12.982 24.355,12.761 Z M25.798,7.847 L30.777,7.847 L30.777,10.499 L25.798,10.499 L25.798,7.847 Z M29.919,9.758 L29.919,8.588 L26.643,8.588 L26.643,9.758 L29.919,9.758 Z M24.732,11.279 L27.904,11.279 L27.904,13.853 L24.732,13.853 L24.732,11.279 Z M27.137,13.177 L27.137,11.955 L25.512,11.955 L25.512,13.177 L27.137,13.177 Z M28.671,11.279 L31.869,11.279 L31.869,13.853 L28.671,13.853 L28.671,11.279 Z M31.102,13.177 L31.102,11.955 L29.438,11.955 L29.438,13.177 L31.102,13.177 Z M39.292,10.135 C38.694,11.396 38.005,12.488 37.225,13.424 L36.562,12.631 C37.706,11.279 38.655,9.498 39.383,7.301 L40.319,7.509 C40.111,8.107 39.903,8.679 39.695,9.212 L45.311,9.212 L45.311,10.135 L40.943,10.135 L40.943,12.28 L44.739,12.28 L44.739,13.19 L40.943,13.19 L40.943,15.387 L44.817,15.387 L44.817,16.284 L40.943,16.284 L40.943,19.313 L39.994,19.313 L39.994,10.135 L39.292,10.135 Z M35.132,12.007 C34.716,12.553 34.261,13.073 33.767,13.567 L33.455,12.579 C34.859,11.058 35.886,9.316 36.523,7.34 L37.407,7.756 C37.056,8.77 36.614,9.719 36.094,10.603 L36.094,19.313 L35.132,19.313 L35.132,12.007 Z M57.739,13.216 L57.739,19.3 L56.803,19.3 L56.803,18.637 L52.734,18.637 L52.734,19.3 L51.811,19.3 L51.811,13.216 L57.739,13.216 Z M52.734,17.805 L56.803,17.805 L56.803,16.323 L52.734,16.323 L52.734,17.805 Z M52.734,15.491 L56.803,15.491 L56.803,14.035 L52.734,14.035 L52.734,15.491 Z M48.327,19.183 C49.055,19.183 49.432,18.806 49.432,18.065 L49.432,14.36 C49.965,14.152 50.498,13.918 51.018,13.684 L51.018,12.735 C50.498,12.982 49.978,13.216 49.432,13.437 L49.432,10.772 L50.875,10.772 L50.875,9.875 L49.432,9.875 L49.432,7.431 L48.535,7.431 L48.535,9.875 L46.78,9.875 L46.78,10.772 L48.535,10.772 L48.535,13.749 C47.885,13.957 47.235,14.139 46.572,14.282 L46.793,15.218 C47.378,15.062 47.963,14.88 48.535,14.685 L48.535,17.831 C48.535,18.169 48.353,18.351 48.002,18.351 C47.612,18.351 47.209,18.325 46.78,18.286 L46.975,19.183 L48.327,19.183 Z M57.856,8.445 L52.591,8.666 L52.591,7.483 L51.694,7.483 L51.694,11.006 C51.694,11.656 52.019,11.981 52.695,11.981 L58.103,11.981 L58.103,11.123 L53.15,11.123 C52.773,11.123 52.591,10.954 52.591,10.616 L52.591,9.511 L57.856,9.277 L57.856,8.445 Z M69.049,7.379 L69.049,19.313 L69.985,19.313 L69.985,7.379 L69.049,7.379 Z M61.405,11.656 L65.877,11.656 L65.877,7.899 L60.222,7.899 L60.222,8.757 L64.954,8.757 L64.954,10.785 L60.625,10.785 L59.949,14.659 L65.071,14.659 C65.071,16.18 64.993,17.181 64.85,17.662 C64.694,18.117 64.109,18.351 63.121,18.351 C62.705,18.351 62.289,18.325 61.873,18.299 L62.107,19.17 C62.523,19.196 62.926,19.222 63.329,19.222 C64.746,19.17 65.552,18.78 65.734,18.052 C65.916,17.376 66.007,15.959 66.007,13.814 L60.95,13.814 L61.405,11.656 Z" id="操作指引" fill="#FFFFFF"></path>
                </g>
                <path d="M4,-1.34728383e-15 L86.5806452,-1.34728383e-15 L86.5806452,-1.77635684e-15 C88.7897842,-2.18217371e-15 90.5806452,1.790861 90.5806452,4 L90.5806452,23 L90.5806452,23 C90.5806452,25.209139 88.7897842,27 86.5806452,27 L4,27 L4,27 C1.790861,27 2.705415e-16,25.209139 0,23 L0,4 L-8.8817842e-16,4 C-1.15871992e-15,1.790861 1.790861,-1.37053997e-15 4,-1.77635684e-15 Z" id="Rectangle-3" fill="#0D2A50" opacity="0.449999988"></path>
            </g>
        </g>
    </g>
</svg>