<?xml version="1.0" encoding="UTF-8"?>
<svg width="29px" height="15px" viewBox="0 0 29 15" version="1.1" xmlns="http://www.w3.org/2000/svg" xmlns:xlink="http://www.w3.org/1999/xlink">
    <!-- Generator: Sketch 45.1 (43504) - http://www.bohemiancoding.com/sketch -->
    <title>txt-2.3</title>
    <desc>Created with Sketch.</desc>
    <defs></defs>
    <g id="Page-1" stroke="none" stroke-width="1" fill="none" fill-rule="evenodd">
        <g id="新版" transform="translate(-580.000000, -1736.000000)" fill="#38393B">
            <g id="2" transform="translate(-5.000000, 1022.000000)">
                <g id="内容" transform="translate(0.000000, 282.000000)">
                    <g id="3图" transform="translate(160.000000, 295.000000)">
                        <path d="M433.73,137.58 C433.895,138.015 434.06,138.51 434.24,139.065 L438.965,139.065 L438.965,140.055 L428.885,140.055 L428.885,143.82 C428.825,147.03 428.15,149.595 426.89,151.515 L426.065,150.78 C426.995,149.43 427.55,147.69 427.76,145.53 C427.16,146.055 426.515,146.55 425.825,147.03 L425.51,145.98 C426.365,145.485 427.145,144.93 427.835,144.33 C427.835,144.15 427.85,143.97 427.85,143.82 L427.85,139.065 L433.145,139.065 C432.995,138.585 432.815,138.15 432.635,137.76 L433.73,137.58 Z M426.44,140.085 C426.92,140.97 427.34,141.915 427.7,142.92 L426.83,143.28 C426.455,142.2 426.05,141.24 425.6,140.43 L426.44,140.085 Z M430.64,143.43 L437.69,143.43 L437.69,146.985 L430.64,146.985 L430.64,143.43 Z M436.715,146.055 L436.715,144.36 L431.615,144.36 L431.615,146.055 L436.715,146.055 Z M436.25,147.345 L437.255,147.6 C436.925,148.44 436.55,149.205 436.1,149.895 L439.295,149.895 L439.295,150.915 L428.795,150.915 L428.795,149.895 L435.005,149.895 C435.47,149.175 435.89,148.32 436.25,147.345 Z M431.96,147.345 C432.35,147.975 432.68,148.71 432.98,149.535 L432.08,149.76 C431.81,149.025 431.48,148.32 431.075,147.63 L431.96,147.345 Z M429.635,141.3 L438.68,141.3 L438.68,142.275 L429.635,142.275 L429.635,141.3 Z M442.76,144.18 L447.065,144.18 L447.065,143.145 L442.76,143.145 L442.76,139.8 C444.53,139.47 446.09,139.065 447.44,138.6 L446.765,137.745 C445.235,138.255 443.54,138.66 441.68,138.975 L441.68,148.275 C441.68,148.56 441.53,148.785 441.23,148.935 L441.665,149.835 C443.555,149.475 445.385,149.04 447.185,148.545 L446.9,147.555 C445.46,147.96 444.08,148.305 442.76,148.575 L442.76,144.18 Z M452.3,149.49 C453.23,149.49 453.695,148.995 453.695,148.02 L453.695,138.585 L448.115,138.585 L448.115,151.515 L449.21,151.515 L449.21,139.605 L452.6,139.605 L452.6,147.795 C452.6,148.245 452.375,148.47 451.94,148.47 L450.545,148.44 L450.845,149.49 L452.3,149.49 Z" id="txt-2.3"></path>
                    </g>
                </g>
            </g>
        </g>
    </g>
</svg>