<?xml version="1.0" encoding="UTF-8"?>
<svg width="60px" height="15px" viewBox="0 0 60 15" version="1.1" xmlns="http://www.w3.org/2000/svg" xmlns:xlink="http://www.w3.org/1999/xlink">
    <!-- Generator: Sketch 45.1 (43504) - http://www.bohemiancoding.com/sketch -->
    <title>txt-2.2</title>
    <desc>Created with Sketch.</desc>
    <defs></defs>
    <g id="Page-1" stroke="none" stroke-width="1" fill="none" fill-rule="evenodd">
        <g id="新版" transform="translate(-373.000000, -1736.000000)" fill="#38393B">
            <g id="2" transform="translate(-5.000000, 1022.000000)">
                <g id="内容" transform="translate(0.000000, 282.000000)">
                    <g id="3图" transform="translate(160.000000, 295.000000)">
                        <path d="M229.91,151.275 C230.57,151.275 231.05,151.14 231.35,150.9 C231.695,150.6 231.935,149.79 232.055,148.47 L230.99,148.14 C230.93,149.16 230.78,149.76 230.54,149.97 C230.39,150.15 230.105,150.24 229.685,150.24 L225.665,150.24 C225.17,150.24 224.93,149.97 224.93,149.43 L224.93,146.955 L231.815,146.265 L231.815,145.215 L224.93,145.905 L224.93,143.445 L230.555,142.83 L230.555,141.795 L224.93,142.395 L224.93,139.92 C226.79,139.68 228.575,139.35 230.285,138.93 L229.76,138.03 C227.03,138.72 223.61,139.185 219.53,139.41 L219.86,140.34 C221.21,140.28 222.53,140.19 223.82,140.055 L223.82,142.515 L219.905,142.935 L219.905,143.985 L223.82,143.565 L223.82,146.01 L218.72,146.52 L218.72,147.57 L223.82,147.06 L223.82,149.655 C223.82,150.735 224.315,151.275 225.32,151.275 L229.91,151.275 Z M245.525,151.425 C246.095,151.425 246.515,151.26 246.785,150.945 C247.085,150.555 247.28,149.49 247.385,147.75 L246.365,147.42 C246.305,148.875 246.185,149.745 246.005,150.045 C245.87,150.285 245.645,150.42 245.33,150.42 L243.695,150.42 C243.23,150.42 243.005,150.15 243.005,149.61 L243.005,137.805 L241.895,137.805 L241.895,149.835 C241.895,150.885 242.375,151.425 243.365,151.425 L245.525,151.425 Z M234.185,138.33 L234.185,139.335 L239.03,139.335 C238.49,140.175 237.875,141 237.155,141.78 L237.155,144.66 C236.015,144.9 234.83,145.095 233.63,145.245 L233.9,146.385 C235.01,146.19 236.105,145.98 237.155,145.755 L237.155,149.76 C237.155,150.24 236.885,150.495 236.36,150.495 C236.045,150.495 235.49,150.465 234.695,150.42 L234.95,151.455 L236.69,151.455 C237.71,151.455 238.22,150.975 238.22,150.045 L238.22,145.515 C239.015,145.32 239.795,145.11 240.575,144.9 L240.575,143.82 C239.81,144.045 239.03,144.255 238.22,144.435 L238.22,142.185 C239.195,141.015 239.885,140.04 240.275,139.275 L240.275,138.33 L234.185,138.33 Z M253.82,139.5 L256.43,139.5 L256.43,137.775 L257.495,137.775 L257.495,139.5 L259.955,139.5 L259.955,140.445 L257.495,140.445 L257.495,142.38 L258.395,142.38 C259.52,141.27 260.48,139.995 261.275,138.525 L262.22,139.005 C261.53,140.265 260.75,141.39 259.88,142.38 L262.28,142.38 L262.28,143.37 L258.905,143.37 C258.305,143.91 257.69,144.405 257.045,144.855 L261.2,144.855 L261.2,151.485 L260.15,151.485 L260.15,150.825 L255.845,150.825 L255.845,151.485 L254.78,151.485 L254.78,146.13 C254.255,146.37 253.715,146.58 253.175,146.775 L252.575,145.845 C254.345,145.26 255.905,144.435 257.27,143.37 L253.385,143.37 L253.385,142.38 L256.43,142.38 L256.43,140.445 L253.82,140.445 L253.82,139.5 Z M255.845,148.275 L255.845,149.865 L260.15,149.865 L260.15,148.275 L255.845,148.275 Z M260.15,147.345 L260.15,145.815 L255.845,145.815 L255.845,147.345 L260.15,147.345 Z M248.69,141.69 L250.34,141.69 L250.34,137.82 L251.435,137.82 L251.435,141.69 L252.845,141.69 L252.845,142.74 L251.435,142.74 L251.435,147.885 C252.095,147.675 252.725,147.465 253.355,147.225 L253.355,148.365 C251.945,148.89 250.415,149.34 248.765,149.7 L248.48,148.56 C249.11,148.455 249.74,148.335 250.34,148.185 L250.34,142.74 L248.69,142.74 L248.69,141.69 Z M266.015,141.015 L268.22,141.015 L268.22,139.8 L265.43,139.8 L265.43,141.72 L264.38,141.72 L264.38,138.9 L269.99,138.9 C269.765,138.51 269.525,138.135 269.255,137.79 L270.41,137.61 C270.65,137.985 270.875,138.42 271.085,138.9 L276.62,138.9 L276.62,141.72 L275.57,141.72 L275.57,139.8 L272.78,139.8 L272.78,141.015 L275,141.015 L275,141.9 L272.78,141.9 L272.78,142.995 L274.85,142.995 L274.85,143.85 L272.78,143.85 L272.78,144.945 L276.89,144.945 L276.89,145.845 L273.47,145.845 C274.295,146.685 275.54,147.33 277.22,147.81 L276.77,148.77 C274.73,148.02 273.275,147.045 272.405,145.845 L268.505,145.845 C267.635,147.015 266.225,148.005 264.305,148.785 L263.75,147.87 C265.4,147.345 266.645,146.67 267.455,145.845 L264.14,145.845 L264.14,144.945 L268.22,144.945 L268.22,143.85 L266.165,143.85 L266.165,142.995 L268.22,142.995 L268.22,141.9 L266.015,141.9 L266.015,141.015 Z M271.715,139.8 L269.27,139.8 L269.27,141.015 L271.715,141.015 L271.715,139.8 Z M269.27,144.945 L271.715,144.945 L271.715,143.85 L269.27,143.85 L269.27,144.945 Z M271.715,142.995 L271.715,141.9 L269.27,141.9 L269.27,142.995 L271.715,142.995 Z M266.9,147.615 L269.975,147.615 L269.975,146.475 L271.025,146.475 L271.025,147.615 L274.07,147.615 L274.07,148.53 L271.025,148.53 L271.025,149.97 L276.38,149.97 L276.38,150.945 L264.62,150.945 L264.62,149.97 L269.975,149.97 L269.975,148.53 L266.9,148.53 L266.9,147.615 Z" id="txt-2.2"></path>
                    </g>
                </g>
            </g>
        </g>
    </g>
</svg>