<?xml version="1.0" encoding="UTF-8"?>
<svg width="60px" height="15px" viewBox="0 0 60 15" version="1.1" xmlns="http://www.w3.org/2000/svg" xmlns:xlink="http://www.w3.org/1999/xlink">
    <!-- Generator: Sketch 45.1 (43504) - http://www.bohemiancoding.com/sketch -->
    <title>txt-2.1</title>
    <desc>Created with Sketch.</desc>
    <defs></defs>
    <g id="Page-1" stroke="none" stroke-width="1" fill="none" fill-rule="evenodd">
        <g id="新版" transform="translate(-181.000000, -1736.000000)" fill="#38393B">
            <g id="2" transform="translate(-5.000000, 1022.000000)">
                <g id="内容" transform="translate(0.000000, 282.000000)">
                    <g id="3图" transform="translate(160.000000, 295.000000)">
                        <path d="M33.395,141.87 C33.155,142.23 32.885,142.545 32.57,142.83 C31.595,143.655 30.005,144.3 27.815,144.765 L27.14,143.73 C29.33,143.31 30.86,142.755 31.73,142.065 C32.54,141.345 32.96,140.415 33.02,139.275 L33.02,137.715 L34.16,137.715 L34.16,139.275 C34.13,139.905 34.025,140.46 33.845,140.97 C35.975,141.765 37.94,142.71 39.71,143.79 L39.095,144.735 C37.235,143.565 35.345,142.605 33.395,141.87 Z M37.835,144.93 L38.78,145.395 C38.24,146.445 37.61,147.375 36.89,148.155 L36.035,147.54 C36.725,146.805 37.325,145.935 37.835,144.93 Z M34.13,144.225 C34.13,144.975 34.07,145.665 33.95,146.28 C34.73,148.305 36.815,149.655 40.19,150.345 L39.725,151.365 C36.425,150.645 34.34,149.37 33.47,147.57 C32.51,149.34 30.47,150.63 27.335,151.455 L26.87,150.42 C30.155,149.64 32.12,148.305 32.765,146.415 C32.915,145.875 33.005,145.155 33.02,144.225 L34.13,144.225 Z M38.045,138.06 L38.99,138.525 C38.435,139.59 37.79,140.505 37.07,141.285 L36.2,140.685 C36.92,139.95 37.535,139.08 38.045,138.06 Z M29.06,138.36 C29.72,139.2 30.275,140.085 30.755,141.03 L29.795,141.435 C29.285,140.4 28.715,139.5 28.085,138.735 L29.06,138.36 Z M29.3,145.2 C29.9,145.98 30.41,146.835 30.845,147.735 L29.9,148.125 C29.42,147.165 28.91,146.31 28.355,145.575 L29.3,145.2 Z M45.875,141.915 L54.59,141.915 L54.59,142.92 L51.02,142.92 L51.02,145.77 L54.245,145.77 L54.245,146.745 L51.02,146.745 L51.02,150.09 L54.965,150.09 L54.965,151.095 L45.065,151.095 L45.065,150.09 L46.895,150.09 L46.895,144.66 L47.945,144.66 L47.945,150.09 L49.97,150.09 L49.97,142.92 L45.875,142.92 L45.875,141.915 Z M44.15,144.45 L44.15,139.08 L49.16,139.08 C49.01,138.645 48.86,138.24 48.695,137.88 L49.775,137.7 C49.94,138.105 50.105,138.57 50.255,139.08 L55.085,139.08 L55.085,140.13 L45.2,140.13 L45.2,144.42 C45.14,147.39 44.45,149.76 43.145,151.545 L42.335,150.81 C43.295,149.52 43.88,147.795 44.075,145.65 C43.415,146.25 42.71,146.79 41.945,147.285 L41.63,146.22 C42.545,145.71 43.385,145.11 44.15,144.45 Z M42.56,140.25 C43.055,141.15 43.49,142.11 43.85,143.13 L42.92,143.52 C42.53,142.41 42.11,141.45 41.66,140.625 L42.56,140.25 Z M64.73,137.58 C64.895,138.015 65.06,138.51 65.24,139.065 L69.965,139.065 L69.965,140.055 L59.885,140.055 L59.885,143.82 C59.825,147.03 59.15,149.595 57.89,151.515 L57.065,150.78 C57.995,149.43 58.55,147.69 58.76,145.53 C58.16,146.055 57.515,146.55 56.825,147.03 L56.51,145.98 C57.365,145.485 58.145,144.93 58.835,144.33 C58.835,144.15 58.85,143.97 58.85,143.82 L58.85,139.065 L64.145,139.065 C63.995,138.585 63.815,138.15 63.635,137.76 L64.73,137.58 Z M57.44,140.085 C57.92,140.97 58.34,141.915 58.7,142.92 L57.83,143.28 C57.455,142.2 57.05,141.24 56.6,140.43 L57.44,140.085 Z M61.64,143.43 L68.69,143.43 L68.69,146.985 L61.64,146.985 L61.64,143.43 Z M67.715,146.055 L67.715,144.36 L62.615,144.36 L62.615,146.055 L67.715,146.055 Z M67.25,147.345 L68.255,147.6 C67.925,148.44 67.55,149.205 67.1,149.895 L70.295,149.895 L70.295,150.915 L59.795,150.915 L59.795,149.895 L66.005,149.895 C66.47,149.175 66.89,148.32 67.25,147.345 Z M62.96,147.345 C63.35,147.975 63.68,148.71 63.98,149.535 L63.08,149.76 C62.81,149.025 62.48,148.32 62.075,147.63 L62.96,147.345 Z M60.635,141.3 L69.68,141.3 L69.68,142.275 L60.635,142.275 L60.635,141.3 Z M79.73,137.58 C79.895,138.015 80.06,138.51 80.24,139.065 L84.965,139.065 L84.965,140.055 L74.885,140.055 L74.885,143.82 C74.825,147.03 74.15,149.595 72.89,151.515 L72.065,150.78 C72.995,149.43 73.55,147.69 73.76,145.53 C73.16,146.055 72.515,146.55 71.825,147.03 L71.51,145.98 C72.365,145.485 73.145,144.93 73.835,144.33 C73.835,144.15 73.85,143.97 73.85,143.82 L73.85,139.065 L79.145,139.065 C78.995,138.585 78.815,138.15 78.635,137.76 L79.73,137.58 Z M72.44,140.085 C72.92,140.97 73.34,141.915 73.7,142.92 L72.83,143.28 C72.455,142.2 72.05,141.24 71.6,140.43 L72.44,140.085 Z M76.64,143.43 L83.69,143.43 L83.69,146.985 L76.64,146.985 L76.64,143.43 Z M82.715,146.055 L82.715,144.36 L77.615,144.36 L77.615,146.055 L82.715,146.055 Z M82.25,147.345 L83.255,147.6 C82.925,148.44 82.55,149.205 82.1,149.895 L85.295,149.895 L85.295,150.915 L74.795,150.915 L74.795,149.895 L81.005,149.895 C81.47,149.175 81.89,148.32 82.25,147.345 Z M77.96,147.345 C78.35,147.975 78.68,148.71 78.98,149.535 L78.08,149.76 C77.81,149.025 77.48,148.32 77.075,147.63 L77.96,147.345 Z M75.635,141.3 L84.68,141.3 L84.68,142.275 L75.635,142.275 L75.635,141.3 Z" id="txt-2.1"></path>
                    </g>
                </g>
            </g>
        </g>
    </g>
</svg>