<?xml version="1.0" encoding="UTF-8"?>
<svg width="465px" height="202px" viewBox="0 0 465 202" version="1.1" xmlns="http://www.w3.org/2000/svg" xmlns:xlink="http://www.w3.org/1999/xlink">
    <!-- Generator: Sketch 45.1 (43504) - http://www.bohemiancoding.com/sketch -->
    <title>txt1</title>
    <desc>Created with Sketch.</desc>
    <defs></defs>
    <g id="Page-1" stroke="none" stroke-width="1" fill="none" fill-rule="evenodd">
        <g id="新版" transform="translate(-771.000000, -295.000000)">
            <g id="1" transform="translate(-2.000000, 0.000000)">
                <g id="txt1" transform="translate(773.000000, 293.000000)">
                    <path d="M72.48,57.16 C76.02,57.16 77.82,55.36 77.82,51.76 L77.82,4.06 L74.46,4.06 L74.46,50.92 C74.46,53.02 73.38,54.1 71.28,54.1 C68.4,54.1 65.4,53.98 62.22,53.86 L63,57.16 L72.48,57.16 Z M58.44,17.98 C55.92,29.02 52.2,37.84 47.28,44.32 L50.1,46.72 C54.9,40.42 58.74,31.24 61.68,19.24 L58.44,17.98 Z M90.96,16.6 L88.02,18.4 C92.94,28.84 96.84,38.32 99.72,46.96 L102.66,44.92 C99.96,36.88 96.06,27.4 90.96,16.6 Z M132.36,13.36 L132.36,16.48 L144.12,16.48 L144.12,22.78 C144.12,25.06 143.94,27.28 143.64,29.5 L130.68,29.5 L130.68,32.62 L143.1,32.62 C141.24,41.38 136.74,49.06 129.66,55.66 L132.18,57.76 C138.9,51.4 143.34,44.02 145.62,35.62 C148.74,44.5 153.78,51.94 160.62,57.82 L162.72,55.36 C155.76,49.72 150.72,42.1 147.66,32.62 L161.46,32.62 L161.46,29.5 L146.82,29.5 C147.06,27.34 147.24,25.06 147.3,22.78 L147.3,16.48 L159.06,16.48 L159.06,13.36 L147.3,13.36 L147.3,3.34 L144.12,3.34 L144.12,13.36 L132.36,13.36 Z M127.56,5.86 L127.56,53.2 C127.56,56.2 126,57.7 122.94,57.7 L118.62,57.7 L117.84,54.76 C119.28,54.82 120.66,54.88 121.98,54.88 C123.66,54.88 124.56,53.92 124.56,52.12 L124.56,36.82 C121.56,37.72 118.26,38.5 114.78,39.1 C114.42,46.72 113.1,53.02 110.94,58 L108.48,55.78 C110.7,50.14 111.84,43 111.9,34.36 L111.9,5.86 L127.56,5.86 Z M114.9,36.04 C118.44,35.44 121.68,34.72 124.56,33.82 L124.56,25.06 C121.44,23.98 118.2,23.08 114.96,22.48 L114.96,34.18 C114.96,34.78 114.9,35.44 114.9,36.04 Z M114.96,19.54 C118.32,20.2 121.5,21.04 124.56,22.12 L124.56,8.92 L114.96,8.92 L114.96,19.54 Z M175.92,10.78 C174.48,13.18 172.86,15.16 171.06,16.84 L169.02,14.44 C172.02,11.68 174.48,7.78 176.28,2.74 L179.28,3.4 C178.68,4.96 178.08,6.46 177.42,7.9 L195.24,7.9 L195.24,10.78 L185.88,10.78 C185.76,13.24 185.52,15.52 185.16,17.56 L196.86,17.56 L196.86,20.56 L184.5,20.56 C184.26,21.34 184.08,22.06 183.84,22.78 C188.52,25.18 192.42,27.64 195.6,30.04 L193.26,32.38 C190.62,30.1 187.14,27.7 182.82,25.18 C180.48,29.56 176.22,33.22 170.04,36.1 L167.88,33.46 C174.12,30.7 178.32,27.16 180.36,22.84 C180.66,22.06 180.96,21.28 181.2,20.56 L168.54,20.56 L168.54,17.56 L181.98,17.56 C182.4,15.4 182.64,13.18 182.7,10.78 L175.92,10.78 Z M199.86,7.3 L218.76,7.3 L218.76,28.72 L199.86,28.72 L199.86,7.3 Z M215.52,25.78 L215.52,10.24 L203.04,10.24 L203.04,25.78 L215.52,25.78 Z M214.5,33.7 L214.5,58 L211.2,58 L211.2,55 L180.42,55 L180.42,58 L177.18,58 L177.18,33.7 L214.5,33.7 Z M180.42,52.06 L211.2,52.06 L211.2,45.94 L180.42,45.94 L180.42,52.06 Z M180.42,43.06 L211.2,43.06 L211.2,36.7 L180.42,36.7 L180.42,43.06 Z M259.98,3.64 L259.98,24.52 C259.98,27.52 261.54,29.08 264.72,29.08 L280.68,29.08 L280.68,26.02 L265.5,26.02 C263.94,26.02 263.16,25.3 263.16,23.92 L263.16,14.68 L279.48,13.6 L279.48,10.6 L263.16,11.68 L263.16,3.64 L259.98,3.64 Z M248.94,7.72 L246.36,9.34 C247.98,11.5 249.48,13.66 250.86,15.82 C244.62,16.72 238.68,17.32 233.1,17.62 C236.58,14.5 239.88,10 242.94,4.12 L239.82,3.16 C237.06,8.68 233.76,13.24 229.92,16.9 C229.5,17.32 228.96,17.62 228.36,17.8 L229.32,20.56 C238.32,20.02 246,19.24 252.36,18.22 C253.2,19.66 254.04,21.04 254.76,22.42 L257.34,20.56 C255.42,16.96 252.6,12.64 248.94,7.72 Z M275.16,56.92 C277.2,56.92 278.7,56.5 279.6,55.66 C280.68,54.52 281.46,51.58 281.82,46.84 L278.82,45.88 C278.58,49.84 278.1,52.24 277.38,53.08 C276.84,53.68 275.88,54.04 274.5,54.04 L265.68,54.04 C263.94,54.04 263.1,53.32 263.1,52 L263.1,41.38 L280.14,40.3 L280.14,37.3 L263.1,38.32 L263.1,31.84 L259.92,31.84 L259.92,52.72 C259.92,55.48 261.48,56.92 264.72,56.92 L275.16,56.92 Z M249.18,57.28 L243,57.28 L242.28,54.4 L248.22,54.52 C249.48,54.52 250.14,53.86 250.14,52.54 L250.14,46.24 L235.08,46.24 L235.08,57.58 L231.96,57.58 L231.96,24.7 L253.2,24.7 L253.2,53.26 C253.2,55.9 251.82,57.28 249.18,57.28 Z M235.08,43.48 L250.14,43.48 L250.14,37.06 L235.08,37.06 L235.08,43.48 Z M235.08,34.24 L250.14,34.24 L250.14,27.64 L235.08,27.64 L235.08,34.24 Z M291.06,4.66 C294.48,7.3 297.36,9.88 299.7,12.52 L297.54,14.68 C295.38,12.16 292.5,9.52 288.84,6.76 L291.06,4.66 Z M290.1,19.36 L287.94,21.52 C291.42,24.52 294.24,27.34 296.34,30.04 L298.5,27.88 C296.22,25 293.46,22.18 290.1,19.36 Z M296.28,35.32 C294,42.28 291.36,49.18 288.24,55.9 L291.18,57.16 C294.06,50.68 296.7,43.72 299.04,36.4 L296.28,35.32 Z M322.02,6.16 L322.02,42.4 L319.02,42.4 L319.02,8.98 L305.76,8.98 L305.76,42.76 L302.82,42.76 L302.82,6.16 L322.02,6.16 Z M315.54,45.46 C319.32,48.88 322.5,52.3 325.08,55.72 L322.86,57.88 C320.58,54.58 317.46,51.1 313.56,47.44 L315.54,45.46 Z M310.98,13.6 L313.86,13.6 L313.86,32.8 C313.74,39.52 312.72,44.92 310.68,49 C308.7,52.72 305.46,55.66 300.96,57.82 L299.22,55.12 C303.54,53.08 306.66,50.32 308.46,46.84 C310.08,43.24 310.92,38.56 310.98,32.8 L310.98,13.6 Z M335.46,57.4 L328.8,57.4 L328.14,54.4 C330.3,54.52 332.4,54.64 334.38,54.64 C335.82,54.64 336.6,53.74 336.6,52.06 L336.6,3.46 L339.66,3.46 L339.66,52.84 C339.66,55.84 338.22,57.4 335.46,57.4 Z M327.6,8.38 L330.54,8.38 L330.54,46.06 L327.6,46.06 L327.6,8.38 Z M372.36,13.36 L372.36,16.48 L384.12,16.48 L384.12,22.78 C384.12,25.06 383.94,27.28 383.64,29.5 L370.68,29.5 L370.68,32.62 L383.1,32.62 C381.24,41.38 376.74,49.06 369.66,55.66 L372.18,57.76 C378.9,51.4 383.34,44.02 385.62,35.62 C388.74,44.5 393.78,51.94 400.62,57.82 L402.72,55.36 C395.76,49.72 390.72,42.1 387.66,32.62 L401.46,32.62 L401.46,29.5 L386.82,29.5 C387.06,27.34 387.24,25.06 387.3,22.78 L387.3,16.48 L399.06,16.48 L399.06,13.36 L387.3,13.36 L387.3,3.34 L384.12,3.34 L384.12,13.36 L372.36,13.36 Z M367.56,5.86 L367.56,53.2 C367.56,56.2 366,57.7 362.94,57.7 L358.62,57.7 L357.84,54.76 C359.28,54.82 360.66,54.88 361.98,54.88 C363.66,54.88 364.56,53.92 364.56,52.12 L364.56,36.82 C361.56,37.72 358.26,38.5 354.78,39.1 C354.42,46.72 353.1,53.02 350.94,58 L348.48,55.78 C350.7,50.14 351.84,43 351.9,34.36 L351.9,5.86 L367.56,5.86 Z M354.9,36.04 C358.44,35.44 361.68,34.72 364.56,33.82 L364.56,25.06 C361.44,23.98 358.2,23.08 354.96,22.48 L354.96,34.18 C354.96,34.78 354.9,35.44 354.9,36.04 Z M354.96,19.54 C358.32,20.2 361.5,21.04 364.56,22.12 L364.56,8.92 L354.96,8.92 L354.96,19.54 Z M421.74,2.92 L424.74,4.3 C423.12,9.1 421.08,13.54 418.68,17.74 L418.68,57.82 L415.44,57.82 L415.44,22.78 C413.34,25.78 411,28.6 408.48,31.24 L407.4,27.82 C414,20.5 418.8,12.16 421.74,2.92 Z M437.1,3.28 C440.94,8.08 443.94,12.34 446.04,16.06 L443.4,17.92 C441.06,13.84 438.12,9.52 434.58,5.02 L437.1,3.28 Z M455.04,5.86 L458.16,6.52 C456.06,21.22 451.68,33.04 445.02,41.92 C450.06,47.44 455.88,51.82 462.6,55 L460.62,57.88 C453.9,54.52 448.02,50.02 443.04,44.44 C438.12,50.26 432.12,54.76 425.1,57.88 L423.3,54.94 C430.26,51.82 436.08,47.5 440.82,41.86 C434.58,34.12 429.66,24.52 426.12,13.12 L428.88,11.5 C432.18,22.66 436.8,31.9 442.8,39.28 C449.04,30.7 453.12,19.54 455.04,5.86 Z" id="小肤智能测肤仪" fill="#38393B"></path>
                    <path d="M291.596,93.488 L290.782,94.258 C292.52,95.446 293.884,96.59 294.896,97.668 L295.71,96.854 C294.61,95.71 293.224,94.588 291.596,93.488 Z M291.068,98.658 L290.276,99.428 C291.904,100.616 293.224,101.76 294.192,102.838 L295.006,102.046 C293.95,100.902 292.63,99.78 291.068,98.658 Z M294.522,104.708 L295.512,105.104 C294.412,107.854 293.202,110.45 291.838,112.87 L290.738,112.408 C292.19,109.9 293.466,107.326 294.522,104.708 Z M300.99,104.884 L296.546,104.884 L296.546,103.762 L302.398,103.762 L302.398,101.166 L303.542,101.166 L303.542,103.762 L309.438,103.762 L309.438,104.884 L304.994,104.884 C306.006,107.062 307.722,108.998 310.186,110.714 L309.416,111.682 C306.864,109.636 305.104,107.37 304.092,104.884 L303.542,104.884 L303.542,113.046 L302.398,113.046 L302.398,104.884 L301.914,104.884 C300.726,107.7 298.702,110.032 295.864,111.88 L295.248,110.868 C297.888,109.306 299.802,107.304 300.99,104.884 Z M308.954,94.104 L308.954,98.042 L307.81,98.042 L307.81,95.204 L298.108,95.204 L298.108,98.108 L296.986,98.108 L296.986,94.104 L308.954,94.104 Z M300.836,96.282 L301.892,96.282 C301.782,97.91 301.408,99.12 300.77,99.912 C300.066,100.704 298.922,101.386 297.316,101.958 L296.612,101.078 C298.086,100.594 299.142,100.044 299.758,99.384 C300.374,98.724 300.726,97.69 300.836,96.282 Z M304.224,96.282 L305.324,96.282 L305.324,99.428 C305.324,99.824 305.544,100.022 306.006,100.022 L309.372,100.022 L309.372,101.078 L305.456,101.078 C304.62,101.078 304.224,100.682 304.224,99.89 L304.224,96.282 Z M316.786,105.192 L329.568,105.192 L329.568,106.094 C328.27,107.722 326.664,109.108 324.728,110.23 C326.752,111.132 329.172,111.792 331.966,112.188 L331.438,113.222 C328.358,112.694 325.762,111.902 323.606,110.824 C321.384,111.902 318.81,112.694 315.862,113.2 L315.334,112.144 C318.018,111.748 320.372,111.088 322.418,110.164 C320.592,109.064 319.14,107.766 318.04,106.226 L316.786,106.226 L316.786,105.192 Z M319.294,106.226 C320.394,107.568 321.802,108.712 323.518,109.636 C325.3,108.712 326.818,107.568 328.05,106.226 L319.294,106.226 Z M315.422,98.9 L319.294,98.9 L319.294,96.92 L320.46,96.92 L320.46,98.9 L326.796,98.9 L326.796,96.92 L327.962,96.92 L327.962,98.9 L331.394,98.9 L331.394,100.044 L327.962,100.044 L327.962,103.476 L319.294,103.476 L319.294,100.044 L315.422,100.044 L315.422,98.9 Z M320.46,100.044 L320.46,102.442 L326.796,102.442 L326.796,100.044 L320.46,100.044 Z M323.012,92.982 C323.298,93.554 323.562,94.214 323.826,94.94 L331.46,94.94 L331.46,96.084 L315.268,96.084 L315.268,102.134 C315.18,106.666 314.388,110.318 312.892,113.09 L311.99,112.276 C313.31,109.856 314.014,106.468 314.08,102.134 L314.08,94.94 L322.66,94.94 C322.374,94.302 322.088,93.73 321.78,93.202 L323.012,92.982 Z M350.666,103.102 C346.926,103.718 342.13,104.026 336.278,104.048 L336.608,104.972 C339.16,104.972 341.514,104.906 343.67,104.818 L343.67,106.49 L336.212,106.49 L336.212,107.436 L343.67,107.436 L343.67,109.174 L334.54,109.174 L334.54,110.186 L343.67,110.186 L343.67,111.308 C343.67,111.924 343.384,112.232 342.856,112.232 C341.998,112.232 341.096,112.21 340.15,112.166 L340.392,113.2 L343.23,113.2 C344.286,113.2 344.836,112.65 344.836,111.572 L344.836,110.186 L353.35,110.186 L353.35,109.174 L344.836,109.174 L344.836,107.436 L351.612,107.436 L351.612,106.49 L344.836,106.49 L344.836,104.752 C347.256,104.598 349.368,104.378 351.216,104.07 L350.666,103.102 Z M338.632,98.482 L349.368,98.482 L349.368,102.222 L338.632,102.222 L338.632,98.482 Z M348.18,101.32 L348.18,99.384 L339.82,99.384 L339.82,101.32 L348.18,101.32 Z M343.406,92.894 L344.594,92.894 L344.594,95.776 L347.564,95.776 C348.136,94.962 348.62,94.104 349.038,93.18 L350.204,93.576 C349.786,94.412 349.324,95.138 348.84,95.776 L352.888,95.776 L352.888,99.714 L351.7,99.714 L351.7,96.81 L336.3,96.81 L336.3,99.758 L335.112,99.758 L335.112,95.776 L339.204,95.776 C338.808,94.984 338.324,94.28 337.796,93.62 L338.94,93.202 C339.49,93.906 339.996,94.764 340.436,95.776 L343.406,95.776 L343.406,92.894 Z M358.586,112.936 L356.628,112.936 L356.364,111.814 C356.98,111.858 357.596,111.88 358.168,111.88 C358.74,111.88 359.026,111.55 359.026,110.934 L359.026,105.104 C358.102,105.456 357.156,105.786 356.188,106.094 L355.88,104.906 C356.958,104.62 358.014,104.29 359.026,103.894 L359.026,98.592 L356.276,98.592 L356.276,97.426 L359.026,97.426 L359.026,93.158 L360.214,93.158 L360.214,97.426 L362.48,97.426 L362.48,98.592 L360.214,98.592 L360.214,103.388 C360.94,103.036 361.666,102.684 362.37,102.288 L362.37,103.542 C361.666,103.916 360.94,104.268 360.214,104.598 L360.214,111.242 C360.214,112.364 359.664,112.936 358.586,112.936 Z M364.922,101.672 L364.922,102.046 C364.9,106.314 364.13,109.988 362.612,113.046 L361.71,112.232 C363.074,109.592 363.778,106.204 363.8,102.046 L363.8,93.994 L374.844,93.994 L374.844,98.46 L364.922,98.46 L364.922,100.616 L375.218,100.616 L375.218,101.672 L369.718,101.672 C368.948,103.102 368.178,104.18 367.43,104.928 C369.85,104.752 371.742,104.576 373.15,104.4 C372.798,103.784 372.446,103.212 372.094,102.684 L373.018,102.222 C373.832,103.454 374.602,104.796 375.306,106.248 L374.338,106.732 C374.096,106.204 373.854,105.72 373.634,105.28 C372.71,105.368 371.786,105.478 370.862,105.566 L370.862,108.03 L374.734,108.03 L374.734,109.064 L370.862,109.064 L370.862,111.572 L375.746,111.572 L375.746,112.65 L364.856,112.65 L364.856,111.572 L369.74,111.572 L369.74,109.064 L365.78,109.064 L365.78,108.03 L369.74,108.03 L369.74,105.676 L365.956,105.94 L365.78,104.95 C366.594,104.62 367.518,103.52 368.53,101.672 L364.922,101.672 Z M373.722,95.072 L364.922,95.072 L364.922,97.426 L373.722,97.426 L373.722,95.072 Z M385.976,112.342 L386.878,113.156 C387.89,111.616 388.572,109.988 388.946,108.272 C389.32,106.732 389.518,104.752 389.518,102.31 L389.518,95.556 L393.412,95.556 L393.412,110.956 C393.412,112.144 394.006,112.738 395.238,112.738 L396.118,112.738 C396.646,112.738 397.042,112.628 397.306,112.408 C397.592,112.122 397.768,111.572 397.834,110.78 C397.9,109.944 397.944,108.756 397.944,107.172 L396.888,106.842 C396.888,108.866 396.844,110.164 396.8,110.714 C396.756,111.11 396.646,111.352 396.492,111.484 C396.382,111.572 396.228,111.638 396.03,111.638 L395.216,111.638 C394.776,111.638 394.578,111.374 394.578,110.868 L394.578,94.456 L388.352,94.456 L388.352,102.31 C388.352,104.466 388.198,106.27 387.912,107.678 C387.56,109.35 386.9,110.89 385.976,112.342 Z M385.778,94.016 L385.778,111.286 C385.778,112.386 385.206,112.958 384.062,112.958 L382.302,112.958 L382.016,111.902 C382.632,111.924 383.182,111.946 383.71,111.946 C384.326,111.946 384.656,111.594 384.656,110.89 L384.656,105.214 C383.424,105.588 382.104,105.896 380.674,106.138 C380.476,108.998 379.904,111.33 378.936,113.178 L378.056,112.364 C379.068,110.296 379.596,107.678 379.64,104.488 L379.64,94.016 L385.778,94.016 Z M380.718,105.016 C382.214,104.774 383.512,104.488 384.656,104.136 L384.656,100.77 C383.358,100.418 382.06,100.154 380.74,99.956 L380.74,104.422 C380.74,104.62 380.718,104.818 380.718,105.016 Z M380.74,98.944 C382.104,99.12 383.424,99.384 384.656,99.736 L384.656,95.116 L380.74,95.116 L380.74,98.944 Z M409.032,96.832 L409.032,97.976 L413.344,97.976 L413.344,100.286 C413.344,101.122 413.278,101.936 413.168,102.75 L408.416,102.75 L408.416,103.894 L412.97,103.894 C412.288,107.106 410.638,109.922 408.042,112.342 L408.966,113.112 C411.43,110.78 413.058,108.074 413.894,104.994 C415.038,108.25 416.886,110.978 419.394,113.134 L420.164,112.232 C417.612,110.164 415.764,107.37 414.642,103.894 L419.702,103.894 L419.702,102.75 L414.334,102.75 C414.422,101.958 414.488,101.122 414.51,100.286 L414.51,97.976 L418.822,97.976 L418.822,96.832 L414.51,96.832 L414.51,93.158 L413.344,93.158 L413.344,96.832 L409.032,96.832 Z M407.272,94.082 L407.272,111.44 C407.272,112.54 406.7,113.09 405.578,113.09 L403.994,113.09 L403.708,112.012 C404.236,112.034 404.742,112.056 405.226,112.056 C405.842,112.056 406.172,111.704 406.172,111.044 L406.172,105.434 C405.072,105.764 403.862,106.05 402.586,106.27 C402.454,109.064 401.97,111.374 401.178,113.2 L400.276,112.386 C401.09,110.318 401.508,107.7 401.53,104.532 L401.53,94.082 L407.272,94.082 Z M402.63,105.148 C403.928,104.928 405.116,104.664 406.172,104.334 L406.172,101.122 C405.028,100.726 403.84,100.396 402.652,100.176 L402.652,104.466 C402.652,104.686 402.63,104.928 402.63,105.148 Z M402.652,99.098 C403.884,99.34 405.05,99.648 406.172,100.044 L406.172,95.204 L402.652,95.204 L402.652,99.098 Z M428.854,108.954 C426.918,109.812 424.652,110.494 422.056,111 L422.232,112.144 C424.696,111.616 426.918,110.934 428.854,110.098 L428.854,108.954 Z M425.62,93.048 C424.74,95.842 423.706,98.284 422.518,100.374 C422.386,100.572 422.232,100.704 422.056,100.792 L422.342,101.848 C423.53,101.672 424.74,101.452 425.994,101.188 C424.828,103.498 423.816,105.148 422.98,106.138 C422.848,106.27 422.672,106.38 422.452,106.468 L422.76,107.524 C424.74,107.26 426.764,106.776 428.832,106.094 L428.832,105.016 C427.292,105.544 425.73,105.94 424.146,106.248 C425.334,104.686 426.874,101.914 428.766,97.91 L427.71,97.514 C427.292,98.416 426.896,99.274 426.522,100.11 C425.466,100.352 424.454,100.55 423.442,100.682 C424.542,98.966 425.62,96.568 426.72,93.488 L425.62,93.048 Z M434.992,96.04 L431.01,96.04 L431.01,102.552 L434.992,102.552 L434.992,96.04 Z M434.992,103.674 L431.01,103.674 L431.01,110.406 L434.992,110.406 L434.992,103.674 Z M436.092,110.406 L440.052,110.406 L440.052,103.674 L436.092,103.674 L436.092,110.406 Z M436.092,102.552 L440.052,102.552 L440.052,96.04 L436.092,96.04 L436.092,102.552 Z M440.052,111.506 L431.01,111.506 L431.01,113.024 L429.888,113.024 L429.888,94.94 L441.174,94.94 L441.174,113.024 L440.052,113.024 L440.052,111.506 Z M451.866,101.276 L451.866,113.09 L453.032,113.09 L453.032,101.276 L460.424,101.276 C460.402,103.454 460.38,104.862 460.358,105.478 C460.292,106.754 460.094,107.568 459.786,107.898 C459.478,108.228 459.016,108.404 458.378,108.404 C457.586,108.404 456.794,108.382 456.024,108.382 L456.332,109.548 C457.256,109.548 458.048,109.526 458.664,109.526 C459.676,109.526 460.358,109.284 460.754,108.844 C461.106,108.404 461.326,107.546 461.414,106.292 C461.48,105.632 461.546,103.586 461.634,100.11 L445.464,100.11 L445.464,101.276 L451.866,101.276 Z M444.496,95.358 L444.496,96.546 L449.754,96.546 L449.754,98.768 L450.964,98.768 L450.964,96.546 L457.036,96.546 L457.036,98.79 L458.246,98.79 L458.246,96.546 L463.504,96.546 L463.504,95.358 L458.246,95.358 L458.246,93.07 L457.036,93.07 L457.036,95.358 L450.964,95.358 L450.964,93.07 L449.754,93.07 L449.754,95.358 L444.496,95.358 Z" id="深度掌握肌肤细节" fill="#2D90ED"></path>
                    <path d="M1.83,161.214 L1.26,161.754 C2.325,162.579 3.18,163.359 3.81,164.109 L4.38,163.524 C3.69,162.759 2.85,161.994 1.83,161.214 Z M10.65,174.309 C9.84,174.309 8.955,174.294 8.01,174.279 C7.05,174.249 6.27,174.159 5.7,173.994 C5.115,173.814 4.59,173.454 4.11,172.884 C3.915,172.614 3.72,172.494 3.54,172.494 C3.135,172.494 2.49,173.184 1.62,174.579 L1.005,174.039 C1.845,172.734 2.565,171.969 3.18,171.759 L3.18,166.959 L0.96,166.959 L0.96,166.179 L3.945,166.179 L3.945,171.804 C4.095,171.879 4.26,172.014 4.41,172.209 C4.77,172.659 5.175,172.989 5.625,173.199 C6.105,173.379 6.78,173.484 7.65,173.514 C8.4,173.529 9.36,173.544 10.53,173.544 L12.63,173.544 C13.32,173.514 13.86,173.499 14.25,173.484 L14.055,174.309 L10.65,174.309 Z M5.145,162.534 L7.62,162.534 C7.845,161.979 8.055,161.409 8.25,160.809 L9.03,160.989 C8.85,161.529 8.655,162.039 8.46,162.534 L13.86,162.534 L13.86,163.299 L8.145,163.299 C7.65,164.394 7.095,165.369 6.495,166.224 L9.255,166.224 L9.255,164.289 L10.05,164.289 L10.05,166.224 L13.41,166.224 L13.41,166.974 L10.05,166.974 L10.05,169.029 L14.085,169.029 L14.085,169.794 L10.05,169.794 L10.05,172.734 L9.255,172.734 L9.255,169.794 L5.04,169.794 L5.04,169.029 L9.255,169.029 L9.255,166.974 L5.685,166.974 L5.505,166.209 C6.165,165.414 6.765,164.439 7.29,163.299 L5.145,163.299 L5.145,162.534 Z M24.69,160.734 C24.9,161.199 25.11,161.724 25.29,162.324 L28.725,162.324 L28.725,163.074 L27.6,163.074 C27.3,164.079 26.955,164.979 26.565,165.759 L28.995,165.759 L28.995,166.524 L20.7,166.524 L20.7,165.759 L23.085,165.759 C22.815,164.799 22.485,163.899 22.08,163.074 L21.06,163.074 L21.06,162.324 L24.495,162.324 C24.3,161.784 24.09,161.304 23.85,160.884 L24.69,160.734 Z M25.8,165.759 C26.16,164.904 26.49,164.004 26.775,163.074 L22.935,163.074 C23.265,163.854 23.58,164.739 23.88,165.759 L25.8,165.759 Z M17.49,174.444 C18.24,174.444 18.615,174.069 18.615,173.334 L18.615,168.714 C19.08,168.504 19.545,168.264 20.01,168.024 L20.01,167.199 C19.545,167.454 19.08,167.694 18.615,167.919 L18.615,164.664 L19.98,164.664 L19.98,163.869 L18.615,163.869 L18.615,160.929 L17.805,160.929 L17.805,163.869 L15.855,163.869 L15.855,164.664 L17.805,164.664 L17.805,168.264 C17.085,168.549 16.35,168.789 15.6,168.984 L15.81,169.794 C16.485,169.584 17.145,169.344 17.805,169.074 L17.805,173.124 C17.805,173.514 17.595,173.724 17.205,173.724 C16.815,173.724 16.395,173.694 15.945,173.664 L16.125,174.444 L17.49,174.444 Z M23.655,167.034 L24.435,167.124 C24.255,167.604 24.075,168.069 23.88,168.504 L29.25,168.504 L29.25,169.284 L27.645,169.284 C27.405,170.484 26.91,171.489 26.13,172.284 C27.21,172.794 28.26,173.334 29.28,173.934 L28.83,174.579 C27.855,173.979 26.76,173.394 25.53,172.809 C24.525,173.544 22.92,174.129 20.715,174.579 L20.4,173.844 C22.29,173.484 23.73,173.019 24.69,172.419 C23.73,171.969 22.695,171.534 21.585,171.099 C21.975,170.469 22.335,169.869 22.65,169.284 L20.505,169.284 L20.505,168.504 L23.04,168.504 C23.28,167.994 23.49,167.499 23.655,167.034 Z M26.88,169.284 L23.505,169.284 C23.235,169.809 22.935,170.304 22.605,170.784 C23.535,171.129 24.465,171.504 25.365,171.924 C26.13,171.234 26.64,170.364 26.88,169.284 Z M42.6,161.064 C39.78,161.769 36.15,162.129 31.74,162.144 L32.01,162.879 C33.93,162.879 35.73,162.804 37.38,162.669 L37.38,165.399 L32.055,165.399 L32.055,166.209 L37.38,166.209 L37.38,168.909 L30.795,168.909 L30.795,169.704 L37.38,169.704 L37.38,172.989 C37.38,173.484 37.125,173.739 36.63,173.739 C35.91,173.739 35.175,173.709 34.41,173.679 L34.59,174.459 L36.915,174.459 C37.755,174.459 38.175,174.024 38.175,173.184 L38.175,169.704 L44.22,169.704 L44.22,168.909 L38.175,168.909 L38.175,166.209 L43.08,166.209 L43.08,165.399 L38.175,165.399 L38.175,162.594 C39.99,162.414 41.595,162.129 42.99,161.754 L42.6,161.064 Z M45.915,163.929 L48.24,163.929 L48.24,160.914 L49.05,160.914 L49.05,163.929 L51,163.929 L51,164.724 L49.05,164.724 L49.05,165.594 C49.77,166.329 50.49,167.169 51.225,168.114 L50.76,168.834 C50.1,167.784 49.53,166.959 49.05,166.344 L49.05,174.519 L48.24,174.519 L48.24,166.419 C47.685,168.069 46.935,169.554 45.975,170.859 L45.63,170.019 C46.86,168.459 47.715,166.704 48.21,164.724 L45.915,164.724 L45.915,163.929 Z M50.43,174.024 C51.09,173.049 51.555,172.014 51.825,170.904 C52.02,169.944 52.125,168.744 52.125,167.274 L52.125,161.619 L56.745,161.619 L56.745,172.974 C56.745,173.289 56.88,173.454 57.18,173.454 L57.705,173.454 C57.915,173.454 58.095,173.409 58.215,173.349 C58.365,173.259 58.455,173.094 58.515,172.839 C58.575,172.494 58.605,171.654 58.605,170.304 L59.37,170.529 C59.37,171.579 59.325,172.374 59.265,172.914 C59.205,173.454 59.055,173.814 58.8,174.009 C58.59,174.144 58.245,174.219 57.765,174.219 L57.18,174.219 C56.34,174.219 55.92,173.814 55.92,173.019 L55.92,162.399 L52.935,162.399 L52.935,167.274 C52.935,168.924 52.8,170.274 52.545,171.324 C52.275,172.464 51.795,173.559 51.09,174.609 L50.43,174.024 Z M62.535,165.384 L67.095,165.384 L67.095,164.334 L67.905,164.334 L67.905,165.384 L72.435,165.384 L72.435,166.119 L67.905,166.119 L67.905,167.799 L74.13,167.799 L74.13,168.519 L71.13,168.519 L71.13,170.169 L73.485,170.169 L73.485,170.904 L71.13,170.904 L71.13,173.469 C71.13,174.204 70.74,174.579 69.96,174.579 L67.755,174.579 L67.575,173.814 C68.31,173.844 69.015,173.874 69.69,173.874 C70.11,173.874 70.32,173.679 70.32,173.289 L70.32,170.904 L61.755,170.904 L61.755,170.169 L70.32,170.169 L70.32,168.519 L60.855,168.519 L60.855,167.799 L67.095,167.799 L67.095,166.119 L62.535,166.119 L62.535,165.384 Z M64.14,171.444 C64.965,172.254 65.595,172.974 66.045,173.574 L65.4,174.039 C64.935,173.379 64.29,172.644 63.465,171.864 L64.14,171.444 Z M62.91,162.774 C62.535,163.494 62.1,164.139 61.605,164.724 L60.9,164.274 C61.8,163.269 62.445,162.129 62.865,160.854 L63.66,161.019 C63.54,161.379 63.405,161.739 63.255,162.069 L67.29,162.069 L67.29,162.774 L64.59,162.774 C65.025,163.344 65.37,163.884 65.625,164.379 L64.905,164.649 C64.575,164.004 64.185,163.374 63.735,162.774 L62.91,162.774 Z M69,162.729 C68.73,163.239 68.445,163.704 68.115,164.139 L67.44,163.719 C68.1,162.849 68.595,161.889 68.91,160.824 L69.69,160.989 C69.57,161.349 69.45,161.694 69.315,162.024 L73.845,162.024 L73.845,162.729 L70.905,162.729 C71.355,163.314 71.7,163.854 71.955,164.334 L71.235,164.619 C70.89,163.959 70.485,163.329 70.02,162.729 L69,162.729 Z M76.035,162.774 L75.885,162.009 C77.715,161.829 79.32,161.514 80.715,161.064 L81,161.829 C80.37,162.009 79.71,162.189 79.02,162.339 L79.02,165.099 L81.09,165.099 L81.09,165.894 L79.02,165.894 L79.02,166.839 C79.74,167.439 80.475,168.129 81.21,168.879 L80.76,169.539 C80.1,168.699 79.515,168.039 79.02,167.544 L79.02,174.534 L78.21,174.534 L78.21,167.319 C77.64,168.864 76.86,170.259 75.855,171.489 L75.51,170.634 C76.755,169.224 77.625,167.649 78.135,165.894 L75.84,165.894 L75.84,165.099 L78.21,165.099 L78.21,162.489 C77.52,162.594 76.8,162.684 76.035,162.774 Z M86.385,166.599 L87.12,166.929 C86.85,167.379 86.52,167.784 86.16,168.144 L89.28,168.144 L89.28,168.849 C88.35,171.519 85.605,173.409 81.03,174.534 L80.61,173.784 C82.395,173.379 83.88,172.869 85.05,172.239 C84.585,171.759 84.105,171.279 83.61,170.799 L84.195,170.379 C84.72,170.844 85.23,171.339 85.71,171.864 C87.03,171.039 87.93,170.049 88.425,168.894 L85.275,168.894 C84.255,169.614 82.98,170.199 81.42,170.619 L80.925,169.884 C83.565,169.224 85.38,168.129 86.385,166.599 Z M85.47,161.019 C85.23,161.409 84.975,161.784 84.705,162.144 L88.26,162.144 L88.26,162.819 C87.39,165.159 85.155,166.824 81.57,167.814 L81.135,167.214 C82.38,166.884 83.445,166.464 84.345,165.969 C83.895,165.354 83.49,164.904 83.145,164.604 L83.715,164.169 C84.21,164.619 84.615,165.114 84.93,165.624 C86.07,164.874 86.91,163.944 87.435,162.864 L84.075,162.864 C83.355,163.584 82.56,164.184 81.66,164.679 L81.12,164.034 C82.59,163.269 83.775,162.204 84.675,160.839 L85.47,161.019 Z M91.395,162.054 L91.395,162.819 L96.735,162.819 L96.735,162.054 L91.395,162.054 Z M90.795,166.089 L97.32,166.089 L97.32,166.899 L93.795,166.899 C93.12,169.374 92.535,171.099 92.04,172.074 C93.375,171.834 94.695,171.459 96.015,170.964 C95.595,170.094 95.19,169.299 94.77,168.579 L95.46,168.249 C96.195,169.539 96.885,170.934 97.545,172.464 L96.825,172.824 C96.645,172.404 96.48,171.999 96.315,171.639 C94.71,172.209 92.97,172.659 91.095,173.004 L90.9,172.239 C90.975,172.209 91.035,172.194 91.065,172.164 C91.545,171.534 92.19,169.779 93,166.899 L90.795,166.899 L90.795,166.089 Z M99.735,160.944 L100.545,160.944 L100.545,164.079 L103.845,164.079 C103.845,168.609 103.77,171.429 103.635,172.509 C103.485,173.784 102.795,174.429 101.55,174.429 C101.28,174.429 100.83,174.414 100.2,174.384 L100.005,173.679 C100.575,173.694 101.055,173.709 101.475,173.709 C102.255,173.709 102.72,173.214 102.855,172.254 C102.975,171.414 103.035,168.939 103.065,164.859 L100.545,164.859 L100.545,165.084 C100.5,169.419 99.45,172.584 97.395,174.594 L96.78,174.054 C98.715,172.194 99.705,169.194 99.735,165.084 L99.735,164.859 L97.62,164.859 L97.62,164.079 L99.735,164.079 L99.735,160.944 Z M107.31,161.244 L106.755,161.784 C107.745,162.579 108.54,163.329 109.125,164.049 L109.695,163.479 C109.05,162.729 108.255,161.994 107.31,161.244 Z M105.705,165.609 L108.69,165.609 L108.69,172.509 C109.275,172.059 109.92,171.489 110.61,170.829 L110.82,171.699 C109.92,172.554 108.945,173.319 107.91,174.009 L107.595,173.274 C107.775,173.094 107.88,172.914 107.88,172.704 L107.88,166.404 L105.705,166.404 L105.705,165.609 Z M111.03,167.349 L118.065,167.349 L118.065,168.099 C117.555,169.599 116.73,170.859 115.56,171.894 C116.61,172.659 117.915,173.334 119.475,173.904 L119.04,174.594 C117.405,173.949 116.055,173.214 114.975,172.389 C113.76,173.319 112.26,174.054 110.475,174.594 L110.025,173.919 C111.75,173.379 113.19,172.689 114.33,171.849 C113.1,170.769 112.26,169.524 111.825,168.129 L111.03,168.129 L111.03,167.349 Z M112.62,168.129 C113.04,169.359 113.805,170.439 114.915,171.384 C115.98,170.454 116.76,169.374 117.255,168.129 L112.62,168.129 Z M112.26,161.559 L117.09,161.559 L117.09,164.889 C117.09,165.279 117.285,165.474 117.69,165.474 L119.115,165.474 L119.115,166.224 L117.525,166.224 C116.685,166.224 116.28,165.819 116.28,165.024 L116.28,162.324 L113.07,162.324 L113.07,162.939 C113.07,164.544 112.305,165.789 110.805,166.659 L110.25,166.044 C111.585,165.324 112.26,164.319 112.26,163.014 L112.26,161.559 Z M132.12,168.159 L132.12,174.579 L131.34,174.579 L131.34,173.859 L123.69,173.859 L123.69,174.579 L122.91,174.579 L122.91,168.159 L132.12,168.159 Z M123.69,173.139 L127.11,173.139 L127.11,171.354 L123.69,171.354 L123.69,173.139 Z M127.89,173.139 L131.34,173.139 L131.34,171.354 L127.89,171.354 L127.89,173.139 Z M123.69,170.664 L127.11,170.664 L127.11,168.879 L123.69,168.879 L123.69,170.664 Z M127.89,168.879 L127.89,170.664 L131.34,170.664 L131.34,168.879 L127.89,168.879 Z M125.64,160.734 L126.45,160.914 C126.21,161.304 125.94,161.679 125.655,162.039 L131.895,162.039 L131.895,162.669 C130.92,163.869 129.72,164.874 128.31,165.714 C129.99,166.464 132,166.989 134.31,167.289 L133.935,168.024 C131.43,167.649 129.3,167.019 127.545,166.134 C125.715,167.064 123.54,167.739 121.035,168.159 L120.675,167.454 C123.015,167.109 125.04,166.524 126.78,165.714 C125.76,165.129 124.875,164.454 124.14,163.674 C123.465,164.274 122.73,164.829 121.935,165.324 L121.41,164.694 C123.18,163.644 124.59,162.324 125.64,160.734 Z M124.635,163.194 C125.43,164.034 126.39,164.739 127.53,165.339 C128.85,164.619 129.96,163.764 130.89,162.774 L125.04,162.774 C124.89,162.924 124.755,163.059 124.635,163.194 Z M142.485,166.854 C142.23,166.854 142.035,166.914 141.9,167.064 C141.75,167.199 141.675,167.394 141.675,167.634 C141.675,167.844 141.75,168.024 141.9,168.174 C142.05,168.324 142.23,168.399 142.44,168.399 C142.59,168.399 142.695,168.384 142.755,168.354 C142.755,168.714 142.65,169.029 142.455,169.314 C142.23,169.599 141.93,169.809 141.555,169.944 L141.555,170.544 C142.11,170.394 142.56,170.109 142.905,169.689 C143.25,169.239 143.43,168.729 143.43,168.144 C143.43,167.754 143.34,167.439 143.19,167.214 C143.01,166.974 142.785,166.854 142.485,166.854 Z M153.96,161.004 L154.785,161.004 C154.785,163.374 154.665,165.414 154.425,167.154 C155.625,168.414 156.63,169.689 157.44,170.964 L156.825,171.579 C156.165,170.469 155.325,169.299 154.275,168.084 C154.26,168.099 154.26,168.114 154.26,168.144 C153.78,170.724 152.715,172.824 151.08,174.444 L150.51,173.769 C151.95,172.314 152.925,170.454 153.405,168.204 C153.765,166.299 153.945,163.899 153.96,161.004 Z M159.81,160.989 L160.635,160.989 C160.635,162.549 160.575,163.959 160.47,165.249 C161.22,168.834 162.54,171.654 164.415,173.724 L163.83,174.399 C162.21,172.494 161.01,170.109 160.23,167.244 C160.17,167.574 160.125,167.889 160.065,168.189 C159.57,170.784 158.46,172.899 156.75,174.534 L156.195,173.859 C157.71,172.389 158.73,170.514 159.24,168.234 C159.615,166.314 159.81,163.899 159.81,160.989 Z M172.56,160.899 L173.28,161.274 C172.95,161.649 172.605,161.994 172.23,162.294 L176.745,162.294 L176.745,162.954 C175.125,165.834 172.11,167.454 167.73,167.799 L167.385,167.049 C168.825,166.959 170.1,166.734 171.21,166.374 C170.715,165.744 170.19,165.189 169.635,164.709 L170.34,164.364 C170.925,164.904 171.465,165.474 171.975,166.104 C173.64,165.414 174.915,164.394 175.8,163.044 L171.165,163.044 C169.995,163.749 168.615,164.274 167.01,164.619 L166.53,163.899 C169.215,163.359 171.225,162.369 172.56,160.899 Z M171.735,170.244 C172.35,170.874 172.935,171.549 173.475,172.269 C175.275,171.504 176.655,170.379 177.645,168.894 L173.01,168.894 C171.66,169.539 170.07,170.004 168.225,170.304 L167.745,169.584 C171.015,169.254 173.43,168.234 175.02,166.554 L175.71,166.929 C175.29,167.379 174.825,167.784 174.3,168.144 L178.68,168.144 L178.68,168.789 C176.565,172.359 172.605,174.204 166.815,174.324 L166.485,173.529 C168.9,173.499 170.97,173.184 172.71,172.569 C172.155,171.834 171.585,171.174 171.015,170.604 L171.735,170.244 Z M187.095,165.309 L187.905,165.309 L187.905,174.579 L187.095,174.579 L187.095,165.309 Z M187.125,160.914 L187.875,160.914 C189.135,163.029 191.325,164.889 194.415,166.494 L193.935,167.214 C191.055,165.729 188.91,163.884 187.5,161.694 C185.79,164.124 183.645,165.984 181.065,167.304 L180.585,166.569 C183.405,165.129 185.595,163.239 187.125,160.914 Z M200.925,171.759 L200.925,172.554 C199.425,173.124 197.745,173.589 195.855,173.949 L195.735,173.154 C197.715,172.809 199.44,172.344 200.925,171.759 Z M198.39,160.884 L199.17,161.199 C198.42,163.239 197.67,164.829 196.92,165.999 C197.655,165.879 198.39,165.729 199.125,165.534 C199.395,164.979 199.68,164.394 199.965,163.779 L200.67,164.049 C199.335,166.809 198.225,168.729 197.355,169.839 C198.435,169.569 199.515,169.209 200.58,168.759 L200.58,169.524 C199.14,170.109 197.73,170.514 196.38,170.754 L196.17,170.004 C196.32,169.944 196.44,169.854 196.545,169.764 C197.145,169.074 197.88,167.934 198.72,166.314 C197.835,166.524 196.965,166.704 196.11,166.854 L195.915,166.104 C196.035,166.044 196.155,165.939 196.26,165.789 C197.07,164.394 197.79,162.759 198.39,160.884 Z M202.86,167.394 L202.86,169.704 L205.785,169.704 L205.785,167.394 L202.86,167.394 Z M202.86,170.469 L202.86,173.004 L205.785,173.004 L205.785,170.469 L202.86,170.469 Z M202.86,173.769 L202.86,174.549 L202.08,174.549 L202.08,165.279 C201.63,166.119 201.105,166.929 200.535,167.694 L200.28,166.839 C201.51,165.039 202.395,163.059 202.905,160.929 L203.685,161.079 C203.475,161.934 203.205,162.759 202.89,163.569 L209.085,163.569 L209.085,164.349 L206.565,164.349 L206.565,166.629 L208.83,166.629 L208.83,167.394 L206.565,167.394 L206.565,169.704 L208.83,169.704 L208.83,170.469 L206.565,170.469 L206.565,173.004 L209.385,173.004 L209.385,173.769 L202.86,173.769 Z M205.785,164.349 L202.86,164.349 L202.86,166.629 L205.785,166.629 L205.785,164.349 Z M205.845,160.869 C206.175,161.724 206.445,162.504 206.625,163.224 L205.92,163.479 C205.68,162.669 205.395,161.859 205.065,161.079 L205.845,160.869 Z M213.945,169.164 L222.66,169.164 L222.66,169.779 C221.775,170.889 220.68,171.834 219.36,172.599 C220.74,173.214 222.39,173.664 224.295,173.934 L223.935,174.639 C221.835,174.279 220.065,173.739 218.595,173.004 C217.08,173.739 215.325,174.279 213.315,174.624 L212.955,173.904 C214.785,173.634 216.39,173.184 217.785,172.554 C216.54,171.804 215.55,170.919 214.8,169.869 L213.945,169.869 L213.945,169.164 Z M215.655,169.869 C216.405,170.784 217.365,171.564 218.535,172.194 C219.75,171.564 220.785,170.784 221.625,169.869 L215.655,169.869 Z M213.015,164.874 L215.655,164.874 L215.655,163.524 L216.45,163.524 L216.45,164.874 L220.77,164.874 L220.77,163.524 L221.565,163.524 L221.565,164.874 L223.905,164.874 L223.905,165.654 L221.565,165.654 L221.565,167.994 L215.655,167.994 L215.655,165.654 L213.015,165.654 L213.015,164.874 Z M216.45,165.654 L216.45,167.289 L220.77,167.289 L220.77,165.654 L216.45,165.654 Z M218.19,160.839 C218.385,161.229 218.565,161.679 218.745,162.174 L223.95,162.174 L223.95,162.954 L212.91,162.954 L212.91,167.079 C212.85,170.169 212.31,172.659 211.29,174.549 L210.675,173.994 C211.575,172.344 212.055,170.034 212.1,167.079 L212.1,162.174 L217.95,162.174 C217.755,161.739 217.56,161.349 217.35,160.989 L218.19,160.839 Z M227.385,165.264 L227.385,167.604 L231.285,167.604 L231.285,165.264 L227.385,165.264 Z M231.285,164.529 L231.285,162.309 L227.385,162.309 L227.385,164.529 L231.285,164.529 Z M226.455,174.099 L226.185,173.349 C226.455,173.259 226.59,173.094 226.59,172.884 L226.59,161.559 L232.05,161.559 L232.05,168.369 L227.385,168.369 L227.385,173.049 C228.87,172.629 230.175,172.194 231.285,171.744 C230.955,171.159 230.58,170.559 230.19,169.959 L230.82,169.569 C231.78,171.039 232.515,172.329 233.025,173.439 L232.38,173.889 C232.17,173.409 231.93,172.929 231.66,172.419 C230.16,173.064 228.42,173.619 226.455,174.099 Z M237.51,172.494 C238.275,172.494 238.665,172.089 238.665,171.294 L238.665,161.574 L233.985,161.574 L233.985,174.549 L234.795,174.549 L234.795,162.339 L237.87,162.339 L237.87,171.114 C237.87,171.534 237.66,171.744 237.24,171.744 L235.845,171.699 L236.055,172.494 L237.51,172.494 Z M245.46,162.084 L245.46,173.019 L244.68,173.019 L244.68,171.969 L242.145,171.969 L242.145,173.364 L241.335,173.364 L241.335,162.084 L245.46,162.084 Z M242.145,171.204 L244.68,171.204 L244.68,167.304 L242.145,167.304 L242.145,171.204 Z M242.145,166.539 L244.68,166.539 L244.68,162.834 L242.145,162.834 L242.145,166.539 Z M247.56,166.524 C248.52,167.934 249.24,169.179 249.75,170.244 L249.075,170.709 C248.535,169.569 247.815,168.324 246.9,166.944 L247.56,166.524 Z M251.1,174.429 L248.505,174.429 L248.325,173.649 C249.195,173.679 250.035,173.709 250.815,173.709 C251.325,173.709 251.595,173.439 251.595,172.899 L251.595,164.544 L246.24,164.544 L246.24,163.749 L251.595,163.749 L251.595,161.034 L252.42,161.034 L252.42,163.749 L254.37,163.749 L254.37,164.544 L252.42,164.544 L252.42,173.109 C252.42,173.979 251.97,174.429 251.1,174.429 Z M255.945,163.929 L257.91,163.929 L257.91,160.914 L258.705,160.914 L258.705,163.929 L260.34,163.929 L260.34,164.724 L258.705,164.724 L258.705,165.579 C259.335,166.299 259.965,167.109 260.595,168.009 L260.145,168.699 C259.59,167.739 259.11,166.959 258.705,166.374 L258.705,174.519 L257.91,174.519 L257.91,166.614 C257.4,168.324 256.695,169.854 255.825,171.219 L255.48,170.349 C256.62,168.699 257.415,166.824 257.88,164.724 L255.945,164.724 L255.945,163.929 Z M262.635,165.324 L267.12,165.324 L267.12,166.104 L262.635,166.104 L262.635,165.324 Z M260.595,173.319 L265.83,173.319 C266.49,171.699 267.06,169.689 267.555,167.289 L268.32,167.484 C267.87,169.689 267.3,171.639 266.625,173.319 L269.115,173.319 L269.115,174.114 L260.595,174.114 L260.595,173.319 Z M262.08,167.694 C262.515,168.954 262.905,170.409 263.235,172.044 L262.515,172.239 C262.215,170.739 261.825,169.314 261.375,167.934 L262.08,167.694 Z M264.435,167.124 C264.825,168.354 265.185,169.749 265.5,171.324 L264.765,171.519 C264.495,170.079 264.165,168.684 263.745,167.364 L264.435,167.124 Z M264.45,160.944 L265.215,160.944 C266.025,162.864 267.435,164.544 269.43,165.999 L268.965,166.689 C267.105,165.354 265.725,163.704 264.825,161.739 C263.745,163.899 262.365,165.564 260.715,166.734 L260.265,166.044 C262.065,164.724 263.46,163.029 264.45,160.944 Z M271.515,161.289 C272.37,161.949 273.09,162.594 273.675,163.254 L273.135,163.794 C272.595,163.164 271.875,162.504 270.96,161.814 L271.515,161.289 Z M271.275,164.964 L270.735,165.504 C271.605,166.254 272.31,166.959 272.835,167.634 L273.375,167.094 C272.805,166.374 272.115,165.669 271.275,164.964 Z M272.82,168.954 C272.25,170.694 271.59,172.419 270.81,174.099 L271.545,174.414 C272.265,172.794 272.925,171.054 273.51,169.224 L272.82,168.954 Z M279.255,161.664 L279.255,170.724 L278.505,170.724 L278.505,162.369 L275.19,162.369 L275.19,170.814 L274.455,170.814 L274.455,161.664 L279.255,161.664 Z M277.635,171.489 C278.58,172.344 279.375,173.199 280.02,174.054 L279.465,174.594 C278.895,173.769 278.115,172.899 277.14,171.984 L277.635,171.489 Z M276.495,163.524 L277.215,163.524 L277.215,168.324 C277.185,170.004 276.93,171.354 276.42,172.374 C275.925,173.304 275.115,174.039 273.99,174.579 L273.555,173.904 C274.635,173.394 275.415,172.704 275.865,171.834 C276.27,170.934 276.48,169.764 276.495,168.324 L276.495,163.524 Z M282.615,174.474 L280.95,174.474 L280.785,173.724 C281.325,173.754 281.85,173.784 282.345,173.784 C282.705,173.784 282.9,173.559 282.9,173.139 L282.9,160.989 L283.665,160.989 L283.665,173.334 C283.665,174.084 283.305,174.474 282.615,174.474 Z M280.65,162.219 L281.385,162.219 L281.385,171.639 L280.65,171.639 L280.65,162.219 Z M291.12,174.039 L291.735,174.594 C292.425,173.544 292.89,172.434 293.145,171.264 C293.4,170.214 293.535,168.864 293.535,167.199 L293.535,162.594 L296.19,162.594 L296.19,173.094 C296.19,173.904 296.595,174.309 297.435,174.309 L298.035,174.309 C298.395,174.309 298.665,174.234 298.845,174.084 C299.04,173.889 299.16,173.514 299.205,172.974 C299.25,172.404 299.28,171.594 299.28,170.514 L298.56,170.289 C298.56,171.669 298.53,172.554 298.5,172.929 C298.47,173.199 298.395,173.364 298.29,173.454 C298.215,173.514 298.11,173.559 297.975,173.559 L297.42,173.559 C297.12,173.559 296.985,173.379 296.985,173.034 L296.985,161.844 L292.74,161.844 L292.74,167.199 C292.74,168.669 292.635,169.899 292.44,170.859 C292.2,171.999 291.75,173.049 291.12,174.039 Z M290.985,161.544 L290.985,173.319 C290.985,174.069 290.595,174.459 289.815,174.459 L288.615,174.459 L288.42,173.739 C288.84,173.754 289.215,173.769 289.575,173.769 C289.995,173.769 290.22,173.529 290.22,173.049 L290.22,169.179 C289.38,169.434 288.48,169.644 287.505,169.809 C287.37,171.759 286.98,173.349 286.32,174.609 L285.72,174.054 C286.41,172.644 286.77,170.859 286.8,168.684 L286.8,161.544 L290.985,161.544 Z M287.535,169.044 C288.555,168.879 289.44,168.684 290.22,168.444 L290.22,166.149 C289.335,165.909 288.45,165.729 287.55,165.594 L287.55,168.639 C287.55,168.774 287.535,168.909 287.535,169.044 Z M287.55,164.904 C288.48,165.024 289.38,165.204 290.22,165.444 L290.22,162.294 L287.55,162.294 L287.55,164.904 Z M306.84,163.464 L306.84,164.244 L309.78,164.244 L309.78,165.819 C309.78,166.389 309.735,166.944 309.66,167.499 L306.42,167.499 L306.42,168.279 L309.525,168.279 C309.06,170.469 307.935,172.389 306.165,174.039 L306.795,174.564 C308.475,172.974 309.585,171.129 310.155,169.029 C310.935,171.249 312.195,173.109 313.905,174.579 L314.43,173.964 C312.69,172.554 311.43,170.649 310.665,168.279 L314.115,168.279 L314.115,167.499 L310.455,167.499 C310.515,166.959 310.56,166.389 310.575,165.819 L310.575,164.244 L313.515,164.244 L313.515,163.464 L310.575,163.464 L310.575,160.959 L309.78,160.959 L309.78,163.464 L306.84,163.464 Z M305.64,161.589 L305.64,173.424 C305.64,174.174 305.25,174.549 304.485,174.549 L303.405,174.549 L303.21,173.814 C303.57,173.829 303.915,173.844 304.245,173.844 C304.665,173.844 304.89,173.604 304.89,173.154 L304.89,169.329 C304.14,169.554 303.315,169.749 302.445,169.899 C302.355,171.804 302.025,173.379 301.485,174.624 L300.87,174.069 C301.425,172.659 301.71,170.874 301.725,168.714 L301.725,161.589 L305.64,161.589 Z M302.475,169.134 C303.36,168.984 304.17,168.804 304.89,168.579 L304.89,166.389 C304.11,166.119 303.3,165.894 302.49,165.744 L302.49,168.669 C302.49,168.819 302.475,168.984 302.475,169.134 Z M302.49,165.009 C303.33,165.174 304.125,165.384 304.89,165.654 L304.89,162.354 L302.49,162.354 L302.49,165.009 Z M319.17,168.129 L319.17,160.989 L319.965,160.989 L319.965,174.549 L319.17,174.549 L319.17,169.089 C318.225,170.094 317.145,171.039 315.915,171.909 L315.69,171.069 C316.95,170.229 318.105,169.254 319.17,168.129 Z M316.695,162.459 C317.28,163.689 317.79,164.994 318.225,166.389 L317.52,166.704 C317.04,165.204 316.5,163.869 315.93,162.714 L316.695,162.459 Z M326.82,161.214 C327.675,162.144 328.32,162.954 328.77,163.644 L328.125,164.109 C327.645,163.359 327,162.519 326.19,161.604 L326.82,161.214 Z M325.17,160.959 C325.17,162.084 325.14,163.434 325.11,165.024 L328.89,165.024 L328.89,165.819 L325.23,165.819 C325.86,169.299 327.255,171.999 329.4,173.889 L328.845,174.504 C326.82,172.644 325.5,170.214 324.87,167.214 C324.3,170.124 323.085,172.569 321.225,174.549 L320.685,173.949 C322.785,171.639 323.97,168.924 324.27,165.819 L321.12,165.819 L321.12,165.024 L324.315,165.024 C324.345,163.239 324.375,161.889 324.375,160.959 L325.17,160.959 Z M335.475,161.694 L342.9,161.694 L342.9,167.574 L340.77,167.574 L340.77,173.019 C340.77,173.349 340.965,173.529 341.355,173.529 L342.465,173.529 C342.825,173.529 343.065,173.424 343.215,173.214 C343.41,172.929 343.545,172.119 343.605,170.769 L344.325,171.009 C344.235,172.539 344.055,173.484 343.77,173.844 C343.53,174.129 343.14,174.279 342.615,174.279 L341.115,174.279 C340.365,174.279 339.99,173.904 339.99,173.169 L339.99,167.574 L338.325,167.574 C338.175,170.784 336.795,173.109 334.185,174.579 L333.75,173.889 C336.15,172.599 337.41,170.499 337.545,167.574 L335.475,167.574 L335.475,161.694 Z M342.105,166.809 L342.105,162.459 L336.27,162.459 L336.27,166.809 L342.105,166.809 Z M331.53,161.514 C332.64,162.744 333.495,163.824 334.095,164.754 L333.45,165.204 C332.82,164.214 331.965,163.119 330.87,161.919 L331.53,161.514 Z M333.48,167.649 L334.2,167.934 C333.375,170.184 332.46,172.284 331.44,174.264 L330.705,173.949 C331.77,171.894 332.7,169.794 333.48,167.649 Z M348.96,161.004 L349.785,161.004 C349.785,163.374 349.665,165.414 349.425,167.154 C350.625,168.414 351.63,169.689 352.44,170.964 L351.825,171.579 C351.165,170.469 350.325,169.299 349.275,168.084 C349.26,168.099 349.26,168.114 349.26,168.144 C348.78,170.724 347.715,172.824 346.08,174.444 L345.51,173.769 C346.95,172.314 347.925,170.454 348.405,168.204 C348.765,166.299 348.945,163.899 348.96,161.004 Z M354.81,160.989 L355.635,160.989 C355.635,162.549 355.575,163.959 355.47,165.249 C356.22,168.834 357.54,171.654 359.415,173.724 L358.83,174.399 C357.21,172.494 356.01,170.109 355.23,167.244 C355.17,167.574 355.125,167.889 355.065,168.189 C354.57,170.784 353.46,172.899 351.75,174.534 L351.195,173.859 C352.71,172.389 353.73,170.514 354.24,168.234 C354.615,166.314 354.81,163.899 354.81,160.989 Z M360.84,161.949 L360.84,162.744 L367.005,162.744 C366.84,163.599 366.555,164.424 366.165,165.204 L361.965,165.204 L361.965,174.519 L362.775,174.519 L362.775,165.999 L365.34,165.999 L365.34,174.069 L366.135,174.069 L366.135,165.999 L368.835,165.999 L368.835,174.069 L369.63,174.069 L369.63,165.999 L372.45,165.999 L372.45,172.884 C372.45,173.424 372.21,173.694 371.73,173.694 L370.395,173.664 L370.62,174.489 L372,174.489 C372.84,174.489 373.26,174.009 373.26,173.064 L373.26,165.204 L367.095,165.204 C367.47,164.424 367.755,163.599 367.95,162.744 L374.16,162.744 L374.16,161.949 L360.84,161.949 Z M377.655,161.304 C378.525,162.219 379.215,163.029 379.695,163.734 L379.035,164.169 C378.495,163.389 377.835,162.594 377.025,161.754 L377.655,161.304 Z M382.83,167.634 C383.94,168.849 384.81,169.914 385.41,170.829 L384.705,171.309 C384.09,170.319 383.25,169.239 382.17,168.054 L382.83,167.634 Z M381.3,160.899 L382.095,160.899 L382.095,162.444 C382.08,163.224 382.05,163.974 381.99,164.679 L388.215,164.679 C388.215,168.909 388.02,171.594 387.645,172.734 C387.255,173.874 386.565,174.459 385.575,174.459 C384.855,174.459 384.27,174.444 383.79,174.414 L383.565,173.619 C384.285,173.679 384.93,173.709 385.53,173.709 C386.49,173.634 387.03,172.749 387.18,171.054 C387.315,169.344 387.39,167.499 387.39,165.489 L381.915,165.489 C381.675,167.379 381.255,168.969 380.655,170.259 C379.77,172.074 378.3,173.499 376.26,174.534 L375.81,173.814 C377.82,172.794 379.245,171.384 380.085,169.584 C380.565,168.429 380.91,167.064 381.105,165.489 L376.32,165.489 L376.32,164.679 L381.195,164.679 C381.255,163.959 381.285,163.224 381.3,162.444 L381.3,160.899 Z M398.745,169.179 L397.53,169.179 L397.35,168.414 C397.74,168.444 398.115,168.474 398.475,168.474 C398.775,168.474 398.925,168.279 398.925,167.889 L398.925,163.869 L399.735,163.869 L399.735,168.084 C399.735,168.804 399.405,169.179 398.745,169.179 Z M392.7,164.589 C392.22,165.189 391.695,165.729 391.14,166.239 L390.615,165.624 C392.04,164.364 393.165,162.789 394.005,160.869 L394.8,161.064 C394.425,161.934 393.99,162.729 393.51,163.464 L393.51,169.224 L392.7,169.224 L392.7,164.589 Z M397.395,160.854 L398.16,161.049 C397.965,161.499 397.755,161.934 397.53,162.324 L403.635,162.324 L403.635,162.834 C403.455,163.584 403.2,164.334 402.9,165.054 L402.165,164.844 C402.435,164.304 402.66,163.719 402.84,163.074 L397.08,163.074 C396.495,163.959 395.82,164.754 395.055,165.444 L394.56,164.844 C395.745,163.794 396.69,162.459 397.395,160.854 Z M392.46,170.064 C392.16,171.324 391.71,172.464 391.08,173.469 L391.755,173.919 C392.4,172.884 392.895,171.654 393.255,170.229 L392.46,170.064 Z M399.705,174.369 L395.85,174.369 C394.995,174.369 394.575,173.934 394.575,173.094 L394.575,169.839 L395.4,169.839 L395.4,172.929 C395.4,173.364 395.625,173.589 396.105,173.589 L399.57,173.589 C399.9,173.589 400.125,173.499 400.26,173.334 C400.44,173.109 400.56,172.449 400.62,171.369 L401.385,171.624 C401.295,172.914 401.115,173.709 400.845,174.009 C400.605,174.249 400.215,174.369 399.705,174.369 Z M402.165,169.629 L401.505,170.034 C402.435,171.324 403.17,172.509 403.71,173.589 L404.385,173.109 C403.875,172.119 403.125,170.949 402.165,169.629 Z M396.96,165.369 L397.635,165.699 C397.065,166.869 396.405,167.874 395.625,168.714 L395.01,168.264 C395.76,167.454 396.42,166.494 396.96,165.369 Z M401.715,165.354 C402.435,166.284 403.08,167.304 403.65,168.414 L402.945,168.774 C402.36,167.604 401.715,166.569 401.025,165.654 L401.715,165.354 Z M397.41,169.419 C398.19,170.289 398.79,171.054 399.21,171.699 L398.565,172.164 C398.13,171.444 397.545,170.664 396.795,169.809 L397.41,169.419 Z M417.45,162.759 L417.45,174.579 L416.64,174.579 L416.64,173.559 L408.36,173.559 L408.36,174.579 L407.55,174.579 L407.55,162.759 L410.715,162.759 C411.075,162.144 411.345,161.514 411.51,160.854 L412.335,160.974 C412.155,161.604 411.9,162.204 411.57,162.759 L417.45,162.759 Z M408.36,172.779 L416.64,172.779 L416.64,170.094 L408.36,170.094 L408.36,172.779 Z M408.36,169.314 L416.64,169.314 L416.64,166.809 L408.36,166.809 L408.36,169.314 Z M408.36,166.029 L416.64,166.029 L416.64,163.539 L408.36,163.539 L408.36,166.029 Z M423.93,165.309 L423.93,166.869 L430.635,166.869 L430.635,165.309 L423.93,165.309 Z M430.635,164.604 L430.635,162.984 L423.93,162.984 L423.93,164.604 L430.635,164.604 Z M423.93,167.589 L423.93,169.689 C426.51,169.569 428.745,169.389 430.635,169.149 L430.635,167.589 L423.93,167.589 Z M423.12,169.719 L423.12,162.234 L426.09,162.234 C426.3,161.754 426.465,161.274 426.585,160.764 L427.44,160.884 C427.32,161.364 427.155,161.814 426.945,162.234 L431.445,162.234 L431.445,169.074 C432.33,168.129 432.99,167.139 433.425,166.089 L434.115,166.524 C433.395,167.934 432.495,169.134 431.445,170.124 L431.445,173.484 C431.445,174.234 431.07,174.609 430.32,174.609 L428.745,174.609 L428.535,173.829 L430.065,173.874 C430.44,173.874 430.635,173.679 430.635,173.319 L430.635,170.814 C430.245,171.114 429.87,171.384 429.495,171.624 C427.485,172.824 424.89,173.709 421.71,174.279 L421.335,173.544 C425.28,172.839 428.13,171.819 429.885,170.484 C430.125,170.274 430.365,170.079 430.605,169.884 C428.25,170.169 425.13,170.394 421.245,170.574 L421.125,169.794 C421.815,169.764 422.475,169.749 423.12,169.719 Z M441.84,163.464 L441.84,164.244 L444.78,164.244 L444.78,165.819 C444.78,166.389 444.735,166.944 444.66,167.499 L441.42,167.499 L441.42,168.279 L444.525,168.279 C444.06,170.469 442.935,172.389 441.165,174.039 L441.795,174.564 C443.475,172.974 444.585,171.129 445.155,169.029 C445.935,171.249 447.195,173.109 448.905,174.579 L449.43,173.964 C447.69,172.554 446.43,170.649 445.665,168.279 L449.115,168.279 L449.115,167.499 L445.455,167.499 C445.515,166.959 445.56,166.389 445.575,165.819 L445.575,164.244 L448.515,164.244 L448.515,163.464 L445.575,163.464 L445.575,160.959 L444.78,160.959 L444.78,163.464 L441.84,163.464 Z M440.64,161.589 L440.64,173.424 C440.64,174.174 440.25,174.549 439.485,174.549 L438.405,174.549 L438.21,173.814 C438.57,173.829 438.915,173.844 439.245,173.844 C439.665,173.844 439.89,173.604 439.89,173.154 L439.89,169.329 C439.14,169.554 438.315,169.749 437.445,169.899 C437.355,171.804 437.025,173.379 436.485,174.624 L435.87,174.069 C436.425,172.659 436.71,170.874 436.725,168.714 L436.725,161.589 L440.64,161.589 Z M437.475,169.134 C438.36,168.984 439.17,168.804 439.89,168.579 L439.89,166.389 C439.11,166.119 438.3,165.894 437.49,165.744 L437.49,168.669 C437.49,168.819 437.475,168.984 437.475,169.134 Z M437.49,165.009 C438.33,165.174 439.125,165.384 439.89,165.654 L439.89,162.354 L437.49,162.354 L437.49,165.009 Z M453.27,164.364 L458.385,164.364 C458.46,163.869 458.52,163.374 458.58,162.879 L459.375,162.984 C459.33,163.464 459.27,163.929 459.21,164.364 L464.085,164.364 L464.085,165.144 L459.075,165.144 C458.955,165.714 458.835,166.269 458.7,166.779 L462.615,166.779 L462.615,171.804 L461.82,171.804 L461.82,167.559 L455.655,167.559 L455.655,171.894 L454.86,171.894 L454.86,166.779 L457.86,166.779 C458.01,166.239 458.13,165.699 458.25,165.144 L453.27,165.144 L453.27,164.364 Z M463.005,161.064 L463.395,161.784 C460.35,162.294 456.93,162.594 453.135,162.654 L453.135,166.569 C453.06,169.839 452.415,172.464 451.185,174.414 L450.615,173.814 C451.68,172.074 452.25,169.659 452.34,166.569 L452.34,161.949 C456.27,161.904 459.825,161.604 463.005,161.064 Z M459.54,171.549 C461.205,172.179 462.72,172.959 464.1,173.874 L463.65,174.579 C462.18,173.559 460.665,172.749 459.12,172.164 L459.54,171.549 Z M458.61,168.234 L459.39,168.279 C459.21,170.049 458.67,171.414 457.77,172.359 C456.855,173.289 455.445,174.039 453.555,174.579 L453.135,173.844 C454.935,173.364 456.255,172.704 457.095,171.864 C457.92,171.024 458.43,169.824 458.61,168.234 Z M317.475,203.568 L316.125,203.568 L315.945,202.788 C316.38,202.818 316.8,202.848 317.19,202.848 C317.595,202.848 317.805,202.638 317.805,202.233 L317.805,198.198 C317.19,198.453 316.56,198.678 315.915,198.873 L315.705,198.063 C316.425,197.883 317.13,197.658 317.805,197.403 L317.805,193.788 L315.885,193.788 L315.885,192.993 L317.805,192.993 L317.805,190.083 L318.615,190.083 L318.615,192.993 L320.235,192.993 L320.235,193.788 L318.615,193.788 L318.615,197.058 C319.095,196.833 319.575,196.593 320.04,196.338 L320.04,197.163 C319.56,197.403 319.095,197.643 318.615,197.853 L318.615,202.428 C318.615,203.178 318.225,203.568 317.475,203.568 Z M321.51,190.593 L327.93,190.593 L327.93,195.648 L321.51,195.648 L321.51,190.593 Z M327.12,194.958 L327.12,193.473 L322.305,193.473 L322.305,194.958 L327.12,194.958 Z M322.305,192.813 L327.12,192.813 L327.12,191.283 L322.305,191.283 L322.305,192.813 Z M320.415,196.878 L328.95,196.878 L328.95,197.628 L325.11,197.628 L325.11,199.563 L328.365,199.563 L328.365,200.298 L325.11,200.298 L325.11,202.518 C325.74,202.608 326.49,202.668 327.39,202.668 C328.155,202.668 328.8,202.638 329.325,202.608 L329.1,203.418 C328.5,203.418 327.945,203.403 327.45,203.388 C325.47,203.388 324.12,203.193 323.415,202.818 C322.815,202.488 322.275,201.828 321.795,200.868 C321.435,201.888 320.895,202.833 320.175,203.688 L319.575,203.148 C320.775,201.738 321.42,200.148 321.525,198.378 L322.26,198.468 C322.23,199.008 322.155,199.518 322.035,200.013 C322.545,201.138 323.145,201.858 323.805,202.173 C323.955,202.233 324.12,202.293 324.315,202.353 L324.315,197.628 L320.415,197.628 L320.415,196.878 Z M335.16,193.308 L337.215,193.308 L337.215,190.098 L338.025,190.098 L338.025,193.308 L341.01,193.308 L341.01,190.098 L341.82,190.098 L341.82,193.308 L343.92,193.308 L343.92,194.118 L341.82,194.118 L341.82,197.868 L344.34,197.868 L344.34,198.663 L334.755,198.663 L334.755,197.868 L337.215,197.868 L337.215,194.118 L335.16,194.118 L335.16,193.308 Z M338.025,197.868 L341.01,197.868 L341.01,194.118 L338.025,194.118 L338.025,197.868 Z M341.19,199.413 L340.53,199.833 C341.76,201.228 342.72,202.503 343.41,203.658 L344.13,203.148 C343.455,202.083 342.48,200.838 341.19,199.413 Z M337.635,199.503 L338.37,199.863 C337.59,201.318 336.66,202.578 335.58,203.643 L334.875,203.148 C335.94,202.128 336.855,200.913 337.635,199.503 Z M332.61,194.913 C332.055,195.708 331.44,196.458 330.75,197.163 L330.495,196.293 C332.205,194.418 333.435,192.288 334.185,189.903 L334.935,190.263 C334.53,191.463 334.02,192.603 333.42,193.653 L333.42,203.718 L332.61,203.718 L332.61,194.913 Z M346.155,190.683 L358.86,190.683 L358.86,191.463 L352.92,191.463 L352.92,192.948 L357.6,192.948 L357.6,198.738 L352.755,198.738 C352.575,199.818 352.245,200.673 351.795,201.303 C353.925,202.248 356.46,202.773 359.415,202.893 L359.19,203.673 C356.13,203.538 353.49,202.953 351.27,201.903 C350.25,202.803 348.51,203.403 346.08,203.688 L345.72,202.953 C347.955,202.743 349.545,202.263 350.505,201.513 C349.56,201.003 348.69,200.403 347.91,199.728 L348.555,199.278 C349.305,199.923 350.13,200.478 351.06,200.958 C351.48,200.373 351.78,199.638 351.945,198.738 L347.445,198.738 L347.445,192.948 L352.11,192.948 L352.11,191.463 L346.155,191.463 L346.155,190.683 Z M356.805,198.003 L356.805,196.173 L352.92,196.173 L352.92,196.833 C352.905,197.253 352.89,197.643 352.86,198.003 L356.805,198.003 Z M352.035,198.003 C352.065,197.613 352.095,197.223 352.11,196.833 L352.11,196.173 L348.255,196.173 L348.255,198.003 L352.035,198.003 Z M348.255,195.468 L352.11,195.468 L352.11,193.683 L348.255,193.683 L348.255,195.468 Z M352.92,193.683 L352.92,195.468 L356.805,195.468 L356.805,193.683 L352.92,193.683 Z M374.25,198.243 L374.385,199.053 L372.765,199.323 L372.765,203.673 L371.955,203.673 L371.955,199.458 L367.155,200.238 L367.035,199.428 L371.955,198.618 L371.955,190.083 L372.765,190.083 L372.765,198.483 L374.25,198.243 Z M368.25,190.863 C369.39,191.673 370.335,192.468 371.085,193.278 L370.53,193.848 C369.825,193.083 368.88,192.273 367.695,191.418 L368.25,190.863 Z M367.8,194.328 C368.955,195.168 369.915,196.008 370.695,196.848 L370.11,197.418 C369.39,196.623 368.43,195.783 367.23,194.883 L367.8,194.328 Z M360.99,194.163 L360.99,194.958 L363.435,194.958 C362.88,196.713 361.935,198.288 360.585,199.668 L360.945,200.538 C362.055,199.278 362.91,197.868 363.51,196.293 L363.51,203.673 L364.335,203.673 L364.335,196.563 C364.935,197.133 365.685,197.928 366.57,198.933 L367.02,198.258 C366.105,197.328 365.205,196.503 364.335,195.783 L364.335,194.958 L366.51,194.958 L366.51,194.163 L364.335,194.163 L364.335,191.538 C365.085,191.388 365.805,191.223 366.465,191.028 L366.18,190.263 C364.68,190.713 362.955,191.043 360.99,191.223 L361.155,191.988 C361.965,191.898 362.76,191.808 363.51,191.688 L363.51,194.163 L360.99,194.163 Z M388.725,193.143 L388.725,196.293 L387.915,196.293 L387.915,193.923 L377.085,193.923 L377.085,196.293 L376.275,196.293 L376.275,193.143 L384.84,193.143 C385.545,192.153 386.145,191.073 386.64,189.933 L387.45,190.233 C386.895,191.388 386.325,192.363 385.725,193.143 L388.725,193.143 Z M378.48,195.453 L386.55,195.453 L386.55,196.188 C385.53,196.848 384.375,197.493 383.085,198.108 L383.085,199.038 L388.905,199.038 L388.905,199.818 L383.085,199.818 L383.085,202.518 C383.085,203.268 382.695,203.658 381.945,203.658 L380.055,203.658 L379.845,202.893 C380.4,202.908 381,202.923 381.66,202.923 C382.08,202.923 382.29,202.698 382.29,202.248 L382.29,199.818 L376.095,199.818 L376.095,199.038 L382.29,199.038 L382.29,197.703 C383.7,197.073 384.72,196.563 385.365,196.188 L378.48,196.188 L378.48,195.453 Z M378.135,190.158 C378.705,190.878 379.23,191.688 379.725,192.558 L379.005,192.903 C378.495,192.003 377.97,191.208 377.4,190.503 L378.135,190.158 Z M381.81,189.888 C382.32,190.653 382.785,191.478 383.22,192.378 L382.5,192.753 C382.05,191.808 381.57,190.968 381.06,190.248 L381.81,189.888 Z M395.94,192.708 L395.94,202.788 L395.16,202.788 L395.16,201.873 L392.13,201.873 L392.13,203.208 L391.35,203.208 L391.35,192.708 L392.7,192.708 C393.015,191.853 393.24,190.953 393.375,190.023 L394.2,190.128 C394.035,191.058 393.795,191.913 393.48,192.708 L395.94,192.708 Z M392.13,201.123 L395.16,201.123 L395.16,197.568 L392.13,197.568 L392.13,201.123 Z M392.13,196.833 L395.16,196.833 L395.16,193.488 L392.13,193.488 L392.13,196.833 Z M398.49,196.098 C399.63,197.358 400.5,198.453 401.1,199.398 L400.455,199.863 C399.825,198.843 398.94,197.733 397.83,196.518 L398.49,196.098 Z M403.71,192.723 C403.71,197.568 403.635,200.568 403.5,201.708 C403.35,202.908 402.66,203.508 401.415,203.508 C401.13,203.508 400.635,203.493 399.945,203.478 L399.75,202.728 C400.35,202.758 400.875,202.773 401.325,202.773 C402.135,202.773 402.6,202.323 402.72,201.438 C402.84,200.538 402.9,197.898 402.93,193.533 L398.505,193.533 C398.085,194.508 397.59,195.378 396.99,196.158 L396.51,195.528 C397.59,194.028 398.325,192.183 398.715,190.008 L399.51,190.098 C399.33,191.028 399.105,191.913 398.82,192.723 L403.71,192.723 Z M407.505,203.568 L406.005,203.568 L405.825,202.788 C406.305,202.818 406.77,202.848 407.22,202.848 C407.64,202.848 407.865,202.608 407.865,202.158 L407.865,198.243 C407.205,198.483 406.545,198.693 405.855,198.873 L405.645,198.078 C406.395,197.898 407.145,197.688 407.865,197.433 L407.865,193.788 L405.855,193.788 L405.855,192.993 L407.865,192.993 L407.865,190.083 L408.675,190.083 L408.675,192.993 L410.415,192.993 L410.415,193.788 L408.675,193.788 L408.675,197.133 C409.29,196.893 409.89,196.623 410.49,196.323 L410.49,197.148 C409.89,197.433 409.29,197.703 408.675,197.943 L408.675,202.368 C408.675,203.163 408.285,203.568 407.505,203.568 Z M418.065,192.738 L412.2,192.738 L412.2,195.828 L418.065,195.828 L418.065,192.738 Z M412.2,196.623 C412.185,199.383 411.555,201.738 410.31,203.718 L409.695,203.163 C410.82,201.468 411.39,199.278 411.405,196.608 L411.405,191.943 L414.78,191.943 C414.57,191.268 414.33,190.668 414.06,190.128 L414.915,189.978 C415.155,190.548 415.38,191.193 415.59,191.943 L418.845,191.943 L418.845,196.623 L412.2,196.623 Z M426.84,192.588 L426.84,193.368 L429.78,193.368 L429.78,194.943 C429.78,195.513 429.735,196.068 429.66,196.623 L426.42,196.623 L426.42,197.403 L429.525,197.403 C429.06,199.593 427.935,201.513 426.165,203.163 L426.795,203.688 C428.475,202.098 429.585,200.253 430.155,198.153 C430.935,200.373 432.195,202.233 433.905,203.703 L434.43,203.088 C432.69,201.678 431.43,199.773 430.665,197.403 L434.115,197.403 L434.115,196.623 L430.455,196.623 C430.515,196.083 430.56,195.513 430.575,194.943 L430.575,193.368 L433.515,193.368 L433.515,192.588 L430.575,192.588 L430.575,190.083 L429.78,190.083 L429.78,192.588 L426.84,192.588 Z M425.64,190.713 L425.64,202.548 C425.64,203.298 425.25,203.673 424.485,203.673 L423.405,203.673 L423.21,202.938 C423.57,202.953 423.915,202.968 424.245,202.968 C424.665,202.968 424.89,202.728 424.89,202.278 L424.89,198.453 C424.14,198.678 423.315,198.873 422.445,199.023 C422.355,200.928 422.025,202.503 421.485,203.748 L420.87,203.193 C421.425,201.783 421.71,199.998 421.725,197.838 L421.725,190.713 L425.64,190.713 Z M422.475,198.258 C423.36,198.108 424.17,197.928 424.89,197.703 L424.89,195.513 C424.11,195.243 423.3,195.018 422.49,194.868 L422.49,197.793 C422.49,197.943 422.475,198.108 422.475,198.258 Z M422.49,194.133 C423.33,194.298 424.125,194.508 424.89,194.778 L424.89,191.478 L422.49,191.478 L422.49,194.133 Z M436.065,192.318 L436.065,193.113 L440.31,193.113 C440.295,193.623 440.265,194.403 440.22,195.468 C440.13,196.908 439.845,198.213 439.335,199.383 C438.78,200.553 437.7,201.813 436.11,203.163 L436.71,203.733 C438,202.668 439.035,201.513 439.785,200.253 C440.325,199.218 440.685,198.078 440.865,196.833 L446.385,196.833 C446.385,198.918 446.34,200.313 446.25,201.033 C446.07,202.203 445.545,202.818 444.675,202.863 C444.165,202.863 443.535,202.833 442.785,202.803 L443.025,203.553 C443.7,203.583 444.285,203.598 444.765,203.598 C445.95,203.553 446.67,202.863 446.925,201.513 C447.09,200.643 447.18,198.828 447.21,196.053 L440.955,196.053 C440.955,195.993 440.97,195.948 440.97,195.903 C441.045,194.658 441.09,193.728 441.12,193.113 L449.085,193.113 L449.085,192.318 L443.445,192.318 C443.085,191.418 442.68,190.638 442.245,189.993 L441.465,190.278 C441.915,190.908 442.305,191.598 442.62,192.318 L436.065,192.318 Z M450.99,192.798 L458.46,192.798 C458.4,191.913 458.385,190.998 458.385,190.053 L459.225,190.053 C459.225,191.013 459.24,191.928 459.3,192.798 L464.01,192.798 L464.01,193.608 L459.345,193.608 C459.525,196.308 459.945,198.528 460.59,200.268 C461.235,201.918 461.835,202.743 462.375,202.773 C462.735,202.698 463.095,201.798 463.425,200.073 L464.16,200.448 C463.71,202.578 463.14,203.643 462.42,203.658 C461.19,203.598 460.11,201.948 459.21,198.693 C458.85,197.223 458.625,195.528 458.505,193.608 L450.99,193.608 L450.99,192.798 Z M451.245,196.323 L457.515,196.323 L457.515,197.103 L454.785,197.103 L454.785,201.318 C455.925,201.108 457.035,200.853 458.115,200.583 L458.115,201.393 C455.97,201.918 453.645,202.353 451.155,202.698 L450.96,201.918 C451.98,201.798 452.985,201.648 453.975,201.468 L453.975,197.103 L451.245,197.103 L451.245,196.323 Z M461.475,190.158 C462,190.773 462.495,191.433 462.945,192.153 L462.255,192.498 C461.79,191.748 461.31,191.088 460.8,190.488 L461.475,190.158 Z" id="连接手机等移动设备，从多个维度即时检测肌" fill="#777777"></path>
                </g>
            </g>
        </g>
    </g>
</svg>