<?xml version="1.0" encoding="UTF-8"?>
<svg width="332px" height="15px" viewBox="0 0 332 15" version="1.1" xmlns="http://www.w3.org/2000/svg" xmlns:xlink="http://www.w3.org/1999/xlink">
    <!-- Generator: Sketch 45.1 (43504) - http://www.bohemiancoding.com/sketch -->
    <title>txt2.2</title>
    <desc>Created with Sketch.</desc>
    <defs></defs>
    <g id="Page-1" stroke="none" stroke-width="1" fill="none" fill-rule="evenodd">
        <g id="新版" transform="translate(-155.000000, -1484.000000)" fill="#777777">
            <g id="2" transform="translate(-5.000000, 1022.000000)">
                <g id="内容" transform="translate(0.000000, 282.000000)">
                    <g id="文字" transform="translate(160.000000, 0.000000)">
                        <path d="M10.185,186.595 C10.92,187.195 11.475,187.705 11.865,188.155 L11.265,188.575 C10.86,188.095 10.305,187.555 9.585,186.97 L10.185,186.595 Z M1.11,188.815 L6.51,188.815 C6.75,188.005 6.93,187.09 7.02,186.07 L7.83,186.16 C7.74,187.135 7.59,188.02 7.35,188.815 L13.905,188.815 L13.905,189.58 L8.13,189.58 C9.405,191.62 11.445,193 14.25,193.735 L13.815,194.44 C10.845,193.6 8.67,191.98 7.305,189.58 L7.095,189.58 C6.81,190.36 6.45,191.05 6,191.65 C5.1,192.88 3.525,193.84 1.245,194.56 L0.93,193.795 C2.97,193.165 4.455,192.28 5.355,191.11 C5.7,190.66 5.985,190.15 6.225,189.58 L1.11,189.58 L1.11,188.815 Z M13.695,182.155 L13.695,184.645 L12.9,184.645 L12.9,182.935 L9.405,182.935 L9.405,184.855 C9.405,185.185 9.6,185.365 9.99,185.365 L13.41,185.365 L13.41,186.07 L9.615,186.07 C8.955,186.07 8.64,185.77 8.64,185.2 L8.64,182.935 L2.085,182.935 L2.085,184.765 L1.29,184.765 L1.29,182.155 L7.095,182.155 C6.915,181.675 6.705,181.225 6.465,180.82 L7.29,180.67 C7.5,181.12 7.695,181.615 7.905,182.155 L13.695,182.155 Z M6.15,183.055 L6.78,183.445 C5.94,185.35 4.275,186.58 1.785,187.15 L1.395,186.475 C3.78,185.965 5.37,184.825 6.15,183.055 Z M16.095,181.72 L20.79,181.72 L20.79,182.5 L18.51,182.5 C18.315,183.805 18.015,185.02 17.61,186.13 L20.28,186.13 L20.28,192.61 L17.85,192.61 L17.85,193.96 L17.085,193.96 L17.085,187.405 C16.785,188.05 16.44,188.665 16.065,189.235 L15.63,188.53 C16.71,186.79 17.415,184.78 17.745,182.5 L16.095,182.5 L16.095,181.72 Z M17.85,191.875 L19.545,191.875 L19.545,186.88 L17.85,186.88 L17.85,191.875 Z M28.095,183.52 L25.74,183.52 L25.74,186.76 L28.035,186.76 L28.035,187.45 C27.69,189.055 27.045,190.435 26.115,191.575 C26.985,192.4 28.08,193.12 29.37,193.75 L28.935,194.44 C27.6,193.765 26.49,193 25.62,192.145 C24.72,193.09 23.58,193.87 22.23,194.47 L21.735,193.855 C23.1,193.27 24.225,192.52 25.095,191.59 C24.03,190.39 23.31,189.04 22.95,187.51 L22.395,187.51 C22.29,190.195 21.69,192.505 20.595,194.455 L19.995,193.915 C21.045,192.085 21.6,189.73 21.645,186.85 L21.645,182.755 L24.945,182.755 L24.945,180.775 L25.74,180.775 L25.74,182.755 L28.905,182.755 L28.905,183.16 C28.725,184.03 28.47,184.885 28.14,185.695 L27.42,185.5 C27.69,184.9 27.915,184.24 28.095,183.52 Z M23.67,187.51 C24,188.83 24.645,190 25.575,191.035 C26.385,190.015 26.94,188.845 27.255,187.51 L23.67,187.51 Z M22.41,186.76 L24.945,186.76 L24.945,183.52 L22.41,183.52 L22.41,186.76 Z M37.02,185.155 C36.24,186.64 35.22,187.69 33.945,188.32 L33.51,187.6 C34.935,186.91 36,185.665 36.72,183.895 L32.58,183.895 L32.58,194.455 L31.785,194.455 L31.785,183.1 L37.005,183.1 C37.245,182.35 37.425,181.54 37.56,180.67 L38.355,180.745 C38.205,181.615 38.04,182.395 37.83,183.1 L43.215,183.1 L43.215,192.73 C43.215,193.75 42.75,194.26 41.85,194.26 L39.63,194.26 L39.405,193.465 L41.58,193.51 C42.135,193.51 42.42,193.195 42.42,192.565 L42.42,183.895 L37.56,183.895 C37.47,184.105 37.395,184.315 37.32,184.51 C38.67,185.32 40.035,186.25 41.43,187.285 L40.965,187.975 C39.405,186.745 38.085,185.8 37.02,185.155 Z M37.185,189.505 C36.435,190.78 35.385,191.755 34.005,192.445 L33.6,191.725 C35.58,190.705 36.81,189.145 37.305,187.045 L38.1,187.135 C37.95,187.765 37.755,188.335 37.515,188.86 C38.76,189.625 40.02,190.51 41.31,191.515 L40.845,192.19 C39.405,191.02 38.175,190.12 37.185,189.505 Z M50.43,181.675 L50.43,193.435 L49.65,193.435 L49.65,192.22 L47.055,192.22 L47.055,193.78 L46.275,193.78 L46.275,181.675 L50.43,181.675 Z M47.055,191.44 L49.65,191.44 L49.65,188.95 L47.055,188.95 L47.055,191.44 Z M47.055,188.215 L49.65,188.215 L49.65,185.71 L47.055,185.71 L47.055,188.215 Z M47.055,184.96 L49.65,184.96 L49.65,182.455 L47.055,182.455 L47.055,184.96 Z M52.77,184.93 L52.77,186.85 L57.255,186.85 L57.255,184.93 L52.77,184.93 Z M57.255,184.21 L57.255,182.215 L52.77,182.215 L52.77,184.21 L57.255,184.21 Z M58.41,188.5 L58.935,189.01 C58.245,189.91 57.465,190.585 56.595,191.035 C57.345,192.115 58.245,192.955 59.295,193.585 L58.83,194.29 C56.925,193.12 55.545,191.29 54.69,188.83 L55.29,188.485 C55.56,189.205 55.86,189.85 56.22,190.45 C56.985,190.03 57.72,189.385 58.41,188.5 Z M52.77,187.6 L52.77,193.18 C53.655,192.94 54.525,192.625 55.38,192.235 L55.56,192.955 C54.57,193.375 53.34,193.795 51.855,194.185 L51.69,193.525 C51.87,193.465 51.975,193.375 51.975,193.24 L51.975,181.465 L58.05,181.465 L58.05,187.6 L52.77,187.6 Z M61.365,181.45 L61.365,194.47 L62.175,194.47 L62.175,182.23 L64.95,182.23 C64.56,183.52 63.99,184.975 63.27,186.58 C64.35,187.855 64.89,189.01 64.89,190.045 C64.89,190.405 64.77,190.66 64.53,190.81 C64.305,190.96 63.855,191.05 63.18,191.095 C63.06,191.095 62.91,191.08 62.745,191.05 L63,191.875 C64.05,191.86 64.785,191.695 65.205,191.365 C65.52,191.095 65.685,190.645 65.7,190.045 C65.625,188.935 65.1,187.735 64.11,186.46 C64.755,184.96 65.31,183.505 65.79,182.11 L65.79,181.45 L61.365,181.45 Z M67.425,184.99 L67.425,186.94 L72.195,186.94 L72.195,184.99 L67.425,184.99 Z M72.195,184.24 L72.195,182.26 L67.425,182.26 L67.425,184.24 L72.195,184.24 Z M73.44,188.485 L73.965,189.01 C73.275,189.88 72.465,190.54 71.55,190.99 C72.33,192.1 73.29,192.97 74.43,193.615 L73.965,194.305 C71.985,193.15 70.53,191.35 69.63,188.89 L70.245,188.53 C70.5,189.205 70.8,189.82 71.16,190.39 C71.955,189.985 72.72,189.355 73.44,188.485 Z M67.425,187.69 L67.425,193.18 C68.415,192.895 69.39,192.52 70.35,192.055 L70.53,192.835 C69.48,193.315 68.16,193.765 66.54,194.2 L66.345,193.465 C66.525,193.405 66.615,193.315 66.615,193.195 L66.615,181.48 L73.005,181.48 L73.005,187.69 L67.425,187.69 Z M77.25,183.52 L79.575,183.52 L79.575,185.71 L75.855,185.71 L75.855,186.475 L79.575,186.475 L79.575,188.29 L76.575,188.29 L76.575,193.54 L77.37,193.54 L77.37,189.04 L79.575,189.04 L79.575,194.5 L80.385,194.5 L80.385,189.04 L82.545,189.04 L82.545,192.04 C82.545,192.46 82.32,192.685 81.87,192.685 L81.09,192.64 L81.3,193.42 L82.125,193.42 C82.92,193.42 83.325,193.015 83.325,192.205 L83.325,188.29 L80.385,188.29 L80.385,186.475 L83.715,186.475 L83.715,185.71 L80.385,185.71 L80.385,183.52 L83.295,183.52 L83.295,182.755 L80.385,182.755 L80.385,180.82 L79.575,180.82 L79.575,182.755 L77.52,182.755 C77.655,182.32 77.76,181.84 77.85,181.3 L77.07,181.18 C76.86,182.65 76.365,183.79 75.585,184.615 L76.245,185.08 C76.635,184.66 76.98,184.135 77.25,183.52 Z M84.735,182.185 L85.53,182.185 L85.53,191.515 L84.735,191.515 L84.735,182.185 Z M87.39,194.32 L85.2,194.32 L85.02,193.555 C85.74,193.585 86.445,193.6 87.105,193.6 C87.615,193.6 87.87,193.33 87.87,192.82 L87.87,180.835 L88.68,180.835 L88.68,193.03 C88.68,193.885 88.245,194.32 87.39,194.32 Z M97.485,186.73 C97.23,186.73 97.035,186.79 96.9,186.94 C96.75,187.075 96.675,187.27 96.675,187.51 C96.675,187.72 96.75,187.9 96.9,188.05 C97.05,188.2 97.23,188.275 97.44,188.275 C97.59,188.275 97.695,188.26 97.755,188.23 C97.755,188.59 97.65,188.905 97.455,189.19 C97.23,189.475 96.93,189.685 96.555,189.82 L96.555,190.42 C97.11,190.27 97.56,189.985 97.905,189.565 C98.25,189.115 98.43,188.605 98.43,188.02 C98.43,187.63 98.34,187.315 98.19,187.09 C98.01,186.85 97.785,186.73 97.485,186.73 Z M110.415,187.855 L113.985,187.855 L113.985,184.96 L114.81,184.96 L114.81,187.855 L118.455,187.855 L118.455,188.665 L114.81,188.665 L114.81,193.15 L119.16,193.15 L119.16,193.945 L109.755,193.945 L109.755,193.15 L113.985,193.15 L113.985,188.665 L110.415,188.665 L110.415,187.855 Z M108.105,188.095 C107.475,188.77 106.8,189.415 106.08,190.015 L105.555,189.355 C107.535,187.72 109.065,185.845 110.16,183.715 L106.08,183.715 L106.08,182.92 L110.535,182.92 C110.835,182.2 111.105,181.45 111.345,180.7 L112.17,180.79 C111.96,181.525 111.705,182.23 111.42,182.92 L119.115,182.92 L119.115,183.715 L111.06,183.715 C110.46,184.945 109.755,186.085 108.915,187.135 L108.915,194.5 L108.105,194.5 L108.105,188.095 Z M121.68,182.29 L121.14,188.14 L122.01,188.14 C122.25,187.69 122.595,187.33 123.045,187.075 C123.48,186.835 123.975,186.715 124.515,186.715 C125.34,186.715 126,186.955 126.48,187.45 C126.975,187.96 127.23,188.68 127.23,189.595 C127.23,190.405 126.96,191.08 126.435,191.62 C125.91,192.145 125.235,192.415 124.425,192.415 C123.72,192.415 123.135,192.22 122.67,191.86 C122.145,191.455 121.845,190.885 121.77,190.165 L120.855,190.165 C120.93,191.125 121.335,191.89 122.07,192.445 C122.715,192.955 123.495,193.21 124.425,193.21 C125.475,193.21 126.345,192.88 127.05,192.22 C127.77,191.53 128.145,190.645 128.145,189.595 C128.145,188.44 127.815,187.54 127.17,186.88 C126.54,186.25 125.715,185.935 124.695,185.935 C124.2,185.935 123.735,186.025 123.3,186.22 C122.82,186.415 122.43,186.7 122.115,187.075 L122.07,187.075 L122.445,183.13 L127.74,183.13 L127.74,182.29 L121.68,182.29 Z M133.5,182.08 C134.79,182.08 135.75,182.665 136.38,183.85 C136.89,184.795 137.16,186.055 137.16,187.645 C137.16,189.22 136.89,190.48 136.38,191.44 C135.75,192.61 134.79,193.21 133.5,193.21 C132.21,193.21 131.25,192.61 130.62,191.44 C130.095,190.48 129.84,189.22 129.84,187.645 C129.84,186.055 130.095,184.795 130.62,183.85 C131.25,182.665 132.21,182.08 133.5,182.08 Z M133.5,182.89 C132.465,182.89 131.715,183.415 131.265,184.48 C130.935,185.26 130.77,186.325 130.77,187.645 C130.77,188.965 130.935,190.015 131.265,190.81 C131.715,191.86 132.465,192.4 133.5,192.4 C134.52,192.4 135.27,191.86 135.735,190.81 C136.065,190.015 136.245,188.965 136.245,187.645 C136.245,186.325 136.065,185.26 135.735,184.48 C135.27,183.415 134.52,182.89 133.5,182.89 Z M143.1,182.35 L146.97,182.35 C146.775,181.765 146.565,181.24 146.355,180.79 L147.18,180.64 C147.375,181.15 147.57,181.72 147.75,182.35 L151.77,182.35 L151.77,183.13 L150.63,183.13 C150.225,184.39 149.775,185.5 149.28,186.46 L152.16,186.46 L152.16,187.255 L142.515,187.255 L142.515,186.46 L145.365,186.46 C145.035,185.29 144.6,184.18 144.09,183.13 L143.1,183.13 L143.1,182.35 Z M148.47,186.46 C148.965,185.425 149.4,184.315 149.775,183.13 L144.975,183.13 C145.41,184.09 145.8,185.2 146.16,186.46 L148.47,186.46 Z M150.78,188.965 L150.78,194.44 L149.955,194.44 L149.955,193.6 L144.645,193.6 L144.645,194.44 L143.82,194.44 L143.82,188.965 L150.78,188.965 Z M144.645,192.805 L149.955,192.805 L149.955,189.775 L144.645,189.775 L144.645,192.805 Z M140.385,185.905 C139.905,186.64 139.395,187.33 138.825,187.99 L138.57,187.12 C140.085,185.23 141.18,183.085 141.855,180.685 L142.605,181.03 C142.23,182.26 141.765,183.43 141.195,184.51 L141.195,194.5 L140.385,194.5 L140.385,185.905 Z M159.36,181.99 L162.48,181.99 C162.3,181.54 162.12,181.135 161.91,180.775 L162.72,180.625 C162.9,181.03 163.08,181.48 163.26,181.99 L166.545,181.99 L166.545,182.695 L165.225,182.695 C165.075,183.325 164.85,183.94 164.58,184.51 L167.04,184.51 L167.04,185.215 L158.91,185.215 L158.91,184.51 L161.28,184.51 C161.07,183.85 160.845,183.235 160.605,182.695 L159.36,182.695 L159.36,181.99 Z M163.785,184.51 C164.115,183.925 164.34,183.325 164.475,182.695 L161.4,182.695 C161.61,183.25 161.805,183.85 162.015,184.51 L163.785,184.51 Z M159.9,186.31 L165.93,186.31 L165.93,190.84 L164.385,190.84 L164.385,193.03 C164.385,193.42 164.565,193.63 164.94,193.63 L165.75,193.63 C166.035,193.63 166.23,193.555 166.35,193.42 C166.5,193.225 166.605,192.67 166.665,191.74 L167.34,191.965 C167.25,193.075 167.1,193.75 166.875,194.005 C166.665,194.215 166.335,194.32 165.885,194.32 L164.73,194.32 C163.98,194.32 163.605,193.945 163.605,193.195 L163.605,190.84 L162.06,190.84 C161.91,191.8 161.58,192.55 161.1,193.12 C160.56,193.72 159.675,194.2 158.475,194.545 L158.175,193.84 C159.255,193.555 160.02,193.165 160.5,192.655 C160.89,192.19 161.16,191.59 161.31,190.84 L159.9,190.84 L159.9,186.31 Z M165.165,190.165 L165.165,188.89 L160.65,188.89 L160.65,190.165 L165.165,190.165 Z M160.65,188.245 L165.165,188.245 L165.165,186.985 L160.65,186.985 L160.65,188.245 Z M155.565,180.655 L156.345,180.82 C156.195,181.45 156.045,182.035 155.865,182.575 L158.655,182.575 L158.655,183.34 L155.595,183.34 C155.19,184.42 154.725,185.395 154.215,186.265 L153.54,185.845 C154.455,184.315 155.13,182.575 155.565,180.655 Z M155.115,185.59 L158.43,185.59 L158.43,186.325 L156.765,186.325 L156.765,188.395 L158.775,188.395 L158.775,189.175 L156.765,189.175 L156.765,192.97 C157.335,192.73 157.92,192.385 158.52,191.965 L158.655,192.685 C157.875,193.21 156.975,193.645 155.955,193.975 L155.64,193.3 C155.865,193.21 155.985,193.075 155.985,192.88 L155.985,189.175 L154.005,189.175 L154.005,188.395 L155.985,188.395 L155.985,186.325 L155.115,186.325 L155.115,185.59 Z M168.87,183.085 L171.855,183.085 C171.57,182.32 171.225,181.57 170.835,180.85 L171.63,180.64 C172.05,181.435 172.365,182.17 172.59,182.845 L171.945,183.085 L175.005,183.085 L175.005,183.88 L171.27,183.88 L171.27,185.425 C171.27,185.725 171.255,186.025 171.255,186.31 L174.24,186.31 C174.24,189.91 174.165,192.13 174.03,192.955 C173.88,193.825 173.265,194.26 172.2,194.26 C171.99,194.26 171.66,194.245 171.18,194.215 L170.985,193.495 C171.405,193.525 171.765,193.54 172.065,193.54 C172.725,193.54 173.13,193.255 173.25,192.715 C173.385,192.085 173.46,190.195 173.475,187.06 L171.225,187.06 C171.03,190.33 170.355,192.79 169.185,194.425 L168.555,193.885 C169.83,192.13 170.475,189.31 170.505,185.425 L170.505,183.88 L168.87,183.88 L168.87,183.085 Z M177.105,183.955 C176.61,185.305 175.98,186.43 175.2,187.33 L174.69,186.715 C175.89,185.215 176.715,183.205 177.15,180.67 L177.945,180.82 C177.795,181.66 177.6,182.44 177.375,183.16 L181.89,183.16 L181.89,183.955 L180.69,183.955 C180.6,186.445 180.03,188.575 178.965,190.33 C179.88,191.62 180.99,192.745 182.28,193.735 L181.74,194.38 C180.45,193.39 179.37,192.28 178.485,191.05 C177.525,192.355 176.295,193.435 174.765,194.305 L174.3,193.57 C175.86,192.73 177.105,191.665 178.02,190.375 C177.27,189.235 176.685,187.99 176.25,186.64 L176.895,186.265 C177.3,187.48 177.825,188.605 178.485,189.625 C179.385,188.02 179.865,186.13 179.925,183.955 L177.105,183.955 Z M183.96,184.81 L183.96,185.62 L189.735,185.62 C188.97,189.46 186.945,192.19 183.66,193.81 L184.17,194.485 C187.5,192.76 189.585,189.97 190.44,186.1 C191.535,189.7 193.665,192.475 196.815,194.395 L197.31,193.735 C194.16,191.845 192.075,189.145 191.025,185.62 L197.04,185.62 L197.04,184.81 L190.68,184.81 C190.83,183.865 190.905,182.845 190.905,181.765 L190.905,180.805 L190.095,180.805 L190.095,181.945 C190.08,182.935 190.005,183.895 189.87,184.81 L183.96,184.81 Z M198.87,181.66 L198.87,182.455 L204.705,182.455 L204.705,194.5 L205.5,194.5 L205.5,185.8 C206.94,186.565 208.695,187.645 210.78,189.055 L211.26,188.335 C209.31,187.06 207.39,185.935 205.5,184.96 L205.5,182.455 L212.115,182.455 L212.115,181.66 L198.87,181.66 Z M215.94,186.19 C217.095,186.67 218.145,187.27 219.105,187.975 L218.685,188.62 C217.665,187.84 216.6,187.24 215.52,186.805 L215.94,186.19 Z M217.515,184.06 C218.625,184.54 219.645,185.14 220.575,185.845 L220.14,186.505 C219.15,185.725 218.145,185.125 217.095,184.675 L217.515,184.06 Z M214.215,189.13 L220.935,189.13 C221.34,188.155 221.55,187.06 221.58,185.83 L221.58,183.985 L222.375,183.985 L222.375,185.83 C222.345,187.06 222.165,188.155 221.805,189.13 L226.8,189.13 L226.8,189.91 L221.46,189.91 C221.175,190.465 220.845,190.975 220.455,191.425 C219.255,192.715 217.29,193.735 214.545,194.47 L214.08,193.78 C216.84,193.06 218.79,192.085 219.945,190.825 C220.185,190.525 220.38,190.225 220.56,189.91 L214.215,189.91 L214.215,189.13 Z M226.515,182.23 L226.515,185.08 L225.705,185.08 L225.705,182.995 L215.265,182.995 L215.265,185.08 L214.455,185.08 L214.455,182.23 L220.215,182.23 C220.005,181.705 219.765,181.225 219.51,180.805 L220.35,180.655 C220.59,181.105 220.815,181.63 221.04,182.23 L226.515,182.23 Z M222.015,191.08 C223.905,191.83 225.645,192.745 227.22,193.825 L226.77,194.515 C225.09,193.315 223.365,192.385 221.595,191.695 L222.015,191.08 Z M233.46,181.96 L233.46,192.895 L232.68,192.895 L232.68,191.845 L230.145,191.845 L230.145,193.24 L229.335,193.24 L229.335,181.96 L233.46,181.96 Z M230.145,191.08 L232.68,191.08 L232.68,187.18 L230.145,187.18 L230.145,191.08 Z M230.145,186.415 L232.68,186.415 L232.68,182.71 L230.145,182.71 L230.145,186.415 Z M235.56,186.4 C236.52,187.81 237.24,189.055 237.75,190.12 L237.075,190.585 C236.535,189.445 235.815,188.2 234.9,186.82 L235.56,186.4 Z M239.1,194.305 L236.505,194.305 L236.325,193.525 C237.195,193.555 238.035,193.585 238.815,193.585 C239.325,193.585 239.595,193.315 239.595,192.775 L239.595,184.42 L234.24,184.42 L234.24,183.625 L239.595,183.625 L239.595,180.91 L240.42,180.91 L240.42,183.625 L242.37,183.625 L242.37,184.42 L240.42,184.42 L240.42,192.985 C240.42,193.855 239.97,194.305 239.1,194.305 Z M256.02,181.435 L256.02,189.535 L255.24,189.535 L255.24,182.215 L250.71,182.215 L250.71,189.535 L249.93,189.535 L249.93,181.435 L256.02,181.435 Z M255.825,194.2 L254.415,194.2 C253.65,194.2 253.275,193.81 253.275,193.045 L253.275,189.625 L254.055,189.625 L254.055,192.895 C254.055,193.27 254.25,193.465 254.655,193.465 L255.69,193.465 C256.005,193.465 256.215,193.375 256.335,193.21 C256.515,192.985 256.62,192.355 256.68,191.305 L257.4,191.53 C257.31,192.775 257.145,193.555 256.89,193.855 C256.665,194.08 256.305,194.2 255.825,194.2 Z M252.57,183.385 L253.35,183.385 L253.35,186.37 C253.32,188.56 252.915,190.3 252.135,191.62 C251.385,192.85 250.14,193.795 248.415,194.485 L247.95,193.795 C249.645,193.12 250.845,192.205 251.565,191.035 C252.21,189.835 252.54,188.29 252.57,186.37 L252.57,183.385 Z M244.485,184.27 C245.385,185.35 246.225,186.445 247.005,187.525 C247.425,186.085 247.695,184.525 247.8,182.845 L244.02,182.845 L244.02,182.065 L248.565,182.065 L248.565,182.68 C248.475,184.765 248.145,186.655 247.56,188.35 C248.22,189.325 248.82,190.3 249.375,191.29 L248.79,191.86 C248.325,191.005 247.8,190.135 247.23,189.25 C246.51,191.02 245.49,192.565 244.185,193.855 L243.645,193.24 C244.98,191.905 246,190.315 246.69,188.455 C245.88,187.255 244.95,186.04 243.93,184.795 L244.485,184.27 Z M259.515,181.165 C260.37,181.825 261.09,182.47 261.675,183.13 L261.135,183.67 C260.595,183.04 259.875,182.38 258.96,181.69 L259.515,181.165 Z M259.275,184.84 L258.735,185.38 C259.605,186.13 260.31,186.835 260.835,187.51 L261.375,186.97 C260.805,186.25 260.115,185.545 259.275,184.84 Z M260.82,188.83 C260.25,190.57 259.59,192.295 258.81,193.975 L259.545,194.29 C260.265,192.67 260.925,190.93 261.51,189.1 L260.82,188.83 Z M267.255,181.54 L267.255,190.6 L266.505,190.6 L266.505,182.245 L263.19,182.245 L263.19,190.69 L262.455,190.69 L262.455,181.54 L267.255,181.54 Z M265.635,191.365 C266.58,192.22 267.375,193.075 268.02,193.93 L267.465,194.47 C266.895,193.645 266.115,192.775 265.14,191.86 L265.635,191.365 Z M264.495,183.4 L265.215,183.4 L265.215,188.2 C265.185,189.88 264.93,191.23 264.42,192.25 C263.925,193.18 263.115,193.915 261.99,194.455 L261.555,193.78 C262.635,193.27 263.415,192.58 263.865,191.71 C264.27,190.81 264.48,189.64 264.495,188.2 L264.495,183.4 Z M270.615,194.35 L268.95,194.35 L268.785,193.6 C269.325,193.63 269.85,193.66 270.345,193.66 C270.705,193.66 270.9,193.435 270.9,193.015 L270.9,180.865 L271.665,180.865 L271.665,193.21 C271.665,193.96 271.305,194.35 270.615,194.35 Z M268.65,182.095 L269.385,182.095 L269.385,191.515 L268.65,191.515 L268.65,182.095 Z M279.12,193.915 L279.735,194.47 C280.425,193.42 280.89,192.31 281.145,191.14 C281.4,190.09 281.535,188.74 281.535,187.075 L281.535,182.47 L284.19,182.47 L284.19,192.97 C284.19,193.78 284.595,194.185 285.435,194.185 L286.035,194.185 C286.395,194.185 286.665,194.11 286.845,193.96 C287.04,193.765 287.16,193.39 287.205,192.85 C287.25,192.28 287.28,191.47 287.28,190.39 L286.56,190.165 C286.56,191.545 286.53,192.43 286.5,192.805 C286.47,193.075 286.395,193.24 286.29,193.33 C286.215,193.39 286.11,193.435 285.975,193.435 L285.42,193.435 C285.12,193.435 284.985,193.255 284.985,192.91 L284.985,181.72 L280.74,181.72 L280.74,187.075 C280.74,188.545 280.635,189.775 280.44,190.735 C280.2,191.875 279.75,192.925 279.12,193.915 Z M278.985,181.42 L278.985,193.195 C278.985,193.945 278.595,194.335 277.815,194.335 L276.615,194.335 L276.42,193.615 C276.84,193.63 277.215,193.645 277.575,193.645 C277.995,193.645 278.22,193.405 278.22,192.925 L278.22,189.055 C277.38,189.31 276.48,189.52 275.505,189.685 C275.37,191.635 274.98,193.225 274.32,194.485 L273.72,193.93 C274.41,192.52 274.77,190.735 274.8,188.56 L274.8,181.42 L278.985,181.42 Z M275.535,188.92 C276.555,188.755 277.44,188.56 278.22,188.32 L278.22,186.025 C277.335,185.785 276.45,185.605 275.55,185.47 L275.55,188.515 C275.55,188.65 275.535,188.785 275.535,188.92 Z M275.55,184.78 C276.48,184.9 277.38,185.08 278.22,185.32 L278.22,182.17 L275.55,182.17 L275.55,184.78 Z M294.84,183.34 L294.84,184.12 L297.78,184.12 L297.78,185.695 C297.78,186.265 297.735,186.82 297.66,187.375 L294.42,187.375 L294.42,188.155 L297.525,188.155 C297.06,190.345 295.935,192.265 294.165,193.915 L294.795,194.44 C296.475,192.85 297.585,191.005 298.155,188.905 C298.935,191.125 300.195,192.985 301.905,194.455 L302.43,193.84 C300.69,192.43 299.43,190.525 298.665,188.155 L302.115,188.155 L302.115,187.375 L298.455,187.375 C298.515,186.835 298.56,186.265 298.575,185.695 L298.575,184.12 L301.515,184.12 L301.515,183.34 L298.575,183.34 L298.575,180.835 L297.78,180.835 L297.78,183.34 L294.84,183.34 Z M293.64,181.465 L293.64,193.3 C293.64,194.05 293.25,194.425 292.485,194.425 L291.405,194.425 L291.21,193.69 C291.57,193.705 291.915,193.72 292.245,193.72 C292.665,193.72 292.89,193.48 292.89,193.03 L292.89,189.205 C292.14,189.43 291.315,189.625 290.445,189.775 C290.355,191.68 290.025,193.255 289.485,194.5 L288.87,193.945 C289.425,192.535 289.71,190.75 289.725,188.59 L289.725,181.465 L293.64,181.465 Z M290.475,189.01 C291.36,188.86 292.17,188.68 292.89,188.455 L292.89,186.265 C292.11,185.995 291.3,185.77 290.49,185.62 L290.49,188.545 C290.49,188.695 290.475,188.86 290.475,189.01 Z M290.49,184.885 C291.33,185.05 292.125,185.26 292.89,185.53 L292.89,182.23 L290.49,182.23 L290.49,184.885 Z M308.355,191.605 C307.035,192.19 305.49,192.655 303.72,193 L303.84,193.78 C305.52,193.42 307.035,192.955 308.355,192.385 L308.355,191.605 Z M306.15,180.76 C305.55,182.665 304.845,184.33 304.035,185.755 C303.945,185.89 303.84,185.98 303.72,186.04 L303.915,186.76 C304.725,186.64 305.55,186.49 306.405,186.31 C305.61,187.885 304.92,189.01 304.35,189.685 C304.26,189.775 304.14,189.85 303.99,189.91 L304.2,190.63 C305.55,190.45 306.93,190.12 308.34,189.655 L308.34,188.92 C307.29,189.28 306.225,189.55 305.145,189.76 C305.955,188.695 307.005,186.805 308.295,184.075 L307.575,183.805 C307.29,184.42 307.02,185.005 306.765,185.575 C306.045,185.74 305.355,185.875 304.665,185.965 C305.415,184.795 306.15,183.16 306.9,181.06 L306.15,180.76 Z M312.54,182.8 L309.825,182.8 L309.825,187.24 L312.54,187.24 L312.54,182.8 Z M312.54,188.005 L309.825,188.005 L309.825,192.595 L312.54,192.595 L312.54,188.005 Z M313.29,192.595 L315.99,192.595 L315.99,188.005 L313.29,188.005 L313.29,192.595 Z M313.29,187.24 L315.99,187.24 L315.99,182.8 L313.29,182.8 L313.29,187.24 Z M315.99,193.345 L309.825,193.345 L309.825,194.38 L309.06,194.38 L309.06,182.05 L316.755,182.05 L316.755,194.38 L315.99,194.38 L315.99,193.345 Z M324.045,186.37 L324.045,194.425 L324.84,194.425 L324.84,186.37 L329.88,186.37 C329.865,187.855 329.85,188.815 329.835,189.235 C329.79,190.105 329.655,190.66 329.445,190.885 C329.235,191.11 328.92,191.23 328.485,191.23 C327.945,191.23 327.405,191.215 326.88,191.215 L327.09,192.01 C327.72,192.01 328.26,191.995 328.68,191.995 C329.37,191.995 329.835,191.83 330.105,191.53 C330.345,191.23 330.495,190.645 330.555,189.79 C330.6,189.34 330.645,187.945 330.705,185.575 L319.68,185.575 L319.68,186.37 L324.045,186.37 Z M319.02,182.335 L319.02,183.145 L322.605,183.145 L322.605,184.66 L323.43,184.66 L323.43,183.145 L327.57,183.145 L327.57,184.675 L328.395,184.675 L328.395,183.145 L331.98,183.145 L331.98,182.335 L328.395,182.335 L328.395,180.775 L327.57,180.775 L327.57,182.335 L323.43,182.335 L323.43,180.775 L322.605,180.775 L322.605,182.335 L319.02,182.335 Z" id="txt2.2"></path>
                    </g>
                </g>
            </g>
        </g>
    </g>
</svg>