<?xml version="1.0" encoding="UTF-8"?>
<svg width="195px" height="128px" viewBox="0 0 195 128" version="1.1" xmlns="http://www.w3.org/2000/svg" xmlns:xlink="http://www.w3.org/1999/xlink">
    <!-- Generator: Sketch 45.1 (43504) - http://www.bohemiancoding.com/sketch -->
    <title>txt2</title>
    <desc>Created with Sketch.</desc>
    <defs></defs>
    <g id="Page-1" stroke="none" stroke-width="1" fill="none" fill-rule="evenodd">
        <g id="新版" transform="translate(-158.000000, -1304.000000)" fill="#38393B">
            <g id="2" transform="translate(-5.000000, 1022.000000)">
                <g id="内容" transform="translate(0.000000, 282.000000)">
                    <g id="文字" transform="translate(160.000000, 0.000000)">
                        <path d="M9.8,19.2 C13.65,20.8 17.15,22.8 20.35,25.15 L18.95,27.3 C15.55,24.7 12,22.7 8.4,21.25 L9.8,19.2 Z M15.05,12.1 C18.75,13.7 22.15,15.7 25.25,18.05 L23.8,20.25 C20.5,17.65 17.15,15.65 13.65,14.15 L15.05,12.1 Z M4.05,29 L26.45,29 C27.8,25.75 28.5,22.1 28.6,18 L28.6,11.85 L31.25,11.85 L31.25,18 C31.15,22.1 30.55,25.75 29.35,29 L46,29 L46,31.6 L28.2,31.6 C27.25,33.45 26.15,35.15 24.85,36.65 C20.85,40.95 14.3,44.35 5.15,46.8 L3.6,44.5 C12.8,42.1 19.3,38.85 23.15,34.65 C23.95,33.65 24.6,32.65 25.2,31.6 L4.05,31.6 L4.05,29 Z M45.05,6 L45.05,15.5 L42.35,15.5 L42.35,8.55 L7.55,8.55 L7.55,15.5 L4.85,15.5 L4.85,6 L24.05,6 C23.35,4.25 22.55,2.65 21.7,1.25 L24.5,0.75 C25.3,2.25 26.05,4 26.8,6 L45.05,6 Z M30.05,35.5 C36.35,38 42.15,41.05 47.4,44.65 L45.9,46.95 C40.3,42.95 34.55,39.85 28.65,37.55 L30.05,35.5 Z M68.2,5.1 L68.2,41.55 L65.6,41.55 L65.6,38.05 L57.15,38.05 L57.15,42.7 L54.45,42.7 L54.45,5.1 L68.2,5.1 Z M57.15,35.5 L65.6,35.5 L65.6,22.5 L57.15,22.5 L57.15,35.5 Z M57.15,19.95 L65.6,19.95 L65.6,7.6 L57.15,7.6 L57.15,19.95 Z M75.2,19.9 C78.4,24.6 80.8,28.75 82.5,32.3 L80.25,33.85 C78.45,30.05 76.05,25.9 73,21.3 L75.2,19.9 Z M87,46.25 L78.35,46.25 L77.75,43.65 C80.65,43.75 83.45,43.85 86.05,43.85 C87.75,43.85 88.65,42.95 88.65,41.15 L88.65,13.3 L70.8,13.3 L70.8,10.65 L88.65,10.65 L88.65,1.6 L91.4,1.6 L91.4,10.65 L97.9,10.65 L97.9,13.3 L91.4,13.3 L91.4,41.85 C91.4,44.75 89.9,46.25 87,46.25 Z M8.9,84.15 L41.2,84.15 L41.2,103.9 L8.9,103.9 L8.9,84.15 Z M38.5,101.35 L38.5,95.25 L11.6,95.25 L11.6,101.35 L38.5,101.35 Z M11.6,92.8 L38.5,92.8 L38.5,86.65 L11.6,86.65 L11.6,92.8 Z M18.45,106.6 L21.15,106.6 L21.15,123.6 L28.85,123.6 L28.85,106.6 L31.55,106.6 L31.55,123.6 L46.85,123.6 L46.85,126.25 L3.15,126.25 L3.15,123.6 L18.45,123.6 L18.45,106.6 Z M42.05,107.65 L44.45,108.8 C42.55,113.35 40.35,117.3 37.8,120.6 L35.7,119.1 C38.15,115.9 40.25,112.1 42.05,107.65 Z M7.85,108.45 C10.55,112.45 12.65,115.95 14.1,118.95 L12,120.45 C10.4,117.25 8.3,113.7 5.65,109.85 L7.85,108.45 Z M71.9,82.15 L74.25,82.15 L74.25,93.65 L78.45,93.65 L78.45,84.7 L80.75,84.7 L80.75,96.05 L65.2,96.05 L65.2,84.7 L67.5,84.7 L67.5,93.65 L71.9,93.65 L71.9,82.15 Z M60.55,82.25 L62.85,83.35 C60.7,88.75 57.3,93.4 52.7,97.4 L51.85,94.75 C55.85,91.05 58.75,86.9 60.55,82.25 Z M60.85,95.7 L63.15,96.75 C62.35,98.75 61.45,100.65 60.4,102.45 L60.4,127.85 L57.85,127.85 L57.85,106.3 C56.35,108.2 54.65,110 52.85,111.65 L52.05,109.05 C56.15,105.1 59.05,100.65 60.85,95.7 Z M65.05,101.2 L80.4,101.2 L80.4,103.7 L65.05,103.7 L65.05,101.2 Z M67.1,107.55 L69.6,107.55 L69.6,112.9 C69.5,119.5 67.9,124.3 64.8,127.4 L62.8,125.65 C65.6,123 67.05,118.75 67.1,112.9 L67.1,107.55 Z M75.5,124.15 L74.75,121.75 C75.4,121.35 75.75,120.75 75.75,119.9 L75.75,107.55 L78.25,107.55 L78.25,120.1 C80,118.8 81.6,117.4 83,115.9 L83.7,118.15 C81.25,120.45 78.5,122.45 75.5,124.15 Z M87.2,92.8 C85.85,99 84.1,104.1 81.9,108.1 L80.35,106.2 C83.35,100.2 85.4,92.05 86.45,81.85 L88.85,82.25 C88.5,85.05 88.1,87.75 87.7,90.25 L97.5,90.25 L97.5,92.8 L95.15,92.8 C94.95,101.2 93.75,108.4 91.45,114.3 C93.3,118.5 95.55,122.15 98.25,125.35 L96.5,127.35 C94.05,124.35 91.95,120.95 90.2,117.2 C88.25,121.3 85.7,124.7 82.6,127.5 L81.15,125.25 C84.45,122.35 87,118.65 88.9,114.2 C87.35,110.4 86.15,106.25 85.25,101.85 L87.1,100.8 C87.9,104.4 88.85,107.8 90.05,110.95 C91.75,105.75 92.65,99.7 92.75,92.8 L87.2,92.8 Z M143.4,84.25 L143.4,111.25 L140.8,111.25 L140.8,86.85 L125.7,86.85 L125.7,111.25 L123.1,111.25 L123.1,84.25 L143.4,84.25 Z M142.75,126.8 L138.05,126.8 C135.5,126.8 134.25,125.5 134.25,122.95 L134.25,111.55 L136.85,111.55 L136.85,122.45 C136.85,123.7 137.5,124.35 138.85,124.35 L142.3,124.35 C143.35,124.35 144.05,124.05 144.45,123.5 C145.05,122.75 145.4,120.65 145.6,117.15 L148,117.9 C147.7,122.05 147.15,124.65 146.3,125.65 C145.55,126.4 144.35,126.8 142.75,126.8 Z M131.9,90.75 L134.5,90.75 L134.5,100.7 C134.4,108 133.05,113.8 130.45,118.2 C127.95,122.3 123.8,125.45 118.05,127.75 L116.5,125.45 C122.15,123.2 126.15,120.15 128.55,116.25 C130.7,112.25 131.8,107.1 131.9,100.7 L131.9,90.75 Z M104.95,93.7 C107.95,97.3 110.75,100.95 113.35,104.55 C114.75,99.75 115.65,94.55 116,88.95 L103.4,88.95 L103.4,86.35 L118.55,86.35 L118.55,88.4 C118.25,95.35 117.15,101.65 115.2,107.3 C117.4,110.55 119.4,113.8 121.25,117.1 L119.3,119 C117.75,116.15 116,113.25 114.1,110.3 C111.7,116.2 108.3,121.35 103.95,125.65 L102.15,123.6 C106.6,119.15 110,113.85 112.3,107.65 C109.6,103.65 106.5,99.6 103.1,95.45 L104.95,93.7 Z M178.85,93.1 L192.25,93.1 L192.25,95.05 C190.35,98.35 188.25,101.25 185.9,103.65 C189.2,106.35 193.1,108.5 197.6,110.1 L196.2,112.25 C191.55,110.45 187.6,108.2 184.3,105.5 L184.3,107.35 L166.55,107.35 L166.55,105.25 C163,108.35 158.8,110.75 154,112.4 L152.8,110.2 C155.95,109.2 158.75,107.9 161.25,106.3 C160,104.6 158.45,102.85 156.65,101.15 C156.05,101.5 155.5,101.85 155,102.15 L153.5,100.35 C158.5,97.55 162.5,94.05 165.45,89.8 L167.95,90.4 C167.25,91.35 166.6,92.25 165.9,93.1 L174.45,93.1 L174.45,94.95 C172.35,98.95 169.8,102.3 166.8,105 L183.7,105 C180.75,102.45 178.35,99.55 176.5,96.25 L178.45,95.15 C180,97.75 181.9,100.05 184.1,102.1 C186,100.15 187.75,97.9 189.3,95.4 L178.85,95.4 L178.85,93.1 Z M195.2,85.85 L195.2,94.4 L192.6,94.4 L192.6,88.3 L157.7,88.3 L157.7,94.35 L155.1,94.35 L155.1,85.85 L174.3,85.85 C173.7,84.55 173.05,83.35 172.35,82.25 L175.2,81.75 C175.9,82.95 176.5,84.35 177.1,85.85 L195.2,85.85 Z M158.65,112.45 L191.55,112.45 L191.55,114.85 L176.4,114.85 L176.4,124.55 C176.4,126.6 175.35,127.65 173.25,127.65 L168.4,127.65 L167.85,125.1 C169.4,125.2 170.9,125.3 172.3,125.3 C173.2,125.3 173.7,124.8 173.7,123.9 L173.7,114.85 L158.65,114.85 L158.65,112.45 Z M161.35,97.7 C160.35,98.5 159.35,99.3 158.35,100 C160.1,101.75 161.6,103.45 162.9,105.15 C164.1,104.25 165.15,103.3 166.15,102.35 C164.85,100.85 163.25,99.3 161.35,97.7 Z M167.65,100.8 C169.15,99.05 170.45,97.2 171.6,95.25 L164,95.25 C163.6,95.6 163.25,95.95 162.85,96.35 C164.7,97.85 166.3,99.35 167.65,100.8 Z M165.45,116.95 L167.6,118.3 C165.95,120.3 164.3,122 162.65,123.3 C160.75,124.75 158.4,126.1 155.6,127.4 L154.2,125.2 C156.7,124.2 158.9,123 160.8,121.6 C162.5,120.25 164.05,118.7 165.45,116.95 Z M183.35,116.9 C187.95,119.15 192.1,121.9 195.9,125.2 L194.4,127.45 C190.35,123.85 186.2,121.05 181.95,118.95 L183.35,116.9 Z" id="txt2"></path>
                    </g>
                </g>
            </g>
        </g>
    </g>
</svg>