<?xml version="1.0" encoding="UTF-8"?>
<svg width="246px" height="47px" viewBox="0 0 246 47" version="1.1" xmlns="http://www.w3.org/2000/svg" xmlns:xlink="http://www.w3.org/1999/xlink">
    <!-- Generator: Sketch 48.2 (47327) - http://www.bohemiancoding.com/sketch -->
    <title>基底层模式</title>
    <desc>Created with Sketch.</desc>
    <defs></defs>
    <g id="首页" stroke="none" stroke-width="1" fill="none" fill-rule="evenodd" transform="translate(-572.000000, -2210.000000)">
        <g id="3" transform="translate(-1.000000, 2048.000000)" fill="#38393B">
            <g id="标题" transform="translate(501.000000, 160.000000)">
                <path d="M74.1,6.25 L83.25,6.25 L83.25,2.2 L85.95,2.2 L85.95,6.25 L104,6.25 L104,2.2 L106.7,2.2 L106.7,6.25 L115.85,6.25 L115.85,8.6 L106.7,8.6 L106.7,25.9 L116.65,25.9 L116.65,28.3 L105.55,28.3 C108.05,31.7 112,34.4 117.35,36.3 L116.25,38.65 C109.95,36 105.5,32.55 102.95,28.3 L86.95,28.3 C84.4,32.55 80.15,36.05 74.15,38.85 L72.8,36.6 C78.1,34.4 81.95,31.65 84.35,28.3 L73.3,28.3 L73.3,25.9 L83.25,25.9 L83.25,8.6 L74.1,8.6 L74.1,6.25 Z M85.95,25.9 L104,25.9 L104,21.55 L85.95,21.55 L85.95,25.9 Z M85.95,19.3 L104,19.3 L104,15.15 L85.95,15.15 L85.95,19.3 Z M85.95,12.95 L104,12.95 L104,8.6 L85.95,8.6 L85.95,12.95 Z M93.65,30.45 L96.35,30.45 L96.35,34.8 L106.75,34.8 L106.75,37.25 L96.35,37.25 L96.35,43.6 L113.75,43.6 L113.75,46.15 L75.9,46.15 L75.9,43.6 L93.65,43.6 L93.65,37.25 L83.15,37.25 L83.15,34.8 L93.65,34.8 L93.65,30.45 Z M138.55,27.75 L138.55,37.7 C142.25,37.1 145.9,36.35 149.55,35.45 L150.05,38 C145.95,38.95 141.05,39.9 135.45,40.8 L134.85,38.4 C135.55,38.15 135.9,37.7 135.9,37.1 L135.9,16.1 C145.35,15.55 154.3,14.4 162.75,12.7 L164.15,14.95 C160.75,15.65 157.25,16.25 153.6,16.75 C153.6,19.85 153.75,22.7 154,25.2 L165.15,25.2 L165.15,27.75 L154.3,27.75 C154.5,29.25 154.7,30.65 155,31.9 C155.9,35.8 156.95,38.8 158.15,40.85 C159.45,42.85 160.65,43.85 161.75,43.9 C162.85,43.7 163.95,41.25 165.05,36.5 L167.35,37.95 C166.65,40.25 165.9,42.2 165.15,43.8 C164.15,45.7 163.1,46.7 161.9,46.7 C160.25,46.7 158.6,45.55 156.95,43.35 C155.3,41.15 153.9,37.95 152.75,33.7 C152.25,32 151.9,30 151.65,27.75 L138.55,27.75 Z M151.4,25.2 C151.15,22.7 151,20 151,17.1 C147,17.6 142.85,18 138.55,18.3 L138.55,25.2 L151.4,25.2 Z M145.9,2.15 C146.75,3.6 147.6,5.25 148.4,7.1 L167,7.1 L167,9.7 L129.7,9.7 L129.7,21.5 C129.5,32.4 127.75,41.1 124.4,47.65 L122.35,45.8 C125.3,40 126.85,31.9 127,21.5 L127,7.1 L145.65,7.1 C144.9,5.45 144.05,3.95 143.1,2.65 L145.9,2.15 Z M134.75,44 L152.6,44 L152.6,46.5 L134.75,46.5 L134.75,44 Z M186.3,21.7 L213.25,21.7 L213.25,24.1 L186.3,24.1 L186.3,21.7 Z M182.85,29.85 L216.45,29.85 L216.45,32.35 L197.15,32.35 C193.85,37.8 190.95,41.6 188.45,43.8 C195.55,43.3 202.65,42.55 209.7,41.55 C208.2,39.7 206.55,37.8 204.75,35.85 L206.8,34.6 C211,39.1 214.25,42.95 216.45,46.25 L214.3,47.8 C213.45,46.5 212.5,45.15 211.45,43.75 C203.35,44.85 194.6,45.7 185.1,46.3 L184.45,43.9 C184.65,43.8 184.85,43.75 185,43.7 C187.35,42.3 190.45,38.5 194.3,32.35 L182.85,32.35 L182.85,29.85 Z M210.95,7.1 L180.65,7.1 L180.65,13.65 L210.95,13.65 L210.95,7.1 Z M180.65,16.2 L180.65,20.7 C180.6,31.1 178.55,40.05 174.45,47.55 L172.45,45.8 C176.1,39.3 177.95,30.9 178,20.7 L178,4.55 L213.65,4.55 L213.65,16.2 L180.65,16.2 Z M232.2,21.45 L232.2,47.7 L229.6,47.7 L229.6,20.8 C227.95,26.2 225.7,31.1 222.85,35.4 L221.7,32.5 C225.4,27.4 228,21.55 229.5,14.95 L223.55,14.95 L223.55,12.4 L229.6,12.4 L229.6,2.45 L232.2,2.45 L232.2,12.4 L238,12.4 L238,14.95 L232.2,14.95 L232.2,18.55 C234.4,21.35 236.7,24.55 239,28.05 L237.55,30.2 C235.45,26.55 233.7,23.65 232.2,21.45 Z M240.35,15.1 L263.85,15.1 L263.85,29.7 L253.45,29.7 C253.25,31.3 252.9,32.8 252.5,34.15 L267.25,34.15 L267.25,36.65 L251.65,36.65 C250.95,38.25 250.05,39.7 249,41 C246.7,43.8 242.7,46 236.95,47.6 L235.95,45.3 C241.05,43.95 244.75,42 247.05,39.4 C247.75,38.6 248.35,37.65 248.9,36.65 L236.65,36.65 L236.65,34.15 L249.95,34.15 C250.4,32.75 250.75,31.3 251,29.7 L240.35,29.7 L240.35,15.1 Z M261.35,27.5 L261.35,23.5 L242.85,23.5 L242.85,27.5 L261.35,27.5 Z M242.85,21.3 L261.35,21.3 L261.35,17.3 L242.85,17.3 L242.85,21.3 Z M237.05,6.6 L244.6,6.6 L244.6,2.3 L247.05,2.3 L247.05,6.6 L251.35,6.6 L251.35,8.9 L247.05,8.9 L247.05,13.15 L244.6,13.15 L244.6,8.9 L237.05,8.9 L237.05,6.6 Z M257.1,2.35 L259.55,2.35 L259.55,6.6 L267.15,6.6 L267.15,8.9 L259.55,8.9 L259.55,13.15 L257.1,13.15 L257.1,8.9 L252.8,8.9 L252.8,6.6 L257.1,6.6 L257.1,2.35 Z M254.75,39.15 C259.6,41.05 264.05,43.35 268.05,46.05 L266.65,48.2 C262.35,45.2 257.9,42.85 253.4,41.15 L254.75,39.15 Z M273.3,11.5 L298.2,11.5 C298,8.55 297.95,5.5 297.95,2.35 L300.75,2.35 C300.75,5.55 300.8,8.6 301,11.5 L316.7,11.5 L316.7,14.2 L301.15,14.2 C301.75,23.2 303.15,30.6 305.3,36.4 C307.45,41.9 309.45,44.65 311.25,44.75 C312.45,44.5 313.65,41.5 314.75,35.75 L317.2,37 C315.7,44.1 313.8,47.65 311.4,47.7 C307.3,47.5 303.7,42 300.7,31.15 C299.5,26.25 298.75,20.6 298.35,14.2 L273.3,14.2 L273.3,11.5 Z M274.15,23.25 L295.05,23.25 L295.05,25.85 L285.95,25.85 L285.95,39.9 C289.75,39.2 293.45,38.35 297.05,37.45 L297.05,40.15 C289.9,41.9 282.15,43.35 273.85,44.5 L273.2,41.9 C276.6,41.5 279.95,41 283.25,40.4 L283.25,25.85 L274.15,25.85 L274.15,23.25 Z M308.25,2.7 C310,4.75 311.65,6.95 313.15,9.35 L310.85,10.5 C309.3,8 307.7,5.8 306,3.8 L308.25,2.7 Z" id="基底层模式"></path>
            </g>
        </g>
    </g>
</svg>