<?xml version="1.0" encoding="UTF-8"?>
<svg width="390px" height="15px" viewBox="0 0 390 15" version="1.1" xmlns="http://www.w3.org/2000/svg" xmlns:xlink="http://www.w3.org/1999/xlink">
    <!-- Generator: Sketch 45.2 (43514) - http://www.bohemiancoding.com/sketch -->
    <title>txt3-3</title>
    <desc>Created with Sketch.</desc>
    <defs></defs>
    <g id="Page-1" stroke="none" stroke-width="1" fill="none" fill-rule="evenodd">
        <g id="新版" transform="translate(-500.000000, -2307.000000)" fill="#777777">
            <g id="3" transform="translate(-1.000000, 2048.000000)">
                <g id="标题" transform="translate(501.000000, 161.000000)">
                    <path d="M1.89,103.215 L3.075,99.225 L3.885,99.345 L2.94,102.45 L5.88,102.45 C6.195,101.25 6.45,99.99 6.645,98.64 L7.47,98.73 C7.26,100.05 7.02,101.295 6.72,102.45 L13.845,102.45 L13.845,103.215 L6.51,103.215 C6.3,103.905 6.09,104.55 5.85,105.18 L12.075,105.18 L12.075,105.885 C11.655,107.22 10.785,108.435 9.465,109.53 C10.725,110.325 12.27,111.045 14.13,111.69 L13.725,112.44 C11.715,111.705 10.08,110.91 8.805,110.04 C7.545,110.94 5.97,111.75 4.08,112.485 L3.66,111.735 C5.46,111.075 6.945,110.34 8.115,109.545 C6.795,108.54 5.895,107.46 5.385,106.29 C4.275,108.765 2.85,110.73 1.08,112.185 L0.66,111.435 C2.94,109.455 4.62,106.725 5.67,103.215 L1.89,103.215 Z M6.03,105.93 C6.54,107.07 7.455,108.12 8.775,109.065 C9.99,108.105 10.815,107.055 11.25,105.93 L6.03,105.93 Z M9.99,98.85 C11.07,99.69 11.985,100.53 12.72,101.385 L12.135,101.97 C11.475,101.145 10.575,100.275 9.435,99.375 L9.99,98.85 Z M28.065,99.435 L28.065,107.64 L27.255,107.64 L27.255,100.215 L22.425,100.215 L22.425,107.64 L21.615,107.64 L21.615,99.435 L28.065,99.435 Z M27.825,112.23 L26.265,112.23 C25.53,112.23 25.17,111.87 25.17,111.15 L25.17,107.58 L25.98,107.58 L25.98,110.97 C25.98,111.3 26.145,111.465 26.505,111.465 L27.675,111.465 C27.975,111.465 28.185,111.375 28.29,111.225 C28.455,111.015 28.56,110.4 28.62,109.395 L29.37,109.65 C29.28,110.85 29.115,111.6 28.875,111.885 C28.65,112.11 28.305,112.23 27.825,112.23 Z M24.39,101.385 L25.155,101.385 L25.155,105.105 C25.125,107.085 24.75,108.675 24,109.875 C23.265,110.985 22.065,111.84 20.415,112.47 L19.95,111.78 C21.57,111.18 22.725,110.355 23.4,109.305 C24.03,108.225 24.36,106.815 24.39,105.105 L24.39,101.385 Z M15.99,104.43 L17.82,104.43 L17.82,100.65 L15.78,100.65 L15.78,99.885 L20.64,99.885 L20.64,100.65 L18.63,100.65 L18.63,104.43 L20.43,104.43 L20.43,105.21 L18.63,105.21 L18.63,108.96 C19.335,108.72 20.01,108.465 20.67,108.195 L20.67,108.99 C19.2,109.59 17.625,110.085 15.93,110.475 L15.735,109.695 C16.455,109.545 17.145,109.38 17.82,109.2 L17.82,105.21 L15.99,105.21 L15.99,104.43 Z M43.17,107.475 L35.865,107.475 L35.865,106.77 L42.375,106.77 L42.375,105.42 L36.195,105.42 L36.195,104.7 L42.375,104.7 L42.375,103.32 L36.42,103.32 L36.42,102.6 L39.795,102.6 C40.32,102.03 40.815,101.355 41.265,100.605 L38.145,100.605 C37.515,101.475 36.705,102.255 35.7,102.93 L35.22,102.285 C36.735,101.31 37.755,100.125 38.265,98.715 L39.075,98.805 C38.925,99.18 38.76,99.54 38.58,99.9 L42.18,99.9 L42.18,100.5 C41.67,101.34 41.175,102.045 40.695,102.6 L43.17,102.6 L43.17,107.475 Z M31.38,99.48 L35.49,99.48 L35.49,100.14 C35.07,101.55 34.56,103.005 33.975,104.505 C34.695,105.795 35.085,107.01 35.145,108.135 C35.13,108.735 35.01,109.185 34.77,109.47 C34.425,109.8 33.825,109.965 32.985,109.98 L32.715,109.155 C32.895,109.185 33.03,109.2 33.15,109.2 C33.63,109.155 33.945,109.065 34.11,108.915 C34.26,108.765 34.35,108.495 34.35,108.135 C34.35,107.085 33.945,105.915 33.165,104.625 C33.81,103.005 34.32,101.55 34.68,100.26 L32.19,100.26 L32.19,112.47 L31.38,112.47 L31.38,99.48 Z M42.855,108.3 C43.455,109.245 43.965,110.265 44.415,111.345 L43.725,111.645 C43.245,110.475 42.72,109.425 42.15,108.525 L42.855,108.3 Z M36.03,108.54 L36.75,108.69 C36.465,109.95 36.075,111.045 35.595,111.975 L34.92,111.54 C35.43,110.64 35.79,109.65 36.03,108.54 Z M40.845,112.335 L38.73,112.335 C37.98,112.335 37.605,111.93 37.605,111.135 L37.605,108.345 L38.355,108.345 L38.355,110.985 C38.355,111.405 38.55,111.615 38.955,111.615 L40.71,111.615 C40.98,111.615 41.175,111.54 41.295,111.42 C41.445,111.24 41.535,110.76 41.595,109.95 L42.315,110.175 C42.24,111.195 42.075,111.825 41.835,112.065 C41.625,112.245 41.295,112.335 40.845,112.335 Z M39.72,108.06 C40.32,108.72 40.785,109.29 41.1,109.8 L40.5,110.22 C40.17,109.68 39.705,109.08 39.12,108.435 L39.72,108.06 Z M46.395,101.79 L47.115,101.79 L47.115,104.43 L48.72,104.43 L48.72,102.42 L55.485,102.42 L55.485,101.805 L54.825,101.805 L54.825,100.605 L52.92,100.605 L52.92,99.87 L54.825,99.87 L54.825,98.805 L55.59,98.805 L55.59,99.87 L58.935,99.87 L58.935,100.605 L55.59,100.605 L55.59,101.49 L56.205,101.49 C56.205,101.805 56.205,102.12 56.22,102.42 L57.615,102.42 C57.45,101.97 57.27,101.55 57.075,101.175 L57.78,101.055 C57.96,101.46 58.125,101.91 58.29,102.42 L59.13,102.42 L59.13,103.125 L56.235,103.125 C56.265,105.09 56.385,106.62 56.58,107.73 C56.625,108.015 56.685,108.285 56.745,108.555 C57.225,107.37 57.54,105.945 57.72,104.28 L58.425,104.43 C58.185,106.56 57.72,108.3 57.03,109.635 C57.135,110.01 57.255,110.34 57.39,110.625 C57.69,111.225 57.93,111.54 58.125,111.54 C58.335,111.51 58.53,110.775 58.695,109.335 L59.31,109.665 C59.07,111.495 58.71,112.41 58.26,112.41 C57.885,112.41 57.48,112.035 57.03,111.315 C56.865,111.03 56.715,110.715 56.595,110.385 C56.025,111.225 55.35,111.885 54.57,112.35 L54.18,111.735 C55.035,111.225 55.74,110.475 56.28,109.5 C56.145,109.035 56.025,108.525 55.92,107.985 C55.68,106.725 55.545,105.105 55.5,103.125 L49.455,103.125 L49.455,107.715 C49.425,109.695 49.05,111.285 48.345,112.485 L47.76,111.96 C48.36,110.94 48.69,109.53 48.72,107.715 L48.72,107.535 L47.295,107.535 C47.235,109.575 46.86,111 46.17,111.78 L45.6,111.345 C46.23,110.655 46.575,109.395 46.635,107.535 L45.72,107.535 L45.72,106.83 L48.72,106.83 L48.72,105.15 L46.395,105.15 L46.395,101.79 Z M46.08,99.87 L49.425,99.87 L49.425,98.805 L50.19,98.805 L50.19,99.87 L52.08,99.87 L52.08,100.605 L50.19,100.605 L50.19,101.805 L49.425,101.805 L49.425,100.605 L46.08,100.605 L46.08,99.87 Z M54.6,109.065 L53.19,109.065 L53.19,110.715 L54.675,110.715 L54.675,111.39 L50.46,111.39 L50.46,104.175 L54.675,104.175 L54.675,104.835 L53.19,104.835 L53.19,106.365 L54.6,106.365 L54.6,109.065 Z M52.53,104.835 L51.135,104.835 L51.135,106.365 L52.53,106.365 L52.53,104.835 Z M51.135,106.995 L51.135,108.435 L53.94,108.435 L53.94,106.995 L51.135,106.995 Z M51.135,109.065 L51.135,110.715 L52.53,110.715 L52.53,109.065 L51.135,109.065 Z M65.415,105.855 L68.985,105.855 L68.985,102.96 L69.81,102.96 L69.81,105.855 L73.455,105.855 L73.455,106.665 L69.81,106.665 L69.81,111.15 L74.16,111.15 L74.16,111.945 L64.755,111.945 L64.755,111.15 L68.985,111.15 L68.985,106.665 L65.415,106.665 L65.415,105.855 Z M63.105,106.095 C62.475,106.77 61.8,107.415 61.08,108.015 L60.555,107.355 C62.535,105.72 64.065,103.845 65.16,101.715 L61.08,101.715 L61.08,100.92 L65.535,100.92 C65.835,100.2 66.105,99.45 66.345,98.7 L67.17,98.79 C66.96,99.525 66.705,100.23 66.42,100.92 L74.115,100.92 L74.115,101.715 L66.06,101.715 C65.46,102.945 64.755,104.085 63.915,105.135 L63.915,112.5 L63.105,112.5 L63.105,106.095 Z M76.56,100.155 L82.095,100.155 L82.095,98.805 L82.905,98.805 L82.905,100.155 L88.44,100.155 L88.44,100.935 L82.905,100.935 L82.905,102.57 L87.555,102.57 L87.555,103.35 L82.905,103.35 L82.905,105.015 L88.815,105.015 L88.815,105.78 L81.93,105.78 C81.39,106.56 80.67,107.265 79.8,107.91 L79.8,111.405 C80.985,111.06 82.17,110.64 83.355,110.13 L83.52,110.88 C82.035,111.495 80.535,112.005 79.005,112.395 L78.735,111.705 C78.915,111.63 79.005,111.525 79.005,111.375 L79.005,108.45 C78.15,108.975 77.175,109.455 76.08,109.89 L75.645,109.185 C78.135,108.3 79.95,107.16 81.06,105.78 L76.185,105.78 L76.185,105.015 L82.095,105.015 L82.095,103.35 L77.445,103.35 L77.445,102.57 L82.095,102.57 L82.095,100.935 L76.56,100.935 L76.56,100.155 Z M87.57,106.71 L88.14,107.265 C87.315,108.105 86.385,108.75 85.335,109.2 C86.355,110.325 87.66,111.165 89.25,111.705 L88.785,112.425 C86.055,111.405 84.135,109.56 83.025,106.875 L83.655,106.53 C83.985,107.31 84.39,108.015 84.87,108.645 C85.83,108.255 86.73,107.61 87.57,106.71 Z M97.62,98.745 L98.43,98.745 L98.43,100.665 L103.515,100.665 L103.515,101.07 C103.305,101.985 103.005,102.87 102.615,103.725 L101.835,103.5 C102.15,102.885 102.42,102.195 102.63,101.445 L98.43,101.445 L98.43,104.505 L102.345,104.505 L102.345,105.24 C101.655,106.935 100.545,108.39 99.045,109.59 C100.47,110.46 102.195,111.18 104.235,111.75 L103.785,112.44 C101.595,111.81 99.795,111.03 98.37,110.085 C96.93,111.075 95.19,111.87 93.135,112.485 L92.685,111.78 C94.665,111.21 96.33,110.49 97.695,109.605 C96.075,108.39 94.935,106.95 94.305,105.285 L93.27,105.285 C93.195,108.03 92.52,110.37 91.245,112.32 L90.615,111.765 C91.8,109.995 92.415,107.73 92.475,104.985 L92.475,100.665 L97.62,100.665 L97.62,98.745 Z M95.1,105.285 C95.745,106.785 96.84,108.06 98.37,109.14 C99.795,108.06 100.83,106.77 101.475,105.285 L95.1,105.285 Z M93.27,104.505 L97.62,104.505 L97.62,101.445 L93.27,101.445 L93.27,104.505 Z M111.69,98.73 L110.775,98.88 C111.315,99.66 111.81,100.53 112.23,101.475 L106.92,101.475 L106.92,102.285 L116.82,102.285 C115.14,105.225 112.665,107.535 109.395,109.2 L109.26,109.11 C109.125,109.005 108.96,108.96 108.765,108.96 C107.925,108.96 107.01,109.95 106.05,111.96 L106.725,112.41 C107.595,110.655 108.255,109.785 108.735,109.785 C108.945,109.785 109.185,109.95 109.455,110.28 C110.31,111.465 111.525,112.065 113.115,112.095 C113.685,112.11 114.615,112.125 115.935,112.125 L118.905,112.125 L119.1,111.315 C117.69,111.345 116.595,111.36 115.8,111.36 C114.51,111.36 113.505,111.345 112.815,111.315 C111.705,111.225 110.82,110.775 110.175,109.965 C110.115,109.89 110.055,109.83 109.995,109.77 C113.445,107.985 116.055,105.435 117.825,102.105 L117.825,101.475 L113.1,101.475 C112.65,100.44 112.185,99.525 111.69,98.73 Z M120.87,99.66 L120.87,100.455 L126.705,100.455 L126.705,112.5 L127.5,112.5 L127.5,103.8 C128.94,104.565 130.695,105.645 132.78,107.055 L133.26,106.335 C131.31,105.06 129.39,103.935 127.5,102.96 L127.5,100.455 L134.115,100.455 L134.115,99.66 L120.87,99.66 Z M140.94,101.46 L140.94,111.54 L140.16,111.54 L140.16,110.625 L137.13,110.625 L137.13,111.96 L136.35,111.96 L136.35,101.46 L137.7,101.46 C138.015,100.605 138.24,99.705 138.375,98.775 L139.2,98.88 C139.035,99.81 138.795,100.665 138.48,101.46 L140.94,101.46 Z M137.13,109.875 L140.16,109.875 L140.16,106.32 L137.13,106.32 L137.13,109.875 Z M137.13,105.585 L140.16,105.585 L140.16,102.24 L137.13,102.24 L137.13,105.585 Z M143.49,104.85 C144.63,106.11 145.5,107.205 146.1,108.15 L145.455,108.615 C144.825,107.595 143.94,106.485 142.83,105.27 L143.49,104.85 Z M148.71,101.475 C148.71,106.32 148.635,109.32 148.5,110.46 C148.35,111.66 147.66,112.26 146.415,112.26 C146.13,112.26 145.635,112.245 144.945,112.23 L144.75,111.48 C145.35,111.51 145.875,111.525 146.325,111.525 C147.135,111.525 147.6,111.075 147.72,110.19 C147.84,109.29 147.9,106.65 147.93,102.285 L143.505,102.285 C143.085,103.26 142.59,104.13 141.99,104.91 L141.51,104.28 C142.59,102.78 143.325,100.935 143.715,98.76 L144.51,98.85 C144.33,99.78 144.105,100.665 143.82,101.475 L148.71,101.475 Z M155.895,109.74 C154.425,110.31 152.7,110.775 150.75,111.12 L150.87,111.915 C152.745,111.555 154.425,111.09 155.895,110.52 L155.895,109.74 Z M153.75,98.88 C153.015,100.74 152.145,102.345 151.155,103.725 C151.05,103.875 150.93,103.98 150.81,104.04 L151.005,104.805 C151.965,104.685 152.955,104.55 153.945,104.4 C152.955,106.02 152.115,107.175 151.41,107.865 C151.305,107.97 151.185,108.045 151.035,108.105 L151.245,108.87 C152.82,108.645 154.44,108.225 156.12,107.625 L156.12,106.875 C154.86,107.34 153.57,107.7 152.28,107.955 C153.315,106.815 154.635,104.805 156.255,101.91 L155.52,101.625 C155.13,102.345 154.755,103.005 154.395,103.635 C153.54,103.785 152.685,103.89 151.845,103.98 C152.745,102.81 153.645,101.22 154.515,99.195 L153.75,98.88 Z M159.93,100.68 L159.93,111.015 L156.285,111.015 L156.285,111.81 L164.28,111.81 L164.28,111.015 L160.74,111.015 L160.74,100.68 L163.89,100.68 L163.89,99.885 L156.705,99.885 L156.705,100.68 L159.93,100.68 Z M177.66,101.28 L177.66,110.97 L178.905,110.97 L178.905,111.78 L166.095,111.78 L166.095,110.97 L167.37,110.97 L167.37,101.28 L170.835,101.28 C171.21,100.515 171.48,99.72 171.66,98.895 L172.53,99.015 C172.35,99.84 172.08,100.59 171.72,101.28 L177.66,101.28 Z M168.165,110.97 L170.52,110.97 L170.52,102.09 L168.165,102.09 L168.165,110.97 Z M171.315,110.97 L173.7,110.97 L173.7,102.09 L171.315,102.09 L171.315,110.97 Z M174.495,110.97 L176.865,110.97 L176.865,102.09 L174.495,102.09 L174.495,110.97 Z M180.9,110.985 L180.9,111.765 L194.1,111.765 L194.1,110.985 L180.9,110.985 Z M184.635,98.985 C183.825,100.86 182.85,102.495 181.74,103.905 C181.635,104.055 181.515,104.16 181.395,104.22 L181.59,104.94 C182.64,104.85 183.705,104.73 184.785,104.58 C183.555,106.485 182.445,107.7 181.455,108.225 L181.62,108.99 C183.72,108.84 185.625,108.615 187.305,108.315 L187.155,107.565 C185.835,107.835 184.38,108.045 182.82,108.18 C184.2,106.86 185.61,104.91 187.02,102.315 L186.27,102.06 C185.925,102.69 185.58,103.275 185.25,103.845 C184.275,103.98 183.33,104.085 182.4,104.145 C183.39,102.975 184.395,101.355 185.415,99.285 L184.635,98.985 Z M191.01,98.97 C190.2,100.86 189.225,102.51 188.115,103.92 C188.01,104.07 187.89,104.16 187.77,104.22 L187.965,104.955 C189.015,104.85 190.095,104.73 191.205,104.58 C190.005,106.47 188.91,107.67 187.935,108.195 L188.085,108.96 C190.245,108.81 192.165,108.6 193.875,108.33 L193.725,107.58 C192.36,107.85 190.875,108.045 189.27,108.165 C190.635,106.86 192.015,104.925 193.395,102.375 L192.63,102.12 C192.3,102.72 191.97,103.305 191.655,103.845 C190.695,103.98 189.735,104.085 188.775,104.16 C189.78,102.99 190.785,101.355 191.79,99.285 L191.01,98.97 Z M201.3,103.86 L200.775,104.355 C201.285,104.73 201.825,105.225 202.395,105.825 C202.89,106.335 203.31,106.845 203.64,107.325 L204.225,106.815 C203.895,106.35 203.475,105.855 202.98,105.33 C202.38,104.715 201.825,104.22 201.3,103.86 Z M221.55,100.65 L219.87,100.65 L219.87,99.885 L224.07,99.885 L224.07,100.65 L222.36,100.65 L222.36,105.09 L223.815,105.09 L223.815,105.855 L222.36,105.855 L222.36,111.045 L224.235,111.045 L224.235,111.795 L219.57,111.795 L219.57,111.045 L221.55,111.045 L221.55,105.855 L219.99,105.855 L219.99,105.09 L221.55,105.09 L221.55,100.65 Z M212.625,100.65 L210.885,100.65 L210.885,99.885 L215.115,99.885 L215.115,100.65 L213.435,100.65 L213.435,104.64 L214.995,104.64 L214.995,105.42 L213.435,105.42 L213.435,109.68 C214.08,109.41 214.695,109.14 215.28,108.84 L215.28,109.68 C213.9,110.34 212.415,110.895 210.825,111.33 L210.63,110.55 C211.32,110.385 211.98,110.19 212.625,109.98 L212.625,105.42 L211.11,105.42 L211.11,104.64 L212.625,104.64 L212.625,100.65 Z M216.12,103.845 C216.645,104.625 217.125,105.39 217.575,106.11 C217.815,104.97 218.025,103.68 218.175,102.225 L215.19,102.225 L215.19,101.445 L217.245,101.445 C217.02,100.53 216.765,99.69 216.48,98.94 L217.29,98.805 C217.545,99.57 217.785,100.455 218.01,101.445 L219.855,101.445 L219.855,102.225 L218.91,102.225 C218.7,104.115 218.43,105.705 218.1,106.98 C218.79,108.12 219.36,109.185 219.81,110.145 L219.165,110.595 C218.775,109.74 218.325,108.855 217.815,107.955 C217.785,108.06 217.74,108.165 217.71,108.27 C217.125,109.815 216.255,111.195 215.085,112.425 L214.605,111.81 C215.685,110.655 216.48,109.38 217.02,108 C217.125,107.7 217.23,107.4 217.32,107.085 C216.765,106.155 216.165,105.195 215.52,104.22 L216.12,103.845 Z M231.3,103.86 L230.775,104.355 C231.285,104.73 231.825,105.225 232.395,105.825 C232.89,106.335 233.31,106.845 233.64,107.325 L234.225,106.815 C233.895,106.35 233.475,105.855 232.98,105.33 C232.38,104.715 231.825,104.22 231.3,103.86 Z M247.38,103.89 L243.48,103.89 L243.48,106.875 L247.38,106.875 L247.38,103.89 Z M248.175,106.875 L252.015,106.875 L252.015,103.89 L248.175,103.89 L248.175,106.875 Z M244.77,101.01 C243.78,102.12 242.61,103.11 241.26,103.95 L240.72,103.29 C242.73,102.06 244.335,100.53 245.52,98.685 L246.345,98.88 C246.045,99.36 245.73,99.825 245.385,100.26 L250.965,100.26 L250.965,100.89 C250.335,101.775 249.69,102.51 249.045,103.11 L252.825,103.11 L252.825,107.655 L243.48,107.655 L243.48,110.715 C243.48,111.18 243.735,111.42 244.245,111.435 L251.715,111.435 C252.255,111.42 252.63,111.24 252.84,110.895 C253.02,110.595 253.155,109.92 253.245,108.87 L254.04,109.11 C253.95,110.1 253.8,110.82 253.605,111.255 C253.305,111.885 252.75,112.215 251.925,112.23 L243.975,112.23 C243.09,112.23 242.655,111.81 242.655,110.97 L242.655,103.11 L247.95,103.11 C248.64,102.51 249.3,101.805 249.915,101.01 L244.77,101.01 Z M256.71,99.87 L262.125,99.87 L262.125,98.745 L262.935,98.745 L262.935,99.87 L268.29,99.87 L268.29,100.56 L262.935,100.56 L262.935,101.775 L267.66,101.775 L267.66,102.435 L262.935,102.435 L262.935,103.65 L268.935,103.65 L268.935,104.355 L262.14,104.355 C261.18,105.15 260.205,105.765 259.23,106.2 C260.67,106.17 262.11,106.11 263.55,106.05 C264.195,105.705 264.84,105.33 265.47,104.94 L266.1,105.375 C263.835,106.725 261.54,107.745 259.23,108.45 C261.165,108.405 263.565,108.27 266.43,108.03 C266.04,107.625 265.62,107.22 265.17,106.815 L265.74,106.455 C266.94,107.535 267.855,108.465 268.485,109.275 L267.9,109.695 C267.63,109.335 267.315,108.975 266.97,108.6 C265.47,108.69 264.135,108.78 262.995,108.855 L262.995,111.375 C262.995,112.11 262.635,112.485 261.93,112.485 L260.505,112.485 L260.34,111.75 C260.805,111.78 261.24,111.81 261.66,111.81 C262.005,111.81 262.185,111.6 262.185,111.195 L262.185,108.9 C260.445,108.99 259.125,109.05 258.21,109.05 L257.25,109.08 L257.085,108.39 L257.535,108.42 C259.185,108 260.805,107.4 262.395,106.635 C261.045,106.695 259.59,106.74 258.06,106.77 L257.91,106.155 C258.09,106.125 258.255,106.08 258.405,106.02 C259.215,105.72 260.13,105.165 261.165,104.355 L256.08,104.355 L256.08,103.65 L262.125,103.65 L262.125,102.435 L257.34,102.435 L257.34,101.775 L262.125,101.775 L262.125,100.56 L256.71,100.56 L256.71,99.87 Z M260.175,109.545 L260.64,110.055 C259.5,110.925 258.03,111.66 256.26,112.23 L255.93,111.555 C257.64,111.045 259.05,110.37 260.175,109.545 Z M264.705,109.5 C266.295,110.085 267.735,110.805 269.055,111.66 L268.65,112.29 C267.24,111.36 265.8,110.61 264.315,110.07 L264.705,109.5 Z M276.3,103.86 L275.775,104.355 C276.285,104.73 276.825,105.225 277.395,105.825 C277.89,106.335 278.31,106.845 278.64,107.325 L279.225,106.815 C278.895,106.35 278.475,105.855 277.98,105.33 C277.38,104.715 276.825,104.22 276.3,103.86 Z M288.06,105.33 L288.06,100.14 L293.34,100.14 C293.145,99.615 292.935,99.15 292.695,98.73 L293.52,98.595 C293.73,99.045 293.94,99.57 294.15,100.14 L298.905,100.14 L298.905,100.92 L288.855,100.92 L288.855,105.18 C288.795,108.18 288.195,110.58 287.07,112.395 L286.455,111.84 C287.355,110.43 287.865,108.57 288.015,106.245 C287.4,106.83 286.695,107.385 285.915,107.895 L285.69,107.085 C286.56,106.575 287.34,105.99 288.06,105.33 Z M286.395,101.115 C286.905,102.015 287.355,102.96 287.73,103.95 L287.04,104.25 C286.635,103.17 286.2,102.21 285.72,101.4 L286.395,101.115 Z M289.965,108.24 L293.67,108.24 L293.67,101.685 L294.435,101.685 L294.435,108.24 L298.305,108.24 L298.305,108.975 L294.435,108.975 L294.435,111.285 L299.145,111.285 L299.145,112.035 L289.095,112.035 L289.095,111.285 L293.67,111.285 L293.67,108.975 L289.965,108.975 L289.965,108.24 Z M296.79,104.67 C296.43,105.69 295.995,106.56 295.485,107.25 L294.99,106.635 C295.83,105.45 296.415,103.86 296.715,101.85 L297.435,101.985 C297.315,102.75 297.15,103.455 296.97,104.085 C297.63,104.805 298.29,105.615 298.95,106.515 L298.5,107.16 C297.81,106.08 297.24,105.24 296.79,104.67 Z M291.285,101.895 L292.005,102.03 C291.855,102.87 291.675,103.65 291.45,104.355 C292.005,104.985 292.575,105.69 293.145,106.485 L292.71,107.13 C292.14,106.185 291.645,105.45 291.24,104.94 C290.88,105.87 290.445,106.65 289.935,107.295 L289.455,106.695 C290.355,105.51 290.955,103.905 291.285,101.895 Z M303.105,105.315 C303.105,105.135 303.12,104.97 303.12,104.82 L303.12,100.29 L308.34,100.29 C308.145,99.75 307.935,99.255 307.695,98.805 L308.52,98.67 C308.73,99.15 308.94,99.69 309.135,100.29 L313.89,100.29 L313.89,101.07 L303.915,101.07 L303.915,104.82 C303.855,108 303.24,110.55 302.07,112.47 L301.455,111.915 C302.355,110.475 302.895,108.585 303.06,106.215 C302.4,106.815 301.68,107.385 300.885,107.91 L300.675,107.1 C301.56,106.575 302.37,105.975 303.105,105.315 Z M301.35,101.115 C301.89,102 302.355,102.945 302.73,103.95 L302.04,104.235 C301.62,103.155 301.17,102.21 300.69,101.4 L301.35,101.115 Z M308.715,101.715 L309.45,101.715 C310.32,103.065 311.835,104.25 313.965,105.27 L313.53,105.96 C311.535,105 310.05,103.83 309.09,102.45 C307.935,104.04 306.495,105.27 304.755,106.14 L304.32,105.48 C306.21,104.52 307.68,103.26 308.715,101.715 Z M310.98,106.275 L306.99,106.275 L306.99,110.76 C306.99,111.24 307.215,111.48 307.68,111.48 L311.295,111.48 C311.925,111.48 312.33,111.345 312.495,111.09 C312.66,110.76 312.78,110.16 312.855,109.26 L313.605,109.5 C313.5,110.76 313.29,111.54 312.99,111.84 C312.72,112.08 312.21,112.215 311.46,112.215 L307.425,112.215 C306.615,112.215 306.225,111.795 306.225,110.97 L306.225,105.555 L311.775,105.555 L311.775,108.39 C311.76,109.08 311.37,109.455 310.59,109.485 C309.93,109.485 309.285,109.47 308.655,109.44 L308.445,108.705 C309.105,108.735 309.75,108.765 310.35,108.765 C310.77,108.765 310.98,108.57 310.98,108.195 L310.98,106.275 Z M317.535,103.26 L322.095,103.26 L322.095,102.21 L322.905,102.21 L322.905,103.26 L327.435,103.26 L327.435,103.995 L322.905,103.995 L322.905,105.675 L329.13,105.675 L329.13,106.395 L326.13,106.395 L326.13,108.045 L328.485,108.045 L328.485,108.78 L326.13,108.78 L326.13,111.345 C326.13,112.08 325.74,112.455 324.96,112.455 L322.755,112.455 L322.575,111.69 C323.31,111.72 324.015,111.75 324.69,111.75 C325.11,111.75 325.32,111.555 325.32,111.165 L325.32,108.78 L316.755,108.78 L316.755,108.045 L325.32,108.045 L325.32,106.395 L315.855,106.395 L315.855,105.675 L322.095,105.675 L322.095,103.995 L317.535,103.995 L317.535,103.26 Z M319.14,109.32 C319.965,110.13 320.595,110.85 321.045,111.45 L320.4,111.915 C319.935,111.255 319.29,110.52 318.465,109.74 L319.14,109.32 Z M317.91,100.65 C317.535,101.37 317.1,102.015 316.605,102.6 L315.9,102.15 C316.8,101.145 317.445,100.005 317.865,98.73 L318.66,98.895 C318.54,99.255 318.405,99.615 318.255,99.945 L322.29,99.945 L322.29,100.65 L319.59,100.65 C320.025,101.22 320.37,101.76 320.625,102.255 L319.905,102.525 C319.575,101.88 319.185,101.25 318.735,100.65 L317.91,100.65 Z M324,100.605 C323.73,101.115 323.445,101.58 323.115,102.015 L322.44,101.595 C323.1,100.725 323.595,99.765 323.91,98.7 L324.69,98.865 C324.57,99.225 324.45,99.57 324.315,99.9 L328.845,99.9 L328.845,100.605 L325.905,100.605 C326.355,101.19 326.7,101.73 326.955,102.21 L326.235,102.495 C325.89,101.835 325.485,101.205 325.02,100.605 L324,100.605 Z M337.56,98.775 L338.28,99.15 C337.95,99.525 337.605,99.87 337.23,100.17 L341.745,100.17 L341.745,100.83 C340.125,103.71 337.11,105.33 332.73,105.675 L332.385,104.925 C333.825,104.835 335.1,104.61 336.21,104.25 C335.715,103.62 335.19,103.065 334.635,102.585 L335.34,102.24 C335.925,102.78 336.465,103.35 336.975,103.98 C338.64,103.29 339.915,102.27 340.8,100.92 L336.165,100.92 C334.995,101.625 333.615,102.15 332.01,102.495 L331.53,101.775 C334.215,101.235 336.225,100.245 337.56,98.775 Z M336.735,108.12 C337.35,108.75 337.935,109.425 338.475,110.145 C340.275,109.38 341.655,108.255 342.645,106.77 L338.01,106.77 C336.66,107.415 335.07,107.88 333.225,108.18 L332.745,107.46 C336.015,107.13 338.43,106.11 340.02,104.43 L340.71,104.805 C340.29,105.255 339.825,105.66 339.3,106.02 L343.68,106.02 L343.68,106.665 C341.565,110.235 337.605,112.08 331.815,112.2 L331.485,111.405 C333.9,111.375 335.97,111.06 337.71,110.445 C337.155,109.71 336.585,109.05 336.015,108.48 L336.735,108.12 Z M354.915,98.835 L355.71,98.835 L355.71,101.565 L358.755,101.565 L358.755,108.195 L357.96,108.195 L357.96,107.37 L355.71,107.37 L355.71,112.47 L354.915,112.47 L354.915,107.37 L352.71,107.37 L352.71,108.195 L351.93,108.195 L351.93,101.565 L354.915,101.565 L354.915,98.835 Z M352.71,106.62 L354.915,106.62 L354.915,102.345 L352.71,102.345 L352.71,106.62 Z M355.71,106.62 L357.96,106.62 L357.96,102.345 L355.71,102.345 L355.71,106.62 Z M346.005,100.785 C346.785,100.695 347.52,100.575 348.21,100.44 L348.21,102.975 L345.81,102.975 L345.81,103.77 L348.15,103.77 C347.64,105.615 346.785,107.265 345.555,108.72 L345.885,109.575 C346.875,108.3 347.655,106.86 348.21,105.27 L348.21,112.56 L349.02,112.56 L349.02,105.36 C349.545,105.975 350.175,106.815 350.895,107.88 L351.36,107.205 C350.565,106.245 349.785,105.375 349.02,104.625 L349.02,103.77 L351.045,103.77 L351.045,102.975 L349.02,102.975 L349.02,100.275 C349.74,100.095 350.4,99.9 351.03,99.675 L350.76,98.925 C349.35,99.45 347.715,99.81 345.855,100.02 L346.005,100.785 Z M371.895,112.395 L370.26,112.395 L370.035,111.615 L371.745,111.645 C372.345,111.645 372.66,111.27 372.66,110.535 L372.66,100.515 L366.72,100.515 L366.72,99.72 L373.485,99.72 L373.485,110.76 C373.485,111.84 372.945,112.395 371.895,112.395 Z M361.515,101.265 L361.515,112.485 L362.34,112.485 L362.34,101.265 L361.515,101.265 Z M364.92,103.53 L370.02,103.53 L370.02,108.915 L364.92,108.915 L364.92,103.53 Z M369.225,108.12 L369.225,104.295 L365.715,104.295 L365.715,108.12 L369.225,108.12 Z M363.48,98.67 L362.73,99 C363.435,99.81 364.08,100.755 364.665,101.805 L365.4,101.415 C364.845,100.425 364.2,99.51 363.48,98.67 Z M386.205,111.45 C387.63,111.435 388.695,111.42 389.4,111.39 L389.25,112.215 L386.37,112.215 C382.77,112.215 380.52,112.02 379.62,111.645 C378.75,111.27 378,110.595 377.355,109.605 C377.085,110.655 376.695,111.615 376.17,112.485 L375.57,111.945 C376.41,110.55 376.875,108.975 376.95,107.22 L377.67,107.325 C377.64,107.805 377.595,108.285 377.535,108.735 C377.985,109.485 378.48,110.055 379.035,110.46 L379.035,106.44 L375.975,106.44 L375.975,105.69 L382.275,105.69 L382.275,106.44 L379.755,106.44 L379.755,108.255 L381.915,108.255 L381.915,109.005 L379.755,109.005 L379.755,110.88 C379.875,110.94 379.995,110.985 380.115,111.03 C381.015,111.3 383.04,111.45 386.205,111.45 Z M376.71,99.435 L381.675,99.435 L381.675,104.52 L376.71,104.52 L376.71,99.435 Z M380.865,103.815 L380.865,102.315 L377.505,102.315 L377.505,103.815 L380.865,103.815 Z M377.505,101.67 L380.865,101.67 L380.865,100.14 L377.505,100.14 L377.505,101.67 Z M382.575,99.465 L388.965,99.465 L388.965,100.215 L386.22,100.215 C386.16,100.695 386.07,101.16 385.965,101.61 L388.515,101.61 L388.515,107.595 L387.75,107.595 L387.75,102.33 L383.82,102.33 L383.82,107.595 L383.085,107.595 L383.085,101.61 L385.26,101.61 C385.35,101.16 385.41,100.695 385.455,100.215 L382.575,100.215 L382.575,99.465 Z M386.76,107.73 C387.69,108.48 388.485,109.215 389.13,109.965 L388.575,110.535 C387.975,109.815 387.18,109.065 386.19,108.255 L386.76,107.73 Z M385.38,103.14 L386.16,103.14 L386.16,105.225 C386.13,106.65 385.86,107.805 385.35,108.675 C384.84,109.47 384.015,110.1 382.875,110.55 L382.41,109.86 C383.505,109.44 384.285,108.87 384.735,108.135 C385.155,107.385 385.365,106.425 385.38,105.225 L385.38,103.14 Z" id="txt3-3"></path>
                </g>
            </g>
        </g>
    </g>
</svg>