<?xml version="1.0" encoding="UTF-8"?>
<svg width="196px" height="128px" viewBox="0 0 196 128" version="1.1" xmlns="http://www.w3.org/2000/svg" xmlns:xlink="http://www.w3.org/1999/xlink">
    <!-- Generator: Sketch 46.2 (44496) - http://www.bohemiancoding.com/sketch -->
    <title>5大维度 全面分析</title>
    <desc>Created with Sketch.</desc>
    <defs></defs>
    <g id="Page-1" stroke="none" stroke-width="1" fill="none" fill-rule="evenodd">
        <g id="首页" transform="translate(-1087.000000, -3390.000000)" fill="#38393B">
            <g id="4" transform="translate(-5.000000, 3073.000000)">
                <g id="文字" transform="translate(1090.000000, 300.000000)">
                    <path d="M25.6,23.2 L23.8,42.7 L26.7,42.7 C27.5,41.2 28.65,40 30.15,39.15 C31.6,38.35 33.25,37.95 35.05,37.95 C37.8,37.95 40,38.75 41.6,40.4 C43.25,42.1 44.1,44.5 44.1,47.55 C44.1,50.25 43.2,52.5 41.45,54.3 C39.7,56.05 37.45,56.95 34.75,56.95 C32.4,56.95 30.45,56.3 28.9,55.1 C27.15,53.75 26.15,51.85 25.9,49.45 L22.85,49.45 C23.1,52.65 24.45,55.2 26.9,57.05 C29.05,58.75 31.65,59.6 34.75,59.6 C38.25,59.6 41.15,58.5 43.5,56.3 C45.9,54 47.15,51.05 47.15,47.55 C47.15,43.7 46.05,40.7 43.9,38.5 C41.8,36.4 39.05,35.35 35.65,35.35 C34,35.35 32.45,35.65 31,36.3 C29.4,36.95 28.1,37.9 27.05,39.15 L26.9,39.15 L28.15,26 L45.8,26 L45.8,23.2 L25.6,23.2 Z M53.2,31.6 L53.2,34.3 L72.45,34.3 C69.9,47.1 63.15,56.2 52.2,61.6 L53.9,63.85 C65,58.1 71.95,48.8 74.8,35.9 C78.45,47.9 85.55,57.15 96.05,63.55 L97.7,61.35 C87.2,55.05 80.25,46.05 76.75,34.3 L96.8,34.3 L96.8,31.6 L75.6,31.6 C76.1,28.45 76.35,25.05 76.35,21.45 L76.35,18.25 L73.65,18.25 L73.65,22.05 C73.6,25.35 73.35,28.55 72.9,31.6 L53.2,31.6 Z M119.75,54.35 L119.75,57 C114.75,58.9 109.15,60.45 102.85,61.65 L102.45,59 C109.05,57.85 114.8,56.3 119.75,54.35 Z M111.3,18.1 L113.9,19.15 C111.4,25.95 108.9,31.25 106.4,35.15 C108.85,34.75 111.3,34.25 113.75,33.6 C114.65,31.75 115.6,29.8 116.55,27.75 L118.9,28.65 C114.45,37.85 110.75,44.25 107.85,47.95 C111.45,47.05 115.05,45.85 118.6,44.35 L118.6,46.9 C113.8,48.85 109.1,50.2 104.6,51 L103.9,48.5 C104.4,48.3 104.8,48 105.15,47.7 C107.15,45.4 109.6,41.6 112.4,36.2 C109.45,36.9 106.55,37.5 103.7,38 L103.05,35.5 C103.45,35.3 103.85,34.95 104.2,34.45 C106.9,29.8 109.3,24.35 111.3,18.1 Z M126.2,39.8 L126.2,47.5 L135.95,47.5 L135.95,39.8 L126.2,39.8 Z M126.2,50.05 L126.2,58.5 L135.95,58.5 L135.95,50.05 L126.2,50.05 Z M126.2,61.05 L126.2,63.65 L123.6,63.65 L123.6,32.75 C122.1,35.55 120.35,38.25 118.45,40.8 L117.6,37.95 C121.7,31.95 124.65,25.35 126.35,18.25 L128.95,18.75 C128.25,21.6 127.35,24.35 126.3,27.05 L146.95,27.05 L146.95,29.65 L138.55,29.65 L138.55,37.25 L146.1,37.25 L146.1,39.8 L138.55,39.8 L138.55,47.5 L146.1,47.5 L146.1,50.05 L138.55,50.05 L138.55,58.5 L147.95,58.5 L147.95,61.05 L126.2,61.05 Z M135.95,29.65 L126.2,29.65 L126.2,37.25 L135.95,37.25 L135.95,29.65 Z M136.15,18.05 C137.25,20.9 138.15,23.5 138.75,25.9 L136.4,26.75 C135.6,24.05 134.65,21.35 133.55,18.75 L136.15,18.05 Z M163.15,45.7 L192.2,45.7 L192.2,47.75 C189.25,51.45 185.6,54.6 181.2,57.15 C185.8,59.2 191.3,60.7 197.65,61.6 L196.45,63.95 C189.45,62.75 183.55,60.95 178.65,58.5 C173.6,60.95 167.75,62.75 161.05,63.9 L159.85,61.5 C165.95,60.6 171.3,59.1 175.95,57 C171.8,54.5 168.5,51.55 166,48.05 L163.15,48.05 L163.15,45.7 Z M168.85,48.05 C171.35,51.1 174.55,53.7 178.45,55.8 C182.5,53.7 185.95,51.1 188.75,48.05 L168.85,48.05 Z M160.05,31.4 L168.85,31.4 L168.85,26.9 L171.5,26.9 L171.5,31.4 L185.9,31.4 L185.9,26.9 L188.55,26.9 L188.55,31.4 L196.35,31.4 L196.35,34 L188.55,34 L188.55,41.8 L168.85,41.8 L168.85,34 L160.05,34 L160.05,31.4 Z M171.5,34 L171.5,39.45 L185.9,39.45 L185.9,34 L171.5,34 Z M177.3,17.95 C177.95,19.25 178.55,20.75 179.15,22.4 L196.5,22.4 L196.5,25 L159.7,25 L159.7,38.75 C159.5,49.05 157.7,57.35 154.3,63.65 L152.25,61.8 C155.25,56.3 156.85,48.6 157,38.75 L157,22.4 L176.5,22.4 C175.85,20.95 175.2,19.65 174.5,18.45 L177.3,17.95 Z M11.4,115.45 L11.4,118.05 L23.7,118.05 L23.7,127.75 L8.75,127.75 L8.75,130.4 L23.7,130.4 L23.7,140.45 L4.55,140.45 L4.55,143.1 L45.75,143.1 L45.75,140.45 L26.45,140.45 L26.45,130.4 L41.2,130.4 L41.2,127.75 L26.45,127.75 L26.45,118.05 L38.35,118.05 L38.35,115.4 L11.5,115.4 C17.55,112.05 22.15,108.15 25.3,103.65 C29.8,109.65 36.55,114.45 45.6,118.1 L47.45,115.65 C37.55,111.95 30.6,107.05 26.65,100.9 L12.6,100.9 L12.6,103.45 L22.75,103.45 C18.55,108.75 11.65,113.1 2.1,116.5 L3.65,119 C6.45,117.9 9,116.7 11.4,115.45 Z M52.9,101.35 L97.15,101.35 L97.15,103.95 L76.8,103.95 C76.3,106.45 75.6,108.9 74.7,111.2 L94.2,111.2 L94.2,144.8 L91.55,144.8 L91.55,142.1 L58.6,142.1 L58.6,144.8 L55.95,144.8 L55.95,111.2 L72,111.2 C72.95,108.95 73.65,106.55 74.05,103.95 L52.9,103.95 L52.9,101.35 Z M58.6,139.5 L66.35,139.5 L66.35,113.75 L58.6,113.75 L58.6,139.5 Z M68.9,139.5 L81.1,139.5 L81.1,132.35 L68.9,132.35 L68.9,139.5 Z M83.65,139.5 L91.55,139.5 L91.55,113.75 L83.65,113.75 L83.65,139.5 Z M68.9,130 L81.1,130 L81.1,123.1 L68.9,123.1 L68.9,130 Z M68.9,120.7 L81.1,120.7 L81.1,113.75 L68.9,113.75 L68.9,120.7 Z M118.55,100.2 L120.85,101.6 C118.55,105.8 116.2,109.25 113.8,111.95 C111.15,114.95 107.8,117.75 103.8,120.45 L102.3,118.05 C105.9,115.95 109.05,113.35 111.75,110.2 C114.25,107.35 116.55,104 118.55,100.2 Z M120.3,121.9 L109.65,121.9 L109.65,119.25 L139.15,119.25 C139,125.35 138.7,130.3 138.25,134.1 C137.75,137.8 136.95,140.45 135.85,141.95 C134.75,143.4 132.95,144.2 130.45,144.3 L121.6,144.3 L120.9,141.65 C123.8,141.7 126.5,141.75 129.1,141.75 C131.9,141.75 133.75,140.5 134.65,138.1 C135.55,135.55 136.15,130.15 136.45,121.9 L122.95,121.9 C121.75,127.55 120.1,132 117.9,135.3 C115.35,138.8 111.55,142 106.45,144.8 L104.75,142.6 C109.45,140.05 112.95,137.25 115.35,134.2 C117.55,131.1 119.2,127 120.3,121.9 Z M131.75,99.5 C134.75,107.4 140,113.6 147.5,118.1 L145.7,120.25 C137.9,115.3 132.45,108.8 129.4,100.8 L131.75,99.5 Z M163.35,117.55 L163.35,144.55 L160.65,144.55 L160.65,117.6 C158.85,123.2 156.4,128.2 153.3,132.6 L152.15,129.7 C156.15,124.45 158.95,118.5 160.55,111.8 L153.1,111.8 L153.1,109.15 L160.65,109.15 L160.65,99.05 L163.35,99.05 L163.35,109.15 L170.45,109.15 L170.45,111.8 L163.35,111.8 L163.35,114.7 C165.85,117.3 168.35,120.3 170.85,123.6 L169.35,125.8 C167.05,122.4 165.05,119.65 163.35,117.55 Z M194.5,99.35 L195.85,101.8 C190.1,103.95 183.65,105.2 176.5,105.5 L176.5,115.35 L197.15,115.35 L197.15,118 L189.35,118 L189.35,144.6 L186.6,144.6 L186.6,118 L176.5,118 L176.5,119 C176.2,129.6 173.7,138 169,144.3 L167.05,142.25 C171.25,136.65 173.55,128.9 173.9,119 L173.9,103.2 C181.5,103 188.35,101.75 194.5,99.35 Z" id="5大维度-全面分析"></path>
                </g>
            </g>
        </g>
    </g>
</svg>