<?xml version="1.0" encoding="UTF-8"?>
<svg width="180px" height="15px" viewBox="0 0 180 15" version="1.1" xmlns="http://www.w3.org/2000/svg" xmlns:xlink="http://www.w3.org/1999/xlink">
    <!-- Generator: Sketch 46.2 (44496) - http://www.bohemiancoding.com/sketch -->
    <title>txt4-3</title>
    <desc>Created with Sketch.</desc>
    <defs></defs>
    <g id="Page-1" stroke="none" stroke-width="1" fill="none" fill-rule="evenodd">
        <g id="首页" transform="translate(-1105.000000, -3570.000000)" fill="#777777">
            <g id="4" transform="translate(-5.000000, 3073.000000)">
                <g id="文字" transform="translate(1092.000000, 317.000000)">
                    <path d="M19.05,184.69 L23.865,184.69 L23.865,185.335 C23.055,188.65 21.48,191.17 19.155,192.88 L18.66,192.205 C20.79,190.63 22.245,188.38 23.04,185.47 L19.05,185.47 L19.05,184.69 Z M30.72,183.22 L31.38,183.7 C30.18,185.17 28.935,186.4 27.63,187.39 C28.83,189.385 30.405,191.02 32.37,192.31 L31.86,193.06 C29.085,191.02 27.135,188.575 26.025,185.725 L26.025,193.15 C26.025,193.975 25.62,194.395 24.825,194.395 L22.875,194.395 L22.695,193.615 C23.34,193.645 23.955,193.675 24.54,193.675 C24.99,193.675 25.215,193.42 25.215,192.94 L25.215,180.715 L26.025,180.715 L26.025,183.79 C26.355,184.855 26.775,185.845 27.27,186.76 C28.56,185.725 29.7,184.54 30.72,183.22 Z M38.565,181.12 L39.255,181.54 C38.565,182.8 37.86,183.835 37.14,184.645 C36.345,185.545 35.34,186.385 34.14,187.195 L33.69,186.475 C34.77,185.845 35.715,185.065 36.525,184.12 C37.275,183.265 37.965,182.26 38.565,181.12 Z M39.09,187.63 L35.895,187.63 L35.895,186.835 L44.745,186.835 C44.7,188.665 44.61,190.15 44.475,191.29 C44.325,192.4 44.085,193.195 43.755,193.645 C43.425,194.08 42.885,194.32 42.135,194.35 L39.48,194.35 L39.27,193.555 C40.14,193.57 40.95,193.585 41.73,193.585 C42.57,193.585 43.125,193.21 43.395,192.49 C43.665,191.725 43.845,190.105 43.935,187.63 L39.885,187.63 C39.525,189.325 39.03,190.66 38.37,191.65 C37.605,192.7 36.465,193.66 34.935,194.5 L34.425,193.84 C35.835,193.075 36.885,192.235 37.605,191.32 C38.265,190.39 38.76,189.16 39.09,187.63 Z M42.525,180.91 C43.425,183.28 45,185.14 47.25,186.49 L46.71,187.135 C44.37,185.65 42.735,183.7 41.82,181.3 L42.525,180.91 Z M54.03,180.7 L48.645,194.5 L49.47,194.5 L54.855,180.7 L54.03,180.7 Z M69.12,183.55 L69.12,194.395 L68.34,194.395 L68.34,193.435 L61.635,193.435 L61.635,194.38 L60.855,194.38 L60.855,183.55 L64.59,183.55 L64.59,180.82 L65.4,180.82 L65.4,183.55 L69.12,183.55 Z M61.635,192.655 L64.59,192.655 L64.59,188.755 L61.635,188.755 L61.635,192.655 Z M65.4,188.755 L65.4,192.655 L68.34,192.655 L68.34,188.755 L65.4,188.755 Z M61.635,188.005 L64.59,188.005 L64.59,184.33 L61.635,184.33 L61.635,188.005 Z M65.4,184.33 L65.4,188.005 L68.34,188.005 L68.34,184.33 L65.4,184.33 Z M57.465,181.09 L56.88,181.645 C57.945,182.41 58.785,183.13 59.4,183.82 L59.985,183.235 C59.31,182.515 58.47,181.81 57.465,181.09 Z M57.06,184.69 L56.49,185.26 C57.555,186.01 58.395,186.73 59.01,187.42 L59.595,186.835 C58.905,186.115 58.065,185.41 57.06,184.69 Z M58.89,188.605 C58.26,190.435 57.51,192.22 56.655,193.96 L57.405,194.29 C58.215,192.61 58.935,190.81 59.595,188.89 L58.89,188.605 Z M76.065,181.12 L76.755,181.54 C76.065,182.8 75.36,183.835 74.64,184.645 C73.845,185.545 72.84,186.385 71.64,187.195 L71.19,186.475 C72.27,185.845 73.215,185.065 74.025,184.12 C74.775,183.265 75.465,182.26 76.065,181.12 Z M76.59,187.63 L73.395,187.63 L73.395,186.835 L82.245,186.835 C82.2,188.665 82.11,190.15 81.975,191.29 C81.825,192.4 81.585,193.195 81.255,193.645 C80.925,194.08 80.385,194.32 79.635,194.35 L76.98,194.35 L76.77,193.555 C77.64,193.57 78.45,193.585 79.23,193.585 C80.07,193.585 80.625,193.21 80.895,192.49 C81.165,191.725 81.345,190.105 81.435,187.63 L77.385,187.63 C77.025,189.325 76.53,190.66 75.87,191.65 C75.105,192.7 73.965,193.66 72.435,194.5 L71.925,193.84 C73.335,193.075 74.385,192.235 75.105,191.32 C75.765,190.39 76.26,189.16 76.59,187.63 Z M80.025,180.91 C80.925,183.28 82.5,185.14 84.75,186.49 L84.21,187.135 C81.87,185.65 80.235,183.7 79.32,181.3 L80.025,180.91 Z M91.53,180.7 L86.145,194.5 L86.97,194.5 L92.355,180.7 L91.53,180.7 Z M95.97,183.055 C95.46,183.895 94.89,184.6 94.26,185.155 L93.645,184.6 C94.755,183.64 95.595,182.35 96.165,180.715 L96.945,181.015 C96.765,181.465 96.585,181.885 96.39,182.275 L101.115,182.275 L101.115,183.055 L95.97,183.055 Z M97.14,185.605 C97.77,186.13 98.31,186.655 98.745,187.18 L98.265,187.66 C97.875,187.15 97.335,186.61 96.675,186.055 L97.14,185.605 Z M96.915,189.085 C97.545,189.625 98.07,190.15 98.505,190.675 L98.04,191.14 C97.65,190.63 97.11,190.105 96.45,189.535 L96.915,189.085 Z M103.035,183.955 C102.615,185.05 102.09,185.98 101.475,186.73 L100.965,186.1 C102,184.765 102.69,182.965 103.05,180.715 L103.845,180.865 C103.695,181.705 103.515,182.47 103.305,183.16 L107.25,183.16 L107.25,183.955 L106.17,183.955 C106.11,186.505 105.66,188.665 104.835,190.435 C105.525,191.725 106.335,192.85 107.295,193.84 L106.785,194.44 C105.855,193.495 105.075,192.43 104.415,191.245 C103.68,192.505 102.75,193.57 101.61,194.41 L101.175,193.72 C102.36,192.865 103.29,191.77 103.98,190.45 C103.32,189.13 102.795,187.675 102.405,186.085 L103.035,185.725 C103.365,187.12 103.815,188.395 104.385,189.565 C105.03,187.975 105.375,186.115 105.42,183.955 L103.035,183.955 Z M94.305,192.22 C94.515,191.095 94.695,189.94 94.815,188.74 L93.735,188.74 L93.735,188.02 L94.89,188.02 C94.995,186.88 95.055,185.74 95.085,184.57 L100.665,184.57 L100.56,188.02 L101.61,188.02 L101.61,188.74 L100.53,188.74 C100.47,189.88 100.425,190.78 100.395,191.47 L101.475,191.47 L101.475,192.22 L100.335,192.22 C100.29,192.685 100.245,192.985 100.215,193.105 C100.08,193.555 99.825,193.9 99.465,194.125 C99.105,194.32 98.565,194.425 97.86,194.425 L97.35,194.425 L97.11,193.675 C97.35,193.69 97.56,193.705 97.74,193.705 C98.13,193.705 98.475,193.66 98.775,193.585 C99.09,193.48 99.315,193.24 99.465,192.88 C99.495,192.79 99.54,192.58 99.57,192.22 L94.305,192.22 Z M99.63,191.47 C99.675,190.78 99.72,189.88 99.78,188.74 L95.595,188.74 C95.49,189.73 95.37,190.645 95.22,191.47 L99.63,191.47 Z M95.655,188.02 L99.81,188.02 C99.84,187.195 99.87,186.295 99.9,185.305 L95.82,185.305 C95.775,186.28 95.715,187.18 95.655,188.02 Z M111.72,184.3 L116.76,184.3 L116.76,184.99 L111.72,184.99 L111.72,184.3 Z M112.095,186.145 L116.37,186.145 L116.37,189.19 L112.095,189.19 L112.095,186.145 Z M115.62,188.56 L115.62,186.79 L112.845,186.79 L112.845,188.56 L115.62,188.56 Z M121.905,182.185 L121.905,182.935 L118.62,182.935 C118.68,184.855 118.785,186.445 118.95,187.705 C119.61,186.865 120.195,185.89 120.72,184.78 L121.395,185.2 C120.735,186.46 120.09,187.51 119.43,188.32 L119.1,188.695 C119.385,190.255 119.745,191.455 120.165,192.295 C120.555,193.06 120.885,193.45 121.125,193.45 C121.38,193.42 121.605,192.565 121.785,190.885 L122.43,191.245 C122.16,193.285 121.77,194.32 121.275,194.32 C120.795,194.32 120.27,193.855 119.73,192.955 C119.22,192.07 118.815,190.87 118.485,189.355 C117.945,189.895 117.33,190.405 116.655,190.9 L116.235,190.255 C117.015,189.76 117.705,189.175 118.32,188.485 C118.065,187 117.915,185.155 117.855,182.935 L110.895,182.935 L110.895,185.875 C110.835,189.415 110.25,192.235 109.14,194.365 L108.555,193.855 C109.545,191.935 110.055,189.28 110.1,185.875 L110.1,182.185 L117.84,182.185 C117.825,181.72 117.825,181.255 117.825,180.79 L118.59,180.79 C118.59,181.27 118.59,181.735 118.605,182.185 L120.165,182.185 C119.985,181.765 119.79,181.36 119.565,181 L120.21,180.76 C120.45,181.165 120.66,181.645 120.87,182.185 L121.905,182.185 Z M111.465,190.72 L112.05,190.84 C111.84,192.04 111.54,193.09 111.18,193.975 L110.625,193.615 C111,192.76 111.285,191.8 111.465,190.72 Z M115.335,194.245 L113.685,194.245 C113.055,194.245 112.755,193.9 112.755,193.225 L112.755,190.405 L113.46,190.405 L113.46,193.09 C113.46,193.405 113.595,193.57 113.895,193.57 L115.2,193.57 C115.5,193.57 115.725,193.495 115.845,193.375 C115.995,193.225 116.1,192.745 116.16,191.95 L116.79,192.16 C116.715,193.135 116.55,193.735 116.31,193.975 C116.1,194.155 115.785,194.245 115.335,194.245 Z M117.6,191.125 C118.17,191.965 118.62,192.715 118.92,193.36 L118.41,193.72 C118.095,193.03 117.66,192.28 117.09,191.44 L117.6,191.125 Z M114.585,189.805 C115.125,190.495 115.56,191.08 115.86,191.59 L115.35,191.95 C115.05,191.395 114.63,190.78 114.09,190.105 L114.585,189.805 Z M129.03,180.7 L123.645,194.5 L124.47,194.5 L129.855,180.7 L129.03,180.7 Z M142.365,194.23 C143.01,194.23 143.475,194.095 143.76,193.855 C144.12,193.555 144.345,192.745 144.45,191.44 L143.655,191.185 C143.565,192.28 143.4,192.94 143.16,193.18 C142.98,193.36 142.65,193.45 142.2,193.45 L138.15,193.45 C137.55,193.45 137.25,193.15 137.25,192.55 L137.25,189.85 L144.27,189.145 L144.27,188.335 L137.25,189.04 L137.25,186.34 L142.98,185.71 L142.98,184.915 L137.25,185.53 L137.25,182.8 C139.17,182.56 140.985,182.215 142.695,181.795 L142.305,181.105 C139.485,181.84 136.11,182.305 132.15,182.515 L132.39,183.205 C133.77,183.13 135.105,183.025 136.425,182.89 L136.425,185.62 L132.465,186.055 L132.465,186.865 L136.425,186.43 L136.425,189.13 L131.28,189.64 L131.28,190.45 L136.425,189.94 L136.425,192.73 C136.425,193.72 136.905,194.23 137.895,194.23 L142.365,194.23 Z M158.115,194.38 C158.64,194.38 159.015,194.215 159.255,193.915 C159.525,193.51 159.72,192.46 159.825,190.765 L159.045,190.51 C158.985,192.04 158.85,192.955 158.67,193.27 C158.535,193.51 158.295,193.63 157.965,193.63 L156.105,193.63 C155.595,193.63 155.355,193.36 155.355,192.85 L155.355,180.85 L154.545,180.85 L154.545,193.015 C154.545,193.915 154.98,194.38 155.865,194.38 L158.115,194.38 Z M146.715,181.42 L146.715,182.17 L151.815,182.17 C151.245,183.085 150.555,183.955 149.775,184.78 L149.775,187.78 C148.605,188.02 147.39,188.23 146.145,188.41 L146.37,189.25 C147.54,189.07 148.665,188.845 149.775,188.605 L149.775,192.865 C149.775,193.405 149.49,193.69 148.95,193.69 C148.635,193.69 148.065,193.66 147.24,193.615 L147.45,194.395 L149.205,194.395 C150.105,194.395 150.57,193.96 150.57,193.09 L150.57,188.41 C151.425,188.215 152.265,187.99 153.075,187.75 L153.075,186.955 C152.265,187.18 151.44,187.39 150.57,187.6 L150.57,185.095 C151.605,183.895 152.325,182.905 152.745,182.125 L152.745,181.42 L146.715,181.42 Z M166.53,180.7 L161.145,194.5 L161.97,194.5 L167.355,180.7 L166.53,180.7 Z M174.84,183.34 L174.84,184.12 L177.78,184.12 L177.78,185.695 C177.78,186.265 177.735,186.82 177.66,187.375 L174.42,187.375 L174.42,188.155 L177.525,188.155 C177.06,190.345 175.935,192.265 174.165,193.915 L174.795,194.44 C176.475,192.85 177.585,191.005 178.155,188.905 C178.935,191.125 180.195,192.985 181.905,194.455 L182.43,193.84 C180.69,192.43 179.43,190.525 178.665,188.155 L182.115,188.155 L182.115,187.375 L178.455,187.375 C178.515,186.835 178.56,186.265 178.575,185.695 L178.575,184.12 L181.515,184.12 L181.515,183.34 L178.575,183.34 L178.575,180.835 L177.78,180.835 L177.78,183.34 L174.84,183.34 Z M173.64,181.465 L173.64,193.3 C173.64,194.05 173.25,194.425 172.485,194.425 L171.405,194.425 L171.21,193.69 C171.57,193.705 171.915,193.72 172.245,193.72 C172.665,193.72 172.89,193.48 172.89,193.03 L172.89,189.205 C172.14,189.43 171.315,189.625 170.445,189.775 C170.355,191.68 170.025,193.255 169.485,194.5 L168.87,193.945 C169.425,192.535 169.71,190.75 169.725,188.59 L169.725,181.465 L173.64,181.465 Z M170.475,189.01 C171.36,188.86 172.17,188.68 172.89,188.455 L172.89,186.265 C172.11,185.995 171.3,185.77 170.49,185.62 L170.49,188.545 C170.49,188.695 170.475,188.86 170.475,189.01 Z M170.49,184.885 C171.33,185.05 172.125,185.26 172.89,185.53 L172.89,182.23 L170.49,182.23 L170.49,184.885 Z M190.38,185.89 L186.48,185.89 L186.48,188.875 L190.38,188.875 L190.38,185.89 Z M191.175,188.875 L195.015,188.875 L195.015,185.89 L191.175,185.89 L191.175,188.875 Z M187.77,183.01 C186.78,184.12 185.61,185.11 184.26,185.95 L183.72,185.29 C185.73,184.06 187.335,182.53 188.52,180.685 L189.345,180.88 C189.045,181.36 188.73,181.825 188.385,182.26 L193.965,182.26 L193.965,182.89 C193.335,183.775 192.69,184.51 192.045,185.11 L195.825,185.11 L195.825,189.655 L186.48,189.655 L186.48,192.715 C186.48,193.18 186.735,193.42 187.245,193.435 L194.715,193.435 C195.255,193.42 195.63,193.24 195.84,192.895 C196.02,192.595 196.155,191.92 196.245,190.87 L197.04,191.11 C196.95,192.1 196.8,192.82 196.605,193.255 C196.305,193.885 195.75,194.215 194.925,194.23 L186.975,194.23 C186.09,194.23 185.655,193.81 185.655,192.97 L185.655,185.11 L190.95,185.11 C191.64,184.51 192.3,183.805 192.915,183.01 L187.77,183.01 Z" id="txt4-3"></path>
                </g>
            </g>
        </g>
    </g>
</svg>