<?xml version="1.0" encoding="UTF-8"?>
<svg width="296px" height="48px" viewBox="0 0 296 48" version="1.1" xmlns="http://www.w3.org/2000/svg" xmlns:xlink="http://www.w3.org/1999/xlink">
    <!-- Generator: Sketch 45.2 (43514) - http://www.bohemiancoding.com/sketch -->
    <title>-g-txt5-1</title>
    <desc>Created with Sketch.</desc>
    <defs></defs>
    <g id="Page-1" stroke="none" stroke-width="1" fill="none" fill-rule="evenodd">
        <g id="新版" transform="translate(-156.000000, -4326.000000)" fill="#38393B">
            <g id="5" transform="translate(-1.000000, 4097.000000)">
                <g id="文字" transform="translate(155.000000, 229.000000)">
                    <path d="M2.65,16.8000015 L2.65,19.4000015 L16.35,19.4000015 C15.3,22.8500015 14.15,26.1500015 12.95,29.3500015 L38,29.3500015 C35.25,33.0500015 31.4,36.6000015 26.5,39.9500015 C22.85,38.6000015 19.05,37.3500015 15.1,36.2500015 L13.65,38.4000015 C21.65,40.6000015 29.5,43.6000015 37.15,47.4000015 L38.65,45.1000015 C35.7,43.6500015 32.6,42.3000015 29.35,41.0500015 C34.75,37.1500015 38.65,33.2000015 41.15,29.2000015 L41.15,26.8000015 L16.75,26.8000015 C17.6,24.5500015 18.45,22.1000015 19.25,19.4000015 L47.35,19.4000015 L47.35,16.8000015 L20,16.8000015 C20.6,14.6000015 21.15,12.2500015 21.75,9.75000153 L44.35,9.75000153 L44.35,7.20000153 L22.35,7.20000153 C22.75,5.30000153 23.15,3.30000153 23.55,1.15000153 L20.85,0.900001526 C20.45,3.00000153 20,5.10000153 19.55,7.20000153 L6.1,7.20000153 L6.1,9.75000153 L18.95,9.75000153 C18.35,12.1000015 17.75,14.4500015 17.1,16.8000015 L2.65,16.8000015 Z M53.05,14.9500015 L53.05,17.6000015 L63.45,17.6000015 C61.2,23.8000015 57.4,29.3000015 52,34.1500015 L53.25,37.2000015 C57.6,32.9000015 61,28.0500015 63.45,22.6500015 L63.45,46.8000015 L66.2,46.8000015 L66.2,23.2000015 C68.45,25.4500015 71.15,28.5500015 74.3,32.5000015 L75.85,30.1000015 C72.6,26.5000015 69.4,23.2500015 66.2,20.4000015 L66.2,17.6000015 L75.65,17.6000015 L75.65,14.9500015 L66.2,14.9500015 L66.2,6.55000153 C69.3,5.85000153 72.3,4.90000153 75.1,3.80000153 L73.75,1.55000153 C68,3.85000153 61.1,5.30000153 53.05,5.90000153 L53.95,8.40000153 C57.25,8.15000153 60.4,7.75000153 63.45,7.15000153 L63.45,14.9500015 L53.05,14.9500015 Z M80.35,5.85000153 L83.05,5.85000153 L83.05,36.9500015 L80.35,36.9500015 L80.35,5.85000153 Z M90.65,46.3000015 L83.35,46.3000015 L82.75,43.7000015 C85.15,43.8000015 87.5,43.9000015 89.7,43.9000015 C91.4,43.9000015 92.25,43.0000015 92.25,41.2000015 L92.25,1.35000153 L95,1.35000153 L95,41.9000015 C95,44.8000015 93.55,46.3000015 90.65,46.3000015 Z M105.05,2.45000153 C107.9,4.65000153 110.3,6.80000153 112.25,9.00000153 L110.45,10.8000015 C108.65,8.70000153 106.25,6.50000153 103.2,4.20000153 L105.05,2.45000153 Z M104.25,14.7000015 L102.45,16.5000015 C105.35,19.0000015 107.7,21.3500015 109.45,23.6000015 L111.25,21.8000015 C109.35,19.4000015 107.05,17.0500015 104.25,14.7000015 Z M109.4,28.0000015 C107.5,33.8000015 105.3,39.5500015 102.7,45.1500015 L105.15,46.2000015 C107.55,40.8000015 109.75,35.0000015 111.7,28.9000015 L109.4,28.0000015 Z M130.85,3.70000153 L130.85,33.9000015 L128.35,33.9000015 L128.35,6.05000153 L117.3,6.05000153 L117.3,34.2000015 L114.85,34.2000015 L114.85,3.70000153 L130.85,3.70000153 Z M125.45,36.4500015 C128.6,39.3000015 131.25,42.1500015 133.4,45.0000015 L131.55,46.8000015 C129.65,44.0500015 127.05,41.1500015 123.8,38.1000015 L125.45,36.4500015 Z M121.65,9.90000153 L124.05,9.90000153 L124.05,25.9000015 C123.95,31.5000015 123.1,36.0000015 121.4,39.4000015 C119.75,42.5000015 117.05,44.9500015 113.3,46.7500015 L111.85,44.5000015 C115.45,42.8000015 118.05,40.5000015 119.55,37.6000015 C120.9,34.6000015 121.6,30.7000015 121.65,25.9000015 L121.65,9.90000153 Z M142.05,46.4000015 L136.5,46.4000015 L135.95,43.9000015 C137.75,44.0000015 139.5,44.1000015 141.15,44.1000015 C142.35,44.1000015 143,43.3500015 143,41.9500015 L143,1.45000153 L145.55,1.45000153 L145.55,42.6000015 C145.55,45.1000015 144.35,46.4000015 142.05,46.4000015 Z M135.5,5.55000153 L137.95,5.55000153 L137.95,36.9500015 L135.5,36.9500015 L135.5,5.55000153 Z M172.8,9.70000153 L172.8,12.3000015 L182.6,12.3000015 L182.6,17.5500015 C182.6,19.4500015 182.45,21.3000015 182.2,23.1500015 L171.4,23.1500015 L171.4,25.7500015 L181.75,25.7500015 C180.2,33.0500015 176.45,39.4500015 170.55,44.9500015 L172.65,46.7000015 C178.25,41.4000015 181.95,35.2500015 183.85,28.2500015 C186.45,35.6500015 190.65,41.8500015 196.35,46.7500015 L198.1,44.7000015 C192.3,40.0000015 188.1,33.6500015 185.55,25.7500015 L197.05,25.7500015 L197.05,23.1500015 L184.85,23.1500015 C185.05,21.3500015 185.2,19.4500015 185.25,17.5500015 L185.25,12.3000015 L195.05,12.3000015 L195.05,9.70000153 L185.25,9.70000153 L185.25,1.35000153 L182.6,1.35000153 L182.6,9.70000153 L172.8,9.70000153 Z M168.8,3.45000153 L168.8,42.9000015 C168.8,45.4000015 167.5,46.6500015 164.95,46.6500015 L161.35,46.6500015 L160.7,44.2000015 C161.9,44.2500015 163.05,44.3000015 164.15,44.3000015 C165.55,44.3000015 166.3,43.5000015 166.3,42.0000015 L166.3,29.2500015 C163.8,30.0000015 161.05,30.6500015 158.15,31.1500015 C157.85,37.5000015 156.75,42.7500015 154.95,46.9000015 L152.9,45.0500015 C154.75,40.3500015 155.7,34.4000015 155.75,27.2000015 L155.75,3.45000153 L168.8,3.45000153 Z M158.25,28.6000015 C161.2,28.1000015 163.9,27.5000015 166.3,26.7500015 L166.3,19.4500015 C163.7,18.5500015 161,17.8000015 158.3,17.3000015 L158.3,27.0500015 C158.3,27.5500015 158.25,28.1000015 158.25,28.6000015 Z M158.3,14.8500015 C161.1,15.4000015 163.75,16.1000015 166.3,17.0000015 L166.3,6.00000153 L158.3,6.00000153 L158.3,14.8500015 Z M209.15,12.5500015 L241.4,12.5500015 L241.4,31.7000015 L235.35,31.7000015 L235.35,35.6500015 L247.1,35.6500015 L247.1,38.0500015 L235.35,38.0500015 L235.35,46.9000015 L232.7,46.9000015 L232.7,38.0500015 L217.8,38.0500015 C217.3,39.6500015 216.6,41.0000015 215.65,42.1500015 C213.95,44.0500015 211.25,45.5500015 207.45,46.6500015 L206,44.4500015 C209.5,43.5000015 212.05,42.2000015 213.55,40.5500015 C214.15,39.7500015 214.6,38.9500015 214.9,38.0500015 L202.9,38.0500015 L202.9,35.6500015 L215.5,35.6500015 C215.6,35.0500015 215.65,34.4500015 215.65,33.9500015 L215.65,31.7000015 L209.15,31.7000015 L209.15,12.5500015 Z M218.35,31.7000015 L218.35,33.9500015 C218.35,34.5500015 218.3,35.1000015 218.25,35.6500015 L232.7,35.6500015 L232.7,31.7000015 L218.35,31.7000015 Z M238.75,29.5000015 L238.75,25.7500015 L211.85,25.7500015 L211.85,29.5000015 L238.75,29.5000015 Z M211.85,23.7500015 L238.75,23.7500015 L238.75,20.3500015 L211.85,20.3500015 L211.85,23.7500015 Z M211.85,18.3000015 L238.75,18.3000015 L238.75,14.7500015 L211.85,14.7500015 L211.85,18.3000015 Z M210.05,7.05000153 C208.8,9.15000153 207.35,11.1000015 205.7,12.9000015 L203.45,11.4500015 C206.45,8.35000153 208.7,4.80000153 210.15,0.850001526 L212.7,1.40000153 C212.3,2.50000153 211.8,3.60000153 211.3,4.65000153 L224.35,4.65000153 L224.35,7.05000153 L217.1,7.05000153 C218.1,8.35000153 218.9,9.55000153 219.5,10.6500015 L217.2,11.5000015 C216.4,9.95000153 215.4,8.45000153 214.3,7.05000153 L210.05,7.05000153 Z M230.6,6.95000153 L234.75,6.95000153 C235.95,8.45000153 237.05,9.95000153 237.95,11.5500015 L240.2,10.7000015 C239.55,9.55000153 238.7,8.30000153 237.65,6.95000153 L246.7,6.95000153 L246.7,4.55000153 L231.8,4.55000153 C232.2,3.55000153 232.6,2.55000153 233,1.50000153 L230.4,0.950001526 C229.2,4.45000153 227.35,7.65000153 224.85,10.4500015 L227.1,11.9000015 C228.4,10.4000015 229.6,8.75000153 230.6,6.95000153 Z M279.6,1.10000153 L279.6,9.55000153 L267.35,9.55000153 L267.35,12.2000015 L279.6,12.2000015 L279.6,22.3500015 L264.95,22.3500015 L264.95,25.0500015 L277.5,25.0500015 C273.45,34.5500015 270.2,40.3500015 267.7,42.5000015 C267.55,42.5500015 267.35,42.6000015 267.1,42.7000015 L267.7,45.1000015 C276.65,44.3000015 284.95,43.1500015 292.55,41.7500015 C293.25,43.3500015 294,45.1000015 294.7,46.9500015 L297.25,45.8000015 C294.95,40.0500015 292.3,34.6500015 289.25,29.6000015 L286.6,30.4500015 C288.25,33.1000015 289.85,36.0500015 291.4,39.3000015 C284.75,40.6500015 278.05,41.6500015 271.25,42.2500015 C273.85,39.1000015 276.85,33.3500015 280.35,25.0500015 L296.85,25.0500015 L296.85,22.3500015 L282.3,22.3500015 L282.3,12.2000015 L295.55,12.2000015 L295.55,9.55000153 L282.3,9.55000153 L282.3,1.10000153 L279.6,1.10000153 Z M256.1,2.15000153 L254.15,4.05000153 C257.6,6.65000153 260.35,9.15000153 262.4,11.5000015 L264.3,9.60000153 C262.1,7.10000153 259.35,4.65000153 256.1,2.15000153 Z M254.9,13.8500015 L252.95,15.7000015 C256.15,18.3500015 258.65,20.8500015 260.5,23.2500015 L262.4,21.3000015 C260.4,18.8000015 257.9,16.3500015 254.9,13.8500015 Z M261.3,27.5000015 C259.2,33.6000015 256.75,39.5000015 253.85,45.2500015 L256.5,46.4500015 C259.15,40.8500015 261.55,34.8500015 263.75,28.5000015 L261.3,27.5000015 Z" id="-g-txt5-1"></path>
                </g>
            </g>
        </g>
    </g>
</svg>