<?xml version="1.0" encoding="UTF-8"?>
<svg width="380px" height="40px" viewBox="0 0 380 40" version="1.1" xmlns="http://www.w3.org/2000/svg" xmlns:xlink="http://www.w3.org/1999/xlink">
    <!-- Generator: Sketch 45.2 (43514) - http://www.bohemiancoding.com/sketch -->
    <title>-g-txt5-3</title>
    <desc>Created with Sketch.</desc>
    <defs></defs>
    <g id="Page-1" stroke="none" stroke-width="1" fill="none" fill-rule="evenodd">
        <g id="新版" transform="translate(-154.000000, -4442.000000)" fill="#777777">
            <g id="5" transform="translate(-1.000000, 4097.000000)">
                <g id="文字" transform="translate(155.000000, 229.000000)">
                    <path d="M1.635,117.405 C2.715,118.17 3.615,118.935 4.335,119.715 L3.78,120.27 C3.12,119.535 2.22,118.755 1.08,117.93 L1.635,117.405 Z M1.365,121.08 C2.37,121.815 3.21,122.55 3.885,123.3 L3.33,123.855 C2.715,123.15 1.875,122.4 0.81,121.605 L1.365,121.08 Z M3.33,125.07 L4.035,125.355 C3.345,127.245 2.58,129.03 1.74,130.68 L0.975,130.35 C1.875,128.64 2.67,126.87 3.33,125.07 Z M7.23,120.075 L9.45,120.075 C9.66,119.565 9.825,119.025 9.915,118.47 L5.985,118.47 L5.985,123.18 C5.925,126.3 5.37,128.82 4.29,130.71 L3.675,130.17 C4.65,128.49 5.16,126.15 5.205,123.18 L5.205,117.735 L14.07,117.735 L14.07,118.47 L10.68,118.47 C10.56,119.025 10.41,119.565 10.2,120.075 L13.245,120.075 L13.245,125.175 L10.665,125.175 L10.665,129.615 C10.665,130.335 10.305,130.695 9.615,130.695 L8.355,130.695 L8.19,129.945 C8.58,129.975 8.97,130.005 9.345,130.005 C9.705,130.005 9.9,129.81 9.9,129.435 L9.9,125.175 L7.23,125.175 L7.23,120.075 Z M12.51,124.5 L12.51,122.955 L7.965,122.955 L7.965,124.5 L12.51,124.5 Z M7.965,122.31 L12.51,122.31 L12.51,120.735 L7.965,120.735 L7.965,122.31 Z M7.71,126.36 L8.46,126.51 C8.07,127.845 7.5,129 6.765,129.96 L6.105,129.54 C6.825,128.61 7.365,127.545 7.71,126.36 Z M12.555,126.3 C13.2,127.35 13.755,128.46 14.235,129.645 L13.545,129.945 C13.035,128.655 12.465,127.515 11.865,126.525 L12.555,126.3 Z M27.45,118.905 L27.45,130.725 L26.64,130.725 L26.64,129.705 L18.36,129.705 L18.36,130.725 L17.55,130.725 L17.55,118.905 L20.715,118.905 C21.075,118.29 21.345,117.66 21.51,117 L22.335,117.12 C22.155,117.75 21.9,118.35 21.57,118.905 L27.45,118.905 Z M18.36,128.925 L26.64,128.925 L26.64,126.24 L18.36,126.24 L18.36,128.925 Z M18.36,125.46 L26.64,125.46 L26.64,122.955 L18.36,122.955 L18.36,125.46 Z M18.36,122.175 L26.64,122.175 L26.64,119.685 L18.36,119.685 L18.36,122.175 Z M35.55,122.4 L35.55,130.05 L34.785,130.05 L34.785,129.18 L33.045,129.18 L33.045,130.23 L32.265,130.23 L32.265,123.54 C31.905,124.35 31.47,125.1 30.99,125.79 L30.525,125.055 C31.71,123.24 32.49,121.14 32.865,118.77 L31.08,118.77 L31.08,117.99 L36,117.99 L36,118.77 L33.645,118.77 C33.435,120.075 33.135,121.29 32.73,122.4 L35.55,122.4 Z M33.045,128.43 L34.785,128.43 L34.785,123.15 L33.045,123.15 L33.045,128.43 Z M36.96,118.89 L36.96,119.685 L39.81,119.685 L39.81,122.19 L36.36,122.19 L36.36,123 L44.1,123 L44.1,122.19 L40.605,122.19 L40.605,119.685 L43.515,119.685 L43.515,118.89 L40.605,118.89 L40.605,117.045 L39.81,117.045 L39.81,118.89 L36.96,118.89 Z M36.87,125.685 L36.87,126.48 L39.81,126.48 L39.81,129.465 L36.165,129.465 L36.165,130.245 L44.28,130.245 L44.28,129.465 L40.605,129.465 L40.605,126.48 L43.59,126.48 L43.59,125.685 L40.605,125.685 L40.605,123.87 L39.81,123.87 L39.81,125.685 L36.87,125.685 Z M56.76,124.71 L56.76,130.68 L55.95,130.68 L55.95,129.93 L49.065,129.93 L49.065,130.68 L48.255,130.68 L48.255,124.71 L56.76,124.71 Z M49.065,129.165 L55.95,129.165 L55.95,125.475 L49.065,125.475 L49.065,129.165 Z M54.09,117.345 C55.86,118.5 57.345,119.655 58.545,120.81 L57.96,121.38 C56.88,120.27 55.395,119.1 53.535,117.87 L54.09,117.345 Z M50.61,117.345 L51.195,117.885 C49.995,119.145 48.525,120.255 46.77,121.2 L46.26,120.555 C47.985,119.64 49.44,118.575 50.61,117.345 Z M52.275,120.15 L52.755,120.15 C54.015,121.8 56.19,123.24 59.265,124.5 L58.815,125.175 C55.995,124.035 53.895,122.625 52.515,120.96 C50.835,122.79 48.72,124.185 46.17,125.175 L45.72,124.5 C48.555,123.375 50.745,121.92 52.275,120.15 Z M65.94,119.73 L65.94,129.81 L65.16,129.81 L65.16,128.895 L62.13,128.895 L62.13,130.23 L61.35,130.23 L61.35,119.73 L62.7,119.73 C63.015,118.875 63.24,117.975 63.375,117.045 L64.2,117.15 C64.035,118.08 63.795,118.935 63.48,119.73 L65.94,119.73 Z M62.13,128.145 L65.16,128.145 L65.16,124.59 L62.13,124.59 L62.13,128.145 Z M62.13,123.855 L65.16,123.855 L65.16,120.51 L62.13,120.51 L62.13,123.855 Z M68.49,123.12 C69.63,124.38 70.5,125.475 71.1,126.42 L70.455,126.885 C69.825,125.865 68.94,124.755 67.83,123.54 L68.49,123.12 Z M73.71,119.745 C73.71,124.59 73.635,127.59 73.5,128.73 C73.35,129.93 72.66,130.53 71.415,130.53 C71.13,130.53 70.635,130.515 69.945,130.5 L69.75,129.75 C70.35,129.78 70.875,129.795 71.325,129.795 C72.135,129.795 72.6,129.345 72.72,128.46 C72.84,127.56 72.9,124.92 72.93,120.555 L68.505,120.555 C68.085,121.53 67.59,122.4 66.99,123.18 L66.51,122.55 C67.59,121.05 68.325,119.205 68.715,117.03 L69.51,117.12 C69.33,118.05 69.105,118.935 68.82,119.745 L73.71,119.745 Z M75.915,122.94 L89.115,122.94 L89.115,123.66 L82.275,123.66 L82.275,130.77 L81.465,130.77 L81.465,129.3 C80.085,129.57 78.285,129.78 76.065,129.93 L75.96,129.21 L77.385,129.12 L77.385,123.66 L75.915,123.66 L75.915,122.94 Z M78.165,129.06 C79.41,128.94 80.505,128.805 81.465,128.625 L81.465,127.515 L78.165,127.515 L78.165,129.06 Z M78.165,126.885 L81.465,126.885 L81.465,125.58 L78.165,125.58 L78.165,126.885 Z M78.165,124.95 L81.465,124.95 L81.465,123.66 L78.165,123.66 L78.165,124.95 Z M83.64,125.52 L83.19,125.52 L83.19,124.8 L88.185,124.8 L88.185,125.475 C87.855,126.675 87.285,127.695 86.49,128.55 C87.21,129.135 88.095,129.645 89.145,130.095 L88.725,130.755 C87.615,130.245 86.7,129.69 85.965,129.06 C85.2,129.72 84.285,130.275 83.205,130.725 L82.785,130.095 C83.835,129.66 84.705,129.135 85.41,128.535 C84.54,127.635 83.94,126.63 83.64,125.52 Z M85.92,128.04 C86.61,127.305 87.12,126.465 87.435,125.52 L84.375,125.52 C84.66,126.465 85.17,127.305 85.92,128.04 Z M87.15,117.66 L87.15,122.025 L86.34,122.025 L86.34,118.305 L78.72,118.305 L78.72,122.07 L77.925,122.07 L77.925,117.66 L87.15,117.66 Z M79.395,119.475 L85.665,119.475 L85.665,120.06 L79.395,120.06 L79.395,119.475 Z M79.365,121.095 L85.695,121.095 L85.695,121.695 L79.365,121.695 L79.365,121.095 Z M93.51,125.505 L90.87,125.505 L90.87,124.755 L93.66,124.755 L93.66,122.985 L91.125,122.985 L91.125,122.235 L92.475,122.235 C92.265,121.515 91.995,120.84 91.665,120.21 L92.37,119.94 C92.685,120.57 92.97,121.335 93.21,122.235 L94.875,122.235 C95.205,121.5 95.505,120.72 95.745,119.88 L96.48,120.15 C96.225,120.93 95.94,121.635 95.625,122.235 L96.96,122.235 L96.96,122.985 L94.425,122.985 L94.425,124.755 L97.245,124.755 L97.245,125.505 L94.425,125.505 L94.425,126.285 C95.235,126.795 96.075,127.395 96.945,128.07 L96.495,128.715 C95.685,127.98 94.995,127.395 94.425,126.975 L94.425,130.71 L93.66,130.71 L93.66,126.405 C93.06,127.56 92.235,128.595 91.17,129.51 L90.72,128.865 C92.01,127.875 92.94,126.765 93.51,125.505 Z M103.455,117.285 L103.845,118.005 C102.465,118.515 100.905,118.83 99.195,118.92 L99.195,121.905 L104.37,121.905 L104.37,122.67 L102.615,122.67 L102.615,130.71 L101.82,130.71 L101.82,122.67 L99.195,122.67 L99.195,124.695 C99.12,127.185 98.595,129.165 97.605,130.65 L97.005,130.035 C97.86,128.745 98.325,126.975 98.385,124.695 L98.385,118.245 C100.245,118.2 101.94,117.885 103.455,117.285 Z M90.93,118.65 L93.735,118.65 C93.555,118.11 93.36,117.615 93.15,117.165 L93.96,117.015 C94.155,117.495 94.35,118.035 94.53,118.65 L97.155,118.65 L97.155,119.43 L90.93,119.43 L90.93,118.65 Z M112.92,117.075 L112.095,117.075 C112.095,117.645 112.08,118.455 112.08,119.505 C111.93,123.825 109.77,127.275 105.585,129.885 L106.08,130.605 C109.56,128.37 111.705,125.55 112.53,122.145 C113.52,125.685 115.635,128.505 118.86,130.59 L119.4,129.9 C115.86,127.71 113.655,124.53 112.815,120.36 C112.875,119.445 112.92,118.35 112.92,117.075 Z M127.11,119.055 L127.11,128.835 L120.81,128.835 L120.81,129.63 L134.205,129.63 L134.205,128.835 L127.92,128.835 L127.92,119.055 L133.2,119.055 L133.2,118.275 L121.845,118.275 L121.845,119.055 L127.11,119.055 Z M137.73,118.965 C137.37,119.565 136.965,120.06 136.515,120.48 L136.005,119.88 C136.755,119.19 137.37,118.215 137.82,116.955 L138.57,117.12 C138.42,117.51 138.27,117.885 138.105,118.245 L142.56,118.245 L142.56,118.965 L140.22,118.965 C140.19,119.58 140.13,120.15 140.04,120.66 L142.965,120.66 L142.965,121.41 L139.875,121.41 C139.815,121.605 139.77,121.785 139.71,121.965 C140.88,122.565 141.855,123.18 142.65,123.78 L142.065,124.365 C141.405,123.795 140.535,123.195 139.455,122.565 C138.87,123.66 137.805,124.575 136.26,125.295 L135.72,124.635 C137.28,123.945 138.33,123.06 138.84,121.98 C138.915,121.785 138.99,121.59 139.05,121.41 L135.885,121.41 L135.885,120.66 L139.245,120.66 C139.35,120.12 139.41,119.565 139.425,118.965 L137.73,118.965 Z M143.715,118.095 L148.44,118.095 L148.44,123.45 L143.715,123.45 L143.715,118.095 Z M147.63,122.715 L147.63,118.83 L144.51,118.83 L144.51,122.715 L147.63,122.715 Z M147.375,124.695 L147.375,130.77 L146.55,130.77 L146.55,130.02 L138.855,130.02 L138.855,130.77 L138.045,130.77 L138.045,124.695 L147.375,124.695 Z M138.855,129.285 L146.55,129.285 L146.55,127.755 L138.855,127.755 L138.855,129.285 Z M138.855,127.035 L146.55,127.035 L146.55,125.445 L138.855,125.445 L138.855,127.035 Z M158.745,117.18 L158.745,122.4 C158.745,123.15 159.135,123.54 159.93,123.54 L163.92,123.54 L163.92,122.775 L160.125,122.775 C159.735,122.775 159.54,122.595 159.54,122.25 L159.54,119.94 L163.62,119.67 L163.62,118.92 L159.54,119.19 L159.54,117.18 L158.745,117.18 Z M155.985,118.2 L155.34,118.605 C155.745,119.145 156.12,119.685 156.465,120.225 C154.905,120.45 153.42,120.6 152.025,120.675 C152.895,119.895 153.72,118.77 154.485,117.3 L153.705,117.06 C153.015,118.44 152.19,119.58 151.23,120.495 C151.125,120.6 150.99,120.675 150.84,120.72 L151.08,121.41 C153.33,121.275 155.25,121.08 156.84,120.825 C157.05,121.185 157.26,121.53 157.44,121.875 L158.085,121.41 C157.605,120.51 156.9,119.43 155.985,118.2 Z M162.54,130.5 C163.05,130.5 163.425,130.395 163.65,130.185 C163.92,129.9 164.115,129.165 164.205,127.98 L163.455,127.74 C163.395,128.73 163.275,129.33 163.095,129.54 C162.96,129.69 162.72,129.78 162.375,129.78 L160.17,129.78 C159.735,129.78 159.525,129.6 159.525,129.27 L159.525,126.615 L163.785,126.345 L163.785,125.595 L159.525,125.85 L159.525,124.23 L158.73,124.23 L158.73,129.45 C158.73,130.14 159.12,130.5 159.93,130.5 L162.54,130.5 Z M156.045,130.59 L154.5,130.59 L154.32,129.87 L155.805,129.9 C156.12,129.9 156.285,129.735 156.285,129.405 L156.285,127.83 L152.52,127.83 L152.52,130.665 L151.74,130.665 L151.74,122.445 L157.05,122.445 L157.05,129.585 C157.05,130.245 156.705,130.59 156.045,130.59 Z M152.52,127.14 L156.285,127.14 L156.285,125.535 L152.52,125.535 L152.52,127.14 Z M152.52,124.83 L156.285,124.83 L156.285,123.18 L152.52,123.18 L152.52,124.83 Z M170.565,117.39 L171.255,117.81 C170.565,119.07 169.86,120.105 169.14,120.915 C168.345,121.815 167.34,122.655 166.14,123.465 L165.69,122.745 C166.77,122.115 167.715,121.335 168.525,120.39 C169.275,119.535 169.965,118.53 170.565,117.39 Z M171.09,123.9 L167.895,123.9 L167.895,123.105 L176.745,123.105 C176.7,124.935 176.61,126.42 176.475,127.56 C176.325,128.67 176.085,129.465 175.755,129.915 C175.425,130.35 174.885,130.59 174.135,130.62 L171.48,130.62 L171.27,129.825 C172.14,129.84 172.95,129.855 173.73,129.855 C174.57,129.855 175.125,129.48 175.395,128.76 C175.665,127.995 175.845,126.375 175.935,123.9 L171.885,123.9 C171.525,125.595 171.03,126.93 170.37,127.92 C169.605,128.97 168.465,129.93 166.935,130.77 L166.425,130.11 C167.835,129.345 168.885,128.505 169.605,127.59 C170.265,126.66 170.76,125.43 171.09,123.9 Z M174.525,117.18 C175.425,119.55 177,121.41 179.25,122.76 L178.71,123.405 C176.37,121.92 174.735,119.97 173.82,117.57 L174.525,117.18 Z M184.005,122.595 L184.005,130.695 L183.195,130.695 L183.195,122.61 C182.655,124.29 181.92,125.79 180.99,127.11 L180.645,126.24 C181.845,124.665 182.685,122.88 183.165,120.87 L180.93,120.87 L180.93,120.075 L183.195,120.075 L183.195,117.045 L184.005,117.045 L184.005,120.075 L186.135,120.075 L186.135,120.87 L184.005,120.87 L184.005,121.74 C184.755,122.52 185.505,123.42 186.255,124.41 L185.805,125.07 C185.115,124.05 184.515,123.225 184.005,122.595 Z M193.35,117.135 L193.755,117.87 C192.03,118.515 190.095,118.89 187.95,118.98 L187.95,121.935 L194.145,121.935 L194.145,122.73 L191.805,122.73 L191.805,130.71 L190.98,130.71 L190.98,122.73 L187.95,122.73 L187.95,123.03 C187.86,126.21 187.11,128.73 185.7,130.62 L185.115,130.005 C186.375,128.325 187.065,126 187.17,123.03 L187.17,118.29 C189.45,118.23 191.505,117.855 193.35,117.135 Z M213.585,119.385 L213.585,130.5 L212.775,130.5 L212.775,129.465 L209.61,129.465 L209.61,130.5 L208.83,130.5 L208.83,119.385 L213.585,119.385 Z M209.61,128.685 L212.775,128.685 L212.775,120.15 L209.61,120.15 L209.61,128.685 Z M203.37,117.09 L203.37,120.21 L200.865,120.21 L200.865,121.02 L203.37,121.02 L203.37,121.05 C203.34,125.265 202.41,128.325 200.595,130.23 L201.21,130.785 C203.145,128.73 204.135,125.49 204.18,121.05 L204.18,121.02 L206.49,121.02 C206.46,125.07 206.4,127.515 206.295,128.355 C206.16,129.345 205.65,129.84 204.78,129.84 C204.42,129.84 204.015,129.825 203.55,129.795 L203.745,130.53 C204.27,130.56 204.645,130.575 204.87,130.575 C206.19,130.575 206.91,129.915 207.06,128.625 C207.21,127.545 207.285,124.74 207.285,120.21 L204.18,120.21 L204.18,117.09 L203.37,117.09 Z M224.655,120.225 C224.205,121.785 223.635,123.075 222.915,124.095 L222.405,123.495 C223.455,121.89 224.16,119.73 224.52,117 L225.315,117.15 C225.195,117.96 225.045,118.71 224.865,119.43 L229.23,119.43 L229.23,120.225 L228.06,120.225 C228,122.85 227.505,125.085 226.575,126.915 C227.355,128.13 228.3,129.21 229.395,130.155 L228.87,130.755 C227.805,129.84 226.89,128.82 226.14,127.695 C225.39,128.91 224.445,129.93 223.29,130.77 L222.87,130.095 C224.04,129.27 224.985,128.235 225.69,126.99 C224.94,125.745 224.355,124.38 223.935,122.91 L224.58,122.535 C224.97,123.84 225.48,125.04 226.11,126.15 C226.86,124.5 227.25,122.52 227.31,120.225 L224.655,120.225 Z M218.625,123.93 L219.405,124.02 C219.27,124.38 219.135,124.725 218.985,125.055 L222.3,125.055 L222.3,125.715 C221.925,126.765 221.31,127.665 220.47,128.415 C221.25,128.775 222.015,129.165 222.765,129.585 L222.315,130.23 C221.58,129.795 220.755,129.36 219.84,128.925 C218.82,129.66 217.545,130.245 216.015,130.695 L215.625,130.02 C217.005,129.645 218.145,129.165 219.06,128.565 C218.355,128.25 217.605,127.935 216.795,127.62 C217.2,126.96 217.545,126.345 217.845,125.76 L215.955,125.76 L215.955,125.055 L218.175,125.055 C218.355,124.665 218.505,124.29 218.625,123.93 Z M219.72,128.085 C220.56,127.41 221.16,126.63 221.55,125.76 L218.67,125.76 C218.4,126.3 218.1,126.81 217.785,127.29 C218.445,127.53 219.09,127.8 219.72,128.085 Z M217.095,117.255 C217.47,117.825 217.8,118.44 218.085,119.1 L217.47,119.385 C217.14,118.665 216.795,118.02 216.435,117.465 L217.095,117.255 Z M221.865,117.21 L222.48,117.495 C222.18,118.155 221.775,118.785 221.295,119.4 L220.695,119.085 C221.175,118.455 221.565,117.825 221.865,117.21 Z M216.045,120 L219.06,120 L219.06,117.075 L219.84,117.075 L219.84,120 L222.615,120 L222.615,120.735 L219.84,120.735 L219.84,121.11 C220.65,121.59 221.475,122.13 222.285,122.745 L221.88,123.375 C221.085,122.685 220.41,122.13 219.84,121.74 L219.84,123.69 L219.06,123.69 L219.06,121.155 C218.46,122.19 217.455,123.105 216.075,123.885 L215.67,123.225 C217.14,122.49 218.145,121.665 218.655,120.735 L216.045,120.735 L216.045,120 Z M230.97,118.155 L230.97,118.95 L235.44,118.95 L235.44,119.58 C235.41,122.265 235.08,124.455 234.42,126.135 C233.685,127.785 232.47,129.075 230.76,130.005 L231.225,130.725 C232.98,129.765 234.24,128.46 235.005,126.795 C235.455,125.775 235.77,124.575 235.98,123.18 L241.695,123.18 C241.65,126.15 241.53,127.98 241.335,128.685 C241.14,129.39 240.66,129.75 239.895,129.78 C239.385,129.765 238.725,129.75 237.93,129.72 L238.155,130.5 C238.905,130.515 239.55,130.53 240.09,130.53 C240.975,130.53 241.59,130.14 241.95,129.39 C242.31,128.61 242.49,126.285 242.52,122.4 L236.085,122.4 C236.175,121.53 236.235,120.585 236.25,119.58 L236.25,118.95 L244.02,118.95 L244.02,118.155 L230.97,118.155 Z M252.135,120.21 C251.67,121.605 251.04,122.76 250.26,123.66 L249.57,123.165 C250.845,121.695 251.655,119.64 252.015,117.015 L252.825,117.15 C252.705,117.96 252.555,118.71 252.375,119.415 L258.735,119.415 L258.735,119.955 C258.435,121.245 258.015,122.505 257.49,123.735 L256.695,123.51 C257.175,122.52 257.565,121.425 257.865,120.21 L252.135,120.21 Z M253.905,121.32 L254.715,121.32 C254.715,122.145 254.67,122.91 254.58,123.63 C255.51,126.375 257.115,128.535 259.395,130.11 L258.855,130.71 C256.815,129.18 255.315,127.275 254.355,124.98 C254.235,125.46 254.115,125.91 253.965,126.33 C253.29,128.13 251.79,129.615 249.465,130.755 L248.94,130.095 C251.025,129.105 252.42,127.83 253.125,126.27 C253.635,124.95 253.905,123.3 253.905,121.32 Z M246.465,117.75 L245.805,118.155 C246.99,119.28 247.92,120.315 248.61,121.245 L249.255,120.795 C248.61,119.925 247.68,118.905 246.465,117.75 Z M248.61,124.155 L249.315,124.44 C248.445,126.495 247.485,128.43 246.405,130.23 L245.655,129.9 C246.795,128.04 247.77,126.12 248.61,124.155 Z M267.135,120.21 C266.67,121.605 266.04,122.76 265.26,123.66 L264.57,123.165 C265.845,121.695 266.655,119.64 267.015,117.015 L267.825,117.15 C267.705,117.96 267.555,118.71 267.375,119.415 L273.735,119.415 L273.735,119.955 C273.435,121.245 273.015,122.505 272.49,123.735 L271.695,123.51 C272.175,122.52 272.565,121.425 272.865,120.21 L267.135,120.21 Z M268.905,121.32 L269.715,121.32 C269.715,122.145 269.67,122.91 269.58,123.63 C270.51,126.375 272.115,128.535 274.395,130.11 L273.855,130.71 C271.815,129.18 270.315,127.275 269.355,124.98 C269.235,125.46 269.115,125.91 268.965,126.33 C268.29,128.13 266.79,129.615 264.465,130.755 L263.94,130.095 C266.025,129.105 267.42,127.83 268.125,126.27 C268.635,124.95 268.905,123.3 268.905,121.32 Z M261.465,117.75 L260.805,118.155 C261.99,119.28 262.92,120.315 263.61,121.245 L264.255,120.795 C263.61,119.925 262.68,118.905 261.465,117.75 Z M263.61,124.155 L264.315,124.44 C263.445,126.495 262.485,128.43 261.405,130.23 L260.655,129.9 C261.795,128.04 262.77,126.12 263.61,124.155 Z M276.51,117.435 C277.365,118.095 278.085,118.74 278.67,119.4 L278.13,119.94 C277.59,119.31 276.87,118.65 275.955,117.96 L276.51,117.435 Z M276.27,121.11 L275.73,121.65 C276.6,122.4 277.305,123.105 277.83,123.78 L278.37,123.24 C277.8,122.52 277.11,121.815 276.27,121.11 Z M277.815,125.1 C277.245,126.84 276.585,128.565 275.805,130.245 L276.54,130.56 C277.26,128.94 277.92,127.2 278.505,125.37 L277.815,125.1 Z M284.25,117.81 L284.25,126.87 L283.5,126.87 L283.5,118.515 L280.185,118.515 L280.185,126.96 L279.45,126.96 L279.45,117.81 L284.25,117.81 Z M282.63,127.635 C283.575,128.49 284.37,129.345 285.015,130.2 L284.46,130.74 C283.89,129.915 283.11,129.045 282.135,128.13 L282.63,127.635 Z M281.49,119.67 L282.21,119.67 L282.21,124.47 C282.18,126.15 281.925,127.5 281.415,128.52 C280.92,129.45 280.11,130.185 278.985,130.725 L278.55,130.05 C279.63,129.54 280.41,128.85 280.86,127.98 C281.265,127.08 281.475,125.91 281.49,124.47 L281.49,119.67 Z M287.61,130.62 L285.945,130.62 L285.78,129.87 C286.32,129.9 286.845,129.93 287.34,129.93 C287.7,129.93 287.895,129.705 287.895,129.285 L287.895,117.135 L288.66,117.135 L288.66,129.48 C288.66,130.23 288.3,130.62 287.61,130.62 Z M285.645,118.365 L286.38,118.365 L286.38,127.785 L285.645,127.785 L285.645,118.365 Z M296.835,119.61 L296.835,120.39 L299.775,120.39 L299.775,121.965 C299.775,122.535 299.73,123.09 299.655,123.645 L296.415,123.645 L296.415,124.425 L299.52,124.425 C299.055,126.615 297.93,128.535 296.16,130.185 L296.79,130.71 C298.47,129.12 299.58,127.275 300.15,125.175 C300.93,127.395 302.19,129.255 303.9,130.725 L304.425,130.11 C302.685,128.7 301.425,126.795 300.66,124.425 L304.11,124.425 L304.11,123.645 L300.45,123.645 C300.51,123.105 300.555,122.535 300.57,121.965 L300.57,120.39 L303.51,120.39 L303.51,119.61 L300.57,119.61 L300.57,117.105 L299.775,117.105 L299.775,119.61 L296.835,119.61 Z M295.635,117.735 L295.635,129.57 C295.635,130.32 295.245,130.695 294.48,130.695 L293.4,130.695 L293.205,129.96 C293.565,129.975 293.91,129.99 294.24,129.99 C294.66,129.99 294.885,129.75 294.885,129.3 L294.885,125.475 C294.135,125.7 293.31,125.895 292.44,126.045 C292.35,127.95 292.02,129.525 291.48,130.77 L290.865,130.215 C291.42,128.805 291.705,127.02 291.72,124.86 L291.72,117.735 L295.635,117.735 Z M292.47,125.28 C293.355,125.13 294.165,124.95 294.885,124.725 L294.885,122.535 C294.105,122.265 293.295,122.04 292.485,121.89 L292.485,124.815 C292.485,124.965 292.47,125.13 292.47,125.28 Z M292.485,121.155 C293.325,121.32 294.12,121.53 294.885,121.8 L294.885,118.5 L292.485,118.5 L292.485,121.155 Z M305.955,121.08 L305.955,121.89 L311.73,121.89 C310.965,125.73 308.94,128.46 305.655,130.08 L306.165,130.755 C309.495,129.03 311.58,126.24 312.435,122.37 C313.53,125.97 315.66,128.745 318.81,130.665 L319.305,130.005 C316.155,128.115 314.07,125.415 313.02,121.89 L319.035,121.89 L319.035,121.08 L312.675,121.08 C312.825,120.135 312.9,119.115 312.9,118.035 L312.9,117.075 L312.09,117.075 L312.09,118.215 C312.075,119.205 312,120.165 311.865,121.08 L305.955,121.08 Z M329.655,120.225 C329.205,121.785 328.635,123.075 327.915,124.095 L327.405,123.495 C328.455,121.89 329.16,119.73 329.52,117 L330.315,117.15 C330.195,117.96 330.045,118.71 329.865,119.43 L334.23,119.43 L334.23,120.225 L333.06,120.225 C333,122.85 332.505,125.085 331.575,126.915 C332.355,128.13 333.3,129.21 334.395,130.155 L333.87,130.755 C332.805,129.84 331.89,128.82 331.14,127.695 C330.39,128.91 329.445,129.93 328.29,130.77 L327.87,130.095 C329.04,129.27 329.985,128.235 330.69,126.99 C329.94,125.745 329.355,124.38 328.935,122.91 L329.58,122.535 C329.97,123.84 330.48,125.04 331.11,126.15 C331.86,124.5 332.25,122.52 332.31,120.225 L329.655,120.225 Z M323.625,123.93 L324.405,124.02 C324.27,124.38 324.135,124.725 323.985,125.055 L327.3,125.055 L327.3,125.715 C326.925,126.765 326.31,127.665 325.47,128.415 C326.25,128.775 327.015,129.165 327.765,129.585 L327.315,130.23 C326.58,129.795 325.755,129.36 324.84,128.925 C323.82,129.66 322.545,130.245 321.015,130.695 L320.625,130.02 C322.005,129.645 323.145,129.165 324.06,128.565 C323.355,128.25 322.605,127.935 321.795,127.62 C322.2,126.96 322.545,126.345 322.845,125.76 L320.955,125.76 L320.955,125.055 L323.175,125.055 C323.355,124.665 323.505,124.29 323.625,123.93 Z M324.72,128.085 C325.56,127.41 326.16,126.63 326.55,125.76 L323.67,125.76 C323.4,126.3 323.1,126.81 322.785,127.29 C323.445,127.53 324.09,127.8 324.72,128.085 Z M322.095,117.255 C322.47,117.825 322.8,118.44 323.085,119.1 L322.47,119.385 C322.14,118.665 321.795,118.02 321.435,117.465 L322.095,117.255 Z M326.865,117.21 L327.48,117.495 C327.18,118.155 326.775,118.785 326.295,119.4 L325.695,119.085 C326.175,118.455 326.565,117.825 326.865,117.21 Z M321.045,120 L324.06,120 L324.06,117.075 L324.84,117.075 L324.84,120 L327.615,120 L327.615,120.735 L324.84,120.735 L324.84,121.11 C325.65,121.59 326.475,122.13 327.285,122.745 L326.88,123.375 C326.085,122.685 325.41,122.13 324.84,121.74 L324.84,123.69 L324.06,123.69 L324.06,121.155 C323.46,122.19 322.455,123.105 321.075,123.885 L320.67,123.225 C322.14,122.49 323.145,121.665 323.655,120.735 L321.045,120.735 L321.045,120 Z M337.455,130.59 L336.18,130.59 L336.015,129.825 C336.405,129.855 336.795,129.885 337.17,129.885 C337.575,129.885 337.785,129.66 337.785,129.21 L337.785,125.19 C337.155,125.43 336.525,125.64 335.88,125.835 L335.67,125.04 C336.39,124.86 337.095,124.65 337.785,124.395 L337.785,120.81 L335.91,120.81 L335.91,120.015 L337.785,120.015 L337.785,117.105 L338.595,117.105 L338.595,120.015 L340.125,120.015 L340.125,120.81 L338.595,120.81 L338.595,124.08 C339.105,123.855 339.6,123.615 340.08,123.36 L340.08,124.155 C339.6,124.41 339.105,124.65 338.595,124.86 L338.595,129.405 C338.595,130.185 338.205,130.59 337.455,130.59 Z M341.79,123.9 C341.61,126.495 341.01,128.775 340.005,130.725 L339.375,130.17 C340.485,128.13 341.04,125.49 341.055,122.28 L341.055,117.735 L348.825,117.735 L348.825,121.17 L345.93,121.17 L345.93,123.135 L349.23,123.135 L349.23,123.9 L345.93,123.9 L345.93,125.94 L348.525,125.94 L348.525,130.725 L347.775,130.725 L347.775,129.945 L343.29,129.945 L343.29,130.725 L342.54,130.725 L342.54,125.94 L345.12,125.94 L345.12,123.9 L341.79,123.9 Z M345.12,121.17 L341.85,121.17 L341.85,122.28 C341.85,122.58 341.835,122.865 341.835,123.135 L345.12,123.135 L345.12,121.17 Z M343.29,129.195 L347.775,129.195 L347.775,126.69 L343.29,126.69 L343.29,129.195 Z M348.03,118.5 L341.85,118.5 L341.85,120.435 L348.03,120.435 L348.03,118.5 Z M351.765,117.465 L351.18,118.035 C352.23,118.8 353.055,119.535 353.67,120.225 L354.24,119.64 C353.58,118.92 352.755,118.185 351.765,117.465 Z M351.405,120.975 L350.82,121.53 C351.87,122.325 352.71,123.075 353.325,123.78 L353.895,123.21 C353.235,122.46 352.395,121.725 351.405,120.975 Z M353.37,124.995 C352.755,126.765 352.02,128.505 351.18,130.215 L351.96,130.545 C352.74,128.895 353.46,127.155 354.105,125.295 L353.37,124.995 Z M363.63,117.72 L354.975,117.72 L354.975,120.855 L355.77,120.855 L355.77,118.47 L362.835,118.47 L362.835,120.855 L363.63,120.855 L363.63,117.72 Z M356.85,124.935 C356.82,127.245 355.965,128.985 354.285,130.155 L354.945,130.74 C356.655,129.45 357.555,127.545 357.615,125.025 L357.615,121.98 L360.84,121.98 L360.84,129.195 C360.84,129.99 361.215,130.395 361.965,130.395 L362.85,130.395 C363.57,130.395 363.99,130.05 364.11,129.36 C364.2,128.865 364.245,127.98 364.245,126.72 L363.51,126.51 C363.51,127.65 363.48,128.475 363.45,129 C363.36,129.45 363.15,129.69 362.82,129.69 L362.07,129.69 C361.755,129.675 361.605,129.48 361.605,129.12 L361.605,121.245 L356.85,121.245 L356.85,124.935 Z M366.645,117.42 L366.075,117.975 C367.035,118.725 367.815,119.445 368.385,120.12 L368.97,119.55 C368.34,118.83 367.575,118.125 366.645,117.42 Z M366.405,121.005 L365.82,121.575 C366.855,122.37 367.665,123.12 368.265,123.84 L368.85,123.27 C368.19,122.52 367.38,121.755 366.405,121.005 Z M368.34,125.16 L369.075,125.445 C368.355,127.275 367.545,128.985 366.645,130.59 L365.835,130.245 C366.795,128.595 367.635,126.9 368.34,125.16 Z M378.675,118.815 L374.79,118.815 C374.55,118.155 374.28,117.555 373.995,117.045 L373.17,117.195 C373.47,117.675 373.74,118.215 373.995,118.815 L369.78,118.815 L369.78,121.665 L370.545,121.665 L370.545,119.58 L377.91,119.58 L377.91,121.665 L378.675,121.665 L378.675,118.815 Z M374.025,122.46 L370.53,122.46 L370.53,121.68 L378.03,121.68 L378.03,122.46 L374.805,122.46 L374.805,125.16 L378.03,125.16 L378.03,125.925 L374.805,125.925 L374.805,129.54 C375.465,129.72 376.365,129.81 377.49,129.81 C378.165,129.81 378.795,129.795 379.38,129.765 L379.215,130.59 C376.815,130.59 375.225,130.455 374.43,130.215 C373.215,129.87 372.165,129 371.265,127.605 C370.815,128.865 370.245,129.9 369.54,130.74 L368.91,130.275 C370.17,128.76 370.98,126.66 371.34,123.96 L372.09,124.08 C371.955,125.07 371.775,125.97 371.535,126.78 C372.255,127.965 373.08,128.79 374.025,129.24 L374.025,122.46 Z M4.29,142.83 L5.37,142.83 L9.66,153.54 L8.655,153.54 L7.41,150.345 L2.25,150.345 L1.005,153.54 L0,153.54 L4.29,142.83 Z M2.55,149.565 L7.11,149.565 L4.86,143.82 L4.815,143.82 L2.55,149.565 Z M10.89,142.83 L10.89,153.54 L11.805,153.54 L11.805,142.83 L10.89,142.83 Z M15.9,146.715 L19.83,146.715 L19.83,145.905 L15.9,145.905 L15.9,141.63 L15.075,141.63 L15.075,153.555 C15.075,153.765 14.97,153.915 14.76,154.02 L15.015,154.77 C16.845,154.38 18.555,153.915 20.16,153.405 L19.95,152.625 C18.615,153.075 17.265,153.465 15.9,153.765 L15.9,146.715 Z M25.185,154.59 C25.725,154.575 26.13,154.425 26.415,154.125 C26.73,153.735 26.94,152.715 27.06,151.05 L26.295,150.795 C26.22,152.34 26.04,153.255 25.77,153.54 C25.575,153.705 25.305,153.795 24.975,153.795 L22.635,153.795 C22.14,153.795 21.9,153.555 21.9,153.105 L21.9,146.835 L26.655,146.565 L26.655,145.77 L21.9,146.04 L21.9,141.51 L21.105,141.51 L21.105,153.24 C21.105,154.14 21.54,154.59 22.41,154.59 L25.185,154.59 Z M30.66,146.325 C30.12,147.135 29.505,147.885 28.845,148.605 L28.575,147.75 C30.24,145.83 31.44,143.67 32.175,141.27 L32.925,141.615 C32.535,142.815 32.04,143.955 31.47,145.005 L31.47,155.01 L30.66,155.01 L30.66,146.325 Z M39.975,147.285 C40.785,149.085 41.49,151.02 42.09,153.06 L41.355,153.39 C40.725,151.17 40.02,149.22 39.24,147.525 L39.975,147.285 Z M34.935,144.03 C34.44,145.23 33.855,146.325 33.195,147.315 L32.505,146.88 C33.66,145.215 34.5,143.34 35.04,141.24 L35.82,141.405 C35.64,142.05 35.445,142.665 35.235,143.25 L41.715,143.25 L41.715,143.79 C41.475,144.72 41.145,145.65 40.74,146.55 L39.96,146.325 C40.35,145.635 40.65,144.87 40.89,144.03 L34.935,144.03 Z M36.915,154.89 L34.935,154.89 L34.755,154.125 C35.415,154.155 36.045,154.185 36.645,154.185 C37.035,154.185 37.23,153.99 37.23,153.6 L37.23,145.44 L38.01,145.44 L38.01,153.795 C38.01,154.515 37.635,154.89 36.915,154.89 Z M34.785,147.39 L35.52,147.585 C34.95,149.7 34.23,151.545 33.36,153.135 L32.58,152.85 C33.42,151.425 34.155,149.61 34.785,147.39 Z M44.19,141.975 L56.895,141.975 L56.895,142.755 L50.955,142.755 L50.955,144.24 L55.635,144.24 L55.635,150.03 L50.79,150.03 C50.61,151.11 50.28,151.965 49.83,152.595 C51.96,153.54 54.495,154.065 57.45,154.185 L57.225,154.965 C54.165,154.83 51.525,154.245 49.305,153.195 C48.285,154.095 46.545,154.695 44.115,154.98 L43.755,154.245 C45.99,154.035 47.58,153.555 48.54,152.805 C47.595,152.295 46.725,151.695 45.945,151.02 L46.59,150.57 C47.34,151.215 48.165,151.77 49.095,152.25 C49.515,151.665 49.815,150.93 49.98,150.03 L45.48,150.03 L45.48,144.24 L50.145,144.24 L50.145,142.755 L44.19,142.755 L44.19,141.975 Z M54.84,149.295 L54.84,147.465 L50.955,147.465 L50.955,148.125 C50.94,148.545 50.925,148.935 50.895,149.295 L54.84,149.295 Z M50.07,149.295 C50.1,148.905 50.13,148.515 50.145,148.125 L50.145,147.465 L46.29,147.465 L46.29,149.295 L50.07,149.295 Z M46.29,146.76 L50.145,146.76 L50.145,144.975 L46.29,144.975 L46.29,146.76 Z M50.955,144.975 L50.955,146.76 L54.84,146.76 L54.84,144.975 L50.955,144.975 Z M65.4,141.3 L66.135,141.3 L66.135,142.35 L67.47,142.35 L67.47,143.04 L66.135,143.04 L66.135,144.075 L65.4,144.075 L65.4,143.04 L63.21,143.04 L63.21,142.35 L65.4,142.35 L65.4,141.3 Z M69.525,141.285 L69.525,142.35 L68.34,142.35 L68.34,143.04 L69.525,143.04 L69.525,143.91 L70.275,143.91 L70.275,143.04 L72.285,143.04 L72.285,142.35 L70.275,142.35 L70.275,141.285 L69.525,141.285 Z M63.585,146.04 L67.44,146.04 L67.44,145.05 C66.405,145.095 65.295,145.125 64.095,145.125 L63.9,144.51 C66.99,144.51 69.525,144.345 71.505,144.03 L71.85,144.63 C70.8,144.81 69.585,144.93 68.205,145.02 L68.205,146.04 L72.27,146.04 L72.27,146.7 L68.205,146.7 L68.205,147.51 L71.385,147.51 L71.385,151.41 L68.205,151.41 L68.205,152.265 L72,152.265 L72,152.925 L68.205,152.925 L68.205,153.9 L72.39,153.9 L72.39,154.59 L63.135,154.59 L63.135,153.9 L67.44,153.9 L67.44,152.925 L63.6,152.925 L63.6,152.265 L67.44,152.265 L67.44,151.41 L64.275,151.41 L64.275,147.51 L67.44,147.51 L67.44,146.7 L63.585,146.7 L63.585,146.04 Z M70.635,150.81 L70.635,149.745 L68.205,149.745 L68.205,150.81 L70.635,150.81 Z M67.44,150.81 L67.44,149.745 L65.01,149.745 L65.01,150.81 L67.44,150.81 Z M65.01,149.175 L67.44,149.175 L67.44,148.095 L65.01,148.095 L65.01,149.175 Z M68.205,148.095 L68.205,149.175 L70.635,149.175 L70.635,148.095 L68.205,148.095 Z M59.265,144.18 C59.235,145.635 59.04,147.015 58.71,148.32 L59.355,148.5 C59.685,147.15 59.88,145.74 59.91,144.24 L59.265,144.18 Z M62.535,143.895 C62.865,144.975 63.18,146.22 63.45,147.63 L62.805,147.795 C62.58,146.505 62.295,145.26 61.965,144.075 L62.535,143.895 Z M60.75,141.36 L60.75,154.95 L61.53,154.95 L61.53,141.36 L60.75,141.36 Z M75.66,146.325 C75.12,147.135 74.505,147.885 73.845,148.605 L73.575,147.75 C75.24,145.83 76.44,143.67 77.175,141.27 L77.925,141.615 C77.535,142.815 77.04,143.955 76.47,145.005 L76.47,155.01 L75.66,155.01 L75.66,146.325 Z M84.975,147.285 C85.785,149.085 86.49,151.02 87.09,153.06 L86.355,153.39 C85.725,151.17 85.02,149.22 84.24,147.525 L84.975,147.285 Z M79.935,144.03 C79.44,145.23 78.855,146.325 78.195,147.315 L77.505,146.88 C78.66,145.215 79.5,143.34 80.04,141.24 L80.82,141.405 C80.64,142.05 80.445,142.665 80.235,143.25 L86.715,143.25 L86.715,143.79 C86.475,144.72 86.145,145.65 85.74,146.55 L84.96,146.325 C85.35,145.635 85.65,144.87 85.89,144.03 L79.935,144.03 Z M81.915,154.89 L79.935,154.89 L79.755,154.125 C80.415,154.155 81.045,154.185 81.645,154.185 C82.035,154.185 82.23,153.99 82.23,153.6 L82.23,145.44 L83.01,145.44 L83.01,153.795 C83.01,154.515 82.635,154.89 81.915,154.89 Z M79.785,147.39 L80.52,147.585 C79.95,149.7 79.23,151.545 78.36,153.135 L77.58,152.85 C78.42,151.425 79.155,149.61 79.785,147.39 Z" id="-g-txt5-3"></path>
                </g>
            </g>
        </g>
    </g>
</svg>