<?xml version="1.0" encoding="UTF-8"?>
<svg width="315px" height="19px" viewBox="0 0 315 19" version="1.1" xmlns="http://www.w3.org/2000/svg" xmlns:xlink="http://www.w3.org/1999/xlink">
    <!-- Generator: Sketch 45.2 (43514) - http://www.bohemiancoding.com/sketch -->
    <title>txt6-3</title>
    <desc>Created with Sketch.</desc>
    <defs></defs>
    <g id="Page-1" stroke="none" stroke-width="1" fill="none" fill-rule="evenodd">
        <g id="新版" transform="translate(-563.000000, -5315.000000)">
            <g id="6" transform="translate(0.000000, 5126.000000)">
                <g id="标题" transform="translate(562.000000, 80.000000)">
                    <g id="txt6-3" transform="translate(0.000000, 109.000000)">
                        <path d="M6,6.11 C5.61,6.74 5.16,7.28 4.68,7.715 L4.095,7.19 C5.04,6.29 5.745,5.135 6.225,3.74 L6.96,3.935 C6.78,4.445 6.6,4.925 6.405,5.345 L12.375,5.345 L12.375,6.11 L9.135,6.11 L9.135,7.22 C9.12,7.64 9.09,8.045 9.045,8.435 L13.245,8.435 L13.245,9.2 L8.895,9.2 C8.715,9.965 8.415,10.625 8.01,11.195 C7.275,12.11 6.105,12.83 4.485,13.37 L4.035,12.665 C5.625,12.185 6.75,11.51 7.41,10.64 C7.695,10.22 7.92,9.74 8.07,9.2 L3.99,9.2 L3.99,8.435 L8.235,8.435 C8.295,8.045 8.34,7.64 8.355,7.22 L8.355,6.11 L6,6.11 Z M9.465,10.145 C10.95,10.94 12.21,11.825 13.26,12.8 L12.735,13.4 C11.775,12.44 10.53,11.525 9.03,10.685 L9.465,10.145 Z M1.17,2.45 L13.38,2.45 L13.38,3.185 L2.865,3.185 L2.865,13.55 C2.865,13.91 3.045,14.105 3.435,14.105 L13.74,14.105 L13.74,14.87 L3.255,14.87 C2.46,14.87 2.07,14.48 2.07,13.7 L2.07,3.185 L1.17,3.185 L1.17,2.45 Z M20.43,5.675 L28.215,5.675 L28.215,6.455 C27.27,7.355 26.19,8.195 24.96,8.99 L24.96,14.105 C24.96,15.005 24.495,15.47 23.595,15.47 L21.795,15.47 L21.6,14.735 C22.11,14.75 22.68,14.765 23.28,14.765 C23.85,14.765 24.15,14.465 24.15,13.865 L24.15,8.57 C25.185,7.985 26.175,7.28 27.12,6.455 L20.43,6.455 L20.43,5.675 Z M18.27,8.345 C18.27,8.165 18.285,8 18.285,7.82 L18.285,3.095 L23.445,3.095 C23.25,2.585 23.04,2.135 22.83,1.73 L23.655,1.595 C23.865,2.045 24.045,2.54 24.225,3.095 L28.905,3.095 L28.905,3.89 L19.095,3.89 L19.095,7.82 C19.035,10.97 18.36,13.505 17.07,15.395 L16.455,14.84 C17.43,13.43 18.015,11.57 18.21,9.245 C17.475,9.905 16.665,10.505 15.765,11.045 L15.555,10.265 C16.53,9.71 17.43,9.065 18.27,8.345 Z M16.44,4.34 C16.965,5.225 17.415,6.17 17.79,7.16 L17.115,7.445 C16.695,6.365 16.245,5.42 15.765,4.61 L16.44,4.34 Z M35.22,12.455 L35.22,13.235 C33.9,13.775 32.415,14.225 30.75,14.555 L30.63,13.745 C32.37,13.43 33.9,12.995 35.22,12.455 Z M33.525,1.79 L34.305,2.105 C33.465,4.085 32.625,5.63 31.785,6.77 C32.61,6.695 33.435,6.59 34.275,6.44 C34.575,5.93 34.89,5.375 35.205,4.805 L35.925,5.09 C34.425,7.67 33.21,9.47 32.28,10.475 C33.45,10.28 34.62,9.995 35.79,9.62 L35.79,10.385 C34.23,10.85 32.715,11.18 31.26,11.36 L31.035,10.595 C31.185,10.535 31.305,10.46 31.41,10.37 C32.085,9.725 32.88,8.66 33.81,7.19 C32.85,7.34 31.92,7.46 30.99,7.565 L30.795,6.815 C30.915,6.77 31.035,6.665 31.14,6.515 C32.055,5.165 32.85,3.59 33.525,1.79 Z M37.605,3.26 L36.045,3.26 L36.045,2.48 L42.465,2.48 L42.465,2.99 C42.21,4.4 41.955,5.615 41.715,6.605 L43.665,6.605 L43.665,7.085 C43.35,9.185 42.63,10.94 41.52,12.38 C42.315,13.28 43.26,14.075 44.355,14.765 L43.845,15.44 C42.735,14.72 41.79,13.895 41.01,12.98 C40.11,13.97 38.985,14.81 37.635,15.47 L37.17,14.735 C38.505,14.075 39.615,13.28 40.485,12.335 C39.435,10.97 38.685,9.41 38.205,7.64 C37.785,11.03 36.765,13.61 35.16,15.41 L34.545,14.885 C36.555,12.665 37.575,9.095 37.605,4.19 L37.605,3.26 Z M40.98,11.75 C41.94,10.49 42.57,9.02 42.87,7.34 L40.77,7.34 C41.025,6.41 41.31,5.06 41.625,3.26 L38.415,3.26 L38.415,4.19 C38.415,4.7 38.4,5.18 38.37,5.66 C38.745,8 39.615,10.04 40.98,11.75 Z M52.53,1.7 L51.645,1.85 C51.84,2.225 52.02,2.645 52.185,3.11 L45.9,3.11 L45.9,3.89 L59.085,3.89 L59.085,3.11 L53.04,3.11 C52.875,2.585 52.71,2.12 52.53,1.7 Z M56.715,15.425 L55.44,15.425 L55.245,14.69 L56.46,14.72 C57.135,14.72 57.48,14.45 57.48,13.91 L57.48,9.605 L47.52,9.605 L47.52,15.455 L46.755,15.455 L46.755,8.87 L58.245,8.87 L58.245,14.075 C58.245,14.975 57.735,15.425 56.715,15.425 Z M48.435,5.045 L56.58,5.045 L56.58,7.805 L48.435,7.805 L48.435,5.045 Z M55.8,7.145 L55.8,5.705 L49.215,5.705 L49.215,7.145 L55.8,7.145 Z M49.65,10.73 L55.38,10.73 L55.38,13.625 L49.65,13.625 L49.65,10.73 Z M54.63,12.98 L54.63,11.39 L50.385,11.39 L50.385,12.98 L54.63,12.98 Z M62.025,2.03 L61.44,2.585 C62.385,3.275 63.135,3.92 63.69,4.55 L64.26,3.965 C63.66,3.32 62.91,2.675 62.025,2.03 Z M61.53,5.645 L60.96,6.2 C61.965,6.98 62.76,7.73 63.36,8.435 L63.93,7.85 C63.3,7.115 62.49,6.38 61.53,5.645 Z M63.255,9.77 C62.655,11.54 61.965,13.28 61.155,14.96 L61.905,15.29 C62.67,13.655 63.36,11.9 63.975,10.04 L63.255,9.77 Z M68.955,1.775 L68.955,2.795 L64.965,2.795 L64.965,3.485 L68.955,3.485 L68.955,4.67 L65.58,4.67 L65.58,5.36 L68.955,5.36 L68.955,6.56 L64.5,6.56 L64.5,7.265 L74.265,7.265 L74.265,6.56 L69.765,6.56 L69.765,5.36 L73.29,5.36 L73.29,4.67 L69.765,4.67 L69.765,3.485 L73.86,3.485 L73.86,2.795 L69.765,2.795 L69.765,1.775 L68.955,1.775 Z M66.69,11.09 L66.69,12.335 L72.075,12.335 L72.075,11.09 L66.69,11.09 Z M72.075,10.445 L72.075,9.14 L66.69,9.14 L66.69,10.445 L72.075,10.445 Z M66.69,12.995 L66.69,15.455 L65.925,15.455 L65.925,8.45 L72.855,8.45 L72.855,14.285 C72.855,15.005 72.495,15.38 71.805,15.38 L70.32,15.38 L70.125,14.645 L71.565,14.69 C71.895,14.69 72.075,14.495 72.075,14.12 L72.075,12.995 L66.69,12.995 Z M77.295,15.32 L76.14,15.32 L75.96,14.555 C76.32,14.585 76.68,14.6 77.01,14.6 C77.43,14.6 77.64,14.39 77.64,13.985 L77.64,10.025 C77.025,10.295 76.41,10.52 75.795,10.73 L75.6,9.95 C76.305,9.74 76.98,9.5 77.64,9.23 L77.64,5.525 L75.87,5.525 L75.87,4.76 L77.64,4.76 L77.64,1.835 L78.45,1.835 L78.45,4.76 L79.965,4.76 L79.965,5.525 L78.45,5.525 L78.45,8.87 C78.945,8.63 79.425,8.36 79.905,8.075 L79.905,8.9 C79.425,9.17 78.93,9.425 78.45,9.665 L78.45,14.18 C78.45,14.93 78.06,15.32 77.295,15.32 Z M80.265,2.345 L88.71,2.345 L88.71,3.02 L87.39,3.02 L87.39,7.52 L88.95,7.4 L88.95,8.045 C88.425,8.075 87.9,8.105 87.39,8.15 L87.39,8.975 L86.61,8.975 L86.61,8.195 C84.6,8.315 82.5,8.42 80.31,8.51 L80.145,7.88 L81.6,7.82 L81.6,3.02 L80.265,3.02 L80.265,2.345 Z M82.395,7.79 C83.835,7.73 85.245,7.655 86.61,7.565 L86.61,6.53 L82.395,6.53 L82.395,7.79 Z M82.395,5.93 L86.61,5.93 L86.61,4.79 L82.395,4.79 L82.395,5.93 Z M82.395,4.205 L86.61,4.205 L86.61,3.02 L82.395,3.02 L82.395,4.205 Z M80.625,10.835 C81.195,11.315 81.72,11.81 82.215,12.32 C82.56,11.69 82.83,11.015 83.01,10.265 L80.085,10.265 L80.085,9.545 L83.745,9.545 L83.745,10.22 C83.535,11.225 83.205,12.11 82.755,12.875 C83.205,13.355 83.625,13.85 84,14.33 L83.445,14.885 C83.115,14.435 82.74,13.97 82.32,13.52 C81.69,14.33 80.895,15.005 79.95,15.53 L79.515,14.87 C80.445,14.36 81.195,13.73 81.795,12.95 C81.285,12.41 80.715,11.87 80.115,11.33 L80.625,10.835 Z M84.465,9.545 L88.68,9.545 L88.68,10.22 C88.41,11.405 87.96,12.425 87.3,13.295 C87.87,13.865 88.545,14.36 89.355,14.795 L88.935,15.455 C88.095,14.975 87.405,14.45 86.835,13.85 C86.205,14.51 85.44,15.08 84.54,15.53 L84.12,14.9 C85.005,14.45 85.74,13.895 86.325,13.265 C85.635,12.38 85.155,11.375 84.915,10.265 L84.465,10.265 L84.465,9.545 Z M85.605,10.265 C85.83,11.165 86.22,11.975 86.775,12.695 C87.3,11.975 87.675,11.165 87.915,10.265 L85.605,10.265 Z M99.15,9.545 C98.94,9.23 98.715,8.93 98.475,8.66 C97.635,9.41 96.42,10.07 94.845,10.655 L94.425,9.995 C96.3,9.38 97.59,8.69 98.31,7.925 L95.325,7.925 L95.325,5.135 C95.055,5.315 94.8,5.48 94.545,5.63 L94.035,5.015 C95.595,4.145 96.84,3.035 97.755,1.685 L98.565,1.865 C98.34,2.195 98.115,2.51 97.875,2.81 L101.79,2.81 L101.79,3.365 C101.34,3.935 100.89,4.415 100.44,4.82 L103.41,4.82 L103.41,7.925 L99.15,7.925 C99.075,8.015 99,8.105 98.94,8.195 C99.615,8.885 100.125,9.635 100.455,10.43 C101.535,9.95 102.45,9.335 103.185,8.6 L103.695,9.17 C103.035,9.8 102.255,10.34 101.355,10.805 C101.925,12.095 102.945,13.235 104.385,14.255 L103.875,14.885 C102.435,13.73 101.415,12.455 100.815,11.06 L100.695,11.12 C100.845,11.645 100.92,12.185 100.95,12.755 C100.95,13.775 100.8,14.48 100.5,14.885 C100.23,15.215 99.735,15.425 99.045,15.53 C98.775,15.53 98.49,15.545 98.16,15.545 L97.905,14.795 L98.955,14.795 C99.315,14.765 99.615,14.63 99.855,14.36 C100.065,14.09 100.17,13.55 100.17,12.755 C100.155,12.485 100.125,12.215 100.095,11.975 C98.805,13.235 97.065,14.27 94.875,15.08 L94.47,14.375 C96.84,13.565 98.67,12.515 99.93,11.225 C99.81,10.82 99.66,10.445 99.48,10.1 C98.355,11.225 96.825,12.14 94.905,12.83 L94.515,12.155 C96.525,11.48 98.07,10.61 99.15,9.545 Z M99.78,7.235 L102.615,7.235 L102.615,5.51 L99.78,5.51 L99.78,7.235 Z M95.775,4.82 L99.375,4.82 C99.885,4.415 100.365,3.965 100.815,3.47 L97.29,3.47 C96.825,3.95 96.315,4.4 95.775,4.82 Z M99,5.51 L96.12,5.51 L96.12,7.235 L99,7.235 L99,5.51 Z M93.705,1.73 L94.44,2.09 C94.125,3.17 93.735,4.175 93.27,5.135 L93.27,15.455 L92.475,15.455 L92.475,6.59 C91.995,7.37 91.455,8.12 90.87,8.81 L90.6,7.955 C92.025,6.125 93.06,4.04 93.705,1.73 Z M110.895,12.32 L110.895,13.115 C109.485,13.745 107.865,14.255 106.065,14.645 L105.96,13.82 C107.835,13.445 109.485,12.95 110.895,12.32 Z M108.69,1.835 L109.455,2.135 C108.6,4.115 107.745,5.675 106.875,6.785 C107.685,6.695 108.51,6.59 109.35,6.44 C109.68,5.84 110.025,5.225 110.385,4.58 L111.12,4.85 C109.59,7.61 108.345,9.53 107.355,10.61 C108.555,10.37 109.755,10.025 110.94,9.59 L110.94,10.355 C109.35,10.91 107.805,11.3 106.335,11.525 L106.11,10.76 C106.26,10.7 106.38,10.61 106.485,10.52 C107.175,9.845 107.97,8.735 108.9,7.205 C107.94,7.355 106.98,7.49 106.05,7.61 L105.84,6.86 C105.975,6.8 106.095,6.695 106.2,6.545 C107.16,5.21 107.985,3.635 108.69,1.835 Z M117.96,2.51 L117.96,14.15 L119.295,14.15 L119.295,14.93 L110.685,14.93 L110.685,14.15 L112.05,14.15 L112.05,2.51 L117.96,2.51 Z M112.845,14.15 L117.165,14.15 L117.165,10.97 L112.845,10.97 L112.845,14.15 Z M112.845,10.19 L117.165,10.19 L117.165,7.085 L112.845,7.085 L112.845,10.19 Z M112.845,6.305 L117.165,6.305 L117.165,3.29 L112.845,3.29 L112.845,6.305 Z M124.08,1.7 L124.83,2.06 C124.425,3.275 123.93,4.415 123.33,5.465 L123.33,15.485 L122.535,15.485 L122.535,6.74 C121.995,7.505 121.41,8.225 120.765,8.915 L120.495,8.06 C122.145,6.185 123.345,4.07 124.08,1.7 Z M126.585,2.645 L127.38,2.735 C127.23,3.545 127.05,4.295 126.84,5.015 L129.36,5.015 L129.36,1.805 L130.17,1.805 L130.17,5.015 L133.725,5.015 L133.725,5.825 L130.17,5.825 L130.17,9.71 L134.28,9.71 L134.28,10.505 L130.17,10.505 L130.17,15.41 L129.36,15.41 L129.36,10.505 L124.815,10.505 L124.815,9.71 L129.36,9.71 L129.36,5.825 L126.57,5.825 C126.18,6.815 125.715,7.715 125.16,8.51 L124.65,7.85 C125.595,6.425 126.24,4.685 126.585,2.645 Z" id="医疗级高清摄像组件" fill="#777777"></path>
                        <path d="M168.9,4.115 L161.895,4.115 L161.895,6.35 L168.9,6.35 L168.9,4.115 Z M161.895,7.07 L161.895,7.28 C161.88,10.415 161.28,13.1 160.11,15.35 L159.525,14.84 C160.605,12.89 161.145,10.37 161.16,7.28 L161.16,3.365 L165.18,3.365 C164.97,2.825 164.73,2.33 164.475,1.895 L165.285,1.745 C165.525,2.225 165.75,2.765 165.975,3.365 L169.65,3.365 L169.65,7.07 L161.895,7.07 Z M158.46,6.65 C157.98,7.37 157.47,8.06 156.9,8.705 L156.645,7.91 C158.085,6.125 159.135,4.115 159.78,1.865 L160.515,2.195 C160.17,3.32 159.735,4.37 159.225,5.345 L159.225,15.5 L158.46,15.5 L158.46,6.65 Z M168.87,15.425 L168.15,15.425 L167.97,14.78 L168.645,14.81 C168.87,14.81 168.99,14.69 168.99,14.45 L168.99,12.14 L167.46,12.14 L167.46,15.2 L166.83,15.2 L166.83,12.14 L165.375,12.14 L165.375,15.2 L164.76,15.2 L164.76,12.14 L163.17,12.14 L163.17,15.41 L162.48,15.41 L162.48,8.54 L169.695,8.54 L169.695,14.6 C169.695,15.14 169.41,15.425 168.87,15.425 Z M163.17,11.45 L164.76,11.45 L164.76,9.215 L163.17,9.215 L163.17,11.45 Z M165.375,9.215 L165.375,11.45 L166.83,11.45 L166.83,9.215 L165.375,9.215 Z M167.46,9.215 L167.46,11.45 L168.99,11.45 L168.99,9.215 L167.46,9.215 Z M178.095,1.775 L178.905,1.775 L178.905,7.49 L185.01,7.49 L185.01,8.285 L180.585,8.285 L180.585,13.58 C180.585,14.06 180.81,14.3 181.29,14.3 L183.21,14.3 C183.6,14.3 183.885,14.18 184.05,13.97 C184.26,13.7 184.395,12.89 184.47,11.54 L185.265,11.795 C185.16,13.325 184.95,14.27 184.635,14.63 C184.365,14.915 183.945,15.065 183.36,15.065 L181.05,15.065 C180.195,15.065 179.775,14.615 179.775,13.745 L179.775,8.285 L177.03,8.285 L177.03,8.42 C177,10.295 176.595,11.795 175.83,12.935 C175.08,13.985 173.85,14.795 172.14,15.395 L171.69,14.69 C173.34,14.12 174.51,13.355 175.215,12.365 C175.845,11.36 176.175,10.04 176.205,8.42 L176.205,8.285 L172.005,8.285 L172.005,7.49 L178.095,7.49 L178.095,1.775 Z M183.06,2.525 L183.84,2.885 C183.315,4.13 182.625,5.345 181.785,6.515 L181.035,6.125 C181.875,4.91 182.55,3.71 183.06,2.525 Z M173.955,2.645 C174.735,3.71 175.455,4.865 176.115,6.125 L175.35,6.515 C174.675,5.21 173.955,4.04 173.19,3.02 L173.955,2.645 Z M192.36,2.99 L195.48,2.99 C195.3,2.54 195.12,2.135 194.91,1.775 L195.72,1.625 C195.9,2.03 196.08,2.48 196.26,2.99 L199.545,2.99 L199.545,3.695 L198.225,3.695 C198.075,4.325 197.85,4.94 197.58,5.51 L200.04,5.51 L200.04,6.215 L191.91,6.215 L191.91,5.51 L194.28,5.51 C194.07,4.85 193.845,4.235 193.605,3.695 L192.36,3.695 L192.36,2.99 Z M196.785,5.51 C197.115,4.925 197.34,4.325 197.475,3.695 L194.4,3.695 C194.61,4.25 194.805,4.85 195.015,5.51 L196.785,5.51 Z M192.9,7.31 L198.93,7.31 L198.93,11.84 L197.385,11.84 L197.385,14.03 C197.385,14.42 197.565,14.63 197.94,14.63 L198.75,14.63 C199.035,14.63 199.23,14.555 199.35,14.42 C199.5,14.225 199.605,13.67 199.665,12.74 L200.34,12.965 C200.25,14.075 200.1,14.75 199.875,15.005 C199.665,15.215 199.335,15.32 198.885,15.32 L197.73,15.32 C196.98,15.32 196.605,14.945 196.605,14.195 L196.605,11.84 L195.06,11.84 C194.91,12.8 194.58,13.55 194.1,14.12 C193.56,14.72 192.675,15.2 191.475,15.545 L191.175,14.84 C192.255,14.555 193.02,14.165 193.5,13.655 C193.89,13.19 194.16,12.59 194.31,11.84 L192.9,11.84 L192.9,7.31 Z M198.165,11.165 L198.165,9.89 L193.65,9.89 L193.65,11.165 L198.165,11.165 Z M193.65,9.245 L198.165,9.245 L198.165,7.985 L193.65,7.985 L193.65,9.245 Z M188.565,1.655 L189.345,1.82 C189.195,2.45 189.045,3.035 188.865,3.575 L191.655,3.575 L191.655,4.34 L188.595,4.34 C188.19,5.42 187.725,6.395 187.215,7.265 L186.54,6.845 C187.455,5.315 188.13,3.575 188.565,1.655 Z M188.115,6.59 L191.43,6.59 L191.43,7.325 L189.765,7.325 L189.765,9.395 L191.775,9.395 L191.775,10.175 L189.765,10.175 L189.765,13.97 C190.335,13.73 190.92,13.385 191.52,12.965 L191.655,13.685 C190.875,14.21 189.975,14.645 188.955,14.975 L188.64,14.3 C188.865,14.21 188.985,14.075 188.985,13.88 L188.985,10.175 L187.005,10.175 L187.005,9.395 L188.985,9.395 L188.985,7.325 L188.115,7.325 L188.115,6.59 Z M205.5,6.68 L214.5,6.68 L214.5,5.9 L210.975,5.9 L210.975,1.775 L210.18,1.775 L210.18,5.9 L205.5,5.9 L205.5,2.18 L204.705,2.18 L204.705,7.67 C204.675,10.985 203.835,13.4 202.2,14.9 L202.83,15.44 C204.135,14.21 204.96,12.455 205.305,10.145 L211.635,10.145 L211.635,15.5 L212.46,15.5 L212.46,9.365 L205.41,9.365 C205.455,8.825 205.485,8.27 205.5,7.67 L205.5,6.68 Z" id="偏光镜片" fill="#777777"></path>
                        <path d="M242.35,2.45 L246.79,2.45 L246.79,3.11 C246.31,4.505 245.755,5.96 245.095,7.46 C246.055,8.78 246.58,10.025 246.655,11.18 C246.64,11.75 246.475,12.17 246.175,12.44 C245.755,12.74 245.035,12.905 243.985,12.92 L243.715,12.095 C243.895,12.125 244.03,12.14 244.15,12.14 C244.81,12.11 245.26,12.02 245.5,11.885 C245.725,11.735 245.845,11.51 245.845,11.18 C245.845,10.1 245.305,8.9 244.255,7.58 C244.99,5.975 245.56,4.52 245.95,3.23 L243.145,3.23 L243.145,15.47 L242.35,15.47 L242.35,2.45 Z M247.09,4.115 L250.99,4.115 C250.75,3.275 250.495,2.525 250.225,1.865 L251.05,1.715 C251.32,2.405 251.575,3.215 251.815,4.115 L255.13,4.115 L255.13,4.895 L250.075,4.895 C250.045,5.525 250.015,6.455 249.955,7.715 L254.26,7.715 C254.23,10.76 254.14,12.77 253.975,13.745 C253.75,14.75 253.135,15.26 252.115,15.29 C251.71,15.29 251.245,15.275 250.705,15.245 L250.45,14.495 C251.065,14.51 251.59,14.525 252.025,14.525 C252.715,14.495 253.135,14.075 253.285,13.265 C253.375,12.455 253.435,10.865 253.45,8.51 L249.895,8.51 C249.76,9.815 249.475,11 249.025,12.065 C248.455,13.31 247.645,14.465 246.625,15.515 L246.025,14.945 C247.255,13.61 248.08,12.365 248.5,11.21 C248.89,10.04 249.115,8.75 249.19,7.325 C249.22,6.2 249.235,5.39 249.25,4.895 L247.09,4.895 L247.09,4.115 Z M261.175,2.66 L261.175,14.51 L260.425,14.51 L260.425,13.61 L258.115,13.61 L258.115,14.825 L257.35,14.825 L257.35,2.66 L261.175,2.66 Z M258.115,12.875 L260.425,12.875 L260.425,10.19 L258.115,10.19 L258.115,12.875 Z M258.115,9.44 L260.425,9.44 L260.425,6.815 L258.115,6.815 L258.115,9.44 Z M258.115,6.08 L260.425,6.08 L260.425,3.41 L258.115,3.41 L258.115,6.08 Z M268.495,10.67 L267.775,10.895 C268.105,11.675 268.39,12.47 268.66,13.295 C267.16,13.61 265.525,13.85 263.77,14 C265.48,12.38 267.22,9.95 268.99,6.71 L268.21,6.455 C267.76,7.295 267.31,8.09 266.89,8.825 C265.69,9.005 264.49,9.125 263.32,9.2 C264.28,8.09 265.255,6.545 266.215,4.595 L270.145,4.595 L270.145,3.815 L266.62,3.815 C266.365,3.035 266.095,2.345 265.825,1.745 L265,1.895 C265.3,2.45 265.57,3.095 265.825,3.815 L261.97,3.815 L261.97,4.595 L265.315,4.595 C264.565,6.245 263.68,7.7 262.66,8.96 C262.555,9.11 262.435,9.2 262.315,9.26 L262.51,9.995 C263.785,9.875 265.09,9.74 266.41,9.59 C264.91,11.945 263.56,13.445 262.345,14.075 L262.495,14.825 C264.85,14.66 266.98,14.405 268.9,14.06 C269.05,14.54 269.185,15.05 269.32,15.575 L270.1,15.365 C269.635,13.595 269.095,12.035 268.495,10.67 Z M278.095,1.775 L278.905,1.775 L278.905,7.49 L285.01,7.49 L285.01,8.285 L280.585,8.285 L280.585,13.58 C280.585,14.06 280.81,14.3 281.29,14.3 L283.21,14.3 C283.6,14.3 283.885,14.18 284.05,13.97 C284.26,13.7 284.395,12.89 284.47,11.54 L285.265,11.795 C285.16,13.325 284.95,14.27 284.635,14.63 C284.365,14.915 283.945,15.065 283.36,15.065 L281.05,15.065 C280.195,15.065 279.775,14.615 279.775,13.745 L279.775,8.285 L277.03,8.285 L277.03,8.42 C277,10.295 276.595,11.795 275.83,12.935 C275.08,13.985 273.85,14.795 272.14,15.395 L271.69,14.69 C273.34,14.12 274.51,13.355 275.215,12.365 C275.845,11.36 276.175,10.04 276.205,8.42 L276.205,8.285 L272.005,8.285 L272.005,7.49 L278.095,7.49 L278.095,1.775 Z M283.06,2.525 L283.84,2.885 C283.315,4.13 282.625,5.345 281.785,6.515 L281.035,6.125 C281.875,4.91 282.55,3.71 283.06,2.525 Z M273.955,2.645 C274.735,3.71 275.455,4.865 276.115,6.125 L275.35,6.515 C274.675,5.21 273.955,4.04 273.19,3.02 L273.955,2.645 Z M288.505,1.76 L289.27,1.925 C289.135,2.495 288.985,3.05 288.82,3.575 L291.61,3.575 L291.61,4.34 L288.58,4.34 C288.19,5.39 287.755,6.35 287.26,7.22 L286.6,6.8 C287.455,5.3 288.085,3.62 288.505,1.76 Z M288.01,6.47 L291.25,6.47 L291.25,7.22 L289.72,7.22 L289.72,9.395 L291.52,9.395 L291.52,10.175 L289.72,10.175 L289.72,13.82 C290.2,13.58 290.68,13.265 291.19,12.86 L291.325,13.58 C290.635,14.105 289.84,14.54 288.94,14.87 L288.61,14.18 C288.82,14.09 288.94,13.97 288.94,13.79 L288.94,10.175 L287.02,10.175 L287.02,9.395 L288.94,9.395 L288.94,7.22 L288.01,7.22 L288.01,6.47 Z M293.32,5.78 L294.835,5.78 L294.835,4.58 L295.585,4.58 L295.585,5.78 L298.105,5.78 L298.105,4.58 L298.87,4.58 L298.87,5.78 L300.145,5.78 L300.145,6.545 L298.87,6.545 L298.87,8.825 L294.835,8.825 L294.835,6.545 L293.32,6.545 L293.32,5.78 Z M295.585,6.545 L295.585,8.15 L298.105,8.15 L298.105,6.545 L295.585,6.545 Z M296.275,1.67 C296.485,2.075 296.71,2.54 296.92,3.065 L300.13,3.065 L300.13,3.83 L293.185,3.83 L293.185,8 C293.14,11.105 292.645,13.595 291.685,15.47 L291.085,14.93 C291.94,13.265 292.39,10.955 292.42,8 L292.42,3.065 L296.125,3.065 C295.915,2.615 295.69,2.195 295.45,1.82 L296.275,1.67 Z M293.86,9.965 L299.455,9.965 L299.455,10.64 C299.095,11.72 298.465,12.65 297.58,13.43 C298.345,13.94 299.275,14.375 300.37,14.765 L299.935,15.455 C298.75,14.99 297.76,14.465 296.98,13.895 C296.035,14.57 294.865,15.11 293.485,15.53 L293.08,14.84 C294.385,14.465 295.48,13.985 296.35,13.4 C295.435,12.59 294.805,11.675 294.475,10.685 L293.86,10.685 L293.86,9.965 Z M295.21,10.685 C295.54,11.525 296.11,12.29 296.935,12.95 C297.715,12.29 298.285,11.525 298.645,10.685 L295.21,10.685 Z M307.9,5.585 L314.29,5.585 L314.29,10.055 L311.515,10.055 C311.455,10.52 311.38,10.955 311.26,11.345 L315.25,11.345 L315.25,12.095 L311.005,12.095 C310.825,12.575 310.585,12.995 310.3,13.37 C309.685,14.21 308.59,14.855 307.03,15.335 L306.745,14.675 C308.11,14.255 309.1,13.67 309.715,12.905 C309.895,12.665 310.06,12.395 310.21,12.095 L307.03,12.095 L307.03,11.345 L310.495,11.345 C310.615,10.955 310.72,10.52 310.78,10.055 L307.9,10.055 L307.9,5.585 Z M313.54,9.395 L313.54,8.15 L308.65,8.15 L308.65,9.395 L313.54,9.395 Z M308.65,7.49 L313.54,7.49 L313.54,6.245 L308.65,6.245 L308.65,7.49 Z M306.97,3.08 L306.97,3.77 L308.965,3.77 L308.965,5.045 L309.715,5.045 L309.715,3.77 L310.78,3.77 L310.78,3.08 L309.715,3.08 L309.715,1.79 L308.965,1.79 L308.965,3.08 L306.97,3.08 Z M312.415,1.76 L312.415,3.08 L311.32,3.08 L311.32,3.77 L312.415,3.77 L312.415,5.045 L313.165,5.045 L313.165,3.77 L315.145,3.77 L315.145,3.08 L313.165,3.08 L313.165,1.76 L312.415,1.76 Z M311.845,12.89 C313.15,13.43 314.335,14.075 315.415,14.84 L314.995,15.47 C313.84,14.63 312.655,13.97 311.44,13.49 L311.845,12.89 Z M306.325,2.465 L306.325,14.42 C306.325,15.08 305.965,15.425 305.275,15.425 L304.195,15.425 L303.985,14.705 C304.36,14.72 304.705,14.735 305.035,14.735 C305.38,14.735 305.56,14.54 305.56,14.15 L305.56,10.22 C304.84,10.43 304.06,10.625 303.235,10.775 C303.115,12.665 302.785,14.24 302.215,15.485 L301.615,14.93 C302.2,13.535 302.5,11.75 302.515,9.59 L302.515,2.465 L306.325,2.465 Z M303.265,10.01 C304.12,9.86 304.885,9.68 305.56,9.47 L305.56,7.325 C304.81,7.055 304.045,6.845 303.28,6.695 L303.28,9.545 C303.28,9.695 303.265,9.86 303.265,10.01 Z M303.28,5.975 C304.075,6.125 304.84,6.32 305.56,6.59 L305.56,3.23 L303.28,3.23 L303.28,5.975 Z" id="防眩光镀膜" fill="#777777"></path>
                        <rect id="Rectangle-6" fill="#6D6D6D" x="145" y="0" width="1" height="19"></rect>
                        <rect id="Rectangle-6-Copy" fill="#6D6D6D" x="226" y="0" width="1" height="19"></rect>
                    </g>
                </g>
            </g>
        </g>
    </g>
</svg>