<?xml version="1.0" encoding="UTF-8"?>
<svg width="206px" height="47px" viewBox="0 0 206 47" version="1.1" xmlns="http://www.w3.org/2000/svg" xmlns:xlink="http://www.w3.org/1999/xlink">
    <!-- Generator: Sketch 45.2 (43514) - http://www.bohemiancoding.com/sketch -->
    <title>txt6-1</title>
    <desc>Created with Sketch.</desc>
    <defs></defs>
    <g id="Page-1" stroke="none" stroke-width="1" fill="none" fill-rule="evenodd">
        <g id="新版" transform="translate(-617.000000, -5208.000000)" fill="#38393B">
            <g id="6" transform="translate(0.000000, 5126.000000)">
                <g id="标题" transform="translate(562.000000, 80.000000)">
                    <path d="M58.6,8.20000153 L56.8,27.7000015 L59.7,27.7000015 C60.5,26.2000015 61.65,25.0000015 63.15,24.1500015 C64.6,23.3500015 66.25,22.9500015 68.05,22.9500015 C70.8,22.9500015 73,23.7500015 74.6,25.4000015 C76.25,27.1000015 77.1,29.5000015 77.1,32.5500015 C77.1,35.2500015 76.2,37.5000015 74.45,39.3000015 C72.7,41.0500015 70.45,41.9500015 67.75,41.9500015 C65.4,41.9500015 63.45,41.3000015 61.9,40.1000015 C60.15,38.7500015 59.15,36.8500015 58.9,34.4500015 L55.85,34.4500015 C56.1,37.6500015 57.45,40.2000015 59.9,42.0500015 C62.05,43.7500015 64.65,44.6000015 67.75,44.6000015 C71.25,44.6000015 74.15,43.5000015 76.5,41.3000015 C78.9,39.0000015 80.15,36.0500015 80.15,32.5500015 C80.15,28.7000015 79.05,25.7000015 76.9,23.5000015 C74.8,21.4000015 72.05,20.3500015 68.65,20.3500015 C67,20.3500015 65.45,20.6500015 64,21.3000015 C62.4,21.9500015 61.1,22.9000015 60.05,24.1500015 L59.9,24.1500015 L61.15,11.0000015 L78.8,11.0000015 L78.8,8.20000153 L58.6,8.20000153 Z M98,7.50000153 C102.3,7.50000153 105.5,9.45000153 107.6,13.4000015 C109.3,16.5500015 110.2,20.7500015 110.2,26.0500015 C110.2,31.3000015 109.3,35.5000015 107.6,38.7000015 C105.5,42.6000015 102.3,44.6000015 98,44.6000015 C93.7,44.6000015 90.5,42.6000015 88.4,38.7000015 C86.65,35.5000015 85.8,31.3000015 85.8,26.0500015 C85.8,20.7500015 86.65,16.5500015 88.4,13.4000015 C90.5,9.45000153 93.7,7.50000153 98,7.50000153 Z M98,10.2000015 C94.55,10.2000015 92.05,11.9500015 90.55,15.5000015 C89.45,18.1000015 88.9,21.6500015 88.9,26.0500015 C88.9,30.4500015 89.45,33.9500015 90.55,36.6000015 C92.05,40.1000015 94.55,41.9000015 98,41.9000015 C101.4,41.9000015 103.9,40.1000015 105.45,36.6000015 C106.55,33.9500015 107.15,30.4500015 107.15,26.0500015 C107.15,21.6500015 106.55,18.1000015 105.45,15.5000015 C103.9,11.9500015 101.4,10.2000015 98,10.2000015 Z M130,8.40000153 L142.9,8.40000153 C142.25,6.45000153 141.55,4.70000153 140.85,3.20000153 L143.6,2.70000153 C144.25,4.40000153 144.9,6.30000153 145.5,8.40000153 L158.9,8.40000153 L158.9,11.0000015 L155.1,11.0000015 C153.75,15.2000015 152.25,18.9000015 150.6,22.1000015 L160.2,22.1000015 L160.2,24.7500015 L128.05,24.7500015 L128.05,22.1000015 L137.55,22.1000015 C136.45,18.2000015 135,14.5000015 133.3,11.0000015 L130,11.0000015 L130,8.40000153 Z M147.9,22.1000015 C149.55,18.6500015 151,14.9500015 152.25,11.0000015 L136.25,11.0000015 C137.7,14.2000015 139,17.9000015 140.2,22.1000015 L147.9,22.1000015 Z M155.6,30.4500015 L155.6,48.7000015 L152.85,48.7000015 L152.85,45.9000015 L135.15,45.9000015 L135.15,48.7000015 L132.4,48.7000015 L132.4,30.4500015 L155.6,30.4500015 Z M135.15,43.2500015 L152.85,43.2500015 L152.85,33.1500015 L135.15,33.1500015 L135.15,43.2500015 Z M120.95,20.2500015 C119.35,22.7000015 117.65,25.0000015 115.75,27.2000015 L114.9,24.3000015 C119.95,18.0000015 123.6,10.8500015 125.85,2.85000153 L128.35,4.00000153 C127.1,8.10000153 125.55,12.0000015 123.65,15.6000015 L123.65,48.9000015 L120.95,48.9000015 L120.95,20.2500015 Z M165.9,10.8500015 L175.85,10.8500015 C174.9,8.30000153 173.75,5.80000153 172.45,3.40000153 L175.1,2.70000153 C176.5,5.35000153 177.55,7.80000153 178.3,10.0500015 L176.15,10.8500015 L186.35,10.8500015 L186.35,13.5000015 L173.9,13.5000015 L173.9,18.6500015 C173.9,19.6500015 173.85,20.6500015 173.85,21.6000015 L183.8,21.6000015 C183.8,33.6000015 183.55,41.0000015 183.1,43.7500015 C182.6,46.6500015 180.55,48.1000015 177,48.1000015 C176.3,48.1000015 175.2,48.0500015 173.6,47.9500015 L172.95,45.5500015 C174.35,45.6500015 175.55,45.7000015 176.55,45.7000015 C178.75,45.7000015 180.1,44.7500015 180.5,42.9500015 C180.95,40.8500015 181.2,34.5500015 181.25,24.1000015 L173.75,24.1000015 C173.1,35.0000015 170.85,43.2000015 166.95,48.6500015 L164.85,46.8500015 C169.1,41.0000015 171.25,31.6000015 171.35,18.6500015 L171.35,13.5000015 L165.9,13.5000015 L165.9,10.8500015 Z M193.35,13.7500015 C191.7,18.2500015 189.6,22.0000015 187,25.0000015 L185.3,22.9500015 C189.3,17.9500015 192.05,11.2500015 193.5,2.80000153 L196.15,3.30000153 C195.65,6.10000153 195,8.70000153 194.25,11.1000015 L209.3,11.1000015 L209.3,13.7500015 L205.3,13.7500015 C205,22.0500015 203.1,29.1500015 199.55,35.0000015 C202.6,39.3000015 206.3,43.0500015 210.6,46.3500015 L208.8,48.5000015 C204.5,45.2000015 200.9,41.5000015 197.95,37.4000015 C194.75,41.7500015 190.65,45.3500015 185.55,48.2500015 L184,45.8000015 C189.2,43.0000015 193.35,39.4500015 196.4,35.1500015 C193.9,31.3500015 191.95,27.2000015 190.5,22.7000015 L192.65,21.4500015 C194,25.5000015 195.75,29.2500015 197.95,32.6500015 C200.95,27.3000015 202.55,21.0000015 202.75,13.7500015 L193.35,13.7500015 Z M216.2,16.6000015 L216.2,19.3000015 L235.45,19.3000015 C232.9,32.1000015 226.15,41.2000015 215.2,46.6000015 L216.9,48.8500015 C228,43.1000015 234.95,33.8000015 237.8,20.9000015 C241.45,32.9000015 248.55,42.1500015 259.05,48.5500015 L260.7,46.3500015 C250.2,40.0500015 243.25,31.0500015 239.75,19.3000015 L259.8,19.3000015 L259.8,16.6000015 L238.6,16.6000015 C239.1,13.4500015 239.35,10.0500015 239.35,6.45000153 L239.35,3.25000153 L236.65,3.25000153 L236.65,7.05000153 C236.6,10.3500015 236.35,13.5500015 235.9,16.6000015 L216.2,16.6000015 Z" id="txt6-1"></path>
                </g>
            </g>
        </g>
    </g>
</svg>