<?xml version="1.0" encoding="UTF-8"?>
<svg width="224px" height="15px" viewBox="0 0 224 15" version="1.1" xmlns="http://www.w3.org/2000/svg" xmlns:xlink="http://www.w3.org/1999/xlink">
    <!-- Generator: Sketch 46.2 (44496) - http://www.bohemiancoding.com/sketch -->
    <title>txt6-1-3</title>
    <desc>Created with Sketch.</desc>
    <defs></defs>
    <g id="Page-1" stroke="none" stroke-width="1" fill="none" fill-rule="evenodd">
        <g id="首页" transform="translate(-1061.000000, -5582.000000)" fill="#777777">
            <g id="Group-34" transform="translate(0.000000, 5126.000000)">
                <g id="标题" transform="translate(1061.000000, 348.000000)">
                    <g id="Group-21" transform="translate(0.000000, 108.000000)">
                        <path d="M5.925,11.74 C4.455,12.31 2.73,12.775 0.78,13.12 L0.9,13.915 C2.775,13.555 4.455,13.09 5.925,12.52 L5.925,11.74 Z M3.78,0.88 C3.045,2.74 2.175,4.345 1.185,5.725 C1.08,5.875 0.96,5.98 0.84,6.04 L1.035,6.805 C1.995,6.685 2.985,6.55 3.975,6.4 C2.985,8.02 2.145,9.175 1.44,9.865 C1.335,9.97 1.215,10.045 1.065,10.105 L1.275,10.87 C2.85,10.645 4.47,10.225 6.15,9.625 L6.15,8.875 C4.89,9.34 3.6,9.7 2.31,9.955 C3.345,8.815 4.665,6.805 6.285,3.91 L5.55,3.625 C5.16,4.345 4.785,5.005 4.425,5.635 C3.57,5.785 2.715,5.89 1.875,5.98 C2.775,4.81 3.675,3.22 4.545,1.195 L3.78,0.88 Z M9.96,2.68 L9.96,13.015 L6.315,13.015 L6.315,13.81 L14.31,13.81 L14.31,13.015 L10.77,13.015 L10.77,2.68 L13.92,2.68 L13.92,1.885 L6.735,1.885 L6.735,2.68 L9.96,2.68 Z M21.33,5.86 L20.805,6.355 C21.315,6.73 21.855,7.225 22.425,7.825 C22.92,8.335 23.34,8.845 23.67,9.325 L24.255,8.815 C23.925,8.35 23.505,7.855 23.01,7.33 C22.41,6.715 21.855,6.22 21.33,5.86 Z M31.785,2.155 L34.95,2.155 L34.95,0.805 L35.745,0.805 L35.745,2.155 L39.255,2.155 L39.255,0.79 L40.05,0.79 L40.05,2.155 L43.335,2.155 L43.335,2.905 L40.05,2.905 L40.05,4.48 L44.145,4.48 L44.145,5.215 L37.92,5.215 L37.92,6.58 L42.345,6.58 L42.345,11.62 L32.715,11.62 L32.715,6.58 L37.14,6.58 L37.14,5.215 L30.93,5.215 L30.93,4.48 L34.95,4.48 L34.95,2.905 L31.785,2.905 L31.785,2.155 Z M39.255,4.48 L39.255,2.905 L35.745,2.905 L35.745,4.48 L39.255,4.48 Z M41.565,10.9 L41.565,9.415 L37.92,9.415 L37.92,10.9 L41.565,10.9 Z M37.14,10.9 L37.14,9.415 L33.495,9.415 L33.495,10.9 L37.14,10.9 Z M33.495,8.74 L37.14,8.74 L37.14,7.285 L33.495,7.285 L33.495,8.74 Z M37.92,7.285 L37.92,8.74 L41.565,8.74 L41.565,7.285 L37.92,7.285 Z M39.24,11.98 L38.835,12.58 C40.5,13.03 42.12,13.66 43.71,14.44 L44.16,13.78 C42.675,13.06 41.04,12.46 39.24,11.98 Z M35.58,11.875 C34.35,12.64 32.79,13.255 30.915,13.705 L31.275,14.425 C33.21,13.9 34.8,13.24 36.06,12.445 L35.58,11.875 Z M45.945,1.555 L59.115,1.555 L59.115,2.35 L54.975,2.35 L54.975,4.945 L58.335,4.945 L58.335,12.985 C58.335,13.87 57.93,14.32 57.135,14.32 L55.605,14.32 L55.38,13.54 L56.85,13.57 C57.3,13.57 57.525,13.315 57.525,12.82 L57.525,5.71 L54.945,5.71 C54.915,6.205 54.87,6.67 54.825,7.105 C55.545,8.2 56.295,9.445 57.045,10.855 L56.55,11.59 C55.83,10.06 55.215,8.86 54.705,7.975 C54.345,9.835 53.685,11.275 52.695,12.325 L52.08,11.8 C53.34,10.48 54.045,8.44 54.18,5.71 L50.775,5.71 C50.745,6.28 50.685,6.82 50.61,7.33 C51.21,8.14 51.81,9.04 52.44,10.06 L51.99,10.72 C51.39,9.595 50.88,8.725 50.46,8.11 C50.1,9.73 49.485,11.02 48.615,11.98 L48,11.44 C49.185,10.18 49.86,8.275 50.01,5.71 L47.535,5.71 L47.535,14.41 L46.725,14.41 L46.725,4.945 L50.04,4.945 C50.04,4.795 50.055,4.675 50.055,4.555 L50.055,2.35 L45.945,2.35 L45.945,1.555 Z M50.805,4.945 L54.21,4.945 L54.21,2.35 L50.82,2.35 L50.82,4.555 C50.82,4.675 50.805,4.81 50.805,4.945 Z M69.945,0.835 L70.74,0.835 L70.74,3.565 L73.785,3.565 L73.785,10.195 L72.99,10.195 L72.99,9.37 L70.74,9.37 L70.74,14.47 L69.945,14.47 L69.945,9.37 L67.74,9.37 L67.74,10.195 L66.96,10.195 L66.96,3.565 L69.945,3.565 L69.945,0.835 Z M67.74,8.62 L69.945,8.62 L69.945,4.345 L67.74,4.345 L67.74,8.62 Z M70.74,8.62 L72.99,8.62 L72.99,4.345 L70.74,4.345 L70.74,8.62 Z M61.035,2.785 C61.815,2.695 62.55,2.575 63.24,2.44 L63.24,4.975 L60.84,4.975 L60.84,5.77 L63.18,5.77 C62.67,7.615 61.815,9.265 60.585,10.72 L60.915,11.575 C61.905,10.3 62.685,8.86 63.24,7.27 L63.24,14.56 L64.05,14.56 L64.05,7.36 C64.575,7.975 65.205,8.815 65.925,9.88 L66.39,9.205 C65.595,8.245 64.815,7.375 64.05,6.625 L64.05,5.77 L66.075,5.77 L66.075,4.975 L64.05,4.975 L64.05,2.275 C64.77,2.095 65.43,1.9 66.06,1.675 L65.79,0.925 C64.38,1.45 62.745,1.81 60.885,2.02 L61.035,2.785 Z M80.595,8.425 L80.595,11.41 C81.705,11.23 82.8,11.005 83.895,10.735 L84.045,11.5 C82.815,11.785 81.345,12.07 79.665,12.34 L79.485,11.62 C79.695,11.545 79.8,11.41 79.8,11.23 L79.8,4.93 C82.635,4.765 85.32,4.42 87.855,3.91 L88.275,4.585 C87.255,4.795 86.205,4.975 85.11,5.125 C85.11,6.055 85.155,6.91 85.23,7.66 L88.575,7.66 L88.575,8.425 L85.32,8.425 C85.38,8.875 85.44,9.295 85.53,9.67 C85.8,10.84 86.115,11.74 86.475,12.355 C86.865,12.955 87.225,13.255 87.555,13.27 C87.885,13.21 88.215,12.475 88.545,11.05 L89.235,11.485 C89.025,12.175 88.8,12.76 88.575,13.24 C88.275,13.81 87.96,14.11 87.6,14.11 C87.105,14.11 86.61,13.765 86.115,13.105 C85.62,12.445 85.2,11.485 84.855,10.21 C84.705,9.7 84.6,9.1 84.525,8.425 L80.595,8.425 Z M84.45,7.66 C84.375,6.91 84.33,6.1 84.33,5.23 C83.13,5.38 81.885,5.5 80.595,5.59 L80.595,7.66 L84.45,7.66 Z M82.8,0.745 C83.055,1.18 83.31,1.675 83.55,2.23 L89.13,2.23 L89.13,3.01 L77.94,3.01 L77.94,6.55 C77.88,9.82 77.355,12.43 76.35,14.395 L75.735,13.84 C76.62,12.1 77.085,9.67 77.13,6.55 L77.13,2.23 L82.725,2.23 C82.5,1.735 82.245,1.285 81.96,0.895 L82.8,0.745 Z M79.455,13.3 L84.81,13.3 L84.81,14.05 L79.455,14.05 L79.455,13.3 Z M97.41,5.89 L93.51,5.89 L93.51,8.875 L97.41,8.875 L97.41,5.89 Z M98.205,8.875 L102.045,8.875 L102.045,5.89 L98.205,5.89 L98.205,8.875 Z M94.8,3.01 C93.81,4.12 92.64,5.11 91.29,5.95 L90.75,5.29 C92.76,4.06 94.365,2.53 95.55,0.685 L96.375,0.88 C96.075,1.36 95.76,1.825 95.415,2.26 L100.995,2.26 L100.995,2.89 C100.365,3.775 99.72,4.51 99.075,5.11 L102.855,5.11 L102.855,9.655 L93.51,9.655 L93.51,12.715 C93.51,13.18 93.765,13.42 94.275,13.435 L101.745,13.435 C102.285,13.42 102.66,13.24 102.87,12.895 C103.05,12.595 103.185,11.92 103.275,10.87 L104.07,11.11 C103.98,12.1 103.83,12.82 103.635,13.255 C103.335,13.885 102.78,14.215 101.955,14.23 L94.005,14.23 C93.12,14.23 92.685,13.81 92.685,12.97 L92.685,5.11 L97.98,5.11 C98.67,4.51 99.33,3.805 99.945,3.01 L94.8,3.01 Z M112.515,6.73 C112.26,6.73 112.065,6.79 111.93,6.94 C111.78,7.075 111.705,7.27 111.705,7.51 C111.705,7.72 111.78,7.9 111.93,8.05 C112.08,8.2 112.26,8.275 112.47,8.275 C112.62,8.275 112.725,8.26 112.785,8.23 C112.785,8.59 112.68,8.905 112.485,9.19 C112.26,9.475 111.96,9.685 111.585,9.82 L111.585,10.42 C112.14,10.27 112.59,9.985 112.935,9.565 C113.28,9.115 113.46,8.605 113.46,8.02 C113.46,7.63 113.37,7.315 113.22,7.09 C113.04,6.85 112.815,6.73 112.515,6.73 Z M131.67,8.95 L131.67,14.5 L130.86,14.5 L130.86,13.705 L124.26,13.705 L124.26,14.5 L123.45,14.5 L123.45,8.95 L131.67,8.95 Z M124.26,12.925 L130.86,12.925 L130.86,9.715 L124.26,9.715 L124.26,12.925 Z M125.685,0.655 L126.48,0.85 C126.24,1.285 125.985,1.705 125.715,2.11 L131.565,2.11 L131.565,2.77 C130.65,4.075 129.54,5.17 128.235,6.07 C129.915,7.03 131.94,7.69 134.31,8.065 L133.95,8.8 C131.43,8.365 129.285,7.6 127.53,6.52 C125.715,7.6 123.57,8.38 121.11,8.86 L120.75,8.14 C123.105,7.735 125.13,7.045 126.825,6.055 C125.895,5.395 125.07,4.63 124.38,3.775 C123.72,4.495 122.985,5.14 122.175,5.725 L121.635,5.11 C123.33,3.94 124.68,2.455 125.685,0.655 Z M124.875,3.22 C125.595,4.15 126.48,4.96 127.515,5.635 C128.685,4.855 129.69,3.925 130.53,2.875 L125.16,2.875 C125.07,2.995 124.965,3.1 124.875,3.22 Z M138.465,2.29 C138.105,2.71 137.67,3.085 137.19,3.4 C136.71,3.7 136.215,3.925 135.72,4.075 L135.72,5.005 C136.74,4.705 137.595,4.18 138.285,3.43 L138.285,13 L139.215,13 L139.215,2.29 L138.465,2.29 Z M145.47,2.08 C146.76,2.08 147.72,2.665 148.35,3.85 C148.86,4.795 149.13,6.055 149.13,7.645 C149.13,9.22 148.86,10.48 148.35,11.44 C147.72,12.61 146.76,13.21 145.47,13.21 C144.18,13.21 143.22,12.61 142.59,11.44 C142.065,10.48 141.81,9.22 141.81,7.645 C141.81,6.055 142.065,4.795 142.59,3.85 C143.22,2.665 144.18,2.08 145.47,2.08 Z M145.47,2.89 C144.435,2.89 143.685,3.415 143.235,4.48 C142.905,5.26 142.74,6.325 142.74,7.645 C142.74,8.965 142.905,10.015 143.235,10.81 C143.685,11.86 144.435,12.4 145.47,12.4 C146.49,12.4 147.24,11.86 147.705,10.81 C148.035,10.015 148.215,8.965 148.215,7.645 C148.215,6.325 148.035,5.26 147.705,4.48 C147.24,3.415 146.49,2.89 145.47,2.89 Z M155.19,11.455 L155.19,12.235 C153.87,12.775 152.385,13.225 150.72,13.555 L150.6,12.745 C152.34,12.43 153.87,11.995 155.19,11.455 Z M153.495,0.79 L154.275,1.105 C153.435,3.085 152.595,4.63 151.755,5.77 C152.58,5.695 153.405,5.59 154.245,5.44 C154.545,4.93 154.86,4.375 155.175,3.805 L155.895,4.09 C154.395,6.67 153.18,8.47 152.25,9.475 C153.42,9.28 154.59,8.995 155.76,8.62 L155.76,9.385 C154.2,9.85 152.685,10.18 151.23,10.36 L151.005,9.595 C151.155,9.535 151.275,9.46 151.38,9.37 C152.055,8.725 152.85,7.66 153.78,6.19 C152.82,6.34 151.89,6.46 150.96,6.565 L150.765,5.815 C150.885,5.77 151.005,5.665 151.11,5.515 C152.025,4.165 152.82,2.59 153.495,0.79 Z M157.575,2.26 L156.015,2.26 L156.015,1.48 L162.435,1.48 L162.435,1.99 C162.18,3.4 161.925,4.615 161.685,5.605 L163.635,5.605 L163.635,6.085 C163.32,8.185 162.6,9.94 161.49,11.38 C162.285,12.28 163.23,13.075 164.325,13.765 L163.815,14.44 C162.705,13.72 161.76,12.895 160.98,11.98 C160.08,12.97 158.955,13.81 157.605,14.47 L157.14,13.735 C158.475,13.075 159.585,12.28 160.455,11.335 C159.405,9.97 158.655,8.41 158.175,6.64 C157.755,10.03 156.735,12.61 155.13,14.41 L154.515,13.885 C156.525,11.665 157.545,8.095 157.575,3.19 L157.575,2.26 Z M160.95,10.75 C161.91,9.49 162.54,8.02 162.84,6.34 L160.74,6.34 C160.995,5.41 161.28,4.06 161.595,2.26 L158.385,2.26 L158.385,3.19 C158.385,3.7 158.37,4.18 158.34,4.66 C158.715,7 159.585,9.04 160.95,10.75 Z M172.35,5.89 L168.45,5.89 L168.45,8.875 L172.35,8.875 L172.35,5.89 Z M173.145,8.875 L176.985,8.875 L176.985,5.89 L173.145,5.89 L173.145,8.875 Z M169.74,3.01 C168.75,4.12 167.58,5.11 166.23,5.95 L165.69,5.29 C167.7,4.06 169.305,2.53 170.49,0.685 L171.315,0.88 C171.015,1.36 170.7,1.825 170.355,2.26 L175.935,2.26 L175.935,2.89 C175.305,3.775 174.66,4.51 174.015,5.11 L177.795,5.11 L177.795,9.655 L168.45,9.655 L168.45,12.715 C168.45,13.18 168.705,13.42 169.215,13.435 L176.685,13.435 C177.225,13.42 177.6,13.24 177.81,12.895 C177.99,12.595 178.125,11.92 178.215,10.87 L179.01,11.11 C178.92,12.1 178.77,12.82 178.575,13.255 C178.275,13.885 177.72,14.215 176.895,14.23 L168.945,14.23 C168.06,14.23 167.625,13.81 167.625,12.97 L167.625,5.11 L172.92,5.11 C173.61,4.51 174.27,3.805 174.885,3.01 L169.74,3.01 Z M183.225,1.375 L191.715,1.375 L191.715,5.23 L183.225,5.23 L183.225,1.375 Z M190.905,4.495 L190.905,2.125 L184.035,2.125 L184.035,4.495 L190.905,4.495 Z M184.305,7.54 L183.615,10.27 L191.13,10.27 C191.04,11.755 190.89,12.685 190.695,13.045 C190.485,13.405 189.975,13.6 189.135,13.6 C188.535,13.6 187.83,13.57 187.02,13.525 L187.305,14.275 C187.905,14.305 188.565,14.335 189.315,14.335 C190.305,14.335 190.965,14.11 191.31,13.69 C191.64,13.225 191.865,11.83 191.97,9.52 L184.575,9.52 L185.145,7.54 L194.13,7.54 L194.13,6.745 L180.795,6.745 L180.795,7.54 L184.305,7.54 Z M195.915,3.805 L197.88,3.805 L197.88,0.79 L198.675,0.79 L198.675,3.805 L200.31,3.805 L200.31,4.6 L198.675,4.6 L198.675,5.455 C199.305,6.175 199.935,6.985 200.565,7.885 L200.115,8.575 C199.56,7.615 199.08,6.835 198.675,6.25 L198.675,14.395 L197.88,14.395 L197.88,6.49 C197.37,8.2 196.665,9.73 195.795,11.095 L195.45,10.225 C196.59,8.575 197.385,6.7 197.85,4.6 L195.915,4.6 L195.915,3.805 Z M202.605,5.2 L207.09,5.2 L207.09,5.98 L202.605,5.98 L202.605,5.2 Z M200.565,13.195 L205.8,13.195 C206.46,11.575 207.03,9.565 207.525,7.165 L208.29,7.36 C207.84,9.565 207.27,11.515 206.595,13.195 L209.085,13.195 L209.085,13.99 L200.565,13.99 L200.565,13.195 Z M202.05,7.57 C202.485,8.83 202.875,10.285 203.205,11.92 L202.485,12.115 C202.185,10.615 201.795,9.19 201.345,7.81 L202.05,7.57 Z M204.405,7 C204.795,8.23 205.155,9.625 205.47,11.2 L204.735,11.395 C204.465,9.955 204.135,8.56 203.715,7.24 L204.405,7 Z M204.42,0.82 L205.185,0.82 C205.995,2.74 207.405,4.42 209.4,5.875 L208.935,6.565 C207.075,5.23 205.695,3.58 204.795,1.615 C203.715,3.775 202.335,5.44 200.685,6.61 L200.235,5.92 C202.035,4.6 203.43,2.905 204.42,0.82 Z M211.485,1.165 C212.34,1.825 213.06,2.47 213.645,3.13 L213.105,3.67 C212.565,3.04 211.845,2.38 210.93,1.69 L211.485,1.165 Z M211.245,4.84 L210.705,5.38 C211.575,6.13 212.28,6.835 212.805,7.51 L213.345,6.97 C212.775,6.25 212.085,5.545 211.245,4.84 Z M212.79,8.83 C212.22,10.57 211.56,12.295 210.78,13.975 L211.515,14.29 C212.235,12.67 212.895,10.93 213.48,9.1 L212.79,8.83 Z M219.225,1.54 L219.225,10.6 L218.475,10.6 L218.475,2.245 L215.16,2.245 L215.16,10.69 L214.425,10.69 L214.425,1.54 L219.225,1.54 Z M217.605,11.365 C218.55,12.22 219.345,13.075 219.99,13.93 L219.435,14.47 C218.865,13.645 218.085,12.775 217.11,11.86 L217.605,11.365 Z M216.465,3.4 L217.185,3.4 L217.185,8.2 C217.155,9.88 216.9,11.23 216.39,12.25 C215.895,13.18 215.085,13.915 213.96,14.455 L213.525,13.78 C214.605,13.27 215.385,12.58 215.835,11.71 C216.24,10.81 216.45,9.64 216.465,8.2 L216.465,3.4 Z M222.585,14.35 L220.92,14.35 L220.755,13.6 C221.295,13.63 221.82,13.66 222.315,13.66 C222.675,13.66 222.87,13.435 222.87,13.015 L222.87,0.865 L223.635,0.865 L223.635,13.21 C223.635,13.96 223.275,14.35 222.585,14.35 Z M220.62,2.095 L221.355,2.095 L221.355,11.515 L220.62,11.515 L220.62,2.095 Z" id="txt6-1-3"></path>
                    </g>
                </g>
            </g>
        </g>
    </g>
</svg>