<?xml version="1.0" encoding="UTF-8"?>
<svg width="197px" height="47px" viewBox="0 0 197 47" version="1.1" xmlns="http://www.w3.org/2000/svg" xmlns:xlink="http://www.w3.org/1999/xlink">
    <!-- Generator: Sketch 46.2 (44496) - http://www.bohemiancoding.com/sketch -->
    <title>txt6-1-1</title>
    <desc>Created with Sketch.</desc>
    <defs></defs>
    <g id="Page-1" stroke="none" stroke-width="1" fill="none" fill-rule="evenodd">
        <g id="首页" transform="translate(-1088.000000, -5474.000000)" fill="#38393B">
            <g id="Group-34" transform="translate(0.000000, 5126.000000)">
                <g id="标题" transform="translate(1061.000000, 348.000000)">
                    <path d="M47.8,9.8 L47.8,12.4 L57.6,12.4 L57.6,17.65 C57.6,19.55 57.45,21.4 57.2,23.25 L46.4,23.25 L46.4,25.85 L56.75,25.85 C55.2,33.15 51.45,39.55 45.55,45.05 L47.65,46.8 C53.25,41.5 56.95,35.35 58.85,28.35 C61.45,35.75 65.65,41.95 71.35,46.85 L73.1,44.8 C67.3,40.1 63.1,33.75 60.55,25.85 L72.05,25.85 L72.05,23.25 L59.85,23.25 C60.05,21.45 60.2,19.55 60.25,17.65 L60.25,12.4 L70.05,12.4 L70.05,9.8 L60.25,9.8 L60.25,1.45 L57.6,1.45 L57.6,9.8 L47.8,9.8 Z M43.8,3.55 L43.8,43 C43.8,45.5 42.5,46.75 39.95,46.75 L36.35,46.75 L35.7,44.3 C36.9,44.35 38.05,44.4 39.15,44.4 C40.55,44.4 41.3,43.6 41.3,42.1 L41.3,29.35 C38.8,30.1 36.05,30.75 33.15,31.25 C32.85,37.6 31.75,42.85 29.95,47 L27.9,45.15 C29.75,40.45 30.7,34.5 30.75,27.3 L30.75,3.55 L43.8,3.55 Z M33.25,28.7 C36.2,28.2 38.9,27.6 41.3,26.85 L41.3,19.55 C38.7,18.65 36,17.9 33.3,17.4 L33.3,27.15 C33.3,27.65 33.25,28.2 33.25,28.7 Z M33.3,14.95 C36.1,15.5 38.75,16.2 41.3,17.1 L41.3,6.1 L33.3,6.1 L33.3,14.95 Z M99.6,18.3 L86.6,18.3 L86.6,28.25 L99.6,28.25 L99.6,18.3 Z M102.25,28.25 L115.05,28.25 L115.05,18.3 L102.25,18.3 L102.25,28.25 Z M90.9,8.7 C87.6,12.4 83.7,15.7 79.2,18.5 L77.4,16.3 C84.1,12.2 89.45,7.1 93.4,0.95 L96.15,1.6 C95.15,3.2 94.1,4.75 92.95,6.2 L111.55,6.2 L111.55,8.3 C109.45,11.25 107.3,13.7 105.15,15.7 L117.75,15.7 L117.75,30.85 L86.6,30.85 L86.6,41.05 C86.6,42.6 87.45,43.4 89.15,43.45 L114.05,43.45 C115.85,43.4 117.1,42.8 117.8,41.65 C118.4,40.65 118.85,38.4 119.15,34.9 L121.8,35.7 C121.5,39 121,41.4 120.35,42.85 C119.35,44.95 117.5,46.05 114.75,46.1 L88.25,46.1 C85.3,46.1 83.85,44.7 83.85,41.9 L83.85,15.7 L101.5,15.7 C103.8,13.7 106,11.35 108.05,8.7 L90.9,8.7 Z M130.05,2.55 C132.9,4.75 135.3,6.9 137.25,9.1 L135.45,10.9 C133.65,8.8 131.25,6.6 128.2,4.3 L130.05,2.55 Z M129.25,14.8 L127.45,16.6 C130.35,19.1 132.7,21.45 134.45,23.7 L136.25,21.9 C134.35,19.5 132.05,17.15 129.25,14.8 Z M134.4,28.1 C132.5,33.9 130.3,39.65 127.7,45.25 L130.15,46.3 C132.55,40.9 134.75,35.1 136.7,29 L134.4,28.1 Z M155.85,3.8 L155.85,34 L153.35,34 L153.35,6.15 L142.3,6.15 L142.3,34.3 L139.85,34.3 L139.85,3.8 L155.85,3.8 Z M150.45,36.55 C153.6,39.4 156.25,42.25 158.4,45.1 L156.55,46.9 C154.65,44.15 152.05,41.25 148.8,38.2 L150.45,36.55 Z M146.65,10 L149.05,10 L149.05,26 C148.95,31.6 148.1,36.1 146.4,39.5 C144.75,42.6 142.05,45.05 138.3,46.85 L136.85,44.6 C140.45,42.9 143.05,40.6 144.55,37.7 C145.9,34.7 146.6,30.8 146.65,26 L146.65,10 Z M167.05,46.5 L161.5,46.5 L160.95,44 C162.75,44.1 164.5,44.2 166.15,44.2 C167.35,44.2 168,43.45 168,42.05 L168,1.55 L170.55,1.55 L170.55,42.7 C170.55,45.2 169.35,46.5 167.05,46.5 Z M160.5,5.65 L162.95,5.65 L162.95,37.05 L160.5,37.05 L160.5,5.65 Z M198.95,24.45 L193.95,24.45 L193.95,21.9 L206.6,21.9 L206.6,24.45 L201.6,24.45 L201.6,38.9 C203.95,38.35 206.25,37.75 208.55,37.1 L208.55,39.7 C204.15,41 199.45,42.05 194.4,42.9 L193.75,40.3 L198.95,39.4 L198.95,24.45 Z M217.45,45.95 C215.85,45.95 214.4,44.65 213.1,42.1 C211.65,39.2 210.6,35.1 210,29.9 C209.4,25.45 209.05,19.9 208.85,13.25 L192.8,13.25 L192.8,10.55 L208.8,10.55 C208.7,7.55 208.7,4.4 208.7,1.1 L211.4,1.1 C211.4,4.5 211.4,7.65 211.5,10.55 L221.7,10.55 L221.7,13.25 L211.55,13.25 C211.8,22.55 212.4,29.6 213.3,34.35 C214.45,39.95 215.85,42.85 217.45,43 C218.65,42.8 219.85,39.65 221,33.45 L223.1,35.2 C221.55,42.35 219.65,45.95 217.45,45.95 Z M215.7,1.05 C217.9,3.55 219.65,5.7 220.85,7.55 L218.9,8.9 C217.65,6.9 215.95,4.7 213.8,2.3 L215.7,1.05 Z M182.7,1.8 L180.75,3.65 C184.25,6.45 187,9.15 189.05,11.65 L190.95,9.75 C188.75,7.1 186,4.45 182.7,1.8 Z M177.2,16.85 L187.15,16.85 L187.15,39.55 C188.85,38.05 190.65,36.2 192.55,34.1 L193.25,36.95 C190.55,39.9 187.7,42.55 184.65,44.9 L183.6,42.45 C184.2,41.9 184.55,41.35 184.55,40.75 L184.55,19.5 L177.2,19.5 L177.2,16.85 Z" id="txt6-1-1"></path>
                </g>
            </g>
        </g>
    </g>
</svg>