<?xml version="1.0" encoding="UTF-8"?>
<svg width="332px" height="78px" viewBox="0 0 332 78" version="1.1" xmlns="http://www.w3.org/2000/svg" xmlns:xlink="http://www.w3.org/1999/xlink">
    <!-- Generator: Sketch 45.2 (43514) - http://www.bohemiancoding.com/sketch -->
    <title>txt7-2</title>
    <desc>Created with Sketch.</desc>
    <defs>
        <polygon id="path-1" points="25.3318625 0.0921630675 25.3318625 26.0650857 0.170953049 26.0650857 0.170953049 0.0921630675 25.3318625 0.0921630675"></polygon>
        <polygon id="path-3" points="0 13.8441689 0 0.089104432 29.6213508 0.089104432 29.6213508 13.8441689 4.52456399e-15 13.8441689"></polygon>
    </defs>
    <g id="Page-1" stroke="none" stroke-width="1" fill="none" fill-rule="evenodd">
        <g id="新版" transform="translate(-793.000000, -6630.000000)">
            <g id="txt7-2" transform="translate(793.000000, 6630.000000)">
                <g id="Group-20" transform="translate(173.000000, 1.000000)">
                    <path d="M0.65,2.29 L27.41,2.29 L27.41,4.39 L23.45,4.39 L23.45,24.79 C23.45,26.77 22.49,27.79 20.57,27.79 L15.56,27.79 L15.08,25.69 C16.73,25.75 18.32,25.81 19.82,25.81 C20.78,25.81 21.29,25.27 21.29,24.25 L21.29,4.39 L0.65,4.39 L0.65,2.29 Z M15.8,8.98 L15.8,19.99 L6.23,19.99 L6.23,22.63 L4.13,22.63 L4.13,8.98 L15.8,8.98 Z M6.23,18.01 L13.73,18.01 L13.73,10.93 L6.23,10.93 L6.23,18.01 Z M35.96,4.06 C35.24,4.84 34.46,5.5 33.62,6.1 L43.16,6.1 L43.16,4.06 L35.96,4.06 Z M33.14,6.1 L32.09,4.84 C33.83,3.73 35.24,2.29 36.38,0.52 L38.27,0.97 C37.97,1.45 37.67,1.93 37.37,2.38 L43.16,2.38 L43.16,0.37 L45.2,0.37 L45.2,2.38 L54.71,2.38 L54.71,4.06 L45.2,4.06 L45.2,6.1 L57.29,6.1 L57.29,7.78 L45.2,7.78 L45.2,9.25 L53.99,9.25 L53.99,14.59 L47.36,14.59 L47.36,16.3 L56.27,16.3 L56.27,17.95 L47.36,17.95 L47.36,19.72 L55.22,19.72 L55.22,21.37 L47.36,21.37 L47.36,23.23 L57.29,23.23 L57.29,24.91 L47.36,24.91 L47.36,28.21 L45.26,28.21 L45.26,14.59 L42.68,14.59 L42.68,19.78 C42.68,22.09 42.2,23.89 41.24,25.21 C40.19,26.56 38.57,27.55 36.35,28.21 L35.33,26.65 C37.13,26.11 38.48,25.3 39.41,24.22 L39.47,24.16 C37.28,24.4 34.43,24.64 30.95,24.82 L30.68,23.11 C34.55,22.99 37.73,22.84 40.22,22.63 C40.37,22.18 40.49,21.7 40.55,21.22 L32.48,21.22 L32.48,19.6 L40.64,19.6 L40.64,17.98 L31.58,17.98 L31.58,16.3 L40.64,16.3 L40.64,14.59 L33.95,14.59 L33.95,9.25 L43.16,9.25 L43.16,7.78 L30.71,7.78 L30.71,6.1 L33.14,6.1 Z M51.92,13.03 L51.92,10.78 L36.02,10.78 L36.02,13.03 L51.92,13.03 Z M61.22,6.28 C61.13,9.16 60.77,11.89 60.14,14.47 L61.91,14.98 C62.51,12.28 62.87,9.4 62.93,6.4 L61.22,6.28 Z M68.75,5.65 L67.16,6.16 C67.85,7.84 68.42,9.61 68.87,11.44 L70.37,11.05 C70.1,11.65 69.8,12.28 69.47,12.94 L71.06,14.38 C72.11,12.52 72.92,10.48 73.46,8.29 L78.14,8.29 L78.14,15.55 L71.27,15.55 L71.27,17.68 L78.14,17.68 L78.14,25 L69.56,25 L69.56,27.1 L87.68,27.1 L87.68,25 L80.36,25 L80.36,17.68 L86.45,17.68 L86.45,15.55 L80.36,15.55 L80.36,8.29 L86.9,8.29 L86.9,6.22 L80.36,6.22 L80.36,0.61 L78.14,0.61 L78.14,6.22 L73.85,6.22 C74.03,5.08 74.15,3.88 74.21,2.62 L72.26,2.35 C72.11,5.32 71.51,8.11 70.49,10.72 C69.98,8.8 69.41,7.12 68.75,5.65 Z M64.46,0.58 L64.46,27.88 L66.65,27.88 L66.65,0.58 L64.46,0.58 Z" id="可靠性" fill="#454545"></path>
                    <path d="M3.2805,51.862 C2.8725,52.338 2.3795,52.763 1.8355,53.12 C1.2915,53.46 0.7305,53.715 0.1695,53.885 L0.1695,54.939 C1.3255,54.599 2.2945,54.004 3.0765,53.154 L3.0765,64 L4.1305,64 L4.1305,51.862 L3.2805,51.862 Z M8.3125,62.3 C8.0575,62.3 7.8535,62.385 7.7005,62.555 C7.5305,62.725 7.4455,62.929 7.4455,63.167 C7.4455,63.405 7.5305,63.626 7.7005,63.796 C7.8535,63.949 8.0575,64.034 8.3125,64.034 C8.5505,64.034 8.7545,63.949 8.9245,63.796 C9.0945,63.626 9.1795,63.405 9.1795,63.167 C9.1795,62.929 9.0945,62.725 8.9245,62.555 C8.7545,62.385 8.5505,62.3 8.3125,62.3 Z M12.4095,51.862 L11.7975,58.492 L12.7835,58.492 C13.0555,57.982 13.4465,57.574 13.9565,57.285 C14.4495,57.013 15.0105,56.877 15.6225,56.877 C16.5575,56.877 17.3055,57.149 17.8495,57.71 C18.4105,58.288 18.6995,59.104 18.6995,60.141 C18.6995,61.059 18.3935,61.824 17.7985,62.436 C17.2035,63.031 16.4385,63.337 15.5205,63.337 C14.7215,63.337 14.0585,63.116 13.5315,62.708 C12.9365,62.249 12.5965,61.603 12.5115,60.787 L11.4745,60.787 C11.5595,61.875 12.0185,62.742 12.8515,63.371 C13.5825,63.949 14.4665,64.238 15.5205,64.238 C16.7105,64.238 17.6965,63.864 18.4955,63.116 C19.3115,62.334 19.7365,61.331 19.7365,60.141 C19.7365,58.832 19.3625,57.812 18.6315,57.064 C17.9175,56.35 16.9825,55.993 15.8265,55.993 C15.2655,55.993 14.7385,56.095 14.2455,56.316 C13.7015,56.537 13.2595,56.86 12.9025,57.285 L12.8515,57.285 L13.2765,52.814 L19.2775,52.814 L19.2775,51.862 L12.4095,51.862 Z M25.3465,54.973 C24.2755,54.973 23.4255,55.483 22.7965,56.537 L22.7965,55.211 L21.7765,55.211 L21.7765,64 L22.7965,64 L22.7965,58.594 C22.7965,57.829 23.0175,57.183 23.4765,56.656 C23.9185,56.112 24.4625,55.857 25.1255,55.857 C26.5875,55.857 27.3185,56.69 27.3185,58.39 L27.3185,64 L28.3555,64 L28.3555,58.407 C28.3555,57.659 28.5595,57.064 29.0015,56.588 C29.4265,56.095 29.9535,55.857 30.5995,55.857 C31.3815,55.857 31.9765,56.078 32.3505,56.52 C32.6905,56.928 32.8605,57.557 32.8605,58.39 L32.8605,64 L33.8805,64 L33.8805,58.254 C33.8805,57.217 33.6085,56.418 33.0815,55.84 C32.5375,55.262 31.7895,54.973 30.8715,54.973 C30.2595,54.973 29.7155,55.126 29.2735,55.432 C28.7975,55.738 28.4065,56.18 28.1005,56.775 C27.6585,55.568 26.7405,54.973 25.3465,54.973 Z M49.0615,52.253 L49.0615,65.649 L48.1435,65.649 L48.1435,64.493 L38.7595,64.493 L38.7595,65.649 L37.8415,65.649 L37.8415,52.253 L41.4285,52.253 C41.8365,51.556 42.1425,50.842 42.3295,50.094 L43.2645,50.23 C43.0605,50.944 42.7715,51.624 42.3975,52.253 L49.0615,52.253 Z M38.7595,63.609 L48.1435,63.609 L48.1435,60.566 L38.7595,60.566 L38.7595,63.609 Z M38.7595,59.682 L48.1435,59.682 L48.1435,56.843 L38.7595,56.843 L38.7595,59.682 Z M38.7595,55.959 L48.1435,55.959 L48.1435,53.137 L38.7595,53.137 L38.7595,55.959 Z M66.6395,53.001 L66.6395,65.581 L65.7215,65.581 L65.7215,64.408 L55.1815,64.408 L55.1815,65.581 L54.2635,65.581 L54.2635,53.001 L59.9925,53.001 L59.9925,50.23 L60.9105,50.23 L60.9105,53.001 L66.6395,53.001 Z M55.1815,63.507 L59.9925,63.507 L59.9925,59.002 L55.1815,59.002 L55.1815,63.507 Z M60.9105,63.507 L65.7215,63.507 L65.7215,59.002 L60.9105,59.002 L60.9105,63.507 Z M55.1815,58.135 L59.9925,58.135 L59.9925,53.868 L55.1815,53.868 L55.1815,58.135 Z M60.9105,53.868 L60.9105,58.135 L65.7215,58.135 L65.7215,53.868 L60.9105,53.868 Z M69.9375,51.148 L69.9375,52.049 L76.5505,52.049 L76.5505,65.7 L77.4515,65.7 L77.4515,55.84 C79.0835,56.707 81.0725,57.931 83.4355,59.529 L83.9795,58.713 C81.7695,57.268 79.5935,55.993 77.4515,54.888 L77.4515,52.049 L84.9485,52.049 L84.9485,51.148 L69.9375,51.148 Z M88.4165,53.443 C89.4875,54.089 90.3885,54.718 91.1025,55.347 L90.4565,55.993 C89.7935,55.381 88.8925,54.735 87.7705,54.055 L88.4165,53.443 Z M87.7705,56.894 L87.1245,57.506 C88.2805,58.169 89.2155,58.798 89.8955,59.393 L90.5415,58.747 C89.7935,58.135 88.8585,57.506 87.7705,56.894 Z M89.4535,60.481 C88.7735,62.011 87.9745,63.524 87.0565,65.003 L87.9575,65.394 C88.7905,63.966 89.5555,62.436 90.2355,60.804 L89.4535,60.481 Z M100.0785,60.685 L100.0785,65.683 L99.2285,65.683 L99.2285,64.935 L93.5505,64.935 L93.5505,65.683 L92.6835,65.683 L92.6835,60.685 L100.0785,60.685 Z M93.5505,64.119 L99.2285,64.119 L99.2285,61.501 L93.5505,61.501 L93.5505,64.119 Z M94.8765,53.137 L95.7435,53.273 C95.5565,53.732 95.3355,54.174 95.0805,54.582 L100.1975,54.582 L100.1975,55.245 C99.4835,56.418 98.4635,57.455 97.1715,58.339 C98.5995,59.104 100.2995,59.682 102.3055,60.09 L101.7785,60.872 C99.6365,60.413 97.8345,59.75 96.3725,58.866 C94.9445,59.716 93.2445,60.43 91.2725,61.025 L90.7285,60.311 C92.6325,59.767 94.2645,59.121 95.6075,58.373 C94.7915,57.795 94.1115,57.166 93.5505,56.469 C92.9045,57.081 92.1735,57.625 91.3745,58.118 L90.8305,57.421 C92.8365,56.248 94.1795,54.82 94.8765,53.137 Z M94.0945,55.891 C94.7065,56.656 95.4715,57.319 96.3895,57.897 C97.5455,57.149 98.4635,56.316 99.1435,55.398 L94.5195,55.398 C94.3665,55.568 94.2305,55.738 94.0945,55.891 Z M87.1755,51.369 L90.9665,51.369 L90.9665,50.162 L91.8335,50.162 L91.8335,51.369 L93.9755,51.369 L93.9755,52.168 L91.8335,52.168 L91.8335,53.494 L90.9665,53.494 L90.9665,52.168 L87.1755,52.168 L87.1755,51.369 Z M97.0865,50.162 L97.9535,50.162 L97.9535,51.369 L101.7445,51.369 L101.7445,52.168 L97.9535,52.168 L97.9535,53.494 L97.0865,53.494 L97.0865,52.168 L94.9275,52.168 L94.9275,51.369 L97.0865,51.369 L97.0865,50.162 Z M122.5015,65.394 L119.4755,65.394 C118.5575,65.394 118.1155,64.935 118.1155,64.051 L118.1155,58.577 L119.0335,58.577 L119.0335,63.847 C119.0335,64.289 119.2545,64.527 119.7305,64.527 L122.3315,64.527 C122.7905,64.527 123.1135,64.408 123.2835,64.187 C123.5215,63.915 123.6915,63.099 123.7765,61.756 L124.6435,62.045 C124.5415,63.609 124.3035,64.578 123.9465,64.952 C123.6405,65.241 123.1645,65.394 122.5015,65.394 Z M110.9585,51.182 L122.9945,51.182 L122.9945,52.1 L116.8745,52.1 L116.8745,53.358 C116.8405,54.48 116.7725,55.517 116.6535,56.486 L124.4225,56.486 L124.4225,57.387 L116.5005,57.387 C116.2285,58.883 115.7865,60.192 115.2085,61.28 C114.1545,63.116 112.4545,64.561 110.0745,65.615 L109.5475,64.799 C111.8935,63.762 113.5595,62.351 114.5455,60.549 C114.9875,59.631 115.3275,58.577 115.5655,57.387 L109.7855,57.387 L109.7855,56.486 L115.7185,56.486 C115.8545,55.5 115.9225,54.463 115.9395,53.358 L115.9395,52.1 L110.9585,52.1 L110.9585,51.182 Z M135.6935,54.072 C135.1325,55.568 134.4355,56.826 133.6025,57.846 L133.0245,57.149 C134.3845,55.398 135.3195,53.052 135.8125,50.094 L136.6795,50.264 C136.4925,51.318 136.2715,52.27 135.9995,53.154 L141.6265,53.154 L141.6265,54.072 L140.1815,54.072 C140.0965,57.132 139.3485,59.699 137.9545,61.773 C138.9405,62.997 140.2325,64.068 141.8305,64.952 L141.2695,65.683 C139.6715,64.799 138.3795,63.745 137.3935,62.521 C136.4415,63.711 135.2345,64.731 133.8065,65.564 L133.3135,64.799 C134.7585,63.983 135.9485,62.997 136.8665,61.807 C135.7955,60.26 135.1155,58.492 134.8265,56.503 L135.6085,56.265 C135.8635,58.05 136.4585,59.648 137.4105,61.042 C138.6005,59.138 139.2295,56.809 139.2975,54.072 L135.6935,54.072 Z M133.1095,58.39 L133.1095,64.17 L128.2645,64.17 L128.2645,65.394 L127.3805,65.394 L127.3805,58.39 L129.7775,58.39 L129.7775,54.684 L126.6155,54.684 L126.6155,53.8 L129.7775,53.8 L129.7775,50.366 L130.6785,50.366 L130.6785,53.8 L133.6535,53.8 L133.6535,54.684 L130.6785,54.684 L130.6785,58.39 L133.1095,58.39 Z M128.2645,63.32 L132.2255,63.32 L132.2255,59.24 L128.2645,59.24 L128.2645,63.32 Z M149.5315,51.522 L153.3055,51.522 C153.1695,51.046 153.0165,50.604 152.8465,50.213 L153.7815,50.043 C153.9345,50.468 154.0875,50.961 154.2235,51.522 L158.2695,51.522 L158.2695,52.321 L156.6205,52.321 C156.4675,53.001 156.2465,53.664 155.9745,54.293 L158.6265,54.293 L158.6265,55.092 L148.8345,55.092 L148.8345,54.293 L151.6905,54.293 C151.5205,53.579 151.3165,52.916 151.1125,52.321 L149.5315,52.321 L149.5315,51.522 Z M155.0735,54.293 C155.3625,53.647 155.5665,53.001 155.7025,52.321 L152.0475,52.321 C152.2345,52.916 152.4215,53.579 152.5915,54.293 L155.0735,54.293 Z M150.0245,56.367 L157.5725,56.367 L157.5725,61.297 L154.3085,61.297 L154.3085,62.725 L158.7625,62.725 L158.7625,63.524 L154.3085,63.524 L154.3085,65.666 L153.3905,65.666 L153.3905,63.524 L148.8515,63.524 L148.8515,62.725 L153.3905,62.725 L153.3905,61.297 L150.0245,61.297 L150.0245,56.367 Z M156.7055,60.515 L156.7055,59.24 L150.9425,59.24 L150.9425,60.515 L156.7055,60.515 Z M150.9425,58.509 L156.7055,58.509 L156.7055,57.132 L150.9425,57.132 L150.9425,58.509 Z M144.1255,50.876 L144.1255,65.666 L145.0435,65.666 L145.0435,51.743 L147.8655,51.743 C147.4575,53.239 146.8795,54.905 146.1485,56.775 C147.2365,58.237 147.7805,59.563 147.7805,60.753 C147.7805,61.178 147.6785,61.484 147.4915,61.654 C147.2705,61.824 146.8625,61.943 146.2675,61.994 C146.1315,61.994 145.9445,61.977 145.7405,61.943 L146.0635,62.878 C147.0835,62.861 147.8145,62.657 148.2225,62.283 C148.5285,61.96 148.6815,61.45 148.6985,60.753 C148.6305,59.478 148.0865,58.101 147.0665,56.639 C147.7465,54.905 148.3245,53.222 148.8005,51.607 L148.8005,50.876 L144.1255,50.876 Z" id="1.5m自由下落-无故障" fill="#B3B3B3"></path>
                </g>
                <g id="Page-1">
                    <polygon id="Fill-1" fill="#B4BAC3" points="60.7304567 0.221630651 46.1156738 13.2291045 43.6799135 29.506844 36.7786296 41.3550736 21.3520742 48.5924814 19.3220895 63.2257786 8.76705453 72.4822218 8.76705453 77.0460533 19.3220895 77.0460533 60.7304567 77.0460533"></polygon>
                    <g id="Group-18" transform="translate(0.000000, 0.132548)">
                        <path d="M90.0864706,39.0137771 C89.0272037,38.0535771 87.3910405,38.1349237 86.4320554,39.1955324 C85.4728489,40.2561411 85.5540925,41.8943771 86.6133593,42.8545771 C87.6726262,43.8149987 89.3087894,43.7334305 90.2679959,42.6728218 C91.2269811,41.6124347 91.1457374,39.9741987 90.0864706,39.0137771" id="Fill-2" fill="#B4BAC3"></path>
                        <g id="Group-6" transform="translate(71.724650, 32.139658)">
                            <mask id="mask-2" fill="white">
                                <use xlink:href="#path-1"></use>
                            </mask>
                            <g id="Clip-5"></g>
                            <path d="M14.194109,11.4831674 C12.7111355,10.1388431 12.5973501,7.84517977 13.9401949,6.36032755 C15.2828184,4.87547534 17.5733584,4.76154579 19.0563319,6.10587012 C20.5395269,7.4504161 20.6530909,9.74385779 19.3104674,11.22871 C17.967844,12.7135622 15.6770826,12.8274918 14.194109,11.4831674 M10.6718531,15.378494 C10.4998468,15.2226721 10.4865645,14.9566887 10.6424106,14.7844645 C10.7980354,14.6124619 11.0636823,14.5991627 11.2354672,14.7549846 C11.4074736,14.9108066 11.4207559,15.17679 11.2651311,15.3490142 C11.109285,15.5212384 10.8438595,15.5343159 10.6718531,15.378494 M8.88272159,17.3569671 C8.71093663,17.2009235 8.69765429,16.9351617 8.85350044,16.7629375 C9.00912522,16.5907133 9.2745507,16.5774141 9.44655704,16.7334577 C9.61856338,16.8892796 9.63184572,17.155263 9.47599957,17.3274872 C9.32037478,17.4997115 9.05472793,17.512789 8.88272159,17.3569671 M22.4052533,2.40271652 L22.4050319,2.40249487 C18.8345168,-0.834301199 13.3982753,-0.647226222 10.2629784,2.82031043 L2.30995434,11.6154942 C-0.825564006,15.0830308 -0.472696437,20.5177362 3.09781863,23.7547539 C6.66811233,26.99155 12.1045752,26.804475 15.2400935,23.3369384 L23.1928962,14.5417546 C26.3284145,11.074218 25.9757683,5.63951259 22.4052533,2.40271652" id="Fill-4" fill="#B4BAC3" mask="url(#mask-2)"></path>
                        </g>
                        <g id="Group-9">
                            <mask id="mask-4" fill="white">
                                <use xlink:href="#path-3"></use>
                            </mask>
                            <g id="Clip-8"></g>
                            <path d="M27.1893538,13.8441689 L2.43217403,13.8441689 C1.08888645,13.8441689 -4.42744754e-05,12.7538587 -4.42744754e-05,11.4090911 L-4.42744754e-05,2.52413794 C-4.42744754e-05,1.1793703 1.08888645,0.0890601014 2.43217403,0.0890601014 L27.1893538,0.0890601014 C28.53242,0.0890601014 29.6213508,1.1793703 29.6213508,2.52413794 L29.6213508,11.4090911 C29.6213508,12.7538587 28.53242,13.8441689 27.1893538,13.8441689" id="Fill-7" fill="#B4BAC3" mask="url(#mask-4)"></path>
                        </g>
                        <path d="M6.72451801,10.4855081 C6.72451801,10.7253365 6.58638165,10.8454723 6.31055167,10.8454723 C6.02763777,10.8454723 5.88595945,10.7253365 5.88595945,10.4855081 L5.88595945,4.12806204 L5.39584101,4.12806204 C5.27231522,4.12806204 5.1850945,4.10279362 5.13440023,4.05181347 C5.08348458,4.00105498 5.05824813,3.89200179 5.05824813,3.72465392 C5.05824813,3.55752769 5.08724791,3.44315484 5.14546885,3.38109205 C5.20324704,3.31947257 5.29400971,3.28844118 5.4175355,3.28844118 L6.16909472,3.28844118 C6.53945071,3.28844118 6.72451801,3.43406708 6.72451801,3.72465392 L6.72451801,10.4855081 Z" id="Fill-10" fill="#FEFEFE"></path>
                        <path d="M8.66305378,10.1583264 C8.66305378,9.99120016 8.72105335,9.85133724 8.83727385,9.73851595 C8.95349434,9.62591632 9.09140933,9.56939485 9.25124019,9.56939485 C9.4106283,9.56939485 9.54699369,9.62591632 9.65945085,9.73851595 C9.77212939,9.85133724 9.82835798,9.99120016 9.82835798,10.1583264 C9.82835798,10.3110452 9.77212939,10.4455884 9.65945085,10.5617345 C9.54699369,10.6781022 9.4106283,10.7361753 9.25124019,10.7361753 C9.09140933,10.7361753 8.95349434,10.6781022 8.83727385,10.5617345 C8.72105335,10.4455884 8.66305378,10.3110452 8.66305378,10.1583264" id="Fill-12" fill="#FEFEFE"></path>
                        <path d="M12.4965371,6.09097505 C12.6707572,6.05462399 12.8285957,6.02736069 12.970274,6.00918516 C13.1117309,5.99100963 13.2768747,5.98192186 13.4657054,5.98192186 C13.8143669,5.98192186 14.1300439,6.03822168 14.4131791,6.15104296 C14.6965358,6.26364259 14.9360607,6.4219027 15.1319753,6.62537999 C15.3281112,6.82885727 15.4804154,7.07600016 15.589552,7.36680866 C15.6984672,7.65761715 15.7527034,7.98123026 15.7527034,8.33720469 C15.7527034,8.67167878 15.6929329,8.9915238 15.5731704,9.29673973 C15.4534079,9.60217731 15.2845008,9.86926895 15.0666704,10.098458 C14.84884,10.3274253 14.5911625,10.5091806 14.2934167,10.6437239 C13.9956708,10.7780455 13.6726885,10.845428 13.3242484,10.845428 C13.0918074,10.845428 12.8830533,10.8234843 12.697986,10.7798187 C12.5129187,10.7363748 12.3457825,10.6745336 12.1970203,10.594517 C12.0480367,10.5147219 11.9118927,10.4218494 11.7885882,10.3163427 C11.6650625,10.2110576 11.5490633,10.0966847 11.4401481,9.97300247 C11.3529274,9.87857837 11.3148514,9.76952518 11.3256986,9.64584291 C11.3365458,9.52216064 11.3783852,9.420422 11.4509954,9.34040533 C11.5089949,9.28233229 11.583376,9.24775445 11.6743601,9.23689347 C11.7649014,9.22603248 11.8503511,9.26415676 11.9300452,9.35126632 C12.133265,9.59131632 12.3603931,9.76753031 12.6109866,9.88035159 C12.8613588,9.99295122 13.0955708,10.049251 13.3131798,10.049251 C13.5383155,10.049251 13.7470697,10.002039 13.9396636,9.90761489 C14.1318149,9.81319079 14.298951,9.68773529 14.4404079,9.5312484 C14.5820863,9.37498317 14.6945434,9.19167629 14.7782222,8.98066281 C14.8614582,8.76987098 14.9032976,8.55176461 14.9032976,8.3263437 C14.9032976,7.84646535 14.7762298,7.46500086 14.5220944,7.18128525 C14.2679589,6.8977913 13.8976029,6.75615515 13.4112478,6.75615515 C13.2153332,6.75615515 13.0537314,6.77078424 12.9266636,6.79982075 C12.7995959,6.82885727 12.6889097,6.85966702 12.5946051,6.89247163 C12.5000791,6.9250546 12.4130797,6.95431277 12.3331643,6.97958119 C12.2530275,7.00529292 12.1660281,7.01792713 12.0717235,7.01792713 C11.9118927,7.01792713 11.7956722,6.9687202 11.7232834,6.87074966 C11.6506732,6.77255746 11.6252154,6.65796295 11.6471313,6.52718779 L12.0936394,3.8119408 C12.1297231,3.62287094 12.1806387,3.48854934 12.2459436,3.40831102 C12.3114698,3.32851601 12.4383162,3.28839685 12.6271468,3.28839685 L15.1975015,3.28839685 C15.4224158,3.28839685 15.5350944,3.4229401 15.5350944,3.69202662 C15.5350944,3.95357695 15.4224158,4.08457376 15.1975015,4.08457376 L12.8449772,4.08457376 L12.4965371,6.09097505 Z" id="Fill-14" fill="#FEFEFE"></path>
                        <path d="M24.7265861,10.2238026 C24.748502,10.3762998 24.7429677,10.5163843 24.7102046,10.6436131 C24.6776628,10.7706201 24.55945,10.8380026 24.3562302,10.8453171 C24.2256204,10.8453171 24.1313158,10.8071928 24.0730949,10.7309443 C24.0148739,10.654474 23.9712636,10.5254721 23.9424852,10.3437168 L23.3106884,5.99289368 C23.2889939,5.85480397 23.2617651,5.68390965 23.229002,5.48021072 C23.1964603,5.27695508 23.1599338,5.10051944 23.1203082,4.9513471 C23.0802398,4.80261806 23.0366294,4.70597743 22.9894771,4.66253348 C22.9421034,4.61886787 22.8931801,4.68425545 22.8424858,4.85869622 L21.2198263,10.45277 C21.1832999,10.5908597 21.1381399,10.6908251 21.0836823,10.7526662 C21.0292247,10.8142857 20.943775,10.8453171 20.8277758,10.8453171 C20.70425,10.8453171 20.6170293,10.8180538 20.5663351,10.7635272 C20.5154194,10.7090006 20.4682671,10.6054888 20.4246567,10.45277 C20.1488268,9.51495692 19.8710044,8.5844584 19.5916325,7.66105277 C19.3120392,6.73809045 19.0415221,5.80737027 18.7803027,4.86955721 C18.7293871,4.69511644 18.6767004,4.60800689 18.6222428,4.60800689 C18.5677852,4.60800689 18.5259459,4.69511644 18.4971674,4.86955721 L17.6911506,10.3217732 C17.6694561,10.489121 17.6276167,10.618123 17.5658539,10.7090006 C17.5043123,10.7998783 17.3898628,10.8453171 17.222948,10.8453171 C16.9468967,10.8453171 16.8417448,10.6635618 16.9070497,10.3000512 L17.8981338,3.81182997 C17.9271336,3.5937236 17.9977514,3.43036547 18.1104299,3.32109064 C18.2228871,3.21203745 18.3700997,3.15773251 18.5514037,3.15773251 C18.732929,3.15773251 18.8836836,3.20494456 19.0034461,3.29936866 C19.1232085,3.39401441 19.2195055,3.56114064 19.2921157,3.80096898 L20.8386231,9.26404594 L22.3523674,3.79010799 C22.4176722,3.55759419 22.5104273,3.39401441 22.6301897,3.29936866 C22.7499522,3.20494456 22.8969434,3.15773251 23.0711635,3.15773251 C23.2456049,3.15773251 23.3925962,3.21203745 23.5123586,3.32109064 C23.6321211,3.43036547 23.7100442,3.5974917 23.7463493,3.82291261 L24.7265861,10.2238026 Z" id="Fill-16" fill="#FEFEFE"></path>
                    </g>
                </g>
            </g>
        </g>
    </g>
</svg>