<?xml version="1.0" encoding="UTF-8"?>
<svg width="407px" height="71px" viewBox="0 0 407 71" version="1.1" xmlns="http://www.w3.org/2000/svg" xmlns:xlink="http://www.w3.org/1999/xlink">
    <!-- Generator: Sketch 45.2 (43514) - http://www.bohemiancoding.com/sketch -->
    <title>txt7-3</title>
    <desc>Created with Sketch.</desc>
    <defs>
        <polygon id="path-1" points="0 0.196311355 0 70.5150921 79.2830312 70.5150921 79.2830312 0.196311355"></polygon>
        <polygon id="path-3" points="0 70.5405928 79.2830312 70.5405928 79.2830312 0.221745573 0 0.221745573"></polygon>
    </defs>
    <g id="Page-1" stroke="none" stroke-width="1" fill="none" fill-rule="evenodd">
        <g id="新版" transform="translate(-802.000000, -6846.000000)">
            <g id="txt7-3" transform="translate(802.000000, 6846.000000)">
                <g id="Group-19" transform="translate(164.000000, 0.000000)">
                    <path d="M1.83,9.38 L1.83,11.48 L13.14,11.48 C11.58,18.86 7.62,24.14 1.23,27.29 L2.58,29.09 C8.97,25.76 13.11,20.45 14.97,13.16 C17.22,19.94 21.36,25.16 27.39,28.88 L28.74,27.14 C22.59,23.48 18.45,18.26 16.35,11.48 L28.17,11.48 L28.17,9.38 L15.72,9.38 C15.96,7.52 16.11,5.57 16.11,3.47 L16.11,1.52 L13.89,1.52 L13.89,3.95 C13.86,5.84 13.74,7.64 13.5,9.38 L1.83,9.38 Z M45.36,1.34 C45.72,2.12 46.05,3.02 46.38,4.01 L57.27,4.01 L57.27,9.35 L55.17,9.35 L55.17,6.02 L34.83,6.02 L34.83,9.5 L32.73,9.5 L32.73,4.01 L44.13,4.01 C43.77,3.17 43.41,2.42 43.05,1.73 L45.36,1.34 Z M44.22,10.94 L45.87,10.94 C48.3,13.97 52.5,16.61 58.44,18.89 L57.27,20.66 C56.07,20.18 54.96,19.7 53.94,19.22 L53.94,29.03 L51.87,29.03 L51.87,27.77 L38.46,27.77 L38.46,29.03 L36.36,29.03 L36.36,19.1 C35.13,19.7 33.9,20.21 32.64,20.69 L31.5,18.92 C36.99,16.88 41.22,14.24 44.22,10.94 Z M38.46,25.79 L51.87,25.79 L51.87,20.99 L38.46,20.99 L38.46,25.79 Z M36.42,19.07 L53.61,19.07 C49.95,17.27 47.07,15.17 45.03,12.83 C42.63,15.35 39.75,17.42 36.42,19.07 Z M48.51,7.28 C52.11,9.14 55.17,11 57.63,12.86 L56.13,14.33 C53.94,12.53 50.94,10.64 47.13,8.63 L48.51,7.28 Z M41.4,7.25 L42.84,8.54 C40.29,10.76 37.17,12.71 33.45,14.39 L32.16,12.71 C35.82,11.15 38.88,9.35 41.4,7.25 Z M64.59,14.06 L85.47,14.06 L85.47,21.71 L76.05,21.71 L76.05,23.39 L86.22,23.39 L86.22,24.83 L76.05,24.83 L76.05,26.6 L88.41,26.6 L88.41,28.28 L61.59,28.28 L61.59,26.6 L73.89,26.6 L73.89,24.83 L63.84,24.83 L63.84,23.39 L73.89,23.39 L73.89,21.71 L64.59,21.71 L64.59,14.06 Z M83.4,20.36 L83.4,18.53 L76.05,18.53 L76.05,20.36 L83.4,20.36 Z M73.89,20.36 L73.89,18.53 L66.66,18.53 L66.66,20.36 L73.89,20.36 Z M66.66,17.27 L73.89,17.27 L73.89,15.41 L66.66,15.41 L66.66,17.27 Z M76.05,15.41 L76.05,17.27 L83.4,17.27 L83.4,15.41 L76.05,15.41 Z M65.25,1.97 L84.84,1.97 L84.84,9.38 L65.25,9.38 L65.25,1.97 Z M82.74,8.09 L82.74,6.32 L67.35,6.32 L67.35,8.09 L82.74,8.09 Z M67.35,5.03 L82.74,5.03 L82.74,3.29 L67.35,3.29 L67.35,5.03 Z M61.56,10.94 L61.56,12.56 L88.44,12.56 L88.44,10.94 L61.56,10.94 Z" id="大容量" fill="#454545"></path>
                    <path d="M8.2105,59.713 L4.4195,59.713 L4.4195,56.16 L12.9535,56.16 L12.9535,59.713 L9.1285,59.713 L9.1285,61.311 L14.5855,61.311 L14.5855,64.388 C14.5855,65.289 14.1095,65.748 13.1915,65.748 L11.7975,65.748 L11.5425,64.864 L12.8855,64.915 C13.3955,64.915 13.6675,64.66 13.6675,64.184 L13.6675,62.161 L9.1285,62.161 L9.1285,66.717 L8.2105,66.717 L8.2105,62.161 L3.7735,62.161 L3.7735,65.867 L2.8725,65.867 L2.8725,61.311 L8.2105,61.311 L8.2105,59.713 Z M8.2105,51.06 L9.1285,51.06 L9.1285,53.746 L11.5255,53.746 C12.1035,52.981 12.5795,52.182 12.9705,51.332 L13.8375,51.621 C13.3955,52.471 12.9535,53.168 12.4945,53.746 L15.5715,53.746 L15.5715,57.01 L14.6535,57.01 L14.6535,54.63 L2.6855,54.63 L2.6855,57.027 L1.7675,57.027 L1.7675,53.746 L4.5555,53.746 C4.2325,53.032 3.8245,52.369 3.3315,51.757 L4.2155,51.434 C4.6575,52.08 5.0825,52.845 5.4735,53.746 L8.2105,53.746 L8.2105,51.06 Z M12.0525,58.931 L12.0525,56.942 L5.3205,56.942 L5.3205,58.931 L12.0525,58.931 Z M18.4105,53.763 L20.9435,53.763 L20.9435,51.332 L21.8615,51.332 L21.8615,53.763 L24.2585,53.763 L24.2585,54.647 L21.8615,54.647 L21.8615,57.18 C21.8615,57.367 21.8445,57.554 21.8445,57.741 L24.4965,57.741 L24.4965,58.625 L21.8105,58.625 C21.7765,59.118 21.7255,59.594 21.6575,60.053 C22.6435,61.039 23.6465,62.144 24.6665,63.385 L24.1395,64.15 C23.1195,62.756 22.2355,61.685 21.5045,60.92 C21.0285,63.402 20.0595,65.34 18.6145,66.717 L17.9175,66.105 C19.6515,64.473 20.6545,61.991 20.8925,58.625 L18.1895,58.625 L18.1895,57.741 L20.9265,57.741 C20.9265,57.554 20.9435,57.367 20.9435,57.18 L20.9435,54.647 L18.4105,54.647 L18.4105,53.763 Z M32.0445,51.927 L32.0445,61.124 L31.1435,61.124 L31.1435,52.794 L26.3325,52.794 L26.3325,61.124 L25.4315,61.124 L25.4315,51.927 L32.0445,51.927 Z M31.6875,66.445 L30.3275,66.445 C29.5115,66.445 29.1205,66.003 29.1205,65.136 L29.1205,61.277 L29.9875,61.277 L29.9875,64.966 C29.9875,65.408 30.1915,65.629 30.5995,65.629 L31.5345,65.629 C31.8745,65.629 32.1295,65.527 32.2655,65.357 C32.4695,65.119 32.5885,64.439 32.6565,63.317 L33.4555,63.589 C33.3535,64.932 33.1665,65.765 32.8775,66.088 C32.6225,66.326 32.2315,66.445 31.6875,66.445 Z M28.3045,54.409 L29.1715,54.409 L29.1715,57.333 C29.1375,59.849 28.6785,61.872 27.8285,63.385 C26.9785,64.796 25.6015,65.901 23.6805,66.7 L23.1875,65.935 C25.0575,65.153 26.4005,64.099 27.1995,62.739 C27.9135,61.362 28.2705,59.56 28.3045,57.333 L28.3045,54.409 Z M39.9665,52.998 L44.6075,52.998 L44.6075,51.162 L45.5085,51.162 L45.5085,52.998 L50.2855,52.998 L50.2855,53.865 L45.5085,53.865 L45.5085,55.684 L49.5715,55.684 L49.5715,60.325 L45.4405,60.325 C45.3045,61.94 44.9985,63.181 44.5055,64.065 C46.2565,65.102 48.3135,65.68 50.6595,65.816 L50.4215,66.683 C47.9735,66.53 45.8315,65.901 43.9955,64.796 C43.1115,65.782 41.6665,66.428 39.6265,66.734 L39.2185,65.884 C41.0885,65.646 42.4145,65.119 43.1965,64.269 C42.1425,63.521 41.2075,62.62 40.3745,61.566 L41.1055,61.073 C41.8705,62.059 42.7375,62.892 43.7235,63.572 C44.1655,62.773 44.4375,61.685 44.5395,60.325 L40.6295,60.325 L40.6295,55.684 L44.6075,55.684 L44.6075,53.865 L39.9665,53.865 L39.9665,52.998 Z M48.6875,59.492 L48.6875,56.534 L45.5085,56.534 L45.5085,58.846 C45.5085,59.067 45.4915,59.288 45.4915,59.492 L48.6875,59.492 Z M44.5905,59.492 C44.5905,59.254 44.6075,59.05 44.6075,58.846 L44.6075,56.534 L41.4965,56.534 L41.4965,59.492 L44.5905,59.492 Z M37.0425,56.772 C36.4305,57.69 35.7675,58.557 35.0195,59.373 L34.7305,58.387 C36.5495,56.228 37.8585,53.78 38.6745,51.06 L39.5415,51.468 C39.1165,52.794 38.5895,54.035 37.9775,55.191 L37.9775,66.7 L37.0425,66.7 L37.0425,56.772 Z M54.6205,56.891 L54.6205,59.883 C54.6205,59.968 54.6035,60.053 54.6035,60.155 L59.2785,60.155 L59.2785,56.891 L54.6205,56.891 Z M54.5525,61.022 C54.3825,63.232 53.7365,65.051 52.6315,66.479 L51.9515,65.85 C53.0735,64.303 53.6515,62.331 53.6855,59.951 L53.6855,51.893 L66.0955,51.893 L66.0955,64.609 C66.0955,65.714 65.5345,66.275 64.4295,66.275 L62.4745,66.275 L62.2365,65.374 C62.9165,65.408 63.5455,65.425 64.1235,65.425 C64.8205,65.425 65.1775,65.034 65.1775,64.269 L65.1775,61.022 L60.1965,61.022 L60.1965,66.088 L59.2785,66.088 L59.2785,61.022 L54.5525,61.022 Z M65.1775,60.155 L65.1775,56.891 L60.1965,56.891 L60.1965,60.155 L65.1775,60.155 Z M65.1775,56.041 L65.1775,52.794 L60.1965,52.794 L60.1965,56.041 L65.1775,56.041 Z M59.2785,52.794 L54.6205,52.794 L54.6205,56.041 L59.2785,56.041 L59.2785,52.794 Z M72.5045,51.128 L73.4055,51.128 L73.4055,53.253 L75.8705,53.253 L75.8705,54.12 L73.4055,54.12 L73.4055,56.398 L76.0745,56.398 L76.0745,57.316 L68.9515,57.316 L68.9515,56.398 L70.0565,56.398 L70.0565,52.488 L70.9405,52.488 L70.9405,56.398 L72.5045,56.398 L72.5045,51.128 Z M75.2925,58.88 L76.1085,59.067 C75.3945,62.841 73.2185,65.306 69.6145,66.496 L69.1045,65.663 C72.5555,64.575 74.6125,62.314 75.2925,58.88 Z M70.4815,58.948 L71.2805,59.271 C70.8725,60.869 70.3455,62.11 69.6825,62.96 L69.0025,62.365 C69.6485,61.515 70.1415,60.376 70.4815,58.948 Z M72.4875,58.115 L73.3715,58.115 L73.3715,62.484 L72.4875,62.484 L72.4875,58.115 Z M76.3975,51.91 L84.3025,51.91 L84.3025,52.777 L80.8005,52.777 C80.7495,53.525 80.6645,54.239 80.5625,54.919 L83.6055,54.919 L83.6055,62.858 L82.6875,62.858 L82.6875,55.786 L78.0125,55.786 L78.0125,62.858 L77.1115,62.858 L77.1115,54.919 L79.6275,54.919 C79.7295,54.239 79.8145,53.525 79.8655,52.777 L76.3975,52.777 L76.3975,51.91 Z M81.4975,63.062 L80.8515,63.674 C82.1095,64.728 83.0955,65.748 83.8265,66.717 L84.5065,66.037 C83.6905,65.051 82.6875,64.048 81.4975,63.062 Z M79.8485,56.976 L80.7665,56.976 L80.7665,59.985 C80.7325,61.77 80.3585,63.198 79.6445,64.269 C78.9475,65.255 77.8085,66.037 76.2275,66.615 L75.7175,65.799 C77.2305,65.289 78.3015,64.558 78.9475,63.64 C79.5255,62.705 79.8145,61.481 79.8485,59.985 L79.8485,56.976 Z M86.4445,52.658 L93.2785,52.658 C93.0065,52.08 92.7345,51.57 92.4285,51.111 L93.3635,50.941 C93.6525,51.451 93.9245,52.029 94.1795,52.658 L100.8945,52.658 L100.8945,53.542 L93.8055,53.542 C93.2615,54.664 92.6155,55.531 91.8845,56.177 C92.7685,56.109 93.6525,56.041 94.5365,55.956 C94.9445,55.446 95.3695,54.902 95.8115,54.324 L96.6105,54.681 C94.8765,56.891 93.3635,58.523 92.0715,59.543 C93.3635,59.407 94.6045,59.22 95.7945,59.016 C95.5735,58.523 95.3525,58.064 95.1315,57.656 L95.9305,57.401 C96.4915,58.404 96.9845,59.475 97.3925,60.614 L96.5765,60.988 C96.4065,60.546 96.2535,60.121 96.1005,59.73 C95.3185,59.866 94.5195,60.002 93.7375,60.104 L94.1285,60.104 L94.1285,62.297 L101.2005,62.297 L101.2005,63.164 L94.1285,63.164 L94.1285,66.734 L93.2105,66.734 L93.2105,63.164 L86.1725,63.164 L86.1725,62.297 L93.2105,62.297 L93.2105,60.172 C92.3775,60.257 91.5445,60.342 90.6945,60.41 L90.5075,59.594 L90.8645,59.492 C91.7315,58.982 92.7345,58.064 93.8905,56.738 C92.9045,56.84 91.8505,56.925 90.7455,56.993 L90.5755,56.245 C91.5445,55.599 92.3095,54.698 92.8535,53.542 L86.4445,53.542 L86.4445,52.658 Z M89.3175,57.707 L90.0145,58.234 C89.1305,59.322 88.1955,60.223 87.2265,60.937 L86.6145,60.257 C87.6175,59.526 88.5185,58.676 89.3175,57.707 Z M87.3965,54.324 C88.3485,55.004 89.1645,55.701 89.8275,56.415 L89.1815,57.061 C88.5695,56.381 87.7705,55.667 86.7675,54.919 L87.3965,54.324 Z M98.0725,57.724 C99.1265,58.574 100.0275,59.424 100.7415,60.274 L100.0615,60.937 C99.4155,60.104 98.5485,59.22 97.4605,58.302 L98.0725,57.724 Z M99.6195,54.256 L100.3505,54.8 C99.5855,55.701 98.7865,56.449 97.9535,57.044 L97.3585,56.381 C98.1915,55.786 98.9395,55.072 99.6195,54.256 Z M108.7145,58.302 L108.7145,59.22 L123.9295,59.22 L123.9295,58.302 L108.7145,58.302 Z M132.8715,56.143 L133.7895,56.143 L133.7895,66.649 L132.8715,66.649 L132.8715,56.143 Z M132.9055,51.162 L133.7555,51.162 C135.1835,53.559 137.6655,55.667 141.1675,57.486 L140.6235,58.302 C137.3595,56.619 134.9285,54.528 133.3305,52.046 C131.3925,54.8 128.9615,56.908 126.0375,58.404 L125.4935,57.571 C128.6895,55.939 131.1715,53.797 132.9055,51.162 Z M146.9815,56.942 L146.9815,60.291 L154.5805,60.291 L154.5805,56.942 L146.9815,56.942 Z M154.5805,56.075 L154.5805,52.794 L146.9815,52.794 L146.9815,56.075 L154.5805,56.075 Z M146.9305,61.158 C146.7605,63.385 146.1145,65.221 144.9925,66.666 L144.2785,66.02 C145.4515,64.49 146.0465,62.535 146.0805,60.155 L146.0805,51.91 L155.4985,51.91 L155.4985,65.187 C155.4985,66.054 155.0735,66.496 154.2235,66.496 L151.9965,66.496 L151.7585,65.612 C152.5405,65.629 153.2545,65.646 153.9175,65.646 C154.3595,65.646 154.5805,65.374 154.5805,64.847 L154.5805,61.158 L146.9305,61.158 Z M161.9925,52.216 L172.6685,52.216 L172.6685,59.662 L161.9925,59.662 L161.9925,52.216 Z M171.7505,58.795 L171.7505,53.1 L162.9105,53.1 L162.9105,58.795 L171.7505,58.795 Z M170.2715,60.75 L169.5235,61.209 C171.3935,63.215 172.8555,65.051 173.9095,66.717 L174.6915,66.173 C173.6715,64.626 172.1925,62.824 170.2715,60.75 Z M164.3725,60.75 C163.1655,62.858 161.7375,64.643 160.0715,66.139 L160.8705,66.734 C162.5195,65.153 163.9475,63.283 165.1715,61.141 L164.3725,60.75 Z M184.1095,51.009 L183.1405,51.179 C183.4975,51.791 183.8375,52.488 184.1435,53.27 L177.3775,53.27 L177.3775,54.137 L182.4095,54.137 C180.9305,56.5 179.7405,57.945 178.8225,58.489 C178.7715,58.523 178.7035,58.54 178.6185,58.574 L178.8395,59.424 L181.6445,59.254 C181.5255,61.09 181.1685,62.467 180.5905,63.351 C179.9275,64.337 178.8395,65.17 177.3265,65.867 L177.9045,66.598 C179.5535,65.816 180.7265,64.864 181.4235,63.742 C182.0355,62.756 182.4265,61.226 182.5625,59.186 L185.3675,58.948 L185.3675,64.932 C185.3675,65.901 185.7925,66.394 186.6425,66.394 L189.4475,66.394 C190.0765,66.394 190.5525,66.241 190.8755,65.952 C191.2495,65.578 191.5045,64.541 191.6405,62.875 L190.7735,62.603 C190.6885,64.099 190.4845,64.983 190.1445,65.255 C189.9235,65.425 189.6175,65.51 189.2095,65.51 L186.9145,65.51 C186.4895,65.51 186.2855,65.255 186.2855,64.762 L186.2855,58.863 L188.8355,58.608 C189.2775,59.254 189.6685,59.883 190.0085,60.495 L190.7565,59.951 C189.9915,58.608 188.8865,57.044 187.4415,55.242 L186.6935,55.718 C187.2545,56.432 187.7815,57.129 188.2915,57.826 C185.5885,58.132 182.8855,58.37 180.1655,58.523 C181.0835,57.673 182.1715,56.211 183.3955,54.137 L191.2835,54.137 L191.2835,53.27 L185.0445,53.27 C184.7555,52.42 184.4495,51.655 184.1095,51.009 Z M193.7145,58.302 L193.7145,59.22 L208.9295,59.22 L208.9295,58.302 L193.7145,58.302 Z M217.9225,54.732 C217.3955,56.313 216.6815,57.622 215.7975,58.642 L215.0155,58.081 C216.4605,56.415 217.3785,54.086 217.7865,51.111 L218.7045,51.264 C218.5685,52.182 218.3985,53.032 218.1945,53.831 L225.4025,53.831 L225.4025,54.443 C225.0625,55.905 224.5865,57.333 223.9915,58.727 L223.0905,58.472 C223.6345,57.35 224.0765,56.109 224.4165,54.732 L217.9225,54.732 Z M219.9285,55.99 L220.8465,55.99 C220.8465,56.925 220.7955,57.792 220.6935,58.608 C221.7475,61.719 223.5665,64.167 226.1505,65.952 L225.5385,66.632 C223.2265,64.898 221.5265,62.739 220.4385,60.138 C220.3025,60.682 220.1665,61.192 219.9965,61.668 C219.2315,63.708 217.5315,65.391 214.8965,66.683 L214.3015,65.935 C216.6645,64.813 218.2455,63.368 219.0445,61.6 C219.6225,60.104 219.9285,58.234 219.9285,55.99 Z M211.4965,51.944 L210.7485,52.403 C212.0915,53.678 213.1455,54.851 213.9275,55.905 L214.6585,55.395 C213.9275,54.409 212.8735,53.253 211.4965,51.944 Z M213.9275,59.203 L214.7265,59.526 C213.7405,61.855 212.6525,64.048 211.4285,66.088 L210.5785,65.714 C211.8705,63.606 212.9755,61.43 213.9275,59.203 Z M230.0775,58.132 L230.0775,60.988 L234.5995,60.988 L234.5995,58.132 L230.0775,58.132 Z M234.5995,61.855 L230.0775,61.855 L230.0775,63.385 L229.1595,63.385 L229.1595,53.61 L234.5995,53.61 L234.5995,51.196 L235.5005,51.196 L235.5005,53.61 L241.0425,53.61 L241.0425,61.855 L235.5005,61.855 L235.5005,64.252 C235.5005,65.102 235.8915,65.544 236.6905,65.544 L240.7025,65.544 C241.1785,65.544 241.5185,65.442 241.7395,65.238 C241.9435,65.034 242.0795,64.303 242.1475,63.062 L243.0315,63.351 C242.9295,64.779 242.7255,65.663 242.4535,65.969 C242.1475,66.241 241.6205,66.394 240.8555,66.394 L236.4695,66.394 C235.2115,66.394 234.5995,65.714 234.5995,64.388 L234.5995,61.855 Z M235.5005,60.988 L240.1415,60.988 L240.1415,58.132 L235.5005,58.132 L235.5005,60.988 Z M240.1415,57.265 L240.1415,54.494 L235.5005,54.494 L235.5005,57.265 L240.1415,57.265 Z M234.5995,54.494 L230.0775,54.494 L230.0775,57.265 L234.5995,57.265 L234.5995,54.494 Z" id="常规使用频率-一个月只充一次电" fill="#B3B3B3"></path>
                </g>
                <g id="Page-1">
                    <g id="Group-3" transform="translate(0.000000, 0.025501)">
                        <mask id="mask-2" fill="white">
                            <use xlink:href="#path-1"></use>
                        </mask>
                        <g id="Clip-2"></g>
                        <path d="M44.1332113,0.196311355 L44.1332113,5.66256146 C60.5277144,5.66256146 73.8181821,18.956652 73.8181821,35.3556241 C73.8181821,51.7548179 60.5277144,65.0486867 44.1332113,65.0486867 C27.7387082,65.0486867 14.4482405,51.7548179 14.4482405,35.3556241 L23.6115959,35.3556241 L11.8057536,21.5692584 L-8.86740573e-05,35.3556241 L8.98325838,35.3556241 C8.98325838,54.7736621 24.720465,70.5151586 44.1332113,70.5151586 C63.5459576,70.5151586 79.2831642,54.7736621 79.2831642,35.3556241 C79.2831642,15.9375861 63.5459576,0.196311355 44.1332113,0.196311355" id="Fill-1" fill="#B4BAC3" mask="url(#mask-2)"></path>
                    </g>
                    <mask id="mask-4" fill="white">
                        <use xlink:href="#path-3"></use>
                    </mask>
                    <g id="Clip-5"></g>
                    <polygon id="Fill-4" fill="#B4BAC3" mask="url(#mask-4)" points="43.8646176 16.2570549 45.8340684 16.2570549 45.8340684 10.9626576 43.8646176 10.9626576"></polygon>
                    <polygon id="Fill-6" fill="#B4BAC3" mask="url(#mask-4)" points="54.337977 18.8373751 52.5644959 17.9807719 54.8658093 13.2130204 56.6392905 14.0696235"></polygon>
                    <polygon id="Fill-7" fill="#B4BAC3" mask="url(#mask-4)" points="60.8742304 24.8596079 59.64942 23.3167022 63.7944888 20.0242239 65.0192992 21.5669079"></polygon>
                    <polygon id="Fill-8" fill="#B4BAC3" mask="url(#mask-4)" points="64.1425567 33.1254624 63.7102706 31.2035935 68.8742044 30.0412032 69.3064904 31.9632938"></polygon>
                    <polygon id="Fill-9" fill="#B4BAC3" mask="url(#mask-4)" points="63.4926645 41.9906286 63.938695 40.0718642 69.0942047 41.2710642 68.6479525 43.1900504"></polygon>
                    <polygon id="Fill-10" fill="#B4BAC3" mask="url(#mask-4)" points="59.053752 49.6913201 60.2896467 48.157506 64.4109952 51.4794764 63.1751005 53.0135123"></polygon>
                    <polygon id="Fill-11" fill="#B4BAC3" mask="url(#mask-4)" points="51.7091459 54.6953194 53.4888342 53.8513558 55.7560082 58.6357383 53.9763199 59.4794802"></polygon>
                    <polygon id="Fill-12" fill="#B4BAC3" mask="url(#mask-4)" points="42.9198842 56.0071662 44.889335 56.021358 44.8514268 61.3155335 42.881976 61.3013418"></polygon>
                    <polygon id="Fill-13" fill="#B4BAC3" mask="url(#mask-4)" points="34.4346858 53.3659325 36.2021815 54.2351752 33.8665068 58.9862958 32.0992328 58.1170532"></polygon>
                    <polygon id="Fill-14" fill="#B4BAC3" mask="url(#mask-4)" points="27.9417497 47.2969336 29.1554758 48.8484874 24.9869084 52.11103 23.7731822 50.559698"></polygon>
                    <polygon id="Fill-15" fill="#B4BAC3" mask="url(#mask-4)" points="24.732835 39.0077959 25.1513766 40.9327692 19.9792405 42.0579062 19.560699 40.1329329"></polygon>
                    <path d="M15.6189598,43.8913873 C15.2276855,43.8913873 14.8554761,43.7672098 14.5429001,43.5323812 C14.2609166,43.3212794 14.0474338,43.0465367 13.9093239,42.716801 C13.7842935,42.4205489 13.7279855,42.0877088 13.7428384,41.729368 C13.7539227,41.4424292 13.8213149,41.1550469 13.9430201,40.8727648 C13.9866921,40.5767345 14.0973129,40.2831433 14.2737743,39.9968698 L14.4090023,39.8210256 C14.7226867,39.4906247 15.1066454,39.1063396 15.5830468,38.6462175 C16.0346194,38.2104875 16.513016,37.7359519 17.0053787,37.2354722 C17.4917559,36.7414231 17.9867788,36.2070162 18.476703,35.6468869 C18.9475622,35.1087104 19.3789615,34.5445897 19.7593732,33.9702686 C20.1244886,33.4192309 20.4250937,32.8469056 20.6534294,32.2692583 C20.8584881,31.749265 20.9626801,31.2306021 20.9626801,30.7287919 C20.9626801,30.1274179 20.8221318,29.6748351 20.532611,29.3453212 C20.3712242,29.1614941 20.0817034,28.9169088 19.4397032,28.9169088 C18.7305324,28.9169088 18.4762596,29.1590549 18.3339377,29.369935 C18.04087,29.8032258 17.8925626,30.3977257 17.8925626,31.1372472 C17.8925626,31.7874052 17.7526793,32.2847805 17.4651536,32.6577566 C17.2241819,32.9693091 16.7550961,33.3394025 15.8832085,33.3394025 C15.6109791,33.3394025 14.78232,33.3394025 14.2691189,32.7282717 C13.9674055,32.3708178 13.8259703,31.8645727 13.8259703,31.1372472 C13.8259703,29.3289121 14.2997115,27.8538605 15.234336,26.753559 C16.213076,25.601369 17.6764196,25.0170694 19.5837986,25.0170694 C20.4197732,25.0170694 21.1859171,25.1512255 21.86117,25.4155462 C22.556153,25.6874063 23.1538161,26.0810047 23.6373114,26.5850323 C24.1203633,27.08906 24.4874739,27.6973081 24.7295541,28.3933675 C24.9603283,29.0572737 25.0775998,29.794356 25.0775998,30.5844355 C25.0775998,31.3031129 24.9587765,32.0330993 24.724677,32.7544377 C24.5047654,33.4316486 24.2112542,34.1077509 23.8527894,34.7641178 C23.5047437,35.4009711 23.1048237,36.0336112 22.6636703,36.6445202 C22.2285023,37.2472247 21.7795899,37.8146716 21.3293474,38.3315606 C20.8458521,38.8910246 20.3288823,39.4456103 19.7817634,39.9919914 L23.6690124,39.9919914 C24.7989416,39.9919914 25.5579915,40.7705401 25.5579915,41.9296042 C25.5579915,43.1212649 24.8164547,43.8913873 23.6690124,43.8913873 L15.6189598,43.8913873 Z" id="Fill-16" fill="#B4BAC3" mask="url(#mask-4)"></path>
                    <path d="M19.5838429,23.9447965 C17.3474832,23.9447965 15.60925,24.6561563 14.4174706,26.0586971 C13.3132569,27.3590131 12.7537236,29.0675627 12.7537236,31.1373359 C12.7537236,31.7633236 12.8262147,32.6811286 13.4520318,33.422424 C14.0020327,34.0774604 14.821381,34.4118528 15.8832528,34.4118528 C17.2594742,34.4118528 17.9961339,33.7242197 18.312922,33.3139904 C18.7518586,32.745213 18.964898,32.0336315 18.964898,31.1373359 C18.964898,30.7936303 19.005688,30.3259688 19.1961156,30.0106466 C19.2375707,30.0011116 19.3149388,29.9891373 19.4397476,29.9891373 C19.6709652,29.9891373 19.7108685,30.0343734 19.7277166,30.053887 C19.8622794,30.2068915 19.8906551,30.505361 19.8906551,30.7286588 C19.8906551,31.1005261 19.8139521,31.4757196 19.6558906,31.8761921 C19.4552655,32.383546 19.189465,32.8889042 18.865583,33.3778532 C18.5117735,33.9127035 18.1091933,34.4382405 17.6698134,34.940716 C17.1938554,35.4848796 16.7134637,36.0035425 16.2417177,36.4827347 C15.7560055,36.9767838 15.2842595,37.4444452 14.8391158,37.8741881 C14.3520735,38.3445105 13.9572523,38.7396611 13.6315968,39.0824798 L13.3609192,39.43439 C13.133692,39.8031529 12.981616,40.185664 12.9057996,40.5766014 C12.7648079,40.9400424 12.6861097,41.312575 12.6712568,41.6893207 C12.6501967,42.20244 12.7346587,42.6907237 12.922426,43.1359888 C13.1303667,43.6324772 13.4693233,44.0682072 13.9011659,44.3915123 C14.3990708,44.765597 14.9936303,44.9638376 15.6190041,44.9638376 L23.668835,44.9638376 C25.4123887,44.9638376 26.6303269,43.7160752 26.6303269,41.9294712 C26.6303269,40.1572806 25.4123887,38.9194968 23.668835,38.9194968 L22.2385225,38.9194968 C22.672582,38.4143604 23.1088584,37.8593312 23.5324987,37.2728141 C23.9998109,36.6255388 24.4238946,35.9547585 24.7934438,35.278878 C25.1838313,34.5639702 25.503723,33.8264445 25.7442513,33.086036 C26.0131554,32.2573728 26.1497135,31.4158483 26.1497135,30.5845242 C26.1497135,29.6742586 26.012712,28.8185424 25.7422562,28.0413242 C25.4491884,27.1984693 25.0018278,26.4591696 24.4121453,25.8436038 C23.8191376,25.2255989 23.0926753,24.7457415 22.2513802,24.4166711 C21.4513185,24.1035663 20.5537154,23.9447965 19.5838429,23.9447965 M19.5838429,26.0895197 C20.28858,26.0895197 20.9175007,26.1977315 21.4701618,26.4141552 C22.0228228,26.6303571 22.4874749,26.9350356 22.8638963,27.3275252 C23.2403176,27.7202366 23.5247397,28.1927764 23.7169407,28.7455882 C23.9091417,29.2986216 24.0053531,29.9113046 24.0053531,30.5845242 C24.0053531,31.1934375 23.9051514,31.806564 23.7049697,32.4232385 C23.5045663,33.0403564 23.2403176,33.649048 22.9120019,34.2499785 C22.5834646,34.850909 22.2110335,35.4398652 21.7944871,36.0166255 C21.3777191,36.5936075 20.9534137,37.1306752 20.520906,37.6271636 C19.4956122,38.8132806 18.3344254,39.9585965 17.0366806,41.0644417 L23.668835,41.0644417 C24.2132937,41.0644417 24.4859665,41.3527109 24.4859665,41.9294712 C24.4859665,42.5226406 24.2132937,42.8188927 23.668835,42.8188927 L15.6190041,42.8188927 C15.4585041,42.8188927 15.3144087,42.7707739 15.1864964,42.674758 C15.057919,42.5785205 14.9619293,42.4547864 14.898084,42.3022255 C14.8337953,42.150108 14.8056413,41.9738203 14.8140654,41.7733623 C14.8218243,41.5733478 14.881901,41.3688984 14.9940737,41.1604575 C14.9940737,40.9682041 15.057919,40.7679679 15.1864964,40.559527 C15.4906484,40.2391047 15.8710601,39.858811 16.3277315,39.4177591 C16.7844029,38.9773724 17.2650163,38.5006194 17.7695717,37.9877219 C18.2741271,37.4750461 18.7789041,36.9299955 19.2834595,36.3532353 C19.7880149,35.7762533 20.2446863,35.1795359 20.653252,34.562418 C21.0618177,33.9457436 21.3941238,33.31266 21.6503918,32.6636107 C21.9064381,32.0145614 22.0347938,31.3697253 22.0347938,30.7286588 C22.0347938,29.8631858 21.8024678,29.1662395 21.3380374,28.6375981 C20.8731637,28.1087349 20.2404743,27.8444141 19.4397476,27.8444141 C18.5266264,27.8444141 17.861571,28.153084 17.4452463,28.7697584 C17.0284782,29.3868763 16.8205376,30.1758471 16.8205376,31.1373359 C16.8205376,31.5380301 16.7520369,31.8265211 16.6161439,32.0025871 C16.4800292,32.1790966 16.2355105,32.2669078 15.8832528,32.2669078 C15.4826677,32.2669078 15.2184191,32.1910709 15.090285,32.0385099 C14.9619293,31.8866142 14.898084,31.5861489 14.898084,31.1373359 C14.898084,29.5831212 15.2824861,28.3533202 16.0515118,27.4477113 C16.8205376,26.5425459 17.9979074,26.0895197 19.5838429,26.0895197" id="Fill-17" fill="#FEFEFE" mask="url(#mask-4)"></path>
                    <path d="M29.3227373,43.2436907 C28.9403304,43.2436907 28.5541549,43.1243915 28.1748516,42.8893412 L28.1174351,42.851201 C27.6430289,42.5134825 27.3523997,42.0169941 27.299417,41.4533169 C27.2528631,40.9550546 27.4164667,40.4071213 27.8146132,39.7283581 L27.8301312,39.7028573 C28.1189869,39.2405178 28.423804,38.6287218 28.7361584,37.8847654 C29.0576018,37.1190779 29.3692911,36.2571529 29.6628023,35.3227171 C29.9587519,34.3794114 30.2351933,33.3760127 30.4843674,32.3406826 C30.7315463,31.3120049 30.9270726,30.2835489 31.0654042,29.2836981 C31.1886611,28.4186687 31.4469243,27.8567654 31.8783236,27.5115075 C32.2219356,27.2367648 32.6453542,27.0917431 33.1029123,27.0917431 C33.222844,27.0917431 33.3472093,27.1017217 33.4720181,27.1214571 C34.2581136,27.2456346 34.6613589,27.6685034 34.8608755,28.0013435 C35.1193604,28.4330821 35.1825406,28.9974246 35.0652692,29.8309662 C34.9648458,30.7137353 34.7883845,31.6996161 34.5414272,32.7622209 C34.2973519,33.8119645 34.0036191,34.8925306 33.6682094,35.9739838 C33.3316914,37.0567674 32.9581519,38.1111676 32.5575669,39.1085792 C32.1516614,40.118852 31.7430956,41.011378 31.3431757,41.7613215 C30.9809421,42.4139187 30.579692,42.8343483 30.1077243,43.0631898 C29.8612105,43.1827106 29.5967401,43.2436907 29.3227373,43.2436907 M48.325366,43.8140203 C47.9172437,43.8140203 47.5379404,43.6960516 47.2280246,43.4725321 C46.7875362,43.1556577 46.5051093,42.6068374 46.31313,41.6936891 C46.1544034,40.9169144 45.9511182,40.020397 45.7079296,39.0229854 C45.4638542,38.0231346 45.1880779,36.980487 44.8890246,35.9245345 C44.5850943,34.8528382 44.2758435,33.800212 43.9696963,32.7959263 C43.6633275,31.7903101 43.365826,30.8853664 43.085616,30.1063742 C42.8714681,29.4925825 42.8424274,28.9792415 42.9929516,28.5271022 C43.1082279,28.1816226 43.3864427,27.7046479 44.0592571,27.3840038 C44.3372503,27.246965 44.6258844,27.1773369 44.9174003,27.1773369 C45.2047043,27.1773369 45.4853577,27.2449693 45.7511582,27.3777949 C46.2486196,27.6265935 46.6139567,28.0771805 46.8367503,28.7171382 C47.0786088,29.3783835 47.3643609,30.2558307 47.680484,31.3100092 C47.9901781,32.3426783 48.3145035,33.4460843 48.6448143,34.5894044 C48.976677,35.7407075 49.2905832,36.8818102 49.577222,37.9814465 C49.8647477,39.0833002 50.1086013,40.0427933 50.3021325,40.8330945 C50.4825842,41.5559851 50.4992106,42.1059141 50.3533417,42.5587186 C50.2347402,42.9254858 49.8858078,43.562339 48.8758103,43.7494923 C48.6860478,43.7925109 48.5011624,43.8140203 48.325366,43.8140203 M37.1016689,47.5930083 C35.970853,47.5930083 34.6066026,47.332679 32.9304413,46.7969417 C32.2472077,46.5862834 31.7648208,46.2341514 31.507001,45.753407 C31.3205638,45.4052665 31.1569601,44.8329412 31.4340666,44.0821107 C31.6340266,43.5142203 32.0390453,43.0960081 32.5695379,42.9192769 C32.7564184,42.8567446 32.9621423,42.8252568 33.1811672,42.8252568 C33.4760084,42.8252568 33.8005555,42.8811366 34.1732082,42.9957791 C34.8932415,43.2257293 35.4973335,43.3895992 35.978612,43.4860586 C36.4279678,43.5758655 36.8061626,43.6213234 37.1016689,43.6213234 C37.1471144,43.6213234 37.1843575,43.6195494 37.2140633,43.6168885 C37.234015,43.5343991 37.255075,43.3960299 37.255075,43.1793844 L37.255075,25.5368632 C37.255075,24.7523274 37.5696463,24.2731352 37.8334516,24.0092579 C38.0972569,23.7453807 38.5678945,23.4307237 39.3125349,23.4307237 C39.8696296,23.4307237 40.3639875,23.6305165 40.7426257,24.0085927 C41.0075395,24.2742439 41.3216673,24.7536578 41.3216673,25.5368632 L41.3216673,43.6122318 C41.3216673,44.1339991 41.2487329,44.6331484 41.1050809,45.0959314 C40.9428074,45.617477 40.6754551,46.0727207 40.3105614,46.4494664 C39.9476628,46.8237729 39.4834541,47.1140379 38.930793,47.3133871 C38.41471,47.4989882 37.7993121,47.5930083 37.1016689,47.5930083" id="Fill-18" fill="#B4BAC3" mask="url(#mask-4)"></path>
                    <path d="M36.1289367,29.9663419 C36.1511052,29.807572 36.1706135,29.6394889 36.1828062,29.4647534 L36.1828062,42.4333215 C35.7418744,42.3444015 35.1785725,42.1911753 34.5095267,41.9776343 L34.4893534,41.9712037 C34.0127303,41.8241864 33.584878,41.7527843 33.1811893,41.7527843 C32.952632,41.7527843 32.7309468,41.7762893 32.5187941,41.8226342 C32.8621844,41.1396578 33.2086783,40.36377 33.5522903,39.5084974 C33.9639596,38.4833676 34.3472532,37.4014709 34.6917519,36.2925213 C35.0349205,35.1862327 35.3357472,34.0803875 35.5858081,33.0051432 C35.840746,31.9083896 36.0234146,30.8861425 36.1289367,29.9663419 M39.3123353,22.3582513 C38.2010277,22.3582513 37.4823245,22.8436523 37.0753106,23.250999 C36.6682966,23.6581238 36.1828062,24.3852276 36.1828062,25.5367523 L36.1828062,28.770468 C36.1477799,28.3298596 36.0356072,27.8759464 35.7813344,27.4510818 C35.3310919,26.7018036 34.5711552,26.2095284 33.6396342,26.0622893 C33.4591825,26.0339059 33.2787308,26.0192707 33.1029345,26.0192707 C32.3993058,26.0194924 31.7444479,26.2456729 31.2093,26.6736419 C30.2443046,27.4455382 30.0640745,28.7119272 30.0046629,29.1281436 C29.8701,30.1013849 29.6810026,31.0950268 29.4418043,32.090221 C29.1986157,33.1009373 28.9288249,34.0806092 28.6397475,35.0017403 C28.3566556,35.9033578 28.0564939,36.733795 27.7474648,37.4693251 C27.4575006,38.160506 27.1795075,38.7206353 26.9208009,39.1346343 L26.889765,39.1858575 C26.3723519,40.0681832 26.1633028,40.8203442 26.2318035,41.552548 C26.314492,42.4322127 26.7631828,43.2034438 27.4958522,43.7249894 L27.61002,43.8010481 C28.1617943,44.1427581 28.737954,44.3161631 29.3225377,44.3161631 C29.6588341,44.3161631 29.9860414,44.258731 30.2983957,44.1451973 C30.1296933,44.8822796 30.2190325,45.6191401 30.5613143,46.2588761 C30.9568006,46.9959584 31.6469065,47.5212736 32.6141187,47.8215171 C34.3929203,48.3894075 35.8609194,48.6654808 37.1016911,48.6654808 C37.9352272,48.6654808 38.652157,48.5532775 39.2934921,48.3224404 C40.0017761,48.0672112 40.6025429,47.6886915 41.0793876,47.1970816 C41.5637697,46.6966018 41.9160274,46.0978888 42.1284017,45.4155777 C42.3046414,44.847909 42.3937588,44.2418783 42.3937588,43.6121209 L42.3937588,31.3832961 C42.5722154,31.9152637 42.7564357,32.4924674 42.9444247,33.1086984 C43.2494635,34.1105449 43.5567191,35.1567405 43.8575458,36.2175713 C44.1526088,37.2588885 44.4248381,38.2888967 44.6666966,39.2781037 C44.9067816,40.262654 45.1069633,41.1458667 45.2614778,41.9024626 L45.2639164,41.9144368 C45.4330621,42.718708 45.7381009,43.7216632 46.6031163,44.3438813 C47.0943706,44.6984525 47.6907036,44.8864927 48.3253882,44.8864927 C48.5741189,44.8864927 48.8317171,44.8574441 49.0917538,44.8002337 C50.2199094,44.5840318 51.0492336,43.8910769 51.3731156,42.8903391 C51.5837164,42.2357462 51.5732972,41.4988856 51.3411929,40.5686629 C51.1483268,39.7814662 50.9031431,38.8168729 50.6147307,37.7105843 C50.3263183,36.6054043 50.0101953,35.4554318 49.6750074,34.292598 C49.3427013,33.1419602 49.0172675,32.0352281 48.7073517,31.001672 C48.386795,29.93308 48.0959441,29.0396671 47.8430013,28.3464905 C47.4457416,27.2215752 46.7478767,26.6771898 46.230907,26.4186345 C45.8141389,26.2104154 45.3725421,26.1048645 44.9174225,26.1048645 C44.4623029,26.1048645 44.0162724,26.2106371 43.5910803,26.419078 C43.0326554,26.6867249 42.6524654,27.0344219 42.3937588,27.3836712 L42.3937588,25.5367523 C42.3937588,24.3870015 41.9093768,23.6601195 41.5030279,23.2527729 C40.9246514,22.674904 40.147645,22.3582513 39.3123353,22.3582513 M44.9174225,28.2498094 C45.0373542,28.2498094 45.1555123,28.2788581 45.2716754,28.3369554 C45.5119821,28.4571415 45.6959807,28.7017269 45.8243364,29.0700463 C46.0646431,29.7273002 46.3410845,30.5763639 46.6534389,31.6181246 C46.9657932,32.6596636 47.2861283,33.7495431 47.6148873,34.8868761 C47.9427597,36.0248744 48.2515671,37.1464635 48.5397577,38.2520869 C48.8281701,39.3577104 49.0684768,40.3034552 49.2606778,41.0882128 C49.3885902,41.6013321 49.4127538,41.9818475 49.3329472,42.2299808 C49.2524755,42.4787793 49.0283518,42.6348882 48.6599111,42.6987509 C48.5397577,42.7273561 48.4280284,42.7415478 48.3253882,42.7415478 C48.1405028,42.7415478 47.9835497,42.695203 47.8549723,42.6025133 C47.654569,42.4583787 47.4903003,42.0820765 47.3623879,41.4729414 C47.2018879,40.6879621 46.9977159,39.7865663 46.7496502,38.7687541 C46.5009195,37.7513854 46.2246998,36.7058551 45.9205478,35.632163 C45.6161741,34.5586927 45.30781,33.5091709 44.9954557,32.4833759 C44.6828796,31.4580243 44.3827179,30.5446543 44.0943056,29.7432658 C43.9659499,29.3747247 43.9382392,29.0822423 44.0102869,28.8658186 C44.0823346,28.6496167 44.2541406,28.4775421 44.5268133,28.3491514 C44.6591593,28.2828495 44.7890668,28.2498094 44.9174225,28.2498094 M33.1027128,28.1642156 C33.1674449,28.1642156 33.2346155,28.1697592 33.3048897,28.1808465 C33.6090417,28.2289653 33.8216377,28.3533646 33.9417911,28.5533791 C34.0619444,28.7538371 34.0816744,29.1343525 34.0016461,29.695147 C33.9056564,30.5446543 33.7373974,31.4857425 33.4970907,32.5192987 C33.256784,33.5528548 32.9721403,34.5986069 32.6440462,35.6561115 C32.3155089,36.7138379 31.9550488,37.7316501 31.5626661,38.7086611 C31.1700617,39.6863373 30.7816694,40.5356228 30.397489,41.2567394 C30.1571823,41.6891433 29.9046829,41.9698732 29.6402125,42.0978204 C29.5395675,42.1468262 29.4338237,42.1712182 29.3225377,42.1712182 C29.1418643,42.1712182 28.9474465,42.1066902 28.7392841,41.9776343 C28.5147171,41.8177557 28.3907951,41.6090932 28.3666314,41.3527553 C28.3426894,41.0966391 28.4666114,40.7360808 28.7392841,40.2710804 C29.0593975,39.7584046 29.3881565,39.1015942 29.7244529,38.3002057 C30.060971,37.499039 30.3810843,36.6138307 30.6856797,35.6439155 C30.9898317,34.6746656 31.2702634,33.6572969 31.5267531,32.5915877 C31.7827995,31.5261002 31.9834245,30.472587 32.1275199,29.4306046 C32.2075482,28.8700318 32.3474315,28.5094735 32.5480566,28.3491514 C32.7019061,28.2258609 32.8867915,28.1642156 33.1027128,28.1642156 M39.3123353,24.5031962 C39.5845647,24.5031962 39.8089101,24.5914509 39.9851498,24.7675169 C40.1611678,24.9442482 40.2496201,25.2003643 40.2496201,25.5367523 L40.2496201,43.6121209 C40.2496201,44.0287809 40.1930904,44.4172791 40.0813611,44.7778374 C39.9689667,45.1383957 39.7889584,45.4468438 39.540671,45.7034034 C39.292162,45.9595196 38.9678366,46.1599775 38.5674733,46.3043339 C38.1666665,46.4484685 37.6782942,46.5205358 37.1016911,46.5205358 C36.0923586,46.5205358 34.8105751,46.2719591 33.256784,45.7754707 C32.8400159,45.6468583 32.5719986,45.4707923 32.4518452,45.2466075 C32.3316919,45.0219793 32.3277015,44.7576585 32.4396525,44.4534236 C32.5358639,44.1806766 32.6921519,44.0088237 32.9085166,43.9365347 C32.9863281,43.9105905 33.077219,43.8977292 33.1811893,43.8977292 C33.3656314,43.8977292 33.5910852,43.9385304 33.8575507,44.020798 C34.6103935,44.2611702 35.2470732,44.433023 35.7680333,44.5374652 C36.2883283,44.6414639 36.7330287,44.6937958 37.1016911,44.6937958 C37.5823045,44.6937958 37.9066299,44.5651834 38.0746672,44.309289 C38.2431479,44.0525076 38.3271666,43.6759836 38.3271666,43.1794953 L38.3271666,25.5367523 C38.3271666,25.2003643 38.4149539,24.9442482 38.5914153,24.7675169 C38.7676549,24.5914509 39.00774,24.5031962 39.3123353,24.5031962" id="Fill-19" fill="#FEFEFE" mask="url(#mask-4)"></path>
                    <path d="M54.9464362,33.1655983 L57.2958554,33.1655983 L57.2958554,27.9794129 L54.9464362,27.9794129 L54.9464362,33.1655983 Z M64.7715218,31.1521485 C64.9963105,31.3654677 65.2015909,31.6464194 65.3911317,31.9985514 C66.0555221,33.1813422 66.6471998,34.3820945 67.1411143,35.5511372 C67.6272698,36.7019967 68.0639895,37.8313469 68.4395241,38.9083651 C68.5115718,39.1185799 68.5696533,39.3121638 68.6137687,39.4919995 L68.6137687,31.1521485 L64.7715218,31.1521485 Z M57.2956337,42.8521101 L57.2958554,37.0649942 L54.9464362,37.0649942 L54.9464362,42.8521101 L57.2956337,42.8521101 Z M68.6097783,47.8602339 C68.5328536,47.8602339 68.454377,47.8593469 68.3743487,47.8573512 C68.0522402,47.8569077 67.7292449,47.8382811 67.413787,47.8023583 C67.1125169,47.767766 66.7859747,47.7205342 66.4423627,47.6619934 C66.0850062,47.6005698 65.6850862,47.5138673 65.2525785,47.4036598 C64.8198491,47.2930087 64.3170672,47.1453262 63.7570905,46.9639383 C63.038609,46.741084 62.5701883,46.4352969 62.2948553,46.0051104 C62.078934,45.6678354 61.8845161,45.0842011 62.1855646,44.2207238 L62.1984223,44.1854663 C62.4817359,43.4554798 62.9641228,43.145923 63.3190407,43.0148714 C63.5090249,42.9441346 63.7231727,42.9082118 63.9537253,42.9082118 C64.2753904,42.9082118 64.6469347,42.9776181 65.0891966,43.1204223 C65.5217043,43.2545784 65.9125352,43.3670034 66.2390774,43.4506014 C66.56961,43.534643 66.8626777,43.6042711 67.1098566,43.6568248 C67.3373056,43.7051654 67.5476848,43.7397577 67.7336786,43.7597148 C67.9442795,43.7823328 68.1624177,43.8009594 68.3880932,43.8160381 C68.4330953,43.8186991 68.4862997,43.8202513 68.5368439,43.8202513 C68.5368439,43.8202513 68.5791858,43.8200296 68.5978073,43.8193643 C68.6068964,43.7410881 68.6137687,43.6342068 68.6137687,43.4920679 L68.6137687,40.929576 C68.4328736,41.4331602 68.0429294,41.8101277 67.4960322,42.0032681 C67.2273498,42.1012796 66.9555638,42.1527246 66.6979657,42.1527246 C66.3211009,42.1527246 65.9650746,42.0420736 65.6682382,41.8327457 C65.2536869,41.5413721 64.9402242,41.0561928 64.6830694,40.3066927 C64.358079,39.3476431 63.9495132,38.3103173 63.4669047,37.2197726 C62.9840744,36.1294496 62.4389507,35.023161 61.8470513,33.9321727 C61.1427576,32.6083517 61.4794974,31.6688157 62.107088,31.1521485 L61.9964671,31.1521485 C61.73111,31.1521485 61.4865913,31.1148952 61.266458,31.0441584 L61.266458,43.3718818 C61.266458,44.5167542 61.0376789,45.3338866 60.5674847,45.8698456 C60.0602691,46.4472711 59.2622026,46.7275575 58.127618,46.7275575 L54.0907316,46.7275575 C53.5859545,46.7275575 53.1685214,46.6789952 52.8144902,46.5792097 C52.3542718,46.4499321 51.97253,46.2131078 51.6812357,45.875611 C51.41211,45.5638368 51.2236776,45.1715688 51.1214808,44.7094511 C51.0396789,44.3422404 50.9999973,43.9045146 50.9999973,43.3718818 L50.9999973,27.2913363 C50.9999973,26.8125876 51.0345802,26.4114499 51.1061845,26.0650833 C51.200844,25.6056265 51.3870596,25.2189022 51.6595106,24.915776 C51.9439326,24.6000103 52.3234576,24.3760473 52.787888,24.2496523 C53.1465745,24.1516408 53.5730968,24.1037437 54.0907316,24.1037437 L58.127618,24.1037437 C58.6583322,24.1037437 59.0937219,24.1509755 59.4592807,24.2476566 C59.9438844,24.3760473 60.3358237,24.6110976 60.623571,24.9468204 C60.8864896,25.2537163 61.0667196,25.6377796 61.1600491,26.0888101 C61.2316534,26.4385029 61.266458,26.831436 61.266458,27.2913363 L61.266458,27.3365724 C61.4865913,27.2658356 61.73111,27.2285823 61.9964671,27.2285823 L68.6137687,27.2285823 L68.6137687,25.0080222 C68.6137687,24.3625208 68.8044179,23.8447449 69.1799525,23.4686644 C69.4388808,23.2098873 69.8988774,22.9021045 70.6231228,22.9021045 C71.3544621,22.9021045 71.8208876,23.2001305 72.0833628,23.4500378 C72.3567006,23.7112541 72.6803609,24.1919985 72.6803609,25.0080222 L72.6803609,27.2285823 L73.3866498,27.2285823 C74.1973524,27.2285823 74.6591225,27.5518874 74.9036412,27.8230822 C75.1286516,28.073433 75.3960039,28.512711 75.3960039,29.1903654 C75.3960039,29.8686851 75.1282083,30.3081849 74.9038629,30.5572051 C74.5491667,30.9516905 74.0384041,31.1521485 73.3866498,31.1521485 L72.6803609,31.1521485 L72.6803609,43.612254 C72.6803609,44.300774 72.6185108,44.8788647 72.4910418,45.3791227 C72.3376357,45.9807184 72.0574257,46.4816417 71.6583924,46.8692529 C71.2711085,47.2442247 70.7802976,47.5147543 70.1983741,47.6748546 C69.7428111,47.7996974 69.2234028,47.8602339 68.6097783,47.8602339 L68.6097783,47.8602339 Z" id="Fill-20" fill="#B4BAC3" mask="url(#mask-4)"></path>
                    <path d="M56.0187272,41.7797486 L56.223786,41.7797486 L56.223786,38.1375775 L56.0187272,38.1375775 L56.0187272,41.7797486 Z M62.3385273,42.3225817 L62.3385273,37.3233278 C62.3886282,37.4337571 62.4380639,37.5441864 62.4870564,37.6546157 C62.9559204,38.7143378 63.3527368,39.7212844 63.6661996,40.6466287 C63.8282515,41.1189468 64.0140236,41.5152061 64.2310534,41.8469375 C64.1366155,41.8393981 64.0441728,41.8356284 63.9537253,41.8356284 C63.5950387,41.8356284 63.2549737,41.894391 62.9435061,42.010364 C62.7284715,42.0897489 62.5260729,42.1946345 62.3385273,42.3225817 L62.3385273,42.3225817 Z M66.7369822,32.2245101 L67.5416993,32.2245101 L67.5416993,33.8237392 C67.2907517,33.2933238 67.0220693,32.7593604 66.7369822,32.2245101 L66.7369822,32.2245101 Z M56.0187272,32.093015 L56.223786,32.093015 L56.223786,29.0517744 L56.0187272,29.0517744 L56.0187272,32.093015 Z M70.6231228,21.8297429 C69.5319885,21.8297429 68.8241479,22.3080481 68.4224544,22.7096293 C68.0203175,23.1123193 67.5416993,23.8369838 67.5416993,25.0080222 L67.5416993,26.155999 L62.2607158,26.155999 C62.2460846,26.0599832 62.2294582,25.9664065 62.210615,25.8748256 C62.0793774,25.2404115 61.8197841,24.6946957 61.4380423,24.2492088 C61.0057562,23.7451811 60.4324785,23.3959319 59.7335052,23.2109961 C59.2770555,23.0901447 58.7516617,23.0313821 58.127618,23.0313821 L54.0907316,23.0313821 C53.4766637,23.0313821 52.9579205,23.0916969 52.504796,23.215431 C51.8397406,23.3965971 51.2873012,23.726998 50.8636609,24.1970986 C50.4606373,24.6454682 50.1895164,25.2007191 50.0558403,25.8495466 C49.9698264,26.26665 49.9279279,26.7387464 49.9279279,27.2913363 L49.9279279,43.3718818 C49.9279279,43.9838995 49.9760336,44.4979058 50.0751269,44.9433926 C50.2158969,45.5791372 50.4836926,46.1295097 50.8703115,46.5769923 C51.2952819,47.0692674 51.8678946,47.4271648 52.5256344,47.6121006 C52.9743252,47.7382738 53.4866395,47.8001409 54.0907316,47.8001409 L58.127618,47.8001409 C59.5685714,47.8001409 60.6601491,47.3890246 61.3724235,46.5783227 C61.375527,46.5747748 61.3788523,46.5710051 61.3819559,46.5674572 C61.3852812,46.5727791 61.3886065,46.578101 61.3921534,46.5834229 C61.8038227,47.2267068 62.4730902,47.6863854 63.438529,47.9879594 C64.0157971,48.1746691 64.5363138,48.3274518 64.9858913,48.4425378 C65.4481048,48.5600629 65.8761788,48.6529743 66.2599158,48.718611 C66.6250312,48.7809215 66.9708601,48.831036 67.2903084,48.867624 C67.6432311,48.9079817 68.002361,48.9288258 68.3603825,48.9297128 C68.4450663,48.9317085 68.5281982,48.9328172 68.61,48.9328172 C69.3205009,48.9328172 69.9323519,48.8596412 70.4808009,48.7092977 C71.2396292,48.5008569 71.8858414,48.141629 72.4028111,47.6411493 C72.9483783,47.1111774 73.3267948,46.440397 73.5298584,45.6452174 C73.6799392,45.0553742 73.752652,44.3910244 73.752652,43.612254 L73.752652,32.2078792 C74.7413677,32.1162983 75.3527753,31.6617198 75.7017077,31.2736651 C76.0504185,30.8864973 76.4680733,30.2092863 76.4680733,29.1903654 C76.4680733,28.1732185 76.0515269,27.4962292 75.7021511,27.1075093 C75.3510018,26.718124 74.7398159,26.2642108 73.752652,26.1726299 L73.752652,25.0080222 C73.752652,23.8128135 73.2485399,23.0801662 72.825343,22.675924 C72.4187725,22.2885345 71.7089366,21.8297429 70.6231228,21.8297429 L70.6231228,21.8297429 Z M63.5156754,31.7062907 C63.6027977,31.7062907 63.6852646,31.7209259 63.7626327,31.7501963 C63.994737,31.838451 64.2230727,32.0907975 64.4474181,32.5072357 C65.1042712,33.6771653 65.6731152,34.8309076 66.1537286,35.9686841 C66.634342,37.1066824 67.0584257,38.2038795 67.4273098,39.2616058 C67.6195108,39.8226221 67.6875681,40.2270861 67.6314818,40.4754411 C67.5751738,40.7240179 67.4109051,40.8960924 67.1388974,40.9921083 C66.9775106,41.0508709 66.8307551,41.080363 66.6981873,41.080363 C66.5405692,41.080363 66.4033461,41.0388966 66.285853,40.9561855 C66.0694883,40.804068 65.8730752,40.4716714 65.6970572,39.9585522 C65.3605392,38.965132 64.9439928,37.9076274 64.4474181,36.7858165 C63.9508434,35.6644492 63.3979606,34.5424166 62.7894349,33.4208275 C62.3888498,32.6677795 62.4369555,32.1551037 62.9335302,31.8823567 C63.1472347,31.7648315 63.3412092,31.7062907 63.5156754,31.7062907 L63.5156754,31.7062907 Z M54.2108849,43.9246935 L58.0076864,43.9246935 C58.2477714,43.9246935 58.3679247,43.7563886 58.3679247,43.4197788 L58.3679247,35.9926326 L53.8743669,35.9926326 L53.8743669,43.4197788 C53.8743669,43.5641352 53.9062895,43.6843213 53.9705782,43.7803371 C54.0344235,43.8765747 54.1146736,43.9246935 54.2108849,43.9246935 L54.2108849,43.9246935 Z M53.8743669,34.2379599 L58.3679247,34.2379599 L58.3679247,27.3394551 C58.3679247,27.2115079 58.3399924,27.1075093 58.283906,27.0270156 C58.227598,26.9469655 58.1355987,26.9070513 58.0076864,26.9070513 L54.2108849,26.9070513 C53.9863179,26.9070513 53.8743669,27.0511859 53.8743669,27.3394551 L53.8743669,34.2379599 L53.8743669,34.2379599 Z M58.127618,25.1763271 C58.5603474,25.1763271 58.9123834,25.2122499 59.1850561,25.2845389 C59.4572855,25.3563845 59.6656695,25.4767923 59.8097649,25.6448755 C59.9538602,25.8131804 60.0538402,26.0338172 60.1101483,26.3061208 C60.1660129,26.5786461 60.1941669,26.9070513 60.1941669,27.2913363 L60.1941669,43.3718818 C60.1941669,44.237133 60.0498499,44.8338503 59.7616592,45.1624773 C59.4732468,45.4906607 58.9285664,45.6551959 58.127618,45.6551959 L54.0907316,45.6551959 C53.6899248,45.6551959 53.3613874,45.6192731 53.1053411,45.5469841 C52.8490731,45.4749168 52.6446794,45.3507393 52.4926034,45.1744515 C52.340084,44.9981638 52.2321233,44.7659962 52.168278,44.4775052 C52.104211,44.1890142 52.0720666,43.8202513 52.0720666,43.3718818 L52.0720666,27.2913363 C52.0720666,26.8910856 52.099999,26.5546975 52.1560853,26.2819505 C52.2121717,26.0096469 52.3123733,25.793445 52.4564687,25.6329012 C52.6007857,25.4730226 52.8051794,25.3563845 53.0694281,25.2845389 C53.3336768,25.2122499 53.6739635,25.1763271 54.0907316,25.1763271 L58.127618,25.1763271 L58.127618,25.1763271 Z M70.6231228,23.9744661 C70.9272748,23.9744661 71.1675815,24.0585076 71.3440429,24.2268125 C71.5202826,24.3951174 71.6082916,24.6556685 71.6082916,25.0080222 L71.6082916,28.3009439 L73.3866498,28.3009439 C73.7229462,28.3009439 73.9632528,28.3814376 74.1075699,28.5413161 C74.2516652,28.7016382 74.3237129,28.9180619 74.3237129,29.1903654 C74.3237129,29.4631125 74.2516652,29.6793144 74.1075699,29.8394147 C73.9632528,29.9997368 73.7229462,30.0797869 73.3866498,30.0797869 L71.6082916,30.0797869 L71.6082916,43.612254 C71.6082916,44.2047581 71.5561956,44.7059031 71.4522252,45.1143585 C71.3478115,45.5230356 71.1675815,45.851219 70.9115352,46.0997958 C70.6550455,46.3481508 70.3227394,46.52843 69.9141737,46.6406333 C69.5563739,46.7388665 69.1214276,46.7878723 68.61,46.7878723 C68.5377307,46.7878723 68.4636878,46.7867636 68.3885366,46.7849896 C68.1001242,46.7849896 67.8154805,46.7688022 67.5352704,46.7368708 C67.2548387,46.704496 66.9502433,46.6605904 66.6221493,46.6047105 C66.293612,46.5483871 65.9251712,46.4683369 65.5168272,46.3643383 C65.1082615,46.2598961 64.6314167,46.1197529 64.086958,45.9436869 C63.622306,45.7993305 63.3261346,45.6270342 63.1980006,45.4270197 C63.0694232,45.22634 63.0694232,44.9420622 63.1980006,44.573521 C63.3097299,44.2852518 63.4742203,44.1007595 63.690585,44.0207093 C63.7626327,43.9940998 63.85042,43.9805734 63.9537253,43.9805734 C64.1601141,43.9805734 64.4287965,44.034014 64.7597724,44.1408954 C65.2242028,44.2852518 65.6285565,44.4012247 65.9732769,44.4894795 C66.3177756,44.5772907 66.6221493,44.6495798 66.8866197,44.7059031 C67.1508684,44.761783 67.3949437,44.801919 67.6195108,44.8260892 C67.8436345,44.8500378 68.0759605,44.8699949 68.3162672,44.8861823 C68.3934136,44.8903954 68.4670131,44.8926129 68.5368439,44.8926129 C68.9746721,44.8926129 69.2695133,44.8063539 69.4215893,44.6336141 C69.597829,44.4331561 69.6860597,44.0526407 69.6860597,43.4920679 L69.6860597,30.0797869 L61.9964671,30.0797869 C61.387498,30.0797869 61.083346,29.7833131 61.083346,29.1903654 C61.083346,28.5976395 61.387498,28.3009439 61.9964671,28.3009439 L69.6860597,28.3009439 L69.6860597,25.0080222 C69.6860597,24.6556685 69.7700784,24.3951174 69.9383374,24.2268125 C70.1065964,24.0585076 70.3347104,23.9744661 70.6231228,23.9744661 L70.6231228,23.9744661 Z" id="Fill-21" fill="#FEFEFE" mask="url(#mask-4)"></path>
                </g>
            </g>
        </g>
    </g>
</svg>