<?xml version="1.0" encoding="UTF-8"?>
<svg width="483px" height="78px" viewBox="0 0 483 78" version="1.1" xmlns="http://www.w3.org/2000/svg" xmlns:xlink="http://www.w3.org/1999/xlink">
    <!-- Generator: Sketch 45.2 (43514) - http://www.bohemiancoding.com/sketch -->
    <title>txt7-1</title>
    <desc>Created with Sketch.</desc>
    <defs>
        <polygon id="path-1" points="84.6569479 7.75593253e-05 84.6569479 77.7927788 0 77.7927788 0 38.8964282 0 7.75593253e-05"></polygon>
    </defs>
    <g id="Page-1" stroke="none" stroke-width="1" fill="none" fill-rule="evenodd">
        <g id="新版" transform="translate(-799.000000, -6415.000000)">
            <g id="txt7-1" transform="translate(799.000000, 6415.000000)">
                <g transform="translate(167.000000, 1.000000)">
                    <path d="M12.56,27.67 L7.97,27.67 L7.46,25.42 C8.96,25.54 10.4,25.6 11.75,25.6 C12.86,25.6 13.43,25.03 13.43,23.92 L13.43,0.94 L15.65,0.94 L15.65,24.49 C15.65,26.59 14.6,27.67 12.56,27.67 Z M5.39,7.9 L7.55,8.74 C6.11,14.74 4.22,19.3 1.88,22.42 L0.02,20.77 C2.42,17.59 4.19,13.3 5.39,7.9 Z M22.43,7.18 L20.48,8.41 C22.79,13.6 24.62,18.31 25.97,22.57 L27.89,21.22 C26.63,17.23 24.8,12.55 22.43,7.18 Z M37.19,9.58 L37.19,12.28 L49.97,12.28 L49.97,9.58 L37.19,9.58 Z M49.97,7.75 L49.97,4.93 L37.19,4.93 L37.19,7.75 L49.97,7.75 Z M37.19,14.14 L37.19,17.8 C42.17,17.56 46.43,17.26 49.97,16.84 L49.97,14.14 L37.19,14.14 Z M35.06,17.89 L35.06,3.01 L41.06,3.01 C41.45,2.11 41.75,1.18 41.96,0.22 L44.21,0.52 C43.97,1.42 43.67,2.23 43.31,3.01 L52.1,3.01 L52.1,16.24 C53.66,14.5 54.8,12.7 55.55,10.81 L57.41,11.98 C55.97,14.74 54.2,17.11 52.1,19.06 L52.1,25.54 C52.1,27.22 51.29,28.06 49.67,28.06 L46.49,28.06 L45.92,25.99 L48.95,26.08 C49.61,26.08 49.97,25.75 49.97,25.09 L49.97,20.83 C49.31,21.31 48.68,21.76 48.02,22.18 C43.91,24.61 38.75,26.35 32.57,27.43 L31.61,25.48 C39.44,24.1 45.08,22.09 48.56,19.48 L49.46,18.76 C45.08,19.3 39.08,19.72 31.49,20.05 L31.16,18.01 L35.06,17.89 Z M80.72,8.5 L73.07,8.5 L73.07,6.43 L81.68,6.43 L81.68,0.49 L83.84,0.49 L83.84,6.43 L87.29,6.43 L87.29,8.5 L83.84,8.5 L83.84,24.88 C83.84,26.71 82.94,27.64 81.2,27.64 L77.93,27.64 L77.45,25.54 C78.5,25.6 79.52,25.66 80.48,25.66 C81.26,25.66 81.68,25.21 81.68,24.34 L81.68,10.24 C79.58,15.85 76.28,20.5 71.84,24.19 L70.7,22.24 C75.32,18.7 78.68,14.11 80.72,8.5 Z M60.74,6.37 L65.57,6.37 L65.57,0.52 L67.73,0.52 L67.73,6.37 L71.72,6.37 L71.72,8.44 L67.73,8.44 L67.73,10.21 C69.26,11.65 70.82,13.27 72.41,15.1 L71.15,16.96 C69.83,15.1 68.69,13.6 67.73,12.46 L67.73,27.88 L65.57,27.88 L65.57,12.16 C64.46,15.4 62.96,18.34 61.1,20.95 L60.14,18.52 C62.63,15.58 64.4,12.22 65.48,8.44 L60.74,8.44 L60.74,6.37 Z" id="小身材" fill="#454545"></path>
                    <path d="M3.708,54.82 L4.592,54.82 L4.592,57.608 L6.496,57.608 L6.496,58.458 L4.592,58.458 L4.592,61.246 C5.442,61.076 6.258,60.889 7.023,60.702 L7.023,61.552 C6.241,61.756 5.442,61.96 4.592,62.13 L4.592,65.581 L3.708,65.581 L3.708,62.3 C2.637,62.487 1.515,62.657 0.359,62.81 L0.223,61.909 C1.447,61.756 2.62,61.586 3.708,61.399 L3.708,58.458 L0.716,58.458 L0.512,57.625 C1.107,56.486 1.651,55.041 2.161,53.273 L0.189,53.273 L0.189,52.389 L2.399,52.389 C2.586,51.658 2.773,50.91 2.943,50.128 L3.81,50.281 C3.64,51.012 3.47,51.709 3.3,52.389 L6.615,52.389 L6.615,53.273 L3.062,53.273 C2.569,54.939 2.042,56.384 1.464,57.608 L3.708,57.608 L3.708,54.82 Z M10.491,59.886 L7.278,59.886 L7.278,59.002 L14.707,59.002 L14.707,59.886 L11.392,59.886 L11.392,64.187 L15.506,64.187 L15.506,65.088 L6.36,65.088 L6.36,64.187 L10.491,64.187 L10.491,59.886 Z M11.443,55.347 C10.321,56.418 8.927,57.319 7.295,58.033 L6.717,57.268 C9.658,56.044 11.698,54.276 12.837,51.981 L7.346,51.981 L7.346,51.08 L13.874,51.08 L13.874,51.828 C13.398,52.916 12.786,53.885 12.038,54.735 C13.415,55.636 14.588,56.537 15.54,57.438 L14.911,58.084 C14.027,57.2 12.871,56.299 11.443,55.347 Z M22.221,50.961 L32.336,50.961 L32.336,51.845 L27.44,51.845 L27.44,53.545 L31.52,53.545 L31.52,59.903 L27.406,59.903 C27.304,61.195 26.947,62.266 26.301,63.116 C28.103,64.136 30.228,64.697 32.642,64.816 L32.421,65.649 C29.837,65.513 27.61,64.884 25.706,63.745 C24.788,64.544 23.445,65.173 21.694,65.649 L21.201,64.901 C22.884,64.476 24.125,63.932 24.941,63.252 C24.04,62.64 23.224,61.909 22.51,61.059 L23.207,60.583 C23.887,61.382 24.669,62.062 25.536,62.64 C26.08,61.892 26.403,60.974 26.505,59.903 L22.442,59.903 L22.442,53.545 L26.522,53.545 L26.522,51.845 L22.221,51.845 L22.221,50.961 Z M30.653,59.121 L30.653,57.098 L27.44,57.098 L27.44,59.121 L30.653,59.121 Z M26.522,59.121 L26.522,57.098 L23.309,57.098 L23.309,59.121 L26.522,59.121 Z M23.309,56.316 L26.522,56.316 L26.522,54.327 L23.309,54.327 L23.309,56.316 Z M27.44,54.327 L27.44,56.316 L30.653,56.316 L30.653,54.327 L27.44,54.327 Z M19.144,55.84 C18.6,56.724 17.988,57.557 17.325,58.339 L17.036,57.353 C18.702,55.245 19.892,52.848 20.64,50.179 L21.473,50.553 C21.082,51.845 20.606,53.052 20.045,54.208 L20.045,65.632 L19.144,65.632 L19.144,55.84 Z M41.125,65.462 C42.128,65.462 42.638,64.952 42.638,63.932 L42.638,50.417 L41.686,50.417 L41.686,63.694 C41.686,64.289 41.38,64.595 40.785,64.595 C39.969,64.595 39.119,64.561 38.218,64.527 L38.439,65.462 L41.125,65.462 Z M37.147,54.361 C36.433,57.489 35.379,59.988 33.985,61.824 L34.784,62.504 C36.144,60.719 37.232,58.118 38.065,54.718 L37.147,54.361 Z M46.361,53.97 L45.528,54.48 C46.922,57.438 48.027,60.124 48.843,62.572 L49.676,61.994 C48.911,59.716 47.806,57.03 46.361,53.97 Z M53.501,52.984 L53.501,61.705 C52.736,61.96 51.954,62.181 51.138,62.385 L51.376,63.32 C53.331,62.776 55.167,62.062 56.867,61.195 L56.867,60.277 C56.068,60.685 55.252,61.042 54.419,61.365 L54.419,52.984 L56.425,52.984 L56.425,52.083 L51.342,52.083 L51.342,52.984 L53.501,52.984 Z M57.003,51.318 L57.003,52.219 L59.706,52.219 C59.4,53.8 58.958,55.619 58.38,57.676 L64.755,57.676 C64.687,61.518 64.449,63.677 64.075,64.136 C63.769,64.527 63.072,64.731 61.95,64.748 C61.338,64.748 60.658,64.731 59.944,64.731 L60.216,65.598 L61.916,65.598 C63.378,65.581 64.313,65.326 64.721,64.833 C65.299,64.238 65.622,61.569 65.656,56.809 L59.519,56.809 C59.927,55.415 60.284,53.885 60.607,52.219 L66.523,52.219 L66.523,51.318 L57.003,51.318 Z M77.505,56.792 L77.505,65.598 L76.604,65.598 L76.604,56.316 C76.009,58.22 75.193,59.937 74.139,61.467 L73.748,60.498 C75.057,58.73 75.975,56.724 76.519,54.48 L74.003,54.48 L74.003,53.579 L76.604,53.579 L76.604,50.162 L77.505,50.162 L77.505,53.579 L79.664,53.579 L79.664,54.48 L77.505,54.48 L77.505,55.789 C78.287,56.69 79.069,57.693 79.851,58.798 L79.324,59.597 C78.627,58.424 78.015,57.489 77.505,56.792 Z M81.398,51.828 L79.324,51.828 L79.324,50.927 L87.127,50.927 L87.127,51.522 C86.753,53.12 86.396,54.497 86.056,55.619 L88.385,55.619 L88.385,56.163 C88.028,58.526 87.212,60.515 85.937,62.13 C86.855,63.133 87.943,64.034 89.184,64.816 L88.606,65.598 C87.348,64.782 86.26,63.864 85.342,62.827 C84.305,63.949 83.03,64.867 81.517,65.615 L81.007,64.782 C82.503,64.051 83.744,63.15 84.73,62.096 C83.54,60.566 82.673,58.815 82.129,56.843 C81.755,60.651 80.735,63.558 79.086,65.547 L78.372,64.935 C80.344,62.589 81.364,58.815 81.398,53.63 L81.398,51.828 Z M85.308,61.399 C86.396,60.005 87.127,58.356 87.467,56.452 L84.934,56.452 C85.308,55.398 85.699,53.868 86.141,51.828 L82.299,51.828 L82.299,53.63 C82.299,53.8 82.282,53.97 82.282,54.14 C82.673,56.962 83.676,59.376 85.308,61.399 Z M92.159,56.622 L93.077,56.622 L93.077,65.683 L92.159,65.683 L92.159,56.622 Z M103.481,65.632 L101.849,65.632 L101.628,64.782 L103.311,64.816 C103.77,64.816 104.008,64.561 104.008,64.068 L104.008,55.721 L97.208,55.721 L97.208,54.871 L104.909,54.871 L104.909,64.306 C104.909,65.19 104.433,65.632 103.481,65.632 Z M95.576,57.506 L101.492,57.506 L101.492,63.762 L95.576,63.762 L95.576,57.506 Z M100.625,62.963 L100.625,60.991 L96.443,60.991 L96.443,62.963 L100.625,62.963 Z M96.443,60.209 L100.625,60.209 L100.625,58.288 L96.443,58.288 L96.443,60.209 Z M93.621,54.208 C94.539,54.973 95.236,55.653 95.729,56.231 L95.032,56.724 C94.522,56.078 93.825,55.381 92.941,54.633 L93.621,54.208 Z M93.264,52.287 C92.822,53.069 92.329,53.8 91.751,54.446 L90.969,53.936 C92.023,52.814 92.788,51.522 93.281,50.094 L94.165,50.281 C94.012,50.689 93.859,51.08 93.689,51.454 L98.398,51.454 L98.398,52.287 L95.61,52.287 C96.086,52.967 96.46,53.579 96.732,54.14 L95.899,54.446 C95.542,53.698 95.117,52.984 94.641,52.287 L93.264,52.287 Z M100.489,52.287 L101.968,52.287 C102.461,52.933 102.886,53.613 103.226,54.31 L104.059,54.004 C103.787,53.477 103.413,52.899 102.954,52.287 L106.014,52.287 L106.014,51.454 L100.863,51.454 C101.016,51.08 101.152,50.689 101.288,50.298 L100.421,50.111 C100.013,51.42 99.384,52.593 98.534,53.63 L99.299,54.123 C99.741,53.579 100.132,52.967 100.489,52.287 Z M109.618,50.536 L108.989,51.148 C110.111,52.049 111.012,52.899 111.675,53.715 L112.321,53.069 C111.59,52.219 110.689,51.386 109.618,50.536 Z M107.799,55.483 L111.182,55.483 L111.182,63.303 C111.845,62.793 112.576,62.147 113.358,61.399 L113.596,62.385 C112.576,63.354 111.471,64.221 110.298,65.003 L109.941,64.17 C110.145,63.966 110.264,63.762 110.264,63.524 L110.264,56.384 L107.799,56.384 L107.799,55.483 Z M113.834,57.455 L121.807,57.455 L121.807,58.305 C121.229,60.005 120.294,61.433 118.968,62.606 C120.158,63.473 121.637,64.238 123.405,64.884 L122.912,65.666 C121.059,64.935 119.529,64.102 118.305,63.167 C116.928,64.221 115.228,65.054 113.205,65.666 L112.695,64.901 C114.65,64.289 116.282,63.507 117.574,62.555 C116.18,61.331 115.228,59.92 114.735,58.339 L113.834,58.339 L113.834,57.455 Z M115.636,58.339 C116.112,59.733 116.979,60.957 118.237,62.028 C119.444,60.974 120.328,59.75 120.889,58.339 L115.636,58.339 Z M115.228,50.893 L120.702,50.893 L120.702,54.667 C120.702,55.109 120.923,55.33 121.382,55.33 L122.997,55.33 L122.997,56.18 L121.195,56.18 C120.243,56.18 119.784,55.721 119.784,54.82 L119.784,51.76 L116.146,51.76 L116.146,52.457 C116.146,54.276 115.279,55.687 113.579,56.673 L112.95,55.976 C114.463,55.16 115.228,54.021 115.228,52.542 L115.228,50.893 Z M130.137,55.364 L134.846,55.364 L134.846,50.128 L135.798,50.128 L135.798,55.364 L140.286,55.364 L140.286,56.282 L135.798,56.282 L135.798,65.7 L134.846,65.7 L134.846,56.282 L130.137,56.282 L130.137,55.364 Z M126.618,50.332 L125.955,50.961 C127.213,51.913 128.216,52.831 128.964,53.681 L129.593,53.035 C128.777,52.134 127.791,51.233 126.618,50.332 Z M124.799,55.449 L128.301,55.449 L128.301,63.269 C128.981,62.725 129.712,62.079 130.511,61.314 L130.749,62.266 C129.729,63.269 128.624,64.17 127.434,64.952 L127.077,64.136 C127.281,63.932 127.4,63.728 127.4,63.524 L127.4,56.35 L124.799,56.35 L124.799,55.449 Z M147.545,57.302 L147.545,58.22 L162.76,58.22 L162.76,57.302 L147.545,57.302 Z M168.761,61.433 L168.761,65.649 L167.894,65.649 L167.894,60.549 C167.231,62.283 166.211,63.711 164.834,64.867 L164.375,64.119 C165.837,62.997 166.874,61.586 167.52,59.886 L164.562,59.886 L164.562,59.019 L167.894,59.019 L167.894,57.2 L165.225,57.2 L165.225,50.91 L171.379,50.91 L171.379,57.2 L168.761,57.2 L168.761,59.019 L171.991,59.019 L171.991,59.886 L168.761,59.886 L168.761,60.617 C169.849,61.297 170.937,62.096 172.059,62.997 L171.566,63.745 C170.461,62.742 169.526,61.977 168.761,61.433 Z M170.529,56.401 L170.529,54.48 L168.761,54.48 L168.761,56.401 L170.529,56.401 Z M167.894,56.401 L167.894,54.48 L166.092,54.48 L166.092,56.401 L167.894,56.401 Z M166.092,53.698 L167.894,53.698 L167.894,51.743 L166.092,51.743 L166.092,53.698 Z M168.761,51.743 L168.761,53.698 L170.529,53.698 L170.529,51.743 L168.761,51.743 Z M172.28,50.961 L179.692,50.961 L179.692,51.845 L176.36,51.845 C176.309,52.593 176.224,53.29 176.122,53.97 L179.114,53.97 L179.114,61.824 L178.23,61.824 L178.23,54.854 L173.759,54.854 L173.759,61.909 L172.892,61.909 L172.892,53.97 L175.255,53.97 C175.357,53.29 175.442,52.576 175.493,51.845 L172.28,51.845 L172.28,50.961 Z M176.972,62.113 C178.111,63.099 179.08,64.102 179.862,65.088 L179.233,65.717 C178.519,64.765 177.55,63.762 176.36,62.691 L176.972,62.113 Z M175.527,56.095 L176.377,56.095 L176.377,58.985 C176.343,60.77 175.952,62.198 175.238,63.269 C174.524,64.255 173.351,65.037 171.736,65.598 L171.26,64.884 C172.824,64.34 173.929,63.609 174.592,62.691 C175.187,61.739 175.493,60.515 175.527,58.985 L175.527,56.095 Z M196.318,52.168 L196.318,55.381 L195.434,55.381 L195.434,53.035 L188.175,53.035 L188.175,55.449 L187.291,55.449 L187.291,52.168 L191.337,52.168 C191.099,51.437 190.844,50.774 190.555,50.196 L191.49,50.026 C191.762,50.655 192.017,51.369 192.255,52.168 L196.318,52.168 Z M190.555,54.225 L191.473,54.327 C191.201,55.347 190.946,56.282 190.674,57.115 L196.913,57.115 L196.913,57.982 L194.771,57.982 C194.499,59.784 193.87,61.28 192.884,62.436 C194.55,63.371 195.893,64.204 196.913,64.935 L196.318,65.632 C195.264,64.884 193.921,64.034 192.289,63.082 C191.099,64.187 189.144,65.054 186.424,65.7 L186.05,64.833 C188.464,64.289 190.249,63.541 191.422,62.589 C190.419,62.011 189.314,61.416 188.124,60.804 C188.6,59.92 189.042,58.968 189.416,57.982 L186.849,57.982 L186.849,57.115 L189.722,57.115 C190.028,56.197 190.317,55.228 190.555,54.225 Z M193.887,57.982 L190.368,57.982 C189.994,58.968 189.603,59.801 189.229,60.498 C190.249,61.008 191.201,61.518 192.068,61.994 C192.986,60.974 193.598,59.631 193.887,57.982 Z M183.364,65.496 L181.919,65.496 L181.715,64.612 C182.174,64.646 182.616,64.68 183.041,64.68 C183.5,64.68 183.738,64.425 183.738,63.949 L183.738,59.495 C183.007,59.767 182.259,60.005 181.511,60.226 L181.273,59.308 C182.123,59.104 182.939,58.866 183.738,58.577 L183.738,54.412 L181.613,54.412 L181.613,53.511 L183.738,53.511 L183.738,50.213 L184.656,50.213 L184.656,53.511 L186.39,53.511 L186.39,54.412 L184.656,54.412 L184.656,58.22 C185.234,57.965 185.812,57.693 186.39,57.387 L186.39,58.322 C185.829,58.611 185.251,58.883 184.656,59.121 L184.656,64.187 C184.656,65.054 184.214,65.496 183.364,65.496 Z M211.992,51.879 L208.745,51.879 L208.269,57.234 L211.72,57.234 L211.992,51.879 Z M207.351,57.234 L207.827,51.879 L205.549,51.879 L205.549,50.995 L212.944,50.995 L212.281,64.221 L213.947,64.221 L213.947,65.122 L204.597,65.122 L204.597,64.221 L206.739,64.221 L207.266,58.135 L205.073,58.135 L205.073,57.234 L207.351,57.234 Z M207.64,64.221 L211.363,64.221 L211.669,58.135 L208.184,58.135 L207.64,64.221 Z M200.772,50.179 L201.656,50.366 C201.486,51.012 201.299,51.607 201.112,52.185 L204.427,52.185 L204.427,53.052 L200.789,53.052 C200.33,54.242 199.786,55.313 199.157,56.265 L198.409,55.789 C199.48,54.123 200.262,52.253 200.772,50.179 Z M200.126,55.602 L204.104,55.602 L204.104,56.435 L202.234,56.435 L202.234,58.781 L204.682,58.781 L204.682,59.665 L202.234,59.665 L202.234,64.051 C202.982,63.779 203.747,63.388 204.546,62.878 L204.699,63.711 C203.713,64.289 202.574,64.782 201.282,65.156 L200.908,64.357 C201.18,64.255 201.333,64.119 201.333,63.932 L201.333,59.665 L198.902,59.665 L198.902,58.781 L201.333,58.781 L201.333,56.435 L200.126,56.435 L200.126,55.602 Z M230.267,52.083 L230.267,55.738 L229.349,55.738 L229.349,52.967 L216.939,52.967 L216.939,55.738 L216.021,55.738 L216.021,52.083 L222.719,52.083 C222.498,51.437 222.26,50.842 222.005,50.332 L223.025,50.162 C223.263,50.723 223.501,51.369 223.705,52.083 L230.267,52.083 Z M218.401,55.228 L227.853,55.228 L227.853,56.112 L218.401,56.112 L218.401,55.228 Z M215.817,58.424 L215.817,59.325 L220.679,59.325 L220.679,59.512 C220.645,60.906 220.271,62.028 219.557,62.912 C218.775,63.762 217.432,64.425 215.545,64.918 L216.072,65.734 C218.01,65.19 219.387,64.459 220.237,63.524 C221.104,62.521 221.563,61.178 221.597,59.512 L221.597,59.325 L224.674,59.325 L224.674,63.915 C224.674,64.884 225.15,65.377 226.102,65.377 L228.924,65.377 C229.502,65.377 229.91,65.224 230.165,64.935 C230.471,64.561 230.675,63.592 230.777,61.994 L229.91,61.722 C229.842,63.082 229.706,63.898 229.519,64.17 C229.366,64.374 229.111,64.493 228.737,64.493 L226.374,64.493 C225.847,64.493 225.592,64.238 225.592,63.728 L225.592,59.325 L230.522,59.325 L230.522,58.424 L215.817,58.424 Z M244.173,50.162 C245.023,50.808 245.737,51.454 246.315,52.1 L245.703,52.695 C245.176,52.083 244.462,51.42 243.578,50.723 L244.173,50.162 Z M245.635,55.296 L246.468,55.653 C245.771,57.948 244.87,59.869 243.765,61.433 C244.037,62.079 244.343,62.64 244.666,63.116 C245.278,63.966 245.788,64.391 246.179,64.391 C246.553,64.374 246.876,63.456 247.148,61.654 L247.981,62.096 C247.607,64.306 247.063,65.411 246.349,65.411 C245.635,65.411 244.887,64.901 244.088,63.881 C243.714,63.405 243.408,62.861 243.136,62.249 C241.895,63.745 240.45,64.85 238.801,65.581 L238.274,64.799 C240.025,64.017 241.504,62.861 242.728,61.297 C242.473,60.651 242.252,59.971 242.065,59.223 C241.708,57.761 241.47,55.925 241.351,53.732 L235.197,53.732 L235.197,56.826 L239.362,56.826 C239.345,59.529 239.243,61.314 239.056,62.164 C238.869,62.912 238.376,63.32 237.577,63.354 C237.152,63.354 236.659,63.337 236.081,63.303 L235.792,62.453 C236.455,62.487 237.016,62.521 237.475,62.521 C237.917,62.487 238.172,62.198 238.274,61.637 C238.376,60.957 238.444,59.648 238.444,57.71 L235.197,57.71 L235.197,58.492 C235.146,61.484 234.5,63.864 233.259,65.666 L232.562,65.037 C233.667,63.473 234.245,61.297 234.296,58.492 L234.296,52.865 L241.317,52.865 C241.283,51.981 241.266,51.063 241.266,50.111 L242.184,50.111 C242.184,51.097 242.218,52.015 242.252,52.865 L247.641,52.865 L247.641,53.732 L242.286,53.732 C242.405,55.942 242.626,57.693 242.966,59.002 C243.102,59.512 243.238,59.971 243.374,60.396 C244.326,58.968 245.074,57.268 245.635,55.296 Z M256.056,59.954 L251.585,59.954 C251.381,62.13 250.837,64.017 249.953,65.615 L249.307,64.969 C250.276,63.167 250.786,61.059 250.854,58.628 L250.854,51.658 C252.792,51.42 254.356,50.961 255.546,50.247 L256.158,50.927 C254.968,51.624 253.472,52.1 251.67,52.355 L251.67,54.582 L256.056,54.582 L256.056,59.954 Z M251.67,55.5 L251.67,58.628 C251.67,58.781 251.653,58.934 251.653,59.087 L255.189,59.087 L255.189,55.5 L251.67,55.5 Z M258.555,56.401 L261.921,56.401 L261.921,65.666 L262.822,65.666 L262.822,56.401 L264.845,56.401 L264.845,55.5 L258.555,55.5 L258.555,52.287 C260.629,52.185 262.516,51.794 264.199,51.114 L263.74,50.298 C262.091,51.012 260.085,51.42 257.722,51.505 L257.722,59.07 C257.688,61.722 257.297,63.762 256.549,65.224 L257.382,65.649 C258.13,64.17 258.521,61.977 258.555,59.07 L258.555,56.401 Z M271.441,56.095 L271.441,58.203 L278.513,58.203 L278.513,56.095 L271.441,56.095 Z M278.513,59.036 L271.441,59.036 L271.441,61.11 L278.513,61.11 L278.513,59.036 Z M278.513,61.943 L271.441,61.943 L271.441,65.632 L270.574,65.632 L270.574,56.401 C269.554,57.71 268.364,58.917 267.004,60.005 L266.426,59.24 C268.67,57.455 270.404,55.381 271.594,53.035 L266.868,53.035 L266.868,52.151 L272.019,52.151 C272.325,51.471 272.58,50.774 272.801,50.06 L273.736,50.162 C273.532,50.859 273.294,51.522 273.039,52.151 L281.641,52.151 L281.641,53.035 L272.648,53.035 C272.257,53.817 271.832,54.565 271.373,55.279 L279.397,55.279 L279.397,64.459 C279.397,65.207 278.955,65.581 278.105,65.598 L276.201,65.598 L275.98,64.765 C276.643,64.782 277.255,64.799 277.816,64.799 C278.275,64.799 278.513,64.595 278.513,64.187 L278.513,61.943 Z M291.739,60.94 L288.509,60.94 L288.509,60.09 L293.065,60.09 L293.065,58.985 L293.932,58.985 L293.932,60.09 L298.488,60.09 L298.488,60.94 L295.19,60.94 C295.938,62.198 297.196,63.32 298.981,64.306 L298.386,65.054 C296.516,63.83 295.19,62.453 294.425,60.94 L293.932,60.94 L293.932,65.598 L293.065,65.598 L293.065,60.94 L292.538,60.94 C291.705,62.623 290.345,64 288.458,65.088 L287.982,64.306 C289.699,63.439 290.957,62.317 291.739,60.94 Z M288.339,57.319 L288.339,58.254 C287.761,58.56 287.183,58.849 286.571,59.121 L286.571,64.272 C286.571,65.088 286.163,65.496 285.347,65.496 L283.953,65.496 L283.749,64.629 C284.191,64.663 284.616,64.68 285.024,64.68 C285.432,64.68 285.653,64.459 285.653,64.051 L285.653,59.495 C285.007,59.733 284.378,59.954 283.732,60.158 L283.511,59.257 C284.259,59.053 284.973,58.832 285.653,58.577 L285.653,54.412 L283.63,54.412 L283.63,53.511 L285.653,53.511 L285.653,50.23 L286.571,50.23 L286.571,53.511 L288.509,53.511 L288.509,54.412 L286.571,54.412 L286.571,58.203 C287.183,57.931 287.761,57.642 288.339,57.319 Z M290.345,50.825 L296.652,50.825 L296.652,54.106 L290.345,54.106 L290.345,50.825 Z M295.802,53.341 L295.802,51.573 L291.178,51.573 L291.178,53.341 L295.802,53.341 Z M288.934,55.262 L292.946,55.262 L292.946,58.509 L288.934,58.509 L288.934,55.262 Z M292.147,57.812 L292.147,55.976 L289.699,55.976 L289.699,57.812 L292.147,57.812 Z M294.051,55.262 L298.114,55.262 L298.114,58.509 L294.051,58.509 L294.051,55.262 Z M297.332,57.812 L297.332,55.976 L294.833,55.976 L294.833,57.812 L297.332,57.812 Z M307.736,53.562 C306.954,55.228 306.036,56.673 304.982,57.931 L304.336,57.166 C305.934,55.296 307.192,52.916 308.11,50.06 L309.028,50.281 C308.756,51.131 308.45,51.913 308.144,52.661 L315.76,52.661 L315.76,53.562 L309.827,53.562 L309.827,56.656 L314.978,56.656 L314.978,57.574 L309.827,57.574 L309.827,60.719 L315.114,60.719 L315.114,61.62 L309.827,61.62 L309.827,65.666 L308.909,65.666 L308.909,53.562 L307.736,53.562 Z M302.619,55.704 C302.007,56.52 301.344,57.302 300.613,58.05 L300.324,57.081 C302.228,55.024 303.588,52.712 304.438,50.145 L305.288,50.536 C304.829,51.896 304.251,53.154 303.537,54.327 L303.537,65.666 L302.619,65.666 L302.619,55.704 Z" id="轻便小巧-极简设计-一颗按钮完成所有操作" fill="#B3B3B3"></path>
                </g>
                <g id="Page-1">
                    <mask id="mask-2" fill="white">
                        <use xlink:href="#path-1"></use>
                    </mask>
                    <g id="Clip-2"></g>
                    <path d="M4.00015159,66.959874 L38.0705491,66.959874 L38.0705491,9.84538075 L4.00015159,9.84538075 L4.00015159,66.959874 Z M37.9892902,0.0969491566 L4.08141045,0.0969491566 C1.82735214,0.0969491566 0,1.95876076 0,4.25529238 L0,73.5374864 C0,75.8340181 1.82735214,77.6958297 4.08141045,77.6958297 L37.9892902,77.6958297 C40.2431541,77.6958297 42.0705063,75.8340181 42.0705063,73.5374864 L42.0705063,4.25529238 C42.0705063,1.95876076 40.2431541,0.0969491566 37.9892902,0.0969491566 L37.9892902,0.0969491566 Z" id="Fill-1" fill="#B4BAC3" mask="url(#mask-2)"></path>
                    <path d="M59.7150297,45.7657607 C57.7795916,45.7657607 56.210596,47.330714 56.210596,49.2611656 C56.210596,51.1916172 57.7795916,52.7565705 59.7150297,52.7565705 C61.6504678,52.7565705 63.2194634,51.1916172 63.2194634,49.2611656 C63.2194634,47.330714 61.6504678,45.7657607 59.7150297,45.7657607" id="Fill-3" fill="#B4BAC3" mask="url(#mask-2)"></path>
                    <path d="M59.7150297,54.1547906 C57.0054942,54.1547906 54.8087836,51.9637397 54.8087836,49.261185 C54.8087836,46.5584364 57.0054942,44.3675793 59.7150297,44.3675793 C62.4247597,44.3675793 64.6212758,46.5584364 64.6212758,49.261185 C64.6212758,51.9637397 62.4247597,54.1547906 59.7150297,54.1547906 M59.7150297,61.2446824 C59.4008807,61.2446824 59.1462178,60.9906756 59.1462178,60.6773359 C59.1462178,60.3639963 59.4008807,60.1099895 59.7150297,60.1099895 C60.0291788,60.1099895 60.2838417,60.3639963 60.2838417,60.6773359 C60.2838417,60.9906756 60.0291788,61.2446824 59.7150297,61.2446824 M59.7150297,64.8457619 C59.4008807,64.8457619 59.1462178,64.5917551 59.1462178,64.2784154 C59.1462178,63.9650757 59.4008807,63.711069 59.7150297,63.711069 C60.0291788,63.711069 60.2838417,63.9650757 60.2838417,64.2784154 C60.2838417,64.5917551 60.0291788,64.8457619 59.7150297,64.8457619 M59.7150297,37.6268984 L59.7150297,37.6268984 C53.1911882,37.6268984 47.9025589,42.7432932 47.9025589,49.0546833 L47.9025589,65.062928 C47.9025589,71.3743181 53.1911882,76.490519 59.7150297,76.490519 L59.7150297,76.490519 C66.2390657,76.490519 71.5276949,71.3743181 71.5276949,65.062928 L71.5276949,49.0546833 C71.5276949,42.7432932 66.2390657,37.6268984 59.7150297,37.6268984" id="Fill-4" fill="#B4BAC3" mask="url(#mask-2)"></path>
                    <polygon id="Fill-5" fill="#B4BAC3" mask="url(#mask-2)" points="78.2662892 7.75593253e-05 78.2662892 0.387874186 84.2679746 0.387874186 84.2679746 37.3359733 78.2662892 37.3359733 78.2662892 37.7239639 84.2679746 37.7239639 84.2679746 77.4048659 78.2662892 77.4048659 78.2662892 77.7928564 84.6569673 77.7928564 84.6569673 7.75593253e-05"></polygon>
                    <path d="M26.0083142,5.86501679 L16.0622698,5.86501679 C15.8435707,5.86501679 15.6662787,5.68818152 15.6662787,5.47023982 C15.6662787,5.25210422 15.8435707,5.07526896 16.0622698,5.07526896 L26.0083142,5.07526896 C26.2270133,5.07526896 26.4043053,5.25210422 26.4043053,5.47023982 C26.4043053,5.68818152 26.2270133,5.86501679 26.0083142,5.86501679" id="Fill-6" fill="#FEFEFE" mask="url(#mask-2)"></path>
                    <path d="M23.7187197,72.5681306 C23.7187197,74.0464114 22.5173329,75.2447029 21.0352337,75.2447029 C19.5533289,75.2447029 18.351942,74.0464114 18.351942,72.5681306 C18.351942,71.0898499 19.5533289,69.8915583 21.0352337,69.8915583 C22.5173329,69.8915583 23.7187197,71.0898499 23.7187197,72.5681306" id="Fill-7" fill="#FEFEFE" mask="url(#mask-2)"></path>
                </g>
            </g>
        </g>
    </g>
</svg>