<?xml version="1.0" encoding="UTF-8"?>
<svg width="243px" height="15px" viewBox="0 0 243 15" version="1.1" xmlns="http://www.w3.org/2000/svg" xmlns:xlink="http://www.w3.org/1999/xlink">
    <!-- Generator: Sketch 45.2 (43514) - http://www.bohemiancoding.com/sketch -->
    <title>txt8-3</title>
    <desc>Created with Sketch.</desc>
    <defs></defs>
    <g id="Page-1" stroke="none" stroke-width="1" fill="none" fill-rule="evenodd">
        <g id="新版" transform="translate(-155.000000, -7416.000000)" fill="#777777">
            <g id="8" transform="translate(0.000000, 7175.000000)">
                <g id="Group-13" transform="translate(155.000000, 107.000000)">
                    <g id="标题">
                        <path d="M4.29,136.56 L5.37,136.56 L9.66,147.27 L8.655,147.27 L7.41,144.075 L2.25,144.075 L1.005,147.27 L0,147.27 L4.29,136.56 Z M2.55,143.295 L7.11,143.295 L4.86,137.55 L4.815,137.55 L2.55,143.295 Z M10.755,136.56 L15.105,136.56 C17.475,136.56 18.675,137.58 18.675,139.635 C18.675,141.69 17.475,142.725 15.09,142.725 L11.67,142.725 L11.67,147.27 L10.755,147.27 L10.755,136.56 Z M11.67,137.37 L11.67,141.915 L15.045,141.915 C15.975,141.915 16.65,141.72 17.1,141.345 C17.52,140.97 17.745,140.4 17.745,139.635 C17.745,138.87 17.52,138.315 17.1,137.955 C16.65,137.565 15.96,137.37 15.045,137.37 L11.67,137.37 Z M20.265,136.56 L24.615,136.56 C26.985,136.56 28.185,137.58 28.185,139.635 C28.185,141.69 26.985,142.725 24.6,142.725 L21.18,142.725 L21.18,147.27 L20.265,147.27 L20.265,136.56 Z M21.18,137.37 L21.18,141.915 L24.555,141.915 C25.485,141.915 26.16,141.72 26.61,141.345 C27.03,140.97 27.255,140.4 27.255,139.635 C27.255,138.87 27.03,138.315 26.61,137.955 C26.16,137.565 25.47,137.37 24.555,137.37 L21.18,137.37 Z M31.41,136.965 C31.05,137.565 30.645,138.06 30.195,138.48 L29.685,137.88 C30.435,137.19 31.05,136.215 31.5,134.955 L32.25,135.12 C32.1,135.51 31.95,135.885 31.785,136.245 L36.24,136.245 L36.24,136.965 L33.9,136.965 C33.87,137.58 33.81,138.15 33.72,138.66 L36.645,138.66 L36.645,139.41 L33.555,139.41 C33.495,139.605 33.45,139.785 33.39,139.965 C34.56,140.565 35.535,141.18 36.33,141.78 L35.745,142.365 C35.085,141.795 34.215,141.195 33.135,140.565 C32.55,141.66 31.485,142.575 29.94,143.295 L29.4,142.635 C30.96,141.945 32.01,141.06 32.52,139.98 C32.595,139.785 32.67,139.59 32.73,139.41 L29.565,139.41 L29.565,138.66 L32.925,138.66 C33.03,138.12 33.09,137.565 33.105,136.965 L31.41,136.965 Z M37.395,136.095 L42.12,136.095 L42.12,141.45 L37.395,141.45 L37.395,136.095 Z M41.31,140.715 L41.31,136.83 L38.19,136.83 L38.19,140.715 L41.31,140.715 Z M41.055,142.695 L41.055,148.77 L40.23,148.77 L40.23,148.02 L32.535,148.02 L32.535,148.77 L31.725,148.77 L31.725,142.695 L41.055,142.695 Z M32.535,147.285 L40.23,147.285 L40.23,145.755 L32.535,145.755 L32.535,147.285 Z M32.535,145.035 L40.23,145.035 L40.23,143.445 L32.535,143.445 L32.535,145.035 Z M52.425,135.18 L52.425,140.4 C52.425,141.15 52.815,141.54 53.61,141.54 L57.6,141.54 L57.6,140.775 L53.805,140.775 C53.415,140.775 53.22,140.595 53.22,140.25 L53.22,137.94 L57.3,137.67 L57.3,136.92 L53.22,137.19 L53.22,135.18 L52.425,135.18 Z M49.665,136.2 L49.02,136.605 C49.425,137.145 49.8,137.685 50.145,138.225 C48.585,138.45 47.1,138.6 45.705,138.675 C46.575,137.895 47.4,136.77 48.165,135.3 L47.385,135.06 C46.695,136.44 45.87,137.58 44.91,138.495 C44.805,138.6 44.67,138.675 44.52,138.72 L44.76,139.41 C47.01,139.275 48.93,139.08 50.52,138.825 C50.73,139.185 50.94,139.53 51.12,139.875 L51.765,139.41 C51.285,138.51 50.58,137.43 49.665,136.2 Z M56.22,148.5 C56.73,148.5 57.105,148.395 57.33,148.185 C57.6,147.9 57.795,147.165 57.885,145.98 L57.135,145.74 C57.075,146.73 56.955,147.33 56.775,147.54 C56.64,147.69 56.4,147.78 56.055,147.78 L53.85,147.78 C53.415,147.78 53.205,147.6 53.205,147.27 L53.205,144.615 L57.465,144.345 L57.465,143.595 L53.205,143.85 L53.205,142.23 L52.41,142.23 L52.41,147.45 C52.41,148.14 52.8,148.5 53.61,148.5 L56.22,148.5 Z M49.725,148.59 L48.18,148.59 L48,147.87 L49.485,147.9 C49.8,147.9 49.965,147.735 49.965,147.405 L49.965,145.83 L46.2,145.83 L46.2,148.665 L45.42,148.665 L45.42,140.445 L50.73,140.445 L50.73,147.585 C50.73,148.245 50.385,148.59 49.725,148.59 Z M46.2,145.14 L49.965,145.14 L49.965,143.535 L46.2,143.535 L46.2,145.14 Z M46.2,142.83 L49.965,142.83 L49.965,141.18 L46.2,141.18 L46.2,142.83 Z M60.165,136.65 L60.165,137.4 L65.775,137.4 L65.775,139.065 L60.99,139.065 L60.99,139.785 L65.775,139.785 L65.775,141.465 L59.655,141.465 L59.655,142.245 L72.705,142.245 L72.705,141.465 L66.585,141.465 L66.585,139.785 L71.43,139.785 L71.43,139.065 L66.585,139.065 L66.585,137.4 L72.195,137.4 L72.195,136.65 L68.7,136.65 C69,136.155 69.24,135.615 69.39,135.03 L68.55,134.91 C68.4,135.51 68.16,136.08 67.86,136.65 L64.515,136.65 C64.275,136.02 64.02,135.465 63.75,134.97 L62.91,135.12 C63.195,135.57 63.465,136.08 63.705,136.65 L60.165,136.65 Z M65.94,142.755 L66.75,142.83 C66.69,143.28 66.585,143.685 66.465,144.075 L72.36,144.075 L72.36,144.855 L66.165,144.855 C65.835,145.575 65.37,146.205 64.785,146.73 C63.81,147.615 62.1,148.305 59.655,148.815 L59.325,148.035 C61.545,147.615 63.135,147 64.125,146.19 C64.575,145.8 64.95,145.365 65.25,144.855 L60.015,144.855 L60.015,144.075 L65.61,144.075 C65.76,143.655 65.865,143.22 65.94,142.755 Z M66.975,145.56 C69.195,146.265 71.22,147.12 73.05,148.125 L72.585,148.845 C70.605,147.735 68.595,146.85 66.525,146.22 L66.975,145.56 Z M79.8,148.185 L80.415,148.74 C81.105,147.69 81.57,146.58 81.825,145.41 C82.08,144.36 82.215,143.01 82.215,141.345 L82.215,136.74 L84.87,136.74 L84.87,147.24 C84.87,148.05 85.275,148.455 86.115,148.455 L86.715,148.455 C87.075,148.455 87.345,148.38 87.525,148.23 C87.72,148.035 87.84,147.66 87.885,147.12 C87.93,146.55 87.96,145.74 87.96,144.66 L87.24,144.435 C87.24,145.815 87.21,146.7 87.18,147.075 C87.15,147.345 87.075,147.51 86.97,147.6 C86.895,147.66 86.79,147.705 86.655,147.705 L86.1,147.705 C85.8,147.705 85.665,147.525 85.665,147.18 L85.665,135.99 L81.42,135.99 L81.42,141.345 C81.42,142.815 81.315,144.045 81.12,145.005 C80.88,146.145 80.43,147.195 79.8,148.185 Z M79.665,135.69 L79.665,147.465 C79.665,148.215 79.275,148.605 78.495,148.605 L77.295,148.605 L77.1,147.885 C77.52,147.9 77.895,147.915 78.255,147.915 C78.675,147.915 78.9,147.675 78.9,147.195 L78.9,143.325 C78.06,143.58 77.16,143.79 76.185,143.955 C76.05,145.905 75.66,147.495 75,148.755 L74.4,148.2 C75.09,146.79 75.45,145.005 75.48,142.83 L75.48,135.69 L79.665,135.69 Z M76.215,143.19 C77.235,143.025 78.12,142.83 78.9,142.59 L78.9,140.295 C78.015,140.055 77.13,139.875 76.23,139.74 L76.23,142.785 C76.23,142.92 76.215,143.055 76.215,143.19 Z M76.23,139.05 C77.16,139.17 78.06,139.35 78.9,139.59 L78.9,136.44 L76.23,136.44 L76.23,139.05 Z M100.41,140.985 L100.41,143.79 L92.775,143.79 L92.775,145.005 L101.1,145.005 L101.1,148.725 L100.29,148.725 L100.29,148.05 L92.775,148.05 L92.775,148.71 L91.965,148.71 L91.965,140.985 L100.41,140.985 Z M92.775,147.315 L100.29,147.315 L100.29,145.68 L92.775,145.68 L92.775,147.315 Z M92.775,143.115 L99.615,143.115 L99.615,141.675 L92.775,141.675 L92.775,143.115 Z M102.465,139.23 L102.465,141.81 L101.67,141.81 L101.67,139.935 L90.69,139.935 L90.69,141.81 L89.895,141.81 L89.895,139.23 L95.955,139.23 C95.775,138.825 95.595,138.465 95.415,138.135 L96.21,137.985 C96.405,138.345 96.585,138.765 96.75,139.23 L102.465,139.23 Z M91.5,136.935 C91.125,137.535 90.69,138.105 90.21,138.615 L89.52,138.18 C90.45,137.22 91.14,136.155 91.575,134.97 L92.37,135.135 C92.22,135.495 92.07,135.855 91.905,136.2 L96.12,136.2 L96.12,136.935 L93.405,136.935 C93.795,137.46 94.095,137.94 94.32,138.39 L93.585,138.675 C93.285,138.075 92.925,137.505 92.535,136.935 L91.5,136.935 Z M97.98,136.935 C97.695,137.475 97.38,137.97 97.02,138.42 L96.33,137.97 C97.065,137.085 97.605,136.095 97.95,134.985 L98.715,135.15 C98.595,135.51 98.46,135.87 98.325,136.2 L102.81,136.2 L102.81,136.935 L99.975,136.935 C100.335,137.415 100.62,137.85 100.83,138.27 L100.095,138.525 C99.81,137.985 99.48,137.445 99.09,136.935 L97.98,136.935 Z M110.025,135.705 L117.165,135.705 L117.165,142.455 L114,142.455 L114,144.465 L117.465,144.465 L117.465,145.23 L114,145.23 L114,147.465 L118.035,147.465 L118.035,148.26 L109.065,148.26 L109.065,147.465 L113.19,147.465 L113.19,145.23 L109.725,145.23 L109.725,144.465 L113.19,144.465 L113.19,142.455 L110.025,142.455 L110.025,135.705 Z M116.37,141.72 L116.37,139.455 L114,139.455 L114,141.72 L116.37,141.72 Z M113.19,141.72 L113.19,139.455 L110.805,139.455 L110.805,141.72 L113.19,141.72 Z M110.805,138.75 L113.19,138.75 L113.19,136.44 L110.805,136.44 L110.805,138.75 Z M114,136.44 L114,138.75 L116.37,138.75 L116.37,136.44 L114,136.44 Z M104.64,140.7 L106.41,140.7 L106.41,136.89 L104.43,136.89 L104.43,136.11 L109.185,136.11 L109.185,136.89 L107.22,136.89 L107.22,140.7 L109.005,140.7 L109.005,141.495 L107.22,141.495 L107.22,145.23 C107.85,145.005 108.45,144.765 109.02,144.525 L109.02,145.32 C107.64,145.905 106.14,146.385 104.535,146.775 L104.34,146.01 C105.06,145.86 105.75,145.695 106.41,145.485 L106.41,141.495 L104.64,141.495 L104.64,140.7 Z M126.15,148.59 L124.8,148.59 L124.62,147.81 C125.055,147.84 125.475,147.87 125.865,147.87 C126.27,147.87 126.48,147.66 126.48,147.255 L126.48,143.22 C125.865,143.475 125.235,143.7 124.59,143.895 L124.38,143.085 C125.1,142.905 125.805,142.68 126.48,142.425 L126.48,138.81 L124.56,138.81 L124.56,138.015 L126.48,138.015 L126.48,135.105 L127.29,135.105 L127.29,138.015 L128.91,138.015 L128.91,138.81 L127.29,138.81 L127.29,142.08 C127.77,141.855 128.25,141.615 128.715,141.36 L128.715,142.185 C128.235,142.425 127.77,142.665 127.29,142.875 L127.29,147.45 C127.29,148.2 126.9,148.59 126.15,148.59 Z M130.185,135.615 L136.605,135.615 L136.605,140.67 L130.185,140.67 L130.185,135.615 Z M135.795,139.98 L135.795,138.495 L130.98,138.495 L130.98,139.98 L135.795,139.98 Z M130.98,137.835 L135.795,137.835 L135.795,136.305 L130.98,136.305 L130.98,137.835 Z M129.09,141.9 L137.625,141.9 L137.625,142.65 L133.785,142.65 L133.785,144.585 L137.04,144.585 L137.04,145.32 L133.785,145.32 L133.785,147.54 C134.415,147.63 135.165,147.69 136.065,147.69 C136.83,147.69 137.475,147.66 138,147.63 L137.775,148.44 C137.175,148.44 136.62,148.425 136.125,148.41 C134.145,148.41 132.795,148.215 132.09,147.84 C131.49,147.51 130.95,146.85 130.47,145.89 C130.11,146.91 129.57,147.855 128.85,148.71 L128.25,148.17 C129.45,146.76 130.095,145.17 130.2,143.4 L130.935,143.49 C130.905,144.03 130.83,144.54 130.71,145.035 C131.22,146.16 131.82,146.88 132.48,147.195 C132.63,147.255 132.795,147.315 132.99,147.375 L132.99,142.65 L129.09,142.65 L129.09,141.9 Z M143.835,138.33 L145.89,138.33 L145.89,135.12 L146.7,135.12 L146.7,138.33 L149.685,138.33 L149.685,135.12 L150.495,135.12 L150.495,138.33 L152.595,138.33 L152.595,139.14 L150.495,139.14 L150.495,142.89 L153.015,142.89 L153.015,143.685 L143.43,143.685 L143.43,142.89 L145.89,142.89 L145.89,139.14 L143.835,139.14 L143.835,138.33 Z M146.7,142.89 L149.685,142.89 L149.685,139.14 L146.7,139.14 L146.7,142.89 Z M149.865,144.435 L149.205,144.855 C150.435,146.25 151.395,147.525 152.085,148.68 L152.805,148.17 C152.13,147.105 151.155,145.86 149.865,144.435 Z M146.31,144.525 L147.045,144.885 C146.265,146.34 145.335,147.6 144.255,148.665 L143.55,148.17 C144.615,147.15 145.53,145.935 146.31,144.525 Z M141.285,139.935 C140.73,140.73 140.115,141.48 139.425,142.185 L139.17,141.315 C140.88,139.44 142.11,137.31 142.86,134.925 L143.61,135.285 C143.205,136.485 142.695,137.625 142.095,138.675 L142.095,148.74 L141.285,148.74 L141.285,139.935 Z M156.825,139.59 L165.555,139.59 L165.555,140.37 L161.655,140.37 L161.655,143.295 L166.245,143.295 L166.245,144.075 L161.655,144.075 L161.655,147.435 C162.705,147.6 163.995,147.69 165.525,147.705 C166.29,147.705 167.085,147.675 167.91,147.645 L167.745,148.44 L165.885,148.44 C162.945,148.44 160.83,148.17 159.57,147.63 C158.535,147.135 157.71,146.355 157.095,145.29 C156.51,146.655 155.775,147.795 154.89,148.725 L154.365,148.08 C155.835,146.505 156.825,144.375 157.335,141.705 L158.115,141.855 C157.92,142.8 157.68,143.67 157.41,144.465 C158.13,145.86 159.06,146.73 160.17,147.09 C160.38,147.15 160.605,147.21 160.845,147.27 L160.845,140.37 L156.825,140.37 L156.825,139.59 Z M167.205,136.65 L167.205,139.71 L166.395,139.71 L166.395,137.43 L155.955,137.43 L155.955,139.77 L155.145,139.77 L155.145,136.65 L160.95,136.65 C160.71,136.05 160.44,135.525 160.17,135.06 L161.025,134.91 C161.28,135.42 161.535,135.99 161.775,136.65 L167.205,136.65 Z M170.925,137.79 L173.25,137.79 L173.25,139.98 L169.53,139.98 L169.53,140.745 L173.25,140.745 L173.25,142.56 L170.25,142.56 L170.25,147.81 L171.045,147.81 L171.045,143.31 L173.25,143.31 L173.25,148.77 L174.06,148.77 L174.06,143.31 L176.22,143.31 L176.22,146.31 C176.22,146.73 175.995,146.955 175.545,146.955 L174.765,146.91 L174.975,147.69 L175.8,147.69 C176.595,147.69 177,147.285 177,146.475 L177,142.56 L174.06,142.56 L174.06,140.745 L177.39,140.745 L177.39,139.98 L174.06,139.98 L174.06,137.79 L176.97,137.79 L176.97,137.025 L174.06,137.025 L174.06,135.09 L173.25,135.09 L173.25,137.025 L171.195,137.025 C171.33,136.59 171.435,136.11 171.525,135.57 L170.745,135.45 C170.535,136.92 170.04,138.06 169.26,138.885 L169.92,139.35 C170.31,138.93 170.655,138.405 170.925,137.79 Z M178.41,136.455 L179.205,136.455 L179.205,145.785 L178.41,145.785 L178.41,136.455 Z M181.065,148.59 L178.875,148.59 L178.695,147.825 C179.415,147.855 180.12,147.87 180.78,147.87 C181.29,147.87 181.545,147.6 181.545,147.09 L181.545,135.105 L182.355,135.105 L182.355,147.3 C182.355,148.155 181.92,148.59 181.065,148.59 Z M186.18,148.59 L184.68,148.59 L184.5,147.81 C184.98,147.84 185.445,147.87 185.895,147.87 C186.315,147.87 186.54,147.63 186.54,147.18 L186.54,143.265 C185.88,143.505 185.22,143.715 184.53,143.895 L184.32,143.1 C185.07,142.92 185.82,142.71 186.54,142.455 L186.54,138.81 L184.53,138.81 L184.53,138.015 L186.54,138.015 L186.54,135.105 L187.35,135.105 L187.35,138.015 L189.09,138.015 L189.09,138.81 L187.35,138.81 L187.35,142.155 C187.965,141.915 188.565,141.645 189.165,141.345 L189.165,142.17 C188.565,142.455 187.965,142.725 187.35,142.965 L187.35,147.39 C187.35,148.185 186.96,148.59 186.18,148.59 Z M196.74,137.76 L190.875,137.76 L190.875,140.85 L196.74,140.85 L196.74,137.76 Z M190.875,141.645 C190.86,144.405 190.23,146.76 188.985,148.74 L188.37,148.185 C189.495,146.49 190.065,144.3 190.08,141.63 L190.08,136.965 L193.455,136.965 C193.245,136.29 193.005,135.69 192.735,135.15 L193.59,135 C193.83,135.57 194.055,136.215 194.265,136.965 L197.52,136.965 L197.52,141.645 L190.875,141.645 Z M205.515,137.61 L205.515,138.39 L208.455,138.39 L208.455,139.965 C208.455,140.535 208.41,141.09 208.335,141.645 L205.095,141.645 L205.095,142.425 L208.2,142.425 C207.735,144.615 206.61,146.535 204.84,148.185 L205.47,148.71 C207.15,147.12 208.26,145.275 208.83,143.175 C209.61,145.395 210.87,147.255 212.58,148.725 L213.105,148.11 C211.365,146.7 210.105,144.795 209.34,142.425 L212.79,142.425 L212.79,141.645 L209.13,141.645 C209.19,141.105 209.235,140.535 209.25,139.965 L209.25,138.39 L212.19,138.39 L212.19,137.61 L209.25,137.61 L209.25,135.105 L208.455,135.105 L208.455,137.61 L205.515,137.61 Z M204.315,135.735 L204.315,147.57 C204.315,148.32 203.925,148.695 203.16,148.695 L202.08,148.695 L201.885,147.96 C202.245,147.975 202.59,147.99 202.92,147.99 C203.34,147.99 203.565,147.75 203.565,147.3 L203.565,143.475 C202.815,143.7 201.99,143.895 201.12,144.045 C201.03,145.95 200.7,147.525 200.16,148.77 L199.545,148.215 C200.1,146.805 200.385,145.02 200.4,142.86 L200.4,135.735 L204.315,135.735 Z M201.15,143.28 C202.035,143.13 202.845,142.95 203.565,142.725 L203.565,140.535 C202.785,140.265 201.975,140.04 201.165,139.89 L201.165,142.815 C201.165,142.965 201.15,143.13 201.15,143.28 Z M201.165,139.155 C202.005,139.32 202.8,139.53 203.565,139.8 L203.565,136.5 L201.165,136.5 L201.165,139.155 Z M214.74,137.34 L214.74,138.135 L218.985,138.135 C218.97,138.645 218.94,139.425 218.895,140.49 C218.805,141.93 218.52,143.235 218.01,144.405 C217.455,145.575 216.375,146.835 214.785,148.185 L215.385,148.755 C216.675,147.69 217.71,146.535 218.46,145.275 C219,144.24 219.36,143.1 219.54,141.855 L225.06,141.855 C225.06,143.94 225.015,145.335 224.925,146.055 C224.745,147.225 224.22,147.84 223.35,147.885 C222.84,147.885 222.21,147.855 221.46,147.825 L221.7,148.575 C222.375,148.605 222.96,148.62 223.44,148.62 C224.625,148.575 225.345,147.885 225.6,146.535 C225.765,145.665 225.855,143.85 225.885,141.075 L219.63,141.075 C219.63,141.015 219.645,140.97 219.645,140.925 C219.72,139.68 219.765,138.75 219.795,138.135 L227.76,138.135 L227.76,137.34 L222.12,137.34 C221.76,136.44 221.355,135.66 220.92,135.015 L220.14,135.3 C220.59,135.93 220.98,136.62 221.295,137.34 L214.74,137.34 Z M235.185,137.415 L235.935,137.655 C235.635,138.075 235.35,138.465 235.08,138.81 L242.13,138.81 L242.13,139.485 L239.565,139.485 C238.98,140.28 238.35,140.91 237.675,141.375 C239.055,141.735 240.465,142.155 241.92,142.65 L241.455,143.28 C239.925,142.725 238.38,142.245 236.85,141.84 C235.26,142.605 233.175,142.995 230.595,143.025 L230.145,142.365 C232.53,142.365 234.42,142.095 235.8,141.57 C234.705,141.285 233.61,141.045 232.515,140.835 C232.905,140.385 233.295,139.935 233.655,139.485 L230.25,139.485 L230.25,138.81 L234.18,138.81 C234.525,138.33 234.855,137.865 235.185,137.415 Z M236.73,141.135 C237.54,140.655 238.2,140.115 238.695,139.485 L234.555,139.485 C234.255,139.86 233.97,140.19 233.715,140.475 C234.705,140.655 235.71,140.865 236.73,141.135 Z M242.145,136.32 L242.145,138.315 L241.38,138.315 L241.38,137.01 L230.97,137.01 L230.97,138.315 L230.205,138.315 L230.205,136.32 L235.89,136.32 C235.68,135.885 235.47,135.495 235.23,135.15 L236.085,135 C236.295,135.39 236.49,135.825 236.685,136.32 L242.145,136.32 Z M229.785,144.06 L235.8,144.06 L235.8,142.815 L236.61,142.815 L236.61,144.06 L242.58,144.06 L242.58,144.78 L237.405,144.78 C238.515,145.935 240.285,146.85 242.745,147.51 L242.4,148.215 C239.67,147.345 237.75,146.205 236.655,144.78 L236.61,144.78 L236.61,148.725 L235.8,148.725 L235.8,144.78 L235.74,144.78 C234.78,146.16 232.89,147.33 230.085,148.32 L229.65,147.6 C232.32,146.775 234.105,145.83 235.005,144.78 L229.785,144.78 L229.785,144.06 Z" id="txt8-3"></path>
                    </g>
                </g>
            </g>
        </g>
    </g>
</svg>