<?xml version="1.0" encoding="UTF-8"?>
<svg width="292px" height="47px" viewBox="0 0 292 47" version="1.1" xmlns="http://www.w3.org/2000/svg" xmlns:xlink="http://www.w3.org/1999/xlink">
    <!-- Generator: Sketch 45.2 (43514) - http://www.bohemiancoding.com/sketch -->
    <title>txt8-1</title>
    <desc>Created with Sketch.</desc>
    <defs></defs>
    <g id="Page-1" stroke="none" stroke-width="1" fill="none" fill-rule="evenodd">
        <g id="新版" transform="translate(-157.000000, -7299.000000)" fill="#38393B">
            <g id="8" transform="translate(0.000000, 7175.000000)">
                <g id="Group-13" transform="translate(155.000000, 107.000000)">
                    <g id="标题">
                        <path d="M9.5,24.55 C8.3,26.55 6.95,28.2 5.45,29.6 L3.75,27.6 C6.25,25.3 8.3,22.05 9.8,17.85 L12.3,18.4 C11.8,19.7 11.3,20.95 10.75,22.15 L25.6,22.15 L25.6,24.55 L17.8,24.55 C17.7,26.6 17.5,28.5 17.2,30.2 L26.95,30.2 L26.95,32.7 L16.65,32.7 C16.45,33.35 16.3,33.95 16.1,34.55 C20,36.55 23.25,38.6 25.9,40.6 L23.95,42.55 C21.75,40.65 18.85,38.65 15.25,36.55 C13.3,40.2 9.75,43.25 4.6,45.65 L2.8,43.45 C8,41.15 11.5,38.2 13.2,34.6 C13.45,33.95 13.7,33.3 13.9,32.7 L3.35,32.7 L3.35,30.2 L14.55,30.2 C14.9,28.4 15.1,26.55 15.15,24.55 L9.5,24.55 Z M29.45,21.65 L45.2,21.65 L45.2,39.5 L29.45,39.5 L29.45,21.65 Z M42.5,37.05 L42.5,24.1 L32.1,24.1 L32.1,37.05 L42.5,37.05 Z M41.65,43.65 L41.65,63.9 L38.9,63.9 L38.9,61.4 L13.25,61.4 L13.25,63.9 L10.55,63.9 L10.55,43.65 L41.65,43.65 Z M13.25,58.95 L38.9,58.95 L38.9,53.85 L13.25,53.85 L13.25,58.95 Z M13.25,51.45 L38.9,51.45 L38.9,46.15 L13.25,46.15 L13.25,51.45 Z M58.75,63.3 L53.75,63.3 L53.15,60.7 C54.75,60.8 56.3,60.9 57.8,60.9 C59.2,60.9 59.95,60.1 59.95,58.6 L59.95,45.55 C57.75,46.35 55.55,47.05 53.25,47.65 L52.55,45 C55.05,44.4 57.55,43.7 59.95,42.85 L59.95,30.7 L53.25,30.7 L53.25,28.05 L59.95,28.05 L59.95,18.35 L62.65,18.35 L62.65,28.05 L68.45,28.05 L68.45,30.7 L62.65,30.7 L62.65,41.85 C64.7,41.05 66.7,40.15 68.7,39.15 L68.7,41.9 C66.7,42.85 64.7,43.75 62.65,44.55 L62.65,59.3 C62.65,61.95 61.35,63.3 58.75,63.3 Z M93.95,27.2 L74.4,27.2 L74.4,37.5 L93.95,37.5 L93.95,27.2 Z M74.4,40.15 C74.35,49.35 72.25,57.2 68.1,63.8 L66.05,61.95 C69.8,56.3 71.7,49 71.75,40.1 L71.75,24.55 L83,24.55 C82.3,22.3 81.5,20.3 80.6,18.5 L83.45,18 C84.25,19.9 85,22.05 85.7,24.55 L96.55,24.55 L96.55,40.15 L74.4,40.15 Z M123.2,26.7 L123.2,29.3 L133,29.3 L133,34.55 C133,36.45 132.85,38.3 132.6,40.15 L121.8,40.15 L121.8,42.75 L132.15,42.75 C130.6,50.05 126.85,56.45 120.95,61.95 L123.05,63.7 C128.65,58.4 132.35,52.25 134.25,45.25 C136.85,52.65 141.05,58.85 146.75,63.75 L148.5,61.7 C142.7,57 138.5,50.65 135.95,42.75 L147.45,42.75 L147.45,40.15 L135.25,40.15 C135.45,38.35 135.6,36.45 135.65,34.55 L135.65,29.3 L145.45,29.3 L145.45,26.7 L135.65,26.7 L135.65,18.35 L133,18.35 L133,26.7 L123.2,26.7 Z M119.2,20.45 L119.2,59.9 C119.2,62.4 117.9,63.65 115.35,63.65 L111.75,63.65 L111.1,61.2 C112.3,61.25 113.45,61.3 114.55,61.3 C115.95,61.3 116.7,60.5 116.7,59 L116.7,46.25 C114.2,47 111.45,47.65 108.55,48.15 C108.25,54.5 107.15,59.75 105.35,63.9 L103.3,62.05 C105.15,57.35 106.1,51.4 106.15,44.2 L106.15,20.45 L119.2,20.45 Z M108.65,45.6 C111.6,45.1 114.3,44.5 116.7,43.75 L116.7,36.45 C114.1,35.55 111.4,34.8 108.7,34.3 L108.7,44.05 C108.7,44.55 108.65,45.1 108.65,45.6 Z M108.7,31.85 C111.5,32.4 114.15,33.1 116.7,34 L116.7,23 L108.7,23 L108.7,31.85 Z M164.7,23.2 L168.3,23.2 L182.6,58.9 L179.25,58.9 L175.1,48.25 L157.9,48.25 L153.75,58.9 L150.4,58.9 L164.7,23.2 Z M158.9,45.65 L174.1,45.65 L166.6,26.5 L166.45,26.5 L158.9,45.65 Z M186.25,23.2 L200.75,23.2 C208.65,23.2 212.65,26.6 212.65,33.45 C212.65,40.3 208.65,43.75 200.7,43.75 L189.3,43.75 L189.3,58.9 L186.25,58.9 L186.25,23.2 Z M189.3,25.9 L189.3,41.05 L200.55,41.05 C203.65,41.05 205.9,40.4 207.4,39.15 C208.8,37.9 209.55,36 209.55,33.45 C209.55,30.9 208.8,29.05 207.4,27.85 C205.9,26.55 203.6,25.9 200.55,25.9 L189.3,25.9 Z M217.95,23.2 L232.45,23.2 C240.35,23.2 244.35,26.6 244.35,33.45 C244.35,40.3 240.35,43.75 232.4,43.75 L221,43.75 L221,58.9 L217.95,58.9 L217.95,23.2 Z M221,25.9 L221,41.05 L232.25,41.05 C235.35,41.05 237.6,40.4 239.1,39.15 C240.5,37.9 241.25,36 241.25,33.45 C241.25,30.9 240.5,29.05 239.1,27.85 C237.6,26.55 235.3,25.9 232.25,25.9 L221,25.9 Z M248.3,26.8 L248.3,29.4 L263.85,29.4 L263.85,26.8 L257.75,26.8 C257.05,23.8 256.25,21.15 255.45,18.8 L252.75,19.25 C253.65,21.55 254.45,24.05 255.15,26.8 L248.3,26.8 Z M251.75,32.85 C252.95,38.65 254,45.25 254.9,52.7 L252.7,53.25 C251.8,46.45 250.75,39.9 249.45,33.6 L251.75,32.85 Z M263.9,53.4 L263.9,56 C259.25,57.8 254.25,59.35 248.85,60.55 L248.15,57.9 C251.15,57.3 254.1,56.6 256.95,55.8 C258.3,48.4 259.25,40.45 259.85,32.05 L262.3,32.4 C261.65,40.6 260.65,48.15 259.35,55.05 C260.85,54.55 262.4,54 263.9,53.4 Z M288.15,28.15 L280.45,28.15 L280.45,18.25 L277.75,18.25 L277.75,28.15 L270.15,28.15 L270.15,20.25 L267.5,20.25 L267.5,30.6 L290.8,30.6 L290.8,20.25 L288.15,20.25 L288.15,28.15 Z M265.15,35.45 L265.15,38.05 L277.35,38.05 C277,39.95 276.45,41.75 275.7,43.5 L266.8,43.5 L266.8,63.6 L269.3,63.6 L269.3,46 L274.55,46 L274.55,62.9 L276.9,62.9 L276.9,46 L281.7,46 L281.7,62.9 L284,62.9 L284,46 L289.4,46 L289.4,59.6 C289.4,60.7 289,61.25 288.2,61.25 L286.05,61.15 L286.75,63.6 L289,63.6 C290.85,63.6 291.8,62.4 291.8,60.1 L291.8,43.5 L278.3,43.5 C279,41.8 279.6,39.95 280,38.05 L293.5,38.05 L293.5,35.45 L265.15,35.45 Z" id="txt8-1"></path>
                    </g>
                </g>
            </g>
        </g>
    </g>
</svg>