<?xml version="1.0" encoding="UTF-8"?>
<svg width="205px" height="66px" viewBox="0 0 205 66" version="1.1" xmlns="http://www.w3.org/2000/svg" xmlns:xlink="http://www.w3.org/1999/xlink">
    <!-- Generator: Sketch 45.2 (43514) - http://www.bohemiancoding.com/sketch -->
    <title>yingwen</title>
    <desc>Created with Sketch.</desc>
    <defs></defs>
    <g id="Page-1" stroke="none" stroke-width="1" fill="none" fill-rule="evenodd">
        <g id="Group-33" transform="translate(-6.000000, -83.000000)">
            <g id="yingwen" transform="translate(6.000000, 83.000000)">
                <rect id="Rectangle-23-Copy" fill="#FFFFFF" x="0" y="0" width="205" height="66.0019531"></rect>
                <path d="M67.606,24.292 L67.606,40 L79.002,40 L79.002,38.812 L68.948,38.812 L68.948,32.476 L78.1,32.476 L78.1,31.266 L68.948,31.266 L68.948,25.48 L78.628,25.48 L78.628,24.292 L67.606,24.292 Z M86.35,28.318 C85.558,28.318 84.832,28.494 84.194,28.89 C83.556,29.286 83.05,29.814 82.654,30.496 L82.654,28.626 L81.334,28.626 L81.334,40 L82.654,40 L82.654,33.136 C82.72,32.014 83.072,31.112 83.732,30.452 C84.348,29.792 85.096,29.462 86.02,29.462 C88.176,29.462 89.254,30.672 89.254,33.092 L89.254,40 L90.574,40 L90.574,33.004 C90.574,29.88 89.166,28.318 86.35,28.318 Z M98.032,28.318 C99.902,28.318 101.266,29.176 102.102,30.914 L102.102,28.626 L103.422,28.626 L103.422,39.164 C103.422,42.816 101.706,44.664 98.318,44.664 C96.822,44.664 95.678,44.334 94.864,43.696 C94.094,43.08 93.61,42.178 93.412,40.968 L94.732,40.968 C94.886,41.804 95.238,42.442 95.788,42.86 C96.36,43.322 97.196,43.564 98.318,43.564 C100.826,43.564 102.102,42.134 102.102,39.318 L102.102,37.14 C101.266,38.856 99.902,39.736 98.032,39.736 C96.448,39.736 95.172,39.164 94.226,38.042 C93.346,36.986 92.906,35.666 92.906,34.038 C92.906,32.432 93.346,31.09 94.226,30.034 C95.172,28.89 96.448,28.318 98.032,28.318 Z M98.186,29.44 C96.932,29.44 95.964,29.88 95.26,30.804 C94.578,31.64 94.248,32.718 94.248,34.038 C94.248,35.314 94.556,36.37 95.194,37.206 C95.876,38.13 96.866,38.592 98.164,38.592 C99.418,38.592 100.408,38.152 101.112,37.272 C101.772,36.436 102.102,35.358 102.102,34.038 C102.102,32.718 101.772,31.64 101.112,30.804 C100.408,29.88 99.418,29.44 98.186,29.44 Z M106.612,23.984 L106.612,40 L107.932,40 L107.932,23.984 L106.612,23.984 Z M112.442,24.534 C112.112,24.534 111.848,24.644 111.65,24.864 C111.43,25.04 111.32,25.304 111.32,25.634 C111.32,25.942 111.43,26.206 111.65,26.426 C111.848,26.624 112.112,26.734 112.442,26.734 C112.75,26.734 112.992,26.624 113.212,26.426 C113.432,26.206 113.564,25.942 113.564,25.634 C113.564,25.304 113.454,25.04 113.234,24.864 C113.014,24.644 112.75,24.534 112.442,24.534 Z M111.782,28.626 L111.782,40 L113.102,40 L113.102,28.626 L111.782,28.626 Z M120.406,28.318 C119.218,28.318 118.206,28.582 117.414,29.132 C116.578,29.704 116.182,30.43 116.182,31.354 C116.182,32.278 116.6,33.004 117.48,33.532 C118.008,33.862 118.932,34.192 120.252,34.544 C121.55,34.874 122.386,35.138 122.782,35.336 C123.53,35.71 123.904,36.238 123.904,36.92 C123.904,38.416 122.804,39.164 120.604,39.164 C119.548,39.164 118.756,38.966 118.228,38.57 C117.656,38.13 117.304,37.404 117.172,36.414 L115.874,36.414 C116.138,39.01 117.722,40.308 120.648,40.308 C123.728,40.308 125.268,39.142 125.268,36.854 C125.268,35.886 124.806,35.116 123.904,34.566 C123.332,34.214 122.342,33.862 120.956,33.51 C119.79,33.202 118.998,32.938 118.558,32.718 C117.876,32.366 117.546,31.904 117.546,31.332 C117.546,30.76 117.81,30.32 118.338,29.968 C118.866,29.616 119.548,29.462 120.384,29.462 C121.396,29.462 122.166,29.66 122.694,30.078 C123.178,30.452 123.486,31.024 123.64,31.816 L124.938,31.816 C124.608,29.484 123.09,28.318 120.406,28.318 Z M127.38,23.984 L127.38,40 L128.722,40 L128.722,33.422 C128.722,32.3 129.03,31.354 129.69,30.606 C130.35,29.836 131.142,29.462 132.088,29.462 C133.1,29.462 133.87,29.748 134.442,30.342 C134.992,30.958 135.278,31.816 135.278,32.916 L135.278,40 L136.598,40 L136.598,32.74 C136.598,31.332 136.224,30.232 135.498,29.462 C134.772,28.692 133.76,28.318 132.462,28.318 C131.67,28.318 130.944,28.516 130.306,28.912 C129.646,29.33 129.118,29.924 128.722,30.694 L128.722,23.984 L127.38,23.984 Z" id="English" fill="#707070"></path>
            </g>
        </g>
    </g>
</svg>