<?xml version="1.0" encoding="UTF-8"?>
<svg width="209px" height="98px" viewBox="0 0 209 98" version="1.1" xmlns="http://www.w3.org/2000/svg" xmlns:xlink="http://www.w3.org/1999/xlink">
    <!-- Generator: Sketch 50 (54983) - http://www.bohemiancoding.com/sketch -->
    <title>404</title>
    <desc>Created with Sketch.</desc>
    <defs></defs>
    <g id="Page-1" stroke="none" stroke-width="1" fill="none" fill-rule="evenodd">
        <g id="3_Error" transform="translate(-616.000000, -357.000000)" fill="#302C48">
            <g id="Text" transform="translate(613.000000, 349.000000)">
                <path d="M55.255,8.316 L57.061,8.316 L57.061,72.816 L68.284,72.816 L68.284,81.717 L57.061,81.717 L57.061,103.26 L47.902,103.26 L47.902,81.717 L3.526,81.717 L55.255,8.316 Z M47.902,72.816 L47.902,34.245 L20.554,72.816 L47.902,72.816 Z M106.984,105.582 C97.0079501,105.582 89.3325269,101.475541 83.9575,93.2625 C78.5824731,85.0494589 75.895,72.94508 75.895,56.949 C75.895,40.95292 78.5824731,28.8485411 83.9575,20.6355 C89.3325269,12.4224589 96.9649505,8.316 106.855,8.316 C116.745049,8.316 124.592471,12.5084581 130.3975,20.8935 C136.202529,29.2785419 139.105,41.2969217 139.105,56.949 C139.105,72.6010783 136.181029,84.6194581 130.333,93.0045 C124.484971,101.389542 116.702049,105.582 106.984,105.582 Z M107.242,17.088 C100.103964,17.088 94.5570198,20.5279656 90.601,27.408 C86.6449802,34.2880344 84.667,44.2209351 84.667,57.207 C84.667,83.8671333 92.1919247,97.197 107.242,97.197 C114.552037,97.197 120.24948,93.692535 124.3345,86.6835 C128.41952,79.674465 130.462,69.7630641 130.462,56.949 C130.462,44.1349359 128.355021,34.2880344 124.141,27.408 C119.926979,20.5279656 114.294035,17.088 107.242,17.088 Z M198.187,8.316 L199.993,8.316 L199.993,72.816 L211.216,72.816 L211.216,81.717 L199.993,81.717 L199.993,103.26 L190.834,103.26 L190.834,81.717 L146.458,81.717 L198.187,8.316 Z M190.834,72.816 L190.834,34.245 L163.486,72.816 L190.834,72.816 Z" id="404"></path>
            </g>
        </g>
    </g>
</svg>