<?xml version="1.0" encoding="UTF-8"?>
<svg width="155px" height="47px" viewBox="0 0 155 47" version="1.1" xmlns="http://www.w3.org/2000/svg" xmlns:xlink="http://www.w3.org/1999/xlink">
    <!-- Generator: Sketch 46.2 (44496) - http://www.bohemiancoding.com/sketch -->
    <title>Logo</title>
    <desc>Created with Sketch.</desc>
    <defs></defs>
    <g id="Page-1" stroke="none" stroke-width="1" fill="none" fill-rule="evenodd">
        <g id="Desktop" transform="translate(-75.000000, -57.000000)" fill="#FFFFFF">
            <g id="Logo" transform="translate(75.000000, 57.000000)">
                <path d="M59,45.8674033 L60.3460857,45.8674033 L60.3460857,42.519337 L63.8683433,42.519337 L63.8683433,45.8674033 L65.2032117,45.8674033 L65.2032117,38.1325967 L63.8683433,38.1325967 L63.8683433,41.359116 L60.3460857,41.359116 L60.3460857,38.1325967 L59,38.1325967 L59,45.8674033 Z M68.7665998,45.8674033 L71.6719014,38.1325967 L73.2535521,38.1325967 L76.1588538,45.8674033 L74.7118117,45.8674033 L74.1172905,44.198895 L70.8081631,44.198895 L70.2248593,45.8674033 L68.7665998,45.8674033 Z M72.4459007,39.5248619 L71.1783367,43.1270718 L73.7358995,43.1270718 L72.4683355,39.5248619 L72.4459007,39.5248619 Z M79.7334593,45.8674033 L79.7334593,38.1325967 L82.9304129,38.1325967 C85.0504979,38.1325967 85.8020624,39.3259669 85.8020624,40.519337 C85.8020624,41.679558 85.0392805,42.9281768 82.9304129,42.9281768 L81.079545,42.9281768 L81.079545,45.8674033 L79.7334593,45.8674033 Z M81.079545,41.8453039 L82.9191955,41.8453039 C84.0072814,41.8453039 84.4559767,41.2265193 84.4559767,40.5303867 C84.4559767,39.8232044 84.0072814,39.2375691 82.9304129,39.2375691 L81.079545,39.2375691 L81.079545,41.8453039 Z M89.2757114,41.9558011 C89.2757114,39.558011 91.0144055,38 93.2915338,38 C95.5686622,38 97.2961388,39.558011 97.2961388,41.9558011 C97.2961388,44.4088398 95.5686622,46 93.2915338,46 C91.0144055,46 89.2757114,44.4088398 89.2757114,41.9558011 Z M90.6554493,41.9558011 C90.6554493,43.7679558 91.8108395,44.8508287 93.2915338,44.8508287 C94.7722281,44.8508287 95.9276183,43.7679558 95.9276183,41.9558011 C95.9276183,40.2099448 94.7834455,39.1381215 93.2915338,39.1381215 C91.7996221,39.1381215 90.6554493,40.2099448 90.6554493,41.9558011 Z M101.128744,45.8674033 L106.748652,45.8674033 L106.748652,44.6961326 L102.463612,44.6961326 L102.463612,42.4751381 L106.255087,42.4751381 L106.255087,41.3922652 L102.463612,41.3922652 L102.463612,39.3038674 L106.692565,39.3038674 L106.692565,38.1325967 L101.128744,38.1325967 L101.128744,45.8674033 Z M113.004211,45.8674033 L114.361515,45.8674033 L114.361515,42.7403315 L117.322903,38.1325967 L115.763687,38.1325967 L113.699689,41.4585635 L113.677254,41.4585635 L111.624474,38.1325967 L110.042823,38.1325967 L113.004211,42.7403315 L113.004211,45.8674033 Z M119.495336,45.8674033 L120.97603,45.8674033 L120.97603,44.3977901 L119.495336,44.3977901 L119.495336,45.8674033 Z M124.180462,41.9337017 C124.180462,44.3314917 125.795765,46 128.17385,46 C129.340457,46 130.31637,45.6353591 131.124021,44.8729282 L130.293935,44.0110497 C129.721848,44.5635359 129.037588,44.8508287 128.229937,44.8508287 C126.592199,44.8508287 125.548983,43.6906077 125.548983,41.9337017 C125.548983,40.2541436 126.625851,39.1491713 128.229937,39.1491713 C128.981501,39.1491713 129.609675,39.4033149 130.215413,39.8674033 L130.944543,38.9171271 C130.148109,38.3093923 129.228284,38 128.207502,38 C125.840635,38 124.180462,39.6243094 124.180462,41.9337017 Z M134.261149,41.9558011 C134.261149,39.558011 135.999843,38 138.276971,38 C140.554099,38 142.281576,39.558011 142.281576,41.9558011 C142.281576,44.4088398 140.554099,46 138.276971,46 C135.999843,46 134.261149,44.4088398 134.261149,41.9558011 Z M135.640886,41.9558011 C135.640886,43.7679558 136.796277,44.8508287 138.276971,44.8508287 C139.757665,44.8508287 140.913055,43.7679558 140.913055,41.9558011 C140.913055,40.2099448 139.768883,39.1381215 138.276971,39.1381215 C136.785059,39.1381215 135.640886,40.2099448 135.640886,41.9558011 Z M146.114181,45.8674033 L147.40418,45.8674033 L147.40418,40.0994475 L150.051482,43.7458564 L152.698784,40.0994475 L152.698784,45.8674033 L154,45.8674033 L154,38.1325967 L152.653914,38.1325967 L150.062699,41.7679558 L147.471484,38.1325967 L146.114181,38.1325967 L146.114181,45.8674033 Z" id="hapoey.com"></path>
                <path d="M77.7471303,31.9022801 L64.7461175,31.9022801 C64.484131,31.9022801 64.2603543,31.7882748 64.0747806,31.5602606 C63.8892068,31.3322464 63.7964213,31.0662339 63.7964213,30.762215 L63.7964213,22.6840391 C63.7964213,22.3800202 63.7472996,22.1194365 63.6490547,21.9022801 C63.5508098,21.6851238 63.4361924,21.5765472 63.3051992,21.5765472 C63.1960382,21.5765472 63.0977947,21.457113 63.0104659,21.218241 C62.9231371,20.9793691 62.8794733,20.7079277 62.8794733,20.4039088 L62.8794733,19.6547231 C62.8794733,19.3507042 62.9231371,19.0901205 63.0104659,18.8729642 C63.0977947,18.6558078 63.1960382,18.5472313 63.3051992,18.5472313 C63.4361924,18.5472313 63.5508098,18.4332259 63.6490547,18.2052117 C63.7472996,17.9771976 63.7964213,17.711185 63.7964213,17.4071661 L63.7964213,9.16612378 C63.7964213,8.84038925 63.9055807,8.56894788 64.1239028,8.35179153 C64.3422248,8.13463518 64.6151233,8.02605863 64.9426063,8.02605863 L77.7471303,8.02605863 C78.0527812,8.02605863 78.3202217,8.13463518 78.5494598,8.35179153 C78.778698,8.56894788 78.8933153,8.84038925 78.8933153,9.16612378 L78.8933153,17.4071661 C78.8933153,17.711185 78.9369791,17.9771976 79.0243079,18.2052117 C79.1116367,18.4332259 79.2098802,18.5472313 79.3190412,18.5472313 C79.4718666,18.5472313 79.5919419,18.6558078 79.6792708,18.8729642 C79.7665996,19.0901205 79.8102633,19.3507042 79.8102633,19.6547231 L79.8102633,20.4039088 C79.8102633,20.7079277 79.7665996,20.9793691 79.6792708,21.218241 C79.5919419,21.457113 79.4718666,21.5765472 79.3190412,21.5765472 C79.2098802,21.5765472 79.1116367,21.6851238 79.0243079,21.9022801 C78.9369791,22.1194365 78.8933153,22.3800202 78.8933153,22.6840391 L78.8933153,30.762215 C78.8933153,31.0662339 78.778698,31.3322464 78.5494598,31.5602606 C78.3202217,31.7882748 78.0527812,31.9022801 77.7471303,31.9022801 Z M66.8747468,17.4071661 C66.8747468,17.711185 66.9839062,17.9771976 67.2022282,18.2052117 C67.4205503,18.4332259 67.6825328,18.5472313 67.9881837,18.5472313 L74.701553,18.5472313 C75.0072039,18.5472313 75.2801023,18.4332259 75.5202566,18.2052117 C75.7604108,17.9771976 75.8804862,17.711185 75.8804862,17.4071661 L75.8804862,12.1628664 C75.8804862,11.8588476 75.7604108,11.5982638 75.5202566,11.3811075 C75.2801023,11.1639511 75.0072039,11.0553746 74.701553,11.0553746 L67.9881837,11.0553746 C67.6825328,11.0553746 67.4205503,11.1639511 67.2022282,11.3811075 C66.9839062,11.5982638 66.8747468,11.8588476 66.8747468,12.1628664 L66.8747468,17.4071661 Z M67.9881837,21.5765472 C67.6825328,21.5765472 67.4205503,21.6851238 67.2022282,21.9022801 C66.9839062,22.1194365 66.8747468,22.3800202 66.8747468,22.6840391 L66.8747468,27.732899 C66.8747468,28.0586336 66.9839062,28.3300749 67.2022282,28.5472313 C67.4205503,28.7643876 67.6825328,28.8729642 67.9881837,28.8729642 L74.7343011,28.8729642 C75.0617842,28.8729642 75.3346827,28.7643876 75.5530047,28.5472313 C75.7713268,28.3300749 75.8804862,28.0586336 75.8804862,27.732899 L75.8804862,22.6840391 C75.8804862,22.3800202 75.7604108,22.1194365 75.5202566,21.9022801 C75.2801023,21.6851238 75.0072039,21.5765472 74.701553,21.5765472 L67.9881837,21.5765472 Z M58,30.0130293 C58,29.6872948 58.0382058,29.4158534 58.1146185,29.1986971 C58.1910312,28.9815407 58.2947326,28.8729642 58.4257259,28.8729642 C58.5567191,28.8729642 58.6604205,28.7643876 58.7368332,28.5472313 C58.8132459,28.3300749 58.8514517,28.0586336 58.8514517,27.732899 L58.8514517,15.485342 C58.8514517,15.1813231 58.9606111,14.9207394 59.1789332,14.7035831 C59.3972552,14.4864267 59.6592377,14.3778502 59.9648886,14.3778502 L60.750844,14.3778502 C61.0564949,14.3778502 61.3184774,14.4864267 61.5367995,14.7035831 C61.7551215,14.9207394 61.8642809,15.1813231 61.8642809,15.485342 L61.8642809,30.762215 C61.8642809,31.0662339 61.7551215,31.3322464 61.5367995,31.5602606 C61.3184774,31.7882748 61.0564949,31.9022801 60.750844,31.9022801 L58.7204591,31.9022801 C58.5239693,31.9022801 58.3547723,31.7882748 58.2128629,31.5602606 C58.0709536,31.3322464 58,31.0662339 58,30.762215 L58,30.0130293 Z M65.1390952,2 C65.4447461,2 65.7121866,2.04343062 65.9414247,2.13029316 C66.1706629,2.2171557 66.2852802,2.34744756 66.2852802,2.52117264 C66.2852802,2.67318208 66.3998976,2.79804511 66.6291357,2.89576547 C66.8583739,2.99348583 67.1258144,3.04234528 67.4314652,3.04234528 L78.6640783,3.04234528 C78.9915614,3.04234528 79.2644599,3.16177948 79.4827819,3.40065147 C79.701104,3.63952345 79.8102633,3.91096482 79.8102633,4.21498371 L79.8102633,4.96416938 C79.8102633,5.26818827 79.701104,5.52877199 79.4827819,5.74592834 C79.2644599,5.96308469 78.9915614,6.07166124 78.6640783,6.07166124 L64.4186361,6.07166124 C64.091153,6.07166124 63.8127966,5.96308469 63.5835584,5.74592834 C63.3543203,5.52877199 63.2397029,5.26818827 63.2397029,4.96416938 L63.2397029,2.84690554 C63.2397029,2.60803355 63.3543203,2.40716694 63.5835584,2.24429967 C63.8127966,2.08143241 64.091153,2 64.4186361,2 L65.1390952,2 Z M72.9986496,14.5732899 C73.2824682,14.5732899 73.5280768,14.6872953 73.7354828,14.9153094 C73.9428887,15.1433236 74.0465901,15.4093362 74.0465901,15.713355 L74.0465901,16.4625407 C74.0465901,16.7882752 73.9265148,17.0597166 73.6863606,17.276873 C73.4462063,17.4940293 73.1733079,17.6026059 72.867657,17.6026059 L70.116813,17.6026059 C69.7893299,17.6026059 69.5109735,17.4940293 69.2817353,17.276873 C69.0524972,17.0597166 68.9378798,16.7882752 68.9378798,16.4625407 L68.9378798,13.7263844 C68.9378798,13.4006498 69.0524972,13.1292085 69.2817353,12.9120521 C69.5109735,12.6948958 69.7893299,12.5863192 70.116813,12.5863192 L70.8700203,12.5863192 C71.1756711,12.5863192 71.4376536,12.6786093 71.6559757,12.8631922 C71.8742977,13.0477751 71.9834571,13.2920723 71.9834571,13.5960912 C71.9834571,13.8566788 72.0817006,14.0846896 72.2781904,14.2801303 C72.4746803,14.475571 72.7148309,14.5732899 72.9986496,14.5732899 Z M68.9378798,26.7557003 L68.9378798,23.9869707 C68.9378798,23.6829518 69.0524972,23.4223681 69.2817353,23.2052117 C69.5109735,22.9880554 69.7893299,22.8794788 70.116813,22.8794788 L70.8700203,22.8794788 C71.1756711,22.8794788 71.4376536,22.9717689 71.6559757,23.1563518 C71.8742977,23.3409347 71.9834571,23.5852319 71.9834571,23.8892508 C71.9834571,24.1498384 72.0817006,24.383278 72.2781904,24.5895765 C72.4746803,24.7958751 72.7148309,24.8990228 72.9986496,24.8990228 C73.2824682,24.8990228 73.5280768,25.0075993 73.7354828,25.2247557 C73.9428887,25.4419121 74.0465901,25.7024958 74.0465901,26.0065147 L74.0465901,26.7557003 C74.0465901,27.0597192 73.9265148,27.3203029 73.6863606,27.5374593 C73.4462063,27.7546156 73.1733079,27.8631922 72.867657,27.8631922 L70.116813,27.8631922 C69.7893299,27.8631922 69.5109735,27.7546156 69.2817353,27.5374593 C69.0524972,27.3203029 68.9378798,27.0597192 68.9378798,26.7557003 Z M59.5391627,2.94462541 C59.7574848,2.70575342 60.0249253,2.58631922 60.3414922,2.58631922 C60.6580592,2.58631922 60.9145838,2.70575342 61.1110736,2.94462541 L61.667792,3.46579805 C61.8861141,3.70467003 61.9952735,3.9761114 61.9952735,4.28013029 C61.9952735,4.58414919 61.8861141,4.85559055 61.667792,5.09446254 L61.1110736,5.58306189 C60.9145838,5.82193388 60.6580592,5.94136808 60.3414922,5.94136808 C60.0249253,5.94136808 59.7574848,5.82193388 59.5391627,5.58306189 L59.0479406,5.09446254 C58.8077863,4.85559055 58.687711,4.58414919 58.687711,4.28013029 C58.687711,3.9761114 58.8077863,3.70467003 59.0479406,3.46579805 L59.5391627,2.94462541 Z M59.0479406,11.2833876 C58.8077863,11.0445156 58.687711,10.7730743 58.687711,10.4690554 C58.687711,10.1650365 58.8077863,9.89359511 59.0479406,9.65472313 L59.5391627,9.16612378 C59.7574848,8.94896743 60.0249253,8.84039088 60.3414922,8.84039088 C60.6580592,8.84039088 60.9145838,8.94896743 61.1110736,9.16612378 L61.667792,9.65472313 C61.8861141,9.89359511 61.9952735,10.1650365 61.9952735,10.4690554 C61.9952735,10.7730743 61.8861141,11.0445156 61.667792,11.2833876 L61.1110736,11.8045603 C60.9145838,12.0434322 60.6580592,12.1628664 60.3414922,12.1628664 C60.0249253,12.1628664 59.7574848,12.0434322 59.5391627,11.8045603 L59.0479406,11.2833876 Z M86.5236327,28.8729642 C86.6327937,28.8729642 86.7255792,28.7643876 86.8019919,28.5472313 C86.8784046,28.3300749 86.9166104,28.0586336 86.9166104,27.732899 L86.9166104,24.47557 C86.9166104,24.1715511 86.8456568,23.9001098 86.7037475,23.6612378 C86.5618381,23.4223658 86.3817252,23.3029316 86.1634031,23.3029316 C85.9887455,23.3029316 85.8304644,23.4223658 85.688555,23.6612378 C85.5466457,23.9001098 85.4756921,24.1715511 85.4756921,24.47557 L85.4756921,30.762215 C85.4756921,31.0662339 85.3665327,31.3322464 85.1482107,31.5602606 C84.9298886,31.7882748 84.6569902,31.9022801 84.3295071,31.9022801 L84.1657664,31.9022801 C83.8601155,31.9022801 83.598133,31.7882748 83.3798109,31.5602606 C83.1614889,31.3322464 83.0523295,31.0662339 83.0523295,30.762215 L83.0523295,3.10749186 C83.0523295,2.80347296 83.1614889,2.54288925 83.3798109,2.3257329 C83.598133,2.10857655 83.8601155,2 84.1657664,2 L88.2265361,2 C88.532187,2 88.7941695,2.11400537 89.0124916,2.34201954 C89.2308136,2.57003371 89.339973,2.83604625 89.339973,3.14006515 L89.339973,28.3517915 C89.339973,28.6558104 89.2799353,29.0086842 89.1598582,29.4104235 C89.0397811,29.8121627 88.870584,30.1433212 88.652262,30.4039088 L88.2592843,30.9576547 C88.0409622,31.1965267 87.8008116,31.4136798 87.5388251,31.6091205 C87.2768387,31.8045612 87.036688,31.9022801 86.818366,31.9022801 C86.6437083,31.9022801 86.4908852,31.7882748 86.359892,31.5602606 C86.2288987,31.3322464 86.1634031,31.0662339 86.1634031,30.762215 L86.1634031,30.0130293 C86.1634031,29.6872948 86.1961509,29.4158534 86.2616475,29.1986971 C86.3271441,28.9815407 86.4144717,28.8729642 86.5236327,28.8729642 Z M85.4756921,10.2410423 C85.4756921,10.5450612 85.5466457,10.8165026 85.688555,11.0553746 C85.8304644,11.2942466 85.9887455,11.4136808 86.1634031,11.4136808 C86.3817252,11.4136808 86.5618381,11.2942466 86.7037475,11.0553746 C86.8456568,10.8165026 86.9166104,10.5450612 86.9166104,10.2410423 L86.9166104,6.13680782 C86.9166104,5.83278893 86.8456568,5.56677638 86.7037475,5.33876221 C86.5618381,5.11074805 86.3817252,4.99674267 86.1634031,4.99674267 C85.9887455,4.99674267 85.8304644,5.11074805 85.688555,5.33876221 C85.5466457,5.56677638 85.4756921,5.83278893 85.4756921,6.13680782 L85.4756921,10.2410423 Z M86.1634031,20.2736156 C86.3817252,20.2736156 86.5618381,20.1650391 86.7037475,19.9478827 C86.8456568,19.7307264 86.9166104,19.4701427 86.9166104,19.1661238 L86.9166104,15.5830619 C86.9166104,15.2573274 86.8456568,14.9804572 86.7037475,14.752443 C86.5618381,14.5244288 86.3817252,14.4104235 86.1634031,14.4104235 C85.9887455,14.4104235 85.8304644,14.5244288 85.688555,14.752443 C85.5466457,14.9804572 85.4756921,15.2573274 85.4756921,15.5830619 L85.4756921,19.1661238 C85.4756921,19.4701427 85.5466457,19.7307264 85.688555,19.9478827 C85.8304644,20.1650391 85.9887455,20.2736156 86.1634031,20.2736156 Z M95.1691425,30.9576547 C94.9944848,31.1965267 94.7652501,31.4136798 94.4814315,31.6091205 C94.1976128,31.8045612 93.9574622,31.9022801 93.7609723,31.9022801 C93.5426503,31.9022801 93.3625373,31.7882748 93.220628,31.5602606 C93.0787186,31.3322464 93.007765,31.0662339 93.007765,30.762215 L93.007765,30.0130293 C93.007765,29.6872948 93.0459708,29.4158534 93.1223835,29.1986971 C93.1987962,28.9815407 93.2915817,28.8729642 93.4007427,28.8729642 C93.531736,28.8729642 93.6408954,28.7643876 93.7282242,28.5472313 C93.815553,28.3300749 93.8592167,28.0586336 93.8592167,27.732899 L93.8592167,24.47557 C93.8592167,24.1715511 93.7882631,23.9001098 93.6463538,23.6612378 C93.5044445,23.4223658 93.3243315,23.3029316 93.1060095,23.3029316 C92.9313518,23.3029316 92.7730707,23.4223658 92.6311614,23.6612378 C92.489252,23.9001098 92.4182984,24.1715511 92.4182984,24.47557 L92.4182984,30.762215 C92.4182984,31.0662339 92.2982231,31.3322464 92.0580689,31.5602606 C91.8179146,31.7882748 91.5450162,31.9022801 91.2393653,31.9022801 L91.1083727,31.9022801 C90.7808897,31.9022801 90.5079912,31.7882748 90.2896691,31.5602606 C90.0713471,31.3322464 89.9621877,31.0662339 89.9621877,30.762215 L89.9621877,3.10749186 C89.9621877,2.80347296 90.0713471,2.54288925 90.2896691,2.3257329 C90.5079912,2.10857655 90.7808897,2 91.1083727,2 L95.1363943,2 C95.4638774,2 95.7422338,2.11400537 95.971472,2.34201954 C96.2007101,2.57003371 96.3153275,2.83604625 96.3153275,3.14006515 L96.3153275,28.3517915 C96.3153275,28.6558104 96.2443739,29.0086842 96.1024646,29.4104235 C95.9605552,29.8121627 95.8022741,30.1433212 95.6276165,30.4039088 L95.1691425,30.9576547 Z M93.8592167,15.5830619 C93.8592167,15.2573274 93.7882631,14.9804572 93.6463538,14.752443 C93.5044445,14.5244288 93.3243315,14.4104235 93.1060095,14.4104235 C92.9313518,14.4104235 92.7730707,14.5244288 92.6311614,14.752443 C92.489252,14.9804572 92.4182984,15.2573274 92.4182984,15.5830619 L92.4182984,19.1661238 C92.4182984,19.4701427 92.489252,19.7307264 92.6311614,19.9478827 C92.7730707,20.1650391 92.9313518,20.2736156 93.1060095,20.2736156 C93.3243315,20.2736156 93.5044445,20.1650391 93.6463538,19.9478827 C93.7882631,19.7307264 93.8592167,19.4701427 93.8592167,19.1661238 L93.8592167,15.5830619 Z M93.8592167,6.13680782 C93.8592167,5.83278893 93.7882631,5.56677638 93.6463538,5.33876221 C93.5044445,5.11074805 93.3243315,4.99674267 93.1060095,4.99674267 C92.9313518,4.99674267 92.7730707,5.11074805 92.6311614,5.33876221 C92.489252,5.56677638 92.4182984,5.83278893 92.4182984,6.13680782 L92.4182984,10.2410423 C92.4182984,10.5450612 92.489252,10.8165026 92.6311614,11.0553746 C92.7730707,11.2942466 92.9313518,11.4136808 93.1060095,11.4136808 C93.3243315,11.4136808 93.5044445,11.2942466 93.6463538,11.0553746 C93.7882631,10.8165026 93.8592167,10.5450612 93.8592167,10.2410423 L93.8592167,6.13680782 Z M103.814652,31.0228013 C103.59633,31.2616733 103.296142,31.4679687 102.914078,31.6416938 C102.532015,31.8154189 102.188163,31.9022801 101.882512,31.9022801 L98.1492235,31.9022801 C97.8217404,31.9022801 97.548842,31.7882748 97.3305199,31.5602606 C97.1121979,31.3322464 97.0030385,31.0662339 97.0030385,30.762215 L97.0030385,30.2736156 C97.0030385,29.9695967 97.1121979,29.709013 97.3305199,29.4918567 C97.548842,29.2747003 97.8217404,29.1661238 98.1492235,29.1661238 L101.260297,29.1661238 C101.565948,29.1661238 101.838846,29.0684049 102.079001,28.8729642 C102.319155,28.6775235 102.43923,28.4277974 102.43923,28.1237785 C102.43923,27.8197596 102.319155,27.5646047 102.079001,27.3583062 C101.838846,27.1520077 101.565948,27.0488599 101.260297,27.0488599 L98.1492235,27.0488599 C97.8217404,27.0488599 97.548842,26.9402834 97.3305199,26.723127 C97.1121979,26.5059707 97.0030385,26.2345293 97.0030385,25.9087948 L97.0030385,25.1921824 C97.0030385,24.8664479 97.1121979,24.5895777 97.3305199,24.3615635 C97.548842,24.1335493 97.8217404,24.019544 98.1492235,24.019544 L101.260297,24.019544 C101.565948,24.019544 101.838846,23.9109674 102.079001,23.6938111 C102.319155,23.4766547 102.43923,23.2052134 102.43923,22.8794788 C102.43923,22.5754599 102.319155,22.3148762 102.079001,22.0977199 C101.838846,21.8805635 101.565948,21.771987 101.260297,21.771987 L98.1492235,21.771987 C97.8217404,21.771987 97.548842,21.6579816 97.3305199,21.4299674 C97.1121979,21.2019533 97.0030385,20.9359407 97.0030385,20.6319218 L97.0030385,3.95439739 C97.0030385,3.6503785 97.1121979,3.38436596 97.3305199,3.15635179 C97.548842,2.92833762 97.8217404,2.81433225 98.1492235,2.81433225 L101.260297,2.81433225 C101.565948,2.81433225 101.838846,2.78175928 102.079001,2.71661238 C102.319155,2.65146547 102.43923,2.56460423 102.43923,2.45602606 C102.43923,2.32573225 102.553848,2.22258453 102.783086,2.1465798 C103.012324,2.07057508 103.29068,2.02171564 103.618163,2 L103.68366,2 C104.011143,2 104.284041,2.07600358 104.502363,2.22801303 C104.720685,2.38002248 104.829845,2.55374495 104.829845,2.74918567 C104.829845,2.92291075 104.764349,3.16177915 104.633356,3.46579805 C104.502363,3.76981694 104.338624,4.04125831 104.142134,4.28013029 L103.814652,4.67100977 C103.59633,4.90988176 103.296142,5.11074837 102.914078,5.27361564 C102.532015,5.4364829 102.188163,5.51791531 101.882512,5.51791531 L100.867319,5.51791531 C100.561669,5.51791531 100.294228,5.59391889 100.06499,5.74592834 C99.8357517,5.89793779 99.7211344,6.07166026 99.7211344,6.26710098 C99.7211344,6.44082606 99.8357517,6.60369088 100.06499,6.75570033 C100.294228,6.90770977 100.561669,6.98371336 100.867319,6.98371336 L103.650912,6.98371336 C103.978395,6.98371336 104.256751,7.09771873 104.485989,7.3257329 C104.715227,7.55374707 104.829845,7.81975961 104.829845,8.1237785 L104.829845,14.2801303 C104.829845,14.6058648 104.764349,14.9695963 104.633356,15.3713355 C104.502363,15.7730748 104.349539,16.0933756 104.174882,16.3322476 L103.68366,16.9511401 C103.509002,17.1900121 103.241562,17.3963075 102.88133,17.5700326 C102.521099,17.7437577 102.177247,17.8306189 101.849764,17.8306189 L101.817016,17.8306189 C101.511365,17.8306189 101.238466,17.7220423 100.998312,17.504886 C100.758158,17.2877296 100.638082,17.0271459 100.638082,16.723127 L100.638082,16.267101 C100.638082,15.9630821 100.72541,15.6970695 100.900068,15.4690554 C101.074725,15.2410412 101.282128,15.1270358 101.522282,15.1270358 C101.762436,15.1270358 101.964381,15.0130305 102.128123,14.7850163 C102.291864,14.5570021 102.373734,14.2909896 102.373734,13.9869707 L102.373734,13.7915309 C102.373734,13.4657964 102.319154,13.2540721 102.209993,13.1563518 C102.100832,13.0586314 101.937093,13.0966332 101.718771,13.2703583 C101.544113,13.4440834 101.325795,13.5309446 101.063808,13.5309446 C100.801822,13.5309446 100.572587,13.4440834 100.376097,13.2703583 C100.20144,13.0966332 100.048616,13.0532026 99.9176232,13.1400651 C99.78663,13.2269277 99.7211344,13.4332231 99.7211344,13.7589577 L99.7211344,17.8957655 C99.7211344,18.2215 99.8357517,18.4929414 100.06499,18.7100977 C100.294228,18.9272541 100.561669,19.0358306 100.867319,19.0358306 L103.68366,19.0358306 C104.011143,19.0358306 104.284041,19.149836 104.502363,19.3778502 C104.720685,19.6058643 104.829845,19.8827345 104.829845,20.2084691 L104.829845,28.6123779 C104.829845,28.9381124 104.764349,29.296415 104.633356,29.6872964 C104.502363,30.0781779 104.338624,30.3930498 104.142134,30.6319218 L103.814652,31.0228013 Z M100.867319,9.68729642 C100.561669,9.68729642 100.294228,9.80130179 100.06499,10.029316 C99.8357517,10.2573301 99.7211344,10.5233427 99.7211344,10.8273616 L99.7211344,11.0879479 C99.7211344,11.4136824 99.78663,11.6199779 99.9176232,11.7068404 C100.048616,11.7937029 100.20144,11.7502723 100.376097,11.5765472 C100.572587,11.3811065 100.801822,11.2833876 101.063808,11.2833876 C101.325795,11.2833876 101.544113,11.3811065 101.718771,11.5765472 C101.937093,11.7502723 102.100832,11.7828453 102.209993,11.6742671 C102.319154,11.5656889 102.373734,11.3593935 102.373734,11.0553746 L102.373734,10.8273616 C102.373734,10.5233427 102.259117,10.2573301 102.029878,10.029316 C101.80064,9.80130179 101.522284,9.68729642 101.194801,9.68729642 L100.867319,9.68729642 Z M111.281229,2.09771987 C111.58688,2.09771987 111.859778,2.20629642 112.099932,2.42345277 C112.340087,2.64060912 112.460162,2.90119283 112.460162,3.20521173 L112.460162,3.27035831 C112.460162,3.5743772 112.569321,3.84038974 112.787643,4.06840391 C113.005966,4.29641808 113.267948,4.41042345 113.573599,4.41042345 L124.216745,4.41042345 C124.522396,4.41042345 124.789837,4.29641808 125.019075,4.06840391 C125.248313,3.84038974 125.36293,3.5743772 125.36293,3.27035831 L125.36293,3.20521173 C125.36293,2.90119283 125.477548,2.64060912 125.706786,2.42345277 C125.936024,2.20629642 126.203465,2.09771987 126.509115,2.09771987 L127.229575,2.09771987 C127.557058,2.09771987 127.829956,2.20629642 128.048278,2.42345277 C128.2666,2.64060912 128.37576,2.90119283 128.37576,3.20521173 L128.37576,3.27035831 C128.37576,3.5743772 128.446713,3.84038974 128.588623,4.06840391 C128.730532,4.29641808 128.899729,4.41042345 129.096219,4.41042345 C129.314541,4.41042345 129.494654,4.519 129.636563,4.73615635 C129.778472,4.9533127 129.849426,5.21389642 129.849426,5.51791531 L129.849426,6.26710098 C129.849426,6.5928355 129.778472,6.8697057 129.636563,7.09771987 C129.494654,7.32573404 129.314541,7.43973941 129.096219,7.43973941 C128.899729,7.43973941 128.730532,7.54288713 128.588623,7.74918567 C128.446713,7.9554842 128.37576,8.19978143 128.37576,8.48208469 C128.37576,8.78610358 128.2666,9.0466873 128.048278,9.26384365 C127.829956,9.481 127.557058,9.58957655 127.229575,9.58957655 L126.509115,9.58957655 C126.203465,9.58957655 125.936024,9.481 125.706786,9.26384365 C125.477548,9.0466873 125.36293,8.78610358 125.36293,8.48208469 C125.36293,8.19978143 125.248313,7.9554842 125.019075,7.74918567 C124.789837,7.54288713 124.522396,7.43973941 124.216745,7.43973941 L113.573599,7.43973941 C113.267948,7.43973941 113.005966,7.54288713 112.787643,7.74918567 C112.569321,7.9554842 112.460162,8.19978143 112.460162,8.48208469 C112.460162,8.78610358 112.340087,9.0466873 112.099932,9.26384365 C111.859778,9.481 111.58688,9.58957655 111.281229,9.58957655 L110.528022,9.58957655 C110.222371,9.58957655 109.95493,9.481 109.725692,9.26384365 C109.496454,9.0466873 109.381837,8.78610358 109.381837,8.48208469 C109.381837,8.19978143 109.321799,7.9554842 109.201722,7.74918567 C109.081645,7.54288713 108.923364,7.43973941 108.726874,7.43973941 C108.552216,7.43973941 108.404851,7.32573404 108.284774,7.09771987 C108.164697,6.8697057 108.104659,6.5928355 108.104659,6.26710098 L108.104659,5.51791531 C108.104659,5.21389642 108.164697,4.9533127 108.284774,4.73615635 C108.404851,4.519 108.552216,4.41042345 108.726874,4.41042345 C108.923364,4.41042345 109.081645,4.29641808 109.201722,4.06840391 C109.321799,3.84038974 109.381837,3.5743772 109.381837,3.27035831 L109.381837,3.20521173 C109.381837,2.90119283 109.496454,2.64060912 109.725692,2.42345277 C109.95493,2.20629642 110.222371,2.09771987 110.528022,2.09771987 L111.281229,2.09771987 Z M108.104659,28.742671 C108.104659,28.4169365 108.197444,28.0749204 108.383018,27.7166124 C108.568592,27.3583044 108.781453,27.0922919 109.021607,26.9185668 L125.36293,15.1596091 C125.624917,14.985884 125.739534,14.8338769 125.706786,14.7035831 C125.674038,14.5732893 125.493925,14.5081433 125.166442,14.5081433 L109.218096,14.5081433 C108.912445,14.5081433 108.650462,14.3941379 108.43214,14.1661238 C108.213818,13.9381096 108.104659,13.6612394 108.104659,13.3355049 L108.104659,12.6188925 C108.104659,12.3148736 108.213818,12.0488611 108.43214,11.8208469 C108.650462,11.5928327 108.912445,11.4788274 109.218096,11.4788274 L128.670493,11.4788274 C128.997976,11.4788274 129.276332,11.5928327 129.505571,11.8208469 C129.734809,12.0488611 129.849426,12.3148736 129.849426,12.6188925 L129.849426,14.7361564 C129.849426,15.0618909 129.756641,15.4093358 129.571067,15.7785016 C129.385493,16.1476674 129.161716,16.4191088 128.89973,16.5928339 L112.394666,28.2540717 C112.132679,28.471228 112.02352,28.6449505 112.067184,28.7752443 C112.110849,28.9055381 112.29642,28.970684 112.623903,28.970684 L128.670493,28.970684 C128.997976,28.970684 129.276332,29.0792606 129.505571,29.2964169 C129.734809,29.5135733 129.849426,29.774157 129.849426,30.0781759 L129.849426,30.8273616 C129.849426,31.1313805 129.734809,31.4028218 129.505571,31.6416938 C129.276332,31.8805658 128.997976,32 128.670493,32 L109.218096,32 C108.912445,32 108.650462,31.8805658 108.43214,31.6416938 C108.213818,31.4028218 108.104659,31.1313805 108.104659,30.8273616 L108.104659,28.742671 Z M155,17.7003257 C155,18.0043446 154.923588,18.3463607 154.770763,18.7263844 C154.617938,19.106408 154.454198,19.3832782 154.279541,19.5570033 C154.039387,19.7307283 153.919311,19.9641679 153.919311,20.257329 C153.919311,20.5504901 154.039387,20.7947873 154.279541,20.990228 C154.454198,21.1639531 154.617938,21.4299656 154.770763,21.7882736 C154.923588,22.1465816 155,22.4777401 155,22.781759 L155,26.9185668 C155,27.2443013 154.923588,27.5917463 154.770763,27.9609121 C154.617938,28.3300779 154.432367,28.6340922 154.214045,28.8729642 L153.722822,29.3615635 C153.482668,29.6004355 153.177022,29.8013021 152.805874,29.9641694 C152.434727,30.1270366 152.085417,30.2084691 151.757934,30.2084691 L151.626941,30.2084691 C151.299458,30.2084691 151.021102,30.2844726 150.791864,30.4364821 C150.562625,30.5884915 150.448008,30.7839293 150.448008,31.0228013 C150.448008,31.2399577 150.338849,31.4353954 150.120527,31.6091205 C149.902205,31.7828456 149.629306,31.8697068 149.301823,31.8697068 L148.908845,31.8697068 C148.581362,31.8697068 148.303006,31.7557015 148.073768,31.5276873 C147.84453,31.2996731 147.729912,31.0336606 147.729912,30.7296417 L147.729912,11.8371336 C147.729912,11.5331147 147.84453,11.2725309 148.073768,11.0553746 C148.303006,10.8382182 148.581362,10.7296417 148.908845,10.7296417 L153.886563,10.7296417 C154.192214,10.7296417 154.454197,10.8382182 154.672519,11.0553746 C154.890841,11.2725309 155,11.5331147 155,11.8371336 L155,17.7003257 Z M138.036462,15.257329 C138.036462,14.9315945 138.145621,14.6601531 138.363943,14.4429967 C138.582265,14.2258404 138.855164,14.1172638 139.182647,14.1172638 L145.732275,14.1172638 C146.059759,14.1172638 146.332657,14.2258404 146.550979,14.4429967 C146.769301,14.6601531 146.87846,14.9315945 146.87846,15.257329 L146.87846,22.2605863 C146.87846,22.5646052 146.807507,22.917479 146.665598,23.3192182 C146.523688,23.7209575 146.343575,24.0412583 146.125253,24.2801303 L145.535787,24.9315961 C145.317465,25.1921837 145.022734,25.403908 144.651587,25.5667752 C144.280439,25.7296425 143.931129,25.8110749 143.603646,25.8110749 L141.900743,25.8110749 C141.595092,25.8110749 141.327651,25.9250803 141.098413,26.1530945 C140.869175,26.3811086 140.754558,26.6471212 140.754558,26.9511401 L140.754558,27.732899 C140.754558,28.0586336 140.869175,28.3300749 141.098413,28.5472313 C141.327651,28.7643876 141.595092,28.8729642 141.900743,28.8729642 L143.01418,28.8729642 C143.31983,28.8729642 143.581813,28.7643876 143.800135,28.5472313 C144.018457,28.3300749 144.127616,28.0586336 144.127616,27.732899 L144.127616,27.7003257 C144.127616,27.3963068 144.247692,27.1302943 144.487846,26.9022801 C144.728,26.674266 145.000899,26.5602606 145.30655,26.5602606 L145.732275,26.5602606 C146.059759,26.5602606 146.332657,26.674266 146.550979,26.9022801 C146.769301,27.1302943 146.87846,27.3963068 146.87846,27.7003257 L146.87846,28.3517915 C146.87846,28.6558104 146.807507,29.0032554 146.665598,29.3941368 C146.523688,29.7850182 146.343575,30.0998902 146.125253,30.3387622 L145.535787,31.0228013 C145.317465,31.2616733 145.022734,31.4679687 144.651587,31.6416938 C144.280439,31.8154189 143.931129,31.9022801 143.603646,31.9022801 L139.182647,31.9022801 C138.855164,31.9022801 138.582265,31.7882748 138.363943,31.5602606 C138.145621,31.3322464 138.036462,31.0662339 138.036462,30.762215 L138.036462,15.257329 Z M133.156989,30.0130293 C133.156989,29.6872948 133.20611,29.4158534 133.304355,29.1986971 C133.4026,28.9815407 133.528133,28.8729642 133.680959,28.8729642 C133.811952,28.8729642 133.932027,28.7643876 134.041188,28.5472313 C134.150349,28.3300749 134.204929,28.0586336 134.204929,27.732899 L134.204929,7.70032573 C134.204929,7.39630684 134.303173,7.13572313 134.499662,6.91856678 C134.696152,6.70141042 134.925387,6.59283388 135.187373,6.59283388 L153.886563,6.59283388 C154.192214,6.59283388 154.454197,6.70141042 154.672519,6.91856678 C154.890841,7.13572313 155,7.39630684 155,7.70032573 L155,8.1237785 C155,8.44951303 154.890841,8.72638322 154.672519,8.95439739 C154.454197,9.18241156 154.192214,9.29641694 153.886563,9.29641694 L138.101958,9.29641694 C137.774475,9.29641694 137.496119,9.40499349 137.26688,9.62214984 C137.037642,9.83930619 136.923025,10.1107476 136.923025,10.4364821 L136.923025,28.3517915 C136.923025,28.6558104 136.852071,29.0032554 136.710162,29.3941368 C136.568253,29.7850182 136.399056,30.0998902 136.202566,30.3387622 L135.580351,31.0228013 C135.362029,31.2616733 135.100047,31.4679687 134.794396,31.6416938 C134.488745,31.8154189 134.226762,31.9022801 134.00844,31.9022801 C133.768286,31.9022801 133.566341,31.7882748 133.4026,31.5602606 C133.238858,31.3322464 133.156989,31.0662339 133.156989,30.762215 L133.156989,30.0130293 Z M153.428089,5.12703583 C153.187935,5.32247655 152.871373,5.4907702 152.478393,5.63192182 C152.085413,5.77307345 151.736103,5.84364821 151.430452,5.84364821 L135.383862,5.84364821 C135.078211,5.84364821 134.810771,5.72964283 134.581533,5.50162866 C134.352295,5.2736145 134.237677,5.00760195 134.237677,4.70358306 L134.237677,4.247557 C134.237677,3.94353811 134.352295,3.67752557 134.581533,3.4495114 C134.810771,3.22149723 135.078211,3.10749186 135.383862,3.10749186 L150.808238,3.10749186 C151.135721,3.10749186 151.408619,3.05863241 151.626941,2.96091205 C151.845263,2.86319169 151.954423,2.72747101 151.954423,2.55374593 C151.954423,2.40173648 152.06904,2.27144463 152.298278,2.16286645 C152.527516,2.05428827 152.805873,2 153.133356,2 L153.886563,2 C154.192214,2 154.454197,2.08143241 154.672519,2.24429967 C154.890841,2.40716694 155,2.60803355 155,2.84690554 C155,3.08577752 154.91813,3.36264772 154.754389,3.67752443 C154.590647,3.99240114 154.377787,4.25841368 154.1158,4.47557003 L153.428089,5.12703583 Z M146.87846,10.7296417 C146.87846,10.9033668 146.791133,11.1096622 146.616475,11.3485342 C146.441818,11.5874062 146.212583,11.8045593 145.928764,12 L145.372046,12.4560261 C145.131892,12.6514668 144.804414,12.8143316 144.389602,12.9446254 C143.97479,13.0749192 143.614564,13.1400651 143.308913,13.1400651 L139.182647,13.1400651 C138.855164,13.1400651 138.582265,13.0260598 138.363943,12.7980456 C138.145621,12.5700314 138.036462,12.3040189 138.036462,12 L138.036462,11.8371336 C138.036462,11.5331147 138.145621,11.2725309 138.363943,11.0553746 C138.582265,10.8382182 138.855164,10.7296417 139.182647,10.7296417 L142.719446,10.7296417 C143.025097,10.7296417 143.292538,10.7024976 143.521776,10.6482085 C143.751014,10.5939194 143.865631,10.5233446 143.865631,10.4364821 C143.865631,10.3496195 143.980249,10.2790448 144.209487,10.2247557 C144.438725,10.1704666 144.706165,10.1433225 145.011816,10.1433225 L145.732275,10.1433225 C146.059759,10.1433225 146.332657,10.1976107 146.550979,10.3061889 C146.769301,10.4147671 146.87846,10.5559166 146.87846,10.7296417 Z M152.249156,22.9771987 C152.249156,22.6731798 152.161828,22.4125961 151.987171,22.1954397 C151.812513,21.9782834 151.60511,21.8697068 151.364956,21.8697068 C151.124802,21.8697068 150.911941,21.9782834 150.726367,22.1954397 C150.540794,22.4125961 150.448008,22.6731798 150.448008,22.9771987 L150.448008,26.3648208 C150.448008,26.6688397 150.540794,26.9294235 150.726367,27.1465798 C150.911941,27.3637362 151.124802,27.4723127 151.364956,27.4723127 C151.60511,27.4723127 151.812513,27.3637362 151.987171,27.1465798 C152.161828,26.9294235 152.249156,26.6688397 152.249156,26.3648208 L152.249156,22.9771987 Z M152.249156,14.8990228 C152.249156,14.5732883 152.161828,14.3018469 151.987171,14.0846906 C151.812513,13.8675342 151.60511,13.7589577 151.364956,13.7589577 C151.124802,13.7589577 150.911941,13.8675342 150.726367,14.0846906 C150.540794,14.3018469 150.448008,14.5732883 150.448008,14.8990228 L150.448008,17.7003257 C150.448008,18.0043446 150.540794,18.2649283 150.726367,18.4820847 C150.911941,18.699241 151.124802,18.8078176 151.364956,18.8078176 C151.60511,18.8078176 151.812513,18.699241 151.987171,18.4820847 C152.161828,18.2649283 152.249156,18.0043446 152.249156,17.7003257 L152.249156,14.8990228 Z M143.01418,23.0749186 C143.31983,23.0749186 143.581813,22.9880573 143.800135,22.8143322 C144.018457,22.6406072 144.127616,22.4343117 144.127616,22.1954397 C144.127616,21.9565678 144.018457,21.7448435 143.800135,21.5602606 C143.581813,21.3756777 143.31983,21.2833876 143.01418,21.2833876 L141.900743,21.2833876 C141.595092,21.2833876 141.327651,21.3756777 141.098413,21.5602606 C140.869175,21.7448435 140.754558,21.9565678 140.754558,22.1954397 C140.754558,22.4343117 140.869175,22.6406072 141.098413,22.8143322 C141.327651,22.9880573 141.595092,23.0749186 141.900743,23.0749186 L143.01418,23.0749186 Z M141.900743,16.7882736 C141.595092,16.7882736 141.327651,16.8805637 141.098413,17.0651466 C140.869175,17.2497295 140.754558,17.4614537 140.754558,17.7003257 C140.754558,17.9391977 140.869175,18.1454932 141.098413,18.3192182 C141.327651,18.4929433 141.595092,18.5798046 141.900743,18.5798046 L143.01418,18.5798046 C143.31983,18.5798046 143.581813,18.4929433 143.800135,18.3192182 C144.018457,18.1454932 144.127616,17.9391977 144.127616,17.7003257 C144.127616,17.4614537 144.018457,17.2497295 143.800135,17.0651466 C143.581813,16.8805637 143.31983,16.7882736 143.01418,16.7882736 L141.900743,16.7882736 Z" id="海鹏艺廊"></path>
                <path d="M23.41722,47 C10.4766003,46.9553758 0,36.4511978 0,23.5000714 C0,17.1003486 2.5581594,11.2981179 6.70768571,7.06017446 C3.14185151,18.7958832 5.86028071,28.4264421 14.8629733,35.9518512 C22.2788445,42.1508259 30.8039789,43.4300303 40.4383765,39.7894644 C38.7113907,41.5848288 36.7016786,43.1062639 34.4808675,44.2821423 C23.1948053,45.5795755 14.7756748,42.2329486 9.22347602,34.2422616 C4.09933191,26.867628 2.64973376,18.913674 4.87468156,10.3803996 C1.01516635,19.6418619 1.50619021,27.7595738 6.34775314,34.7335353 C10.9570317,41.3729059 16.6468539,45.4617275 23.41722,47 Z M7.46731136,6.31843022 C7.85763485,5.95404948 8.2603864,5.60281237 8.67486079,5.26542412 C7.25180405,17.192392 10.6827886,25.7504416 18.9678144,30.9395729 C27.4789869,36.2703459 36.1846658,36.8929606 45.084851,32.8074169 C44.4756391,34.218361 43.7321339,35.5577457 42.8704429,36.8094634 C32.1095414,40.449324 23.21889,39.2758733 16.1984888,33.2891114 C7.72907249,26.0666782 4.81868001,17.0764511 7.46731136,6.31843022 Z M9.71504334,4.46571988 C13.5872943,1.65649423 18.3502002,0 23.5,0 C36.4786916,0 47,10.5213403 47,23.5000714 C47,25.808419 46.6671813,28.0390325 46.0469123,30.1465432 C36.7014577,34.4301443 27.9331374,33.784398 19.7419514,28.2093042 C12.0976976,23.006464 8.75539495,15.0919359 9.71504334,4.46571988 Z M16.3277439,21.0491437 C17.2024375,18.2509348 21.9709288,7.62259923 31.1411043,13.063883 C31.1411043,9.0359197 27.134443,7.42489999 22.9584862,7.73583049 C22.2248721,8.15982663 21.886281,8.44249073 21.519474,8.86648687 C21.274936,8.39538004 20.7952653,8.01849459 20.0804618,7.73583049 C21.397205,7.18934658 22.3941677,6.96321531 23.0713499,7.05743667 C23.5510206,6.74650617 23.6921002,6.06811234 22.4788154,5.95504671 C21.2655307,5.84198107 16.5816872,5.10705443 10.0920245,7.59449845 C10.0920245,7.89600681 10.0920245,8.55555636 10.0920245,9.5731471 L15.8198572,11.156066 L10.7974227,11.3256645 L14.6912203,12.7955178 L11.0795819,13.063883 L13.6190151,14.0957726 L11.7567641,14.4067031 L13.8447425,15.1981626 L12.1235711,15.1981626 C13.647231,18.0059592 15.048622,19.9562863 16.3277439,21.0491437 Z" id="Combined-Shape"></path>
            </g>
        </g>
    </g>
</svg>