<?xml version="1.0" encoding="UTF-8"?>
<svg width="282px" height="57px" viewBox="0 0 282 57" version="1.1" xmlns="http://www.w3.org/2000/svg" xmlns:xlink="http://www.w3.org/1999/xlink">
    <!-- Generator: Sketch 46.2 (44496) - http://www.bohemiancoding.com/sketch -->
    <title>slogan</title>
    <desc>Created with Sketch.</desc>
    <defs></defs>
    <g id="Page-1" stroke="none" stroke-width="1" fill="none" fill-rule="evenodd">
        <g id="Desktop" transform="translate(-501.000000, -350.000000)" fill="#FFFFFF">
            <g id="slogan" transform="translate(501.000000, 350.000000)">
                <path d="M1.875,7.85 L3.85,0.9 L5.625,1.2 L4.2,6.125 L8.575,6.125 C9.075,4.175 9.475,2.15 9.775,0 L11.6,0.225 C11.275,2.325 10.875,4.275 10.425,6.125 L22.125,6.125 L22.125,7.85 L9.95,7.85 C9.65,8.85 9.35,9.8 9,10.7 L19.225,10.7 L19.225,12.25 C18.55,14.4 17.2,16.35 15.15,18.1 C17.175,19.3 19.65,20.4 22.55,21.4 L21.625,23.075 C18.425,21.9 15.775,20.625 13.675,19.25 C11.625,20.7 9.075,22 6.05,23.175 L5.1,21.5 C7.9,20.475 10.225,19.35 12.1,18.125 C10.15,16.625 8.775,15 7.95,13.25 C6.125,17.2 3.775,20.325 0.925,22.65 L0,21 C3.65,17.8 6.325,13.425 8.075,7.85 L1.875,7.85 Z M9.3,12.35 C10.15,14.05 11.575,15.625 13.575,17.075 C15.425,15.625 16.7,14.05 17.4,12.35 L9.3,12.35 Z M15.8,0.2 C17.6,1.575 19.075,2.95 20.275,4.325 L19,5.6 C17.95,4.275 16.475,2.875 14.6,1.375 L15.8,0.2 Z M72.3450001,1.175 L72.3450001,15 L70.5200001,15 L70.5200001,2.9 L63.0200001,2.9 L63.0200001,15 L61.2450001,15 L61.2450001,1.175 L72.3450001,1.175 Z M71.7950001,22.7 L69.1950001,22.7 C67.8200001,22.7 67.1450001,22 67.1450001,20.625 L67.1450001,14.9 L68.9450001,14.9 L68.9450001,20.25 C68.9450001,20.775 69.1950001,21.05 69.7200001,21.05 L71.4700001,21.05 C71.8700001,21.05 72.1700001,20.9 72.3450001,20.65 C72.5450001,20.325 72.6950001,19.375 72.7950001,17.825 L74.4700001,18.35 C74.3200001,20.4 74.0200001,21.675 73.5950001,22.125 C73.1950001,22.5 72.5950001,22.7 71.7950001,22.7 Z M65.8200001,4.675 L67.5450001,4.675 L67.5450001,10.775 C67.4450001,14.125 66.7700001,16.8 65.5200001,18.8 C64.3200001,20.65 62.3200001,22.125 59.5200001,23.175 L58.5450001,21.65 C61.2450001,20.6 63.1450001,19.25 64.2200001,17.6 C65.2200001,15.85 65.7700001,13.575 65.8200001,10.775 L65.8200001,4.675 Z M51.9700001,9.425 L54.8450001,9.425 L54.8450001,3.575 L51.6450001,3.575 L51.6450001,1.85 L59.8450001,1.85 L59.8450001,3.575 L56.6950001,3.575 L56.6950001,9.425 L59.4950001,9.425 L59.4950001,11.175 L56.6950001,11.175 L56.6950001,16.85 C57.7950001,16.475 58.8450001,16.075 59.8950001,15.65 L59.8950001,17.375 C57.4200001,18.375 54.7700001,19.2 51.9450001,19.875 L51.5200001,18.15 C52.6450001,17.95 53.7450001,17.7 54.8450001,17.4 L54.8450001,11.175 L51.9700001,11.175 L51.9700001,9.425 Z M103.89,1.625 L124.79,1.625 L124.79,3.375 L115.24,3.375 L115.24,10.05 L123.59,10.05 L123.59,11.8 L115.24,11.8 L115.24,20.275 L125.29,20.275 L125.29,22.025 L103.34,22.025 L103.34,20.275 L113.39,20.275 L113.39,11.8 L105.09,11.8 L105.09,10.05 L113.39,10.05 L113.39,3.375 L103.89,3.375 L103.89,1.625 Z M119.89,13.05 C121.49,14.975 122.715,16.675 123.565,18.125 L122.115,19.15 C121.215,17.575 120.015,15.825 118.49,13.925 L119.89,13.05 Z M156.735,1.125 L164.36,1.125 L164.36,7.2 L156.735,7.2 L156.735,1.125 Z M162.71,5.675 L162.71,2.675 L158.36,2.675 L158.36,5.675 L162.71,5.675 Z M167.135,1.125 L174.91,1.125 L174.91,7.2 L167.135,7.2 L167.135,1.125 Z M173.285,5.675 L173.285,2.675 L168.785,2.675 L168.785,5.675 L173.285,5.675 Z M154.71,9.7 L163.135,9.7 C163.61,9.05 163.985,8.375 164.285,7.675 L166.01,7.85 C165.76,8.5 165.435,9.1 165.085,9.7 L171.535,9.7 C171.185,9.075 170.81,8.5 170.41,8 L171.935,7.5 C172.46,8.2 172.91,8.925 173.31,9.7 L176.76,9.7 L176.76,11.3 L170.01,11.3 C171.635,12.8 174.06,14 177.285,14.875 L176.56,16.4 C175.935,16.2 175.36,15.975 174.81,15.775 L174.81,23.125 L173.21,23.125 L173.21,22.05 L168.535,22.05 L168.535,23.125 L166.935,23.125 L166.935,15.25 L173.61,15.25 C171.21,14.15 169.36,12.825 168.11,11.3 L163.885,11.3 C162.485,12.9 160.61,14.2 158.26,15.25 L164.535,15.25 L164.535,23.125 L162.935,23.125 L162.935,22.05 L158.66,22.05 L158.66,23.125 L157.085,23.125 L157.085,15.75 C156.41,16 155.735,16.225 155.035,16.45 L154.21,14.975 C157.41,14.025 159.86,12.8 161.61,11.3 L154.71,11.3 L154.71,9.7 Z M158.66,20.5 L162.935,20.5 L162.935,16.75 L158.66,16.75 L158.66,20.5 Z M168.535,20.5 L173.21,20.5 L173.21,16.75 L168.535,16.75 L168.535,20.5 Z M216.105,0.075 L214.055,0.425 C214.955,1.675 215.73,3.05 216.405,4.55 L207.805,4.55 L207.805,6.3 L223.955,6.3 C221.205,10.95 217.23,14.625 212.03,17.35 L211.78,17.2 C211.555,17.05 211.28,16.975 210.93,16.975 C209.48,16.975 207.955,18.65 206.305,22.025 L207.755,23.025 C209.155,20.225 210.205,18.85 210.88,18.85 C211.23,18.85 211.655,19.125 212.13,19.675 C213.555,21.475 215.605,22.375 218.255,22.425 C219.205,22.475 220.78,22.5 222.98,22.5 L227.78,22.5 L228.205,20.7 C225.855,20.775 224.03,20.825 222.705,20.825 C220.555,20.825 218.88,20.8 217.73,20.75 C216.005,20.6 214.605,19.925 213.53,18.725 L213.355,18.55 C218.98,15.65 223.255,11.425 226.155,5.9 L226.155,4.55 L218.355,4.55 C217.63,2.875 216.88,1.375 216.105,0.075 Z M258.475,2.7 L258.475,4.35 L267.65,4.35 L267.65,6.725 L259.875,6.725 L259.875,8.325 L267.65,8.325 L267.65,10.75 L257.65,10.75 L257.65,12.4 L279.5,12.4 L279.5,10.75 L269.5,10.75 L269.5,8.325 L277.35,8.325 L277.35,6.725 L269.5,6.725 L269.5,4.35 L278.675,4.35 L278.675,2.7 L273.125,2.7 C273.55,1.925 273.875,1.125 274.125,0.275 L272.2,0.025 C272,0.925 271.675,1.825 271.25,2.7 L266.025,2.7 C265.65,1.725 265.275,0.85 264.875,0.075 L262.975,0.375 C263.425,1.075 263.825,1.85 264.175,2.7 L258.475,2.7 Z M267.825,13.05 C267.725,13.75 267.55,14.425 267.325,15.075 L258.225,15.075 L258.225,16.775 L266.5,16.775 C266.075,17.45 265.55,18.05 264.9,18.575 C263.3,19.85 260.7,20.825 257.075,21.5 L257.825,23.25 C261.9,22.4 264.75,21.25 266.375,19.775 C267.225,18.975 267.95,18.075 268.5,17.025 C270.15,20.025 273.725,22.075 279.225,23.175 L280.175,21.475 C275.25,20.65 271.925,19.075 270.2,16.775 L278.95,16.775 L278.95,15.075 L269.275,15.075 C269.45,14.525 269.575,13.9 269.675,13.25 L267.825,13.05 Z" id="发现玉器之美"></path>
                <path d="M1.26,56 L1.26,45.5 L4.29,45.5 C7.935,45.5 9.9,47.465 9.9,50.69 C9.9,54.005 8.07,56 4.29,56 L1.26,56 Z M2.535,54.92 L4.365,54.92 C7.2,54.92 8.61,53.315 8.61,50.69 C8.61,48.17 7.11,46.58 4.365,46.58 L2.535,46.58 L2.535,54.92 Z M13.555,56 L14.83,56 L14.83,45.5 L13.555,45.5 L13.555,56 Z M18.455,55.1 C19.355,55.685 20.78,56.18 22.325,56.18 C24.875,56.18 26.105,54.905 26.105,53.255 C26.105,49.145 19.97,51.05 19.97,48.185 C19.97,47.21 20.825,46.46 22.28,46.46 C23.405,46.46 24.41,46.76 25.22,47.165 L25.715,46.115 C24.785,45.665 23.63,45.32 22.235,45.32 C19.97,45.32 18.635,46.595 18.635,48.2 C18.635,52.25 24.785,50.405 24.785,53.255 C24.785,54.29 23.99,55.04 22.325,55.04 C21.065,55.04 19.91,54.62 19.085,54.08 L18.455,55.1 Z M29.2200001,50.645 C29.2200001,53.93 31.3350001,56.18 34.4850001,56.18 C35.9550001,56.18 37.2450001,55.715 38.2350001,54.77 L37.4400001,53.93 C36.6750001,54.665 35.6700001,55.07 34.5300001,55.07 C32.0850001,55.07 30.5100001,53.3 30.5100001,50.645 C30.5100001,48.11 32.1300001,46.43 34.5300001,46.43 C35.5650001,46.43 36.4950001,46.775 37.3050001,47.39 L37.9950001,46.46 C37.0200001,45.71 35.8050001,45.32 34.5150001,45.32 C31.3800001,45.32 29.2200001,47.495 29.2200001,50.645 Z M41.1100001,50.675 C41.1100001,47.435 43.4050001,45.32 46.3600001,45.32 C49.3000001,45.32 51.6100001,47.435 51.6100001,50.675 C51.6100001,54.05 49.3300001,56.18 46.3600001,56.18 C43.3900001,56.18 41.1100001,54.05 41.1100001,50.675 Z M42.4150001,50.675 C42.4150001,53.42 44.1400001,55.07 46.3600001,55.07 C48.5650001,55.07 50.3050001,53.42 50.3050001,50.675 C50.3050001,48.08 48.5650001,46.43 46.3600001,46.43 C44.1550001,46.43 42.4150001,48.08 42.4150001,50.675 Z M58.0550001,56 L59.5550001,56 L63.4850001,45.5 L62.0750001,45.5 L58.8200001,54.575 L58.7900001,54.575 L55.5650001,45.5 L54.1550001,45.5 L58.0550001,56 Z M66.7800001,56 L74.0700001,56 L74.0700001,54.86 L68.0550001,54.86 L68.0550001,51.185 L73.3950001,51.185 L73.3950001,50.12 L68.0550001,50.12 L68.0550001,46.64 L73.9800001,46.64 L73.9800001,45.5 L66.7800001,45.5 L66.7800001,56 Z M77.9050002,56 L77.9050002,45.5 L82.3000002,45.5 C84.9700002,45.5 85.9150002,47.075 85.9150002,48.635 C85.9150002,49.895 85.2250002,51.125 83.6950002,51.59 L85.9300002,56 L84.5200002,56 L82.5100002,51.77 L79.1800002,51.77 L79.1800002,56 L77.9050002,56 Z M79.1800002,50.75 L82.2700002,50.75 C83.9650002,50.75 84.6250002,49.7 84.6250002,48.65 C84.6250002,47.57 83.9800002,46.58 82.2850002,46.58 L79.1800002,46.58 L79.1800002,50.75 Z M98.0850002,56 L99.3600002,56 L99.3600002,46.64 L103.17,46.64 L103.17,45.5 L94.2900002,45.5 L94.2900002,46.64 L98.0850002,46.64 L98.0850002,56 Z M106.465,56 L107.74,56 L107.74,51.215 L113.2,51.215 L113.2,56 L114.475,56 L114.475,45.5 L113.2,45.5 L113.2,50.09 L107.74,50.09 L107.74,45.5 L106.465,45.5 L106.465,56 Z M118.595,56 L125.885,56 L125.885,54.86 L119.87,54.86 L119.87,51.185 L125.21,51.185 L125.21,50.12 L119.87,50.12 L119.87,46.64 L125.795,46.64 L125.795,45.5 L118.595,45.5 L118.595,56 Z M135.07,56 L135.07,45.5 L139.195,45.5 C141.565,45.5 142.66,46.715 142.66,48.23 C142.66,49.43 141.955,50.21 140.95,50.57 C142.21,50.9 143.08,51.725 143.08,53.06 C143.08,54.935 141.715,56 139.51,56 L135.07,56 Z M136.345,54.92 L139.495,54.92 C140.935,54.92 141.775,54.26 141.775,52.985 C141.775,51.815 140.83,51.17 139.495,51.17 L136.345,51.17 L136.345,54.92 Z M136.345,50.15 L139.135,50.15 C140.665,50.15 141.355,49.325 141.355,48.32 C141.355,47.36 140.665,46.58 139.135,46.58 L136.345,46.58 L136.345,50.15 Z M146.78,56 L154.07,56 L154.07,54.86 L148.055,54.86 L148.055,51.185 L153.395,51.185 L153.395,50.12 L148.055,50.12 L148.055,46.64 L153.98,46.64 L153.98,45.5 L146.78,45.5 L146.78,56 Z M157.095,56 L161.07,45.5 L162.6,45.5 L166.56,56 L165.18,56 L164.235,53.42 L159.42,53.42 L158.49,56 L157.095,56 Z M161.805,46.805 L159.795,52.385 L163.86,52.385 L161.835,46.805 L161.805,46.805 Z M169.435,52.115 C169.435,54.815 171.25,56.18 173.59,56.18 C175.93,56.18 177.745,54.815 177.745,52.115 L177.745,45.5 L176.47,45.5 L176.47,52.115 C176.47,54.035 175.195,55.07 173.59,55.07 C171.985,55.07 170.725,54.035 170.725,52.115 L170.725,45.5 L169.435,45.5 L169.435,52.115 Z M184.805,56 L186.08,56 L186.08,46.64 L189.89,46.64 L189.89,45.5 L181.01,45.5 L181.01,46.64 L184.805,46.64 L184.805,56 Z M196.155,56 L197.43,56 L197.43,51.725 L201.39,45.5 L199.89,45.5 L196.815,50.495 L196.785,50.495 L193.71,45.5 L192.195,45.5 L196.155,51.725 L196.155,56 Z M209.585,50.675 C209.585,47.435 211.88,45.32 214.835,45.32 C217.775,45.32 220.085,47.435 220.085,50.675 C220.085,54.05 217.805,56.18 214.835,56.18 C211.865,56.18 209.585,54.05 209.585,50.675 Z M210.89,50.675 C210.89,53.42 212.615,55.07 214.835,55.07 C217.04,55.07 218.78,53.42 218.78,50.675 C218.78,48.08 217.04,46.43 214.835,46.43 C212.63,46.43 210.89,48.08 210.89,50.675 Z M223.755001,56 L225.030001,56 L225.030001,51.305 L230.130001,51.305 L230.130001,50.21 L225.030001,50.21 L225.030001,46.64 L230.835001,46.64 L230.835001,45.5 L223.755001,45.5 L223.755001,56 Z M239.435001,54.005 C239.990001,55.235 241.070001,56.18 242.720001,56.18 C244.925001,56.18 246.065001,54.8 246.065001,52.55 L246.065001,45.5 L244.790001,45.5 L244.790001,52.535 C244.790001,54.05 244.115001,55.04 242.660001,55.04 C241.520001,55.04 240.845001,54.32 240.470001,53.42 L239.435001,54.005 Z M248.925001,56 L252.900001,45.5 L254.430001,45.5 L258.390001,56 L257.010001,56 L256.065001,53.42 L251.250001,53.42 L250.320001,56 L248.925001,56 Z M253.635001,46.805 L251.625001,52.385 L255.690001,52.385 L253.665001,46.805 L253.635001,46.805 Z M261.715001,56 L261.715001,45.5 L264.745001,45.5 C268.390001,45.5 270.355001,47.465 270.355001,50.69 C270.355001,54.005 268.525001,56 264.745001,56 L261.715001,56 Z M262.990001,54.92 L264.820001,54.92 C267.655001,54.92 269.065001,53.315 269.065001,50.69 C269.065001,48.17 267.565001,46.58 264.820001,46.58 L262.990001,46.58 L262.990001,54.92 Z M274.010001,56 L281.300001,56 L281.300001,54.86 L275.285001,54.86 L275.285001,51.185 L280.625001,51.185 L280.625001,50.12 L275.285001,50.12 L275.285001,46.64 L281.210001,46.64 L281.210001,45.5 L274.010001,45.5 L274.010001,56 Z" id="Discover-the-beauty"></path>
            </g>
        </g>
    </g>
</svg>