<?xml version="1.0" encoding="UTF-8"?>
<svg width="170px" height="19px" viewBox="0 0 170 19" version="1.1" xmlns="http://www.w3.org/2000/svg" xmlns:xlink="http://www.w3.org/1999/xlink">
    <!-- Generator: Sketch 46.2 (44496) - http://www.bohemiancoding.com/sketch -->
    <title>weichat</title>
    <desc>Created with Sketch.</desc>
    <defs></defs>
    <g id="Page-1" stroke="none" stroke-width="1" fill="none" fill-rule="evenodd">
        <g id="Desktop" transform="translate(-1045.000000, -59.000000)" fill="#FFFFFF">
            <g id="weichat" transform="translate(1045.000000, 57.000000)">
                <path d="M14.4293305,11.485795 C14.0095579,11.485795 13.5895326,11.864463 13.5895326,12.331654 C13.5895326,12.7102482 14.0095579,13.0910543 14.4293305,13.0910543 C15.0599495,13.0910543 15.5099368,12.7102482 15.5099368,12.331654 C15.5099874,11.864463 15.0599495,11.485795 14.4293305,11.485795 M11.6696084,7.54512165 C12.32976,7.54512165 12.7496337,7.13674121 12.7496337,6.52351929 C12.7496337,5.88132219 12.3298105,5.50265421 11.6696084,5.50265421 C11.0398484,5.50265421 10.4395453,5.88132219 10.4395453,6.52351929 C10.43952,7.13671664 11.0398484,7.54512165 11.6696084,7.54512165 M8.51962105,16.0380929 C7.40948211,16.0380929 6.59944421,15.8630622 5.54943158,15.5709265 L2.51957053,17.0589334 L3.39008842,14.5500369 C1.25969684,13.0910543 0,11.2512165 0,9.00434996 C0,5.03548783 3.83969684,2 8.51962105,2 C12.6598484,2 16.3497853,4.39333989 17.0695579,7.77874171 C16.7698358,7.72015237 16.4999747,7.6913738 16.2598484,7.6913738 C12.1796211,7.6913738 9.03001263,10.6687392 9.03001263,14.2577292 C9.03001263,14.8711477 9.12,15.4246252 9.26978526,16.0091423 C9.03001263,16.0380929 8.75974737,16.0380929 8.51962105,16.0380929 M21.0300126,18.8987466 L21.6295326,21 L19.3495832,19.744581 C18.4795705,19.9193905 17.6396968,20.1829688 16.7698358,20.1829688 C12.7496337,20.1829688 9.56943158,17.4971 9.56943158,14.1695011 C9.56943158,10.8438191 12.7495832,8.15854018 16.7698358,8.15854018 C20.5797221,8.15854018 24,10.8438191 24,14.1695011 C24,16.0380929 22.7101137,17.7009093 21.0300126,18.8987466 M5.72998737,5.50265421 C5.1,5.50265421 4.43989895,5.88132219 4.43989895,6.52351929 C4.43989895,7.13671664 5.10002526,7.54512165 5.72998737,7.54512165 C6.32970947,7.54512165 6.80998737,7.13674121 6.80998737,6.52351929 C6.80998737,5.88132219 6.32953263,5.50265421 5.72998737,5.50265421 M19.1396968,11.485795 C18.6894821,11.485795 18.2998232,11.864463 18.2998232,12.331654 C18.2998232,12.7102482 18.6894821,13.0910543 19.1396968,13.0910543 C19.7398989,13.0910543 20.1901137,12.7102482 20.1901137,12.331654 C20.1901137,11.864463 19.7398989,11.485795 19.1396968,11.485795" id="Shape" fill-rule="nonzero"></path>
                <path d="M48.25,7.12 C48.16,7.495 48.085,7.84 47.995,8.17 C48.25,9.73 48.58,11.11 48.985,12.28 C49.435,10.795 49.675,9.07 49.72,7.12 L48.25,7.12 Z M48.55,13.48 C48.145,12.385 47.8,11.125 47.515,9.715 C47.245,10.435 46.96,11.065 46.66,11.635 L46.06,10.885 C46.93,9.1 47.53,6.7 47.845,3.685 L48.79,3.85 C48.685,4.66 48.565,5.41 48.445,6.115 L51.25,6.115 L51.25,7.12 L50.65,7.12 C50.59,9.67 50.215,11.83 49.51,13.615 C50.065,14.845 50.725,15.805 51.49,16.495 L50.875,17.41 C50.17,16.72 49.555,15.805 49.045,14.665 C48.475,15.775 47.755,16.705 46.915,17.455 L46.345,16.555 C47.275,15.76 48.01,14.74 48.55,13.48 Z M44.77,16.585 L44.32,15.685 C44.47,15.595 44.575,15.445 44.605,15.265 L44.605,12.535 L43.015,12.535 L43.015,13.21 C42.985,15.085 42.505,16.48 41.59,17.41 L40.795,16.72 C41.59,15.91 41.995,14.74 42.01,13.21 L42.01,11.56 L45.565,11.56 L45.565,14.92 C45.985,14.545 46.42,14.14 46.87,13.69 L47.095,14.605 C46.33,15.415 45.55,16.075 44.77,16.585 Z M43.45,3.745 L44.365,3.745 L44.365,7.15 L45.415,7.15 L45.415,4.555 L46.3,4.555 L46.3,8.08 L41.5,8.08 L41.5,4.555 L42.4,4.555 L42.4,7.15 L43.45,7.15 L43.45,3.745 Z M40.015,3.79 L40.945,4.225 C40.3,5.83 39.265,7.255 37.84,8.5 L37.51,7.45 C38.65,6.385 39.49,5.17 40.015,3.79 Z M40.105,7.81 L41.005,8.245 C40.795,8.815 40.54,9.37 40.24,9.88 L40.24,17.53 L39.235,17.53 L39.235,11.335 C38.83,11.83 38.38,12.295 37.885,12.745 L37.57,11.71 C38.74,10.57 39.58,9.28 40.105,7.81 Z M41.47,9.415 L46.15,9.415 L46.15,10.375 L41.47,10.375 L41.47,9.415 Z M54.31,9.1 C53.86,9.76 53.365,10.405 52.825,11.005 L52.48,9.85 C53.95,8.035 55.015,5.95 55.69,3.61 L56.695,4.075 C56.335,5.23 55.9,6.31 55.375,7.33 L55.375,17.53 L54.31,17.53 L54.31,9.1 Z M56.635,5.725 L61.255,5.725 C61.03,5.125 60.775,4.555 60.475,3.985 L61.51,3.7 C61.825,4.36 62.065,4.96 62.245,5.515 L61.675,5.725 L66.4,5.725 L66.4,6.745 L56.635,6.745 L56.635,5.725 Z M58.015,7.96 L58.015,8.935 L65.11,8.935 L65.11,7.96 L58.015,7.96 Z M58.015,10.075 L58.015,11.065 L65.11,11.065 L65.11,10.075 L58.015,10.075 Z M65.38,12.295 L65.38,17.5 L64.33,17.5 L64.33,16.69 L58.78,16.69 L58.78,17.5 L57.73,17.5 L57.73,12.295 L65.38,12.295 Z M58.78,15.67 L64.33,15.67 L64.33,13.3 L58.78,13.3 L58.78,15.67 Z M70.105,4.285 L78.895,4.285 L78.895,8.335 L70.105,8.335 L70.105,4.285 Z M77.785,7.36 L77.785,5.26 L71.215,5.26 L71.215,7.36 L77.785,7.36 Z M71.185,10.66 L70.48,13.39 L78.01,13.39 C77.92,14.74 77.785,15.58 77.605,15.91 C77.41,16.24 76.915,16.405 76.105,16.405 C75.49,16.405 74.785,16.375 73.99,16.315 L74.35,17.305 C74.935,17.365 75.595,17.395 76.345,17.395 C77.365,17.395 78.055,17.17 78.415,16.72 C78.775,16.255 79.015,14.815 79.105,12.415 L71.77,12.415 L72.28,10.66 L81.235,10.66 L81.235,9.625 L67.75,9.625 L67.75,10.66 L71.185,10.66 Z M85.75,6.865 C85.48,6.865 85.27,6.955 85.09,7.15 C84.91,7.315 84.835,7.525 84.835,7.795 C84.835,8.05 84.91,8.26 85.09,8.44 C85.27,8.62 85.48,8.71 85.75,8.71 C86.005,8.71 86.23,8.62 86.41,8.44 C86.59,8.26 86.68,8.05 86.68,7.795 C86.68,7.525 86.59,7.315 86.41,7.15 C86.23,6.955 86.005,6.865 85.75,6.865 Z M85.75,12.355 C85.48,12.355 85.27,12.445 85.09,12.64 C84.91,12.805 84.835,13.015 84.835,13.285 C84.835,13.54 84.91,13.75 85.09,13.93 C85.27,14.11 85.48,14.2 85.75,14.2 C86.005,14.2 86.23,14.11 86.41,13.93 C86.59,13.75 86.68,13.54 86.68,13.285 C86.68,13.015 86.59,12.805 86.41,12.64 C86.23,12.445 86.005,12.355 85.75,12.355 Z M97.075,5.29 L100.15,16 L101.515,16 L103.96,7.075 L104.005,7.075 L106.435,16 L107.8,16 L110.875,5.29 L109.495,5.29 L107.14,14.275 L107.08,14.275 L104.65,5.29 L103.315,5.29 L100.87,14.275 L100.81,14.275 L98.455,5.29 L97.075,5.29 Z M115.03,5.29 L115.03,16 L116.26,16 L116.26,11.005 L122.455,11.005 L122.455,16 L123.685,16 L123.685,5.29 L122.455,5.29 L122.455,9.94 L116.26,9.94 L116.26,5.29 L115.03,5.29 Z M128.83,5.29 L133.21,5.29 C135.67,5.29 136.9,6.34 136.9,8.44 C136.9,10.555 135.655,11.62 133.195,11.62 L130.06,11.62 L130.06,16 L128.83,16 L128.83,5.29 Z M130.06,6.355 L130.06,10.555 L133.135,10.555 C134.005,10.555 134.635,10.375 135.055,10.03 C135.46,9.685 135.67,9.16 135.67,8.44 C135.67,7.72 135.46,7.195 135.04,6.88 C134.62,6.52 133.99,6.355 133.135,6.355 L130.06,6.355 Z M143.83,5.29 C143.47,5.695 143.05,6.055 142.54,6.385 C142.03,6.685 141.52,6.895 141.04,7.03 L141.04,8.26 C142.045,7.96 142.885,7.48 143.56,6.79 L143.56,16 L144.79,16 L144.79,5.29 L143.83,5.29 Z M153.895,5.08 C155.17,5.08 156.13,5.635 156.79,6.775 C157.36,7.735 157.645,9.025 157.645,10.645 C157.645,12.265 157.36,13.555 156.79,14.515 C156.13,15.64 155.17,16.21 153.895,16.21 C152.605,16.21 151.645,15.64 151,14.515 C150.43,13.555 150.145,12.265 150.145,10.645 C150.145,9.025 150.43,7.735 151,6.775 C151.645,5.635 152.605,5.08 153.895,5.08 Z M153.895,6.13 C152.935,6.13 152.245,6.64 151.825,7.675 C151.525,8.395 151.375,9.385 151.375,10.645 C151.375,11.89 151.525,12.88 151.825,13.615 C152.245,14.635 152.935,15.16 153.895,15.16 C154.855,15.16 155.545,14.635 155.965,13.615 C156.265,12.88 156.43,11.89 156.43,10.645 C156.43,9.385 156.265,8.395 155.965,7.675 C155.545,6.64 154.855,6.13 153.895,6.13 Z M165.895,5.08 C167.005,5.08 167.89,5.365 168.52,5.95 C169.09,6.475 169.39,7.135 169.39,7.915 C169.39,8.485 169.255,8.965 168.985,9.355 C168.685,9.775 168.265,10.09 167.71,10.285 L167.71,10.315 C168.265,10.45 168.745,10.765 169.135,11.245 C169.555,11.755 169.765,12.355 169.765,13.045 C169.765,13.99 169.435,14.755 168.775,15.325 C168.085,15.91 167.125,16.21 165.895,16.21 C164.65,16.21 163.69,15.91 163.015,15.325 C162.355,14.755 162.025,13.99 162.025,13.045 C162.025,12.355 162.235,11.755 162.655,11.245 C163.045,10.765 163.51,10.45 164.08,10.315 L164.08,10.285 C163.51,10.09 163.09,9.775 162.805,9.355 C162.535,8.965 162.4,8.485 162.4,7.915 C162.4,7.135 162.685,6.475 163.27,5.95 C163.9,5.365 164.77,5.08 165.895,5.08 Z M165.895,6.085 C165.13,6.085 164.53,6.28 164.11,6.67 C163.735,7 163.555,7.435 163.555,7.96 C163.555,8.5 163.72,8.95 164.05,9.28 C164.44,9.67 165.055,9.88 165.895,9.88 C166.72,9.88 167.335,9.67 167.74,9.28 C168.07,8.95 168.235,8.5 168.235,7.96 C168.235,7.435 168.04,7 167.68,6.67 C167.245,6.28 166.645,6.085 165.895,6.085 Z M165.895,10.84 C165.025,10.84 164.365,11.05 163.9,11.485 C163.45,11.875 163.24,12.4 163.24,13.045 C163.24,13.675 163.45,14.2 163.9,14.59 C164.35,14.995 165.025,15.205 165.895,15.205 C166.765,15.205 167.425,14.995 167.905,14.575 C168.325,14.185 168.55,13.675 168.55,13.045 C168.55,12.4 168.325,11.875 167.905,11.485 C167.425,11.05 166.75,10.84 165.895,10.84 Z" id="微信号：WHP108"></path>
            </g>
        </g>
    </g>
</svg>