<?xml version="1.0" encoding="UTF-8"?>
<svg width="113px" height="22px" viewBox="0 0 113 22" version="1.1" xmlns="http://www.w3.org/2000/svg" xmlns:xlink="http://www.w3.org/1999/xlink">
    <!-- Generator: Sketch 43.2 (39069) - http://www.bohemiancoding.com/sketch -->
    <title>智护肤APP</title>
    <desc>Created with Sketch.</desc>
    <defs></defs>
    <g id="Page-1" stroke="none" stroke-width="1" fill="none" fill-rule="evenodd">
        <g id="iPhone-7" transform="translate(-131.000000, -178.000000)" fill="#FFFFFF">
            <g id="Group-4" transform="translate(-183.000000, -2.000000)">
                <path d="M317.153921,183.038 C316.601921,184.004 315.957921,184.832 315.267921,185.499 L314.784921,184.924 C315.980921,183.797 316.900921,182.233 317.567921,180.232 L318.303921,180.393 C318.073921,181.083 317.797921,181.727 317.521921,182.302 L324.605921,182.302 L324.605921,183.038 L320.856921,183.038 C320.810921,184.142 320.718921,185.131 320.557921,186.028 L325.226921,186.028 L325.226921,186.787 L320.396921,186.787 C320.304921,187.178 320.189921,187.546 320.074921,187.891 C321.891921,188.834 323.409921,189.777 324.651921,190.743 L324.076921,191.295 C322.972921,190.398 321.546921,189.455 319.798921,188.489 C318.924921,190.283 317.268921,191.732 314.830921,192.859 L314.324921,192.192 C316.716921,191.134 318.326921,189.731 319.154921,188.029 C319.315921,187.615 319.453921,187.201 319.591921,186.787 L314.462921,186.787 L314.462921,186.028 L319.775921,186.028 C319.959921,185.108 320.051921,184.096 320.074921,183.038 L317.153921,183.038 Z M326.583921,181.957 L333.414921,181.957 L333.414921,189.938 L326.583921,189.938 L326.583921,181.957 Z M332.632921,189.179 L332.632921,182.693 L327.342921,182.693 L327.342921,189.179 L332.632921,189.179 Z M331.804921,192.169 L331.804921,201.231 L330.999921,201.231 L330.999921,199.966 L318.740921,199.966 L318.740921,201.231 L317.958921,201.231 L317.958921,192.169 L331.804921,192.169 Z M318.740921,199.23 L330.999921,199.23 L330.999921,196.493 L318.740921,196.493 L318.740921,199.23 Z M318.740921,195.78 L330.999921,195.78 L330.999921,192.928 L318.740921,192.928 L318.740921,195.78 Z M340.314114,200.978 L338.014114,200.978 L337.853114,200.219 C338.612114,200.242 339.348114,200.265 340.038114,200.265 C340.751114,200.265 341.119114,199.874 341.119114,199.115 L341.119114,192.56 C340.038114,192.951 338.934114,193.296 337.830114,193.595 L337.623114,192.836 C338.819114,192.537 339.992114,192.192 341.119114,191.801 L341.119114,185.798 L337.876114,185.798 L337.876114,185.039 L341.119114,185.039 L341.119114,180.393 L341.901114,180.393 L341.901114,185.039 L344.730114,185.039 L344.730114,185.798 L341.901114,185.798 L341.901114,191.502 C342.913114,191.088 343.879114,190.651 344.845114,190.168 L344.845114,190.973 C343.879114,191.433 342.913114,191.87 341.901114,192.261 L341.901114,199.322 C341.901114,200.426 341.372114,200.978 340.314114,200.978 Z M356.828114,184.188 L347.191114,184.188 L347.191114,189.386 L356.828114,189.386 L356.828114,184.188 Z M347.191114,190.168 L347.191114,190.352 C347.168114,194.538 346.202114,198.149 344.293114,201.162 L343.695114,200.633 C345.489114,197.988 346.386114,194.561 346.409114,190.352 L346.409114,183.406 L351.745114,183.406 C351.400114,182.302 351.009114,181.29 350.595114,180.416 L351.423114,180.278 C351.814114,181.198 352.182114,182.233 352.550114,183.406 L357.587114,183.406 L357.587114,190.168 L347.191114,190.168 Z M363.497307,187.799 L363.497307,192.399 L367.729307,192.399 L367.729307,187.799 L363.497307,187.799 Z M367.729307,187.063 L367.729307,182.164 L363.497307,182.164 L363.497307,187.063 L367.729307,187.063 Z M363.474307,193.158 C363.359307,196.424 362.807307,199.115 361.795307,201.208 L361.220307,200.656 C362.209307,198.448 362.715307,195.642 362.761307,192.215 L362.761307,181.428 L368.488307,181.428 L368.488307,199.483 C368.488307,200.541 368.005307,201.093 367.039307,201.093 L365.084307,201.093 L364.900307,200.357 C365.590307,200.38 366.211307,200.403 366.809307,200.403 C367.407307,200.403 367.729307,199.989 367.729307,199.207 L367.729307,193.158 L363.474307,193.158 Z M370.397307,184.395 L370.397307,185.177 L375.158307,185.177 L375.158307,187.638 C375.158307,188.65 375.066307,189.616 374.928307,190.582 L369.776307,190.582 L369.776307,191.364 L374.790307,191.364 C374.054307,194.906 372.237307,197.988 369.316307,200.633 L369.937307,201.139 C372.743307,198.54 374.560307,195.504 375.388307,192.054 C376.584307,195.78 378.585307,198.839 381.368307,201.231 L381.874307,200.61 C379.091307,198.356 377.113307,195.274 375.917307,191.364 L381.529307,191.364 L381.529307,190.582 L375.687307,190.582 C375.825307,189.662 375.894307,188.673 375.917307,187.638 L375.917307,185.177 L380.586307,185.177 L380.586307,184.395 L375.917307,184.395 L375.917307,180.416 L375.158307,180.416 L375.158307,184.395 L370.397307,184.395 Z M390.0615,182.578 L391.1655,182.578 L397.8355,199 L396.8465,199 L394.7765,193.802 L386.4735,193.802 L384.3805,199 L383.3685,199 L390.0615,182.578 Z M386.7955,192.974 L394.4545,192.974 L390.6595,183.544 L390.5905,183.544 L386.7955,192.974 Z M399.973693,182.578 L406.597693,182.578 C410.093693,182.578 411.864693,184.096 411.864693,187.155 C411.864693,190.237 410.093693,191.778 406.574693,191.778 L400.870693,191.778 L400.870693,199 L399.973693,199 L399.973693,182.578 Z M400.870693,183.406 L400.870693,190.95 L406.551693,190.95 C408.069693,190.95 409.173693,190.605 409.909693,189.961 C410.599693,189.34 410.967693,188.397 410.967693,187.155 C410.967693,185.913 410.599693,184.97 409.909693,184.372 C409.173693,183.728 408.046693,183.406 406.551693,183.406 L400.870693,183.406 Z M414.807886,182.578 L421.431886,182.578 C424.927886,182.578 426.698886,184.096 426.698886,187.155 C426.698886,190.237 424.927886,191.778 421.408886,191.778 L415.704886,191.778 L415.704886,199 L414.807886,199 L414.807886,182.578 Z M415.704886,183.406 L415.704886,190.95 L421.385886,190.95 C422.903886,190.95 424.007886,190.605 424.743886,189.961 C425.433886,189.34 425.801886,188.397 425.801886,187.155 C425.801886,185.913 425.433886,184.97 424.743886,184.372 C424.007886,183.728 422.880886,183.406 421.385886,183.406 L415.704886,183.406 Z" id="智护肤APP"></path>
            </g>
        </g>
    </g>
</svg>