<?xml version="1.0" encoding="UTF-8"?>
<svg width="355px" height="99px" viewBox="0 0 355 99" version="1.1" xmlns="http://www.w3.org/2000/svg" xmlns:xlink="http://www.w3.org/1999/xlink">
    <!-- Generator: Sketch 48.2 (47327) - http://www.bohemiancoding.com/sketch -->
    <title>BT1</title>
    <desc>Created with Sketch.</desc>
    <defs>
        <rect id="path-1" x="0" y="0" width="327" height="71" rx="8"></rect>
        <filter x="-7.2%" y="-26.1%" width="114.4%" height="166.2%" filterUnits="objectBoundingBox" id="filter-2">
            <feOffset dx="0" dy="5" in="SourceAlpha" result="shadowOffsetOuter1"></feOffset>
            <feGaussianBlur stdDeviation="7" in="shadowOffsetOuter1" result="shadowBlurOuter1"></feGaussianBlur>
            <feComposite in="shadowBlurOuter1" in2="SourceAlpha" operator="out" result="shadowBlurOuter1"></feComposite>
            <feColorMatrix values="0 0 0 0 0   0 0 0 0 0   0 0 0 0 0  0 0 0 0.097118433 0" type="matrix" in="shadowBlurOuter1"></feColorMatrix>
        </filter>
    </defs>
    <g id="iPhone-8" stroke="none" stroke-width="1" fill="none" fill-rule="evenodd" transform="translate(-14.000000, -171.000000)">
        <g id="BT1" transform="translate(28.000000, 180.000000)">
            <g id="Rectangle-2">
                <use fill="black" fill-opacity="1" filter="url(#filter-2)" xlink:href="#path-1"></use>
                <use fill-opacity="0.970000029" fill="#FFFFFF" fill-rule="evenodd" xlink:href="#path-1"></use>
                <rect stroke="#FFFFFF" stroke-width="1" x="0.5" y="0.5" width="326" height="70" rx="8"></rect>
            </g>
            <path d="M94.448,34.424 L94.482,34.424 L105.94,23.612 L109.442,23.612 L97.304,34.526 L110.122,47.684 L106.518,47.684 L94.482,34.866 L94.448,34.866 L94.448,47.684 L92,47.684 L92,23.612 L94.448,23.612 L94.448,34.424 Z M135.8,43.808 C135.391998,44.4200031 134.899003,44.9979973 134.321,45.542 C133.742997,46.0860027 133.074337,46.561998 132.315,46.97 C131.555663,47.378002 130.717005,47.7009988 129.799,47.939 C128.880995,48.1770012 127.878005,48.296 126.79,48.296 C124.976658,48.296 123.299341,47.9786698 121.758,47.344 C120.216659,46.7093302 118.890672,45.8310056 117.78,44.709 C116.669328,43.5869944 115.802336,42.255341 115.179,40.714 C114.555664,39.172659 114.244,37.4840092 114.244,35.648 C114.244,33.8119908 114.56133,32.123341 115.196,30.582 C115.83067,29.040659 116.708994,27.7090056 117.831,26.587 C118.953006,25.4649944 120.278992,24.5866698 121.809,23.952 C123.339008,23.3173302 124.999324,23 126.79,23 C127.674004,23 128.540996,23.0906658 129.391,23.272 C130.241004,23.4533342 131.039996,23.7083317 131.788,24.037 C132.536004,24.3656683 133.215997,24.762331 133.828,25.227 C134.440003,25.691669 134.949998,26.2186637 135.358,26.808 L133.318,28.304 C133.068665,27.9186647 132.734335,27.5333353 132.315,27.148 C131.895665,26.7626647 131.40267,26.4226681 130.836,26.128 C130.26933,25.8333319 129.65167,25.5953342 128.983,25.414 C128.31433,25.2326658 127.594671,25.142 126.824,25.142 C125.259992,25.142 123.86034,25.4253305 122.625,25.992 C121.38966,26.5586695 120.341338,27.3236619 119.48,28.287 C118.618662,29.2503382 117.961336,30.3666603 117.508,31.636 C117.054664,32.9053397 116.828,34.2426596 116.828,35.648 C116.828,37.0533404 117.060331,38.3906603 117.525,39.66 C117.989669,40.9293397 118.652662,42.0456618 119.514,43.009 C120.375338,43.9723382 121.42366,44.7373305 122.659,45.304 C123.89434,45.8706695 125.282659,46.154 126.824,46.154 C128.206674,46.154 129.521327,45.8706695 130.768,45.304 C132.014673,44.7373305 133.057329,43.8306729 133.896,42.584 L135.8,43.808 Z M143.016,23.612 L149.816,23.612 C151.040006,23.612 152.150662,23.742332 153.148,24.003 C154.145338,24.263668 155.000996,24.6603307 155.715,25.193 C156.429004,25.7256693 156.978665,26.3943293 157.364,27.199 C157.749335,28.0036707 157.942,28.9499946 157.942,30.038 C157.942,31.1260054 157.743669,32.0723293 157.347,32.877 C156.950331,33.6816707 156.395004,34.3503307 155.681,34.883 C154.966996,35.4156693 154.105672,35.8179986 153.097,36.09 C152.088328,36.3620014 150.972006,36.498 149.748,36.498 L145.464,36.498 L145.464,47.684 L143.016,47.684 L143.016,23.612 Z M145.464,34.424 L149.612,34.424 C151.538676,34.424 153.000662,34.0500037 153.998,33.302 C154.995338,32.5539963 155.494,31.4660071 155.494,30.038 C155.494,28.5419925 154.978338,27.4483368 153.947,26.757 C152.915662,26.0656632 151.470676,25.72 149.612,25.72 L145.464,25.72 L145.464,34.424 Z M173.25,47.684 L170.802,47.684 L170.802,25.788 L162.744,25.788 L162.744,23.612 L181.308,23.612 L181.308,25.788 L173.25,25.788 L173.25,47.684 Z M196.786,48.296 C194.972658,48.296 193.488006,47.9843365 192.332,47.361 C191.175994,46.7376636 190.258003,45.9500048 189.578,44.998 C188.897997,44.0459952 188.427668,43.0090056 188.167,41.887 C187.906332,40.7649944 187.776,39.7053383 187.776,38.708 L187.776,23.612 L190.224,23.612 L190.224,38.436 C190.224,39.4106715 190.337332,40.3569954 190.564,41.275 C190.790668,42.1930046 191.158997,43.0089964 191.669,43.723 C192.179003,44.4370036 192.853329,45.0149978 193.692,45.457 C194.530671,45.8990022 195.561994,46.12 196.786,46.12 C198.010006,46.12 199.041329,45.8990022 199.88,45.457 C200.718671,45.0149978 201.392997,44.4370036 201.903,43.723 C202.413003,43.0089964 202.781332,42.1930046 203.008,41.275 C203.234668,40.3569954 203.348,39.4106715 203.348,38.436 L203.348,23.612 L205.796,23.612 L205.796,38.708 C205.796,39.7053383 205.665668,40.7649944 205.405,41.887 C205.144332,43.0090056 204.674003,44.0459952 203.994,44.998 C203.313997,45.9500048 202.390339,46.7376636 201.223,47.361 C200.055661,47.9843365 198.576676,48.296 196.786,48.296 Z M232.12,44.114 L232.188,44.114 L232.188,23.612 L234.636,23.612 L234.636,47.684 L231.576,47.684 L217.568,26.978 L217.5,26.978 L217.5,47.684 L215.052,47.684 L215.052,23.612 L218.112,23.612 L232.12,44.114 Z" id="KCPTUN" fill="#000000"></path>
        </g>
    </g>
</svg>