<?xml version="1.0" encoding="UTF-8"?>
<svg width="355px" height="99px" viewBox="0 0 355 99" version="1.1" xmlns="http://www.w3.org/2000/svg" xmlns:xlink="http://www.w3.org/1999/xlink">
    <!-- Generator: Sketch 48.2 (47327) - http://www.bohemiancoding.com/sketch -->
    <title>BT2</title>
    <desc>Created with Sketch.</desc>
    <defs>
        <rect id="path-1" x="0" y="0" width="327" height="71" rx="8"></rect>
        <filter x="-7.2%" y="-26.1%" width="114.4%" height="166.2%" filterUnits="objectBoundingBox" id="filter-2">
            <feOffset dx="0" dy="5" in="SourceAlpha" result="shadowOffsetOuter1"></feOffset>
            <feGaussianBlur stdDeviation="7" in="shadowOffsetOuter1" result="shadowBlurOuter1"></feGaussianBlur>
            <feComposite in="shadowBlurOuter1" in2="SourceAlpha" operator="out" result="shadowBlurOuter1"></feComposite>
            <feColorMatrix values="0 0 0 0 0   0 0 0 0 0   0 0 0 0 0  0 0 0 0.097118433 0" type="matrix" in="shadowBlurOuter1"></feColorMatrix>
        </filter>
    </defs>
    <g id="iPhone-8" stroke="none" stroke-width="1" fill="none" fill-rule="evenodd" transform="translate(-14.000000, -265.000000)">
        <g id="BT2" transform="translate(28.000000, 274.000000)">
            <g id="Rectangle-2-Copy">
                <use fill="black" fill-opacity="1" filter="url(#filter-2)" xlink:href="#path-1"></use>
                <use fill-opacity="0.970000029" fill="#FFFFFF" fill-rule="evenodd" xlink:href="#path-1"></use>
                <rect stroke="#FFFFFF" stroke-width="1" x="0.5" y="0.5" width="326" height="70" rx="8"></rect>
            </g>
            <path d="M158.158,27.488 C157.636664,26.762663 156.968004,26.1790022 156.152,25.737 C155.335996,25.2949978 154.350006,25.074 153.194,25.074 C152.604664,25.074 152.004003,25.1646658 151.392,25.346 C150.779997,25.5273342 150.224669,25.8049981 149.726,26.179 C149.227331,26.5530019 148.825002,27.0233305 148.519,27.59 C148.212998,28.1566695 148.06,28.8253295 148.06,29.596 C148.06,30.3666705 148.207332,31.0013308 148.502,31.5 C148.796668,31.9986692 149.187664,32.4236649 149.675,32.775 C150.162336,33.1263351 150.717664,33.4153322 151.341,33.642 C151.964336,33.8686678 152.615997,34.0953322 153.296,34.322 C154.134671,34.5940014 154.978996,34.8886651 155.829,35.206 C156.679004,35.5233349 157.443997,35.9369974 158.124,36.447 C158.804003,36.9570025 159.359331,37.6029961 159.79,38.385 C160.220669,39.1670039 160.436,40.1586607 160.436,41.36 C160.436,42.5613393 160.203669,43.598329 159.739,44.471 C159.274331,45.343671 158.67367,46.0633305 157.937,46.63 C157.20033,47.1966695 156.361671,47.6159986 155.421,47.888 C154.480329,48.1600014 153.534005,48.296 152.582,48.296 C151.856663,48.296 151.131337,48.2223341 150.406,48.075 C149.680663,47.9276659 148.989337,47.7066681 148.332,47.412 C147.674663,47.1173319 147.062669,46.7433356 146.496,46.29 C145.929331,45.8366644 145.430669,45.3153363 145,44.726 L147.108,43.162 C147.629336,44.0233376 148.360329,44.7429971 149.301,45.321 C150.241671,45.8990029 151.34666,46.188 152.616,46.188 C153.228003,46.188 153.85133,46.0916676 154.486,45.899 C155.12067,45.7063324 155.692997,45.4116686 156.203,45.015 C156.713003,44.6183313 157.132332,44.1310029 157.461,43.553 C157.789668,42.9749971 157.954,42.3006705 157.954,41.53 C157.954,40.6913291 157.789668,39.9943361 157.461,39.439 C157.132332,38.8836639 156.696003,38.4190019 156.152,38.045 C155.607997,37.6709981 154.98467,37.3593346 154.282,37.11 C153.57933,36.8606654 152.842671,36.6113346 152.072,36.362 C151.278663,36.1126654 150.496671,35.8293349 149.726,35.512 C148.955329,35.1946651 148.264003,34.7810025 147.652,34.271 C147.039997,33.7609974 146.547002,33.1320037 146.173,32.384 C145.798998,31.6359963 145.612,30.7180054 145.612,29.63 C145.612,28.4739942 145.844331,27.4766709 146.309,26.638 C146.773669,25.7993291 147.379996,25.1080027 148.128,24.564 C148.876004,24.0199973 149.703329,23.6233346 150.61,23.374 C151.516671,23.1246654 152.411996,23 153.296,23 C154.928008,23 156.321994,23.2889971 157.478,23.867 C158.634006,24.4450029 159.506664,25.1306627 160.096,25.924 L158.158,27.488 Z M180.334,27.488 C179.812664,26.762663 179.144004,26.1790022 178.328,25.737 C177.511996,25.2949978 176.526006,25.074 175.37,25.074 C174.780664,25.074 174.180003,25.1646658 173.568,25.346 C172.955997,25.5273342 172.400669,25.8049981 171.902,26.179 C171.403331,26.5530019 171.001002,27.0233305 170.695,27.59 C170.388998,28.1566695 170.236,28.8253295 170.236,29.596 C170.236,30.3666705 170.383332,31.0013308 170.678,31.5 C170.972668,31.9986692 171.363664,32.4236649 171.851,32.775 C172.338336,33.1263351 172.893664,33.4153322 173.517,33.642 C174.140336,33.8686678 174.791997,34.0953322 175.472,34.322 C176.310671,34.5940014 177.154996,34.8886651 178.005,35.206 C178.855004,35.5233349 179.619997,35.9369974 180.3,36.447 C180.980003,36.9570025 181.535331,37.6029961 181.966,38.385 C182.396669,39.1670039 182.612,40.1586607 182.612,41.36 C182.612,42.5613393 182.379669,43.598329 181.915,44.471 C181.450331,45.343671 180.84967,46.0633305 180.113,46.63 C179.37633,47.1966695 178.537671,47.6159986 177.597,47.888 C176.656329,48.1600014 175.710005,48.296 174.758,48.296 C174.032663,48.296 173.307337,48.2223341 172.582,48.075 C171.856663,47.9276659 171.165337,47.7066681 170.508,47.412 C169.850663,47.1173319 169.23867,46.7433356 168.672,46.29 C168.105331,45.8366644 167.606669,45.3153363 167.176,44.726 L169.284,43.162 C169.805336,44.0233376 170.536329,44.7429971 171.477,45.321 C172.417671,45.8990029 173.52266,46.188 174.792,46.188 C175.404003,46.188 176.02733,46.0916676 176.662,45.899 C177.29667,45.7063324 177.868997,45.4116686 178.379,45.015 C178.889003,44.6183313 179.308332,44.1310029 179.637,43.553 C179.965668,42.9749971 180.13,42.3006705 180.13,41.53 C180.13,40.6913291 179.965668,39.9943361 179.637,39.439 C179.308332,38.8836639 178.872003,38.4190019 178.328,38.045 C177.783997,37.6709981 177.16067,37.3593346 176.458,37.11 C175.75533,36.8606654 175.018671,36.6113346 174.248,36.362 C173.454663,36.1126654 172.672671,35.8293349 171.902,35.512 C171.131329,35.1946651 170.440003,34.7810025 169.828,34.271 C169.215997,33.7609974 168.723002,33.1320037 168.349,32.384 C167.974998,31.6359963 167.788,30.7180054 167.788,29.63 C167.788,28.4739942 168.020331,27.4766709 168.485,26.638 C168.949669,25.7993291 169.555996,25.1080027 170.304,24.564 C171.052004,24.0199973 171.879329,23.6233346 172.786,23.374 C173.692671,23.1246654 174.587996,23 175.472,23 C177.104008,23 178.497994,23.2889971 179.654,23.867 C180.810006,24.4450029 181.682664,25.1306627 182.272,25.924 L180.334,27.488 Z" id="SS" fill="#000000"></path>
        </g>
    </g>
</svg>