<?xml version="1.0" encoding="UTF-8"?>
<svg width="224px" height="72px" viewBox="0 0 224 72" version="1.1" xmlns="http://www.w3.org/2000/svg" xmlns:xlink="http://www.w3.org/1999/xlink">
    <!-- Generator: Sketch 48.2 (47327) - http://www.bohemiancoding.com/sketch -->
    <title>txt</title>
    <desc>Created with Sketch.</desc>
    <defs></defs>
    <g id="iPhone-8" stroke="none" stroke-width="1" fill="none" fill-rule="evenodd" transform="translate(-30.000000, -38.000000)">
        <path d="M42.096,58.852 L42.13,58.852 L50.188,38.928 L53.928,38.928 L53.928,63 L51.48,63 L51.48,42.09 L51.412,42.09 L42.708,63 L41.416,63 L32.712,42.09 L32.644,42.09 L32.644,63 L30.196,63 L30.196,38.928 L33.936,38.928 L42.096,58.852 Z M71.5820005,63 L69.1340005,63 L69.1340005,52.63 L60.1240005,38.928 L63.1840005,38.928 L70.4260005,50.59 L77.7360005,38.928 L80.5920005,38.928 L71.5820005,52.63 L71.5820005,63 Z M104.374001,63 L101.926001,63 L101.926001,41.104 L93.8680014,41.104 L93.8680014,38.928 L112.432001,38.928 L112.432001,41.104 L104.374001,41.104 L104.374001,63 Z M141.816002,50.964 C141.816002,52.8000092 141.498672,54.488659 140.864002,56.03 C140.229332,57.571341 139.351008,58.9029944 138.229002,60.025 C137.106996,61.1470056 135.78101,62.0253302 134.251002,62.66 C132.720994,63.2946698 131.060678,63.612 129.270002,63.612 C127.479326,63.612 125.81901,63.2946698 124.289002,62.66 C122.758994,62.0253302 121.433008,61.1470056 120.311002,60.025 C119.188996,58.9029944 118.310672,57.571341 117.676002,56.03 C117.041332,54.488659 116.724002,52.8000092 116.724002,50.964 C116.724002,49.1279908 117.041332,47.439341 117.676002,45.898 C118.310672,44.356659 119.188996,43.0250056 120.311002,41.903 C121.433008,40.7809944 122.758994,39.9026698 124.289002,39.268 C125.81901,38.6333302 127.479326,38.316 129.270002,38.316 C131.060678,38.316 132.720994,38.6333302 134.251002,39.268 C135.78101,39.9026698 137.106996,40.7809944 138.229002,41.903 C139.351008,43.0250056 140.229332,44.356659 140.864002,45.898 C141.498672,47.439341 141.816002,49.1279908 141.816002,50.964 Z M139.232002,50.964 C139.232002,49.5586596 139.005338,48.2213397 138.552002,46.952 C138.098666,45.6826603 137.44134,44.5663382 136.580002,43.603 C135.718664,42.6396618 134.670341,41.8746695 133.435002,41.308 C132.199662,40.7413305 130.811343,40.458 129.270002,40.458 C127.728661,40.458 126.340341,40.7413305 125.105002,41.308 C123.869662,41.8746695 122.82134,42.6396618 121.960002,43.603 C121.098664,44.5663382 120.441338,45.6826603 119.988002,46.952 C119.534666,48.2213397 119.308002,49.5586596 119.308002,50.964 C119.308002,52.3693404 119.534666,53.7066603 119.988002,54.976 C120.441338,56.2453397 121.098664,57.3559952 121.960002,58.308 C122.82134,59.2600048 123.869662,60.0193305 125.105002,60.586 C126.340341,61.1526695 127.728661,61.436 129.270002,61.436 C130.811343,61.436 132.199662,61.1526695 133.435002,60.586 C134.670341,60.0193305 135.718664,59.2600048 136.580002,58.308 C137.44134,57.3559952 138.098666,56.2453397 138.552002,54.976 C139.005338,53.7066603 139.232002,52.3693404 139.232002,50.964 Z M173.716002,50.964 C173.716002,52.8000092 173.398672,54.488659 172.764002,56.03 C172.129333,57.571341 171.251008,58.9029944 170.129002,60.025 C169.006997,61.1470056 167.68101,62.0253302 166.151002,62.66 C164.620995,63.2946698 162.960678,63.612 161.170002,63.612 C159.379327,63.612 157.71901,63.2946698 156.189002,62.66 C154.658995,62.0253302 153.333008,61.1470056 152.211002,60.025 C151.088997,58.9029944 150.210672,57.571341 149.576002,56.03 C148.941333,54.488659 148.624002,52.8000092 148.624002,50.964 C148.624002,49.1279908 148.941333,47.439341 149.576002,45.898 C150.210672,44.356659 151.088997,43.0250056 152.211002,41.903 C153.333008,40.7809944 154.658995,39.9026698 156.189002,39.268 C157.71901,38.6333302 159.379327,38.316 161.170002,38.316 C162.960678,38.316 164.620995,38.6333302 166.151002,39.268 C167.68101,39.9026698 169.006997,40.7809944 170.129002,41.903 C171.251008,43.0250056 172.129333,44.356659 172.764002,45.898 C173.398672,47.439341 173.716002,49.1279908 173.716002,50.964 Z M171.132002,50.964 C171.132002,49.5586596 170.905338,48.2213397 170.452002,46.952 C169.998667,45.6826603 169.34134,44.5663382 168.480002,43.603 C167.618665,42.6396618 166.570342,41.8746695 165.335002,41.308 C164.099663,40.7413305 162.711343,40.458 161.170002,40.458 C159.628661,40.458 158.240342,40.7413305 157.005002,41.308 C155.769663,41.8746695 154.72134,42.6396618 153.860002,43.603 C152.998665,44.5663382 152.341338,45.6826603 151.888002,46.952 C151.434667,48.2213397 151.208002,49.5586596 151.208002,50.964 C151.208002,52.3693404 151.434667,53.7066603 151.888002,54.976 C152.341338,56.2453397 152.998665,57.3559952 153.860002,58.308 C154.72134,59.2600048 155.769663,60.0193305 157.005002,60.586 C158.240342,61.1526695 159.628661,61.436 161.170002,61.436 C162.711343,61.436 164.099663,61.1526695 165.335002,60.586 C166.570342,60.0193305 167.618665,59.2600048 168.480002,58.308 C169.34134,57.3559952 169.998667,56.2453397 170.452002,54.976 C170.905338,53.7066603 171.132002,52.3693404 171.132002,50.964 Z M184.264003,60.824 L195.484003,60.824 L195.484003,63 L181.816003,63 L181.816003,38.928 L184.264003,38.928 L184.264003,60.824 Z M213.818003,42.804 C213.296667,42.078663 212.628007,41.4950022 211.812003,41.053 C210.995999,40.6109978 210.010009,40.39 208.854003,40.39 C208.264667,40.39 207.664006,40.4806658 207.052003,40.662 C206.44,40.8433342 205.884672,41.1209981 205.386003,41.495 C204.887334,41.8690019 204.485005,42.3393305 204.179003,42.906 C203.873002,43.4726695 203.720003,44.1413295 203.720003,44.912 C203.720003,45.6826705 203.867335,46.3173308 204.162003,46.816 C204.456671,47.3146692 204.847668,47.7396649 205.335003,48.091 C205.822339,48.4423351 206.377667,48.7313322 207.001003,48.958 C207.62434,49.1846678 208.276,49.4113322 208.956003,49.638 C209.794674,49.9100014 210.638999,50.2046651 211.489003,50.522 C212.339008,50.8393349 213.104,51.2529975 213.784003,51.763 C214.464007,52.2730026 215.019335,52.9189961 215.450003,53.701 C215.880672,54.4830039 216.096003,55.4746607 216.096003,56.676 C216.096003,57.8773393 215.863672,58.914329 215.399003,59.787 C214.934334,60.659671 214.333674,61.3793305 213.597003,61.946 C212.860333,62.5126695 212.021675,62.9319986 211.081003,63.204 C210.140332,63.4760014 209.194008,63.612 208.242003,63.612 C207.516666,63.612 206.79134,63.5383341 206.066003,63.391 C205.340666,63.2436659 204.64934,63.0226681 203.992003,62.728 C203.334667,62.4333319 202.722673,62.0593356 202.156003,61.606 C201.589334,61.1526644 201.090672,60.6313363 200.660003,60.042 L202.768003,58.478 C203.289339,59.3393376 204.020332,60.0589971 204.961003,60.637 C205.901675,61.2150029 207.006664,61.504 208.276003,61.504 C208.888006,61.504 209.511333,61.4076676 210.146003,61.215 C210.780673,61.0223324 211.353001,60.7276687 211.863003,60.331 C212.373006,59.9343314 212.792335,59.4470029 213.121003,58.869 C213.449672,58.2909971 213.614003,57.6166705 213.614003,56.846 C213.614003,56.0073291 213.449672,55.3103361 213.121003,54.755 C212.792335,54.1996639 212.356006,53.7350019 211.812003,53.361 C211.268001,52.9869981 210.644674,52.6753346 209.942003,52.426 C209.239333,52.1766654 208.502674,51.9273346 207.732003,51.678 C206.938666,51.4286654 206.156674,51.1453349 205.386003,50.828 C204.615333,50.5106651 203.924006,50.0970026 203.312003,49.587 C202.7,49.0769974 202.207005,48.4480037 201.833003,47.7 C201.459001,46.9519963 201.272003,46.0340054 201.272003,44.946 C201.272003,43.7899942 201.504334,42.7926709 201.969003,41.954 C202.433672,41.1153291 203.04,40.4240027 203.788003,39.88 C204.536007,39.3359973 205.363332,38.9393346 206.270003,38.69 C207.176675,38.4406654 208.071999,38.316 208.956003,38.316 C210.588011,38.316 211.981998,38.6049971 213.138003,39.183 C214.294009,39.7610029 215.166667,40.4466627 215.756003,41.24 L213.818003,42.804 Z M30.196,84.928 L38.186,84.928 C39.6820075,84.928 41.1836591,85.1773308 42.691,85.676 C44.1983409,86.1746692 45.5583273,86.9283283 46.771,87.937 C47.9836727,88.9456717 48.9639963,90.2036591 49.712,91.711 C50.4600037,93.2183409 50.834,94.9693234 50.834,96.964 C50.834,98.9813434 50.4600037,100.737993 49.712,102.234 C48.9639963,103.730007 47.9836727,104.982328 46.771,105.991 C45.5583273,106.999672 44.1983409,107.753331 42.691,108.252 C41.1836591,108.750669 39.6820075,109 38.186,109 L30.196,109 L30.196,84.928 Z M32.644,106.824 L37.506,106.824 C39.3193424,106.824 40.9003266,106.54067 42.249,105.974 C43.5976734,105.407331 44.7139956,104.665005 45.598,103.747 C46.4820044,102.828995 47.1449978,101.780673 47.587,100.602 C48.0290022,99.4233274 48.25,98.2106729 48.25,96.964 C48.25,95.7173271 48.0290022,94.5046726 47.587,93.326 C47.1449978,92.1473274 46.4820044,91.0990046 45.598,90.181 C44.7139956,89.2629954 43.5976734,88.5206695 42.249,87.954 C40.9003266,87.3873305 39.3193424,87.104 37.506,87.104 L32.644,87.104 L32.644,106.824 Z M82.7340005,96.964 C82.7340005,98.8000092 82.4166703,100.488659 81.7820005,102.03 C81.1473306,103.571341 80.2690061,104.902994 79.1470005,106.025 C78.0249949,107.147006 76.6990081,108.02533 75.1690005,108.66 C73.6389928,109.29467 71.9786761,109.612 70.1880005,109.612 C68.3973249,109.612 66.7370081,109.29467 65.2070005,108.66 C63.6769928,108.02533 62.3510061,107.147006 61.2290005,106.025 C60.1069949,104.902994 59.2286703,103.571341 58.5940005,102.03 C57.9593306,100.488659 57.6420005,98.8000092 57.6420005,96.964 C57.6420005,95.1279908 57.9593306,93.439341 58.5940005,91.898 C59.2286703,90.356659 60.1069949,89.0250056 61.2290005,87.903 C62.3510061,86.7809944 63.6769928,85.9026698 65.2070005,85.268 C66.7370081,84.6333302 68.3973249,84.316 70.1880005,84.316 C71.9786761,84.316 73.6389928,84.6333302 75.1690005,85.268 C76.6990081,85.9026698 78.0249949,86.7809944 79.1470005,87.903 C80.2690061,89.0250056 81.1473306,90.356659 81.7820005,91.898 C82.4166703,93.439341 82.7340005,95.1279908 82.7340005,96.964 Z M80.1500005,96.964 C80.1500005,95.5586596 79.9233361,94.2213397 79.4700005,92.952 C79.0166649,91.6826603 78.3593381,90.5663382 77.4980005,89.603 C76.6366628,88.6396619 75.58834,87.8746695 74.3530005,87.308 C73.117661,86.7413305 71.7293415,86.458 70.1880005,86.458 C68.6466594,86.458 67.25834,86.7413305 66.0230005,87.308 C64.787661,87.8746695 63.7393381,88.6396619 62.8780005,89.603 C62.0166628,90.5663382 61.3593361,91.6826603 60.9060005,92.952 C60.4526649,94.2213397 60.2260005,95.5586596 60.2260005,96.964 C60.2260005,98.3693404 60.4526649,99.7066603 60.9060005,100.976 C61.3593361,102.24534 62.0166628,103.355995 62.8780005,104.308 C63.7393381,105.260005 64.787661,106.01933 66.0230005,106.586 C67.25834,107.15267 68.6466594,107.436 70.1880005,107.436 C71.7293415,107.436 73.117661,107.15267 74.3530005,106.586 C75.58834,106.01933 76.6366628,105.260005 77.4980005,104.308 C78.3593381,103.355995 79.0166649,102.24534 79.4700005,100.976 C79.9233361,99.7066603 80.1500005,98.3693404 80.1500005,96.964 Z M96.648001,105.634 L96.716001,105.634 L102.734001,84.928 L105.658001,84.928 L111.676001,105.634 L111.744001,105.634 L117.626001,84.928 L120.210001,84.928 L113.104001,109 L110.248001,109 L104.196001,88.328 L104.128001,88.328 L98.076001,109 L95.220001,109 L88.114001,84.928 L90.698001,84.928 L96.648001,105.634 Z M143.950001,105.43 L144.018001,105.43 L144.018001,84.928 L146.466001,84.928 L146.466001,109 L143.406001,109 L129.398001,88.294 L129.330001,88.294 L129.330001,109 L126.882001,109 L126.882001,84.928 L129.942001,84.928 L143.950001,105.43 Z M158.306002,106.824 L169.526002,106.824 L169.526002,109 L155.858002,109 L155.858002,84.928 L158.306002,84.928 L158.306002,106.824 Z M198.978002,96.964 C198.978002,98.8000092 198.660672,100.488659 198.026002,102.03 C197.391333,103.571341 196.513008,104.902994 195.391002,106.025 C194.268997,107.147006 192.94301,108.02533 191.413002,108.66 C189.882995,109.29467 188.222678,109.612 186.432002,109.612 C184.641327,109.612 182.98101,109.29467 181.451002,108.66 C179.920995,108.02533 178.595008,107.147006 177.473002,106.025 C176.350997,104.902994 175.472672,103.571341 174.838002,102.03 C174.203333,100.488659 173.886002,98.8000092 173.886002,96.964 C173.886002,95.1279908 174.203333,93.439341 174.838002,91.898 C175.472672,90.356659 176.350997,89.0250056 177.473002,87.903 C178.595008,86.7809944 179.920995,85.9026698 181.451002,85.268 C182.98101,84.6333302 184.641327,84.316 186.432002,84.316 C188.222678,84.316 189.882995,84.6333302 191.413002,85.268 C192.94301,85.9026698 194.268997,86.7809944 195.391002,87.903 C196.513008,89.0250056 197.391333,90.356659 198.026002,91.898 C198.660672,93.439341 198.978002,95.1279908 198.978002,96.964 Z M196.394002,96.964 C196.394002,95.5586596 196.167338,94.2213397 195.714002,92.952 C195.260667,91.6826603 194.60334,90.5663382 193.742002,89.603 C192.880665,88.6396619 191.832342,87.8746695 190.597002,87.308 C189.361663,86.7413305 187.973343,86.458 186.432002,86.458 C184.890661,86.458 183.502342,86.7413305 182.267002,87.308 C181.031663,87.8746695 179.98334,88.6396619 179.122002,89.603 C178.260665,90.5663382 177.603338,91.6826603 177.150002,92.952 C176.696667,94.2213397 176.470002,95.5586596 176.470002,96.964 C176.470002,98.3693404 176.696667,99.7066603 177.150002,100.976 C177.603338,102.24534 178.260665,103.355995 179.122002,104.308 C179.98334,105.260005 181.031663,106.01933 182.267002,106.586 C183.502342,107.15267 184.890661,107.436 186.432002,107.436 C187.973343,107.436 189.361663,107.15267 190.597002,106.586 C191.832342,106.01933 192.880665,105.260005 193.742002,104.308 C194.60334,103.355995 195.260667,102.24534 195.714002,100.976 C196.167338,99.7066603 196.394002,98.3693404 196.394002,96.964 Z M206.296003,109 L203.610003,109 L214.014003,84.928 L216.394003,84.928 L226.730003,109 L224.010003,109 L221.358003,102.676 L208.914003,102.676 L206.296003,109 Z M209.832003,100.432 L220.440003,100.432 L215.136003,87.648 L209.832003,100.432 Z M233.266003,84.928 L241.256003,84.928 C242.752011,84.928 244.253662,85.1773308 245.761003,85.676 C247.268344,86.1746692 248.628331,86.9283283 249.841003,87.937 C251.053676,88.9456717 252.034,90.2036591 252.782003,91.711 C253.530007,93.2183409 253.904003,94.9693234 253.904003,96.964 C253.904003,98.9813434 253.530007,100.737993 252.782003,102.234 C252.034,103.730007 251.053676,104.982328 249.841003,105.991 C248.628331,106.999672 247.268344,107.753331 245.761003,108.252 C244.253662,108.750669 242.752011,109 241.256003,109 L233.266003,109 L233.266003,84.928 Z M235.714003,106.824 L240.576003,106.824 C242.389346,106.824 243.97033,106.54067 245.319003,105.974 C246.667677,105.407331 247.783999,104.665005 248.668003,103.747 C249.552008,102.828995 250.215001,101.780673 250.657003,100.602 C251.099006,99.4233274 251.320003,98.2106729 251.320003,96.964 C251.320003,95.7173271 251.099006,94.5046726 250.657003,93.326 C250.215001,92.1473274 249.552008,91.0990046 248.668003,90.181 C247.783999,89.2629954 246.667677,88.5206695 245.319003,87.954 C243.97033,87.3873305 242.389346,87.104 240.576003,87.104 L235.714003,87.104 L235.714003,106.824 Z" id="txt" fill="#000000"></path>
    </g>
</svg>