<?xml version="1.0" encoding="UTF-8"?>
<svg width="1438px" height="545px" viewBox="0 0 1438 545" version="1.1" xmlns="http://www.w3.org/2000/svg" xmlns:xlink="http://www.w3.org/1999/xlink">
    <!-- Generator: Sketch 45.2 (43514) - http://www.bohemiancoding.com/sketch -->
    <title>bg3-1</title>
    <desc>Created with Sketch.</desc>
    <defs>
        <linearGradient x1="50%" y1="-60.9455708%" x2="50%" y2="72.4012138%" id="linearGradient-1">
            <stop stop-color="#FFFFFF" stop-opacity="0" offset="0%"></stop>
            <stop stop-color="#FFFFFF" offset="100%"></stop>
        </linearGradient>
    </defs>
    <g id="Page-1" stroke="none" stroke-width="1" fill="none" fill-rule="evenodd">
        <g id="新版" transform="translate(-2.000000, -2381.000000)">
            <g id="3" transform="translate(-1.000000, 2048.000000)">
                <g id="bg3-1" transform="translate(3.000000, 333.000000)">
                    <g id="Group-26" transform="translate(12.000000, 0.000000)" fill="#F9F9F9">
                        <g id="Group-25">
                            <g id="Group-24">
                                <g id="Group-23">
                                    <path d="M2,0 L10,0 L10,-2.22044605e-16 C11.1045695,-4.2495073e-16 12,0.8954305 12,2 L12,251 L0,251 L0,2 L-2.22044605e-16,2 C-3.57315355e-16,0.8954305 0.8954305,-1.91384796e-17 2,-2.22044605e-16 Z" id="Rectangle-15"></path>
                                    <path d="M26,47 L34,47 L34,47 C35.1045695,47 36,47.8954305 36,49 L36,251 L24,251 L24,49 L24,49 C24,47.8954305 24.8954305,47 26,47 Z" id="Rectangle-15-Copy"></path>
                                    <path d="M50,95 L58,95 L58,95 C59.1045695,95 60,95.8954305 60,97 L60,251 L48,251 L48,97 L48,97 C48,95.8954305 48.8954305,95 50,95 Z" id="Rectangle-15-Copy-2"></path>
                                    <path d="M74,137 L82,137 L82,137 C83.1045695,137 84,137.895431 84,139 L84,251 L72,251 L72,139 L72,139 C72,137.895431 72.8954305,137 74,137 Z" id="Rectangle-15-Copy-3"></path>
                                    <path d="M98,173 L106,173 L106,173 C107.104569,173 108,173.895431 108,175 L108,251 L96,251 L96,175 L96,175 C96,173.895431 96.8954305,173 98,173 Z" id="Rectangle-15-Copy-4"></path>
                                </g>
                                <g id="Group-23-Copy" transform="translate(173.000000, 125.500000) scale(-1, 1) translate(-173.000000, -125.500000) translate(119.000000, 0.000000)">
                                    <path d="M2,0 L10,0 L10,-2.22044605e-16 C11.1045695,-4.2495073e-16 12,0.8954305 12,2 L12,251 L0,251 L0,2 L-2.22044605e-16,2 C-3.57315355e-16,0.8954305 0.8954305,-1.91384796e-17 2,-2.22044605e-16 Z" id="Rectangle-15"></path>
                                    <path d="M26,47 L34,47 L34,47 C35.1045695,47 36,47.8954305 36,49 L36,251 L24,251 L24,49 L24,49 C24,47.8954305 24.8954305,47 26,47 Z" id="Rectangle-15-Copy"></path>
                                    <path d="M50,95 L58,95 L58,95 C59.1045695,95 60,95.8954305 60,97 L60,251 L48,251 L48,97 L48,97 C48,95.8954305 48.8954305,95 50,95 Z" id="Rectangle-15-Copy-2"></path>
                                    <path d="M74,137 L82,137 L82,137 C83.1045695,137 84,137.895431 84,139 L84,251 L72,251 L72,139 L72,139 C72,137.895431 72.8954305,137 74,137 Z" id="Rectangle-15-Copy-3"></path>
                                    <path d="M98,173 L106,173 L106,173 C107.104569,173 108,173.895431 108,175 L108,251 L96,251 L96,175 L96,175 C96,173.895431 96.8954305,173 98,173 Z" id="Rectangle-15-Copy-4"></path>
                                </g>
                            </g>
                            <g id="Group-24-Copy" transform="translate(237.000000, 0.000000)">
                                <g id="Group-23">
                                    <path d="M2,0 L10,0 L10,-2.22044605e-16 C11.1045695,-4.2495073e-16 12,0.8954305 12,2 L12,251 L0,251 L0,2 L-2.22044605e-16,2 C-3.57315355e-16,0.8954305 0.8954305,-1.91384796e-17 2,-2.22044605e-16 Z" id="Rectangle-15"></path>
                                    <path d="M26,47 L34,47 L34,47 C35.1045695,47 36,47.8954305 36,49 L36,251 L24,251 L24,49 L24,49 C24,47.8954305 24.8954305,47 26,47 Z" id="Rectangle-15-Copy"></path>
                                    <path d="M50,95 L58,95 L58,95 C59.1045695,95 60,95.8954305 60,97 L60,251 L48,251 L48,97 L48,97 C48,95.8954305 48.8954305,95 50,95 Z" id="Rectangle-15-Copy-2"></path>
                                    <path d="M74,137 L82,137 L82,137 C83.1045695,137 84,137.895431 84,139 L84,251 L72,251 L72,139 L72,139 C72,137.895431 72.8954305,137 74,137 Z" id="Rectangle-15-Copy-3"></path>
                                    <path d="M98,173 L106,173 L106,173 C107.104569,173 108,173.895431 108,175 L108,251 L96,251 L96,175 L96,175 C96,173.895431 96.8954305,173 98,173 Z" id="Rectangle-15-Copy-4"></path>
                                </g>
                                <g id="Group-23-Copy" transform="translate(173.000000, 125.500000) scale(-1, 1) translate(-173.000000, -125.500000) translate(119.000000, 0.000000)">
                                    <path d="M2,0 L10,0 L10,-2.22044605e-16 C11.1045695,-4.2495073e-16 12,0.8954305 12,2 L12,251 L0,251 L0,2 L-2.22044605e-16,2 C-3.57315355e-16,0.8954305 0.8954305,-1.91384796e-17 2,-2.22044605e-16 Z" id="Rectangle-15"></path>
                                    <path d="M26,47 L34,47 L34,47 C35.1045695,47 36,47.8954305 36,49 L36,251 L24,251 L24,49 L24,49 C24,47.8954305 24.8954305,47 26,47 Z" id="Rectangle-15-Copy"></path>
                                    <path d="M50,95 L58,95 L58,95 C59.1045695,95 60,95.8954305 60,97 L60,251 L48,251 L48,97 L48,97 C48,95.8954305 48.8954305,95 50,95 Z" id="Rectangle-15-Copy-2"></path>
                                    <path d="M74,137 L82,137 L82,137 C83.1045695,137 84,137.895431 84,139 L84,251 L72,251 L72,139 L72,139 C72,137.895431 72.8954305,137 74,137 Z" id="Rectangle-15-Copy-3"></path>
                                    <path d="M98,173 L106,173 L106,173 C107.104569,173 108,173.895431 108,175 L108,251 L96,251 L96,175 L96,175 C96,173.895431 96.8954305,173 98,173 Z" id="Rectangle-15-Copy-4"></path>
                                </g>
                            </g>
                        </g>
                        <g id="Group-25-Copy" transform="translate(474.000000, 0.000000)">
                            <g id="Group-24">
                                <g id="Group-23">
                                    <path d="M2,0 L10,0 L10,-2.22044605e-16 C11.1045695,-4.2495073e-16 12,0.8954305 12,2 L12,251 L0,251 L0,2 L-2.22044605e-16,2 C-3.57315355e-16,0.8954305 0.8954305,-1.91384796e-17 2,-2.22044605e-16 Z" id="Rectangle-15"></path>
                                    <path d="M26,47 L34,47 L34,47 C35.1045695,47 36,47.8954305 36,49 L36,251 L24,251 L24,49 L24,49 C24,47.8954305 24.8954305,47 26,47 Z" id="Rectangle-15-Copy"></path>
                                    <path d="M50,95 L58,95 L58,95 C59.1045695,95 60,95.8954305 60,97 L60,251 L48,251 L48,97 L48,97 C48,95.8954305 48.8954305,95 50,95 Z" id="Rectangle-15-Copy-2"></path>
                                    <path d="M74,137 L82,137 L82,137 C83.1045695,137 84,137.895431 84,139 L84,251 L72,251 L72,139 L72,139 C72,137.895431 72.8954305,137 74,137 Z" id="Rectangle-15-Copy-3"></path>
                                    <path d="M98,173 L106,173 L106,173 C107.104569,173 108,173.895431 108,175 L108,251 L96,251 L96,175 L96,175 C96,173.895431 96.8954305,173 98,173 Z" id="Rectangle-15-Copy-4"></path>
                                </g>
                                <g id="Group-23-Copy" transform="translate(173.000000, 125.500000) scale(-1, 1) translate(-173.000000, -125.500000) translate(119.000000, 0.000000)">
                                    <path d="M2,0 L10,0 L10,-2.22044605e-16 C11.1045695,-4.2495073e-16 12,0.8954305 12,2 L12,251 L0,251 L0,2 L-2.22044605e-16,2 C-3.57315355e-16,0.8954305 0.8954305,-1.91384796e-17 2,-2.22044605e-16 Z" id="Rectangle-15"></path>
                                    <path d="M26,47 L34,47 L34,47 C35.1045695,47 36,47.8954305 36,49 L36,251 L24,251 L24,49 L24,49 C24,47.8954305 24.8954305,47 26,47 Z" id="Rectangle-15-Copy"></path>
                                    <path d="M50,95 L58,95 L58,95 C59.1045695,95 60,95.8954305 60,97 L60,251 L48,251 L48,97 L48,97 C48,95.8954305 48.8954305,95 50,95 Z" id="Rectangle-15-Copy-2"></path>
                                    <path d="M74,137 L82,137 L82,137 C83.1045695,137 84,137.895431 84,139 L84,251 L72,251 L72,139 L72,139 C72,137.895431 72.8954305,137 74,137 Z" id="Rectangle-15-Copy-3"></path>
                                    <path d="M98,173 L106,173 L106,173 C107.104569,173 108,173.895431 108,175 L108,251 L96,251 L96,175 L96,175 C96,173.895431 96.8954305,173 98,173 Z" id="Rectangle-15-Copy-4"></path>
                                </g>
                            </g>
                            <g id="Group-24-Copy" transform="translate(237.000000, 0.000000)">
                                <g id="Group-23">
                                    <path d="M2,0 L10,0 L10,-2.22044605e-16 C11.1045695,-4.2495073e-16 12,0.8954305 12,2 L12,251 L0,251 L0,2 L-2.22044605e-16,2 C-3.57315355e-16,0.8954305 0.8954305,-1.91384796e-17 2,-2.22044605e-16 Z" id="Rectangle-15"></path>
                                    <path d="M26,47 L34,47 L34,47 C35.1045695,47 36,47.8954305 36,49 L36,251 L24,251 L24,49 L24,49 C24,47.8954305 24.8954305,47 26,47 Z" id="Rectangle-15-Copy"></path>
                                    <path d="M50,95 L58,95 L58,95 C59.1045695,95 60,95.8954305 60,97 L60,251 L48,251 L48,97 L48,97 C48,95.8954305 48.8954305,95 50,95 Z" id="Rectangle-15-Copy-2"></path>
                                    <path d="M74,137 L82,137 L82,137 C83.1045695,137 84,137.895431 84,139 L84,251 L72,251 L72,139 L72,139 C72,137.895431 72.8954305,137 74,137 Z" id="Rectangle-15-Copy-3"></path>
                                    <path d="M98,173 L106,173 L106,173 C107.104569,173 108,173.895431 108,175 L108,251 L96,251 L96,175 L96,175 C96,173.895431 96.8954305,173 98,173 Z" id="Rectangle-15-Copy-4"></path>
                                </g>
                                <g id="Group-23-Copy" transform="translate(173.000000, 125.500000) scale(-1, 1) translate(-173.000000, -125.500000) translate(119.000000, 0.000000)">
                                    <path d="M2,0 L10,0 L10,-2.22044605e-16 C11.1045695,-4.2495073e-16 12,0.8954305 12,2 L12,251 L0,251 L0,2 L-2.22044605e-16,2 C-3.57315355e-16,0.8954305 0.8954305,-1.91384796e-17 2,-2.22044605e-16 Z" id="Rectangle-15"></path>
                                    <path d="M26,47 L34,47 L34,47 C35.1045695,47 36,47.8954305 36,49 L36,251 L24,251 L24,49 L24,49 C24,47.8954305 24.8954305,47 26,47 Z" id="Rectangle-15-Copy"></path>
                                    <path d="M50,95 L58,95 L58,95 C59.1045695,95 60,95.8954305 60,97 L60,251 L48,251 L48,97 L48,97 C48,95.8954305 48.8954305,95 50,95 Z" id="Rectangle-15-Copy-2"></path>
                                    <path d="M74,137 L82,137 L82,137 C83.1045695,137 84,137.895431 84,139 L84,251 L72,251 L72,139 L72,139 C72,137.895431 72.8954305,137 74,137 Z" id="Rectangle-15-Copy-3"></path>
                                    <path d="M98,173 L106,173 L106,173 C107.104569,173 108,173.895431 108,175 L108,251 L96,251 L96,175 L96,175 C96,173.895431 96.8954305,173 98,173 Z" id="Rectangle-15-Copy-4"></path>
                                </g>
                            </g>
                        </g>
                        <g id="Group-25-Copy-2" transform="translate(952.000000, 0.000000)">
                            <g id="Group-24">
                                <g id="Group-23">
                                    <path d="M2,0 L10,0 L10,-2.22044605e-16 C11.1045695,-4.2495073e-16 12,0.8954305 12,2 L12,251 L0,251 L0,2 L-2.22044605e-16,2 C-3.57315355e-16,0.8954305 0.8954305,-1.91384796e-17 2,-2.22044605e-16 Z" id="Rectangle-15"></path>
                                    <path d="M26,47 L34,47 L34,47 C35.1045695,47 36,47.8954305 36,49 L36,251 L24,251 L24,49 L24,49 C24,47.8954305 24.8954305,47 26,47 Z" id="Rectangle-15-Copy"></path>
                                    <path d="M50,95 L58,95 L58,95 C59.1045695,95 60,95.8954305 60,97 L60,251 L48,251 L48,97 L48,97 C48,95.8954305 48.8954305,95 50,95 Z" id="Rectangle-15-Copy-2"></path>
                                    <path d="M74,137 L82,137 L82,137 C83.1045695,137 84,137.895431 84,139 L84,251 L72,251 L72,139 L72,139 C72,137.895431 72.8954305,137 74,137 Z" id="Rectangle-15-Copy-3"></path>
                                    <path d="M98,173 L106,173 L106,173 C107.104569,173 108,173.895431 108,175 L108,251 L96,251 L96,175 L96,175 C96,173.895431 96.8954305,173 98,173 Z" id="Rectangle-15-Copy-4"></path>
                                </g>
                                <g id="Group-23-Copy" transform="translate(173.000000, 125.500000) scale(-1, 1) translate(-173.000000, -125.500000) translate(119.000000, 0.000000)">
                                    <path d="M2,0 L10,0 L10,-2.22044605e-16 C11.1045695,-4.2495073e-16 12,0.8954305 12,2 L12,251 L0,251 L0,2 L-2.22044605e-16,2 C-3.57315355e-16,0.8954305 0.8954305,-1.91384796e-17 2,-2.22044605e-16 Z" id="Rectangle-15"></path>
                                    <path d="M26,47 L34,47 L34,47 C35.1045695,47 36,47.8954305 36,49 L36,251 L24,251 L24,49 L24,49 C24,47.8954305 24.8954305,47 26,47 Z" id="Rectangle-15-Copy"></path>
                                    <path d="M50,95 L58,95 L58,95 C59.1045695,95 60,95.8954305 60,97 L60,251 L48,251 L48,97 L48,97 C48,95.8954305 48.8954305,95 50,95 Z" id="Rectangle-15-Copy-2"></path>
                                    <path d="M74,137 L82,137 L82,137 C83.1045695,137 84,137.895431 84,139 L84,251 L72,251 L72,139 L72,139 C72,137.895431 72.8954305,137 74,137 Z" id="Rectangle-15-Copy-3"></path>
                                    <path d="M98,173 L106,173 L106,173 C107.104569,173 108,173.895431 108,175 L108,251 L96,251 L96,175 L96,175 C96,173.895431 96.8954305,173 98,173 Z" id="Rectangle-15-Copy-4"></path>
                                </g>
                            </g>
                            <g id="Group-24-Copy" transform="translate(237.000000, 0.000000)">
                                <g id="Group-23">
                                    <path d="M2,0 L10,0 L10,-2.22044605e-16 C11.1045695,-4.2495073e-16 12,0.8954305 12,2 L12,251 L0,251 L0,2 L-2.22044605e-16,2 C-3.57315355e-16,0.8954305 0.8954305,-1.91384796e-17 2,-2.22044605e-16 Z" id="Rectangle-15"></path>
                                    <path d="M26,47 L34,47 L34,47 C35.1045695,47 36,47.8954305 36,49 L36,251 L24,251 L24,49 L24,49 C24,47.8954305 24.8954305,47 26,47 Z" id="Rectangle-15-Copy"></path>
                                    <path d="M50,95 L58,95 L58,95 C59.1045695,95 60,95.8954305 60,97 L60,251 L48,251 L48,97 L48,97 C48,95.8954305 48.8954305,95 50,95 Z" id="Rectangle-15-Copy-2"></path>
                                    <path d="M74,137 L82,137 L82,137 C83.1045695,137 84,137.895431 84,139 L84,251 L72,251 L72,139 L72,139 C72,137.895431 72.8954305,137 74,137 Z" id="Rectangle-15-Copy-3"></path>
                                    <path d="M98,173 L106,173 L106,173 C107.104569,173 108,173.895431 108,175 L108,251 L96,251 L96,175 L96,175 C96,173.895431 96.8954305,173 98,173 Z" id="Rectangle-15-Copy-4"></path>
                                </g>
                                <g id="Group-23-Copy" transform="translate(173.000000, 125.500000) scale(-1, 1) translate(-173.000000, -125.500000) translate(119.000000, 0.000000)">
                                    <path d="M2,0 L10,0 L10,-2.22044605e-16 C11.1045695,-4.2495073e-16 12,0.8954305 12,2 L12,251 L0,251 L0,2 L-2.22044605e-16,2 C-3.57315355e-16,0.8954305 0.8954305,-1.91384796e-17 2,-2.22044605e-16 Z" id="Rectangle-15"></path>
                                    <path d="M26,47 L34,47 L34,47 C35.1045695,47 36,47.8954305 36,49 L36,251 L24,251 L24,49 L24,49 C24,47.8954305 24.8954305,47 26,47 Z" id="Rectangle-15-Copy"></path>
                                    <path d="M50,95 L58,95 L58,95 C59.1045695,95 60,95.8954305 60,97 L60,251 L48,251 L48,97 L48,97 C48,95.8954305 48.8954305,95 50,95 Z" id="Rectangle-15-Copy-2"></path>
                                    <path d="M74,137 L82,137 L82,137 C83.1045695,137 84,137.895431 84,139 L84,251 L72,251 L72,139 L72,139 C72,137.895431 72.8954305,137 74,137 Z" id="Rectangle-15-Copy-3"></path>
                                    <path d="M98,173 L106,173 L106,173 C107.104569,173 108,173.895431 108,175 L108,251 L96,251 L96,175 L96,175 C96,173.895431 96.8954305,173 98,173 Z" id="Rectangle-15-Copy-4"></path>
                                </g>
                            </g>
                        </g>
                    </g>
                    <g id="Group-26-Copy" transform="translate(720.000000, 376.500000) scale(1, -1) translate(-720.000000, -376.500000) translate(12.000000, 251.000000)" fill="#F9F9F9">
                        <g id="Group-25">
                            <g id="Group-24">
                                <g id="Group-23">
                                    <path d="M2,0 L10,0 L10,-2.22044605e-16 C11.1045695,-4.2495073e-16 12,0.8954305 12,2 L12,251 L0,251 L0,2 L-2.22044605e-16,2 C-3.57315355e-16,0.8954305 0.8954305,-1.91384796e-17 2,-2.22044605e-16 Z" id="Rectangle-15"></path>
                                    <path d="M26,47 L34,47 L34,47 C35.1045695,47 36,47.8954305 36,49 L36,251 L24,251 L24,49 L24,49 C24,47.8954305 24.8954305,47 26,47 Z" id="Rectangle-15-Copy"></path>
                                    <path d="M50,95 L58,95 L58,95 C59.1045695,95 60,95.8954305 60,97 L60,251 L48,251 L48,97 L48,97 C48,95.8954305 48.8954305,95 50,95 Z" id="Rectangle-15-Copy-2"></path>
                                    <path d="M74,137 L82,137 L82,137 C83.1045695,137 84,137.895431 84,139 L84,251 L72,251 L72,139 L72,139 C72,137.895431 72.8954305,137 74,137 Z" id="Rectangle-15-Copy-3"></path>
                                    <path d="M98,173 L106,173 L106,173 C107.104569,173 108,173.895431 108,175 L108,251 L96,251 L96,175 L96,175 C96,173.895431 96.8954305,173 98,173 Z" id="Rectangle-15-Copy-4"></path>
                                </g>
                                <g id="Group-23-Copy" transform="translate(173.000000, 125.500000) scale(-1, 1) translate(-173.000000, -125.500000) translate(119.000000, 0.000000)">
                                    <path d="M2,0 L10,0 L10,-2.22044605e-16 C11.1045695,-4.2495073e-16 12,0.8954305 12,2 L12,251 L0,251 L0,2 L-2.22044605e-16,2 C-3.57315355e-16,0.8954305 0.8954305,-1.91384796e-17 2,-2.22044605e-16 Z" id="Rectangle-15"></path>
                                    <path d="M26,47 L34,47 L34,47 C35.1045695,47 36,47.8954305 36,49 L36,251 L24,251 L24,49 L24,49 C24,47.8954305 24.8954305,47 26,47 Z" id="Rectangle-15-Copy"></path>
                                    <path d="M50,95 L58,95 L58,95 C59.1045695,95 60,95.8954305 60,97 L60,251 L48,251 L48,97 L48,97 C48,95.8954305 48.8954305,95 50,95 Z" id="Rectangle-15-Copy-2"></path>
                                    <path d="M74,137 L82,137 L82,137 C83.1045695,137 84,137.895431 84,139 L84,251 L72,251 L72,139 L72,139 C72,137.895431 72.8954305,137 74,137 Z" id="Rectangle-15-Copy-3"></path>
                                    <path d="M98,173 L106,173 L106,173 C107.104569,173 108,173.895431 108,175 L108,251 L96,251 L96,175 L96,175 C96,173.895431 96.8954305,173 98,173 Z" id="Rectangle-15-Copy-4"></path>
                                </g>
                            </g>
                            <g id="Group-24-Copy" transform="translate(237.000000, 0.000000)">
                                <g id="Group-23">
                                    <path d="M2,0 L10,0 L10,-2.22044605e-16 C11.1045695,-4.2495073e-16 12,0.8954305 12,2 L12,251 L0,251 L0,2 L-2.22044605e-16,2 C-3.57315355e-16,0.8954305 0.8954305,-1.91384796e-17 2,-2.22044605e-16 Z" id="Rectangle-15"></path>
                                    <path d="M26,47 L34,47 L34,47 C35.1045695,47 36,47.8954305 36,49 L36,251 L24,251 L24,49 L24,49 C24,47.8954305 24.8954305,47 26,47 Z" id="Rectangle-15-Copy"></path>
                                    <path d="M50,95 L58,95 L58,95 C59.1045695,95 60,95.8954305 60,97 L60,251 L48,251 L48,97 L48,97 C48,95.8954305 48.8954305,95 50,95 Z" id="Rectangle-15-Copy-2"></path>
                                    <path d="M74,137 L82,137 L82,137 C83.1045695,137 84,137.895431 84,139 L84,251 L72,251 L72,139 L72,139 C72,137.895431 72.8954305,137 74,137 Z" id="Rectangle-15-Copy-3"></path>
                                    <path d="M98,173 L106,173 L106,173 C107.104569,173 108,173.895431 108,175 L108,251 L96,251 L96,175 L96,175 C96,173.895431 96.8954305,173 98,173 Z" id="Rectangle-15-Copy-4"></path>
                                </g>
                                <g id="Group-23-Copy" transform="translate(173.000000, 125.500000) scale(-1, 1) translate(-173.000000, -125.500000) translate(119.000000, 0.000000)">
                                    <path d="M2,0 L10,0 L10,-2.22044605e-16 C11.1045695,-4.2495073e-16 12,0.8954305 12,2 L12,251 L0,251 L0,2 L-2.22044605e-16,2 C-3.57315355e-16,0.8954305 0.8954305,-1.91384796e-17 2,-2.22044605e-16 Z" id="Rectangle-15"></path>
                                    <path d="M26,47 L34,47 L34,47 C35.1045695,47 36,47.8954305 36,49 L36,251 L24,251 L24,49 L24,49 C24,47.8954305 24.8954305,47 26,47 Z" id="Rectangle-15-Copy"></path>
                                    <path d="M50,95 L58,95 L58,95 C59.1045695,95 60,95.8954305 60,97 L60,251 L48,251 L48,97 L48,97 C48,95.8954305 48.8954305,95 50,95 Z" id="Rectangle-15-Copy-2"></path>
                                    <path d="M74,137 L82,137 L82,137 C83.1045695,137 84,137.895431 84,139 L84,251 L72,251 L72,139 L72,139 C72,137.895431 72.8954305,137 74,137 Z" id="Rectangle-15-Copy-3"></path>
                                    <path d="M98,173 L106,173 L106,173 C107.104569,173 108,173.895431 108,175 L108,251 L96,251 L96,175 L96,175 C96,173.895431 96.8954305,173 98,173 Z" id="Rectangle-15-Copy-4"></path>
                                </g>
                            </g>
                        </g>
                        <g id="Group-25-Copy" transform="translate(474.000000, 0.000000)">
                            <g id="Group-24">
                                <g id="Group-23">
                                    <path d="M2,0 L10,0 L10,-2.22044605e-16 C11.1045695,-4.2495073e-16 12,0.8954305 12,2 L12,251 L0,251 L0,2 L-2.22044605e-16,2 C-3.57315355e-16,0.8954305 0.8954305,-1.91384796e-17 2,-2.22044605e-16 Z" id="Rectangle-15"></path>
                                    <path d="M26,47 L34,47 L34,47 C35.1045695,47 36,47.8954305 36,49 L36,251 L24,251 L24,49 L24,49 C24,47.8954305 24.8954305,47 26,47 Z" id="Rectangle-15-Copy"></path>
                                    <path d="M50,95 L58,95 L58,95 C59.1045695,95 60,95.8954305 60,97 L60,251 L48,251 L48,97 L48,97 C48,95.8954305 48.8954305,95 50,95 Z" id="Rectangle-15-Copy-2"></path>
                                    <path d="M74,137 L82,137 L82,137 C83.1045695,137 84,137.895431 84,139 L84,251 L72,251 L72,139 L72,139 C72,137.895431 72.8954305,137 74,137 Z" id="Rectangle-15-Copy-3"></path>
                                    <path d="M98,173 L106,173 L106,173 C107.104569,173 108,173.895431 108,175 L108,251 L96,251 L96,175 L96,175 C96,173.895431 96.8954305,173 98,173 Z" id="Rectangle-15-Copy-4"></path>
                                </g>
                                <g id="Group-23-Copy" transform="translate(173.000000, 125.500000) scale(-1, 1) translate(-173.000000, -125.500000) translate(119.000000, 0.000000)">
                                    <path d="M2,0 L10,0 L10,-2.22044605e-16 C11.1045695,-4.2495073e-16 12,0.8954305 12,2 L12,251 L0,251 L0,2 L-2.22044605e-16,2 C-3.57315355e-16,0.8954305 0.8954305,-1.91384796e-17 2,-2.22044605e-16 Z" id="Rectangle-15"></path>
                                    <path d="M26,47 L34,47 L34,47 C35.1045695,47 36,47.8954305 36,49 L36,251 L24,251 L24,49 L24,49 C24,47.8954305 24.8954305,47 26,47 Z" id="Rectangle-15-Copy"></path>
                                    <path d="M50,95 L58,95 L58,95 C59.1045695,95 60,95.8954305 60,97 L60,251 L48,251 L48,97 L48,97 C48,95.8954305 48.8954305,95 50,95 Z" id="Rectangle-15-Copy-2"></path>
                                    <path d="M74,137 L82,137 L82,137 C83.1045695,137 84,137.895431 84,139 L84,251 L72,251 L72,139 L72,139 C72,137.895431 72.8954305,137 74,137 Z" id="Rectangle-15-Copy-3"></path>
                                    <path d="M98,173 L106,173 L106,173 C107.104569,173 108,173.895431 108,175 L108,251 L96,251 L96,175 L96,175 C96,173.895431 96.8954305,173 98,173 Z" id="Rectangle-15-Copy-4"></path>
                                </g>
                            </g>
                            <g id="Group-24-Copy" transform="translate(237.000000, 0.000000)">
                                <g id="Group-23">
                                    <path d="M2,0 L10,0 L10,-2.22044605e-16 C11.1045695,-4.2495073e-16 12,0.8954305 12,2 L12,251 L0,251 L0,2 L-2.22044605e-16,2 C-3.57315355e-16,0.8954305 0.8954305,-1.91384796e-17 2,-2.22044605e-16 Z" id="Rectangle-15"></path>
                                    <path d="M26,47 L34,47 L34,47 C35.1045695,47 36,47.8954305 36,49 L36,251 L24,251 L24,49 L24,49 C24,47.8954305 24.8954305,47 26,47 Z" id="Rectangle-15-Copy"></path>
                                    <path d="M50,95 L58,95 L58,95 C59.1045695,95 60,95.8954305 60,97 L60,251 L48,251 L48,97 L48,97 C48,95.8954305 48.8954305,95 50,95 Z" id="Rectangle-15-Copy-2"></path>
                                    <path d="M74,137 L82,137 L82,137 C83.1045695,137 84,137.895431 84,139 L84,251 L72,251 L72,139 L72,139 C72,137.895431 72.8954305,137 74,137 Z" id="Rectangle-15-Copy-3"></path>
                                    <path d="M98,173 L106,173 L106,173 C107.104569,173 108,173.895431 108,175 L108,251 L96,251 L96,175 L96,175 C96,173.895431 96.8954305,173 98,173 Z" id="Rectangle-15-Copy-4"></path>
                                </g>
                                <g id="Group-23-Copy" transform="translate(173.000000, 125.500000) scale(-1, 1) translate(-173.000000, -125.500000) translate(119.000000, 0.000000)">
                                    <path d="M2,0 L10,0 L10,-2.22044605e-16 C11.1045695,-4.2495073e-16 12,0.8954305 12,2 L12,251 L0,251 L0,2 L-2.22044605e-16,2 C-3.57315355e-16,0.8954305 0.8954305,-1.91384796e-17 2,-2.22044605e-16 Z" id="Rectangle-15"></path>
                                    <path d="M26,47 L34,47 L34,47 C35.1045695,47 36,47.8954305 36,49 L36,251 L24,251 L24,49 L24,49 C24,47.8954305 24.8954305,47 26,47 Z" id="Rectangle-15-Copy"></path>
                                    <path d="M50,95 L58,95 L58,95 C59.1045695,95 60,95.8954305 60,97 L60,251 L48,251 L48,97 L48,97 C48,95.8954305 48.8954305,95 50,95 Z" id="Rectangle-15-Copy-2"></path>
                                    <path d="M74,137 L82,137 L82,137 C83.1045695,137 84,137.895431 84,139 L84,251 L72,251 L72,139 L72,139 C72,137.895431 72.8954305,137 74,137 Z" id="Rectangle-15-Copy-3"></path>
                                    <path d="M98,173 L106,173 L106,173 C107.104569,173 108,173.895431 108,175 L108,251 L96,251 L96,175 L96,175 C96,173.895431 96.8954305,173 98,173 Z" id="Rectangle-15-Copy-4"></path>
                                </g>
                            </g>
                        </g>
                        <g id="Group-25-Copy-2" transform="translate(952.000000, 0.000000)">
                            <g id="Group-24">
                                <g id="Group-23">
                                    <path d="M2,0 L10,0 L10,-2.22044605e-16 C11.1045695,-4.2495073e-16 12,0.8954305 12,2 L12,251 L0,251 L0,2 L-2.22044605e-16,2 C-3.57315355e-16,0.8954305 0.8954305,-1.91384796e-17 2,-2.22044605e-16 Z" id="Rectangle-15"></path>
                                    <path d="M26,47 L34,47 L34,47 C35.1045695,47 36,47.8954305 36,49 L36,251 L24,251 L24,49 L24,49 C24,47.8954305 24.8954305,47 26,47 Z" id="Rectangle-15-Copy"></path>
                                    <path d="M50,95 L58,95 L58,95 C59.1045695,95 60,95.8954305 60,97 L60,251 L48,251 L48,97 L48,97 C48,95.8954305 48.8954305,95 50,95 Z" id="Rectangle-15-Copy-2"></path>
                                    <path d="M74,137 L82,137 L82,137 C83.1045695,137 84,137.895431 84,139 L84,251 L72,251 L72,139 L72,139 C72,137.895431 72.8954305,137 74,137 Z" id="Rectangle-15-Copy-3"></path>
                                    <path d="M98,173 L106,173 L106,173 C107.104569,173 108,173.895431 108,175 L108,251 L96,251 L96,175 L96,175 C96,173.895431 96.8954305,173 98,173 Z" id="Rectangle-15-Copy-4"></path>
                                </g>
                                <g id="Group-23-Copy" transform="translate(173.000000, 125.500000) scale(-1, 1) translate(-173.000000, -125.500000) translate(119.000000, 0.000000)">
                                    <path d="M2,0 L10,0 L10,-2.22044605e-16 C11.1045695,-4.2495073e-16 12,0.8954305 12,2 L12,251 L0,251 L0,2 L-2.22044605e-16,2 C-3.57315355e-16,0.8954305 0.8954305,-1.91384796e-17 2,-2.22044605e-16 Z" id="Rectangle-15"></path>
                                    <path d="M26,47 L34,47 L34,47 C35.1045695,47 36,47.8954305 36,49 L36,251 L24,251 L24,49 L24,49 C24,47.8954305 24.8954305,47 26,47 Z" id="Rectangle-15-Copy"></path>
                                    <path d="M50,95 L58,95 L58,95 C59.1045695,95 60,95.8954305 60,97 L60,251 L48,251 L48,97 L48,97 C48,95.8954305 48.8954305,95 50,95 Z" id="Rectangle-15-Copy-2"></path>
                                    <path d="M74,137 L82,137 L82,137 C83.1045695,137 84,137.895431 84,139 L84,251 L72,251 L72,139 L72,139 C72,137.895431 72.8954305,137 74,137 Z" id="Rectangle-15-Copy-3"></path>
                                    <path d="M98,173 L106,173 L106,173 C107.104569,173 108,173.895431 108,175 L108,251 L96,251 L96,175 L96,175 C96,173.895431 96.8954305,173 98,173 Z" id="Rectangle-15-Copy-4"></path>
                                </g>
                            </g>
                            <g id="Group-24-Copy" transform="translate(237.000000, 0.000000)">
                                <g id="Group-23">
                                    <path d="M2,0 L10,0 L10,-2.22044605e-16 C11.1045695,-4.2495073e-16 12,0.8954305 12,2 L12,251 L0,251 L0,2 L-2.22044605e-16,2 C-3.57315355e-16,0.8954305 0.8954305,-1.91384796e-17 2,-2.22044605e-16 Z" id="Rectangle-15"></path>
                                    <path d="M26,47 L34,47 L34,47 C35.1045695,47 36,47.8954305 36,49 L36,251 L24,251 L24,49 L24,49 C24,47.8954305 24.8954305,47 26,47 Z" id="Rectangle-15-Copy"></path>
                                    <path d="M50,95 L58,95 L58,95 C59.1045695,95 60,95.8954305 60,97 L60,251 L48,251 L48,97 L48,97 C48,95.8954305 48.8954305,95 50,95 Z" id="Rectangle-15-Copy-2"></path>
                                    <path d="M74,137 L82,137 L82,137 C83.1045695,137 84,137.895431 84,139 L84,251 L72,251 L72,139 L72,139 C72,137.895431 72.8954305,137 74,137 Z" id="Rectangle-15-Copy-3"></path>
                                    <path d="M98,173 L106,173 L106,173 C107.104569,173 108,173.895431 108,175 L108,251 L96,251 L96,175 L96,175 C96,173.895431 96.8954305,173 98,173 Z" id="Rectangle-15-Copy-4"></path>
                                </g>
                                <g id="Group-23-Copy" transform="translate(173.000000, 125.500000) scale(-1, 1) translate(-173.000000, -125.500000) translate(119.000000, 0.000000)">
                                    <path d="M2,0 L10,0 L10,-2.22044605e-16 C11.1045695,-4.2495073e-16 12,0.8954305 12,2 L12,251 L0,251 L0,2 L-2.22044605e-16,2 C-3.57315355e-16,0.8954305 0.8954305,-1.91384796e-17 2,-2.22044605e-16 Z" id="Rectangle-15"></path>
                                    <path d="M26,47 L34,47 L34,47 C35.1045695,47 36,47.8954305 36,49 L36,251 L24,251 L24,49 L24,49 C24,47.8954305 24.8954305,47 26,47 Z" id="Rectangle-15-Copy"></path>
                                    <path d="M50,95 L58,95 L58,95 C59.1045695,95 60,95.8954305 60,97 L60,251 L48,251 L48,97 L48,97 C48,95.8954305 48.8954305,95 50,95 Z" id="Rectangle-15-Copy-2"></path>
                                    <path d="M74,137 L82,137 L82,137 C83.1045695,137 84,137.895431 84,139 L84,251 L72,251 L72,139 L72,139 C72,137.895431 72.8954305,137 74,137 Z" id="Rectangle-15-Copy-3"></path>
                                    <path d="M98,173 L106,173 L106,173 C107.104569,173 108,173.895431 108,175 L108,251 L96,251 L96,175 L96,175 C96,173.895431 96.8954305,173 98,173 Z" id="Rectangle-15-Copy-4"></path>
                                </g>
                            </g>
                        </g>
                    </g>
                    <rect id="Rectangle-16" fill="url(#linearGradient-1)" x="0" y="303" width="1440" height="242"></rect>
                </g>
            </g>
        </g>
    </g>
</svg>