<?xml version="1.0" encoding="UTF-8"?>
<svg width="118px" height="29px" viewBox="0 0 118 29" version="1.1" xmlns="http://www.w3.org/2000/svg" xmlns:xlink="http://www.w3.org/1999/xlink">
    <!-- Generator: Sketch 46 (44423) - http://www.bohemiancoding.com/sketch -->
    <title>bt-og-en2</title>
    <desc>Created with Sketch.</desc>
    <defs>
        <linearGradient x1="50%" y1="0%" x2="50%" y2="100%" id="linearGradient-1">
            <stop stop-color="#2DA8F5" offset="0%"></stop>
            <stop stop-color="#2E7BE6" offset="100%"></stop>
        </linearGradient>
        <path d="M4.29032258,-1.34728383e-15 L112.290323,-1.34728383e-15 L112.290323,-6.21724894e-15 C114.499462,-6.62306581e-15 116.290323,1.790861 116.290323,4 L116.290323,23 L116.290323,23 C116.290323,25.209139 114.499462,27 112.290323,27 L4.29032258,27 L4.29032258,27 C2.08118358,27 0.290322581,25.209139 0.290322581,23 L0.290322581,4 L0.290322581,4 C0.290322581,1.790861 2.08118358,-1.37053997e-15 4.29032258,-1.77635684e-15 Z" id="path-2"></path>
    </defs>
    <g id="Page-1" stroke="none" stroke-width="1" fill="none" fill-rule="evenodd">
        <g id="按钮状态" transform="translate(-183.000000, -62.000000)">
            <g id="bt-og-en2" transform="translate(184.000000, 63.000000)">
                <g id="Rectangle-3">
                    <use fill="url(#linearGradient-1)" fill-rule="evenodd" xlink:href="#path-2"></use>
                    <path stroke="#0C57BA" stroke-width="0.5" d="M4.29032258,-0.25 L112.290323,-0.25 C114.637533,-0.25 116.540323,1.65278981 116.540323,4 L116.540323,23 C116.540323,25.3472102 114.637533,27.25 112.290323,27.25 L4.29032258,27.25 C1.94311239,27.25 0.0403225806,25.3472102 0.0403225806,23 L0.0403225806,4 C0.0403225806,1.65278981 1.94311239,-0.25 4.29032258,-0.25 Z"></path>
                </g>
                <path d="M14.423,8.536 C15.801,8.536 16.906,8.991 17.712,9.927 C18.466,10.811 18.856,11.955 18.856,13.372 C18.856,14.776 18.466,15.907 17.712,16.791 C16.906,17.714 15.801,18.182 14.41,18.182 C13.019,18.182 11.927,17.714 11.121,16.791 C10.354,15.907 9.977,14.763 9.977,13.372 C9.977,11.968 10.354,10.824 11.121,9.94 C11.927,9.004 13.019,8.536 14.423,8.536 Z M14.423,9.485 C13.357,9.485 12.512,9.849 11.901,10.59 C11.329,11.292 11.043,12.215 11.043,13.372 C11.043,14.516 11.329,15.439 11.901,16.141 C12.499,16.869 13.344,17.233 14.41,17.233 C15.476,17.233 16.321,16.869 16.919,16.167 C17.491,15.465 17.79,14.542 17.79,13.372 C17.79,12.189 17.491,11.253 16.919,10.551 C16.321,9.836 15.489,9.485 14.423,9.485 Z M23.419,11.097 C24.381,11.097 25.148,11.448 25.707,12.176 C26.214,12.826 26.474,13.645 26.474,14.659 C26.474,15.647 26.214,16.466 25.72,17.116 C25.174,17.818 24.433,18.182 23.471,18.182 C22.509,18.182 21.768,17.714 21.248,16.778 L21.248,20.574 L20.208,20.574 L20.208,11.279 L21.183,11.279 L21.183,12.384 C21.664,11.526 22.405,11.097 23.419,11.097 Z M23.289,11.955 C22.613,11.955 22.08,12.215 21.716,12.748 C21.378,13.216 21.209,13.84 21.209,14.594 L21.209,14.724 C21.209,15.504 21.391,16.128 21.781,16.609 C22.145,17.077 22.626,17.324 23.25,17.324 C23.978,17.324 24.524,17.064 24.901,16.57 C25.239,16.102 25.408,15.465 25.408,14.659 C25.408,13.866 25.239,13.229 24.927,12.761 C24.55,12.215 24.004,11.955 23.289,11.955 Z M30.595,11.097 C31.674,11.097 32.493,11.461 33.039,12.189 C33.533,12.839 33.793,13.762 33.819,14.932 L28.515,14.932 C28.567,15.686 28.762,16.271 29.126,16.687 C29.49,17.103 29.997,17.311 30.634,17.311 C31.18,17.311 31.635,17.168 31.973,16.895 C32.259,16.661 32.48,16.31 32.649,15.842 L33.689,15.842 C33.533,16.492 33.234,17.012 32.779,17.428 C32.22,17.922 31.505,18.182 30.634,18.182 C29.672,18.182 28.892,17.857 28.32,17.233 C27.722,16.583 27.436,15.725 27.436,14.633 C27.436,13.645 27.709,12.813 28.281,12.15 C28.853,11.448 29.62,11.097 30.595,11.097 Z M30.621,11.968 C30.023,11.968 29.542,12.163 29.178,12.553 C28.814,12.943 28.606,13.463 28.541,14.126 L32.74,14.126 C32.61,12.683 31.895,11.968 30.621,11.968 Z M37.992,11.097 C37.524,11.097 37.121,11.24 36.77,11.526 C36.484,11.747 36.25,12.059 36.068,12.449 L36.068,11.279 L35.041,11.279 L35.041,18 L36.068,18 L36.068,14.438 C36.068,13.814 36.237,13.281 36.601,12.839 C36.952,12.371 37.394,12.15 37.914,12.15 C38.239,12.15 38.577,12.189 38.915,12.293 L38.915,11.253 C38.668,11.149 38.356,11.097 37.992,11.097 Z M42.711,11.097 C43.673,11.097 44.375,11.344 44.843,11.851 C45.233,12.293 45.441,12.904 45.441,13.684 L45.441,18 L44.466,18 L44.466,16.869 C44.206,17.233 43.855,17.532 43.439,17.766 C42.945,18.039 42.386,18.182 41.762,18.182 C41.086,18.182 40.553,18.013 40.15,17.675 C39.734,17.324 39.526,16.869 39.526,16.323 C39.526,15.556 39.825,14.984 40.449,14.594 C40.995,14.23 41.775,14.035 42.789,14.022 L44.401,13.996 L44.401,13.645 C44.401,12.514 43.816,11.955 42.646,11.955 C42.152,11.955 41.749,12.046 41.437,12.254 C41.086,12.462 40.865,12.787 40.761,13.216 L39.734,13.138 C39.877,12.436 40.228,11.903 40.774,11.565 C41.268,11.253 41.905,11.097 42.711,11.097 Z M44.401,14.776 L42.854,14.802 C41.346,14.828 40.592,15.322 40.592,16.297 C40.592,16.609 40.709,16.856 40.969,17.064 C41.229,17.259 41.567,17.363 41.983,17.363 C42.62,17.363 43.179,17.155 43.673,16.739 C44.154,16.336 44.401,15.868 44.401,15.348 L44.401,14.776 Z M48.847,9.108 L47.82,9.537 L47.82,11.279 L46.468,11.279 L46.468,12.15 L47.82,12.15 L47.82,16.427 C47.82,16.934 47.924,17.311 48.145,17.571 C48.379,17.857 48.782,18 49.328,18 L50.342,18 L50.342,17.129 L49.484,17.129 C49.25,17.129 49.081,17.064 48.99,16.96 C48.886,16.856 48.847,16.674 48.847,16.427 L48.847,12.15 L50.511,12.15 L50.511,11.279 L48.847,11.279 L48.847,9.108 Z M52.526,8.744 C52.305,8.744 52.123,8.809 51.967,8.965 C51.811,9.095 51.746,9.277 51.746,9.511 C51.746,9.732 51.811,9.914 51.967,10.07 C52.123,10.213 52.305,10.291 52.526,10.291 C52.747,10.291 52.929,10.213 53.085,10.07 C53.241,9.914 53.319,9.732 53.319,9.511 C53.319,9.277 53.241,9.095 53.085,8.965 C52.929,8.809 52.747,8.744 52.526,8.744 Z M52.006,11.279 L52.006,18 L53.046,18 L53.046,11.279 L52.006,11.279 Z M57.999,11.097 C59,11.097 59.806,11.435 60.404,12.137 C60.976,12.8 61.262,13.632 61.262,14.646 C61.262,15.647 60.976,16.479 60.417,17.129 C59.806,17.831 59,18.182 57.999,18.182 C56.985,18.182 56.192,17.831 55.594,17.129 C55.022,16.479 54.736,15.647 54.736,14.646 C54.736,13.632 55.022,12.8 55.594,12.137 C56.192,11.435 56.985,11.097 57.999,11.097 Z M57.999,11.968 C57.284,11.968 56.725,12.241 56.335,12.787 C55.971,13.281 55.802,13.892 55.802,14.646 C55.802,15.387 55.971,15.998 56.335,16.492 C56.725,17.038 57.284,17.311 57.999,17.311 C58.701,17.311 59.26,17.038 59.676,16.492 C60.027,15.998 60.209,15.374 60.209,14.646 C60.209,13.892 60.027,13.281 59.676,12.787 C59.26,12.241 58.701,11.968 57.999,11.968 Z M65.76,11.097 C65.318,11.097 64.915,11.201 64.551,11.409 C64.187,11.604 63.888,11.89 63.654,12.267 L63.654,11.279 L62.614,11.279 L62.614,18 L63.654,18 L63.654,13.944 C63.693,13.333 63.888,12.852 64.252,12.488 C64.59,12.15 64.993,11.981 65.461,11.981 C66.631,11.981 67.229,12.631 67.229,13.944 L67.229,18 L68.269,18 L68.269,13.866 C68.269,12.02 67.424,11.097 65.76,11.097 Z M78.305,8.536 C76.94,8.536 75.861,9.017 75.068,9.992 C74.314,10.889 73.95,12.02 73.95,13.398 C73.95,14.776 74.327,15.907 75.081,16.778 C75.887,17.714 77.031,18.182 78.5,18.182 C79.267,18.182 79.982,18.078 80.658,17.87 C81.295,17.662 81.841,17.389 82.283,17.025 L82.283,13.229 L78.318,13.229 L78.318,14.152 L81.23,14.152 L81.23,16.518 C80.905,16.726 80.515,16.908 80.06,17.038 C79.592,17.168 79.111,17.246 78.604,17.246 C77.395,17.246 76.485,16.882 75.874,16.167 C75.302,15.491 75.016,14.568 75.016,13.398 C75.016,12.202 75.302,11.253 75.9,10.551 C76.498,9.836 77.291,9.485 78.305,9.485 C79.124,9.485 79.787,9.68 80.294,10.083 C80.775,10.46 81.087,10.993 81.23,11.695 L82.296,11.695 C82.127,10.681 81.724,9.914 81.074,9.381 C80.385,8.809 79.462,8.536 78.305,8.536 Z M83.934,11.279 L83.934,15.439 C83.934,17.259 84.74,18.182 86.378,18.182 C87.288,18.182 88.016,17.766 88.562,16.96 L88.562,18 L89.602,18 L89.602,11.279 L88.562,11.279 L88.562,15.374 C88.484,15.946 88.263,16.414 87.899,16.778 C87.548,17.116 87.145,17.298 86.703,17.298 C86.092,17.298 85.65,17.129 85.377,16.817 C85.104,16.505 84.974,16.024 84.974,15.387 L84.974,11.279 L83.934,11.279 Z M92.072,8.744 C91.851,8.744 91.669,8.809 91.513,8.965 C91.357,9.095 91.292,9.277 91.292,9.511 C91.292,9.732 91.357,9.914 91.513,10.07 C91.669,10.213 91.851,10.291 92.072,10.291 C92.293,10.291 92.475,10.213 92.631,10.07 C92.787,9.914 92.865,9.732 92.865,9.511 C92.865,9.277 92.787,9.095 92.631,8.965 C92.475,8.809 92.293,8.744 92.072,8.744 Z M91.552,11.279 L91.552,18 L92.592,18 L92.592,11.279 L91.552,11.279 Z M99.508,8.536 L100.548,8.536 L100.548,18 L99.573,18 L99.573,16.895 C99.105,17.753 98.351,18.182 97.337,18.182 C96.349,18.182 95.582,17.818 95.036,17.116 C94.529,16.466 94.282,15.634 94.282,14.62 C94.282,13.632 94.529,12.826 95.036,12.176 C95.582,11.448 96.323,11.097 97.285,11.097 C98.247,11.097 98.988,11.565 99.508,12.514 L99.508,8.536 Z M97.506,11.955 C96.765,11.955 96.206,12.215 95.842,12.735 C95.504,13.19 95.348,13.814 95.348,14.62 C95.348,15.426 95.504,16.063 95.829,16.531 C96.193,17.051 96.739,17.324 97.467,17.324 C98.143,17.324 98.663,17.064 99.04,16.544 C99.365,16.076 99.534,15.465 99.534,14.711 L99.534,14.581 C99.534,13.801 99.339,13.164 98.975,12.683 C98.598,12.189 98.104,11.955 97.506,11.955 Z M104.929,11.097 C106.008,11.097 106.827,11.461 107.373,12.189 C107.867,12.839 108.127,13.762 108.153,14.932 L102.849,14.932 C102.901,15.686 103.096,16.271 103.46,16.687 C103.824,17.103 104.331,17.311 104.968,17.311 C105.514,17.311 105.969,17.168 106.307,16.895 C106.593,16.661 106.814,16.31 106.983,15.842 L108.023,15.842 C107.867,16.492 107.568,17.012 107.113,17.428 C106.554,17.922 105.839,18.182 104.968,18.182 C104.006,18.182 103.226,17.857 102.654,17.233 C102.056,16.583 101.77,15.725 101.77,14.633 C101.77,13.645 102.043,12.813 102.615,12.15 C103.187,11.448 103.954,11.097 104.929,11.097 Z M104.955,11.968 C104.357,11.968 103.876,12.163 103.512,12.553 C103.148,12.943 102.94,13.463 102.875,14.126 L107.074,14.126 C106.944,12.683 106.229,11.968 104.955,11.968 Z" id="Operation-Guide" fill="#FFFFFF"></path>
                <path d="M4.29032258,-1.34728383e-15 L112.290323,-1.34728383e-15 L112.290323,-5.32907052e-15 C114.499462,-5.73488739e-15 116.290323,1.790861 116.290323,4 L116.290323,23 L116.290323,23 C116.290323,25.209139 114.499462,27 112.290323,27 L4.29032258,27 L4.29032258,27 C2.08118358,27 0.290322581,25.209139 0.290322581,23 L0.290322581,4 L0.290322581,4 C0.290322581,1.790861 2.08118358,-1.37053997e-15 4.29032258,-1.77635684e-15 Z" id="Rectangle-3-Copy" fill="#0D2A50" opacity="0.200000003"></path>
            </g>
        </g>
    </g>
</svg>