<?xml version="1.0" encoding="UTF-8"?>
<svg width="94px" height="41px" viewBox="0 0 94 41" version="1.1" xmlns="http://www.w3.org/2000/svg" xmlns:xlink="http://www.w3.org/1999/xlink">
    <!-- Generator: Sketch 46 (44423) - http://www.bohemiancoding.com/sketch -->
    <title>btn-home-en1</title>
    <desc>Created with Sketch.</desc>
    <defs></defs>
    <g id="Page-1" stroke="none" stroke-width="1" fill="none" fill-rule="evenodd">
        <g id="btn-home-en1">
            <g id="Group-43">
                <rect id="Rectangle-23" fill-opacity="0.01" fill="#FFFFFF" x="0" y="0" width="94" height="41"></rect>
                <path d="M24,15.224 L24,26.648 L25.312,26.648 L25.312,21.32 L31.92,21.32 L31.92,26.648 L33.232,26.648 L33.232,15.224 L31.92,15.224 L31.92,20.184 L25.312,20.184 L25.312,15.224 L24,15.224 Z M40.512,15 C42.208,15 43.568,15.56 44.56,16.712 C45.488,17.8 45.968,19.208 45.968,20.952 C45.968,22.68 45.488,24.072 44.56,25.16 C43.568,26.296 42.208,26.872 40.496,26.872 C38.784,26.872 37.44,26.296 36.448,25.16 C35.504,24.072 35.04,22.664 35.04,20.952 C35.04,19.224 35.504,17.816 36.448,16.728 C37.44,15.576 38.784,15 40.512,15 Z M40.512,16.168 C39.2,16.168 38.16,16.616 37.408,17.528 C36.704,18.392 36.352,19.528 36.352,20.952 C36.352,22.36 36.704,23.496 37.408,24.36 C38.144,25.256 39.184,25.704 40.496,25.704 C41.808,25.704 42.848,25.256 43.584,24.392 C44.288,23.528 44.656,22.392 44.656,20.952 C44.656,19.496 44.288,18.344 43.584,17.48 C42.848,16.6 41.824,16.168 40.512,16.168 Z M47.792,15.224 L47.792,26.648 L49.104,26.648 L49.104,17.56 L49.152,17.56 L53.104,26.648 L54.288,26.648 L58.24,17.56 L58.288,17.56 L58.288,26.648 L59.6,26.648 L59.6,15.224 L57.968,15.224 L53.728,24.968 L53.68,24.968 L49.424,15.224 L47.792,15.224 Z M61.904,15.224 L61.904,26.648 L70.272,26.648 L70.272,25.512 L63.216,25.512 L63.216,21.32 L69.616,21.32 L69.616,20.184 L63.216,20.184 L63.216,16.36 L70,16.36 L70,15.224 L61.904,15.224 Z" id="HOME" fill="#2E91EE"></path>
            </g>
        </g>
    </g>
</svg>