<?xml version="1.0" encoding="UTF-8"?>
<svg width="94px" height="41px" viewBox="0 0 94 41" version="1.1" xmlns="http://www.w3.org/2000/svg" xmlns:xlink="http://www.w3.org/1999/xlink">
    <!-- Generator: Sketch 46 (44423) - http://www.bohemiancoding.com/sketch -->
    <title>btn-home-en2</title>
    <desc>Created with Sketch.</desc>
    <defs></defs>
    <g id="Page-1" stroke="none" stroke-width="1" fill="none" fill-rule="evenodd">
        <g id="btn-home-en2">
            <g id="Group-42">
                <rect id="Rectangle-23-Copy" fill-opacity="0.01" fill="#FFFFFF" x="0" y="0" width="94" height="41"></rect>
                <path d="M24,15.224 L24,26.648 L24.976,26.648 L24.976,21.176 L32.064,21.176 L32.064,26.648 L33.04,26.648 L33.04,15.224 L32.064,15.224 L32.064,20.296 L24.976,20.296 L24.976,15.224 L24,15.224 Z M40.32,15 C42,15 43.328,15.576 44.32,16.728 C45.248,17.816 45.712,19.208 45.712,20.936 C45.712,22.664 45.248,24.072 44.32,25.16 C43.328,26.296 42,26.872 40.304,26.872 C38.608,26.872 37.264,26.296 36.288,25.144 C35.36,24.056 34.896,22.648 34.896,20.936 C34.896,19.224 35.36,17.816 36.288,16.728 C37.28,15.576 38.624,15 40.32,15 Z M40.32,15.896 C38.928,15.896 37.824,16.376 37.024,17.336 C36.256,18.264 35.872,19.464 35.872,20.936 C35.872,22.424 36.24,23.624 37.008,24.536 C37.808,25.496 38.912,25.976 40.304,25.976 C41.696,25.976 42.784,25.496 43.584,24.552 C44.352,23.64 44.736,22.44 44.736,20.936 C44.736,19.432 44.352,18.216 43.584,17.32 C42.784,16.36 41.696,15.896 40.32,15.896 Z M47.568,15.224 L47.568,26.648 L48.544,26.648 L48.544,16.84 L48.608,16.84 L52.88,26.648 L53.824,26.648 L58.112,16.84 L58.16,16.84 L58.16,26.648 L59.136,26.648 L59.136,15.224 L57.84,15.224 L53.392,25.416 L53.344,25.416 L48.864,15.224 L47.568,15.224 Z M61.472,15.224 L61.472,26.648 L69.76,26.648 L69.76,25.784 L62.448,25.784 L62.448,21.176 L69.104,21.176 L69.104,20.296 L62.448,20.296 L62.448,16.088 L69.488,16.088 L69.488,15.224 L61.472,15.224 Z" id="HOME-Copy" fill="#707070"></path>
            </g>
        </g>
    </g>
</svg>