<?xml version="1.0" encoding="UTF-8"?>
<svg width="128px" height="40px" viewBox="0 0 128 40" version="1.1" xmlns="http://www.w3.org/2000/svg" xmlns:xlink="http://www.w3.org/1999/xlink">
    <!-- Generator: Sketch 46 (44423) - http://www.bohemiancoding.com/sketch -->
    <title>btn-watch-en2</title>
    <desc>Created with Sketch.</desc>
    <defs>
        <linearGradient x1="5.96008301%" y1="0%" x2="100%" y2="100%" id="linearGradient-1">
            <stop stop-color="#5BC4F8" offset="0%"></stop>
            <stop stop-color="#2E91EE" offset="100%"></stop>
        </linearGradient>
    </defs>
    <g id="Page-1" stroke="none" stroke-width="1" fill="none" fill-rule="evenodd">
        <g id="按钮状态" transform="translate(-689.000000, -57.000000)">
            <g id="btn-watch-en2" transform="translate(689.000000, 57.000000)">
                <rect id="Rectangle-4" fill="url(#linearGradient-1)" x="0" y="0" width="128" height="40"></rect>
                <rect id="Rectangle-4" fill="#0D2A50" opacity="0.200000003" x="0" y="0" width="128" height="40"></rect>
                <path d="M16.864,14.576 L20.144,26 L21.6,26 L24.208,16.48 L24.256,16.48 L26.848,26 L28.304,26 L31.584,14.576 L30.112,14.576 L27.6,24.16 L27.536,24.16 L24.944,14.576 L23.52,14.576 L20.912,24.16 L20.848,24.16 L18.336,14.576 L16.864,14.576 Z M36.256,17.504 C37.44,17.504 38.304,17.808 38.88,18.432 C39.36,18.976 39.616,19.728 39.616,20.688 L39.616,26 L38.416,26 L38.416,24.608 C38.096,25.056 37.664,25.424 37.152,25.712 C36.544,26.048 35.856,26.224 35.088,26.224 C34.256,26.224 33.6,26.016 33.104,25.6 C32.592,25.168 32.336,24.608 32.336,23.936 C32.336,22.992 32.704,22.288 33.472,21.808 C34.144,21.36 35.104,21.12 36.352,21.104 L38.336,21.072 L38.336,20.64 C38.336,19.248 37.616,18.56 36.176,18.56 C35.568,18.56 35.072,18.672 34.688,18.928 C34.256,19.184 33.984,19.584 33.856,20.112 L32.592,20.016 C32.768,19.152 33.2,18.496 33.872,18.08 C34.48,17.696 35.264,17.504 36.256,17.504 Z M38.336,22.032 L36.432,22.064 C34.576,22.096 33.648,22.704 33.648,23.904 C33.648,24.288 33.792,24.592 34.112,24.848 C34.432,25.088 34.848,25.216 35.36,25.216 C36.144,25.216 36.832,24.96 37.44,24.448 C38.032,23.952 38.336,23.376 38.336,22.736 L38.336,22.032 Z M43.808,15.056 L42.544,15.584 L42.544,17.728 L40.88,17.728 L40.88,18.8 L42.544,18.8 L42.544,24.064 C42.544,24.688 42.672,25.152 42.944,25.472 C43.232,25.824 43.728,26 44.4,26 L45.648,26 L45.648,24.928 L44.592,24.928 C44.304,24.928 44.096,24.848 43.984,24.72 C43.856,24.592 43.808,24.368 43.808,24.064 L43.808,18.8 L45.856,18.8 L45.856,17.728 L43.808,17.728 L43.808,15.056 Z M50.848,17.504 C49.616,17.504 48.64,17.936 47.936,18.816 C47.28,19.616 46.96,20.64 46.96,21.904 C46.96,23.168 47.28,24.192 47.936,24.976 C48.624,25.808 49.584,26.224 50.832,26.224 C51.856,26.224 52.672,25.952 53.296,25.424 C53.936,24.88 54.336,24.064 54.528,23.008 L53.248,23.008 C53.056,24.432 52.24,25.152 50.832,25.152 C50,25.152 49.36,24.848 48.928,24.272 C48.48,23.696 48.272,22.896 48.272,21.888 C48.272,20.88 48.496,20.08 48.944,19.488 C49.408,18.88 50.048,18.576 50.848,18.576 C51.504,18.576 52.032,18.72 52.448,19.04 C52.848,19.36 53.104,19.84 53.216,20.48 L54.48,20.48 C54.336,19.472 53.952,18.72 53.312,18.224 C52.688,17.744 51.872,17.504 50.848,17.504 Z M56.032,14.352 L56.032,26 L57.312,26 L57.312,21.28 C57.312,20.512 57.52,19.856 57.952,19.344 C58.368,18.832 58.896,18.576 59.536,18.576 C60.224,18.576 60.752,18.784 61.136,19.2 C61.488,19.616 61.68,20.208 61.68,20.976 L61.68,26 L62.96,26 L62.96,20.784 C62.96,19.728 62.704,18.912 62.192,18.352 C61.68,17.776 60.928,17.504 59.968,17.504 C59.408,17.504 58.912,17.632 58.464,17.888 C57.984,18.16 57.6,18.56 57.312,19.088 L57.312,14.352 L56.032,14.352 Z M69.344,14.576 L73.568,26 L75.184,26 L79.408,14.576 L77.968,14.576 L74.4,24.576 L74.352,24.576 L70.784,14.576 L69.344,14.576 Z M81.536,14.608 C81.264,14.608 81.04,14.688 80.848,14.88 C80.656,15.04 80.576,15.264 80.576,15.552 C80.576,15.824 80.656,16.048 80.848,16.24 C81.04,16.416 81.264,16.512 81.536,16.512 C81.808,16.512 82.032,16.416 82.224,16.24 C82.416,16.048 82.512,15.824 82.512,15.552 C82.512,15.264 82.416,15.04 82.224,14.88 C82.032,14.688 81.808,14.608 81.536,14.608 Z M80.896,17.728 L80.896,26 L82.176,26 L82.176,17.728 L80.896,17.728 Z M90.688,14.352 L91.968,14.352 L91.968,26 L90.768,26 L90.768,24.64 C90.192,25.696 89.264,26.224 88.016,26.224 C86.8,26.224 85.856,25.776 85.184,24.912 C84.56,24.112 84.256,23.088 84.256,21.84 C84.256,20.624 84.56,19.632 85.184,18.832 C85.856,17.936 86.768,17.504 87.952,17.504 C89.136,17.504 90.048,18.08 90.688,19.248 L90.688,14.352 Z M88.224,18.56 C87.312,18.56 86.624,18.88 86.176,19.52 C85.76,20.08 85.568,20.848 85.568,21.84 C85.568,22.832 85.76,23.616 86.16,24.192 C86.608,24.832 87.28,25.168 88.176,25.168 C89.008,25.168 89.648,24.848 90.112,24.208 C90.512,23.632 90.72,22.88 90.72,21.952 L90.72,21.792 C90.72,20.832 90.48,20.048 90.032,19.456 C89.568,18.848 88.96,18.56 88.224,18.56 Z M97.36,17.504 C98.688,17.504 99.696,17.952 100.368,18.848 C100.976,19.648 101.296,20.784 101.328,22.224 L94.8,22.224 C94.864,23.152 95.104,23.872 95.552,24.384 C96,24.896 96.624,25.152 97.408,25.152 C98.08,25.152 98.64,24.976 99.056,24.64 C99.408,24.352 99.68,23.92 99.888,23.344 L101.168,23.344 C100.976,24.144 100.608,24.784 100.048,25.296 C99.36,25.904 98.48,26.224 97.408,26.224 C96.224,26.224 95.264,25.824 94.56,25.056 C93.824,24.256 93.472,23.2 93.472,21.856 C93.472,20.64 93.808,19.616 94.512,18.8 C95.216,17.936 96.16,17.504 97.36,17.504 Z M97.392,18.576 C96.656,18.576 96.064,18.816 95.616,19.296 C95.168,19.776 94.912,20.416 94.832,21.232 L100,21.232 C99.84,19.456 98.96,18.576 97.392,18.576 Z M106.528,17.504 C107.76,17.504 108.752,17.92 109.488,18.784 C110.192,19.6 110.544,20.624 110.544,21.872 C110.544,23.104 110.192,24.128 109.504,24.928 C108.752,25.792 107.76,26.224 106.528,26.224 C105.28,26.224 104.304,25.792 103.568,24.928 C102.864,24.128 102.512,23.104 102.512,21.872 C102.512,20.624 102.864,19.6 103.568,18.784 C104.304,17.92 105.28,17.504 106.528,17.504 Z M106.528,18.576 C105.648,18.576 104.96,18.912 104.48,19.584 C104.032,20.192 103.824,20.944 103.824,21.872 C103.824,22.784 104.032,23.536 104.48,24.144 C104.96,24.816 105.648,25.152 106.528,25.152 C107.392,25.152 108.08,24.816 108.592,24.144 C109.024,23.536 109.248,22.768 109.248,21.872 C109.248,20.944 109.024,20.192 108.592,19.584 C108.08,18.912 107.392,18.576 106.528,18.576 Z" id="Watch-Video" fill="#FFFFFF"></path>
            </g>
        </g>
    </g>
</svg>