<?xml version="1.0" encoding="UTF-8"?>
<svg width="255px" height="14px" viewBox="0 0 255 14" version="1.1" xmlns="http://www.w3.org/2000/svg" xmlns:xlink="http://www.w3.org/1999/xlink">
    <!-- Generator: Sketch 46.2 (44496) - http://www.bohemiancoding.com/sketch -->
    <title>Know your skintone b</title>
    <desc>Created with Sketch.</desc>
    <defs></defs>
    <g id="Page-1" stroke="none" stroke-width="1" fill="none" fill-rule="evenodd">
        <g id="首页-英文" transform="translate(-1031.000000, -5584.000000)" fill="#777777">
            <g id="Group-34" transform="translate(0.000000, 5126.000000)">
                <g id="标题" transform="translate(986.000000, 353.000000)">
                    <g id="Group-21" transform="translate(45.000000, 105.000000)">
                        <path d="M7.6,0.29 L1.36,6.17 L1.36,0.29 L0.445,0.29 L0.445,11 L1.36,11 L1.36,7.235 L3.28,5.45 L8.245,11 L9.505,11 L3.91,4.865 L8.83,0.29 L7.6,0.29 Z M13.87,3.035 C13.33,3.035 12.835,3.155 12.4,3.425 C11.965,3.695 11.62,4.055 11.35,4.52 L11.35,3.245 L10.45,3.245 L10.45,11 L11.35,11 L11.35,6.32 C11.395,5.555 11.635,4.94 12.085,4.49 C12.505,4.04 13.015,3.815 13.645,3.815 C15.115,3.815 15.85,4.64 15.85,6.29 L15.85,11 L16.75,11 L16.75,6.23 C16.75,4.1 15.79,3.035 13.87,3.035 Z M22.03,3.035 C23.17,3.035 24.085,3.44 24.775,4.265 C25.405,5.03 25.72,5.99 25.72,7.13 C25.72,8.27 25.405,9.215 24.775,9.98 C24.085,10.79 23.17,11.21 22.03,11.21 C20.89,11.21 19.975,10.79 19.285,9.98 C18.655,9.215 18.34,8.27 18.34,7.13 C18.34,5.99 18.655,5.03 19.3,4.265 C19.975,3.44 20.89,3.035 22.03,3.035 Z M22.03,3.815 C21.145,3.815 20.455,4.145 19.945,4.835 C19.48,5.435 19.255,6.2 19.255,7.13 C19.255,8.045 19.48,8.81 19.945,9.41 C20.455,10.085 21.145,10.43 22.03,10.43 C22.915,10.43 23.62,10.085 24.13,9.41 C24.58,8.795 24.82,8.03 24.82,7.13 C24.82,6.2 24.58,5.435 24.13,4.835 C23.62,4.145 22.915,3.815 22.03,3.815 Z M26.44,3.245 L29.11,11 L29.965,11 L31.945,4.415 L33.895,11 L34.765,11 L37.42,3.245 L36.43,3.245 L34.315,9.845 L32.365,3.245 L31.495,3.245 L29.545,9.845 L27.445,3.245 L26.44,3.245 Z M42.565,3.245 L45.64,10.805 L44.335,13.97 L45.31,13.97 L49.585,3.245 L48.595,3.245 L46.09,9.71 L43.555,3.245 L42.565,3.245 Z M53.995,3.035 C55.135,3.035 56.05,3.44 56.74,4.265 C57.37,5.03 57.685,5.99 57.685,7.13 C57.685,8.27 57.37,9.215 56.74,9.98 C56.05,10.79 55.135,11.21 53.995,11.21 C52.855,11.21 51.94,10.79 51.25,9.98 C50.62,9.215 50.305,8.27 50.305,7.13 C50.305,5.99 50.62,5.03 51.265,4.265 C51.94,3.44 52.855,3.035 53.995,3.035 Z M53.995,3.815 C53.11,3.815 52.42,4.145 51.91,4.835 C51.445,5.435 51.22,6.2 51.22,7.13 C51.22,8.045 51.445,8.81 51.91,9.41 C52.42,10.085 53.11,10.43 53.995,10.43 C54.88,10.43 55.585,10.085 56.095,9.41 C56.545,8.795 56.785,8.03 56.785,7.13 C56.785,6.2 56.545,5.435 56.095,4.835 C55.585,4.145 54.88,3.815 53.995,3.815 Z M59.275,3.245 L59.275,8.03 C59.275,10.145 60.22,11.21 62.11,11.21 C63.22,11.21 64.09,10.7 64.69,9.695 L64.69,11 L65.59,11 L65.59,3.245 L64.69,3.245 L64.69,7.955 C64.63,8.69 64.375,9.29 63.925,9.74 C63.475,10.19 62.95,10.43 62.35,10.43 C61.6,10.43 61.045,10.22 60.685,9.8 C60.34,9.395 60.175,8.795 60.175,7.985 L60.175,3.245 L59.275,3.245 Z M70.735,3.035 C70.165,3.035 69.655,3.215 69.235,3.575 C68.875,3.86 68.59,4.25 68.38,4.73 L68.38,3.245 L67.48,3.245 L67.48,11 L68.38,11 L68.38,6.905 C68.38,6.125 68.575,5.45 68.995,4.88 C69.415,4.25 69.985,3.95 70.675,3.95 C71.065,3.95 71.455,3.995 71.86,4.115 L71.86,3.2 C71.56,3.08 71.185,3.035 70.735,3.035 Z M80.515,3.035 C79.705,3.035 79.015,3.215 78.475,3.59 C77.905,3.98 77.635,4.475 77.635,5.105 C77.635,5.735 77.92,6.23 78.52,6.59 C78.88,6.815 79.51,7.04 80.41,7.28 C81.295,7.505 81.865,7.685 82.135,7.82 C82.645,8.075 82.9,8.435 82.9,8.9 C82.9,9.92 82.15,10.43 80.65,10.43 C79.93,10.43 79.39,10.295 79.03,10.025 C78.64,9.725 78.4,9.23 78.31,8.555 L77.425,8.555 C77.605,10.325 78.685,11.21 80.68,11.21 C82.78,11.21 83.83,10.415 83.83,8.855 C83.83,8.195 83.515,7.67 82.9,7.295 C82.51,7.055 81.835,6.815 80.89,6.575 C80.095,6.365 79.555,6.185 79.255,6.035 C78.79,5.795 78.565,5.48 78.565,5.09 C78.565,4.7 78.745,4.4 79.105,4.16 C79.465,3.92 79.93,3.815 80.5,3.815 C81.19,3.815 81.715,3.95 82.075,4.235 C82.405,4.49 82.615,4.88 82.72,5.42 L83.605,5.42 C83.38,3.83 82.345,3.035 80.515,3.035 Z M85.27,0.08 L85.27,11 L86.17,11 L86.17,8.255 L87.655,6.905 L90.865,11 L92.05,11 L88.3,6.32 L91.705,3.245 L90.475,3.245 L86.17,7.16 L86.17,0.08 L85.27,0.08 Z M93.895,0.455 C93.67,0.455 93.49,0.53 93.355,0.68 C93.205,0.8 93.13,0.98 93.13,1.205 C93.13,1.415 93.205,1.595 93.355,1.745 C93.49,1.88 93.67,1.955 93.895,1.955 C94.105,1.955 94.27,1.88 94.42,1.745 C94.57,1.595 94.66,1.415 94.66,1.205 C94.66,0.98 94.585,0.8 94.435,0.68 C94.285,0.53 94.105,0.455 93.895,0.455 Z M93.445,3.245 L93.445,11 L94.345,11 L94.345,3.245 L93.445,3.245 Z M100.105,3.035 C99.565,3.035 99.07,3.155 98.635,3.425 C98.2,3.695 97.855,4.055 97.585,4.52 L97.585,3.245 L96.685,3.245 L96.685,11 L97.585,11 L97.585,6.32 C97.63,5.555 97.87,4.94 98.32,4.49 C98.74,4.04 99.25,3.815 99.88,3.815 C101.35,3.815 102.085,4.64 102.085,6.29 L102.085,11 L102.985,11 L102.985,6.23 C102.985,4.1 102.025,3.035 100.105,3.035 Z M106.75,0.74 L105.85,1.115 L105.85,3.245 L104.2,3.245 L104.2,4.025 L105.85,4.025 L105.85,9.275 C105.85,9.845 105.955,10.265 106.195,10.535 C106.45,10.835 106.885,11 107.485,11 L108.58,11 L108.58,10.22 L107.605,10.22 C107.275,10.22 107.05,10.145 106.93,10.01 C106.81,9.86 106.75,9.605 106.75,9.275 L106.75,4.025 L108.775,4.025 L108.775,3.245 L106.75,3.245 L106.75,0.74 Z M113.53,3.035 C114.67,3.035 115.585,3.44 116.275,4.265 C116.905,5.03 117.22,5.99 117.22,7.13 C117.22,8.27 116.905,9.215 116.275,9.98 C115.585,10.79 114.67,11.21 113.53,11.21 C112.39,11.21 111.475,10.79 110.785,9.98 C110.155,9.215 109.84,8.27 109.84,7.13 C109.84,5.99 110.155,5.03 110.8,4.265 C111.475,3.44 112.39,3.035 113.53,3.035 Z M113.53,3.815 C112.645,3.815 111.955,4.145 111.445,4.835 C110.98,5.435 110.755,6.2 110.755,7.13 C110.755,8.045 110.98,8.81 111.445,9.41 C111.955,10.085 112.645,10.43 113.53,10.43 C114.415,10.43 115.12,10.085 115.63,9.41 C116.08,8.795 116.32,8.03 116.32,7.13 C116.32,6.2 116.08,5.435 115.63,4.835 C115.12,4.145 114.415,3.815 113.53,3.815 Z M122.23,3.035 C121.69,3.035 121.195,3.155 120.76,3.425 C120.325,3.695 119.98,4.055 119.71,4.52 L119.71,3.245 L118.81,3.245 L118.81,11 L119.71,11 L119.71,6.32 C119.755,5.555 119.995,4.94 120.445,4.49 C120.865,4.04 121.375,3.815 122.005,3.815 C123.475,3.815 124.21,4.64 124.21,6.29 L124.21,11 L125.11,11 L125.11,6.23 C125.11,4.1 124.15,3.035 122.23,3.035 Z M130.135,3.035 C131.365,3.035 132.28,3.44 132.895,4.28 C133.435,5.015 133.735,6.05 133.78,7.385 L127.48,7.385 C127.525,8.33 127.78,9.08 128.245,9.62 C128.725,10.16 129.355,10.43 130.165,10.43 C130.87,10.43 131.44,10.235 131.875,9.875 C132.235,9.56 132.505,9.11 132.7,8.51 L133.615,8.51 C133.435,9.26 133.09,9.875 132.58,10.355 C131.95,10.925 131.155,11.21 130.165,11.21 C129.07,11.21 128.2,10.835 127.555,10.1 C126.88,9.35 126.55,8.345 126.55,7.115 C126.55,5.975 126.865,5.03 127.51,4.25 C128.17,3.44 129.04,3.035 130.135,3.035 Z M130.15,3.815 C129.385,3.815 128.77,4.07 128.305,4.61 C127.84,5.135 127.57,5.81 127.495,6.65 L132.835,6.65 C132.685,4.76 131.785,3.815 130.15,3.815 Z M140.215,0.08 L141.115,0.08 L141.115,4.88 C141.685,3.65 142.585,3.035 143.83,3.035 C144.91,3.035 145.78,3.44 146.41,4.28 C146.98,5.03 147.265,5.975 147.265,7.115 C147.265,8.27 146.98,9.23 146.41,9.98 C145.78,10.79 144.91,11.21 143.8,11.21 C142.51,11.21 141.595,10.625 141.07,9.47 L141.07,11 L140.215,11 L140.215,0.08 Z M143.665,3.8 C142.87,3.8 142.24,4.1 141.775,4.73 C141.31,5.33 141.085,6.095 141.085,7.055 L141.085,7.235 C141.085,8.15 141.295,8.9 141.73,9.485 C142.18,10.115 142.84,10.445 143.695,10.445 C144.565,10.445 145.24,10.115 145.72,9.455 C146.14,8.87 146.35,8.09 146.35,7.115 C146.35,6.14 146.125,5.36 145.705,4.79 C145.225,4.13 144.55,3.8 143.665,3.8 Z M147.985,3.245 L151.06,10.805 L149.755,13.97 L150.73,13.97 L155.005,3.245 L154.015,3.245 L151.51,9.71 L148.975,3.245 L147.985,3.245 Z M161.305,0.08 L161.305,11 L162.205,11 L162.205,0.08 L161.305,0.08 Z M167.515,3.035 C168.745,3.035 169.66,3.44 170.275,4.28 C170.815,5.015 171.115,6.05 171.16,7.385 L164.86,7.385 C164.905,8.33 165.16,9.08 165.625,9.62 C166.105,10.16 166.735,10.43 167.545,10.43 C168.25,10.43 168.82,10.235 169.255,9.875 C169.615,9.56 169.885,9.11 170.08,8.51 L170.995,8.51 C170.815,9.26 170.47,9.875 169.96,10.355 C169.33,10.925 168.535,11.21 167.545,11.21 C166.45,11.21 165.58,10.835 164.935,10.1 C164.26,9.35 163.93,8.345 163.93,7.115 C163.93,5.975 164.245,5.03 164.89,4.25 C165.55,3.44 166.42,3.035 167.515,3.035 Z M167.53,3.815 C166.765,3.815 166.15,4.07 165.685,4.61 C165.22,5.135 164.95,5.81 164.875,6.65 L170.215,6.65 C170.065,4.76 169.165,3.815 167.53,3.815 Z M171.73,3.245 L174.7,11 L175.63,11 L178.6,3.245 L177.595,3.245 L175.165,9.86 L172.72,3.245 L171.73,3.245 Z M182.755,3.035 C183.985,3.035 184.9,3.44 185.515,4.28 C186.055,5.015 186.355,6.05 186.4,7.385 L180.1,7.385 C180.145,8.33 180.4,9.08 180.865,9.62 C181.345,10.16 181.975,10.43 182.785,10.43 C183.49,10.43 184.06,10.235 184.495,9.875 C184.855,9.56 185.125,9.11 185.32,8.51 L186.235,8.51 C186.055,9.26 185.71,9.875 185.2,10.355 C184.57,10.925 183.775,11.21 182.785,11.21 C181.69,11.21 180.82,10.835 180.175,10.1 C179.5,9.35 179.17,8.345 179.17,7.115 C179.17,5.975 179.485,5.03 180.13,4.25 C180.79,3.44 181.66,3.035 182.755,3.035 Z M182.77,3.815 C182.005,3.815 181.39,4.07 180.925,4.61 C180.46,5.135 180.19,5.81 180.115,6.65 L185.455,6.65 C185.305,4.76 184.405,3.815 182.77,3.815 Z M188.125,0.08 L188.125,11 L189.025,11 L189.025,0.08 L188.125,0.08 Z M199.48,3.035 C200.56,3.035 201.37,3.32 201.895,3.92 C202.345,4.415 202.585,5.105 202.585,6.005 L202.585,11 L201.73,11 L201.73,9.515 C201.415,9.965 200.995,10.355 200.485,10.655 C199.855,11.015 199.18,11.21 198.445,11.21 C197.695,11.21 197.08,11.015 196.63,10.64 C196.135,10.25 195.895,9.725 195.895,9.095 C195.895,8.195 196.255,7.535 196.99,7.115 C197.62,6.71 198.535,6.5 199.705,6.5 L201.685,6.47 L201.685,6.005 C201.685,4.535 200.935,3.8 199.435,3.8 C198.805,3.8 198.295,3.92 197.89,4.19 C197.44,4.475 197.155,4.88 197.035,5.42 L196.15,5.36 C196.3,4.58 196.69,3.98 197.32,3.59 C197.875,3.215 198.595,3.035 199.48,3.035 Z M201.685,7.175 L199.75,7.205 C197.785,7.22 196.81,7.85 196.81,9.08 C196.81,9.5 196.975,9.83 197.305,10.085 C197.635,10.34 198.085,10.475 198.625,10.475 C199.405,10.475 200.125,10.205 200.755,9.665 C201.37,9.155 201.685,8.585 201.685,7.985 L201.685,7.175 Z M207.895,3.035 C207.355,3.035 206.86,3.155 206.425,3.425 C205.99,3.695 205.645,4.055 205.375,4.52 L205.375,3.245 L204.475,3.245 L204.475,11 L205.375,11 L205.375,6.32 C205.42,5.555 205.66,4.94 206.11,4.49 C206.53,4.04 207.04,3.815 207.67,3.815 C209.14,3.815 209.875,4.64 209.875,6.29 L209.875,11 L210.775,11 L210.775,6.23 C210.775,4.1 209.815,3.035 207.895,3.035 Z M218.515,0.08 L219.415,0.08 L219.415,11 L218.56,11 L218.56,9.47 C218.02,10.625 217.12,11.21 215.845,11.21 C214.72,11.21 213.85,10.79 213.22,9.98 C212.65,9.23 212.365,8.27 212.365,7.115 C212.365,5.975 212.65,5.03 213.22,4.28 C213.85,3.44 214.705,3.035 215.8,3.035 C217.03,3.035 217.945,3.65 218.515,4.88 L218.515,0.08 Z M215.965,3.8 C215.08,3.8 214.405,4.13 213.925,4.79 C213.49,5.36 213.28,6.14 213.28,7.115 C213.28,8.09 213.49,8.87 213.91,9.455 C214.375,10.115 215.05,10.445 215.935,10.445 C216.775,10.445 217.435,10.115 217.9,9.485 C218.32,8.9 218.545,8.15 218.545,7.235 L218.545,7.055 C218.545,6.095 218.305,5.33 217.855,4.73 C217.375,4.1 216.745,3.8 215.965,3.8 Z M228.175,0.74 L227.275,1.115 L227.275,3.245 L225.625,3.245 L225.625,4.025 L227.275,4.025 L227.275,9.275 C227.275,9.845 227.38,10.265 227.62,10.535 C227.875,10.835 228.31,11 228.91,11 L230.005,11 L230.005,10.22 L229.03,10.22 C228.7,10.22 228.475,10.145 228.355,10.01 C228.235,9.86 228.175,9.605 228.175,9.275 L228.175,4.025 L230.2,4.025 L230.2,3.245 L228.175,3.245 L228.175,0.74 Z M230.695,3.245 L233.77,10.805 L232.465,13.97 L233.44,13.97 L237.715,3.245 L236.725,3.245 L234.22,9.71 L231.685,3.245 L230.695,3.245 Z M242.32,3.035 C243.415,3.035 244.285,3.44 244.93,4.28 C245.5,5.03 245.785,5.975 245.785,7.145 C245.785,8.285 245.5,9.23 244.945,9.98 C244.315,10.79 243.46,11.21 242.35,11.21 C241.105,11.21 240.205,10.595 239.635,9.38 L239.635,13.97 L238.735,13.97 L238.735,3.245 L239.59,3.245 L239.59,4.775 C240.16,3.605 241.06,3.035 242.32,3.035 Z M242.215,3.8 C241.375,3.8 240.715,4.13 240.25,4.79 C239.815,5.375 239.605,6.14 239.605,7.085 L239.605,7.25 C239.605,8.18 239.83,8.945 240.295,9.545 C240.76,10.145 241.39,10.445 242.185,10.445 C243.07,10.445 243.745,10.115 244.225,9.485 C244.645,8.9 244.855,8.12 244.855,7.145 C244.855,6.17 244.645,5.39 244.24,4.805 C243.76,4.13 243.085,3.8 242.215,3.8 Z M250.51,3.035 C251.74,3.035 252.655,3.44 253.27,4.28 C253.81,5.015 254.11,6.05 254.155,7.385 L247.855,7.385 C247.9,8.33 248.155,9.08 248.62,9.62 C249.1,10.16 249.73,10.43 250.54,10.43 C251.245,10.43 251.815,10.235 252.25,9.875 C252.61,9.56 252.88,9.11 253.075,8.51 L253.99,8.51 C253.81,9.26 253.465,9.875 252.955,10.355 C252.325,10.925 251.53,11.21 250.54,11.21 C249.445,11.21 248.575,10.835 247.93,10.1 C247.255,9.35 246.925,8.345 246.925,7.115 C246.925,5.975 247.24,5.03 247.885,4.25 C248.545,3.44 249.415,3.035 250.51,3.035 Z M250.525,3.815 C249.76,3.815 249.145,4.07 248.68,4.61 C248.215,5.135 247.945,5.81 247.87,6.65 L253.21,6.65 C253.06,4.76 252.16,3.815 250.525,3.815 Z" id="Know-your-skintone-b"></path>
                    </g>
                </g>
            </g>
        </g>
    </g>
</svg>