<?xml version="1.0" encoding="UTF-8"?>
<svg width="299px" height="38px" viewBox="0 0 299 38" version="1.1" xmlns="http://www.w3.org/2000/svg" xmlns:xlink="http://www.w3.org/1999/xlink">
    <!-- Generator: Sketch 46.2 (44496) - http://www.bohemiancoding.com/sketch -->
    <title>Skintone test</title>
    <desc>Created with Sketch.</desc>
    <defs></defs>
    <g id="Page-1" stroke="none" stroke-width="1" fill="none" fill-rule="evenodd">
        <g id="首页-英文" transform="translate(-986.000000, -5479.000000)" fill="#38393B">
            <g id="Group-34" transform="translate(0.000000, 5126.000000)">
                <g id="标题" transform="translate(986.000000, 353.000000)">
                    <path d="M13.9,0.6 C10.3,0.6 7.3,1.35 5,2.9 C2.4,4.55 1.15,6.9 1.15,10 C1.15,12.9 2.5,15.15 5.25,16.7 C6.45,17.4 9.2,18.35 13.45,19.55 C17.5,20.65 20.1,21.6 21.3,22.3 C23.7,23.65 24.95,25.55 24.95,28 C24.95,30.1 23.95,31.8 22.05,33.05 C20.1,34.25 17.55,34.9 14.4,34.9 C11.1,34.9 8.55,34.15 6.75,32.7 C4.75,31.05 3.6,28.55 3.25,25.2 L0.25,25.2 C0.55,29.5 2.05,32.75 4.75,34.9 C7.1,36.75 10.35,37.7 14.45,37.7 C18.5,37.7 21.75,36.85 24.2,35.15 C26.75,33.35 28.05,30.9 28.05,27.85 C28.05,24.6 26.55,22.1 23.6,20.35 C22,19.35 18.95,18.25 14.4,16.95 C10.9,15.95 8.6,15.15 7.55,14.65 C5.3,13.45 4.2,11.9 4.2,9.9 C4.2,7.65 5.1,5.95 7,4.85 C8.65,3.85 10.9,3.35 13.8,3.35 C16.9,3.35 19.3,4.05 21,5.5 C22.7,6.95 23.75,9.05 24.15,11.85 L27.2,11.85 C26.9,8.15 25.55,5.35 23.2,3.45 C20.9,1.55 17.8,0.6 13.9,0.6 Z M32.85,0.6 L32.85,37 L35.85,37 L35.85,27.85 L40.8,23.35 L51.5,37 L55.45,37 L42.95,21.4 L54.3,11.15 L50.2,11.15 L35.85,24.2 L35.85,0.6 L32.85,0.6 Z M61.6,1.85 C60.85,1.85 60.25,2.1 59.8,2.6 C59.3,3 59.05,3.6 59.05,4.35 C59.05,5.05 59.3,5.65 59.8,6.15 C60.25,6.6 60.85,6.85 61.6,6.85 C62.3,6.85 62.85,6.6 63.35,6.15 C63.85,5.65 64.15,5.05 64.15,4.35 C64.15,3.6 63.9,3 63.4,2.6 C62.9,2.1 62.3,1.85 61.6,1.85 Z M60.1,11.15 L60.1,37 L63.1,37 L63.1,11.15 L60.1,11.15 Z M82.3,10.45 C80.5,10.45 78.85,10.85 77.4,11.75 C75.95,12.65 74.8,13.85 73.9,15.4 L73.9,11.15 L70.9,11.15 L70.9,37 L73.9,37 L73.9,21.4 C74.05,18.85 74.85,16.8 76.35,15.3 C77.75,13.8 79.45,13.05 81.55,13.05 C86.45,13.05 88.9,15.8 88.9,21.3 L88.9,37 L91.9,37 L91.9,21.1 C91.9,14 88.7,10.45 82.3,10.45 Z M104.45,2.8 L101.45,4.05 L101.45,11.15 L95.95,11.15 L95.95,13.75 L101.45,13.75 L101.45,31.25 C101.45,33.15 101.8,34.55 102.6,35.45 C103.45,36.45 104.9,37 106.9,37 L110.55,37 L110.55,34.4 L107.3,34.4 C106.2,34.4 105.45,34.15 105.05,33.7 C104.65,33.2 104.45,32.35 104.45,31.25 L104.45,13.75 L111.2,13.75 L111.2,11.15 L104.45,11.15 L104.45,2.8 Z M127.05,10.45 C130.85,10.45 133.9,11.8 136.2,14.55 C138.3,17.1 139.35,20.3 139.35,24.1 C139.35,27.9 138.3,31.05 136.2,33.6 C133.9,36.3 130.85,37.7 127.05,37.7 C123.25,37.7 120.2,36.3 117.9,33.6 C115.8,31.05 114.75,27.9 114.75,24.1 C114.75,20.3 115.8,17.1 117.95,14.55 C120.2,11.8 123.25,10.45 127.05,10.45 Z M127.05,13.05 C124.1,13.05 121.8,14.15 120.1,16.45 C118.55,18.45 117.8,21 117.8,24.1 C117.8,27.15 118.55,29.7 120.1,31.7 C121.8,33.95 124.1,35.1 127.05,35.1 C130,35.1 132.35,33.95 134.05,31.7 C135.55,29.65 136.35,27.1 136.35,24.1 C136.35,21 135.55,18.45 134.05,16.45 C132.35,14.15 130,13.05 127.05,13.05 Z M156.05,10.45 C154.25,10.45 152.6,10.85 151.15,11.75 C149.7,12.65 148.55,13.85 147.65,15.4 L147.65,11.15 L144.65,11.15 L144.65,37 L147.65,37 L147.65,21.4 C147.8,18.85 148.6,16.8 150.1,15.3 C151.5,13.8 153.2,13.05 155.3,13.05 C160.2,13.05 162.65,15.8 162.65,21.3 L162.65,37 L165.65,37 L165.65,21.1 C165.65,14 162.45,10.45 156.05,10.45 Z M182.4,10.45 C186.5,10.45 189.55,11.8 191.6,14.6 C193.4,17.05 194.4,20.5 194.55,24.95 L173.55,24.95 C173.7,28.1 174.55,30.6 176.1,32.4 C177.7,34.2 179.8,35.1 182.5,35.1 C184.85,35.1 186.75,34.45 188.2,33.25 C189.4,32.2 190.3,30.7 190.95,28.7 L194,28.7 C193.4,31.2 192.25,33.25 190.55,34.85 C188.45,36.75 185.8,37.7 182.5,37.7 C178.85,37.7 175.95,36.45 173.8,34 C171.55,31.5 170.45,28.15 170.45,24.05 C170.45,20.25 171.5,17.1 173.65,14.5 C175.85,11.8 178.75,10.45 182.4,10.45 Z M182.45,13.05 C179.9,13.05 177.85,13.9 176.3,15.7 C174.75,17.45 173.85,19.7 173.6,22.5 L191.4,22.5 C190.9,16.2 187.9,13.05 182.45,13.05 Z M222.25,2.8 L219.25,4.05 L219.25,11.15 L213.75,11.15 L213.75,13.75 L219.25,13.75 L219.25,31.25 C219.25,33.15 219.6,34.55 220.4,35.45 C221.25,36.45 222.7,37 224.7,37 L228.35,37 L228.35,34.4 L225.1,34.4 C224,34.4 223.25,34.15 222.85,33.7 C222.45,33.2 222.25,32.35 222.25,31.25 L222.25,13.75 L229,13.75 L229,11.15 L222.25,11.15 L222.25,2.8 Z M244,10.45 C248.1,10.45 251.15,11.8 253.2,14.6 C255,17.05 256,20.5 256.15,24.95 L235.15,24.95 C235.3,28.1 236.15,30.6 237.7,32.4 C239.3,34.2 241.4,35.1 244.1,35.1 C246.45,35.1 248.35,34.45 249.8,33.25 C251,32.2 251.9,30.7 252.55,28.7 L255.6,28.7 C255,31.2 253.85,33.25 252.15,34.85 C250.05,36.75 247.4,37.7 244.1,37.7 C240.45,37.7 237.55,36.45 235.4,34 C233.15,31.5 232.05,28.15 232.05,24.05 C232.05,20.25 233.1,17.1 235.25,14.5 C237.45,11.8 240.35,10.45 244,10.45 Z M244.05,13.05 C241.5,13.05 239.45,13.9 237.9,15.7 C236.35,17.45 235.45,19.7 235.2,22.5 L253,22.5 C252.5,16.2 249.5,13.05 244.05,13.05 Z M269.75,10.45 C267.05,10.45 264.75,11.05 262.95,12.3 C261.05,13.6 260.15,15.25 260.15,17.35 C260.15,19.45 261.1,21.1 263.1,22.3 C264.3,23.05 266.4,23.8 269.4,24.6 C272.35,25.35 274.25,25.95 275.15,26.4 C276.85,27.25 277.7,28.45 277.7,30 C277.7,33.4 275.2,35.1 270.2,35.1 C267.8,35.1 266,34.65 264.8,33.75 C263.5,32.75 262.7,31.1 262.4,28.85 L259.45,28.85 C260.05,34.75 263.65,37.7 270.3,37.7 C277.3,37.7 280.8,35.05 280.8,29.85 C280.8,27.65 279.75,25.9 277.7,24.65 C276.4,23.85 274.15,23.05 271,22.25 C268.35,21.55 266.55,20.95 265.55,20.45 C264,19.65 263.25,18.6 263.25,17.3 C263.25,16 263.85,15 265.05,14.2 C266.25,13.4 267.8,13.05 269.7,13.05 C272,13.05 273.75,13.5 274.95,14.45 C276.05,15.3 276.75,16.6 277.1,18.4 L280.05,18.4 C279.3,13.1 275.85,10.45 269.75,10.45 Z M291.85,2.8 L288.85,4.05 L288.85,11.15 L283.35,11.15 L283.35,13.75 L288.85,13.75 L288.85,31.25 C288.85,33.15 289.2,34.55 290,35.45 C290.85,36.45 292.3,37 294.3,37 L297.95,37 L297.95,34.4 L294.7,34.4 C293.6,34.4 292.85,34.15 292.45,33.7 C292.05,33.2 291.85,32.35 291.85,31.25 L291.85,13.75 L298.6,13.75 L298.6,11.15 L291.85,11.15 L291.85,2.8 Z" id="Skintone-test"></path>
                </g>
            </g>
        </g>
    </g>
</svg>