<?xml version="1.0" encoding="UTF-8"?>
<svg width="474px" height="39px" viewBox="0 0 474 39" version="1.1" xmlns="http://www.w3.org/2000/svg" xmlns:xlink="http://www.w3.org/1999/xlink">
    <!-- Generator: Sketch 46.2 (44496) - http://www.bohemiancoding.com/sketch -->
    <title>The images of epider</title>
    <desc>Created with Sketch.</desc>
    <defs></defs>
    <g id="Page-1" stroke="none" stroke-width="1" fill="none" fill-rule="evenodd">
        <g id="首页-英文" transform="translate(-483.000000, -2313.000000)" fill="#777777">
            <g id="3" transform="translate(-1.000000, 2048.000000)">
                <g id="标题" transform="translate(467.000000, 160.000000)">
                    <g id="Group-33">
                        <path d="M17.7275,105.56 L17.7275,106.37 L21.6575,106.37 L21.6575,116.27 L22.5725,116.27 L22.5725,106.37 L26.5025,106.37 L26.5025,105.56 L17.7275,105.56 Z M27.7175,105.35 L27.7175,116.27 L28.6325,116.27 L28.6325,111.785 C28.6325,111.02 28.8425,110.375 29.2925,109.865 C29.7425,109.34 30.2825,109.085 30.9275,109.085 C31.6175,109.085 32.1425,109.28 32.5325,109.685 C32.9075,110.105 33.1025,110.69 33.1025,111.44 L33.1025,116.27 L34.0025,116.27 L34.0025,111.32 C34.0025,110.36 33.7475,109.61 33.2525,109.085 C32.7575,108.56 32.0675,108.305 31.1825,108.305 C30.6425,108.305 30.1475,108.44 29.7125,108.71 C29.2625,108.995 28.9025,109.4 28.6325,109.925 L28.6325,105.35 L27.7175,105.35 Z M39.0275,108.305 C40.2575,108.305 41.1725,108.71 41.7875,109.55 C42.3275,110.285 42.6275,111.32 42.6725,112.655 L36.3725,112.655 C36.4175,113.6 36.6725,114.35 37.1375,114.89 C37.6175,115.43 38.2475,115.7 39.0575,115.7 C39.7625,115.7 40.3325,115.505 40.7675,115.145 C41.1275,114.83 41.3975,114.38 41.5925,113.78 L42.5075,113.78 C42.3275,114.53 41.9825,115.145 41.4725,115.625 C40.8425,116.195 40.0475,116.48 39.0575,116.48 C37.9625,116.48 37.0925,116.105 36.4475,115.37 C35.7725,114.62 35.4425,113.615 35.4425,112.385 C35.4425,111.245 35.7575,110.3 36.4025,109.52 C37.0625,108.71 37.9325,108.305 39.0275,108.305 Z M39.0425,109.085 C38.2775,109.085 37.6625,109.34 37.1975,109.88 C36.7325,110.405 36.4625,111.08 36.3875,111.92 L41.7275,111.92 C41.5775,110.03 40.6775,109.085 39.0425,109.085 Z M50.0075,105.725 C49.7825,105.725 49.6025,105.8 49.4675,105.95 C49.3175,106.07 49.2425,106.25 49.2425,106.475 C49.2425,106.685 49.3175,106.865 49.4675,107.015 C49.6025,107.15 49.7825,107.225 50.0075,107.225 C50.2175,107.225 50.3825,107.15 50.5325,107.015 C50.6825,106.865 50.7725,106.685 50.7725,106.475 C50.7725,106.25 50.6975,106.07 50.5475,105.95 C50.3975,105.8 50.2175,105.725 50.0075,105.725 Z M49.5575,108.515 L49.5575,116.27 L50.4575,116.27 L50.4575,108.515 L49.5575,108.515 Z M55.9475,108.305 C55.0025,108.305 54.2525,108.755 53.6975,109.685 L53.6975,108.515 L52.7975,108.515 L52.7975,116.27 L53.6975,116.27 L53.6975,111.5 C53.6975,110.825 53.8925,110.255 54.2975,109.79 C54.6875,109.31 55.1675,109.085 55.7525,109.085 C57.0425,109.085 57.6875,109.82 57.6875,111.32 L57.6875,116.27 L58.6025,116.27 L58.6025,111.335 C58.6025,110.675 58.7825,110.15 59.1725,109.73 C59.5475,109.295 60.0125,109.085 60.5825,109.085 C61.2725,109.085 61.7975,109.28 62.1275,109.67 C62.4275,110.03 62.5775,110.585 62.5775,111.32 L62.5775,116.27 L63.4775,116.27 L63.4775,111.2 C63.4775,110.285 63.2375,109.58 62.7725,109.07 C62.2925,108.56 61.6325,108.305 60.8225,108.305 C60.2825,108.305 59.8025,108.44 59.4125,108.71 C58.9925,108.98 58.6475,109.37 58.3775,109.895 C57.9875,108.83 57.1775,108.305 55.9475,108.305 Z M68.6525,108.305 C69.7325,108.305 70.5425,108.59 71.0675,109.19 C71.5175,109.685 71.7575,110.375 71.7575,111.275 L71.7575,116.27 L70.9025,116.27 L70.9025,114.785 C70.5875,115.235 70.1675,115.625 69.6575,115.925 C69.0275,116.285 68.3525,116.48 67.6175,116.48 C66.8675,116.48 66.2525,116.285 65.8025,115.91 C65.3075,115.52 65.0675,114.995 65.0675,114.365 C65.0675,113.465 65.4275,112.805 66.1625,112.385 C66.7925,111.98 67.7075,111.77 68.8775,111.77 L70.8575,111.74 L70.8575,111.275 C70.8575,109.805 70.1075,109.07 68.6075,109.07 C67.9775,109.07 67.4675,109.19 67.0625,109.46 C66.6125,109.745 66.3275,110.15 66.2075,110.69 L65.3225,110.63 C65.4725,109.85 65.8625,109.25 66.4925,108.86 C67.0475,108.485 67.7675,108.305 68.6525,108.305 Z M70.8575,112.445 L68.9225,112.475 C66.9575,112.49 65.9825,113.12 65.9825,114.35 C65.9825,114.77 66.1475,115.1 66.4775,115.355 C66.8075,115.61 67.2575,115.745 67.7975,115.745 C68.5775,115.745 69.2975,115.475 69.9275,114.935 C70.5425,114.425 70.8575,113.855 70.8575,113.255 L70.8575,112.445 Z M76.8425,108.305 C78.1175,108.305 79.0475,108.89 79.6175,110.075 L79.6175,108.515 L80.5175,108.515 L80.5175,115.7 C80.5175,118.19 79.3475,119.45 77.0375,119.45 C76.0175,119.45 75.2375,119.225 74.6825,118.79 C74.1575,118.37 73.8275,117.755 73.6925,116.93 L74.5925,116.93 C74.6975,117.5 74.9375,117.935 75.3125,118.22 C75.7025,118.535 76.2725,118.7 77.0375,118.7 C78.7475,118.7 79.6175,117.725 79.6175,115.805 L79.6175,114.32 C79.0475,115.49 78.1175,116.09 76.8425,116.09 C75.7625,116.09 74.8925,115.7 74.2475,114.935 C73.6475,114.215 73.3475,113.315 73.3475,112.205 C73.3475,111.11 73.6475,110.195 74.2475,109.475 C74.8925,108.695 75.7625,108.305 76.8425,108.305 Z M76.9475,109.07 C76.0925,109.07 75.4325,109.37 74.9525,110 C74.4875,110.57 74.2625,111.305 74.2625,112.205 C74.2625,113.075 74.4725,113.795 74.9075,114.365 C75.3725,114.995 76.0475,115.31 76.9325,115.31 C77.7875,115.31 78.4625,115.01 78.9425,114.41 C79.3925,113.84 79.6175,113.105 79.6175,112.205 C79.6175,111.305 79.3925,110.57 78.9425,110 C78.4625,109.37 77.7875,109.07 76.9475,109.07 Z M85.5425,108.305 C86.7725,108.305 87.6875,108.71 88.3025,109.55 C88.8425,110.285 89.1425,111.32 89.1875,112.655 L82.8875,112.655 C82.9325,113.6 83.1875,114.35 83.6525,114.89 C84.1325,115.43 84.7625,115.7 85.5725,115.7 C86.2775,115.7 86.8475,115.505 87.2825,115.145 C87.6425,114.83 87.9125,114.38 88.1075,113.78 L89.0225,113.78 C88.8425,114.53 88.4975,115.145 87.9875,115.625 C87.3575,116.195 86.5625,116.48 85.5725,116.48 C84.4775,116.48 83.6075,116.105 82.9625,115.37 C82.2875,114.62 81.9575,113.615 81.9575,112.385 C81.9575,111.245 82.2725,110.3 82.9175,109.52 C83.5775,108.71 84.4475,108.305 85.5425,108.305 Z M85.5575,109.085 C84.7925,109.085 84.1775,109.34 83.7125,109.88 C83.2475,110.405 82.9775,111.08 82.9025,111.92 L88.2425,111.92 C88.0925,110.03 87.1925,109.085 85.5575,109.085 Z M93.2675,108.305 C92.4575,108.305 91.7675,108.485 91.2275,108.86 C90.6575,109.25 90.3875,109.745 90.3875,110.375 C90.3875,111.005 90.6725,111.5 91.2725,111.86 C91.6325,112.085 92.2625,112.31 93.1625,112.55 C94.0475,112.775 94.6175,112.955 94.8875,113.09 C95.3975,113.345 95.6525,113.705 95.6525,114.17 C95.6525,115.19 94.9025,115.7 93.4025,115.7 C92.6825,115.7 92.1425,115.565 91.7825,115.295 C91.3925,114.995 91.1525,114.5 91.0625,113.825 L90.1775,113.825 C90.3575,115.595 91.4375,116.48 93.4325,116.48 C95.5325,116.48 96.5825,115.685 96.5825,114.125 C96.5825,113.465 96.2675,112.94 95.6525,112.565 C95.2625,112.325 94.5875,112.085 93.6425,111.845 C92.8475,111.635 92.3075,111.455 92.0075,111.305 C91.5425,111.065 91.3175,110.75 91.3175,110.36 C91.3175,109.97 91.4975,109.67 91.8575,109.43 C92.2175,109.19 92.6825,109.085 93.2525,109.085 C93.9425,109.085 94.4675,109.22 94.8275,109.505 C95.1575,109.76 95.3675,110.15 95.4725,110.69 L96.3575,110.69 C96.1325,109.1 95.0975,108.305 93.2675,108.305 Z M106.4075,108.305 C107.5475,108.305 108.4625,108.71 109.1525,109.535 C109.7825,110.3 110.0975,111.26 110.0975,112.4 C110.0975,113.54 109.7825,114.485 109.1525,115.25 C108.4625,116.06 107.5475,116.48 106.4075,116.48 C105.2675,116.48 104.3525,116.06 103.6625,115.25 C103.0325,114.485 102.7175,113.54 102.7175,112.4 C102.7175,111.26 103.0325,110.3 103.6775,109.535 C104.3525,108.71 105.2675,108.305 106.4075,108.305 Z M106.4075,109.085 C105.5225,109.085 104.8325,109.415 104.3225,110.105 C103.8575,110.705 103.6325,111.47 103.6325,112.4 C103.6325,113.315 103.8575,114.08 104.3225,114.68 C104.8325,115.355 105.5225,115.7 106.4075,115.7 C107.2925,115.7 107.9975,115.355 108.5075,114.68 C108.9575,114.065 109.1975,113.3 109.1975,112.4 C109.1975,111.47 108.9575,110.705 108.5075,110.105 C107.9975,109.415 107.2925,109.085 106.4075,109.085 Z M114.8375,105.56 C114.1775,105.56 113.6975,105.74 113.3675,106.115 C113.0375,106.46 112.8875,106.955 112.8875,107.6 L112.8875,108.515 L110.8175,108.515 L110.8175,109.295 L112.8875,109.295 L112.8875,116.27 L113.7875,116.27 L113.7875,109.295 L116.1125,109.295 L116.1125,108.515 L113.7875,108.515 L113.7875,107.615 C113.7875,107.165 113.8775,106.85 114.0575,106.655 C114.2375,106.445 114.5225,106.355 114.9125,106.355 L116.2175,106.355 L116.2175,105.56 L114.8375,105.56 Z M125.3675,108.305 C126.5975,108.305 127.5125,108.71 128.1275,109.55 C128.6675,110.285 128.9675,111.32 129.0125,112.655 L122.7125,112.655 C122.7575,113.6 123.0125,114.35 123.4775,114.89 C123.9575,115.43 124.5875,115.7 125.3975,115.7 C126.1025,115.7 126.6725,115.505 127.1075,115.145 C127.4675,114.83 127.7375,114.38 127.9325,113.78 L128.8475,113.78 C128.6675,114.53 128.3225,115.145 127.8125,115.625 C127.1825,116.195 126.3875,116.48 125.3975,116.48 C124.3025,116.48 123.4325,116.105 122.7875,115.37 C122.1125,114.62 121.7825,113.615 121.7825,112.385 C121.7825,111.245 122.0975,110.3 122.7425,109.52 C123.4025,108.71 124.2725,108.305 125.3675,108.305 Z M125.3825,109.085 C124.6175,109.085 124.0025,109.34 123.5375,109.88 C123.0725,110.405 122.8025,111.08 122.7275,111.92 L128.0675,111.92 C127.9175,110.03 127.0175,109.085 125.3825,109.085 Z M134.0375,108.305 C135.1325,108.305 136.0025,108.71 136.6475,109.55 C137.2175,110.3 137.5025,111.245 137.5025,112.415 C137.5025,113.555 137.2175,114.5 136.6625,115.25 C136.0325,116.06 135.1775,116.48 134.0675,116.48 C132.8225,116.48 131.9225,115.865 131.3525,114.65 L131.3525,119.24 L130.4525,119.24 L130.4525,108.515 L131.3075,108.515 L131.3075,110.045 C131.8775,108.875 132.7775,108.305 134.0375,108.305 Z M133.9325,109.07 C133.0925,109.07 132.4325,109.4 131.9675,110.06 C131.5325,110.645 131.3225,111.41 131.3225,112.355 L131.3225,112.52 C131.3225,113.45 131.5475,114.215 132.0125,114.815 C132.4775,115.415 133.1075,115.715 133.9025,115.715 C134.7875,115.715 135.4625,115.385 135.9425,114.755 C136.3625,114.17 136.5725,113.39 136.5725,112.415 C136.5725,111.44 136.3625,110.66 135.9575,110.075 C135.4775,109.4 134.8025,109.07 133.9325,109.07 Z M139.9925,105.725 C139.7675,105.725 139.5875,105.8 139.4525,105.95 C139.3025,106.07 139.2275,106.25 139.2275,106.475 C139.2275,106.685 139.3025,106.865 139.4525,107.015 C139.5875,107.15 139.7675,107.225 139.9925,107.225 C140.2025,107.225 140.3675,107.15 140.5175,107.015 C140.6675,106.865 140.7575,106.685 140.7575,106.475 C140.7575,106.25 140.6825,106.07 140.5325,105.95 C140.3825,105.8 140.2025,105.725 139.9925,105.725 Z M139.5425,108.515 L139.5425,116.27 L140.4425,116.27 L140.4425,108.515 L139.5425,108.515 Z M148.6325,105.35 L149.5325,105.35 L149.5325,116.27 L148.6775,116.27 L148.6775,114.74 C148.1375,115.895 147.2375,116.48 145.9625,116.48 C144.8375,116.48 143.9675,116.06 143.3375,115.25 C142.7675,114.5 142.4825,113.54 142.4825,112.385 C142.4825,111.245 142.7675,110.3 143.3375,109.55 C143.9675,108.71 144.8225,108.305 145.9175,108.305 C147.1475,108.305 148.0625,108.92 148.6325,110.15 L148.6325,105.35 Z M146.0825,109.07 C145.1975,109.07 144.5225,109.4 144.0425,110.06 C143.6075,110.63 143.3975,111.41 143.3975,112.385 C143.3975,113.36 143.6075,114.14 144.0275,114.725 C144.4925,115.385 145.1675,115.715 146.0525,115.715 C146.8925,115.715 147.5525,115.385 148.0175,114.755 C148.4375,114.17 148.6625,113.42 148.6625,112.505 L148.6625,112.325 C148.6625,111.365 148.4225,110.6 147.9725,110 C147.4925,109.37 146.8625,109.07 146.0825,109.07 Z M154.5575,108.305 C155.7875,108.305 156.7025,108.71 157.3175,109.55 C157.8575,110.285 158.1575,111.32 158.2025,112.655 L151.9025,112.655 C151.9475,113.6 152.2025,114.35 152.6675,114.89 C153.1475,115.43 153.7775,115.7 154.5875,115.7 C155.2925,115.7 155.8625,115.505 156.2975,115.145 C156.6575,114.83 156.9275,114.38 157.1225,113.78 L158.0375,113.78 C157.8575,114.53 157.5125,115.145 157.0025,115.625 C156.3725,116.195 155.5775,116.48 154.5875,116.48 C153.4925,116.48 152.6225,116.105 151.9775,115.37 C151.3025,114.62 150.9725,113.615 150.9725,112.385 C150.9725,111.245 151.2875,110.3 151.9325,109.52 C152.5925,108.71 153.4625,108.305 154.5575,108.305 Z M154.5725,109.085 C153.8075,109.085 153.1925,109.34 152.7275,109.88 C152.2625,110.405 151.9925,111.08 151.9175,111.92 L157.2575,111.92 C157.1075,110.03 156.2075,109.085 154.5725,109.085 Z M162.8975,108.305 C162.3275,108.305 161.8175,108.485 161.3975,108.845 C161.0375,109.13 160.7525,109.52 160.5425,110 L160.5425,108.515 L159.6425,108.515 L159.6425,116.27 L160.5425,116.27 L160.5425,112.175 C160.5425,111.395 160.7375,110.72 161.1575,110.15 C161.5775,109.52 162.1475,109.22 162.8375,109.22 C163.2275,109.22 163.6175,109.265 164.0225,109.385 L164.0225,108.47 C163.7225,108.35 163.3475,108.305 162.8975,108.305 Z M168.1925,108.305 C167.2475,108.305 166.4975,108.755 165.9425,109.685 L165.9425,108.515 L165.0425,108.515 L165.0425,116.27 L165.9425,116.27 L165.9425,111.5 C165.9425,110.825 166.1375,110.255 166.5425,109.79 C166.9325,109.31 167.4125,109.085 167.9975,109.085 C169.2875,109.085 169.9325,109.82 169.9325,111.32 L169.9325,116.27 L170.8475,116.27 L170.8475,111.335 C170.8475,110.675 171.0275,110.15 171.4175,109.73 C171.7925,109.295 172.2575,109.085 172.8275,109.085 C173.5175,109.085 174.0425,109.28 174.3725,109.67 C174.6725,110.03 174.8225,110.585 174.8225,111.32 L174.8225,116.27 L175.7225,116.27 L175.7225,111.2 C175.7225,110.285 175.4825,109.58 175.0175,109.07 C174.5375,108.56 173.8775,108.305 173.0675,108.305 C172.5275,108.305 172.0475,108.44 171.6575,108.71 C171.2375,108.98 170.8925,109.37 170.6225,109.895 C170.2325,108.83 169.4225,108.305 168.1925,108.305 Z M180.8975,108.305 C181.9775,108.305 182.7875,108.59 183.3125,109.19 C183.7625,109.685 184.0025,110.375 184.0025,111.275 L184.0025,116.27 L183.1475,116.27 L183.1475,114.785 C182.8325,115.235 182.4125,115.625 181.9025,115.925 C181.2725,116.285 180.5975,116.48 179.8625,116.48 C179.1125,116.48 178.4975,116.285 178.0475,115.91 C177.5525,115.52 177.3125,114.995 177.3125,114.365 C177.3125,113.465 177.6725,112.805 178.4075,112.385 C179.0375,111.98 179.9525,111.77 181.1225,111.77 L183.1025,111.74 L183.1025,111.275 C183.1025,109.805 182.3525,109.07 180.8525,109.07 C180.2225,109.07 179.7125,109.19 179.3075,109.46 C178.8575,109.745 178.5725,110.15 178.4525,110.69 L177.5675,110.63 C177.7175,109.85 178.1075,109.25 178.7375,108.86 C179.2925,108.485 180.0125,108.305 180.8975,108.305 Z M183.1025,112.445 L181.1675,112.475 C179.2025,112.49 178.2275,113.12 178.2275,114.35 C178.2275,114.77 178.3925,115.1 178.7225,115.355 C179.0525,115.61 179.5025,115.745 180.0425,115.745 C180.8225,115.745 181.5425,115.475 182.1725,114.935 C182.7875,114.425 183.1025,113.855 183.1025,113.255 L183.1025,112.445 Z M186.1775,105.35 L186.1775,116.27 L187.0775,116.27 L187.0775,105.35 L186.1775,105.35 Z M197.5325,108.305 C198.6125,108.305 199.4225,108.59 199.9475,109.19 C200.3975,109.685 200.6375,110.375 200.6375,111.275 L200.6375,116.27 L199.7825,116.27 L199.7825,114.785 C199.4675,115.235 199.0475,115.625 198.5375,115.925 C197.9075,116.285 197.2325,116.48 196.4975,116.48 C195.7475,116.48 195.1325,116.285 194.6825,115.91 C194.1875,115.52 193.9475,114.995 193.9475,114.365 C193.9475,113.465 194.3075,112.805 195.0425,112.385 C195.6725,111.98 196.5875,111.77 197.7575,111.77 L199.7375,111.74 L199.7375,111.275 C199.7375,109.805 198.9875,109.07 197.4875,109.07 C196.8575,109.07 196.3475,109.19 195.9425,109.46 C195.4925,109.745 195.2075,110.15 195.0875,110.69 L194.2025,110.63 C194.3525,109.85 194.7425,109.25 195.3725,108.86 C195.9275,108.485 196.6475,108.305 197.5325,108.305 Z M199.7375,112.445 L197.8025,112.475 C195.8375,112.49 194.8625,113.12 194.8625,114.35 C194.8625,114.77 195.0275,115.1 195.3575,115.355 C195.6875,115.61 196.1375,115.745 196.6775,115.745 C197.4575,115.745 198.1775,115.475 198.8075,114.935 C199.4225,114.425 199.7375,113.855 199.7375,113.255 L199.7375,112.445 Z M205.9475,108.305 C205.4075,108.305 204.9125,108.425 204.4775,108.695 C204.0425,108.965 203.6975,109.325 203.4275,109.79 L203.4275,108.515 L202.5275,108.515 L202.5275,116.27 L203.4275,116.27 L203.4275,111.59 C203.4725,110.825 203.7125,110.21 204.1625,109.76 C204.5825,109.31 205.0925,109.085 205.7225,109.085 C207.1925,109.085 207.9275,109.91 207.9275,111.56 L207.9275,116.27 L208.8275,116.27 L208.8275,111.5 C208.8275,109.37 207.8675,108.305 205.9475,108.305 Z M216.5675,105.35 L217.4675,105.35 L217.4675,116.27 L216.6125,116.27 L216.6125,114.74 C216.0725,115.895 215.1725,116.48 213.8975,116.48 C212.7725,116.48 211.9025,116.06 211.2725,115.25 C210.7025,114.5 210.4175,113.54 210.4175,112.385 C210.4175,111.245 210.7025,110.3 211.2725,109.55 C211.9025,108.71 212.7575,108.305 213.8525,108.305 C215.0825,108.305 215.9975,108.92 216.5675,110.15 L216.5675,105.35 Z M214.0175,109.07 C213.1325,109.07 212.4575,109.4 211.9775,110.06 C211.5425,110.63 211.3325,111.41 211.3325,112.385 C211.3325,113.36 211.5425,114.14 211.9625,114.725 C212.4275,115.385 213.1025,115.715 213.9875,115.715 C214.8275,115.715 215.4875,115.385 215.9525,114.755 C216.3725,114.17 216.5975,113.42 216.5975,112.505 L216.5975,112.325 C216.5975,111.365 216.3575,110.6 215.9075,110 C215.4275,109.37 214.7975,109.07 214.0175,109.07 Z M224.3525,105.35 L225.2525,105.35 L225.2525,110.15 C225.8225,108.92 226.7225,108.305 227.9675,108.305 C229.0475,108.305 229.9175,108.71 230.5475,109.55 C231.1175,110.3 231.4025,111.245 231.4025,112.385 C231.4025,113.54 231.1175,114.5 230.5475,115.25 C229.9175,116.06 229.0475,116.48 227.9375,116.48 C226.6475,116.48 225.7325,115.895 225.2075,114.74 L225.2075,116.27 L224.3525,116.27 L224.3525,105.35 Z M227.8025,109.07 C227.0075,109.07 226.3775,109.37 225.9125,110 C225.4475,110.6 225.2225,111.365 225.2225,112.325 L225.2225,112.505 C225.2225,113.42 225.4325,114.17 225.8675,114.755 C226.3175,115.385 226.9775,115.715 227.8325,115.715 C228.7025,115.715 229.3775,115.385 229.8575,114.725 C230.2775,114.14 230.4875,113.36 230.4875,112.385 C230.4875,111.41 230.2625,110.63 229.8425,110.06 C229.3625,109.4 228.6875,109.07 227.8025,109.07 Z M236.2775,108.305 C237.3575,108.305 238.1675,108.59 238.6925,109.19 C239.1425,109.685 239.3825,110.375 239.3825,111.275 L239.3825,116.27 L238.5275,116.27 L238.5275,114.785 C238.2125,115.235 237.7925,115.625 237.2825,115.925 C236.6525,116.285 235.9775,116.48 235.2425,116.48 C234.4925,116.48 233.8775,116.285 233.4275,115.91 C232.9325,115.52 232.6925,114.995 232.6925,114.365 C232.6925,113.465 233.0525,112.805 233.7875,112.385 C234.4175,111.98 235.3325,111.77 236.5025,111.77 L238.4825,111.74 L238.4825,111.275 C238.4825,109.805 237.7325,109.07 236.2325,109.07 C235.6025,109.07 235.0925,109.19 234.6875,109.46 C234.2375,109.745 233.9525,110.15 233.8325,110.69 L232.9475,110.63 C233.0975,109.85 233.4875,109.25 234.1175,108.86 C234.6725,108.485 235.3925,108.305 236.2775,108.305 Z M238.4825,112.445 L236.5475,112.475 C234.5825,112.49 233.6075,113.12 233.6075,114.35 C233.6075,114.77 233.7725,115.1 234.1025,115.355 C234.4325,115.61 234.8825,115.745 235.4225,115.745 C236.2025,115.745 236.9225,115.475 237.5525,114.935 C238.1675,114.425 238.4825,113.855 238.4825,113.255 L238.4825,112.445 Z M243.9125,108.305 C243.1025,108.305 242.4125,108.485 241.8725,108.86 C241.3025,109.25 241.0325,109.745 241.0325,110.375 C241.0325,111.005 241.3175,111.5 241.9175,111.86 C242.2775,112.085 242.9075,112.31 243.8075,112.55 C244.6925,112.775 245.2625,112.955 245.5325,113.09 C246.0425,113.345 246.2975,113.705 246.2975,114.17 C246.2975,115.19 245.5475,115.7 244.0475,115.7 C243.3275,115.7 242.7875,115.565 242.4275,115.295 C242.0375,114.995 241.7975,114.5 241.7075,113.825 L240.8225,113.825 C241.0025,115.595 242.0825,116.48 244.0775,116.48 C246.1775,116.48 247.2275,115.685 247.2275,114.125 C247.2275,113.465 246.9125,112.94 246.2975,112.565 C245.9075,112.325 245.2325,112.085 244.2875,111.845 C243.4925,111.635 242.9525,111.455 242.6525,111.305 C242.1875,111.065 241.9625,110.75 241.9625,110.36 C241.9625,109.97 242.1425,109.67 242.5025,109.43 C242.8625,109.19 243.3275,109.085 243.8975,109.085 C244.5875,109.085 245.1125,109.22 245.4725,109.505 C245.8025,109.76 246.0125,110.15 246.1175,110.69 L247.0025,110.69 C246.7775,109.1 245.7425,108.305 243.9125,108.305 Z M251.9525,108.305 C253.0325,108.305 253.8425,108.59 254.3675,109.19 C254.8175,109.685 255.0575,110.375 255.0575,111.275 L255.0575,116.27 L254.2025,116.27 L254.2025,114.785 C253.8875,115.235 253.4675,115.625 252.9575,115.925 C252.3275,116.285 251.6525,116.48 250.9175,116.48 C250.1675,116.48 249.5525,116.285 249.1025,115.91 C248.6075,115.52 248.3675,114.995 248.3675,114.365 C248.3675,113.465 248.7275,112.805 249.4625,112.385 C250.0925,111.98 251.0075,111.77 252.1775,111.77 L254.1575,111.74 L254.1575,111.275 C254.1575,109.805 253.4075,109.07 251.9075,109.07 C251.2775,109.07 250.7675,109.19 250.3625,109.46 C249.9125,109.745 249.6275,110.15 249.5075,110.69 L248.6225,110.63 C248.7725,109.85 249.1625,109.25 249.7925,108.86 C250.3475,108.485 251.0675,108.305 251.9525,108.305 Z M254.1575,112.445 L252.2225,112.475 C250.2575,112.49 249.2825,113.12 249.2825,114.35 C249.2825,114.77 249.4475,115.1 249.7775,115.355 C250.1075,115.61 250.5575,115.745 251.0975,115.745 C251.8775,115.745 252.5975,115.475 253.2275,114.935 C253.8425,114.425 254.1575,113.855 254.1575,113.255 L254.1575,112.445 Z M257.2325,105.35 L257.2325,116.27 L258.1325,116.27 L258.1325,105.35 L257.2325,105.35 Z M265.5875,105.35 L265.5875,116.27 L266.4875,116.27 L266.4875,105.35 L265.5875,105.35 Z M271.9475,108.305 C273.0275,108.305 273.8375,108.59 274.3625,109.19 C274.8125,109.685 275.0525,110.375 275.0525,111.275 L275.0525,116.27 L274.1975,116.27 L274.1975,114.785 C273.8825,115.235 273.4625,115.625 272.9525,115.925 C272.3225,116.285 271.6475,116.48 270.9125,116.48 C270.1625,116.48 269.5475,116.285 269.0975,115.91 C268.6025,115.52 268.3625,114.995 268.3625,114.365 C268.3625,113.465 268.7225,112.805 269.4575,112.385 C270.0875,111.98 271.0025,111.77 272.1725,111.77 L274.1525,111.74 L274.1525,111.275 C274.1525,109.805 273.4025,109.07 271.9025,109.07 C271.2725,109.07 270.7625,109.19 270.3575,109.46 C269.9075,109.745 269.6225,110.15 269.5025,110.69 L268.6175,110.63 C268.7675,109.85 269.1575,109.25 269.7875,108.86 C270.3425,108.485 271.0625,108.305 271.9475,108.305 Z M274.1525,112.445 L272.2175,112.475 C270.2525,112.49 269.2775,113.12 269.2775,114.35 C269.2775,114.77 269.4425,115.1 269.7725,115.355 C270.1025,115.61 270.5525,115.745 271.0925,115.745 C271.8725,115.745 272.5925,115.475 273.2225,114.935 C273.8375,114.425 274.1525,113.855 274.1525,113.255 L274.1525,112.445 Z M276.0725,108.515 L279.1475,116.075 L277.8425,119.24 L278.8175,119.24 L283.0925,108.515 L282.1025,108.515 L279.5975,114.98 L277.0625,108.515 L276.0725,108.515 Z M287.2475,108.305 C288.4775,108.305 289.3925,108.71 290.0075,109.55 C290.5475,110.285 290.8475,111.32 290.8925,112.655 L284.5925,112.655 C284.6375,113.6 284.8925,114.35 285.3575,114.89 C285.8375,115.43 286.4675,115.7 287.2775,115.7 C287.9825,115.7 288.5525,115.505 288.9875,115.145 C289.3475,114.83 289.6175,114.38 289.8125,113.78 L290.7275,113.78 C290.5475,114.53 290.2025,115.145 289.6925,115.625 C289.0625,116.195 288.2675,116.48 287.2775,116.48 C286.1825,116.48 285.3125,116.105 284.6675,115.37 C283.9925,114.62 283.6625,113.615 283.6625,112.385 C283.6625,111.245 283.9775,110.3 284.6225,109.52 C285.2825,108.71 286.1525,108.305 287.2475,108.305 Z M287.2625,109.085 C286.4975,109.085 285.8825,109.34 285.4175,109.88 C284.9525,110.405 284.6825,111.08 284.6075,111.92 L289.9475,111.92 C289.7975,110.03 288.8975,109.085 287.2625,109.085 Z M295.5875,108.305 C295.0175,108.305 294.5075,108.485 294.0875,108.845 C293.7275,109.13 293.4425,109.52 293.2325,110 L293.2325,108.515 L292.3325,108.515 L292.3325,116.27 L293.2325,116.27 L293.2325,112.175 C293.2325,111.395 293.4275,110.72 293.8475,110.15 C294.2675,109.52 294.8375,109.22 295.5275,109.22 C295.9175,109.22 296.3075,109.265 296.7125,109.385 L296.7125,108.47 C296.4125,108.35 296.0375,108.305 295.5875,108.305 Z M306.1175,108.305 C307.2575,108.305 308.1725,108.71 308.8625,109.535 C309.4925,110.3 309.8075,111.26 309.8075,112.4 C309.8075,113.54 309.4925,114.485 308.8625,115.25 C308.1725,116.06 307.2575,116.48 306.1175,116.48 C304.9775,116.48 304.0625,116.06 303.3725,115.25 C302.7425,114.485 302.4275,113.54 302.4275,112.4 C302.4275,111.26 302.7425,110.3 303.3875,109.535 C304.0625,108.71 304.9775,108.305 306.1175,108.305 Z M306.1175,109.085 C305.2325,109.085 304.5425,109.415 304.0325,110.105 C303.5675,110.705 303.3425,111.47 303.3425,112.4 C303.3425,113.315 303.5675,114.08 304.0325,114.68 C304.5425,115.355 305.2325,115.7 306.1175,115.7 C307.0025,115.7 307.7075,115.355 308.2175,114.68 C308.6675,114.065 308.9075,113.3 308.9075,112.4 C308.9075,111.47 308.6675,110.705 308.2175,110.105 C307.7075,109.415 307.0025,109.085 306.1175,109.085 Z M314.5475,105.56 C313.8875,105.56 313.4075,105.74 313.0775,106.115 C312.7475,106.46 312.5975,106.955 312.5975,107.6 L312.5975,108.515 L310.5275,108.515 L310.5275,109.295 L312.5975,109.295 L312.5975,116.27 L313.4975,116.27 L313.4975,109.295 L315.8225,109.295 L315.8225,108.515 L313.4975,108.515 L313.4975,107.615 C313.4975,107.165 313.5875,106.85 313.7675,106.655 C313.9475,106.445 314.2325,106.355 314.6225,106.355 L315.9275,106.355 L315.9275,105.56 L314.5475,105.56 Z M323.8175,106.01 L322.9175,106.385 L322.9175,108.515 L321.2675,108.515 L321.2675,109.295 L322.9175,109.295 L322.9175,114.545 C322.9175,115.115 323.0225,115.535 323.2625,115.805 C323.5175,116.105 323.9525,116.27 324.5525,116.27 L325.6475,116.27 L325.6475,115.49 L324.6725,115.49 C324.3425,115.49 324.1175,115.415 323.9975,115.28 C323.8775,115.13 323.8175,114.875 323.8175,114.545 L323.8175,109.295 L325.8425,109.295 L325.8425,108.515 L323.8175,108.515 L323.8175,106.01 Z M327.2075,105.35 L327.2075,116.27 L328.1225,116.27 L328.1225,111.785 C328.1225,111.02 328.3325,110.375 328.7825,109.865 C329.2325,109.34 329.7725,109.085 330.4175,109.085 C331.1075,109.085 331.6325,109.28 332.0225,109.685 C332.3975,110.105 332.5925,110.69 332.5925,111.44 L332.5925,116.27 L333.4925,116.27 L333.4925,111.32 C333.4925,110.36 333.2375,109.61 332.7425,109.085 C332.2475,108.56 331.5575,108.305 330.6725,108.305 C330.1325,108.305 329.6375,108.44 329.2025,108.71 C328.7525,108.995 328.3925,109.4 328.1225,109.925 L328.1225,105.35 L327.2075,105.35 Z M338.5175,108.305 C339.7475,108.305 340.6625,108.71 341.2775,109.55 C341.8175,110.285 342.1175,111.32 342.1625,112.655 L335.8625,112.655 C335.9075,113.6 336.1625,114.35 336.6275,114.89 C337.1075,115.43 337.7375,115.7 338.5475,115.7 C339.2525,115.7 339.8225,115.505 340.2575,115.145 C340.6175,114.83 340.8875,114.38 341.0825,113.78 L341.9975,113.78 C341.8175,114.53 341.4725,115.145 340.9625,115.625 C340.3325,116.195 339.5375,116.48 338.5475,116.48 C337.4525,116.48 336.5825,116.105 335.9375,115.37 C335.2625,114.62 334.9325,113.615 334.9325,112.385 C334.9325,111.245 335.2475,110.3 335.8925,109.52 C336.5525,108.71 337.4225,108.305 338.5175,108.305 Z M338.5325,109.085 C337.7675,109.085 337.1525,109.34 336.6875,109.88 C336.2225,110.405 335.9525,111.08 335.8775,111.92 L341.2175,111.92 C341.0675,110.03 340.1675,109.085 338.5325,109.085 Z M351.2375,108.305 C350.4275,108.305 349.7375,108.485 349.1975,108.86 C348.6275,109.25 348.3575,109.745 348.3575,110.375 C348.3575,111.005 348.6425,111.5 349.2425,111.86 C349.6025,112.085 350.2325,112.31 351.1325,112.55 C352.0175,112.775 352.5875,112.955 352.8575,113.09 C353.3675,113.345 353.6225,113.705 353.6225,114.17 C353.6225,115.19 352.8725,115.7 351.3725,115.7 C350.6525,115.7 350.1125,115.565 349.7525,115.295 C349.3625,114.995 349.1225,114.5 349.0325,113.825 L348.1475,113.825 C348.3275,115.595 349.4075,116.48 351.4025,116.48 C353.5025,116.48 354.5525,115.685 354.5525,114.125 C354.5525,113.465 354.2375,112.94 353.6225,112.565 C353.2325,112.325 352.5575,112.085 351.6125,111.845 C350.8175,111.635 350.2775,111.455 349.9775,111.305 C349.5125,111.065 349.2875,110.75 349.2875,110.36 C349.2875,109.97 349.4675,109.67 349.8275,109.43 C350.1875,109.19 350.6525,109.085 351.2225,109.085 C351.9125,109.085 352.4375,109.22 352.7975,109.505 C353.1275,109.76 353.3375,110.15 353.4425,110.69 L354.3275,110.69 C354.1025,109.1 353.0675,108.305 351.2375,108.305 Z M355.9925,105.35 L355.9925,116.27 L356.8925,116.27 L356.8925,113.525 L358.3775,112.175 L361.5875,116.27 L362.7725,116.27 L359.0225,111.59 L362.4275,108.515 L361.1975,108.515 L356.8925,112.43 L356.8925,105.35 L355.9925,105.35 Z M364.6175,105.725 C364.3925,105.725 364.2125,105.8 364.0775,105.95 C363.9275,106.07 363.8525,106.25 363.8525,106.475 C363.8525,106.685 363.9275,106.865 364.0775,107.015 C364.2125,107.15 364.3925,107.225 364.6175,107.225 C364.8275,107.225 364.9925,107.15 365.1425,107.015 C365.2925,106.865 365.3825,106.685 365.3825,106.475 C365.3825,106.25 365.3075,106.07 365.1575,105.95 C365.0075,105.8 364.8275,105.725 364.6175,105.725 Z M364.1675,108.515 L364.1675,116.27 L365.0675,116.27 L365.0675,108.515 L364.1675,108.515 Z M370.8275,108.305 C370.2875,108.305 369.7925,108.425 369.3575,108.695 C368.9225,108.965 368.5775,109.325 368.3075,109.79 L368.3075,108.515 L367.4075,108.515 L367.4075,116.27 L368.3075,116.27 L368.3075,111.59 C368.3525,110.825 368.5925,110.21 369.0425,109.76 C369.4625,109.31 369.9725,109.085 370.6025,109.085 C372.0725,109.085 372.8075,109.91 372.8075,111.56 L372.8075,116.27 L373.7075,116.27 L373.7075,111.5 C373.7075,109.37 372.7475,108.305 370.8275,108.305 Z M378.8825,108.305 C379.9625,108.305 380.7725,108.59 381.2975,109.19 C381.7475,109.685 381.9875,110.375 381.9875,111.275 L381.9875,116.27 L381.1325,116.27 L381.1325,114.785 C380.8175,115.235 380.3975,115.625 379.8875,115.925 C379.2575,116.285 378.5825,116.48 377.8475,116.48 C377.0975,116.48 376.4825,116.285 376.0325,115.91 C375.5375,115.52 375.2975,114.995 375.2975,114.365 C375.2975,113.465 375.6575,112.805 376.3925,112.385 C377.0225,111.98 377.9375,111.77 379.1075,111.77 L381.0875,111.74 L381.0875,111.275 C381.0875,109.805 380.3375,109.07 378.8375,109.07 C378.2075,109.07 377.6975,109.19 377.2925,109.46 C376.8425,109.745 376.5575,110.15 376.4375,110.69 L375.5525,110.63 C375.7025,109.85 376.0925,109.25 376.7225,108.86 C377.2775,108.485 377.9975,108.305 378.8825,108.305 Z M381.0875,112.445 L379.1525,112.475 C377.1875,112.49 376.2125,113.12 376.2125,114.35 C376.2125,114.77 376.3775,115.1 376.7075,115.355 C377.0375,115.61 377.4875,115.745 378.0275,115.745 C378.8075,115.745 379.5275,115.475 380.1575,114.935 C380.7725,114.425 381.0875,113.855 381.0875,113.255 L381.0875,112.445 Z M387.1325,108.305 C386.5625,108.305 386.0525,108.485 385.6325,108.845 C385.2725,109.13 384.9875,109.52 384.7775,110 L384.7775,108.515 L383.8775,108.515 L383.8775,116.27 L384.7775,116.27 L384.7775,112.175 C384.7775,111.395 384.9725,110.72 385.3925,110.15 C385.8125,109.52 386.3825,109.22 387.0725,109.22 C387.4625,109.22 387.8525,109.265 388.2575,109.385 L388.2575,108.47 C387.9575,108.35 387.5825,108.305 387.1325,108.305 Z M392.4125,108.305 C393.6425,108.305 394.5575,108.71 395.1725,109.55 C395.7125,110.285 396.0125,111.32 396.0575,112.655 L389.7575,112.655 C389.8025,113.6 390.0575,114.35 390.5225,114.89 C391.0025,115.43 391.6325,115.7 392.4425,115.7 C393.1475,115.7 393.7175,115.505 394.1525,115.145 C394.5125,114.83 394.7825,114.38 394.9775,113.78 L395.8925,113.78 C395.7125,114.53 395.3675,115.145 394.8575,115.625 C394.2275,116.195 393.4325,116.48 392.4425,116.48 C391.3475,116.48 390.4775,116.105 389.8325,115.37 C389.1575,114.62 388.8275,113.615 388.8275,112.385 C388.8275,111.245 389.1425,110.3 389.7875,109.52 C390.4475,108.71 391.3175,108.305 392.4125,108.305 Z M392.4275,109.085 C391.6625,109.085 391.0475,109.34 390.5825,109.88 C390.1175,110.405 389.8475,111.08 389.7725,111.92 L395.1125,111.92 C394.9625,110.03 394.0625,109.085 392.4275,109.085 Z M406.0775,108.305 C407.1725,108.305 408.0425,108.71 408.6875,109.55 C409.2575,110.3 409.5425,111.245 409.5425,112.415 C409.5425,113.555 409.2575,114.5 408.7025,115.25 C408.0725,116.06 407.2175,116.48 406.1075,116.48 C404.8625,116.48 403.9625,115.865 403.3925,114.65 L403.3925,119.24 L402.4925,119.24 L402.4925,108.515 L403.3475,108.515 L403.3475,110.045 C403.9175,108.875 404.8175,108.305 406.0775,108.305 Z M405.9725,109.07 C405.1325,109.07 404.4725,109.4 404.0075,110.06 C403.5725,110.645 403.3625,111.41 403.3625,112.355 L403.3625,112.52 C403.3625,113.45 403.5875,114.215 404.0525,114.815 C404.5175,115.415 405.1475,115.715 405.9425,115.715 C406.8275,115.715 407.5025,115.385 407.9825,114.755 C408.4025,114.17 408.6125,113.39 408.6125,112.415 C408.6125,111.44 408.4025,110.66 407.9975,110.075 C407.5175,109.4 406.8425,109.07 405.9725,109.07 Z M414.3875,108.305 C413.8175,108.305 413.3075,108.485 412.8875,108.845 C412.5275,109.13 412.2425,109.52 412.0325,110 L412.0325,108.515 L411.1325,108.515 L411.1325,116.27 L412.0325,116.27 L412.0325,112.175 C412.0325,111.395 412.2275,110.72 412.6475,110.15 C413.0675,109.52 413.6375,109.22 414.3275,109.22 C414.7175,109.22 415.1075,109.265 415.5125,109.385 L415.5125,108.47 C415.2125,108.35 414.8375,108.305 414.3875,108.305 Z M419.6675,108.305 C420.8975,108.305 421.8125,108.71 422.4275,109.55 C422.9675,110.285 423.2675,111.32 423.3125,112.655 L417.0125,112.655 C417.0575,113.6 417.3125,114.35 417.7775,114.89 C418.2575,115.43 418.8875,115.7 419.6975,115.7 C420.4025,115.7 420.9725,115.505 421.4075,115.145 C421.7675,114.83 422.0375,114.38 422.2325,113.78 L423.1475,113.78 C422.9675,114.53 422.6225,115.145 422.1125,115.625 C421.4825,116.195 420.6875,116.48 419.6975,116.48 C418.6025,116.48 417.7325,116.105 417.0875,115.37 C416.4125,114.62 416.0825,113.615 416.0825,112.385 C416.0825,111.245 416.3975,110.3 417.0425,109.52 C417.7025,108.71 418.5725,108.305 419.6675,108.305 Z M419.6825,109.085 C418.9175,109.085 418.3025,109.34 417.8375,109.88 C417.3725,110.405 417.1025,111.08 417.0275,111.92 L422.3675,111.92 C422.2175,110.03 421.3175,109.085 419.6825,109.085 Z M427.3925,108.305 C426.5825,108.305 425.8925,108.485 425.3525,108.86 C424.7825,109.25 424.5125,109.745 424.5125,110.375 C424.5125,111.005 424.7975,111.5 425.3975,111.86 C425.7575,112.085 426.3875,112.31 427.2875,112.55 C428.1725,112.775 428.7425,112.955 429.0125,113.09 C429.5225,113.345 429.7775,113.705 429.7775,114.17 C429.7775,115.19 429.0275,115.7 427.5275,115.7 C426.8075,115.7 426.2675,115.565 425.9075,115.295 C425.5175,114.995 425.2775,114.5 425.1875,113.825 L424.3025,113.825 C424.4825,115.595 425.5625,116.48 427.5575,116.48 C429.6575,116.48 430.7075,115.685 430.7075,114.125 C430.7075,113.465 430.3925,112.94 429.7775,112.565 C429.3875,112.325 428.7125,112.085 427.7675,111.845 C426.9725,111.635 426.4325,111.455 426.1325,111.305 C425.6675,111.065 425.4425,110.75 425.4425,110.36 C425.4425,109.97 425.6225,109.67 425.9825,109.43 C426.3425,109.19 426.8075,109.085 427.3775,109.085 C428.0675,109.085 428.5925,109.22 428.9525,109.505 C429.2825,109.76 429.4925,110.15 429.5975,110.69 L430.4825,110.69 C430.2575,109.1 429.2225,108.305 427.3925,108.305 Z M435.2825,108.305 C436.5125,108.305 437.4275,108.71 438.0425,109.55 C438.5825,110.285 438.8825,111.32 438.9275,112.655 L432.6275,112.655 C432.6725,113.6 432.9275,114.35 433.3925,114.89 C433.8725,115.43 434.5025,115.7 435.3125,115.7 C436.0175,115.7 436.5875,115.505 437.0225,115.145 C437.3825,114.83 437.6525,114.38 437.8475,113.78 L438.7625,113.78 C438.5825,114.53 438.2375,115.145 437.7275,115.625 C437.0975,116.195 436.3025,116.48 435.3125,116.48 C434.2175,116.48 433.3475,116.105 432.7025,115.37 C432.0275,114.62 431.6975,113.615 431.6975,112.385 C431.6975,111.245 432.0125,110.3 432.6575,109.52 C433.3175,108.71 434.1875,108.305 435.2825,108.305 Z M435.2975,109.085 C434.5325,109.085 433.9175,109.34 433.4525,109.88 C432.9875,110.405 432.7175,111.08 432.6425,111.92 L437.9825,111.92 C437.8325,110.03 436.9325,109.085 435.2975,109.085 Z M443.7875,108.305 C443.2475,108.305 442.7525,108.425 442.3175,108.695 C441.8825,108.965 441.5375,109.325 441.2675,109.79 L441.2675,108.515 L440.3675,108.515 L440.3675,116.27 L441.2675,116.27 L441.2675,111.59 C441.3125,110.825 441.5525,110.21 442.0025,109.76 C442.4225,109.31 442.9325,109.085 443.5625,109.085 C445.0325,109.085 445.7675,109.91 445.7675,111.56 L445.7675,116.27 L446.6675,116.27 L446.6675,111.5 C446.6675,109.37 445.7075,108.305 443.7875,108.305 Z M450.4325,106.01 L449.5325,106.385 L449.5325,108.515 L447.8825,108.515 L447.8825,109.295 L449.5325,109.295 L449.5325,114.545 C449.5325,115.115 449.6375,115.535 449.8775,115.805 C450.1325,116.105 450.5675,116.27 451.1675,116.27 L452.2625,116.27 L452.2625,115.49 L451.2875,115.49 C450.9575,115.49 450.7325,115.415 450.6125,115.28 C450.4925,115.13 450.4325,114.875 450.4325,114.545 L450.4325,109.295 L452.4575,109.295 L452.4575,108.515 L450.4325,108.515 L450.4325,106.01 Z M456.9575,108.305 C458.1875,108.305 459.1025,108.71 459.7175,109.55 C460.2575,110.285 460.5575,111.32 460.6025,112.655 L454.3025,112.655 C454.3475,113.6 454.6025,114.35 455.0675,114.89 C455.5475,115.43 456.1775,115.7 456.9875,115.7 C457.6925,115.7 458.2625,115.505 458.6975,115.145 C459.0575,114.83 459.3275,114.38 459.5225,113.78 L460.4375,113.78 C460.2575,114.53 459.9125,115.145 459.4025,115.625 C458.7725,116.195 457.9775,116.48 456.9875,116.48 C455.8925,116.48 455.0225,116.105 454.3775,115.37 C453.7025,114.62 453.3725,113.615 453.3725,112.385 C453.3725,111.245 453.6875,110.3 454.3325,109.52 C454.9925,108.71 455.8625,108.305 456.9575,108.305 Z M456.9725,109.085 C456.2075,109.085 455.5925,109.34 455.1275,109.88 C454.6625,110.405 454.3925,111.08 454.3175,111.92 L459.6575,111.92 C459.5075,110.03 458.6075,109.085 456.9725,109.085 Z M467.8925,105.35 L468.7925,105.35 L468.7925,116.27 L467.9375,116.27 L467.9375,114.74 C467.3975,115.895 466.4975,116.48 465.2225,116.48 C464.0975,116.48 463.2275,116.06 462.5975,115.25 C462.0275,114.5 461.7425,113.54 461.7425,112.385 C461.7425,111.245 462.0275,110.3 462.5975,109.55 C463.2275,108.71 464.0825,108.305 465.1775,108.305 C466.4075,108.305 467.3225,108.92 467.8925,110.15 L467.8925,105.35 Z M465.3425,109.07 C464.4575,109.07 463.7825,109.4 463.3025,110.06 C462.8675,110.63 462.6575,111.41 462.6575,112.385 C462.6575,113.36 462.8675,114.14 463.2875,114.725 C463.7525,115.385 464.4275,115.715 465.3125,115.715 C466.1525,115.715 466.8125,115.385 467.2775,114.755 C467.6975,114.17 467.9225,113.42 467.9225,112.505 L467.9225,112.325 C467.9225,111.365 467.6825,110.6 467.2325,110 C466.7525,109.37 466.1225,109.07 465.3425,109.07 Z M475.6775,105.35 L476.5775,105.35 L476.5775,110.15 C477.1475,108.92 478.0475,108.305 479.2925,108.305 C480.3725,108.305 481.2425,108.71 481.8725,109.55 C482.4425,110.3 482.7275,111.245 482.7275,112.385 C482.7275,113.54 482.4425,114.5 481.8725,115.25 C481.2425,116.06 480.3725,116.48 479.2625,116.48 C477.9725,116.48 477.0575,115.895 476.5325,114.74 L476.5325,116.27 L475.6775,116.27 L475.6775,105.35 Z M479.1275,109.07 C478.3325,109.07 477.7025,109.37 477.2375,110 C476.7725,110.6 476.5475,111.365 476.5475,112.325 L476.5475,112.505 C476.5475,113.42 476.7575,114.17 477.1925,114.755 C477.6425,115.385 478.3025,115.715 479.1575,115.715 C480.0275,115.715 480.7025,115.385 481.1825,114.725 C481.6025,114.14 481.8125,113.36 481.8125,112.385 C481.8125,111.41 481.5875,110.63 481.1675,110.06 C480.6875,109.4 480.0125,109.07 479.1275,109.07 Z M483.4475,108.515 L486.5225,116.075 L485.2175,119.24 L486.1925,119.24 L490.4675,108.515 L489.4775,108.515 L486.9725,114.98 L484.4375,108.515 L483.4475,108.515 Z M53.6675,132.575 C54.7625,132.575 55.6325,132.98 56.2775,133.82 C56.8475,134.57 57.1325,135.515 57.1325,136.685 C57.1325,137.825 56.8475,138.77 56.2925,139.52 C55.6625,140.33 54.8075,140.75 53.6975,140.75 C52.4525,140.75 51.5525,140.135 50.9825,138.92 L50.9825,143.51 L50.0825,143.51 L50.0825,132.785 L50.9375,132.785 L50.9375,134.315 C51.5075,133.145 52.4075,132.575 53.6675,132.575 Z M53.5625,133.34 C52.7225,133.34 52.0625,133.67 51.5975,134.33 C51.1625,134.915 50.9525,135.68 50.9525,136.625 L50.9525,136.79 C50.9525,137.72 51.1775,138.485 51.6425,139.085 C52.1075,139.685 52.7375,139.985 53.5325,139.985 C54.4175,139.985 55.0925,139.655 55.5725,139.025 C55.9925,138.44 56.2025,137.66 56.2025,136.685 C56.2025,135.71 55.9925,134.93 55.5875,134.345 C55.1075,133.67 54.4325,133.34 53.5625,133.34 Z M62.1125,132.575 C63.2525,132.575 64.1675,132.98 64.8575,133.805 C65.4875,134.57 65.8025,135.53 65.8025,136.67 C65.8025,137.81 65.4875,138.755 64.8575,139.52 C64.1675,140.33 63.2525,140.75 62.1125,140.75 C60.9725,140.75 60.0575,140.33 59.3675,139.52 C58.7375,138.755 58.4225,137.81 58.4225,136.67 C58.4225,135.53 58.7375,134.57 59.3825,133.805 C60.0575,132.98 60.9725,132.575 62.1125,132.575 Z M62.1125,133.355 C61.2275,133.355 60.5375,133.685 60.0275,134.375 C59.5625,134.975 59.3375,135.74 59.3375,136.67 C59.3375,137.585 59.5625,138.35 60.0275,138.95 C60.5375,139.625 61.2275,139.97 62.1125,139.97 C62.9975,139.97 63.7025,139.625 64.2125,138.95 C64.6625,138.335 64.9025,137.57 64.9025,136.67 C64.9025,135.74 64.6625,134.975 64.2125,134.375 C63.7025,133.685 62.9975,133.355 62.1125,133.355 Z M67.6775,129.62 L67.6775,140.54 L68.5775,140.54 L68.5775,129.62 L67.6775,129.62 Z M74.0375,132.575 C75.1175,132.575 75.9275,132.86 76.4525,133.46 C76.9025,133.955 77.1425,134.645 77.1425,135.545 L77.1425,140.54 L76.2875,140.54 L76.2875,139.055 C75.9725,139.505 75.5525,139.895 75.0425,140.195 C74.4125,140.555 73.7375,140.75 73.0025,140.75 C72.2525,140.75 71.6375,140.555 71.1875,140.18 C70.6925,139.79 70.4525,139.265 70.4525,138.635 C70.4525,137.735 70.8125,137.075 71.5475,136.655 C72.1775,136.25 73.0925,136.04 74.2625,136.04 L76.2425,136.01 L76.2425,135.545 C76.2425,134.075 75.4925,133.34 73.9925,133.34 C73.3625,133.34 72.8525,133.46 72.4475,133.73 C71.9975,134.015 71.7125,134.42 71.5925,134.96 L70.7075,134.9 C70.8575,134.12 71.2475,133.52 71.8775,133.13 C72.4325,132.755 73.1525,132.575 74.0375,132.575 Z M76.2425,136.715 L74.3075,136.745 C72.3425,136.76 71.3675,137.39 71.3675,138.62 C71.3675,139.04 71.5325,139.37 71.8625,139.625 C72.1925,139.88 72.6425,140.015 73.1825,140.015 C73.9625,140.015 74.6825,139.745 75.3125,139.205 C75.9275,138.695 76.2425,138.125 76.2425,137.525 L76.2425,136.715 Z M82.2875,132.575 C81.7175,132.575 81.2075,132.755 80.7875,133.115 C80.4275,133.4 80.1425,133.79 79.9325,134.27 L79.9325,132.785 L79.0325,132.785 L79.0325,140.54 L79.9325,140.54 L79.9325,136.445 C79.9325,135.665 80.1275,134.99 80.5475,134.42 C80.9675,133.79 81.5375,133.49 82.2275,133.49 C82.6175,133.49 83.0075,133.535 83.4125,133.655 L83.4125,132.74 C83.1125,132.62 82.7375,132.575 82.2875,132.575 Z M85.3325,129.995 C85.1075,129.995 84.9275,130.07 84.7925,130.22 C84.6425,130.34 84.5675,130.52 84.5675,130.745 C84.5675,130.955 84.6425,131.135 84.7925,131.285 C84.9275,131.42 85.1075,131.495 85.3325,131.495 C85.5425,131.495 85.7075,131.42 85.8575,131.285 C86.0075,131.135 86.0975,130.955 86.0975,130.745 C86.0975,130.52 86.0225,130.34 85.8725,130.22 C85.7225,130.07 85.5425,129.995 85.3325,129.995 Z M84.8825,132.785 L84.8825,140.54 L85.7825,140.54 L85.7825,132.785 L84.8825,132.785 Z M87.7025,132.785 L87.7025,133.565 L92.5475,133.565 L87.5525,139.835 L87.5525,140.54 L93.9575,140.54 L93.9575,139.76 L88.7075,139.76 L93.7175,133.475 L93.7175,132.785 L87.7025,132.785 Z M98.4125,132.575 C99.6425,132.575 100.5575,132.98 101.1725,133.82 C101.7125,134.555 102.0125,135.59 102.0575,136.925 L95.7575,136.925 C95.8025,137.87 96.0575,138.62 96.5225,139.16 C97.0025,139.7 97.6325,139.97 98.4425,139.97 C99.1475,139.97 99.7175,139.775 100.1525,139.415 C100.5125,139.1 100.7825,138.65 100.9775,138.05 L101.8925,138.05 C101.7125,138.8 101.3675,139.415 100.8575,139.895 C100.2275,140.465 99.4325,140.75 98.4425,140.75 C97.3475,140.75 96.4775,140.375 95.8325,139.64 C95.1575,138.89 94.8275,137.885 94.8275,136.655 C94.8275,135.515 95.1425,134.57 95.7875,133.79 C96.4475,132.98 97.3175,132.575 98.4125,132.575 Z M98.4275,133.355 C97.6625,133.355 97.0475,133.61 96.5825,134.15 C96.1175,134.675 95.8475,135.35 95.7725,136.19 L101.1125,136.19 C100.9625,134.3 100.0625,133.355 98.4275,133.355 Z M106.7525,132.575 C106.1825,132.575 105.6725,132.755 105.2525,133.115 C104.8925,133.4 104.6075,133.79 104.3975,134.27 L104.3975,132.785 L103.4975,132.785 L103.4975,140.54 L104.3975,140.54 L104.3975,136.445 C104.3975,135.665 104.5925,134.99 105.0125,134.42 C105.4325,133.79 106.0025,133.49 106.6925,133.49 C107.0825,133.49 107.4725,133.535 107.8775,133.655 L107.8775,132.74 C107.5775,132.62 107.2025,132.575 106.7525,132.575 Z M115.7675,130.28 L114.8675,130.655 L114.8675,132.785 L113.2175,132.785 L113.2175,133.565 L114.8675,133.565 L114.8675,138.815 C114.8675,139.385 114.9725,139.805 115.2125,140.075 C115.4675,140.375 115.9025,140.54 116.5025,140.54 L117.5975,140.54 L117.5975,139.76 L116.6225,139.76 C116.2925,139.76 116.0675,139.685 115.9475,139.55 C115.8275,139.4 115.7675,139.145 115.7675,138.815 L115.7675,133.565 L117.7925,133.565 L117.7925,132.785 L115.7675,132.785 L115.7675,130.28 Z M122.2925,132.575 C123.5225,132.575 124.4375,132.98 125.0525,133.82 C125.5925,134.555 125.8925,135.59 125.9375,136.925 L119.6375,136.925 C119.6825,137.87 119.9375,138.62 120.4025,139.16 C120.8825,139.7 121.5125,139.97 122.3225,139.97 C123.0275,139.97 123.5975,139.775 124.0325,139.415 C124.3925,139.1 124.6625,138.65 124.8575,138.05 L125.7725,138.05 C125.5925,138.8 125.2475,139.415 124.7375,139.895 C124.1075,140.465 123.3125,140.75 122.3225,140.75 C121.2275,140.75 120.3575,140.375 119.7125,139.64 C119.0375,138.89 118.7075,137.885 118.7075,136.655 C118.7075,135.515 119.0225,134.57 119.6675,133.79 C120.3275,132.98 121.1975,132.575 122.2925,132.575 Z M122.3075,133.355 C121.5425,133.355 120.9275,133.61 120.4625,134.15 C119.9975,134.675 119.7275,135.35 119.6525,136.19 L124.9925,136.19 C124.8425,134.3 123.9425,133.355 122.3075,133.355 Z M130.6475,132.575 C129.5225,132.575 128.6375,132.98 127.9925,133.805 C127.3775,134.57 127.0775,135.545 127.0775,136.715 C127.0775,137.9 127.3625,138.86 127.9625,139.58 C128.5925,140.36 129.4925,140.75 130.6325,140.75 C131.5625,140.75 132.3275,140.495 132.8975,140 C133.4825,139.49 133.8575,138.74 134.0075,137.765 L133.1225,137.765 C132.8975,139.235 132.0725,139.97 130.6325,139.97 C129.7775,139.97 129.1175,139.67 128.6675,139.085 C128.2175,138.5 127.9925,137.705 127.9925,136.715 C127.9925,135.71 128.2175,134.9 128.6975,134.3 C129.1775,133.67 129.8375,133.355 130.6475,133.355 C131.3225,133.355 131.8775,133.52 132.2975,133.85 C132.7175,134.18 132.9725,134.66 133.0775,135.32 L133.9775,135.32 C133.8575,134.39 133.4975,133.7 132.9125,133.25 C132.3275,132.8 131.5775,132.575 130.6475,132.575 Z M135.4475,129.62 L135.4475,140.54 L136.3625,140.54 L136.3625,136.055 C136.3625,135.29 136.5725,134.645 137.0225,134.135 C137.4725,133.61 138.0125,133.355 138.6575,133.355 C139.3475,133.355 139.8725,133.55 140.2625,133.955 C140.6375,134.375 140.8325,134.96 140.8325,135.71 L140.8325,140.54 L141.7325,140.54 L141.7325,135.59 C141.7325,134.63 141.4775,133.88 140.9825,133.355 C140.4875,132.83 139.7975,132.575 138.9125,132.575 C138.3725,132.575 137.8775,132.71 137.4425,132.98 C136.9925,133.265 136.6325,133.67 136.3625,134.195 L136.3625,129.62 L135.4475,129.62 Z M147.0425,132.575 C146.5025,132.575 146.0075,132.695 145.5725,132.965 C145.1375,133.235 144.7925,133.595 144.5225,134.06 L144.5225,132.785 L143.6225,132.785 L143.6225,140.54 L144.5225,140.54 L144.5225,135.86 C144.5675,135.095 144.8075,134.48 145.2575,134.03 C145.6775,133.58 146.1875,133.355 146.8175,133.355 C148.2875,133.355 149.0225,134.18 149.0225,135.83 L149.0225,140.54 L149.9225,140.54 L149.9225,135.77 C149.9225,133.64 148.9625,132.575 147.0425,132.575 Z M155.2025,132.575 C156.3425,132.575 157.2575,132.98 157.9475,133.805 C158.5775,134.57 158.8925,135.53 158.8925,136.67 C158.8925,137.81 158.5775,138.755 157.9475,139.52 C157.2575,140.33 156.3425,140.75 155.2025,140.75 C154.0625,140.75 153.1475,140.33 152.4575,139.52 C151.8275,138.755 151.5125,137.81 151.5125,136.67 C151.5125,135.53 151.8275,134.57 152.4725,133.805 C153.1475,132.98 154.0625,132.575 155.2025,132.575 Z M155.2025,133.355 C154.3175,133.355 153.6275,133.685 153.1175,134.375 C152.6525,134.975 152.4275,135.74 152.4275,136.67 C152.4275,137.585 152.6525,138.35 153.1175,138.95 C153.6275,139.625 154.3175,139.97 155.2025,139.97 C156.0875,139.97 156.7925,139.625 157.3025,138.95 C157.7525,138.335 157.9925,137.57 157.9925,136.67 C157.9925,135.74 157.7525,134.975 157.3025,134.375 C156.7925,133.685 156.0875,133.355 155.2025,133.355 Z M160.7675,129.62 L160.7675,140.54 L161.6675,140.54 L161.6675,129.62 L160.7675,129.62 Z M167.2325,132.575 C168.3725,132.575 169.2875,132.98 169.9775,133.805 C170.6075,134.57 170.9225,135.53 170.9225,136.67 C170.9225,137.81 170.6075,138.755 169.9775,139.52 C169.2875,140.33 168.3725,140.75 167.2325,140.75 C166.0925,140.75 165.1775,140.33 164.4875,139.52 C163.8575,138.755 163.5425,137.81 163.5425,136.67 C163.5425,135.53 163.8575,134.57 164.5025,133.805 C165.1775,132.98 166.0925,132.575 167.2325,132.575 Z M167.2325,133.355 C166.3475,133.355 165.6575,133.685 165.1475,134.375 C164.6825,134.975 164.4575,135.74 164.4575,136.67 C164.4575,137.585 164.6825,138.35 165.1475,138.95 C165.6575,139.625 166.3475,139.97 167.2325,139.97 C168.1175,139.97 168.8225,139.625 169.3325,138.95 C169.7825,138.335 170.0225,137.57 170.0225,136.67 C170.0225,135.74 169.7825,134.975 169.3325,134.375 C168.8225,133.685 168.1175,133.355 167.2325,133.355 Z M175.7075,132.575 C176.9825,132.575 177.9125,133.16 178.4825,134.345 L178.4825,132.785 L179.3825,132.785 L179.3825,139.97 C179.3825,142.46 178.2125,143.72 175.9025,143.72 C174.8825,143.72 174.1025,143.495 173.5475,143.06 C173.0225,142.64 172.6925,142.025 172.5575,141.2 L173.4575,141.2 C173.5625,141.77 173.8025,142.205 174.1775,142.49 C174.5675,142.805 175.1375,142.97 175.9025,142.97 C177.6125,142.97 178.4825,141.995 178.4825,140.075 L178.4825,138.59 C177.9125,139.76 176.9825,140.36 175.7075,140.36 C174.6275,140.36 173.7575,139.97 173.1125,139.205 C172.5125,138.485 172.2125,137.585 172.2125,136.475 C172.2125,135.38 172.5125,134.465 173.1125,133.745 C173.7575,132.965 174.6275,132.575 175.7075,132.575 Z M175.8125,133.34 C174.9575,133.34 174.2975,133.64 173.8175,134.27 C173.3525,134.84 173.1275,135.575 173.1275,136.475 C173.1275,137.345 173.3375,138.065 173.7725,138.635 C174.2375,139.265 174.9125,139.58 175.7975,139.58 C176.6525,139.58 177.3275,139.28 177.8075,138.68 C178.2575,138.11 178.4825,137.375 178.4825,136.475 C178.4825,135.575 178.2575,134.84 177.8075,134.27 C177.3275,133.64 176.6525,133.34 175.8125,133.34 Z M180.4025,132.785 L183.4775,140.345 L182.1725,143.51 L183.1475,143.51 L187.4225,132.785 L186.4325,132.785 L183.9275,139.25 L181.3925,132.785 L180.4025,132.785 Z M195.3125,130.28 L194.4125,130.655 L194.4125,132.785 L192.7625,132.785 L192.7625,133.565 L194.4125,133.565 L194.4125,138.815 C194.4125,139.385 194.5175,139.805 194.7575,140.075 C195.0125,140.375 195.4475,140.54 196.0475,140.54 L197.1425,140.54 L197.1425,139.76 L196.1675,139.76 C195.8375,139.76 195.6125,139.685 195.4925,139.55 C195.3725,139.4 195.3125,139.145 195.3125,138.815 L195.3125,133.565 L197.3375,133.565 L197.3375,132.785 L195.3125,132.785 L195.3125,130.28 Z M202.0925,132.575 C203.2325,132.575 204.1475,132.98 204.8375,133.805 C205.4675,134.57 205.7825,135.53 205.7825,136.67 C205.7825,137.81 205.4675,138.755 204.8375,139.52 C204.1475,140.33 203.2325,140.75 202.0925,140.75 C200.9525,140.75 200.0375,140.33 199.3475,139.52 C198.7175,138.755 198.4025,137.81 198.4025,136.67 C198.4025,135.53 198.7175,134.57 199.3625,133.805 C200.0375,132.98 200.9525,132.575 202.0925,132.575 Z M202.0925,133.355 C201.2075,133.355 200.5175,133.685 200.0075,134.375 C199.5425,134.975 199.3175,135.74 199.3175,136.67 C199.3175,137.585 199.5425,138.35 200.0075,138.95 C200.5175,139.625 201.2075,139.97 202.0925,139.97 C202.9775,139.97 203.6825,139.625 204.1925,138.95 C204.6425,138.335 204.8825,137.57 204.8825,136.67 C204.8825,135.74 204.6425,134.975 204.1925,134.375 C203.6825,133.685 202.9775,133.355 202.0925,133.355 Z M215.5175,129.83 C214.8575,129.83 214.3775,130.01 214.0475,130.385 C213.7175,130.73 213.5675,131.225 213.5675,131.87 L213.5675,132.785 L211.4975,132.785 L211.4975,133.565 L213.5675,133.565 L213.5675,140.54 L214.4675,140.54 L214.4675,133.565 L216.7925,133.565 L216.7925,132.785 L214.4675,132.785 L214.4675,131.885 C214.4675,131.435 214.5575,131.12 214.7375,130.925 C214.9175,130.715 215.2025,130.625 215.5925,130.625 L216.8975,130.625 L216.8975,129.83 L215.5175,129.83 Z M217.9175,132.785 L217.9175,137.57 C217.9175,139.685 218.8625,140.75 220.7525,140.75 C221.8625,140.75 222.7325,140.24 223.3325,139.235 L223.3325,140.54 L224.2325,140.54 L224.2325,132.785 L223.3325,132.785 L223.3325,137.495 C223.2725,138.23 223.0175,138.83 222.5675,139.28 C222.1175,139.73 221.5925,139.97 220.9925,139.97 C220.2425,139.97 219.6875,139.76 219.3275,139.34 C218.9825,138.935 218.8175,138.335 218.8175,137.525 L218.8175,132.785 L217.9175,132.785 Z M226.4075,129.62 L226.4075,140.54 L227.3075,140.54 L227.3075,129.62 L226.4075,129.62 Z M229.7675,129.62 L229.7675,140.54 L230.6675,140.54 L230.6675,129.62 L229.7675,129.62 Z M231.9725,132.785 L235.0475,140.345 L233.7425,143.51 L234.7175,143.51 L238.9925,132.785 L238.0025,132.785 L235.4975,139.25 L232.9625,132.785 L231.9725,132.785 Z M245.0075,132.785 L245.0075,137.57 C245.0075,139.685 245.9525,140.75 247.8425,140.75 C248.9525,140.75 249.8225,140.24 250.4225,139.235 L250.4225,140.54 L251.3225,140.54 L251.3225,132.785 L250.4225,132.785 L250.4225,137.495 C250.3625,138.23 250.1075,138.83 249.6575,139.28 C249.2075,139.73 248.6825,139.97 248.0825,139.97 C247.3325,139.97 246.7775,139.76 246.4175,139.34 C246.0725,138.935 245.9075,138.335 245.9075,137.525 L245.9075,132.785 L245.0075,132.785 Z M256.6325,132.575 C256.0925,132.575 255.5975,132.695 255.1625,132.965 C254.7275,133.235 254.3825,133.595 254.1125,134.06 L254.1125,132.785 L253.2125,132.785 L253.2125,140.54 L254.1125,140.54 L254.1125,135.86 C254.1575,135.095 254.3975,134.48 254.8475,134.03 C255.2675,133.58 255.7775,133.355 256.4075,133.355 C257.8775,133.355 258.6125,134.18 258.6125,135.83 L258.6125,140.54 L259.5125,140.54 L259.5125,135.77 C259.5125,133.64 258.5525,132.575 256.6325,132.575 Z M267.2525,129.62 L268.1525,129.62 L268.1525,140.54 L267.2975,140.54 L267.2975,139.01 C266.7575,140.165 265.8575,140.75 264.5825,140.75 C263.4575,140.75 262.5875,140.33 261.9575,139.52 C261.3875,138.77 261.1025,137.81 261.1025,136.655 C261.1025,135.515 261.3875,134.57 261.9575,133.82 C262.5875,132.98 263.4425,132.575 264.5375,132.575 C265.7675,132.575 266.6825,133.19 267.2525,134.42 L267.2525,129.62 Z M264.7025,133.34 C263.8175,133.34 263.1425,133.67 262.6625,134.33 C262.2275,134.9 262.0175,135.68 262.0175,136.655 C262.0175,137.63 262.2275,138.41 262.6475,138.995 C263.1125,139.655 263.7875,139.985 264.6725,139.985 C265.5125,139.985 266.1725,139.655 266.6375,139.025 C267.0575,138.44 267.2825,137.69 267.2825,136.775 L267.2825,136.595 C267.2825,135.635 267.0425,134.87 266.5925,134.27 C266.1125,133.64 265.4825,133.34 264.7025,133.34 Z M273.1775,132.575 C274.4075,132.575 275.3225,132.98 275.9375,133.82 C276.4775,134.555 276.7775,135.59 276.8225,136.925 L270.5225,136.925 C270.5675,137.87 270.8225,138.62 271.2875,139.16 C271.7675,139.7 272.3975,139.97 273.2075,139.97 C273.9125,139.97 274.4825,139.775 274.9175,139.415 C275.2775,139.1 275.5475,138.65 275.7425,138.05 L276.6575,138.05 C276.4775,138.8 276.1325,139.415 275.6225,139.895 C274.9925,140.465 274.1975,140.75 273.2075,140.75 C272.1125,140.75 271.2425,140.375 270.5975,139.64 C269.9225,138.89 269.5925,137.885 269.5925,136.655 C269.5925,135.515 269.9075,134.57 270.5525,133.79 C271.2125,132.98 272.0825,132.575 273.1775,132.575 Z M273.1925,133.355 C272.4275,133.355 271.8125,133.61 271.3475,134.15 C270.8825,134.675 270.6125,135.35 270.5375,136.19 L275.8775,136.19 C275.7275,134.3 274.8275,133.355 273.1925,133.355 Z M281.5175,132.575 C280.9475,132.575 280.4375,132.755 280.0175,133.115 C279.6575,133.4 279.3725,133.79 279.1625,134.27 L279.1625,132.785 L278.2625,132.785 L278.2625,140.54 L279.1625,140.54 L279.1625,136.445 C279.1625,135.665 279.3575,134.99 279.7775,134.42 C280.1975,133.79 280.7675,133.49 281.4575,133.49 C281.8475,133.49 282.2375,133.535 282.6425,133.655 L282.6425,132.74 C282.3425,132.62 281.9675,132.575 281.5175,132.575 Z M286.3025,132.575 C285.4925,132.575 284.8025,132.755 284.2625,133.13 C283.6925,133.52 283.4225,134.015 283.4225,134.645 C283.4225,135.275 283.7075,135.77 284.3075,136.13 C284.6675,136.355 285.2975,136.58 286.1975,136.82 C287.0825,137.045 287.6525,137.225 287.9225,137.36 C288.4325,137.615 288.6875,137.975 288.6875,138.44 C288.6875,139.46 287.9375,139.97 286.4375,139.97 C285.7175,139.97 285.1775,139.835 284.8175,139.565 C284.4275,139.265 284.1875,138.77 284.0975,138.095 L283.2125,138.095 C283.3925,139.865 284.4725,140.75 286.4675,140.75 C288.5675,140.75 289.6175,139.955 289.6175,138.395 C289.6175,137.735 289.3025,137.21 288.6875,136.835 C288.2975,136.595 287.6225,136.355 286.6775,136.115 C285.8825,135.905 285.3425,135.725 285.0425,135.575 C284.5775,135.335 284.3525,135.02 284.3525,134.63 C284.3525,134.24 284.5325,133.94 284.8925,133.7 C285.2525,133.46 285.7175,133.355 286.2875,133.355 C286.9775,133.355 287.5025,133.49 287.8625,133.775 C288.1925,134.03 288.4025,134.42 288.5075,134.96 L289.3925,134.96 C289.1675,133.37 288.1325,132.575 286.3025,132.575 Z M292.9325,130.28 L292.0325,130.655 L292.0325,132.785 L290.3825,132.785 L290.3825,133.565 L292.0325,133.565 L292.0325,138.815 C292.0325,139.385 292.1375,139.805 292.3775,140.075 C292.6325,140.375 293.0675,140.54 293.6675,140.54 L294.7625,140.54 L294.7625,139.76 L293.7875,139.76 C293.4575,139.76 293.2325,139.685 293.1125,139.55 C292.9925,139.4 292.9325,139.145 292.9325,138.815 L292.9325,133.565 L294.9575,133.565 L294.9575,132.785 L292.9325,132.785 L292.9325,130.28 Z M299.6075,132.575 C300.6875,132.575 301.4975,132.86 302.0225,133.46 C302.4725,133.955 302.7125,134.645 302.7125,135.545 L302.7125,140.54 L301.8575,140.54 L301.8575,139.055 C301.5425,139.505 301.1225,139.895 300.6125,140.195 C299.9825,140.555 299.3075,140.75 298.5725,140.75 C297.8225,140.75 297.2075,140.555 296.7575,140.18 C296.2625,139.79 296.0225,139.265 296.0225,138.635 C296.0225,137.735 296.3825,137.075 297.1175,136.655 C297.7475,136.25 298.6625,136.04 299.8325,136.04 L301.8125,136.01 L301.8125,135.545 C301.8125,134.075 301.0625,133.34 299.5625,133.34 C298.9325,133.34 298.4225,133.46 298.0175,133.73 C297.5675,134.015 297.2825,134.42 297.1625,134.96 L296.2775,134.9 C296.4275,134.12 296.8175,133.52 297.4475,133.13 C298.0025,132.755 298.7225,132.575 299.6075,132.575 Z M301.8125,136.715 L299.8775,136.745 C297.9125,136.76 296.9375,137.39 296.9375,138.62 C296.9375,139.04 297.1025,139.37 297.4325,139.625 C297.7625,139.88 298.2125,140.015 298.7525,140.015 C299.5325,140.015 300.2525,139.745 300.8825,139.205 C301.4975,138.695 301.8125,138.125 301.8125,137.525 L301.8125,136.715 Z M308.0225,132.575 C307.4825,132.575 306.9875,132.695 306.5525,132.965 C306.1175,133.235 305.7725,133.595 305.5025,134.06 L305.5025,132.785 L304.6025,132.785 L304.6025,140.54 L305.5025,140.54 L305.5025,135.86 C305.5475,135.095 305.7875,134.48 306.2375,134.03 C306.6575,133.58 307.1675,133.355 307.7975,133.355 C309.2675,133.355 310.0025,134.18 310.0025,135.83 L310.0025,140.54 L310.9025,140.54 L310.9025,135.77 C310.9025,133.64 309.9425,132.575 308.0225,132.575 Z M318.6425,129.62 L319.5425,129.62 L319.5425,140.54 L318.6875,140.54 L318.6875,139.01 C318.1475,140.165 317.2475,140.75 315.9725,140.75 C314.8475,140.75 313.9775,140.33 313.3475,139.52 C312.7775,138.77 312.4925,137.81 312.4925,136.655 C312.4925,135.515 312.7775,134.57 313.3475,133.82 C313.9775,132.98 314.8325,132.575 315.9275,132.575 C317.1575,132.575 318.0725,133.19 318.6425,134.42 L318.6425,129.62 Z M316.0925,133.34 C315.2075,133.34 314.5325,133.67 314.0525,134.33 C313.6175,134.9 313.4075,135.68 313.4075,136.655 C313.4075,137.63 313.6175,138.41 314.0375,138.995 C314.5025,139.655 315.1775,139.985 316.0625,139.985 C316.9025,139.985 317.5625,139.655 318.0275,139.025 C318.4475,138.44 318.6725,137.69 318.6725,136.775 L318.6725,136.595 C318.6725,135.635 318.4325,134.87 317.9825,134.27 C317.5025,133.64 316.8725,133.34 316.0925,133.34 Z M325.5575,132.785 L328.6325,140.345 L327.3275,143.51 L328.3025,143.51 L332.5775,132.785 L331.5875,132.785 L329.0825,139.25 L326.5475,132.785 L325.5575,132.785 Z M336.9875,132.575 C338.1275,132.575 339.0425,132.98 339.7325,133.805 C340.3625,134.57 340.6775,135.53 340.6775,136.67 C340.6775,137.81 340.3625,138.755 339.7325,139.52 C339.0425,140.33 338.1275,140.75 336.9875,140.75 C335.8475,140.75 334.9325,140.33 334.2425,139.52 C333.6125,138.755 333.2975,137.81 333.2975,136.67 C333.2975,135.53 333.6125,134.57 334.2575,133.805 C334.9325,132.98 335.8475,132.575 336.9875,132.575 Z M336.9875,133.355 C336.1025,133.355 335.4125,133.685 334.9025,134.375 C334.4375,134.975 334.2125,135.74 334.2125,136.67 C334.2125,137.585 334.4375,138.35 334.9025,138.95 C335.4125,139.625 336.1025,139.97 336.9875,139.97 C337.8725,139.97 338.5775,139.625 339.0875,138.95 C339.5375,138.335 339.7775,137.57 339.7775,136.67 C339.7775,135.74 339.5375,134.975 339.0875,134.375 C338.5775,133.685 337.8725,133.355 336.9875,133.355 Z M342.2675,132.785 L342.2675,137.57 C342.2675,139.685 343.2125,140.75 345.1025,140.75 C346.2125,140.75 347.0825,140.24 347.6825,139.235 L347.6825,140.54 L348.5825,140.54 L348.5825,132.785 L347.6825,132.785 L347.6825,137.495 C347.6225,138.23 347.3675,138.83 346.9175,139.28 C346.4675,139.73 345.9425,139.97 345.3425,139.97 C344.5925,139.97 344.0375,139.76 343.6775,139.34 C343.3325,138.935 343.1675,138.335 343.1675,137.525 L343.1675,132.785 L342.2675,132.785 Z M353.7275,132.575 C353.1575,132.575 352.6475,132.755 352.2275,133.115 C351.8675,133.4 351.5825,133.79 351.3725,134.27 L351.3725,132.785 L350.4725,132.785 L350.4725,140.54 L351.3725,140.54 L351.3725,136.445 C351.3725,135.665 351.5675,134.99 351.9875,134.42 C352.4075,133.79 352.9775,133.49 353.6675,133.49 C354.0575,133.49 354.4475,133.535 354.8525,133.655 L354.8525,132.74 C354.5525,132.62 354.1775,132.575 353.7275,132.575 Z M363.5075,132.575 C362.6975,132.575 362.0075,132.755 361.4675,133.13 C360.8975,133.52 360.6275,134.015 360.6275,134.645 C360.6275,135.275 360.9125,135.77 361.5125,136.13 C361.8725,136.355 362.5025,136.58 363.4025,136.82 C364.2875,137.045 364.8575,137.225 365.1275,137.36 C365.6375,137.615 365.8925,137.975 365.8925,138.44 C365.8925,139.46 365.1425,139.97 363.6425,139.97 C362.9225,139.97 362.3825,139.835 362.0225,139.565 C361.6325,139.265 361.3925,138.77 361.3025,138.095 L360.4175,138.095 C360.5975,139.865 361.6775,140.75 363.6725,140.75 C365.7725,140.75 366.8225,139.955 366.8225,138.395 C366.8225,137.735 366.5075,137.21 365.8925,136.835 C365.5025,136.595 364.8275,136.355 363.8825,136.115 C363.0875,135.905 362.5475,135.725 362.2475,135.575 C361.7825,135.335 361.5575,135.02 361.5575,134.63 C361.5575,134.24 361.7375,133.94 362.0975,133.7 C362.4575,133.46 362.9225,133.355 363.4925,133.355 C364.1825,133.355 364.7075,133.49 365.0675,133.775 C365.3975,134.03 365.6075,134.42 365.7125,134.96 L366.5975,134.96 C366.3725,133.37 365.3375,132.575 363.5075,132.575 Z M368.2625,129.62 L368.2625,140.54 L369.1625,140.54 L369.1625,137.795 L370.6475,136.445 L373.8575,140.54 L375.0425,140.54 L371.2925,135.86 L374.6975,132.785 L373.4675,132.785 L369.1625,136.7 L369.1625,129.62 L368.2625,129.62 Z M376.8875,129.995 C376.6625,129.995 376.4825,130.07 376.3475,130.22 C376.1975,130.34 376.1225,130.52 376.1225,130.745 C376.1225,130.955 376.1975,131.135 376.3475,131.285 C376.4825,131.42 376.6625,131.495 376.8875,131.495 C377.0975,131.495 377.2625,131.42 377.4125,131.285 C377.5625,131.135 377.6525,130.955 377.6525,130.745 C377.6525,130.52 377.5775,130.34 377.4275,130.22 C377.2775,130.07 377.0975,129.995 376.8875,129.995 Z M376.4375,132.785 L376.4375,140.54 L377.3375,140.54 L377.3375,132.785 L376.4375,132.785 Z M383.0975,132.575 C382.5575,132.575 382.0625,132.695 381.6275,132.965 C381.1925,133.235 380.8475,133.595 380.5775,134.06 L380.5775,132.785 L379.6775,132.785 L379.6775,140.54 L380.5775,140.54 L380.5775,135.86 C380.6225,135.095 380.8625,134.48 381.3125,134.03 C381.7325,133.58 382.2425,133.355 382.8725,133.355 C384.3425,133.355 385.0775,134.18 385.0775,135.83 L385.0775,140.54 L385.9775,140.54 L385.9775,135.77 C385.9775,133.64 385.0175,132.575 383.0975,132.575 Z M396.1325,132.575 C395.0075,132.575 394.1225,132.98 393.4775,133.805 C392.8625,134.57 392.5625,135.545 392.5625,136.715 C392.5625,137.9 392.8475,138.86 393.4475,139.58 C394.0775,140.36 394.9775,140.75 396.1175,140.75 C397.0475,140.75 397.8125,140.495 398.3825,140 C398.9675,139.49 399.3425,138.74 399.4925,137.765 L398.6075,137.765 C398.3825,139.235 397.5575,139.97 396.1175,139.97 C395.2625,139.97 394.6025,139.67 394.1525,139.085 C393.7025,138.5 393.4775,137.705 393.4775,136.715 C393.4775,135.71 393.7025,134.9 394.1825,134.3 C394.6625,133.67 395.3225,133.355 396.1325,133.355 C396.8075,133.355 397.3625,133.52 397.7825,133.85 C398.2025,134.18 398.4575,134.66 398.5625,135.32 L399.4625,135.32 C399.3425,134.39 398.9825,133.7 398.3975,133.25 C397.8125,132.8 397.0625,132.575 396.1325,132.575 Z M404.3225,132.575 C405.4625,132.575 406.3775,132.98 407.0675,133.805 C407.6975,134.57 408.0125,135.53 408.0125,136.67 C408.0125,137.81 407.6975,138.755 407.0675,139.52 C406.3775,140.33 405.4625,140.75 404.3225,140.75 C403.1825,140.75 402.2675,140.33 401.5775,139.52 C400.9475,138.755 400.6325,137.81 400.6325,136.67 C400.6325,135.53 400.9475,134.57 401.5925,133.805 C402.2675,132.98 403.1825,132.575 404.3225,132.575 Z M404.3225,133.355 C403.4375,133.355 402.7475,133.685 402.2375,134.375 C401.7725,134.975 401.5475,135.74 401.5475,136.67 C401.5475,137.585 401.7725,138.35 402.2375,138.95 C402.7475,139.625 403.4375,139.97 404.3225,139.97 C405.2075,139.97 405.9125,139.625 406.4225,138.95 C406.8725,138.335 407.1125,137.57 407.1125,136.67 C407.1125,135.74 406.8725,134.975 406.4225,134.375 C405.9125,133.685 405.2075,133.355 404.3225,133.355 Z M413.0225,132.575 C412.4825,132.575 411.9875,132.695 411.5525,132.965 C411.1175,133.235 410.7725,133.595 410.5025,134.06 L410.5025,132.785 L409.6025,132.785 L409.6025,140.54 L410.5025,140.54 L410.5025,135.86 C410.5475,135.095 410.7875,134.48 411.2375,134.03 C411.6575,133.58 412.1675,133.355 412.7975,133.355 C414.2675,133.355 415.0025,134.18 415.0025,135.83 L415.0025,140.54 L415.9025,140.54 L415.9025,135.77 C415.9025,133.64 414.9425,132.575 413.0225,132.575 Z M423.6425,129.62 L424.5425,129.62 L424.5425,140.54 L423.6875,140.54 L423.6875,139.01 C423.1475,140.165 422.2475,140.75 420.9725,140.75 C419.8475,140.75 418.9775,140.33 418.3475,139.52 C417.7775,138.77 417.4925,137.81 417.4925,136.655 C417.4925,135.515 417.7775,134.57 418.3475,133.82 C418.9775,132.98 419.8325,132.575 420.9275,132.575 C422.1575,132.575 423.0725,133.19 423.6425,134.42 L423.6425,129.62 Z M421.0925,133.34 C420.2075,133.34 419.5325,133.67 419.0525,134.33 C418.6175,134.9 418.4075,135.68 418.4075,136.655 C418.4075,137.63 418.6175,138.41 419.0375,138.995 C419.5025,139.655 420.1775,139.985 421.0625,139.985 C421.9025,139.985 422.5625,139.655 423.0275,139.025 C423.4475,138.44 423.6725,137.69 423.6725,136.775 L423.6725,136.595 C423.6725,135.635 423.4325,134.87 422.9825,134.27 C422.5025,133.64 421.8725,133.34 421.0925,133.34 Z M427.3325,129.995 C427.1075,129.995 426.9275,130.07 426.7925,130.22 C426.6425,130.34 426.5675,130.52 426.5675,130.745 C426.5675,130.955 426.6425,131.135 426.7925,131.285 C426.9275,131.42 427.1075,131.495 427.3325,131.495 C427.5425,131.495 427.7075,131.42 427.8575,131.285 C428.0075,131.135 428.0975,130.955 428.0975,130.745 C428.0975,130.52 428.0225,130.34 427.8725,130.22 C427.7225,130.07 427.5425,129.995 427.3325,129.995 Z M426.8825,132.785 L426.8825,140.54 L427.7825,140.54 L427.7825,132.785 L426.8825,132.785 Z M431.9975,130.28 L431.0975,130.655 L431.0975,132.785 L429.4475,132.785 L429.4475,133.565 L431.0975,133.565 L431.0975,138.815 C431.0975,139.385 431.2025,139.805 431.4425,140.075 C431.6975,140.375 432.1325,140.54 432.7325,140.54 L433.8275,140.54 L433.8275,139.76 L432.8525,139.76 C432.5225,139.76 432.2975,139.685 432.1775,139.55 C432.0575,139.4 431.9975,139.145 431.9975,138.815 L431.9975,133.565 L434.0225,133.565 L434.0225,132.785 L431.9975,132.785 L431.9975,130.28 Z M436.2875,129.995 C436.0625,129.995 435.8825,130.07 435.7475,130.22 C435.5975,130.34 435.5225,130.52 435.5225,130.745 C435.5225,130.955 435.5975,131.135 435.7475,131.285 C435.8825,131.42 436.0625,131.495 436.2875,131.495 C436.4975,131.495 436.6625,131.42 436.8125,131.285 C436.9625,131.135 437.0525,130.955 437.0525,130.745 C437.0525,130.52 436.9775,130.34 436.8275,130.22 C436.6775,130.07 436.4975,129.995 436.2875,129.995 Z M435.8375,132.785 L435.8375,140.54 L436.7375,140.54 L436.7375,132.785 L435.8375,132.785 Z M442.4675,132.575 C443.6075,132.575 444.5225,132.98 445.2125,133.805 C445.8425,134.57 446.1575,135.53 446.1575,136.67 C446.1575,137.81 445.8425,138.755 445.2125,139.52 C444.5225,140.33 443.6075,140.75 442.4675,140.75 C441.3275,140.75 440.4125,140.33 439.7225,139.52 C439.0925,138.755 438.7775,137.81 438.7775,136.67 C438.7775,135.53 439.0925,134.57 439.7375,133.805 C440.4125,132.98 441.3275,132.575 442.4675,132.575 Z M442.4675,133.355 C441.5825,133.355 440.8925,133.685 440.3825,134.375 C439.9175,134.975 439.6925,135.74 439.6925,136.67 C439.6925,137.585 439.9175,138.35 440.3825,138.95 C440.8925,139.625 441.5825,139.97 442.4675,139.97 C443.3525,139.97 444.0575,139.625 444.5675,138.95 C445.0175,138.335 445.2575,137.57 445.2575,136.67 C445.2575,135.74 445.0175,134.975 444.5675,134.375 C444.0575,133.685 443.3525,133.355 442.4675,133.355 Z M451.1675,132.575 C450.6275,132.575 450.1325,132.695 449.6975,132.965 C449.2625,133.235 448.9175,133.595 448.6475,134.06 L448.6475,132.785 L447.7475,132.785 L447.7475,140.54 L448.6475,140.54 L448.6475,135.86 C448.6925,135.095 448.9325,134.48 449.3825,134.03 C449.8025,133.58 450.3125,133.355 450.9425,133.355 C452.4125,133.355 453.1475,134.18 453.1475,135.83 L453.1475,140.54 L454.0475,140.54 L454.0475,135.77 C454.0475,133.64 453.0875,132.575 451.1675,132.575 Z M456.9275,139.04 C456.7025,139.04 456.5225,139.115 456.3875,139.265 C456.2375,139.415 456.1625,139.595 456.1625,139.805 C456.1625,140.015 456.2375,140.21 456.3875,140.36 C456.5225,140.495 456.7025,140.57 456.9275,140.57 C457.1375,140.57 457.3175,140.495 457.4675,140.36 C457.6175,140.21 457.6925,140.015 457.6925,139.805 C457.6925,139.595 457.6175,139.415 457.4675,139.265 C457.3175,139.115 457.1375,139.04 456.9275,139.04 Z" id="The-images-of-epider"></path>
                    </g>
                </g>
            </g>
        </g>
    </g>
</svg>