<?xml version="1.0" encoding="UTF-8"?>
<svg width="102px" height="15px" viewBox="0 0 102 15" version="1.1" xmlns="http://www.w3.org/2000/svg" xmlns:xlink="http://www.w3.org/1999/xlink">
    <!-- Generator: Sketch 46 (44423) - http://www.bohemiancoding.com/sketch -->
    <title>txt-2.2</title>
    <desc>Created with Sketch.</desc>
    <defs></defs>
    <g id="Page-1" stroke="none" stroke-width="1" fill="none" fill-rule="evenodd">
        <g id="首页-英文" transform="translate(-347.000000, -1738.000000)" fill="#38393B">
            <g id="2" transform="translate(-5.000000, 1022.000000)">
                <g id="内容" transform="translate(0.000000, 287.000000)">
                    <g id="3图" transform="translate(160.000000, 290.000000)">
                        <path d="M197.7,139.08 C196.05,139.08 194.76,139.635 193.86,140.775 C193.035,141.795 192.63,143.1 192.63,144.69 C192.63,146.28 193.02,147.57 193.83,148.56 C194.715,149.655 195.99,150.21 197.655,150.21 C198.795,150.21 199.785,149.88 200.61,149.235 C201.495,148.545 202.05,147.57 202.29,146.325 L201.105,146.325 C200.895,147.255 200.46,147.96 199.83,148.44 C199.23,148.89 198.51,149.115 197.655,149.115 C196.395,149.115 195.45,148.695 194.79,147.87 C194.16,147.09 193.86,146.025 193.86,144.69 C193.86,143.355 194.175,142.29 194.805,141.48 C195.48,140.61 196.44,140.175 197.685,140.175 C198.525,140.175 199.23,140.37 199.815,140.775 C200.415,141.195 200.805,141.795 200.955,142.575 L202.14,142.575 C201.99,141.51 201.51,140.655 200.7,140.025 C199.89,139.395 198.885,139.08 197.7,139.08 Z M204.09,139.08 L204.09,150 L205.275,150 L205.275,139.08 L204.09,139.08 Z M210.84,142.035 C211.995,142.035 212.925,142.425 213.615,143.235 C214.275,144 214.605,144.96 214.605,146.13 C214.605,147.285 214.275,148.245 213.63,148.995 C212.925,149.805 211.995,150.21 210.84,150.21 C209.67,150.21 208.755,149.805 208.065,148.995 C207.405,148.245 207.075,147.285 207.075,146.13 C207.075,144.96 207.405,144 208.065,143.235 C208.755,142.425 209.67,142.035 210.84,142.035 Z M210.84,143.04 C210.015,143.04 209.37,143.355 208.92,143.985 C208.5,144.555 208.305,145.26 208.305,146.13 C208.305,146.985 208.5,147.69 208.92,148.26 C209.37,148.89 210.015,149.205 210.84,149.205 C211.65,149.205 212.295,148.89 212.775,148.26 C213.18,147.69 213.39,146.97 213.39,146.13 C213.39,145.26 213.18,144.555 212.775,143.985 C212.295,143.355 211.65,143.04 210.84,143.04 Z M219.36,142.035 C220.53,142.035 221.4,142.545 221.97,143.58 L221.97,142.245 L223.17,142.245 L223.17,149.46 C223.17,151.935 221.985,153.18 219.63,153.18 C218.58,153.18 217.77,152.97 217.23,152.55 C216.675,152.13 216.33,151.5 216.195,150.66 L217.395,150.66 C217.485,151.185 217.71,151.575 218.055,151.815 C218.4,152.07 218.925,152.205 219.63,152.205 C221.19,152.205 221.97,151.335 221.97,149.625 L221.97,148.26 C221.4,149.295 220.53,149.82 219.36,149.82 C218.28,149.82 217.425,149.445 216.795,148.71 C216.165,147.99 215.865,147.075 215.865,145.95 C215.865,144.81 216.165,143.895 216.795,143.175 C217.425,142.41 218.28,142.035 219.36,142.035 Z M219.54,143.025 C218.76,143.025 218.16,143.295 217.725,143.865 C217.305,144.375 217.095,145.08 217.095,145.95 C217.095,146.76 217.275,147.435 217.65,147.945 C218.07,148.515 218.685,148.815 219.525,148.815 C220.305,148.815 220.905,148.545 221.355,148.005 C221.775,147.48 221.985,146.79 221.985,145.95 C221.985,145.08 221.775,144.375 221.355,143.865 C220.905,143.295 220.305,143.025 219.54,143.025 Z M228.225,142.035 C229.395,142.035 230.265,142.545 230.835,143.58 L230.835,142.245 L232.035,142.245 L232.035,149.46 C232.035,151.935 230.85,153.18 228.495,153.18 C227.445,153.18 226.635,152.97 226.095,152.55 C225.54,152.13 225.195,151.5 225.06,150.66 L226.26,150.66 C226.35,151.185 226.575,151.575 226.92,151.815 C227.265,152.07 227.79,152.205 228.495,152.205 C230.055,152.205 230.835,151.335 230.835,149.625 L230.835,148.26 C230.265,149.295 229.395,149.82 228.225,149.82 C227.145,149.82 226.29,149.445 225.66,148.71 C225.03,147.99 224.73,147.075 224.73,145.95 C224.73,144.81 225.03,143.895 225.66,143.175 C226.29,142.41 227.145,142.035 228.225,142.035 Z M228.405,143.025 C227.625,143.025 227.025,143.295 226.59,143.865 C226.17,144.375 225.96,145.08 225.96,145.95 C225.96,146.76 226.14,147.435 226.515,147.945 C226.935,148.515 227.55,148.815 228.39,148.815 C229.17,148.815 229.77,148.545 230.22,148.005 C230.64,147.48 230.85,146.79 230.85,145.95 C230.85,145.08 230.64,144.375 230.22,143.865 C229.77,143.295 229.17,143.025 228.405,143.025 Z M237.09,142.035 C238.335,142.035 239.28,142.455 239.91,143.295 C240.48,144.045 240.78,145.11 240.81,146.46 L234.69,146.46 C234.75,147.33 234.975,148.005 235.395,148.485 C235.815,148.965 236.4,149.205 237.135,149.205 C237.765,149.205 238.29,149.04 238.68,148.725 C239.01,148.455 239.265,148.05 239.46,147.51 L240.66,147.51 C240.48,148.26 240.135,148.86 239.61,149.34 C238.965,149.91 238.14,150.21 237.135,150.21 C236.025,150.21 235.125,149.835 234.465,149.115 C233.775,148.365 233.445,147.375 233.445,146.115 C233.445,144.975 233.76,144.015 234.42,143.25 C235.08,142.44 235.965,142.035 237.09,142.035 Z M237.12,143.04 C236.43,143.04 235.875,143.265 235.455,143.715 C235.035,144.165 234.795,144.765 234.72,145.53 L239.565,145.53 C239.415,143.865 238.59,143.04 237.12,143.04 Z M247.95,139.08 L249.15,139.08 L249.15,150 L248.025,150 L248.025,148.725 C247.485,149.715 246.615,150.21 245.445,150.21 C244.305,150.21 243.42,149.79 242.79,148.98 C242.205,148.23 241.92,147.27 241.92,146.1 C241.92,144.96 242.205,144.03 242.79,143.28 C243.42,142.44 244.275,142.035 245.385,142.035 C246.495,142.035 247.35,142.575 247.95,143.67 L247.95,139.08 Z M245.64,143.025 C244.785,143.025 244.14,143.325 243.72,143.925 C243.33,144.45 243.15,145.17 243.15,146.1 C243.15,147.03 243.33,147.765 243.705,148.305 C244.125,148.905 244.755,149.22 245.595,149.22 C246.375,149.22 246.975,148.92 247.41,148.32 C247.785,147.78 247.98,147.075 247.98,146.205 L247.98,146.055 C247.98,145.155 247.755,144.42 247.335,143.865 C246.9,143.295 246.33,143.025 245.64,143.025 Z M259.71,142.035 C260.82,142.035 261.705,142.44 262.35,143.28 C262.935,144.03 263.235,144.975 263.235,146.145 C263.235,147.285 262.935,148.23 262.365,148.98 C261.735,149.79 260.88,150.21 259.77,150.21 C258.66,150.21 257.805,149.67 257.205,148.59 L257.205,152.97 L256.005,152.97 L256.005,142.245 L257.13,142.245 L257.13,143.52 C257.685,142.53 258.54,142.035 259.71,142.035 Z M259.56,143.025 C258.78,143.025 258.165,143.325 257.745,143.94 C257.355,144.48 257.16,145.2 257.16,146.07 L257.16,146.22 C257.16,147.12 257.37,147.84 257.82,148.395 C258.24,148.935 258.795,149.22 259.515,149.22 C260.355,149.22 260.985,148.92 261.42,148.35 C261.81,147.81 262.005,147.075 262.005,146.145 C262.005,145.23 261.81,144.495 261.45,143.955 C261.015,143.325 260.385,143.025 259.56,143.025 Z M268.26,142.035 C269.415,142.035 270.345,142.425 271.035,143.235 C271.695,144 272.025,144.96 272.025,146.13 C272.025,147.285 271.695,148.245 271.05,148.995 C270.345,149.805 269.415,150.21 268.26,150.21 C267.09,150.21 266.175,149.805 265.485,148.995 C264.825,148.245 264.495,147.285 264.495,146.13 C264.495,144.96 264.825,144 265.485,143.235 C266.175,142.425 267.09,142.035 268.26,142.035 Z M268.26,143.04 C267.435,143.04 266.79,143.355 266.34,143.985 C265.92,144.555 265.725,145.26 265.725,146.13 C265.725,146.985 265.92,147.69 266.34,148.26 C266.79,148.89 267.435,149.205 268.26,149.205 C269.07,149.205 269.715,148.89 270.195,148.26 C270.6,147.69 270.81,146.97 270.81,146.13 C270.81,145.26 270.6,144.555 270.195,143.985 C269.715,143.355 269.07,143.04 268.26,143.04 Z M276.99,142.035 C276.45,142.035 275.985,142.2 275.58,142.53 C275.25,142.785 274.98,143.145 274.77,143.595 L274.77,142.245 L273.585,142.245 L273.585,150 L274.77,150 L274.77,145.89 C274.77,145.17 274.965,144.555 275.385,144.045 C275.79,143.505 276.3,143.25 276.9,143.25 C277.275,143.25 277.665,143.295 278.055,143.415 L278.055,142.215 C277.77,142.095 277.41,142.035 276.99,142.035 Z M282.255,142.035 C283.5,142.035 284.445,142.455 285.075,143.295 C285.645,144.045 285.945,145.11 285.975,146.46 L279.855,146.46 C279.915,147.33 280.14,148.005 280.56,148.485 C280.98,148.965 281.565,149.205 282.3,149.205 C282.93,149.205 283.455,149.04 283.845,148.725 C284.175,148.455 284.43,148.05 284.625,147.51 L285.825,147.51 C285.645,148.26 285.3,148.86 284.775,149.34 C284.13,149.91 283.305,150.21 282.3,150.21 C281.19,150.21 280.29,149.835 279.63,149.115 C278.94,148.365 278.61,147.375 278.61,146.115 C278.61,144.975 278.925,144.015 279.585,143.25 C280.245,142.44 281.13,142.035 282.255,142.035 Z M282.285,143.04 C281.595,143.04 281.04,143.265 280.62,143.715 C280.2,144.165 279.96,144.765 279.885,145.53 L284.73,145.53 C284.58,143.865 283.755,143.04 282.285,143.04 Z M290.13,142.035 C289.26,142.035 288.54,142.23 288,142.62 C287.415,143.01 287.13,143.52 287.13,144.18 C287.13,144.84 287.415,145.335 288.015,145.695 C288.375,145.935 289.02,146.16 289.935,146.385 C290.775,146.595 291.33,146.76 291.585,146.88 C292.065,147.12 292.32,147.45 292.32,147.885 C292.32,148.755 291.615,149.205 290.235,149.205 C289.575,149.205 289.08,149.085 288.75,148.845 C288.42,148.575 288.195,148.14 288.105,147.525 L286.935,147.525 C287.115,149.31 288.225,150.21 290.265,150.21 C292.455,150.21 293.55,149.4 293.55,147.81 C293.55,147.135 293.235,146.61 292.62,146.22 C292.215,145.965 291.555,145.725 290.625,145.5 C289.845,145.29 289.305,145.125 289.02,144.99 C288.57,144.765 288.36,144.48 288.36,144.15 C288.36,143.805 288.525,143.535 288.855,143.34 C289.155,143.13 289.575,143.04 290.115,143.04 C290.73,143.04 291.21,143.16 291.54,143.4 C291.84,143.61 292.035,143.97 292.14,144.45 L293.31,144.45 C293.1,142.83 292.05,142.035 290.13,142.035 Z" id="txt-2.2"></path>
                    </g>
                </g>
            </g>
        </g>
    </g>
</svg>