<?xml version="1.0" encoding="UTF-8"?>
<svg width="97px" height="12px" viewBox="0 0 97 12" version="1.1" xmlns="http://www.w3.org/2000/svg" xmlns:xlink="http://www.w3.org/1999/xlink">
    <!-- Generator: Sketch 46 (44423) - http://www.bohemiancoding.com/sketch -->
    <title>txt-2.1</title>
    <desc>Created with Sketch.</desc>
    <defs></defs>
    <g id="Page-1" stroke="none" stroke-width="1" fill="none" fill-rule="evenodd">
        <g id="首页-英文" transform="translate(-163.000000, -1737.000000)" fill="#38393B">
            <g id="2" transform="translate(-5.000000, 1022.000000)">
                <g id="内容" transform="translate(0.000000, 287.000000)">
                    <g id="3图" transform="translate(160.000000, 290.000000)">
                        <path d="M8.17,138.29 L8.17,149 L9.385,149 L9.385,138.29 L8.17,138.29 Z M15.115,141.035 C14.605,141.035 14.14,141.155 13.72,141.395 C13.3,141.62 12.955,141.95 12.685,142.385 L12.685,141.245 L11.485,141.245 L11.485,149 L12.685,149 L12.685,144.32 C12.73,143.615 12.955,143.06 13.375,142.64 C13.765,142.25 14.23,142.055 14.77,142.055 C16.12,142.055 16.81,142.805 16.81,144.32 L16.81,149 L18.01,149 L18.01,144.23 C18.01,142.1 17.035,141.035 15.115,141.035 Z M22.975,138.29 C22.315,138.29 21.805,138.47 21.46,138.845 C21.13,139.205 20.965,139.7 20.965,140.36 L20.965,141.245 L19.015,141.245 L19.015,142.25 L20.965,142.25 L20.965,149 L22.165,149 L22.165,142.25 L24.355,142.25 L24.355,141.245 L22.165,141.245 L22.165,140.39 C22.165,140.015 22.24,139.745 22.39,139.58 C22.54,139.4 22.795,139.325 23.125,139.325 L25.705,139.325 L25.705,149 L26.89,149 L26.89,138.29 L22.975,138.29 Z M32.365,141.035 C33.475,141.035 34.285,141.32 34.825,141.905 C35.275,142.415 35.515,143.12 35.515,144.02 L35.515,149 L34.39,149 L34.39,147.695 C34.09,148.115 33.685,148.46 33.205,148.73 C32.635,149.045 31.99,149.21 31.27,149.21 C30.49,149.21 29.875,149.015 29.41,148.625 C28.93,148.22 28.69,147.695 28.69,147.065 C28.69,146.18 29.035,145.52 29.755,145.07 C30.385,144.65 31.285,144.425 32.455,144.41 L34.315,144.38 L34.315,143.975 C34.315,142.67 33.64,142.025 32.29,142.025 C31.72,142.025 31.255,142.13 30.895,142.37 C30.49,142.61 30.235,142.985 30.115,143.48 L28.93,143.39 C29.095,142.58 29.5,141.965 30.13,141.575 C30.7,141.215 31.435,141.035 32.365,141.035 Z M34.315,145.28 L32.53,145.31 C30.79,145.34 29.92,145.91 29.92,147.035 C29.92,147.395 30.055,147.68 30.355,147.92 C30.655,148.145 31.045,148.265 31.525,148.265 C32.26,148.265 32.905,148.025 33.475,147.545 C34.03,147.08 34.315,146.54 34.315,145.94 L34.315,145.28 Z M40.765,141.035 C39.895,141.035 39.16,141.44 38.575,142.28 L38.575,141.245 L37.375,141.245 L37.375,149 L38.575,149 L38.575,144.275 C38.575,143.66 38.755,143.135 39.115,142.715 C39.475,142.265 39.925,142.055 40.48,142.055 C41.665,142.055 42.265,142.73 42.265,144.11 L42.265,149 L43.465,149 L43.465,144.14 C43.465,143.51 43.63,143.015 43.99,142.625 C44.32,142.235 44.755,142.055 45.265,142.055 C45.925,142.055 46.405,142.22 46.705,142.58 C46.99,142.91 47.14,143.42 47.14,144.11 L47.14,149 L48.34,149 L48.34,143.915 C48.34,143.03 48.085,142.325 47.605,141.8 C47.095,141.29 46.45,141.035 45.64,141.035 C45.1,141.035 44.65,141.155 44.275,141.395 C43.855,141.62 43.495,141.995 43.195,142.505 C42.76,141.515 41.95,141.035 40.765,141.035 Z M53.395,141.035 C54.64,141.035 55.585,141.455 56.215,142.295 C56.785,143.045 57.085,144.11 57.115,145.46 L50.995,145.46 C51.055,146.33 51.28,147.005 51.7,147.485 C52.12,147.965 52.705,148.205 53.44,148.205 C54.07,148.205 54.595,148.04 54.985,147.725 C55.315,147.455 55.57,147.05 55.765,146.51 L56.965,146.51 C56.785,147.26 56.44,147.86 55.915,148.34 C55.27,148.91 54.445,149.21 53.44,149.21 C52.33,149.21 51.43,148.835 50.77,148.115 C50.08,147.365 49.75,146.375 49.75,145.115 C49.75,143.975 50.065,143.015 50.725,142.25 C51.385,141.44 52.27,141.035 53.395,141.035 Z M53.425,142.04 C52.735,142.04 52.18,142.265 51.76,142.715 C51.34,143.165 51.1,143.765 51.025,144.53 L55.87,144.53 C55.72,142.865 54.895,142.04 53.425,142.04 Z M64.255,138.08 L65.455,138.08 L65.455,149 L64.33,149 L64.33,147.725 C63.79,148.715 62.92,149.21 61.75,149.21 C60.61,149.21 59.725,148.79 59.095,147.98 C58.51,147.23 58.225,146.27 58.225,145.1 C58.225,143.96 58.51,143.03 59.095,142.28 C59.725,141.44 60.58,141.035 61.69,141.035 C62.8,141.035 63.655,141.575 64.255,142.67 L64.255,138.08 Z M61.945,142.025 C61.09,142.025 60.445,142.325 60.025,142.925 C59.635,143.45 59.455,144.17 59.455,145.1 C59.455,146.03 59.635,146.765 60.01,147.305 C60.43,147.905 61.06,148.22 61.9,148.22 C62.68,148.22 63.28,147.92 63.715,147.32 C64.09,146.78 64.285,146.075 64.285,145.205 L64.285,145.055 C64.285,144.155 64.06,143.42 63.64,142.865 C63.205,142.295 62.635,142.025 61.945,142.025 Z M75.685,141.035 C76.795,141.035 77.605,141.32 78.145,141.905 C78.595,142.415 78.835,143.12 78.835,144.02 L78.835,149 L77.71,149 L77.71,147.695 C77.41,148.115 77.005,148.46 76.525,148.73 C75.955,149.045 75.31,149.21 74.59,149.21 C73.81,149.21 73.195,149.015 72.73,148.625 C72.25,148.22 72.01,147.695 72.01,147.065 C72.01,146.18 72.355,145.52 73.075,145.07 C73.705,144.65 74.605,144.425 75.775,144.41 L77.635,144.38 L77.635,143.975 C77.635,142.67 76.96,142.025 75.61,142.025 C75.04,142.025 74.575,142.13 74.215,142.37 C73.81,142.61 73.555,142.985 73.435,143.48 L72.25,143.39 C72.415,142.58 72.82,141.965 73.45,141.575 C74.02,141.215 74.755,141.035 75.685,141.035 Z M77.635,145.28 L75.85,145.31 C74.11,145.34 73.24,145.91 73.24,147.035 C73.24,147.395 73.375,147.68 73.675,147.92 C73.975,148.145 74.365,148.265 74.845,148.265 C75.58,148.265 76.225,148.025 76.795,147.545 C77.35,147.08 77.635,146.54 77.635,145.94 L77.635,145.28 Z M84.04,141.035 C82.885,141.035 81.97,141.44 81.31,142.265 C80.695,143.015 80.395,143.975 80.395,145.16 C80.395,146.345 80.695,147.305 81.31,148.04 C81.955,148.82 82.855,149.21 84.025,149.21 C84.985,149.21 85.75,148.955 86.335,148.46 C86.935,147.95 87.31,147.185 87.49,146.195 L86.29,146.195 C86.11,147.53 85.345,148.205 84.025,148.205 C83.245,148.205 82.645,147.92 82.24,147.38 C81.82,146.84 81.625,146.09 81.625,145.145 C81.625,144.2 81.835,143.45 82.255,142.895 C82.69,142.325 83.29,142.04 84.04,142.04 C84.655,142.04 85.15,142.175 85.54,142.475 C85.915,142.775 86.155,143.225 86.26,143.825 L87.445,143.825 C87.31,142.88 86.95,142.175 86.35,141.71 C85.765,141.26 85,141.035 84.04,141.035 Z M92.53,141.035 C92.02,141.035 91.555,141.155 91.135,141.395 C90.715,141.62 90.37,141.95 90.1,142.385 L90.1,141.245 L88.9,141.245 L88.9,149 L90.1,149 L90.1,144.32 C90.145,143.615 90.37,143.06 90.79,142.64 C91.18,142.25 91.645,142.055 92.185,142.055 C93.535,142.055 94.225,142.805 94.225,144.32 L94.225,149 L95.425,149 L95.425,144.23 C95.425,142.1 94.45,141.035 92.53,141.035 Z M100.48,141.035 C101.725,141.035 102.67,141.455 103.3,142.295 C103.87,143.045 104.17,144.11 104.2,145.46 L98.08,145.46 C98.14,146.33 98.365,147.005 98.785,147.485 C99.205,147.965 99.79,148.205 100.525,148.205 C101.155,148.205 101.68,148.04 102.07,147.725 C102.4,147.455 102.655,147.05 102.85,146.51 L104.05,146.51 C103.87,147.26 103.525,147.86 103,148.34 C102.355,148.91 101.53,149.21 100.525,149.21 C99.415,149.21 98.515,148.835 97.855,148.115 C97.165,147.365 96.835,146.375 96.835,145.115 C96.835,143.975 97.15,143.015 97.81,142.25 C98.47,141.44 99.355,141.035 100.48,141.035 Z M100.51,142.04 C99.82,142.04 99.265,142.265 98.845,142.715 C98.425,143.165 98.185,143.765 98.11,144.53 L102.955,144.53 C102.805,142.865 101.98,142.04 100.51,142.04 Z" id="txt-2.1"></path>
                    </g>
                </g>
            </g>
        </g>
    </g>
</svg>