<?xml version="1.0" encoding="UTF-8"?>
<svg width="77px" height="12px" viewBox="0 0 77 12" version="1.1" xmlns="http://www.w3.org/2000/svg" xmlns:xlink="http://www.w3.org/1999/xlink">
    <!-- Generator: Sketch 46 (44423) - http://www.bohemiancoding.com/sketch -->
    <title>txt-2.3</title>
    <desc>Created with Sketch.</desc>
    <defs></defs>
    <g id="Page-1" stroke="none" stroke-width="1" fill="none" fill-rule="evenodd">
        <g id="首页-英文" transform="translate(-557.000000, -1738.000000)" fill="#38393B">
            <g id="2" transform="translate(-5.000000, 1022.000000)">
                <g id="内容" transform="translate(0.000000, 287.000000)">
                    <g id="3图" transform="translate(160.000000, 290.000000)">
                        <path d="M406.215,139.29 L407.64,139.29 L411.855,150 L410.52,150 L409.38,147 L404.46,147 L403.32,150 L402,150 L406.215,139.29 Z M404.85,145.965 L408.99,145.965 L406.965,140.61 L406.905,140.61 L404.85,145.965 Z M416.13,142.035 C414.975,142.035 414.06,142.44 413.4,143.265 C412.785,144.015 412.485,144.975 412.485,146.16 C412.485,147.345 412.785,148.305 413.4,149.04 C414.045,149.82 414.945,150.21 416.115,150.21 C417.075,150.21 417.84,149.955 418.425,149.46 C419.025,148.95 419.4,148.185 419.58,147.195 L418.38,147.195 C418.2,148.53 417.435,149.205 416.115,149.205 C415.335,149.205 414.735,148.92 414.33,148.38 C413.91,147.84 413.715,147.09 413.715,146.145 C413.715,145.2 413.925,144.45 414.345,143.895 C414.78,143.325 415.38,143.04 416.13,143.04 C416.745,143.04 417.24,143.175 417.63,143.475 C418.005,143.775 418.245,144.225 418.35,144.825 L419.535,144.825 C419.4,143.88 419.04,143.175 418.44,142.71 C417.855,142.26 417.09,142.035 416.13,142.035 Z M424.62,142.035 C424.11,142.035 423.645,142.155 423.225,142.395 C422.805,142.62 422.46,142.95 422.19,143.385 L422.19,142.245 L420.99,142.245 L420.99,150 L422.19,150 L422.19,145.32 C422.235,144.615 422.46,144.06 422.88,143.64 C423.27,143.25 423.735,143.055 424.275,143.055 C425.625,143.055 426.315,143.805 426.315,145.32 L426.315,150 L427.515,150 L427.515,145.23 C427.515,143.1 426.54,142.035 424.62,142.035 Z M432.57,142.035 C433.815,142.035 434.76,142.455 435.39,143.295 C435.96,144.045 436.26,145.11 436.29,146.46 L430.17,146.46 C430.23,147.33 430.455,148.005 430.875,148.485 C431.295,148.965 431.88,149.205 432.615,149.205 C433.245,149.205 433.77,149.04 434.16,148.725 C434.49,148.455 434.745,148.05 434.94,147.51 L436.14,147.51 C435.96,148.26 435.615,148.86 435.09,149.34 C434.445,149.91 433.62,150.21 432.615,150.21 C431.505,150.21 430.605,149.835 429.945,149.115 C429.255,148.365 428.925,147.375 428.925,146.115 C428.925,144.975 429.24,144.015 429.9,143.25 C430.56,142.44 431.445,142.035 432.57,142.035 Z M432.6,143.04 C431.91,143.04 431.355,143.265 430.935,143.715 C430.515,144.165 430.275,144.765 430.2,145.53 L435.045,145.53 C434.895,143.865 434.07,143.04 432.6,143.04 Z M445.44,142.035 C444.57,142.035 443.85,142.23 443.31,142.62 C442.725,143.01 442.44,143.52 442.44,144.18 C442.44,144.84 442.725,145.335 443.325,145.695 C443.685,145.935 444.33,146.16 445.245,146.385 C446.085,146.595 446.64,146.76 446.895,146.88 C447.375,147.12 447.63,147.45 447.63,147.885 C447.63,148.755 446.925,149.205 445.545,149.205 C444.885,149.205 444.39,149.085 444.06,148.845 C443.73,148.575 443.505,148.14 443.415,147.525 L442.245,147.525 C442.425,149.31 443.535,150.21 445.575,150.21 C447.765,150.21 448.86,149.4 448.86,147.81 C448.86,147.135 448.545,146.61 447.93,146.22 C447.525,145.965 446.865,145.725 445.935,145.5 C445.155,145.29 444.615,145.125 444.33,144.99 C443.88,144.765 443.67,144.48 443.67,144.15 C443.67,143.805 443.835,143.535 444.165,143.34 C444.465,143.13 444.885,143.04 445.425,143.04 C446.04,143.04 446.52,143.16 446.85,143.4 C447.15,143.61 447.345,143.97 447.45,144.45 L448.62,144.45 C448.41,142.83 447.36,142.035 445.44,142.035 Z M453.615,142.035 C452.46,142.035 451.545,142.44 450.885,143.265 C450.27,144.015 449.97,144.975 449.97,146.16 C449.97,147.345 450.27,148.305 450.885,149.04 C451.53,149.82 452.43,150.21 453.6,150.21 C454.56,150.21 455.325,149.955 455.91,149.46 C456.51,148.95 456.885,148.185 457.065,147.195 L455.865,147.195 C455.685,148.53 454.92,149.205 453.6,149.205 C452.82,149.205 452.22,148.92 451.815,148.38 C451.395,147.84 451.2,147.09 451.2,146.145 C451.2,145.2 451.41,144.45 451.83,143.895 C452.265,143.325 452.865,143.04 453.615,143.04 C454.23,143.04 454.725,143.175 455.115,143.475 C455.49,143.775 455.73,144.225 455.835,144.825 L457.02,144.825 C456.885,143.88 456.525,143.175 455.925,142.71 C455.34,142.26 454.575,142.035 453.615,142.035 Z M461.85,142.035 C462.96,142.035 463.77,142.32 464.31,142.905 C464.76,143.415 465,144.12 465,145.02 L465,150 L463.875,150 L463.875,148.695 C463.575,149.115 463.17,149.46 462.69,149.73 C462.12,150.045 461.475,150.21 460.755,150.21 C459.975,150.21 459.36,150.015 458.895,149.625 C458.415,149.22 458.175,148.695 458.175,148.065 C458.175,147.18 458.52,146.52 459.24,146.07 C459.87,145.65 460.77,145.425 461.94,145.41 L463.8,145.38 L463.8,144.975 C463.8,143.67 463.125,143.025 461.775,143.025 C461.205,143.025 460.74,143.13 460.38,143.37 C459.975,143.61 459.72,143.985 459.6,144.48 L458.415,144.39 C458.58,143.58 458.985,142.965 459.615,142.575 C460.185,142.215 460.92,142.035 461.85,142.035 Z M463.8,146.28 L462.015,146.31 C460.275,146.34 459.405,146.91 459.405,148.035 C459.405,148.395 459.54,148.68 459.84,148.92 C460.14,149.145 460.53,149.265 461.01,149.265 C461.745,149.265 462.39,149.025 462.96,148.545 C463.515,148.08 463.8,147.54 463.8,146.94 L463.8,146.28 Z M470.265,142.035 C469.725,142.035 469.26,142.2 468.855,142.53 C468.525,142.785 468.255,143.145 468.045,143.595 L468.045,142.245 L466.86,142.245 L466.86,150 L468.045,150 L468.045,145.89 C468.045,145.17 468.24,144.555 468.66,144.045 C469.065,143.505 469.575,143.25 470.175,143.25 C470.55,143.25 470.94,143.295 471.33,143.415 L471.33,142.215 C471.045,142.095 470.685,142.035 470.265,142.035 Z M475.08,142.035 C474.21,142.035 473.49,142.23 472.95,142.62 C472.365,143.01 472.08,143.52 472.08,144.18 C472.08,144.84 472.365,145.335 472.965,145.695 C473.325,145.935 473.97,146.16 474.885,146.385 C475.725,146.595 476.28,146.76 476.535,146.88 C477.015,147.12 477.27,147.45 477.27,147.885 C477.27,148.755 476.565,149.205 475.185,149.205 C474.525,149.205 474.03,149.085 473.7,148.845 C473.37,148.575 473.145,148.14 473.055,147.525 L471.885,147.525 C472.065,149.31 473.175,150.21 475.215,150.21 C477.405,150.21 478.5,149.4 478.5,147.81 C478.5,147.135 478.185,146.61 477.57,146.22 C477.165,145.965 476.505,145.725 475.575,145.5 C474.795,145.29 474.255,145.125 473.97,144.99 C473.52,144.765 473.31,144.48 473.31,144.15 C473.31,143.805 473.475,143.535 473.805,143.34 C474.105,143.13 474.525,143.04 475.065,143.04 C475.68,143.04 476.16,143.16 476.49,143.4 C476.79,143.61 476.985,143.97 477.09,144.45 L478.26,144.45 C478.05,142.83 477,142.035 475.08,142.035 Z" id="txt-2.3"></path>
                    </g>
                </g>
            </g>
        </g>
    </g>
</svg>