<?xml version="1.0" encoding="UTF-8"?>
<svg width="469px" height="198px" viewBox="0 0 469 198" version="1.1" xmlns="http://www.w3.org/2000/svg" xmlns:xlink="http://www.w3.org/1999/xlink">
    <!-- Generator: Sketch 46 (44423) - http://www.bohemiancoding.com/sketch -->
    <title>标题文字</title>
    <desc>Created with Sketch.</desc>
    <defs></defs>
    <g id="Page-1" stroke="none" stroke-width="1" fill="none" fill-rule="evenodd">
        <g id="首页-英文" transform="translate(-766.000000, -301.000000)">
            <g id="1" transform="translate(-3.000000, 0.000000)">
                <g id="标题文字" transform="translate(767.000000, 293.000000)">
                    <path d="M18.96,8.32 C14.64,8.32 11.04,9.22 8.28,11.08 C5.16,13.06 3.66,15.88 3.66,19.6 C3.66,23.08 5.28,25.78 8.58,27.64 C10.02,28.48 13.32,29.62 18.42,31.06 C23.28,32.38 26.4,33.52 27.84,34.36 C30.72,35.98 32.22,38.26 32.22,41.2 C32.22,43.72 31.02,45.76 28.74,47.26 C26.4,48.7 23.34,49.48 19.56,49.48 C15.6,49.48 12.54,48.58 10.38,46.84 C7.98,44.86 6.6,41.86 6.18,37.84 L2.58,37.84 C2.94,43 4.74,46.9 7.98,49.48 C10.8,51.7 14.7,52.84 19.62,52.84 C24.48,52.84 28.38,51.82 31.32,49.78 C34.38,47.62 35.94,44.68 35.94,41.02 C35.94,37.12 34.14,34.12 30.6,32.02 C28.68,30.82 25.02,29.5 19.56,27.94 C15.36,26.74 12.6,25.78 11.34,25.18 C8.64,23.74 7.32,21.88 7.32,19.48 C7.32,16.78 8.4,14.74 10.68,13.42 C12.66,12.22 15.36,11.62 18.84,11.62 C22.56,11.62 25.44,12.46 27.48,14.2 C29.52,15.94 30.78,18.46 31.26,21.82 L34.92,21.82 C34.56,17.38 32.94,14.02 30.12,11.74 C27.36,9.46 23.64,8.32 18.96,8.32 Z M54.3,20.14 C50.52,20.14 47.52,21.94 45.3,25.66 L45.3,20.98 L41.7,20.98 L41.7,52 L45.3,52 L45.3,32.92 C45.3,30.22 46.08,27.94 47.7,26.08 C49.26,24.16 51.18,23.26 53.52,23.26 C58.68,23.26 61.26,26.2 61.26,32.2 L61.26,52 L64.92,52 L64.92,32.26 C64.92,29.62 65.64,27.52 67.2,25.84 C68.7,24.1 70.56,23.26 72.84,23.26 C75.6,23.26 77.7,24.04 79.02,25.6 C80.22,27.04 80.82,29.26 80.82,32.2 L80.82,52 L84.42,52 L84.42,31.72 C84.42,28.06 83.46,25.24 81.6,23.2 C79.68,21.16 77.04,20.14 73.8,20.14 C71.64,20.14 69.72,20.68 68.16,21.76 C66.48,22.84 65.1,24.4 64.02,26.5 C62.46,22.24 59.22,20.14 54.3,20.14 Z M105.12,20.14 C109.44,20.14 112.68,21.28 114.78,23.68 C116.58,25.66 117.54,28.42 117.54,32.02 L117.54,52 L114.12,52 L114.12,46.06 C112.86,47.86 111.18,49.42 109.14,50.62 C106.62,52.06 103.92,52.84 100.98,52.84 C97.98,52.84 95.52,52.06 93.72,50.56 C91.74,49 90.78,46.9 90.78,44.38 C90.78,40.78 92.22,38.14 95.16,36.46 C97.68,34.84 101.34,34 106.02,34 L113.94,33.88 L113.94,32.02 C113.94,26.14 110.94,23.2 104.94,23.2 C102.42,23.2 100.38,23.68 98.76,24.76 C96.96,25.9 95.82,27.52 95.34,29.68 L91.8,29.44 C92.4,26.32 93.96,23.92 96.48,22.36 C98.7,20.86 101.58,20.14 105.12,20.14 Z M113.94,36.7 L106.2,36.82 C98.34,36.88 94.44,39.4 94.44,44.32 C94.44,46 95.1,47.32 96.42,48.34 C97.74,49.36 99.54,49.9 101.7,49.9 C104.82,49.9 107.7,48.82 110.22,46.66 C112.68,44.62 113.94,42.34 113.94,39.94 L113.94,36.7 Z M138.12,20.14 C135.84,20.14 133.8,20.86 132.12,22.3 C130.68,23.44 129.54,25 128.7,26.92 L128.7,20.98 L125.1,20.98 L125.1,52 L128.7,52 L128.7,35.62 C128.7,32.5 129.48,29.8 131.16,27.52 C132.84,25 135.12,23.8 137.88,23.8 C139.44,23.8 141,23.98 142.62,24.46 L142.62,20.8 C141.42,20.32 139.92,20.14 138.12,20.14 Z M154.2,10.96 L150.6,12.46 L150.6,20.98 L144,20.98 L144,24.1 L150.6,24.1 L150.6,45.1 C150.6,47.38 151.02,49.06 151.98,50.14 C153,51.34 154.74,52 157.14,52 L161.52,52 L161.52,48.88 L157.62,48.88 C156.3,48.88 155.4,48.58 154.92,48.04 C154.44,47.44 154.2,46.42 154.2,45.1 L154.2,24.1 L162.3,24.1 L162.3,20.98 L154.2,20.98 L154.2,10.96 Z M198.3,20.14 C195.06,20.14 192.3,20.86 190.14,22.36 C187.86,23.92 186.78,25.9 186.78,28.42 C186.78,30.94 187.92,32.92 190.32,34.36 C191.76,35.26 194.28,36.16 197.88,37.12 C201.42,38.02 203.7,38.74 204.78,39.28 C206.82,40.3 207.84,41.74 207.84,43.6 C207.84,47.68 204.84,49.72 198.84,49.72 C195.96,49.72 193.8,49.18 192.36,48.1 C190.8,46.9 189.84,44.92 189.48,42.22 L185.94,42.22 C186.66,49.3 190.98,52.84 198.96,52.84 C207.36,52.84 211.56,49.66 211.56,43.42 C211.56,40.78 210.3,38.68 207.84,37.18 C206.28,36.22 203.58,35.26 199.8,34.3 C196.62,33.46 194.46,32.74 193.26,32.14 C191.4,31.18 190.5,29.92 190.5,28.36 C190.5,26.8 191.22,25.6 192.66,24.64 C194.1,23.68 195.96,23.26 198.24,23.26 C201,23.26 203.1,23.8 204.54,24.94 C205.86,25.96 206.7,27.52 207.12,29.68 L210.66,29.68 C209.76,23.32 205.62,20.14 198.3,20.14 Z M217.32,8.32 L217.32,52 L220.92,52 L220.92,41.02 L226.86,35.62 L239.7,52 L244.44,52 L229.44,33.28 L243.06,20.98 L238.14,20.98 L220.92,36.64 L220.92,8.32 L217.32,8.32 Z M251.82,9.82 C250.92,9.82 250.2,10.12 249.66,10.72 C249.06,11.2 248.76,11.92 248.76,12.82 C248.76,13.66 249.06,14.38 249.66,14.98 C250.2,15.52 250.92,15.82 251.82,15.82 C252.66,15.82 253.32,15.52 253.92,14.98 C254.52,14.38 254.88,13.66 254.88,12.82 C254.88,11.92 254.58,11.2 253.98,10.72 C253.38,10.12 252.66,9.82 251.82,9.82 Z M250.02,20.98 L250.02,52 L253.62,52 L253.62,20.98 L250.02,20.98 Z M276.66,20.14 C274.5,20.14 272.52,20.62 270.78,21.7 C269.04,22.78 267.66,24.22 266.58,26.08 L266.58,20.98 L262.98,20.98 L262.98,52 L266.58,52 L266.58,33.28 C266.76,30.22 267.72,27.76 269.52,25.96 C271.2,24.16 273.24,23.26 275.76,23.26 C281.64,23.26 284.58,26.56 284.58,33.16 L284.58,52 L288.18,52 L288.18,32.92 C288.18,24.4 284.34,20.14 276.66,20.14 Z M323.22,10.96 L319.62,12.46 L319.62,20.98 L313.02,20.98 L313.02,24.1 L319.62,24.1 L319.62,45.1 C319.62,47.38 320.04,49.06 321,50.14 C322.02,51.34 323.76,52 326.16,52 L330.54,52 L330.54,48.88 L326.64,48.88 C325.32,48.88 324.42,48.58 323.94,48.04 C323.46,47.44 323.22,46.42 323.22,45.1 L323.22,24.1 L331.32,24.1 L331.32,20.98 L323.22,20.98 L323.22,10.96 Z M349.32,20.14 C354.24,20.14 357.9,21.76 360.36,25.12 C362.52,28.06 363.72,32.2 363.9,37.54 L338.7,37.54 C338.88,41.32 339.9,44.32 341.76,46.48 C343.68,48.64 346.2,49.72 349.44,49.72 C352.26,49.72 354.54,48.94 356.28,47.5 C357.72,46.24 358.8,44.44 359.58,42.04 L363.24,42.04 C362.52,45.04 361.14,47.5 359.1,49.42 C356.58,51.7 353.4,52.84 349.44,52.84 C345.06,52.84 341.58,51.34 339,48.4 C336.3,45.4 334.98,41.38 334.98,36.46 C334.98,31.9 336.24,28.12 338.82,25 C341.46,21.76 344.94,20.14 349.32,20.14 Z M349.38,23.26 C346.32,23.26 343.86,24.28 342,26.44 C340.14,28.54 339.06,31.24 338.76,34.6 L360.12,34.6 C359.52,27.04 355.92,23.26 349.38,23.26 Z M380.22,20.14 C376.98,20.14 374.22,20.86 372.06,22.36 C369.78,23.92 368.7,25.9 368.7,28.42 C368.7,30.94 369.84,32.92 372.24,34.36 C373.68,35.26 376.2,36.16 379.8,37.12 C383.34,38.02 385.62,38.74 386.7,39.28 C388.74,40.3 389.76,41.74 389.76,43.6 C389.76,47.68 386.76,49.72 380.76,49.72 C377.88,49.72 375.72,49.18 374.28,48.1 C372.72,46.9 371.76,44.92 371.4,42.22 L367.86,42.22 C368.58,49.3 372.9,52.84 380.88,52.84 C389.28,52.84 393.48,49.66 393.48,43.42 C393.48,40.78 392.22,38.68 389.76,37.18 C388.2,36.22 385.5,35.26 381.72,34.3 C378.54,33.46 376.38,32.74 375.18,32.14 C373.32,31.18 372.42,29.92 372.42,28.36 C372.42,26.8 373.14,25.6 374.58,24.64 C376.02,23.68 377.88,23.26 380.16,23.26 C382.92,23.26 385.02,23.8 386.46,24.94 C387.78,25.96 388.62,27.52 389.04,29.68 L392.58,29.68 C391.68,23.32 387.54,20.14 380.22,20.14 Z M406.74,10.96 L403.14,12.46 L403.14,20.98 L396.54,20.98 L396.54,24.1 L403.14,24.1 L403.14,45.1 C403.14,47.38 403.56,49.06 404.52,50.14 C405.54,51.34 407.28,52 409.68,52 L414.06,52 L414.06,48.88 L410.16,48.88 C408.84,48.88 407.94,48.58 407.46,48.04 C406.98,47.44 406.74,46.42 406.74,45.1 L406.74,24.1 L414.84,24.1 L414.84,20.98 L406.74,20.98 L406.74,10.96 Z M432.84,20.14 C437.76,20.14 441.42,21.76 443.88,25.12 C446.04,28.06 447.24,32.2 447.42,37.54 L422.22,37.54 C422.4,41.32 423.42,44.32 425.28,46.48 C427.2,48.64 429.72,49.72 432.96,49.72 C435.78,49.72 438.06,48.94 439.8,47.5 C441.24,46.24 442.32,44.44 443.1,42.04 L446.76,42.04 C446.04,45.04 444.66,47.5 442.62,49.42 C440.1,51.7 436.92,52.84 432.96,52.84 C428.58,52.84 425.1,51.34 422.52,48.4 C419.82,45.4 418.5,41.38 418.5,36.46 C418.5,31.9 419.76,28.12 422.34,25 C424.98,21.76 428.46,20.14 432.84,20.14 Z M432.9,23.26 C429.84,23.26 427.38,24.28 425.52,26.44 C423.66,28.54 422.58,31.24 422.28,34.6 L443.64,34.6 C443.04,27.04 439.44,23.26 432.9,23.26 Z M466.2,20.14 C463.92,20.14 461.88,20.86 460.2,22.3 C458.76,23.44 457.62,25 456.78,26.92 L456.78,20.98 L453.18,20.98 L453.18,52 L456.78,52 L456.78,35.62 C456.78,32.5 457.56,29.8 459.24,27.52 C460.92,25 463.2,23.8 465.96,23.8 C467.52,23.8 469.08,23.98 470.7,24.46 L470.7,20.8 C469.5,20.32 468,20.14 466.2,20.14 Z" id="Smart-skin-tester" fill="#38393B"></path>
                    <path d="M137.788,95.292 L142.298,111 L143.882,111 L147.732,97.184 L147.798,97.184 L151.648,111 L153.232,111 L157.742,95.292 L156.224,95.292 L152.462,109.196 L152.396,109.196 L148.546,95.292 L146.984,95.292 L143.134,109.196 L143.068,109.196 L139.306,95.292 L137.788,95.292 Z M163.836,99.318 C165.64,99.318 166.982,99.912 167.884,101.144 C168.676,102.222 169.116,103.74 169.182,105.698 L159.942,105.698 C160.008,107.084 160.382,108.184 161.064,108.976 C161.768,109.768 162.692,110.164 163.88,110.164 C164.914,110.164 165.75,109.878 166.388,109.35 C166.916,108.888 167.312,108.228 167.598,107.348 L168.94,107.348 C168.676,108.448 168.17,109.35 167.422,110.054 C166.498,110.89 165.332,111.308 163.88,111.308 C162.274,111.308 160.998,110.758 160.052,109.68 C159.062,108.58 158.578,107.106 158.578,105.302 C158.578,103.63 159.04,102.244 159.986,101.1 C160.954,99.912 162.23,99.318 163.836,99.318 Z M163.858,100.462 C162.736,100.462 161.834,100.836 161.152,101.628 C160.47,102.398 160.074,103.388 159.964,104.62 L167.796,104.62 C167.576,101.848 166.256,100.462 163.858,100.462 Z M189.334,95.292 L180.182,103.916 L180.182,95.292 L178.84,95.292 L178.84,111 L180.182,111 L180.182,105.478 L182.998,102.86 L190.28,111 L192.128,111 L183.922,102.002 L191.138,95.292 L189.334,95.292 Z M198.53,99.318 C197.738,99.318 197.012,99.494 196.374,99.89 C195.736,100.286 195.23,100.814 194.834,101.496 L194.834,99.626 L193.514,99.626 L193.514,111 L194.834,111 L194.834,104.136 C194.9,103.014 195.252,102.112 195.912,101.452 C196.528,100.792 197.276,100.462 198.2,100.462 C200.356,100.462 201.434,101.672 201.434,104.092 L201.434,111 L202.754,111 L202.754,104.004 C202.754,100.88 201.346,99.318 198.53,99.318 Z M210.498,99.318 C212.17,99.318 213.512,99.912 214.524,101.122 C215.448,102.244 215.91,103.652 215.91,105.324 C215.91,106.996 215.448,108.382 214.524,109.504 C213.512,110.692 212.17,111.308 210.498,111.308 C208.826,111.308 207.484,110.692 206.472,109.504 C205.548,108.382 205.086,106.996 205.086,105.324 C205.086,103.652 205.548,102.244 206.494,101.122 C207.484,99.912 208.826,99.318 210.498,99.318 Z M210.498,100.462 C209.2,100.462 208.188,100.946 207.44,101.958 C206.758,102.838 206.428,103.96 206.428,105.324 C206.428,106.666 206.758,107.788 207.44,108.668 C208.188,109.658 209.2,110.164 210.498,110.164 C211.796,110.164 212.83,109.658 213.578,108.668 C214.238,107.766 214.59,106.644 214.59,105.324 C214.59,103.96 214.238,102.838 213.578,101.958 C212.83,100.946 211.796,100.462 210.498,100.462 Z M216.966,99.626 L220.882,111 L222.136,111 L225.04,101.342 L227.9,111 L229.176,111 L233.07,99.626 L231.618,99.626 L228.516,109.306 L225.656,99.626 L224.38,99.626 L221.52,109.306 L218.44,99.626 L216.966,99.626 Z M244.642,95.952 L243.322,96.502 L243.322,99.626 L240.902,99.626 L240.902,100.77 L243.322,100.77 L243.322,108.47 C243.322,109.306 243.476,109.922 243.828,110.318 C244.202,110.758 244.84,111 245.72,111 L247.326,111 L247.326,109.856 L245.896,109.856 C245.412,109.856 245.082,109.746 244.906,109.548 C244.73,109.328 244.642,108.954 244.642,108.47 L244.642,100.77 L247.612,100.77 L247.612,99.626 L244.642,99.626 L244.642,95.952 Z M249.614,94.984 L249.614,111 L250.956,111 L250.956,104.422 C250.956,103.3 251.264,102.354 251.924,101.606 C252.584,100.836 253.376,100.462 254.322,100.462 C255.334,100.462 256.104,100.748 256.676,101.342 C257.226,101.958 257.512,102.816 257.512,103.916 L257.512,111 L258.832,111 L258.832,103.74 C258.832,102.332 258.458,101.232 257.732,100.462 C257.006,99.692 255.994,99.318 254.696,99.318 C253.904,99.318 253.178,99.516 252.54,99.912 C251.88,100.33 251.352,100.924 250.956,101.694 L250.956,94.984 L249.614,94.984 Z M266.202,99.318 C268.006,99.318 269.348,99.912 270.25,101.144 C271.042,102.222 271.482,103.74 271.548,105.698 L262.308,105.698 C262.374,107.084 262.748,108.184 263.43,108.976 C264.134,109.768 265.058,110.164 266.246,110.164 C267.28,110.164 268.116,109.878 268.754,109.35 C269.282,108.888 269.678,108.228 269.964,107.348 L271.306,107.348 C271.042,108.448 270.536,109.35 269.788,110.054 C268.864,110.89 267.698,111.308 266.246,111.308 C264.64,111.308 263.364,110.758 262.418,109.68 C261.428,108.58 260.944,107.106 260.944,105.302 C260.944,103.63 261.406,102.244 262.352,101.1 C263.32,99.912 264.596,99.318 266.202,99.318 Z M266.224,100.462 C265.102,100.462 264.2,100.836 263.518,101.628 C262.836,102.398 262.44,103.388 262.33,104.62 L270.162,104.62 C269.942,101.848 268.622,100.462 266.224,100.462 Z M289.566,94.984 L290.886,94.984 L290.886,111 L289.632,111 L289.632,108.756 C288.84,110.45 287.52,111.308 285.65,111.308 C284,111.308 282.724,110.692 281.8,109.504 C280.964,108.404 280.546,106.996 280.546,105.302 C280.546,103.63 280.964,102.244 281.8,101.144 C282.724,99.912 283.978,99.318 285.584,99.318 C287.388,99.318 288.73,100.22 289.566,102.024 L289.566,94.984 Z M285.826,100.44 C284.528,100.44 283.538,100.924 282.834,101.892 C282.196,102.728 281.888,103.872 281.888,105.302 C281.888,106.732 282.196,107.876 282.812,108.734 C283.494,109.702 284.484,110.186 285.782,110.186 C287.014,110.186 287.982,109.702 288.664,108.778 C289.28,107.92 289.61,106.82 289.61,105.478 L289.61,105.214 C289.61,103.806 289.258,102.684 288.598,101.804 C287.894,100.88 286.97,100.44 285.826,100.44 Z M298.256,99.318 C300.06,99.318 301.402,99.912 302.304,101.144 C303.096,102.222 303.536,103.74 303.602,105.698 L294.362,105.698 C294.428,107.084 294.802,108.184 295.484,108.976 C296.188,109.768 297.112,110.164 298.3,110.164 C299.334,110.164 300.17,109.878 300.808,109.35 C301.336,108.888 301.732,108.228 302.018,107.348 L303.36,107.348 C303.096,108.448 302.59,109.35 301.842,110.054 C300.918,110.89 299.752,111.308 298.3,111.308 C296.694,111.308 295.418,110.758 294.472,109.68 C293.482,108.58 292.998,107.106 292.998,105.302 C292.998,103.63 293.46,102.244 294.406,101.1 C295.374,99.912 296.65,99.318 298.256,99.318 Z M298.278,100.462 C297.156,100.462 296.254,100.836 295.572,101.628 C294.89,102.398 294.494,103.388 294.384,104.62 L302.216,104.62 C301.996,101.848 300.676,100.462 298.278,100.462 Z M308.464,95.952 L307.144,96.502 L307.144,99.626 L304.724,99.626 L304.724,100.77 L307.144,100.77 L307.144,108.47 C307.144,109.306 307.298,109.922 307.65,110.318 C308.024,110.758 308.662,111 309.542,111 L311.148,111 L311.148,109.856 L309.718,109.856 C309.234,109.856 308.904,109.746 308.728,109.548 C308.552,109.328 308.464,108.954 308.464,108.47 L308.464,100.77 L311.434,100.77 L311.434,99.626 L308.464,99.626 L308.464,95.952 Z M318.254,99.318 C319.838,99.318 321.026,99.736 321.796,100.616 C322.456,101.342 322.808,102.354 322.808,103.674 L322.808,111 L321.554,111 L321.554,108.822 C321.092,109.482 320.476,110.054 319.728,110.494 C318.804,111.022 317.814,111.308 316.736,111.308 C315.636,111.308 314.734,111.022 314.074,110.472 C313.348,109.9 312.996,109.13 312.996,108.206 C312.996,106.886 313.524,105.918 314.602,105.302 C315.526,104.708 316.868,104.4 318.584,104.4 L321.488,104.356 L321.488,103.674 C321.488,101.518 320.388,100.44 318.188,100.44 C317.264,100.44 316.516,100.616 315.922,101.012 C315.262,101.43 314.844,102.024 314.668,102.816 L313.37,102.728 C313.59,101.584 314.162,100.704 315.086,100.132 C315.9,99.582 316.956,99.318 318.254,99.318 Z M321.488,105.39 L318.65,105.434 C315.768,105.456 314.338,106.38 314.338,108.184 C314.338,108.8 314.58,109.284 315.064,109.658 C315.548,110.032 316.208,110.23 317,110.23 C318.144,110.23 319.2,109.834 320.124,109.042 C321.026,108.294 321.488,107.458 321.488,106.578 L321.488,105.39 Z M326.9,95.534 C326.57,95.534 326.306,95.644 326.108,95.864 C325.888,96.04 325.778,96.304 325.778,96.634 C325.778,96.942 325.888,97.206 326.108,97.426 C326.306,97.624 326.57,97.734 326.9,97.734 C327.208,97.734 327.45,97.624 327.67,97.426 C327.89,97.206 328.022,96.942 328.022,96.634 C328.022,96.304 327.912,96.04 327.692,95.864 C327.472,95.644 327.208,95.534 326.9,95.534 Z M326.24,99.626 L326.24,111 L327.56,111 L327.56,99.626 L326.24,99.626 Z M331.41,94.984 L331.41,111 L332.73,111 L332.73,94.984 L331.41,94.984 Z M339.792,99.318 C338.604,99.318 337.592,99.582 336.8,100.132 C335.964,100.704 335.568,101.43 335.568,102.354 C335.568,103.278 335.986,104.004 336.866,104.532 C337.394,104.862 338.318,105.192 339.638,105.544 C340.936,105.874 341.772,106.138 342.168,106.336 C342.916,106.71 343.29,107.238 343.29,107.92 C343.29,109.416 342.19,110.164 339.99,110.164 C338.934,110.164 338.142,109.966 337.614,109.57 C337.042,109.13 336.69,108.404 336.558,107.414 L335.26,107.414 C335.524,110.01 337.108,111.308 340.034,111.308 C343.114,111.308 344.654,110.142 344.654,107.854 C344.654,106.886 344.192,106.116 343.29,105.566 C342.718,105.214 341.728,104.862 340.342,104.51 C339.176,104.202 338.384,103.938 337.944,103.718 C337.262,103.366 336.932,102.904 336.932,102.332 C336.932,101.76 337.196,101.32 337.724,100.968 C338.252,100.616 338.934,100.462 339.77,100.462 C340.782,100.462 341.552,100.66 342.08,101.078 C342.564,101.452 342.872,102.024 343.026,102.816 L344.324,102.816 C343.994,100.484 342.476,99.318 339.792,99.318 Z M359.064,99.318 C360.736,99.318 362.078,99.912 363.09,101.122 C364.014,102.244 364.476,103.652 364.476,105.324 C364.476,106.996 364.014,108.382 363.09,109.504 C362.078,110.692 360.736,111.308 359.064,111.308 C357.392,111.308 356.05,110.692 355.038,109.504 C354.114,108.382 353.652,106.996 353.652,105.324 C353.652,103.652 354.114,102.244 355.06,101.122 C356.05,99.912 357.392,99.318 359.064,99.318 Z M359.064,100.462 C357.766,100.462 356.754,100.946 356.006,101.958 C355.324,102.838 354.994,103.96 354.994,105.324 C354.994,106.666 355.324,107.788 356.006,108.668 C356.754,109.658 357.766,110.164 359.064,110.164 C360.362,110.164 361.396,109.658 362.144,108.668 C362.804,107.766 363.156,106.644 363.156,105.324 C363.156,103.96 362.804,102.838 362.144,101.958 C361.396,100.946 360.362,100.462 359.064,100.462 Z M371.428,95.292 C370.46,95.292 369.756,95.556 369.272,96.106 C368.788,96.612 368.568,97.338 368.568,98.284 L368.568,99.626 L365.532,99.626 L365.532,100.77 L368.568,100.77 L368.568,111 L369.888,111 L369.888,100.77 L373.298,100.77 L373.298,99.626 L369.888,99.626 L369.888,98.306 C369.888,97.646 370.02,97.184 370.284,96.898 C370.548,96.59 370.966,96.458 371.538,96.458 L373.452,96.458 L373.452,95.292 L371.428,95.292 Z M380.998,99.626 L385.508,110.714 L383.594,115.356 L385.024,115.356 L391.294,99.626 L389.842,99.626 L386.168,109.108 L382.45,99.626 L380.998,99.626 Z M397.762,99.318 C399.434,99.318 400.776,99.912 401.788,101.122 C402.712,102.244 403.174,103.652 403.174,105.324 C403.174,106.996 402.712,108.382 401.788,109.504 C400.776,110.692 399.434,111.308 397.762,111.308 C396.09,111.308 394.748,110.692 393.736,109.504 C392.812,108.382 392.35,106.996 392.35,105.324 C392.35,103.652 392.812,102.244 393.758,101.122 C394.748,99.912 396.09,99.318 397.762,99.318 Z M397.762,100.462 C396.464,100.462 395.452,100.946 394.704,101.958 C394.022,102.838 393.692,103.96 393.692,105.324 C393.692,106.666 394.022,107.788 394.704,108.668 C395.452,109.658 396.464,110.164 397.762,110.164 C399.06,110.164 400.094,109.658 400.842,108.668 C401.502,107.766 401.854,106.644 401.854,105.324 C401.854,103.96 401.502,102.838 400.842,101.958 C400.094,100.946 399.06,100.462 397.762,100.462 Z M405.506,99.626 L405.506,106.644 C405.506,109.746 406.892,111.308 409.664,111.308 C411.292,111.308 412.568,110.56 413.448,109.086 L413.448,111 L414.768,111 L414.768,99.626 L413.448,99.626 L413.448,106.534 C413.36,107.612 412.986,108.492 412.326,109.152 C411.666,109.812 410.896,110.164 410.016,110.164 C408.916,110.164 408.102,109.856 407.574,109.24 C407.068,108.646 406.826,107.766 406.826,106.578 L406.826,99.626 L405.506,99.626 Z M422.314,99.318 C421.478,99.318 420.73,99.582 420.114,100.11 C419.586,100.528 419.168,101.1 418.86,101.804 L418.86,99.626 L417.54,99.626 L417.54,111 L418.86,111 L418.86,104.994 C418.86,103.85 419.146,102.86 419.762,102.024 C420.378,101.1 421.214,100.66 422.226,100.66 C422.798,100.66 423.37,100.726 423.964,100.902 L423.964,99.56 C423.524,99.384 422.974,99.318 422.314,99.318 Z M436.658,99.318 C435.47,99.318 434.458,99.582 433.666,100.132 C432.83,100.704 432.434,101.43 432.434,102.354 C432.434,103.278 432.852,104.004 433.732,104.532 C434.26,104.862 435.184,105.192 436.504,105.544 C437.802,105.874 438.638,106.138 439.034,106.336 C439.782,106.71 440.156,107.238 440.156,107.92 C440.156,109.416 439.056,110.164 436.856,110.164 C435.8,110.164 435.008,109.966 434.48,109.57 C433.908,109.13 433.556,108.404 433.424,107.414 L432.126,107.414 C432.39,110.01 433.974,111.308 436.9,111.308 C439.98,111.308 441.52,110.142 441.52,107.854 C441.52,106.886 441.058,106.116 440.156,105.566 C439.584,105.214 438.594,104.862 437.208,104.51 C436.042,104.202 435.25,103.938 434.81,103.718 C434.128,103.366 433.798,102.904 433.798,102.332 C433.798,101.76 434.062,101.32 434.59,100.968 C435.118,100.616 435.8,100.462 436.636,100.462 C437.648,100.462 438.418,100.66 438.946,101.078 C439.43,101.452 439.738,102.024 439.892,102.816 L441.19,102.816 C440.86,100.484 439.342,99.318 436.658,99.318 Z M443.632,94.984 L443.632,111 L444.952,111 L444.952,106.974 L447.13,104.994 L451.838,111 L453.576,111 L448.076,104.136 L453.07,99.626 L451.266,99.626 L444.952,105.368 L444.952,94.984 L443.632,94.984 Z M456.282,95.534 C455.952,95.534 455.688,95.644 455.49,95.864 C455.27,96.04 455.16,96.304 455.16,96.634 C455.16,96.942 455.27,97.206 455.49,97.426 C455.688,97.624 455.952,97.734 456.282,97.734 C456.59,97.734 456.832,97.624 457.052,97.426 C457.272,97.206 457.404,96.942 457.404,96.634 C457.404,96.304 457.294,96.04 457.074,95.864 C456.854,95.644 456.59,95.534 456.282,95.534 Z M455.622,99.626 L455.622,111 L456.942,111 L456.942,99.626 L455.622,99.626 Z M465.39,99.318 C464.598,99.318 463.872,99.494 463.234,99.89 C462.596,100.286 462.09,100.814 461.694,101.496 L461.694,99.626 L460.374,99.626 L460.374,111 L461.694,111 L461.694,104.136 C461.76,103.014 462.112,102.112 462.772,101.452 C463.388,100.792 464.136,100.462 465.06,100.462 C467.216,100.462 468.294,101.672 468.294,104.092 L468.294,111 L469.614,111 L469.614,104.004 C469.614,100.88 468.206,99.318 465.39,99.318 Z" id="We-Know-the-details" fill="#2D90ED"></path>
                    <path d="M102.78,162.414 L102.78,163.224 L106.71,163.224 L106.71,173.124 L107.625,173.124 L107.625,163.224 L111.555,163.224 L111.555,162.414 L102.78,162.414 Z M112.77,162.204 L112.77,173.124 L113.685,173.124 L113.685,168.639 C113.685,167.874 113.895,167.229 114.345,166.719 C114.795,166.194 115.335,165.939 115.98,165.939 C116.67,165.939 117.195,166.134 117.585,166.539 C117.96,166.959 118.155,167.544 118.155,168.294 L118.155,173.124 L119.055,173.124 L119.055,168.174 C119.055,167.214 118.8,166.464 118.305,165.939 C117.81,165.414 117.12,165.159 116.235,165.159 C115.695,165.159 115.2,165.294 114.765,165.564 C114.315,165.849 113.955,166.254 113.685,166.779 L113.685,162.204 L112.77,162.204 Z M124.08,165.159 C125.31,165.159 126.225,165.564 126.84,166.404 C127.38,167.139 127.68,168.174 127.725,169.509 L121.425,169.509 C121.47,170.454 121.725,171.204 122.19,171.744 C122.67,172.284 123.3,172.554 124.11,172.554 C124.815,172.554 125.385,172.359 125.82,171.999 C126.18,171.684 126.45,171.234 126.645,170.634 L127.56,170.634 C127.38,171.384 127.035,171.999 126.525,172.479 C125.895,173.049 125.1,173.334 124.11,173.334 C123.015,173.334 122.145,172.959 121.5,172.224 C120.825,171.474 120.495,170.469 120.495,169.239 C120.495,168.099 120.81,167.154 121.455,166.374 C122.115,165.564 122.985,165.159 124.08,165.159 Z M124.095,165.939 C123.33,165.939 122.715,166.194 122.25,166.734 C121.785,167.259 121.515,167.934 121.44,168.774 L126.78,168.774 C126.63,166.884 125.73,165.939 124.095,165.939 Z M136.035,162.864 L135.135,163.239 L135.135,165.369 L133.485,165.369 L133.485,166.149 L135.135,166.149 L135.135,171.399 C135.135,171.969 135.24,172.389 135.48,172.659 C135.735,172.959 136.17,173.124 136.77,173.124 L137.865,173.124 L137.865,172.344 L136.89,172.344 C136.56,172.344 136.335,172.269 136.215,172.134 C136.095,171.984 136.035,171.729 136.035,171.399 L136.035,166.149 L138.06,166.149 L138.06,165.369 L136.035,165.369 L136.035,162.864 Z M142.56,165.159 C143.79,165.159 144.705,165.564 145.32,166.404 C145.86,167.139 146.16,168.174 146.205,169.509 L139.905,169.509 C139.95,170.454 140.205,171.204 140.67,171.744 C141.15,172.284 141.78,172.554 142.59,172.554 C143.295,172.554 143.865,172.359 144.3,171.999 C144.66,171.684 144.93,171.234 145.125,170.634 L146.04,170.634 C145.86,171.384 145.515,171.999 145.005,172.479 C144.375,173.049 143.58,173.334 142.59,173.334 C141.495,173.334 140.625,172.959 139.98,172.224 C139.305,171.474 138.975,170.469 138.975,169.239 C138.975,168.099 139.29,167.154 139.935,166.374 C140.595,165.564 141.465,165.159 142.56,165.159 Z M142.575,165.939 C141.81,165.939 141.195,166.194 140.73,166.734 C140.265,167.259 139.995,167.934 139.92,168.774 L145.26,168.774 C145.11,166.884 144.21,165.939 142.575,165.939 Z M150.285,165.159 C149.475,165.159 148.785,165.339 148.245,165.714 C147.675,166.104 147.405,166.599 147.405,167.229 C147.405,167.859 147.69,168.354 148.29,168.714 C148.65,168.939 149.28,169.164 150.18,169.404 C151.065,169.629 151.635,169.809 151.905,169.944 C152.415,170.199 152.67,170.559 152.67,171.024 C152.67,172.044 151.92,172.554 150.42,172.554 C149.7,172.554 149.16,172.419 148.8,172.149 C148.41,171.849 148.17,171.354 148.08,170.679 L147.195,170.679 C147.375,172.449 148.455,173.334 150.45,173.334 C152.55,173.334 153.6,172.539 153.6,170.979 C153.6,170.319 153.285,169.794 152.67,169.419 C152.28,169.179 151.605,168.939 150.66,168.699 C149.865,168.489 149.325,168.309 149.025,168.159 C148.56,167.919 148.335,167.604 148.335,167.214 C148.335,166.824 148.515,166.524 148.875,166.284 C149.235,166.044 149.7,165.939 150.27,165.939 C150.96,165.939 151.485,166.074 151.845,166.359 C152.175,166.614 152.385,167.004 152.49,167.544 L153.375,167.544 C153.15,165.954 152.115,165.159 150.285,165.159 Z M156.915,162.864 L156.015,163.239 L156.015,165.369 L154.365,165.369 L154.365,166.149 L156.015,166.149 L156.015,171.399 C156.015,171.969 156.12,172.389 156.36,172.659 C156.615,172.959 157.05,173.124 157.65,173.124 L158.745,173.124 L158.745,172.344 L157.77,172.344 C157.44,172.344 157.215,172.269 157.095,172.134 C156.975,171.984 156.915,171.729 156.915,171.399 L156.915,166.149 L158.94,166.149 L158.94,165.369 L156.915,165.369 L156.915,162.864 Z M163.44,165.159 C164.67,165.159 165.585,165.564 166.2,166.404 C166.74,167.139 167.04,168.174 167.085,169.509 L160.785,169.509 C160.83,170.454 161.085,171.204 161.55,171.744 C162.03,172.284 162.66,172.554 163.47,172.554 C164.175,172.554 164.745,172.359 165.18,171.999 C165.54,171.684 165.81,171.234 166.005,170.634 L166.92,170.634 C166.74,171.384 166.395,171.999 165.885,172.479 C165.255,173.049 164.46,173.334 163.47,173.334 C162.375,173.334 161.505,172.959 160.86,172.224 C160.185,171.474 159.855,170.469 159.855,169.239 C159.855,168.099 160.17,167.154 160.815,166.374 C161.475,165.564 162.345,165.159 163.44,165.159 Z M163.455,165.939 C162.69,165.939 162.075,166.194 161.61,166.734 C161.145,167.259 160.875,167.934 160.8,168.774 L166.14,168.774 C165.99,166.884 165.09,165.939 163.455,165.939 Z M171.78,165.159 C171.21,165.159 170.7,165.339 170.28,165.699 C169.92,165.984 169.635,166.374 169.425,166.854 L169.425,165.369 L168.525,165.369 L168.525,173.124 L169.425,173.124 L169.425,169.029 C169.425,168.249 169.62,167.574 170.04,167.004 C170.46,166.374 171.03,166.074 171.72,166.074 C172.11,166.074 172.5,166.119 172.905,166.239 L172.905,165.324 C172.605,165.204 172.23,165.159 171.78,165.159 Z M178.05,165.369 L180.72,173.124 L181.575,173.124 L183.555,166.539 L185.505,173.124 L186.375,173.124 L189.03,165.369 L188.04,165.369 L185.925,171.969 L183.975,165.369 L183.105,165.369 L181.155,171.969 L179.055,165.369 L178.05,165.369 Z M193.44,165.159 C194.58,165.159 195.495,165.564 196.185,166.389 C196.815,167.154 197.13,168.114 197.13,169.254 C197.13,170.394 196.815,171.339 196.185,172.104 C195.495,172.914 194.58,173.334 193.44,173.334 C192.3,173.334 191.385,172.914 190.695,172.104 C190.065,171.339 189.75,170.394 189.75,169.254 C189.75,168.114 190.065,167.154 190.71,166.389 C191.385,165.564 192.3,165.159 193.44,165.159 Z M193.44,165.939 C192.555,165.939 191.865,166.269 191.355,166.959 C190.89,167.559 190.665,168.324 190.665,169.254 C190.665,170.169 190.89,170.934 191.355,171.534 C191.865,172.209 192.555,172.554 193.44,172.554 C194.325,172.554 195.03,172.209 195.54,171.534 C195.99,170.919 196.23,170.154 196.23,169.254 C196.23,168.324 195.99,167.559 195.54,166.959 C195.03,166.269 194.325,165.939 193.44,165.939 Z M201.975,165.159 C201.405,165.159 200.895,165.339 200.475,165.699 C200.115,165.984 199.83,166.374 199.62,166.854 L199.62,165.369 L198.72,165.369 L198.72,173.124 L199.62,173.124 L199.62,169.029 C199.62,168.249 199.815,167.574 200.235,167.004 C200.655,166.374 201.225,166.074 201.915,166.074 C202.305,166.074 202.695,166.119 203.1,166.239 L203.1,165.324 C202.8,165.204 202.425,165.159 201.975,165.159 Z M204.12,162.204 L204.12,173.124 L205.02,173.124 L205.02,170.379 L206.505,169.029 L209.715,173.124 L210.9,173.124 L207.15,168.444 L210.555,165.369 L209.325,165.369 L205.02,169.284 L205.02,162.204 L204.12,162.204 Z M214.485,165.159 C213.675,165.159 212.985,165.339 212.445,165.714 C211.875,166.104 211.605,166.599 211.605,167.229 C211.605,167.859 211.89,168.354 212.49,168.714 C212.85,168.939 213.48,169.164 214.38,169.404 C215.265,169.629 215.835,169.809 216.105,169.944 C216.615,170.199 216.87,170.559 216.87,171.024 C216.87,172.044 216.12,172.554 214.62,172.554 C213.9,172.554 213.36,172.419 213,172.149 C212.61,171.849 212.37,171.354 212.28,170.679 L211.395,170.679 C211.575,172.449 212.655,173.334 214.65,173.334 C216.75,173.334 217.8,172.539 217.8,170.979 C217.8,170.319 217.485,169.794 216.87,169.419 C216.48,169.179 215.805,168.939 214.86,168.699 C214.065,168.489 213.525,168.309 213.225,168.159 C212.76,167.919 212.535,167.604 212.535,167.214 C212.535,166.824 212.715,166.524 213.075,166.284 C213.435,166.044 213.9,165.939 214.47,165.939 C215.16,165.939 215.685,166.074 216.045,166.359 C216.375,166.614 216.585,167.004 216.69,167.544 L217.575,167.544 C217.35,165.954 216.315,165.159 214.485,165.159 Z M223.365,165.369 L226.035,173.124 L226.89,173.124 L228.87,166.539 L230.82,173.124 L231.69,173.124 L234.345,165.369 L233.355,165.369 L231.24,171.969 L229.29,165.369 L228.42,165.369 L226.47,171.969 L224.37,165.369 L223.365,165.369 Z M236.265,162.579 C236.04,162.579 235.86,162.654 235.725,162.804 C235.575,162.924 235.5,163.104 235.5,163.329 C235.5,163.539 235.575,163.719 235.725,163.869 C235.86,164.004 236.04,164.079 236.265,164.079 C236.475,164.079 236.64,164.004 236.79,163.869 C236.94,163.719 237.03,163.539 237.03,163.329 C237.03,163.104 236.955,162.924 236.805,162.804 C236.655,162.654 236.475,162.579 236.265,162.579 Z M235.815,165.369 L235.815,173.124 L236.715,173.124 L236.715,165.369 L235.815,165.369 Z M240.93,162.864 L240.03,163.239 L240.03,165.369 L238.38,165.369 L238.38,166.149 L240.03,166.149 L240.03,171.399 C240.03,171.969 240.135,172.389 240.375,172.659 C240.63,172.959 241.065,173.124 241.665,173.124 L242.76,173.124 L242.76,172.344 L241.785,172.344 C241.455,172.344 241.23,172.269 241.11,172.134 C240.99,171.984 240.93,171.729 240.93,171.399 L240.93,166.149 L242.955,166.149 L242.955,165.369 L240.93,165.369 L240.93,162.864 Z M244.32,162.204 L244.32,173.124 L245.235,173.124 L245.235,168.639 C245.235,167.874 245.445,167.229 245.895,166.719 C246.345,166.194 246.885,165.939 247.53,165.939 C248.22,165.939 248.745,166.134 249.135,166.539 C249.51,166.959 249.705,167.544 249.705,168.294 L249.705,173.124 L250.605,173.124 L250.605,168.174 C250.605,167.214 250.35,166.464 249.855,165.939 C249.36,165.414 248.67,165.159 247.785,165.159 C247.245,165.159 246.75,165.294 246.315,165.564 C245.865,165.849 245.505,166.254 245.235,166.779 L245.235,162.204 L244.32,162.204 Z M259.365,162.864 L258.465,163.239 L258.465,165.369 L256.815,165.369 L256.815,166.149 L258.465,166.149 L258.465,171.399 C258.465,171.969 258.57,172.389 258.81,172.659 C259.065,172.959 259.5,173.124 260.1,173.124 L261.195,173.124 L261.195,172.344 L260.22,172.344 C259.89,172.344 259.665,172.269 259.545,172.134 C259.425,171.984 259.365,171.729 259.365,171.399 L259.365,166.149 L261.39,166.149 L261.39,165.369 L259.365,165.369 L259.365,162.864 Z M262.755,162.204 L262.755,173.124 L263.67,173.124 L263.67,168.639 C263.67,167.874 263.88,167.229 264.33,166.719 C264.78,166.194 265.32,165.939 265.965,165.939 C266.655,165.939 267.18,166.134 267.57,166.539 C267.945,166.959 268.14,167.544 268.14,168.294 L268.14,173.124 L269.04,173.124 L269.04,168.174 C269.04,167.214 268.785,166.464 268.29,165.939 C267.795,165.414 267.105,165.159 266.22,165.159 C265.68,165.159 265.185,165.294 264.75,165.564 C264.3,165.849 263.94,166.254 263.67,166.779 L263.67,162.204 L262.755,162.204 Z M274.065,165.159 C275.295,165.159 276.21,165.564 276.825,166.404 C277.365,167.139 277.665,168.174 277.71,169.509 L271.41,169.509 C271.455,170.454 271.71,171.204 272.175,171.744 C272.655,172.284 273.285,172.554 274.095,172.554 C274.8,172.554 275.37,172.359 275.805,171.999 C276.165,171.684 276.435,171.234 276.63,170.634 L277.545,170.634 C277.365,171.384 277.02,171.999 276.51,172.479 C275.88,173.049 275.085,173.334 274.095,173.334 C273,173.334 272.13,172.959 271.485,172.224 C270.81,171.474 270.48,170.469 270.48,169.239 C270.48,168.099 270.795,167.154 271.44,166.374 C272.1,165.564 272.97,165.159 274.065,165.159 Z M274.08,165.939 C273.315,165.939 272.7,166.194 272.235,166.734 C271.77,167.259 271.5,167.934 271.425,168.774 L276.765,168.774 C276.615,166.884 275.715,165.939 274.08,165.939 Z M287.73,165.159 C288.825,165.159 289.695,165.564 290.34,166.404 C290.91,167.154 291.195,168.099 291.195,169.269 C291.195,170.409 290.91,171.354 290.355,172.104 C289.725,172.914 288.87,173.334 287.76,173.334 C286.515,173.334 285.615,172.719 285.045,171.504 L285.045,176.094 L284.145,176.094 L284.145,165.369 L285,165.369 L285,166.899 C285.57,165.729 286.47,165.159 287.73,165.159 Z M287.625,165.924 C286.785,165.924 286.125,166.254 285.66,166.914 C285.225,167.499 285.015,168.264 285.015,169.209 L285.015,169.374 C285.015,170.304 285.24,171.069 285.705,171.669 C286.17,172.269 286.8,172.569 287.595,172.569 C288.48,172.569 289.155,172.239 289.635,171.609 C290.055,171.024 290.265,170.244 290.265,169.269 C290.265,168.294 290.055,167.514 289.65,166.929 C289.17,166.254 288.495,165.924 287.625,165.924 Z M292.785,162.204 L292.785,173.124 L293.7,173.124 L293.7,168.639 C293.7,167.874 293.91,167.229 294.36,166.719 C294.81,166.194 295.35,165.939 295.995,165.939 C296.685,165.939 297.21,166.134 297.6,166.539 C297.975,166.959 298.17,167.544 298.17,168.294 L298.17,173.124 L299.07,173.124 L299.07,168.174 C299.07,167.214 298.815,166.464 298.32,165.939 C297.825,165.414 297.135,165.159 296.25,165.159 C295.71,165.159 295.215,165.294 294.78,165.564 C294.33,165.849 293.97,166.254 293.7,166.779 L293.7,162.204 L292.785,162.204 Z M304.35,165.159 C305.49,165.159 306.405,165.564 307.095,166.389 C307.725,167.154 308.04,168.114 308.04,169.254 C308.04,170.394 307.725,171.339 307.095,172.104 C306.405,172.914 305.49,173.334 304.35,173.334 C303.21,173.334 302.295,172.914 301.605,172.104 C300.975,171.339 300.66,170.394 300.66,169.254 C300.66,168.114 300.975,167.154 301.62,166.389 C302.295,165.564 303.21,165.159 304.35,165.159 Z M304.35,165.939 C303.465,165.939 302.775,166.269 302.265,166.959 C301.8,167.559 301.575,168.324 301.575,169.254 C301.575,170.169 301.8,170.934 302.265,171.534 C302.775,172.209 303.465,172.554 304.35,172.554 C305.235,172.554 305.94,172.209 306.45,171.534 C306.9,170.919 307.14,170.154 307.14,169.254 C307.14,168.324 306.9,167.559 306.45,166.959 C305.94,166.269 305.235,165.939 304.35,165.939 Z M313.05,165.159 C312.51,165.159 312.015,165.279 311.58,165.549 C311.145,165.819 310.8,166.179 310.53,166.644 L310.53,165.369 L309.63,165.369 L309.63,173.124 L310.53,173.124 L310.53,168.444 C310.575,167.679 310.815,167.064 311.265,166.614 C311.685,166.164 312.195,165.939 312.825,165.939 C314.295,165.939 315.03,166.764 315.03,168.414 L315.03,173.124 L315.93,173.124 L315.93,168.354 C315.93,166.224 314.97,165.159 313.05,165.159 Z M320.955,165.159 C322.185,165.159 323.1,165.564 323.715,166.404 C324.255,167.139 324.555,168.174 324.6,169.509 L318.3,169.509 C318.345,170.454 318.6,171.204 319.065,171.744 C319.545,172.284 320.175,172.554 320.985,172.554 C321.69,172.554 322.26,172.359 322.695,171.999 C323.055,171.684 323.325,171.234 323.52,170.634 L324.435,170.634 C324.255,171.384 323.91,171.999 323.4,172.479 C322.77,173.049 321.975,173.334 320.985,173.334 C319.89,173.334 319.02,172.959 318.375,172.224 C317.7,171.474 317.37,170.469 317.37,169.239 C317.37,168.099 317.685,167.154 318.33,166.374 C318.99,165.564 319.86,165.159 320.955,165.159 Z M320.97,165.939 C320.205,165.939 319.59,166.194 319.125,166.734 C318.66,167.259 318.39,167.934 318.315,168.774 L323.655,168.774 C323.505,166.884 322.605,165.939 320.97,165.939 Z M334.32,165.159 C335.4,165.159 336.21,165.444 336.735,166.044 C337.185,166.539 337.425,167.229 337.425,168.129 L337.425,173.124 L336.57,173.124 L336.57,171.639 C336.255,172.089 335.835,172.479 335.325,172.779 C334.695,173.139 334.02,173.334 333.285,173.334 C332.535,173.334 331.92,173.139 331.47,172.764 C330.975,172.374 330.735,171.849 330.735,171.219 C330.735,170.319 331.095,169.659 331.83,169.239 C332.46,168.834 333.375,168.624 334.545,168.624 L336.525,168.594 L336.525,168.129 C336.525,166.659 335.775,165.924 334.275,165.924 C333.645,165.924 333.135,166.044 332.73,166.314 C332.28,166.599 331.995,167.004 331.875,167.544 L330.99,167.484 C331.14,166.704 331.53,166.104 332.16,165.714 C332.715,165.339 333.435,165.159 334.32,165.159 Z M336.525,169.299 L334.59,169.329 C332.625,169.344 331.65,169.974 331.65,171.204 C331.65,171.624 331.815,171.954 332.145,172.209 C332.475,172.464 332.925,172.599 333.465,172.599 C334.245,172.599 334.965,172.329 335.595,171.789 C336.21,171.279 336.525,170.709 336.525,170.109 L336.525,169.299 Z M342.735,165.159 C342.195,165.159 341.7,165.279 341.265,165.549 C340.83,165.819 340.485,166.179 340.215,166.644 L340.215,165.369 L339.315,165.369 L339.315,173.124 L340.215,173.124 L340.215,168.444 C340.26,167.679 340.5,167.064 340.95,166.614 C341.37,166.164 341.88,165.939 342.51,165.939 C343.98,165.939 344.715,166.764 344.715,168.414 L344.715,173.124 L345.615,173.124 L345.615,168.354 C345.615,166.224 344.655,165.159 342.735,165.159 Z M353.355,162.204 L354.255,162.204 L354.255,173.124 L353.4,173.124 L353.4,171.594 C352.86,172.749 351.96,173.334 350.685,173.334 C349.56,173.334 348.69,172.914 348.06,172.104 C347.49,171.354 347.205,170.394 347.205,169.239 C347.205,168.099 347.49,167.154 348.06,166.404 C348.69,165.564 349.545,165.159 350.64,165.159 C351.87,165.159 352.785,165.774 353.355,167.004 L353.355,162.204 Z M350.805,165.924 C349.92,165.924 349.245,166.254 348.765,166.914 C348.33,167.484 348.12,168.264 348.12,169.239 C348.12,170.214 348.33,170.994 348.75,171.579 C349.215,172.239 349.89,172.569 350.775,172.569 C351.615,172.569 352.275,172.239 352.74,171.609 C353.16,171.024 353.385,170.274 353.385,169.359 L353.385,169.179 C353.385,168.219 353.145,167.454 352.695,166.854 C352.215,166.224 351.585,165.924 350.805,165.924 Z M364.725,165.159 C365.82,165.159 366.69,165.564 367.335,166.404 C367.905,167.154 368.19,168.099 368.19,169.269 C368.19,170.409 367.905,171.354 367.35,172.104 C366.72,172.914 365.865,173.334 364.755,173.334 C363.51,173.334 362.61,172.719 362.04,171.504 L362.04,176.094 L361.14,176.094 L361.14,165.369 L361.995,165.369 L361.995,166.899 C362.565,165.729 363.465,165.159 364.725,165.159 Z M364.62,165.924 C363.78,165.924 363.12,166.254 362.655,166.914 C362.22,167.499 362.01,168.264 362.01,169.209 L362.01,169.374 C362.01,170.304 362.235,171.069 362.7,171.669 C363.165,172.269 363.795,172.569 364.59,172.569 C365.475,172.569 366.15,172.239 366.63,171.609 C367.05,171.024 367.26,170.244 367.26,169.269 C367.26,168.294 367.05,167.514 366.645,166.929 C366.165,166.254 365.49,165.924 364.62,165.924 Z M373.035,165.159 C372.465,165.159 371.955,165.339 371.535,165.699 C371.175,165.984 370.89,166.374 370.68,166.854 L370.68,165.369 L369.78,165.369 L369.78,173.124 L370.68,173.124 L370.68,169.029 C370.68,168.249 370.875,167.574 371.295,167.004 C371.715,166.374 372.285,166.074 372.975,166.074 C373.365,166.074 373.755,166.119 374.16,166.239 L374.16,165.324 C373.86,165.204 373.485,165.159 373.035,165.159 Z M378.57,165.159 C379.71,165.159 380.625,165.564 381.315,166.389 C381.945,167.154 382.26,168.114 382.26,169.254 C382.26,170.394 381.945,171.339 381.315,172.104 C380.625,172.914 379.71,173.334 378.57,173.334 C377.43,173.334 376.515,172.914 375.825,172.104 C375.195,171.339 374.88,170.394 374.88,169.254 C374.88,168.114 375.195,167.154 375.84,166.389 C376.515,165.564 377.43,165.159 378.57,165.159 Z M378.57,165.939 C377.685,165.939 376.995,166.269 376.485,166.959 C376.02,167.559 375.795,168.324 375.795,169.254 C375.795,170.169 376.02,170.934 376.485,171.534 C376.995,172.209 377.685,172.554 378.57,172.554 C379.455,172.554 380.16,172.209 380.67,171.534 C381.12,170.919 381.36,170.154 381.36,169.254 C381.36,168.324 381.12,167.559 380.67,166.959 C380.16,166.269 379.455,165.939 378.57,165.939 Z M382.98,165.369 L385.95,173.124 L386.88,173.124 L389.85,165.369 L388.845,165.369 L386.415,171.984 L383.97,165.369 L382.98,165.369 Z M391.77,162.579 C391.545,162.579 391.365,162.654 391.23,162.804 C391.08,162.924 391.005,163.104 391.005,163.329 C391.005,163.539 391.08,163.719 391.23,163.869 C391.365,164.004 391.545,164.079 391.77,164.079 C391.98,164.079 392.145,164.004 392.295,163.869 C392.445,163.719 392.535,163.539 392.535,163.329 C392.535,163.104 392.46,162.924 392.31,162.804 C392.16,162.654 391.98,162.579 391.77,162.579 Z M391.32,165.369 L391.32,173.124 L392.22,173.124 L392.22,165.369 L391.32,165.369 Z M400.41,162.204 L401.31,162.204 L401.31,173.124 L400.455,173.124 L400.455,171.594 C399.915,172.749 399.015,173.334 397.74,173.334 C396.615,173.334 395.745,172.914 395.115,172.104 C394.545,171.354 394.26,170.394 394.26,169.239 C394.26,168.099 394.545,167.154 395.115,166.404 C395.745,165.564 396.6,165.159 397.695,165.159 C398.925,165.159 399.84,165.774 400.41,167.004 L400.41,162.204 Z M397.86,165.924 C396.975,165.924 396.3,166.254 395.82,166.914 C395.385,167.484 395.175,168.264 395.175,169.239 C395.175,170.214 395.385,170.994 395.805,171.579 C396.27,172.239 396.945,172.569 397.83,172.569 C398.67,172.569 399.33,172.239 399.795,171.609 C400.215,171.024 400.44,170.274 400.44,169.359 L400.44,169.179 C400.44,168.219 400.2,167.454 399.75,166.854 C399.27,166.224 398.64,165.924 397.86,165.924 Z M406.335,165.159 C407.565,165.159 408.48,165.564 409.095,166.404 C409.635,167.139 409.935,168.174 409.98,169.509 L403.68,169.509 C403.725,170.454 403.98,171.204 404.445,171.744 C404.925,172.284 405.555,172.554 406.365,172.554 C407.07,172.554 407.64,172.359 408.075,171.999 C408.435,171.684 408.705,171.234 408.9,170.634 L409.815,170.634 C409.635,171.384 409.29,171.999 408.78,172.479 C408.15,173.049 407.355,173.334 406.365,173.334 C405.27,173.334 404.4,172.959 403.755,172.224 C403.08,171.474 402.75,170.469 402.75,169.239 C402.75,168.099 403.065,167.154 403.71,166.374 C404.37,165.564 405.24,165.159 406.335,165.159 Z M406.35,165.939 C405.585,165.939 404.97,166.194 404.505,166.734 C404.04,167.259 403.77,167.934 403.695,168.774 L409.035,168.774 C408.885,166.884 407.985,165.939 406.35,165.939 Z M414.06,165.159 C413.25,165.159 412.56,165.339 412.02,165.714 C411.45,166.104 411.18,166.599 411.18,167.229 C411.18,167.859 411.465,168.354 412.065,168.714 C412.425,168.939 413.055,169.164 413.955,169.404 C414.84,169.629 415.41,169.809 415.68,169.944 C416.19,170.199 416.445,170.559 416.445,171.024 C416.445,172.044 415.695,172.554 414.195,172.554 C413.475,172.554 412.935,172.419 412.575,172.149 C412.185,171.849 411.945,171.354 411.855,170.679 L410.97,170.679 C411.15,172.449 412.23,173.334 414.225,173.334 C416.325,173.334 417.375,172.539 417.375,170.979 C417.375,170.319 417.06,169.794 416.445,169.419 C416.055,169.179 415.38,168.939 414.435,168.699 C413.64,168.489 413.1,168.309 412.8,168.159 C412.335,167.919 412.11,167.604 412.11,167.214 C412.11,166.824 412.29,166.524 412.65,166.284 C413.01,166.044 413.475,165.939 414.045,165.939 C414.735,165.939 415.26,166.074 415.62,166.359 C415.95,166.614 416.16,167.004 416.265,167.544 L417.15,167.544 C416.925,165.954 415.89,165.159 414.06,165.159 Z M427.095,165.159 C428.175,165.159 428.985,165.444 429.51,166.044 C429.96,166.539 430.2,167.229 430.2,168.129 L430.2,173.124 L429.345,173.124 L429.345,171.639 C429.03,172.089 428.61,172.479 428.1,172.779 C427.47,173.139 426.795,173.334 426.06,173.334 C425.31,173.334 424.695,173.139 424.245,172.764 C423.75,172.374 423.51,171.849 423.51,171.219 C423.51,170.319 423.87,169.659 424.605,169.239 C425.235,168.834 426.15,168.624 427.32,168.624 L429.3,168.594 L429.3,168.129 C429.3,166.659 428.55,165.924 427.05,165.924 C426.42,165.924 425.91,166.044 425.505,166.314 C425.055,166.599 424.77,167.004 424.65,167.544 L423.765,167.484 C423.915,166.704 424.305,166.104 424.935,165.714 C425.49,165.339 426.21,165.159 427.095,165.159 Z M429.3,169.299 L427.365,169.329 C425.4,169.344 424.425,169.974 424.425,171.204 C424.425,171.624 424.59,171.954 424.92,172.209 C425.25,172.464 425.7,172.599 426.24,172.599 C427.02,172.599 427.74,172.329 428.37,171.789 C428.985,171.279 429.3,170.709 429.3,170.109 L429.3,169.299 Z M440.235,165.159 C439.29,165.159 438.54,165.609 437.985,166.539 L437.985,165.369 L437.085,165.369 L437.085,173.124 L437.985,173.124 L437.985,168.354 C437.985,167.679 438.18,167.109 438.585,166.644 C438.975,166.164 439.455,165.939 440.04,165.939 C441.33,165.939 441.975,166.674 441.975,168.174 L441.975,173.124 L442.89,173.124 L442.89,168.189 C442.89,167.529 443.07,167.004 443.46,166.584 C443.835,166.149 444.3,165.939 444.87,165.939 C445.56,165.939 446.085,166.134 446.415,166.524 C446.715,166.884 446.865,167.439 446.865,168.174 L446.865,173.124 L447.765,173.124 L447.765,168.054 C447.765,167.139 447.525,166.434 447.06,165.924 C446.58,165.414 445.92,165.159 445.11,165.159 C444.57,165.159 444.09,165.294 443.7,165.564 C443.28,165.834 442.935,166.224 442.665,166.749 C442.275,165.684 441.465,165.159 440.235,165.159 Z M453.045,165.159 C454.185,165.159 455.1,165.564 455.79,166.389 C456.42,167.154 456.735,168.114 456.735,169.254 C456.735,170.394 456.42,171.339 455.79,172.104 C455.1,172.914 454.185,173.334 453.045,173.334 C451.905,173.334 450.99,172.914 450.3,172.104 C449.67,171.339 449.355,170.394 449.355,169.254 C449.355,168.114 449.67,167.154 450.315,166.389 C450.99,165.564 451.905,165.159 453.045,165.159 Z M453.045,165.939 C452.16,165.939 451.47,166.269 450.96,166.959 C450.495,167.559 450.27,168.324 450.27,169.254 C450.27,170.169 450.495,170.934 450.96,171.534 C451.47,172.209 452.16,172.554 453.045,172.554 C453.93,172.554 454.635,172.209 455.145,171.534 C455.595,170.919 455.835,170.154 455.835,169.254 C455.835,168.324 455.595,167.559 455.145,166.959 C454.635,166.269 453.93,165.939 453.045,165.939 Z M461.58,165.159 C461.01,165.159 460.5,165.339 460.08,165.699 C459.72,165.984 459.435,166.374 459.225,166.854 L459.225,165.369 L458.325,165.369 L458.325,173.124 L459.225,173.124 L459.225,169.029 C459.225,168.249 459.42,167.574 459.84,167.004 C460.26,166.374 460.83,166.074 461.52,166.074 C461.91,166.074 462.3,166.119 462.705,166.239 L462.705,165.324 C462.405,165.204 462.03,165.159 461.58,165.159 Z M466.86,165.159 C468.09,165.159 469.005,165.564 469.62,166.404 C470.16,167.139 470.46,168.174 470.505,169.509 L464.205,169.509 C464.25,170.454 464.505,171.204 464.97,171.744 C465.45,172.284 466.08,172.554 466.89,172.554 C467.595,172.554 468.165,172.359 468.6,171.999 C468.96,171.684 469.23,171.234 469.425,170.634 L470.34,170.634 C470.16,171.384 469.815,171.999 469.305,172.479 C468.675,173.049 467.88,173.334 466.89,173.334 C465.795,173.334 464.925,172.959 464.28,172.224 C463.605,171.474 463.275,170.469 463.275,169.239 C463.275,168.099 463.59,167.154 464.235,166.374 C464.895,165.564 465.765,165.159 466.86,165.159 Z M466.875,165.939 C466.11,165.939 465.495,166.194 465.03,166.734 C464.565,167.259 464.295,167.934 464.22,168.774 L469.56,168.774 C469.41,166.884 468.51,165.939 466.875,165.939 Z M17.685,194.283 C18.78,194.283 19.65,194.688 20.295,195.528 C20.865,196.278 21.15,197.223 21.15,198.393 C21.15,199.533 20.865,200.478 20.31,201.228 C19.68,202.038 18.825,202.458 17.715,202.458 C16.47,202.458 15.57,201.843 15,200.628 L15,205.218 L14.1,205.218 L14.1,194.493 L14.955,194.493 L14.955,196.023 C15.525,194.853 16.425,194.283 17.685,194.283 Z M17.58,195.048 C16.74,195.048 16.08,195.378 15.615,196.038 C15.18,196.623 14.97,197.388 14.97,198.333 L14.97,198.498 C14.97,199.428 15.195,200.193 15.66,200.793 C16.125,201.393 16.755,201.693 17.55,201.693 C18.435,201.693 19.11,201.363 19.59,200.733 C20.01,200.148 20.22,199.368 20.22,198.393 C20.22,197.418 20.01,196.638 19.605,196.053 C19.125,195.378 18.45,195.048 17.58,195.048 Z M25.875,194.283 C27.105,194.283 28.02,194.688 28.635,195.528 C29.175,196.263 29.475,197.298 29.52,198.633 L23.22,198.633 C23.265,199.578 23.52,200.328 23.985,200.868 C24.465,201.408 25.095,201.678 25.905,201.678 C26.61,201.678 27.18,201.483 27.615,201.123 C27.975,200.808 28.245,200.358 28.44,199.758 L29.355,199.758 C29.175,200.508 28.83,201.123 28.32,201.603 C27.69,202.173 26.895,202.458 25.905,202.458 C24.81,202.458 23.94,202.083 23.295,201.348 C22.62,200.598 22.29,199.593 22.29,198.363 C22.29,197.223 22.605,196.278 23.25,195.498 C23.91,194.688 24.78,194.283 25.875,194.283 Z M25.89,195.063 C25.125,195.063 24.51,195.318 24.045,195.858 C23.58,196.383 23.31,197.058 23.235,197.898 L28.575,197.898 C28.425,196.008 27.525,195.063 25.89,195.063 Z M34.215,194.283 C33.645,194.283 33.135,194.463 32.715,194.823 C32.355,195.108 32.07,195.498 31.86,195.978 L31.86,194.493 L30.96,194.493 L30.96,202.248 L31.86,202.248 L31.86,198.153 C31.86,197.373 32.055,196.698 32.475,196.128 C32.895,195.498 33.465,195.198 34.155,195.198 C34.545,195.198 34.935,195.243 35.34,195.363 L35.34,194.448 C35.04,194.328 34.665,194.283 34.215,194.283 Z M39,194.283 C38.19,194.283 37.5,194.463 36.96,194.838 C36.39,195.228 36.12,195.723 36.12,196.353 C36.12,196.983 36.405,197.478 37.005,197.838 C37.365,198.063 37.995,198.288 38.895,198.528 C39.78,198.753 40.35,198.933 40.62,199.068 C41.13,199.323 41.385,199.683 41.385,200.148 C41.385,201.168 40.635,201.678 39.135,201.678 C38.415,201.678 37.875,201.543 37.515,201.273 C37.125,200.973 36.885,200.478 36.795,199.803 L35.91,199.803 C36.09,201.573 37.17,202.458 39.165,202.458 C41.265,202.458 42.315,201.663 42.315,200.103 C42.315,199.443 42,198.918 41.385,198.543 C40.995,198.303 40.32,198.063 39.375,197.823 C38.58,197.613 38.04,197.433 37.74,197.283 C37.275,197.043 37.05,196.728 37.05,196.338 C37.05,195.948 37.23,195.648 37.59,195.408 C37.95,195.168 38.415,195.063 38.985,195.063 C39.675,195.063 40.2,195.198 40.56,195.483 C40.89,195.738 41.1,196.128 41.205,196.668 L42.09,196.668 C41.865,195.078 40.83,194.283 39,194.283 Z M47.145,194.283 C48.285,194.283 49.2,194.688 49.89,195.513 C50.52,196.278 50.835,197.238 50.835,198.378 C50.835,199.518 50.52,200.463 49.89,201.228 C49.2,202.038 48.285,202.458 47.145,202.458 C46.005,202.458 45.09,202.038 44.4,201.228 C43.77,200.463 43.455,199.518 43.455,198.378 C43.455,197.238 43.77,196.278 44.415,195.513 C45.09,194.688 46.005,194.283 47.145,194.283 Z M47.145,195.063 C46.26,195.063 45.57,195.393 45.06,196.083 C44.595,196.683 44.37,197.448 44.37,198.378 C44.37,199.293 44.595,200.058 45.06,200.658 C45.57,201.333 46.26,201.678 47.145,201.678 C48.03,201.678 48.735,201.333 49.245,200.658 C49.695,200.043 49.935,199.278 49.935,198.378 C49.935,197.448 49.695,196.683 49.245,196.083 C48.735,195.393 48.03,195.063 47.145,195.063 Z M55.845,194.283 C55.305,194.283 54.81,194.403 54.375,194.673 C53.94,194.943 53.595,195.303 53.325,195.768 L53.325,194.493 L52.425,194.493 L52.425,202.248 L53.325,202.248 L53.325,197.568 C53.37,196.803 53.61,196.188 54.06,195.738 C54.48,195.288 54.99,195.063 55.62,195.063 C57.09,195.063 57.825,195.888 57.825,197.538 L57.825,202.248 L58.725,202.248 L58.725,197.478 C58.725,195.348 57.765,194.283 55.845,194.283 Z M63.9,194.283 C64.98,194.283 65.79,194.568 66.315,195.168 C66.765,195.663 67.005,196.353 67.005,197.253 L67.005,202.248 L66.15,202.248 L66.15,200.763 C65.835,201.213 65.415,201.603 64.905,201.903 C64.275,202.263 63.6,202.458 62.865,202.458 C62.115,202.458 61.5,202.263 61.05,201.888 C60.555,201.498 60.315,200.973 60.315,200.343 C60.315,199.443 60.675,198.783 61.41,198.363 C62.04,197.958 62.955,197.748 64.125,197.748 L66.105,197.718 L66.105,197.253 C66.105,195.783 65.355,195.048 63.855,195.048 C63.225,195.048 62.715,195.168 62.31,195.438 C61.86,195.723 61.575,196.128 61.455,196.668 L60.57,196.608 C60.72,195.828 61.11,195.228 61.74,194.838 C62.295,194.463 63.015,194.283 63.9,194.283 Z M66.105,198.423 L64.17,198.453 C62.205,198.468 61.23,199.098 61.23,200.328 C61.23,200.748 61.395,201.078 61.725,201.333 C62.055,201.588 62.505,201.723 63.045,201.723 C63.825,201.723 64.545,201.453 65.175,200.913 C65.79,200.403 66.105,199.833 66.105,199.233 L66.105,198.423 Z M69.18,191.328 L69.18,202.248 L70.08,202.248 L70.08,191.328 L69.18,191.328 Z M73.155,191.703 C72.93,191.703 72.75,191.778 72.615,191.928 C72.465,192.048 72.39,192.228 72.39,192.453 C72.39,192.663 72.465,192.843 72.615,192.993 C72.75,193.128 72.93,193.203 73.155,193.203 C73.365,193.203 73.53,193.128 73.68,192.993 C73.83,192.843 73.92,192.663 73.92,192.453 C73.92,192.228 73.845,192.048 73.695,191.928 C73.545,191.778 73.365,191.703 73.155,191.703 Z M72.705,194.493 L72.705,202.248 L73.605,202.248 L73.605,194.493 L72.705,194.493 Z M75.525,194.493 L75.525,195.273 L80.37,195.273 L75.375,201.543 L75.375,202.248 L81.78,202.248 L81.78,201.468 L76.53,201.468 L81.54,195.183 L81.54,194.493 L75.525,194.493 Z M86.235,194.283 C87.465,194.283 88.38,194.688 88.995,195.528 C89.535,196.263 89.835,197.298 89.88,198.633 L83.58,198.633 C83.625,199.578 83.88,200.328 84.345,200.868 C84.825,201.408 85.455,201.678 86.265,201.678 C86.97,201.678 87.54,201.483 87.975,201.123 C88.335,200.808 88.605,200.358 88.8,199.758 L89.715,199.758 C89.535,200.508 89.19,201.123 88.68,201.603 C88.05,202.173 87.255,202.458 86.265,202.458 C85.17,202.458 84.3,202.083 83.655,201.348 C82.98,200.598 82.65,199.593 82.65,198.363 C82.65,197.223 82.965,196.278 83.61,195.498 C84.27,194.688 85.14,194.283 86.235,194.283 Z M86.25,195.063 C85.485,195.063 84.87,195.318 84.405,195.858 C83.94,196.383 83.67,197.058 83.595,197.898 L88.935,197.898 C88.785,196.008 87.885,195.063 86.25,195.063 Z M97.17,191.328 L98.07,191.328 L98.07,202.248 L97.215,202.248 L97.215,200.718 C96.675,201.873 95.775,202.458 94.5,202.458 C93.375,202.458 92.505,202.038 91.875,201.228 C91.305,200.478 91.02,199.518 91.02,198.363 C91.02,197.223 91.305,196.278 91.875,195.528 C92.505,194.688 93.36,194.283 94.455,194.283 C95.685,194.283 96.6,194.898 97.17,196.128 L97.17,191.328 Z M94.62,195.048 C93.735,195.048 93.06,195.378 92.58,196.038 C92.145,196.608 91.935,197.388 91.935,198.363 C91.935,199.338 92.145,200.118 92.565,200.703 C93.03,201.363 93.705,201.693 94.59,201.693 C95.43,201.693 96.09,201.363 96.555,200.733 C96.975,200.148 97.2,199.398 97.2,198.483 L97.2,198.303 C97.2,197.343 96.96,196.578 96.51,195.978 C96.03,195.348 95.4,195.048 94.62,195.048 Z M107.595,194.283 C106.785,194.283 106.095,194.463 105.555,194.838 C104.985,195.228 104.715,195.723 104.715,196.353 C104.715,196.983 105,197.478 105.6,197.838 C105.96,198.063 106.59,198.288 107.49,198.528 C108.375,198.753 108.945,198.933 109.215,199.068 C109.725,199.323 109.98,199.683 109.98,200.148 C109.98,201.168 109.23,201.678 107.73,201.678 C107.01,201.678 106.47,201.543 106.11,201.273 C105.72,200.973 105.48,200.478 105.39,199.803 L104.505,199.803 C104.685,201.573 105.765,202.458 107.76,202.458 C109.86,202.458 110.91,201.663 110.91,200.103 C110.91,199.443 110.595,198.918 109.98,198.543 C109.59,198.303 108.915,198.063 107.97,197.823 C107.175,197.613 106.635,197.433 106.335,197.283 C105.87,197.043 105.645,196.728 105.645,196.338 C105.645,195.948 105.825,195.648 106.185,195.408 C106.545,195.168 107.01,195.063 107.58,195.063 C108.27,195.063 108.795,195.198 109.155,195.483 C109.485,195.738 109.695,196.128 109.8,196.668 L110.685,196.668 C110.46,195.078 109.425,194.283 107.595,194.283 Z M112.35,191.328 L112.35,202.248 L113.25,202.248 L113.25,199.503 L114.735,198.153 L117.945,202.248 L119.13,202.248 L115.38,197.568 L118.785,194.493 L117.555,194.493 L113.25,198.408 L113.25,191.328 L112.35,191.328 Z M120.975,191.703 C120.75,191.703 120.57,191.778 120.435,191.928 C120.285,192.048 120.21,192.228 120.21,192.453 C120.21,192.663 120.285,192.843 120.435,192.993 C120.57,193.128 120.75,193.203 120.975,193.203 C121.185,193.203 121.35,193.128 121.5,192.993 C121.65,192.843 121.74,192.663 121.74,192.453 C121.74,192.228 121.665,192.048 121.515,191.928 C121.365,191.778 121.185,191.703 120.975,191.703 Z M120.525,194.493 L120.525,202.248 L121.425,202.248 L121.425,194.493 L120.525,194.493 Z M127.185,194.283 C126.645,194.283 126.15,194.403 125.715,194.673 C125.28,194.943 124.935,195.303 124.665,195.768 L124.665,194.493 L123.765,194.493 L123.765,202.248 L124.665,202.248 L124.665,197.568 C124.71,196.803 124.95,196.188 125.4,195.738 C125.82,195.288 126.33,195.063 126.96,195.063 C128.43,195.063 129.165,195.888 129.165,197.538 L129.165,202.248 L130.065,202.248 L130.065,197.478 C130.065,195.348 129.105,194.283 127.185,194.283 Z M140.22,194.283 C139.095,194.283 138.21,194.688 137.565,195.513 C136.95,196.278 136.65,197.253 136.65,198.423 C136.65,199.608 136.935,200.568 137.535,201.288 C138.165,202.068 139.065,202.458 140.205,202.458 C141.135,202.458 141.9,202.203 142.47,201.708 C143.055,201.198 143.43,200.448 143.58,199.473 L142.695,199.473 C142.47,200.943 141.645,201.678 140.205,201.678 C139.35,201.678 138.69,201.378 138.24,200.793 C137.79,200.208 137.565,199.413 137.565,198.423 C137.565,197.418 137.79,196.608 138.27,196.008 C138.75,195.378 139.41,195.063 140.22,195.063 C140.895,195.063 141.45,195.228 141.87,195.558 C142.29,195.888 142.545,196.368 142.65,197.028 L143.55,197.028 C143.43,196.098 143.07,195.408 142.485,194.958 C141.9,194.508 141.15,194.283 140.22,194.283 Z M148.305,194.283 C149.385,194.283 150.195,194.568 150.72,195.168 C151.17,195.663 151.41,196.353 151.41,197.253 L151.41,202.248 L150.555,202.248 L150.555,200.763 C150.24,201.213 149.82,201.603 149.31,201.903 C148.68,202.263 148.005,202.458 147.27,202.458 C146.52,202.458 145.905,202.263 145.455,201.888 C144.96,201.498 144.72,200.973 144.72,200.343 C144.72,199.443 145.08,198.783 145.815,198.363 C146.445,197.958 147.36,197.748 148.53,197.748 L150.51,197.718 L150.51,197.253 C150.51,195.783 149.76,195.048 148.26,195.048 C147.63,195.048 147.12,195.168 146.715,195.438 C146.265,195.723 145.98,196.128 145.86,196.668 L144.975,196.608 C145.125,195.828 145.515,195.228 146.145,194.838 C146.7,194.463 147.42,194.283 148.305,194.283 Z M150.51,198.423 L148.575,198.453 C146.61,198.468 145.635,199.098 145.635,200.328 C145.635,200.748 145.8,201.078 146.13,201.333 C146.46,201.588 146.91,201.723 147.45,201.723 C148.23,201.723 148.95,201.453 149.58,200.913 C150.195,200.403 150.51,199.833 150.51,199.233 L150.51,198.423 Z M156.555,194.283 C155.985,194.283 155.475,194.463 155.055,194.823 C154.695,195.108 154.41,195.498 154.2,195.978 L154.2,194.493 L153.3,194.493 L153.3,202.248 L154.2,202.248 L154.2,198.153 C154.2,197.373 154.395,196.698 154.815,196.128 C155.235,195.498 155.805,195.198 156.495,195.198 C156.885,195.198 157.275,195.243 157.68,195.363 L157.68,194.448 C157.38,194.328 157.005,194.283 156.555,194.283 Z M161.835,194.283 C163.065,194.283 163.98,194.688 164.595,195.528 C165.135,196.263 165.435,197.298 165.48,198.633 L159.18,198.633 C159.225,199.578 159.48,200.328 159.945,200.868 C160.425,201.408 161.055,201.678 161.865,201.678 C162.57,201.678 163.14,201.483 163.575,201.123 C163.935,200.808 164.205,200.358 164.4,199.758 L165.315,199.758 C165.135,200.508 164.79,201.123 164.28,201.603 C163.65,202.173 162.855,202.458 161.865,202.458 C160.77,202.458 159.9,202.083 159.255,201.348 C158.58,200.598 158.25,199.593 158.25,198.363 C158.25,197.223 158.565,196.278 159.21,195.498 C159.87,194.688 160.74,194.283 161.835,194.283 Z M161.85,195.063 C161.085,195.063 160.47,195.318 160.005,195.858 C159.54,196.383 159.27,197.058 159.195,197.898 L164.535,197.898 C164.385,196.008 163.485,195.063 161.85,195.063 Z M175.065,194.283 C174.12,194.283 173.37,194.733 172.815,195.663 L172.815,194.493 L171.915,194.493 L171.915,202.248 L172.815,202.248 L172.815,197.478 C172.815,196.803 173.01,196.233 173.415,195.768 C173.805,195.288 174.285,195.063 174.87,195.063 C176.16,195.063 176.805,195.798 176.805,197.298 L176.805,202.248 L177.72,202.248 L177.72,197.313 C177.72,196.653 177.9,196.128 178.29,195.708 C178.665,195.273 179.13,195.063 179.7,195.063 C180.39,195.063 180.915,195.258 181.245,195.648 C181.545,196.008 181.695,196.563 181.695,197.298 L181.695,202.248 L182.595,202.248 L182.595,197.178 C182.595,196.263 182.355,195.558 181.89,195.048 C181.41,194.538 180.75,194.283 179.94,194.283 C179.4,194.283 178.92,194.418 178.53,194.688 C178.11,194.958 177.765,195.348 177.495,195.873 C177.105,194.808 176.295,194.283 175.065,194.283 Z M187.62,194.283 C188.85,194.283 189.765,194.688 190.38,195.528 C190.92,196.263 191.22,197.298 191.265,198.633 L184.965,198.633 C185.01,199.578 185.265,200.328 185.73,200.868 C186.21,201.408 186.84,201.678 187.65,201.678 C188.355,201.678 188.925,201.483 189.36,201.123 C189.72,200.808 189.99,200.358 190.185,199.758 L191.1,199.758 C190.92,200.508 190.575,201.123 190.065,201.603 C189.435,202.173 188.64,202.458 187.65,202.458 C186.555,202.458 185.685,202.083 185.04,201.348 C184.365,200.598 184.035,199.593 184.035,198.363 C184.035,197.223 184.35,196.278 184.995,195.498 C185.655,194.688 186.525,194.283 187.62,194.283 Z M187.635,195.063 C186.87,195.063 186.255,195.318 185.79,195.858 C185.325,196.383 185.055,197.058 184.98,197.898 L190.32,197.898 C190.17,196.008 189.27,195.063 187.635,195.063 Z M194.58,191.988 L193.68,192.363 L193.68,194.493 L192.03,194.493 L192.03,195.273 L193.68,195.273 L193.68,200.523 C193.68,201.093 193.785,201.513 194.025,201.783 C194.28,202.083 194.715,202.248 195.315,202.248 L196.41,202.248 L196.41,201.468 L195.435,201.468 C195.105,201.468 194.88,201.393 194.76,201.258 C194.64,201.108 194.58,200.853 194.58,200.523 L194.58,195.273 L196.605,195.273 L196.605,194.493 L194.58,194.493 L194.58,191.988 Z M197.97,191.328 L197.97,202.248 L198.885,202.248 L198.885,197.763 C198.885,196.998 199.095,196.353 199.545,195.843 C199.995,195.318 200.535,195.063 201.18,195.063 C201.87,195.063 202.395,195.258 202.785,195.663 C203.16,196.083 203.355,196.668 203.355,197.418 L203.355,202.248 L204.255,202.248 L204.255,197.298 C204.255,196.338 204,195.588 203.505,195.063 C203.01,194.538 202.32,194.283 201.435,194.283 C200.895,194.283 200.4,194.418 199.965,194.688 C199.515,194.973 199.155,195.378 198.885,195.903 L198.885,191.328 L197.97,191.328 Z M209.535,194.283 C210.675,194.283 211.59,194.688 212.28,195.513 C212.91,196.278 213.225,197.238 213.225,198.378 C213.225,199.518 212.91,200.463 212.28,201.228 C211.59,202.038 210.675,202.458 209.535,202.458 C208.395,202.458 207.48,202.038 206.79,201.228 C206.16,200.463 205.845,199.518 205.845,198.378 C205.845,197.238 206.16,196.278 206.805,195.513 C207.48,194.688 208.395,194.283 209.535,194.283 Z M209.535,195.063 C208.65,195.063 207.96,195.393 207.45,196.083 C206.985,196.683 206.76,197.448 206.76,198.378 C206.76,199.293 206.985,200.058 207.45,200.658 C207.96,201.333 208.65,201.678 209.535,201.678 C210.42,201.678 211.125,201.333 211.635,200.658 C212.085,200.043 212.325,199.278 212.325,198.378 C212.325,197.448 212.085,196.683 211.635,196.083 C211.125,195.393 210.42,195.063 209.535,195.063 Z M220.665,191.328 L221.565,191.328 L221.565,202.248 L220.71,202.248 L220.71,200.718 C220.17,201.873 219.27,202.458 217.995,202.458 C216.87,202.458 216,202.038 215.37,201.228 C214.8,200.478 214.515,199.518 214.515,198.363 C214.515,197.223 214.8,196.278 215.37,195.528 C216,194.688 216.855,194.283 217.95,194.283 C219.18,194.283 220.095,194.898 220.665,196.128 L220.665,191.328 Z M218.115,195.048 C217.23,195.048 216.555,195.378 216.075,196.038 C215.64,196.608 215.43,197.388 215.43,198.363 C215.43,199.338 215.64,200.118 216.06,200.703 C216.525,201.363 217.2,201.693 218.085,201.693 C218.925,201.693 219.585,201.363 220.05,200.733 C220.47,200.148 220.695,199.398 220.695,198.483 L220.695,198.303 C220.695,197.343 220.455,196.578 220.005,195.978 C219.525,195.348 218.895,195.048 218.115,195.048 Z M228.45,191.328 L229.35,191.328 L229.35,196.128 C229.92,194.898 230.82,194.283 232.065,194.283 C233.145,194.283 234.015,194.688 234.645,195.528 C235.215,196.278 235.5,197.223 235.5,198.363 C235.5,199.518 235.215,200.478 234.645,201.228 C234.015,202.038 233.145,202.458 232.035,202.458 C230.745,202.458 229.83,201.873 229.305,200.718 L229.305,202.248 L228.45,202.248 L228.45,191.328 Z M231.9,195.048 C231.105,195.048 230.475,195.348 230.01,195.978 C229.545,196.578 229.32,197.343 229.32,198.303 L229.32,198.483 C229.32,199.398 229.53,200.148 229.965,200.733 C230.415,201.363 231.075,201.693 231.93,201.693 C232.8,201.693 233.475,201.363 233.955,200.703 C234.375,200.118 234.585,199.338 234.585,198.363 C234.585,197.388 234.36,196.608 233.94,196.038 C233.46,195.378 232.785,195.048 231.9,195.048 Z M240.375,194.283 C241.455,194.283 242.265,194.568 242.79,195.168 C243.24,195.663 243.48,196.353 243.48,197.253 L243.48,202.248 L242.625,202.248 L242.625,200.763 C242.31,201.213 241.89,201.603 241.38,201.903 C240.75,202.263 240.075,202.458 239.34,202.458 C238.59,202.458 237.975,202.263 237.525,201.888 C237.03,201.498 236.79,200.973 236.79,200.343 C236.79,199.443 237.15,198.783 237.885,198.363 C238.515,197.958 239.43,197.748 240.6,197.748 L242.58,197.718 L242.58,197.253 C242.58,195.783 241.83,195.048 240.33,195.048 C239.7,195.048 239.19,195.168 238.785,195.438 C238.335,195.723 238.05,196.128 237.93,196.668 L237.045,196.608 C237.195,195.828 237.585,195.228 238.215,194.838 C238.77,194.463 239.49,194.283 240.375,194.283 Z M242.58,198.423 L240.645,198.453 C238.68,198.468 237.705,199.098 237.705,200.328 C237.705,200.748 237.87,201.078 238.2,201.333 C238.53,201.588 238.98,201.723 239.52,201.723 C240.3,201.723 241.02,201.453 241.65,200.913 C242.265,200.403 242.58,199.833 242.58,199.233 L242.58,198.423 Z M248.01,194.283 C247.2,194.283 246.51,194.463 245.97,194.838 C245.4,195.228 245.13,195.723 245.13,196.353 C245.13,196.983 245.415,197.478 246.015,197.838 C246.375,198.063 247.005,198.288 247.905,198.528 C248.79,198.753 249.36,198.933 249.63,199.068 C250.14,199.323 250.395,199.683 250.395,200.148 C250.395,201.168 249.645,201.678 248.145,201.678 C247.425,201.678 246.885,201.543 246.525,201.273 C246.135,200.973 245.895,200.478 245.805,199.803 L244.92,199.803 C245.1,201.573 246.18,202.458 248.175,202.458 C250.275,202.458 251.325,201.663 251.325,200.103 C251.325,199.443 251.01,198.918 250.395,198.543 C250.005,198.303 249.33,198.063 248.385,197.823 C247.59,197.613 247.05,197.433 246.75,197.283 C246.285,197.043 246.06,196.728 246.06,196.338 C246.06,195.948 246.24,195.648 246.6,195.408 C246.96,195.168 247.425,195.063 247.995,195.063 C248.685,195.063 249.21,195.198 249.57,195.483 C249.9,195.738 250.11,196.128 250.215,196.668 L251.1,196.668 C250.875,195.078 249.84,194.283 248.01,194.283 Z M255.9,194.283 C257.13,194.283 258.045,194.688 258.66,195.528 C259.2,196.263 259.5,197.298 259.545,198.633 L253.245,198.633 C253.29,199.578 253.545,200.328 254.01,200.868 C254.49,201.408 255.12,201.678 255.93,201.678 C256.635,201.678 257.205,201.483 257.64,201.123 C258,200.808 258.27,200.358 258.465,199.758 L259.38,199.758 C259.2,200.508 258.855,201.123 258.345,201.603 C257.715,202.173 256.92,202.458 255.93,202.458 C254.835,202.458 253.965,202.083 253.32,201.348 C252.645,200.598 252.315,199.593 252.315,198.363 C252.315,197.223 252.63,196.278 253.275,195.498 C253.935,194.688 254.805,194.283 255.9,194.283 Z M255.915,195.063 C255.15,195.063 254.535,195.318 254.07,195.858 C253.605,196.383 253.335,197.058 253.26,197.898 L258.6,197.898 C258.45,196.008 257.55,195.063 255.915,195.063 Z M266.835,191.328 L267.735,191.328 L267.735,202.248 L266.88,202.248 L266.88,200.718 C266.34,201.873 265.44,202.458 264.165,202.458 C263.04,202.458 262.17,202.038 261.54,201.228 C260.97,200.478 260.685,199.518 260.685,198.363 C260.685,197.223 260.97,196.278 261.54,195.528 C262.17,194.688 263.025,194.283 264.12,194.283 C265.35,194.283 266.265,194.898 266.835,196.128 L266.835,191.328 Z M264.285,195.048 C263.4,195.048 262.725,195.378 262.245,196.038 C261.81,196.608 261.6,197.388 261.6,198.363 C261.6,199.338 261.81,200.118 262.23,200.703 C262.695,201.363 263.37,201.693 264.255,201.693 C265.095,201.693 265.755,201.363 266.22,200.733 C266.64,200.148 266.865,199.398 266.865,198.483 L266.865,198.303 C266.865,197.343 266.625,196.578 266.175,195.978 C265.695,195.348 265.065,195.048 264.285,195.048 Z M278.01,194.283 C279.15,194.283 280.065,194.688 280.755,195.513 C281.385,196.278 281.7,197.238 281.7,198.378 C281.7,199.518 281.385,200.463 280.755,201.228 C280.065,202.038 279.15,202.458 278.01,202.458 C276.87,202.458 275.955,202.038 275.265,201.228 C274.635,200.463 274.32,199.518 274.32,198.378 C274.32,197.238 274.635,196.278 275.28,195.513 C275.955,194.688 276.87,194.283 278.01,194.283 Z M278.01,195.063 C277.125,195.063 276.435,195.393 275.925,196.083 C275.46,196.683 275.235,197.448 275.235,198.378 C275.235,199.293 275.46,200.058 275.925,200.658 C276.435,201.333 277.125,201.678 278.01,201.678 C278.895,201.678 279.6,201.333 280.11,200.658 C280.56,200.043 280.8,199.278 280.8,198.378 C280.8,197.448 280.56,196.683 280.11,196.083 C279.6,195.393 278.895,195.063 278.01,195.063 Z M286.71,194.283 C286.17,194.283 285.675,194.403 285.24,194.673 C284.805,194.943 284.46,195.303 284.19,195.768 L284.19,194.493 L283.29,194.493 L283.29,202.248 L284.19,202.248 L284.19,197.568 C284.235,196.803 284.475,196.188 284.925,195.738 C285.345,195.288 285.855,195.063 286.485,195.063 C287.955,195.063 288.69,195.888 288.69,197.538 L288.69,202.248 L289.59,202.248 L289.59,197.478 C289.59,195.348 288.63,194.283 286.71,194.283 Z M298.35,191.988 L297.45,192.363 L297.45,194.493 L295.8,194.493 L295.8,195.273 L297.45,195.273 L297.45,200.523 C297.45,201.093 297.555,201.513 297.795,201.783 C298.05,202.083 298.485,202.248 299.085,202.248 L300.18,202.248 L300.18,201.468 L299.205,201.468 C298.875,201.468 298.65,201.393 298.53,201.258 C298.41,201.108 298.35,200.853 298.35,200.523 L298.35,195.273 L300.375,195.273 L300.375,194.493 L298.35,194.493 L298.35,191.988 Z M301.74,191.328 L301.74,202.248 L302.655,202.248 L302.655,197.763 C302.655,196.998 302.865,196.353 303.315,195.843 C303.765,195.318 304.305,195.063 304.95,195.063 C305.64,195.063 306.165,195.258 306.555,195.663 C306.93,196.083 307.125,196.668 307.125,197.418 L307.125,202.248 L308.025,202.248 L308.025,197.298 C308.025,196.338 307.77,195.588 307.275,195.063 C306.78,194.538 306.09,194.283 305.205,194.283 C304.665,194.283 304.17,194.418 303.735,194.688 C303.285,194.973 302.925,195.378 302.655,195.903 L302.655,191.328 L301.74,191.328 Z M313.05,194.283 C314.28,194.283 315.195,194.688 315.81,195.528 C316.35,196.263 316.65,197.298 316.695,198.633 L310.395,198.633 C310.44,199.578 310.695,200.328 311.16,200.868 C311.64,201.408 312.27,201.678 313.08,201.678 C313.785,201.678 314.355,201.483 314.79,201.123 C315.15,200.808 315.42,200.358 315.615,199.758 L316.53,199.758 C316.35,200.508 316.005,201.123 315.495,201.603 C314.865,202.173 314.07,202.458 313.08,202.458 C311.985,202.458 311.115,202.083 310.47,201.348 C309.795,200.598 309.465,199.593 309.465,198.363 C309.465,197.223 309.78,196.278 310.425,195.498 C311.085,194.688 311.955,194.283 313.05,194.283 Z M313.065,195.063 C312.3,195.063 311.685,195.318 311.22,195.858 C310.755,196.383 310.485,197.058 310.41,197.898 L315.75,197.898 C315.6,196.008 314.7,195.063 313.065,195.063 Z M326.4,194.283 C325.275,194.283 324.39,194.688 323.745,195.513 C323.13,196.278 322.83,197.253 322.83,198.423 C322.83,199.608 323.115,200.568 323.715,201.288 C324.345,202.068 325.245,202.458 326.385,202.458 C327.315,202.458 328.08,202.203 328.65,201.708 C329.235,201.198 329.61,200.448 329.76,199.473 L328.875,199.473 C328.65,200.943 327.825,201.678 326.385,201.678 C325.53,201.678 324.87,201.378 324.42,200.793 C323.97,200.208 323.745,199.413 323.745,198.423 C323.745,197.418 323.97,196.608 324.45,196.008 C324.93,195.378 325.59,195.063 326.4,195.063 C327.075,195.063 327.63,195.228 328.05,195.558 C328.47,195.888 328.725,196.368 328.83,197.028 L329.73,197.028 C329.61,196.098 329.25,195.408 328.665,194.958 C328.08,194.508 327.33,194.283 326.4,194.283 Z M331.2,194.493 L331.2,199.278 C331.2,201.393 332.145,202.458 334.035,202.458 C335.145,202.458 336.015,201.948 336.615,200.943 L336.615,202.248 L337.515,202.248 L337.515,194.493 L336.615,194.493 L336.615,199.203 C336.555,199.938 336.3,200.538 335.85,200.988 C335.4,201.438 334.875,201.678 334.275,201.678 C333.525,201.678 332.97,201.468 332.61,201.048 C332.265,200.643 332.1,200.043 332.1,199.233 L332.1,194.493 L331.2,194.493 Z M342.66,194.283 C342.09,194.283 341.58,194.463 341.16,194.823 C340.8,195.108 340.515,195.498 340.305,195.978 L340.305,194.493 L339.405,194.493 L339.405,202.248 L340.305,202.248 L340.305,198.153 C340.305,197.373 340.5,196.698 340.92,196.128 C341.34,195.498 341.91,195.198 342.6,195.198 C342.99,195.198 343.38,195.243 343.785,195.363 L343.785,194.448 C343.485,194.328 343.11,194.283 342.66,194.283 Z M348.06,194.283 C347.49,194.283 346.98,194.463 346.56,194.823 C346.2,195.108 345.915,195.498 345.705,195.978 L345.705,194.493 L344.805,194.493 L344.805,202.248 L345.705,202.248 L345.705,198.153 C345.705,197.373 345.9,196.698 346.32,196.128 C346.74,195.498 347.31,195.198 348,195.198 C348.39,195.198 348.78,195.243 349.185,195.363 L349.185,194.448 C348.885,194.328 348.51,194.283 348.06,194.283 Z M353.34,194.283 C354.57,194.283 355.485,194.688 356.1,195.528 C356.64,196.263 356.94,197.298 356.985,198.633 L350.685,198.633 C350.73,199.578 350.985,200.328 351.45,200.868 C351.93,201.408 352.56,201.678 353.37,201.678 C354.075,201.678 354.645,201.483 355.08,201.123 C355.44,200.808 355.71,200.358 355.905,199.758 L356.82,199.758 C356.64,200.508 356.295,201.123 355.785,201.603 C355.155,202.173 354.36,202.458 353.37,202.458 C352.275,202.458 351.405,202.083 350.76,201.348 C350.085,200.598 349.755,199.593 349.755,198.363 C349.755,197.223 350.07,196.278 350.715,195.498 C351.375,194.688 352.245,194.283 353.34,194.283 Z M353.355,195.063 C352.59,195.063 351.975,195.318 351.51,195.858 C351.045,196.383 350.775,197.058 350.7,197.898 L356.04,197.898 C355.89,196.008 354.99,195.063 353.355,195.063 Z M361.845,194.283 C361.305,194.283 360.81,194.403 360.375,194.673 C359.94,194.943 359.595,195.303 359.325,195.768 L359.325,194.493 L358.425,194.493 L358.425,202.248 L359.325,202.248 L359.325,197.568 C359.37,196.803 359.61,196.188 360.06,195.738 C360.48,195.288 360.99,195.063 361.62,195.063 C363.09,195.063 363.825,195.888 363.825,197.538 L363.825,202.248 L364.725,202.248 L364.725,197.478 C364.725,195.348 363.765,194.283 361.845,194.283 Z M368.49,191.988 L367.59,192.363 L367.59,194.493 L365.94,194.493 L365.94,195.273 L367.59,195.273 L367.59,200.523 C367.59,201.093 367.695,201.513 367.935,201.783 C368.19,202.083 368.625,202.248 369.225,202.248 L370.32,202.248 L370.32,201.468 L369.345,201.468 C369.015,201.468 368.79,201.393 368.67,201.258 C368.55,201.108 368.49,200.853 368.49,200.523 L368.49,195.273 L370.515,195.273 L370.515,194.493 L368.49,194.493 L368.49,191.988 Z M379.515,194.283 C378.705,194.283 378.015,194.463 377.475,194.838 C376.905,195.228 376.635,195.723 376.635,196.353 C376.635,196.983 376.92,197.478 377.52,197.838 C377.88,198.063 378.51,198.288 379.41,198.528 C380.295,198.753 380.865,198.933 381.135,199.068 C381.645,199.323 381.9,199.683 381.9,200.148 C381.9,201.168 381.15,201.678 379.65,201.678 C378.93,201.678 378.39,201.543 378.03,201.273 C377.64,200.973 377.4,200.478 377.31,199.803 L376.425,199.803 C376.605,201.573 377.685,202.458 379.68,202.458 C381.78,202.458 382.83,201.663 382.83,200.103 C382.83,199.443 382.515,198.918 381.9,198.543 C381.51,198.303 380.835,198.063 379.89,197.823 C379.095,197.613 378.555,197.433 378.255,197.283 C377.79,197.043 377.565,196.728 377.565,196.338 C377.565,195.948 377.745,195.648 378.105,195.408 C378.465,195.168 378.93,195.063 379.5,195.063 C380.19,195.063 380.715,195.198 381.075,195.483 C381.405,195.738 381.615,196.128 381.72,196.668 L382.605,196.668 C382.38,195.078 381.345,194.283 379.515,194.283 Z M384.27,191.328 L384.27,202.248 L385.17,202.248 L385.17,199.503 L386.655,198.153 L389.865,202.248 L391.05,202.248 L387.3,197.568 L390.705,194.493 L389.475,194.493 L385.17,198.408 L385.17,191.328 L384.27,191.328 Z M392.895,191.703 C392.67,191.703 392.49,191.778 392.355,191.928 C392.205,192.048 392.13,192.228 392.13,192.453 C392.13,192.663 392.205,192.843 392.355,192.993 C392.49,193.128 392.67,193.203 392.895,193.203 C393.105,193.203 393.27,193.128 393.42,192.993 C393.57,192.843 393.66,192.663 393.66,192.453 C393.66,192.228 393.585,192.048 393.435,191.928 C393.285,191.778 393.105,191.703 392.895,191.703 Z M392.445,194.493 L392.445,202.248 L393.345,202.248 L393.345,194.493 L392.445,194.493 Z M399.105,194.283 C398.565,194.283 398.07,194.403 397.635,194.673 C397.2,194.943 396.855,195.303 396.585,195.768 L396.585,194.493 L395.685,194.493 L395.685,202.248 L396.585,202.248 L396.585,197.568 C396.63,196.803 396.87,196.188 397.32,195.738 C397.74,195.288 398.25,195.063 398.88,195.063 C400.35,195.063 401.085,195.888 401.085,197.538 L401.085,202.248 L401.985,202.248 L401.985,197.478 C401.985,195.348 401.025,194.283 399.105,194.283 Z M412.14,194.283 C411.015,194.283 410.13,194.688 409.485,195.513 C408.87,196.278 408.57,197.253 408.57,198.423 C408.57,199.608 408.855,200.568 409.455,201.288 C410.085,202.068 410.985,202.458 412.125,202.458 C413.055,202.458 413.82,202.203 414.39,201.708 C414.975,201.198 415.35,200.448 415.5,199.473 L414.615,199.473 C414.39,200.943 413.565,201.678 412.125,201.678 C411.27,201.678 410.61,201.378 410.16,200.793 C409.71,200.208 409.485,199.413 409.485,198.423 C409.485,197.418 409.71,196.608 410.19,196.008 C410.67,195.378 411.33,195.063 412.14,195.063 C412.815,195.063 413.37,195.228 413.79,195.558 C414.21,195.888 414.465,196.368 414.57,197.028 L415.47,197.028 C415.35,196.098 414.99,195.408 414.405,194.958 C413.82,194.508 413.07,194.283 412.14,194.283 Z M420.33,194.283 C421.47,194.283 422.385,194.688 423.075,195.513 C423.705,196.278 424.02,197.238 424.02,198.378 C424.02,199.518 423.705,200.463 423.075,201.228 C422.385,202.038 421.47,202.458 420.33,202.458 C419.19,202.458 418.275,202.038 417.585,201.228 C416.955,200.463 416.64,199.518 416.64,198.378 C416.64,197.238 416.955,196.278 417.6,195.513 C418.275,194.688 419.19,194.283 420.33,194.283 Z M420.33,195.063 C419.445,195.063 418.755,195.393 418.245,196.083 C417.78,196.683 417.555,197.448 417.555,198.378 C417.555,199.293 417.78,200.058 418.245,200.658 C418.755,201.333 419.445,201.678 420.33,201.678 C421.215,201.678 421.92,201.333 422.43,200.658 C422.88,200.043 423.12,199.278 423.12,198.378 C423.12,197.448 422.88,196.683 422.43,196.083 C421.92,195.393 421.215,195.063 420.33,195.063 Z M429.03,194.283 C428.49,194.283 427.995,194.403 427.56,194.673 C427.125,194.943 426.78,195.303 426.51,195.768 L426.51,194.493 L425.61,194.493 L425.61,202.248 L426.51,202.248 L426.51,197.568 C426.555,196.803 426.795,196.188 427.245,195.738 C427.665,195.288 428.175,195.063 428.805,195.063 C430.275,195.063 431.01,195.888 431.01,197.538 L431.01,202.248 L431.91,202.248 L431.91,197.478 C431.91,195.348 430.95,194.283 429.03,194.283 Z M439.65,191.328 L440.55,191.328 L440.55,202.248 L439.695,202.248 L439.695,200.718 C439.155,201.873 438.255,202.458 436.98,202.458 C435.855,202.458 434.985,202.038 434.355,201.228 C433.785,200.478 433.5,199.518 433.5,198.363 C433.5,197.223 433.785,196.278 434.355,195.528 C434.985,194.688 435.84,194.283 436.935,194.283 C438.165,194.283 439.08,194.898 439.65,196.128 L439.65,191.328 Z M437.1,195.048 C436.215,195.048 435.54,195.378 435.06,196.038 C434.625,196.608 434.415,197.388 434.415,198.363 C434.415,199.338 434.625,200.118 435.045,200.703 C435.51,201.363 436.185,201.693 437.07,201.693 C437.91,201.693 438.57,201.363 439.035,200.733 C439.455,200.148 439.68,199.398 439.68,198.483 L439.68,198.303 C439.68,197.343 439.44,196.578 438.99,195.978 C438.51,195.348 437.88,195.048 437.1,195.048 Z M443.34,191.703 C443.115,191.703 442.935,191.778 442.8,191.928 C442.65,192.048 442.575,192.228 442.575,192.453 C442.575,192.663 442.65,192.843 442.8,192.993 C442.935,193.128 443.115,193.203 443.34,193.203 C443.55,193.203 443.715,193.128 443.865,192.993 C444.015,192.843 444.105,192.663 444.105,192.453 C444.105,192.228 444.03,192.048 443.88,191.928 C443.73,191.778 443.55,191.703 443.34,191.703 Z M442.89,194.493 L442.89,202.248 L443.79,202.248 L443.79,194.493 L442.89,194.493 Z M448.005,191.988 L447.105,192.363 L447.105,194.493 L445.455,194.493 L445.455,195.273 L447.105,195.273 L447.105,200.523 C447.105,201.093 447.21,201.513 447.45,201.783 C447.705,202.083 448.14,202.248 448.74,202.248 L449.835,202.248 L449.835,201.468 L448.86,201.468 C448.53,201.468 448.305,201.393 448.185,201.258 C448.065,201.108 448.005,200.853 448.005,200.523 L448.005,195.273 L450.03,195.273 L450.03,194.493 L448.005,194.493 L448.005,191.988 Z M452.295,191.703 C452.07,191.703 451.89,191.778 451.755,191.928 C451.605,192.048 451.53,192.228 451.53,192.453 C451.53,192.663 451.605,192.843 451.755,192.993 C451.89,193.128 452.07,193.203 452.295,193.203 C452.505,193.203 452.67,193.128 452.82,192.993 C452.97,192.843 453.06,192.663 453.06,192.453 C453.06,192.228 452.985,192.048 452.835,191.928 C452.685,191.778 452.505,191.703 452.295,191.703 Z M451.845,194.493 L451.845,202.248 L452.745,202.248 L452.745,194.493 L451.845,194.493 Z M458.475,194.283 C459.615,194.283 460.53,194.688 461.22,195.513 C461.85,196.278 462.165,197.238 462.165,198.378 C462.165,199.518 461.85,200.463 461.22,201.228 C460.53,202.038 459.615,202.458 458.475,202.458 C457.335,202.458 456.42,202.038 455.73,201.228 C455.1,200.463 454.785,199.518 454.785,198.378 C454.785,197.238 455.1,196.278 455.745,195.513 C456.42,194.688 457.335,194.283 458.475,194.283 Z M458.475,195.063 C457.59,195.063 456.9,195.393 456.39,196.083 C455.925,196.683 455.7,197.448 455.7,198.378 C455.7,199.293 455.925,200.058 456.39,200.658 C456.9,201.333 457.59,201.678 458.475,201.678 C459.36,201.678 460.065,201.333 460.575,200.658 C461.025,200.043 461.265,199.278 461.265,198.378 C461.265,197.448 461.025,196.683 460.575,196.083 C460.065,195.393 459.36,195.063 458.475,195.063 Z M467.175,194.283 C466.635,194.283 466.14,194.403 465.705,194.673 C465.27,194.943 464.925,195.303 464.655,195.768 L464.655,194.493 L463.755,194.493 L463.755,202.248 L464.655,202.248 L464.655,197.568 C464.7,196.803 464.94,196.188 465.39,195.738 C465.81,195.288 466.32,195.063 466.95,195.063 C468.42,195.063 469.155,195.888 469.155,197.538 L469.155,202.248 L470.055,202.248 L470.055,197.478 C470.055,195.348 469.095,194.283 467.175,194.283 Z" id="The-tester-works-wit" fill="#777777"></path>
                </g>
            </g>
        </g>
    </g>
</svg>