<?xml version="1.0" encoding="UTF-8"?>
<svg width="585px" height="129px" viewBox="0 0 585 129" version="1.1" xmlns="http://www.w3.org/2000/svg" xmlns:xlink="http://www.w3.org/1999/xlink">
    <!-- Generator: Sketch 46 (44423) - http://www.bohemiancoding.com/sketch -->
    <title>Real-time magnificat</title>
    <desc>Created with Sketch.</desc>
    <defs></defs>
    <g id="Page-1" stroke="none" stroke-width="1" fill="none" fill-rule="evenodd">
        <g id="首页-英文" transform="translate(-158.000000, -1309.000000)" fill="#38393B">
            <g id="2" transform="translate(-5.000000, 1022.000000)">
                <g id="内容" transform="translate(0.000000, 265.000000)">
                    <g id="文字" transform="translate(160.000000, 0.000000)">
                        <path d="M3.65,23.2 L18.75,23.2 C22.25,23.2 25.05,24 27.05,25.7 C29.05,27.4 30.1,29.8 30.1,33 C30.1,35.1 29.5,36.9 28.4,38.45 C27.2,40.05 25.5,41.1 23.35,41.6 L23.35,41.7 C26.95,42.5 28.95,44.7 29.35,48.3 L29.85,53.65 C30.05,55.85 30.6,57.6 31.6,58.9 L28.25,58.9 C27.5,57.7 27.05,56.05 26.85,54.05 L26.4,49.15 C26.2,46.95 25.35,45.35 23.95,44.4 C22.65,43.5 20.8,43.05 18.5,43.05 L6.7,43.05 L6.7,58.9 L3.65,58.9 L3.65,23.2 Z M6.7,25.9 L6.7,40.35 L18.45,40.35 C21.25,40.35 23.4,39.65 24.95,38.3 C26.35,37 27.05,35.3 27.05,33.1 C27.05,30.7 26.35,28.95 25,27.75 C23.6,26.5 21.4,25.9 18.4,25.9 L6.7,25.9 Z M46.85,32.35 C50.95,32.35 54,33.7 56.05,36.5 C57.85,38.95 58.85,42.4 59,46.85 L38,46.85 C38.15,50 39,52.5 40.55,54.3 C42.15,56.1 44.25,57 46.95,57 C49.3,57 51.2,56.35 52.65,55.15 C53.85,54.1 54.75,52.6 55.4,50.6 L58.45,50.6 C57.85,53.1 56.7,55.15 55,56.75 C52.9,58.65 50.25,59.6 46.95,59.6 C43.3,59.6 40.4,58.35 38.25,55.9 C36,53.4 34.9,50.05 34.9,45.95 C34.9,42.15 35.95,39 38.1,36.4 C40.3,33.7 43.2,32.35 46.85,32.35 Z M46.9,34.95 C44.35,34.95 42.3,35.8 40.75,37.6 C39.2,39.35 38.3,41.6 38.05,44.4 L55.85,44.4 C55.35,38.1 52.35,34.95 46.9,34.95 Z M74.75,32.35 C78.35,32.35 81.05,33.3 82.8,35.3 C84.3,36.95 85.1,39.25 85.1,42.25 L85.1,58.9 L82.25,58.9 L82.25,53.95 C81.2,55.45 79.8,56.75 78.1,57.75 C76,58.95 73.75,59.6 71.3,59.6 C68.8,59.6 66.75,58.95 65.25,57.7 C63.6,56.4 62.8,54.65 62.8,52.55 C62.8,49.55 64,47.35 66.45,45.95 C68.55,44.6 71.6,43.9 75.5,43.9 L82.1,43.8 L82.1,42.25 C82.1,37.35 79.6,34.9 74.6,34.9 C72.5,34.9 70.8,35.3 69.45,36.2 C67.95,37.15 67,38.5 66.6,40.3 L63.65,40.1 C64.15,37.5 65.45,35.5 67.55,34.2 C69.4,32.95 71.8,32.35 74.75,32.35 Z M82.1,46.15 L75.65,46.25 C69.1,46.3 65.85,48.4 65.85,52.5 C65.85,53.9 66.4,55 67.5,55.85 C68.6,56.7 70.1,57.15 71.9,57.15 C74.5,57.15 76.9,56.25 79,54.45 C81.05,52.75 82.1,50.85 82.1,48.85 L82.1,46.15 Z M92.35,22.5 L92.35,58.9 L95.35,58.9 L95.35,22.5 L92.35,22.5 Z M101.95,44.65 L101.95,47.25 L127.2,47.25 L127.2,44.65 L101.95,44.65 Z M139.1,24.7 L136.1,25.95 L136.1,33.05 L130.6,33.05 L130.6,35.65 L136.1,35.65 L136.1,53.15 C136.1,55.05 136.45,56.45 137.25,57.35 C138.1,58.35 139.55,58.9 141.55,58.9 L145.2,58.9 L145.2,56.3 L141.95,56.3 C140.85,56.3 140.1,56.05 139.7,55.6 C139.3,55.1 139.1,54.25 139.1,53.15 L139.1,35.65 L145.85,35.65 L145.85,33.05 L139.1,33.05 L139.1,24.7 Z M153.4,23.75 C152.65,23.75 152.05,24 151.6,24.5 C151.1,24.9 150.85,25.5 150.85,26.25 C150.85,26.95 151.1,27.55 151.6,28.05 C152.05,28.5 152.65,28.75 153.4,28.75 C154.1,28.75 154.65,28.5 155.15,28.05 C155.65,27.55 155.95,26.95 155.95,26.25 C155.95,25.5 155.7,24.9 155.2,24.5 C154.7,24 154.1,23.75 153.4,23.75 Z M151.9,33.05 L151.9,58.9 L154.9,58.9 L154.9,33.05 L151.9,33.05 Z M173.2,32.35 C170.05,32.35 167.55,33.85 165.7,36.95 L165.7,33.05 L162.7,33.05 L162.7,58.9 L165.7,58.9 L165.7,43 C165.7,40.75 166.35,38.85 167.7,37.3 C169,35.7 170.6,34.95 172.55,34.95 C176.85,34.95 179,37.4 179,42.4 L179,58.9 L182.05,58.9 L182.05,42.45 C182.05,40.25 182.65,38.5 183.95,37.1 C185.2,35.65 186.75,34.95 188.65,34.95 C190.95,34.95 192.7,35.6 193.8,36.9 C194.8,38.1 195.3,39.95 195.3,42.4 L195.3,58.9 L198.3,58.9 L198.3,42 C198.3,38.95 197.5,36.6 195.95,34.9 C194.35,33.2 192.15,32.35 189.45,32.35 C187.65,32.35 186.05,32.8 184.75,33.7 C183.35,34.6 182.2,35.9 181.3,37.65 C180,34.1 177.3,32.35 173.2,32.35 Z M215.05,32.35 C219.15,32.35 222.2,33.7 224.25,36.5 C226.05,38.95 227.05,42.4 227.2,46.85 L206.2,46.85 C206.35,50 207.2,52.5 208.75,54.3 C210.35,56.1 212.45,57 215.15,57 C217.5,57 219.4,56.35 220.85,55.15 C222.05,54.1 222.95,52.6 223.6,50.6 L226.65,50.6 C226.05,53.1 224.9,55.15 223.2,56.75 C221.1,58.65 218.45,59.6 215.15,59.6 C211.5,59.6 208.6,58.35 206.45,55.9 C204.2,53.4 203.1,50.05 203.1,45.95 C203.1,42.15 204.15,39 206.3,36.4 C208.5,33.7 211.4,32.35 215.05,32.35 Z M215.1,34.95 C212.55,34.95 210.5,35.8 208.95,37.6 C207.4,39.35 206.5,41.6 206.25,44.4 L224.05,44.4 C223.55,38.1 220.55,34.95 215.1,34.95 Z M13.65,113.25 C10.5,113.25 8,114.75 6.15,117.85 L6.15,113.95 L3.15,113.95 L3.15,139.8 L6.15,139.8 L6.15,123.9 C6.15,121.65 6.8,119.75 8.15,118.2 C9.45,116.6 11.05,115.85 13,115.85 C17.3,115.85 19.45,118.3 19.45,123.3 L19.45,139.8 L22.5,139.8 L22.5,123.35 C22.5,121.15 23.1,119.4 24.4,118 C25.65,116.55 27.2,115.85 29.1,115.85 C31.4,115.85 33.15,116.5 34.25,117.8 C35.25,119 35.75,120.85 35.75,123.3 L35.75,139.8 L38.75,139.8 L38.75,122.9 C38.75,119.85 37.95,117.5 36.4,115.8 C34.8,114.1 32.6,113.25 29.9,113.25 C28.1,113.25 26.5,113.7 25.2,114.6 C23.8,115.5 22.65,116.8 21.75,118.55 C20.45,115 17.75,113.25 13.65,113.25 Z M56,113.25 C59.6,113.25 62.3,114.2 64.05,116.2 C65.55,117.85 66.35,120.15 66.35,123.15 L66.35,139.8 L63.5,139.8 L63.5,134.85 C62.45,136.35 61.05,137.65 59.35,138.65 C57.25,139.85 55,140.5 52.55,140.5 C50.05,140.5 48,139.85 46.5,138.6 C44.85,137.3 44.05,135.55 44.05,133.45 C44.05,130.45 45.25,128.25 47.7,126.85 C49.8,125.5 52.85,124.8 56.75,124.8 L63.35,124.7 L63.35,123.15 C63.35,118.25 60.85,115.8 55.85,115.8 C53.75,115.8 52.05,116.2 50.7,117.1 C49.2,118.05 48.25,119.4 47.85,121.2 L44.9,121 C45.4,118.4 46.7,116.4 48.8,115.1 C50.65,113.85 53.05,113.25 56,113.25 Z M63.35,127.05 L56.9,127.15 C50.35,127.2 47.1,129.3 47.1,133.4 C47.1,134.8 47.65,135.9 48.75,136.75 C49.85,137.6 51.35,138.05 53.15,138.05 C55.75,138.05 58.15,137.15 60.25,135.35 C62.3,133.65 63.35,131.75 63.35,129.75 L63.35,127.05 Z M83.3,113.25 C87.55,113.25 90.65,115.2 92.55,119.15 L92.55,113.95 L95.55,113.95 L95.55,137.9 C95.55,146.2 91.65,150.4 83.95,150.4 C80.55,150.4 77.95,149.65 76.1,148.2 C74.35,146.8 73.25,144.75 72.8,142 L75.8,142 C76.15,143.9 76.95,145.35 78.2,146.3 C79.5,147.35 81.4,147.9 83.95,147.9 C89.65,147.9 92.55,144.65 92.55,138.25 L92.55,133.3 C90.65,137.2 87.55,139.2 83.3,139.2 C79.7,139.2 76.8,137.9 74.65,135.35 C72.65,132.95 71.65,129.95 71.65,126.25 C71.65,122.6 72.65,119.55 74.65,117.15 C76.8,114.55 79.7,113.25 83.3,113.25 Z M83.65,115.8 C80.8,115.8 78.6,116.8 77,118.9 C75.45,120.8 74.7,123.25 74.7,126.25 C74.7,129.15 75.4,131.55 76.85,133.45 C78.4,135.55 80.65,136.6 83.6,136.6 C86.45,136.6 88.7,135.6 90.3,133.6 C91.8,131.7 92.55,129.25 92.55,126.25 C92.55,123.25 91.8,120.8 90.3,118.9 C88.7,116.8 86.45,115.8 83.65,115.8 Z M113.25,113.25 C111.45,113.25 109.8,113.65 108.35,114.55 C106.9,115.45 105.75,116.65 104.85,118.2 L104.85,113.95 L101.85,113.95 L101.85,139.8 L104.85,139.8 L104.85,124.2 C105,121.65 105.8,119.6 107.3,118.1 C108.7,116.6 110.4,115.85 112.5,115.85 C117.4,115.85 119.85,118.6 119.85,124.1 L119.85,139.8 L122.85,139.8 L122.85,123.9 C122.85,116.8 119.65,113.25 113.25,113.25 Z M132.15,104.65 C131.4,104.65 130.8,104.9 130.35,105.4 C129.85,105.8 129.6,106.4 129.6,107.15 C129.6,107.85 129.85,108.45 130.35,108.95 C130.8,109.4 131.4,109.65 132.15,109.65 C132.85,109.65 133.4,109.4 133.9,108.95 C134.4,108.45 134.7,107.85 134.7,107.15 C134.7,106.4 134.45,105.8 133.95,105.4 C133.45,104.9 132.85,104.65 132.15,104.65 Z M130.65,113.95 L130.65,139.8 L133.65,139.8 L133.65,113.95 L130.65,113.95 Z M151.95,104.1 C149.75,104.1 148.15,104.7 147.05,105.95 C145.95,107.1 145.45,108.75 145.45,110.9 L145.45,113.95 L138.55,113.95 L138.55,116.55 L145.45,116.55 L145.45,139.8 L148.45,139.8 L148.45,116.55 L161.25,116.55 L161.25,139.8 L164.25,139.8 L164.25,113.95 L148.45,113.95 L148.45,110.95 C148.45,109.45 148.75,108.4 149.35,107.75 C149.95,107.05 150.9,106.75 152.2,106.75 L156.55,106.75 L156.55,104.1 L151.95,104.1 Z M182.4,113.25 C178.65,113.25 175.7,114.6 173.55,117.35 C171.5,119.9 170.5,123.15 170.5,127.05 C170.5,131 171.45,134.2 173.45,136.6 C175.55,139.2 178.55,140.5 182.35,140.5 C185.45,140.5 188,139.65 189.9,138 C191.85,136.3 193.1,133.8 193.6,130.55 L190.65,130.55 C189.9,135.45 187.15,137.9 182.35,137.9 C179.5,137.9 177.3,136.9 175.8,134.95 C174.3,133 173.55,130.35 173.55,127.05 C173.55,123.7 174.3,121 175.9,119 C177.5,116.9 179.7,115.85 182.4,115.85 C184.65,115.85 186.5,116.4 187.9,117.5 C189.3,118.6 190.15,120.2 190.5,122.4 L193.5,122.4 C193.1,119.3 191.9,117 189.95,115.5 C188,114 185.5,113.25 182.4,113.25 Z M209.35,113.25 C212.95,113.25 215.65,114.2 217.4,116.2 C218.9,117.85 219.7,120.15 219.7,123.15 L219.7,139.8 L216.85,139.8 L216.85,134.85 C215.8,136.35 214.4,137.65 212.7,138.65 C210.6,139.85 208.35,140.5 205.9,140.5 C203.4,140.5 201.35,139.85 199.85,138.6 C198.2,137.3 197.4,135.55 197.4,133.45 C197.4,130.45 198.6,128.25 201.05,126.85 C203.15,125.5 206.2,124.8 210.1,124.8 L216.7,124.7 L216.7,123.15 C216.7,118.25 214.2,115.8 209.2,115.8 C207.1,115.8 205.4,116.2 204.05,117.1 C202.55,118.05 201.6,119.4 201.2,121.2 L198.25,121 C198.75,118.4 200.05,116.4 202.15,115.1 C204,113.85 206.4,113.25 209.35,113.25 Z M216.7,127.05 L210.25,127.15 C203.7,127.2 200.45,129.3 200.45,133.4 C200.45,134.8 201,135.9 202.1,136.75 C203.2,137.6 204.7,138.05 206.5,138.05 C209.1,138.05 211.5,137.15 213.6,135.35 C215.65,133.65 216.7,131.75 216.7,129.75 L216.7,127.05 Z M232.25,105.6 L229.25,106.85 L229.25,113.95 L223.75,113.95 L223.75,116.55 L229.25,116.55 L229.25,134.05 C229.25,135.95 229.6,137.35 230.4,138.25 C231.25,139.25 232.7,139.8 234.7,139.8 L238.35,139.8 L238.35,137.2 L235.1,137.2 C234,137.2 233.25,136.95 232.85,136.5 C232.45,136 232.25,135.15 232.25,134.05 L232.25,116.55 L239,116.55 L239,113.95 L232.25,113.95 L232.25,105.6 Z M246.55,104.65 C245.8,104.65 245.2,104.9 244.75,105.4 C244.25,105.8 244,106.4 244,107.15 C244,107.85 244.25,108.45 244.75,108.95 C245.2,109.4 245.8,109.65 246.55,109.65 C247.25,109.65 247.8,109.4 248.3,108.95 C248.8,108.45 249.1,107.85 249.1,107.15 C249.1,106.4 248.85,105.8 248.35,105.4 C247.85,104.9 247.25,104.65 246.55,104.65 Z M245.05,113.95 L245.05,139.8 L248.05,139.8 L248.05,113.95 L245.05,113.95 Z M267.15,113.25 C270.95,113.25 274,114.6 276.3,117.35 C278.4,119.9 279.45,123.1 279.45,126.9 C279.45,130.7 278.4,133.85 276.3,136.4 C274,139.1 270.95,140.5 267.15,140.5 C263.35,140.5 260.3,139.1 258,136.4 C255.9,133.85 254.85,130.7 254.85,126.9 C254.85,123.1 255.9,119.9 258.05,117.35 C260.3,114.6 263.35,113.25 267.15,113.25 Z M267.15,115.85 C264.2,115.85 261.9,116.95 260.2,119.25 C258.65,121.25 257.9,123.8 257.9,126.9 C257.9,129.95 258.65,132.5 260.2,134.5 C261.9,136.75 264.2,137.9 267.15,137.9 C270.1,137.9 272.45,136.75 274.15,134.5 C275.65,132.45 276.45,129.9 276.45,126.9 C276.45,123.8 275.65,121.25 274.15,119.25 C272.45,116.95 270.1,115.85 267.15,115.85 Z M296.15,113.25 C294.35,113.25 292.7,113.65 291.25,114.55 C289.8,115.45 288.65,116.65 287.75,118.2 L287.75,113.95 L284.75,113.95 L284.75,139.8 L287.75,139.8 L287.75,124.2 C287.9,121.65 288.7,119.6 290.2,118.1 C291.6,116.6 293.3,115.85 295.4,115.85 C300.3,115.85 302.75,118.6 302.75,124.1 L302.75,139.8 L305.75,139.8 L305.75,123.9 C305.75,116.8 302.55,113.25 296.15,113.25 Z M340,113.25 C343.8,113.25 346.85,114.6 349.15,117.35 C351.25,119.9 352.3,123.1 352.3,126.9 C352.3,130.7 351.25,133.85 349.15,136.4 C346.85,139.1 343.8,140.5 340,140.5 C336.2,140.5 333.15,139.1 330.85,136.4 C328.75,133.85 327.7,130.7 327.7,126.9 C327.7,123.1 328.75,119.9 330.9,117.35 C333.15,114.6 336.2,113.25 340,113.25 Z M340,115.85 C337.05,115.85 334.75,116.95 333.05,119.25 C331.5,121.25 330.75,123.8 330.75,126.9 C330.75,129.95 331.5,132.5 333.05,134.5 C334.75,136.75 337.05,137.9 340,137.9 C342.95,137.9 345.3,136.75 347,134.5 C348.5,132.45 349.3,129.9 349.3,126.9 C349.3,123.8 348.5,121.25 347,119.25 C345.3,116.95 342.95,115.85 340,115.85 Z M357.6,103.4 L360.6,103.4 L360.6,119.4 C362.5,115.3 365.5,113.25 369.65,113.25 C373.25,113.25 376.15,114.6 378.25,117.4 C380.15,119.9 381.1,123.05 381.1,126.85 C381.1,130.7 380.15,133.9 378.25,136.4 C376.15,139.1 373.25,140.5 369.55,140.5 C365.25,140.5 362.2,138.55 360.45,134.7 L360.45,139.8 L357.6,139.8 L357.6,103.4 Z M369.1,115.8 C366.45,115.8 364.35,116.8 362.8,118.9 C361.25,120.9 360.5,123.45 360.5,126.65 L360.5,127.25 C360.5,130.3 361.2,132.8 362.65,134.75 C364.15,136.85 366.35,137.95 369.2,137.95 C372.1,137.95 374.35,136.85 375.95,134.65 C377.35,132.7 378.05,130.1 378.05,126.85 C378.05,123.6 377.3,121 375.9,119.1 C374.3,116.9 372.05,115.8 369.1,115.8 Z M395.2,113.25 C392.5,113.25 390.2,113.85 388.4,115.1 C386.5,116.4 385.6,118.05 385.6,120.15 C385.6,122.25 386.55,123.9 388.55,125.1 C389.75,125.85 391.85,126.6 394.85,127.4 C397.8,128.15 399.7,128.75 400.6,129.2 C402.3,130.05 403.15,131.25 403.15,132.8 C403.15,136.2 400.65,137.9 395.65,137.9 C393.25,137.9 391.45,137.45 390.25,136.55 C388.95,135.55 388.15,133.9 387.85,131.65 L384.9,131.65 C385.5,137.55 389.1,140.5 395.75,140.5 C402.75,140.5 406.25,137.85 406.25,132.65 C406.25,130.45 405.2,128.7 403.15,127.45 C401.85,126.65 399.6,125.85 396.45,125.05 C393.8,124.35 392,123.75 391,123.25 C389.45,122.45 388.7,121.4 388.7,120.1 C388.7,118.8 389.3,117.8 390.5,117 C391.7,116.2 393.25,115.85 395.15,115.85 C397.45,115.85 399.2,116.3 400.4,117.25 C401.5,118.1 402.2,119.4 402.55,121.2 L405.5,121.2 C404.75,115.9 401.3,113.25 395.2,113.25 Z M421.5,113.25 C425.6,113.25 428.65,114.6 430.7,117.4 C432.5,119.85 433.5,123.3 433.65,127.75 L412.65,127.75 C412.8,130.9 413.65,133.4 415.2,135.2 C416.8,137 418.9,137.9 421.6,137.9 C423.95,137.9 425.85,137.25 427.3,136.05 C428.5,135 429.4,133.5 430.05,131.5 L433.1,131.5 C432.5,134 431.35,136.05 429.65,137.65 C427.55,139.55 424.9,140.5 421.6,140.5 C417.95,140.5 415.05,139.25 412.9,136.8 C410.65,134.3 409.55,130.95 409.55,126.85 C409.55,123.05 410.6,119.9 412.75,117.3 C414.95,114.6 417.85,113.25 421.5,113.25 Z M421.55,115.85 C419,115.85 416.95,116.7 415.4,118.5 C413.85,120.25 412.95,122.5 412.7,125.3 L430.5,125.3 C430,119 427,115.85 421.55,115.85 Z M449.3,113.25 C447.4,113.25 445.7,113.85 444.3,115.05 C443.1,116 442.15,117.3 441.45,118.9 L441.45,113.95 L438.45,113.95 L438.45,139.8 L441.45,139.8 L441.45,126.15 C441.45,123.55 442.1,121.3 443.5,119.4 C444.9,117.3 446.8,116.3 449.1,116.3 C450.4,116.3 451.7,116.45 453.05,116.85 L453.05,113.8 C452.05,113.4 450.8,113.25 449.3,113.25 Z M453.55,113.95 L463.45,139.8 L466.55,139.8 L476.45,113.95 L473.1,113.95 L465,136 L456.85,113.95 L453.55,113.95 Z M490.8,113.25 C494.4,113.25 497.1,114.2 498.85,116.2 C500.35,117.85 501.15,120.15 501.15,123.15 L501.15,139.8 L498.3,139.8 L498.3,134.85 C497.25,136.35 495.85,137.65 494.15,138.65 C492.05,139.85 489.8,140.5 487.35,140.5 C484.85,140.5 482.8,139.85 481.3,138.6 C479.65,137.3 478.85,135.55 478.85,133.45 C478.85,130.45 480.05,128.25 482.5,126.85 C484.6,125.5 487.65,124.8 491.55,124.8 L498.15,124.7 L498.15,123.15 C498.15,118.25 495.65,115.8 490.65,115.8 C488.55,115.8 486.85,116.2 485.5,117.1 C484,118.05 483.05,119.4 482.65,121.2 L479.7,121 C480.2,118.4 481.5,116.4 483.6,115.1 C485.45,113.85 487.85,113.25 490.8,113.25 Z M498.15,127.05 L491.7,127.15 C485.15,127.2 481.9,129.3 481.9,133.4 C481.9,134.8 482.45,135.9 483.55,136.75 C484.65,137.6 486.15,138.05 487.95,138.05 C490.55,138.05 492.95,137.15 495.05,135.35 C497.1,133.65 498.15,131.75 498.15,129.75 L498.15,127.05 Z M513.7,105.6 L510.7,106.85 L510.7,113.95 L505.2,113.95 L505.2,116.55 L510.7,116.55 L510.7,134.05 C510.7,135.95 511.05,137.35 511.85,138.25 C512.7,139.25 514.15,139.8 516.15,139.8 L519.8,139.8 L519.8,137.2 L516.55,137.2 C515.45,137.2 514.7,136.95 514.3,136.5 C513.9,136 513.7,135.15 513.7,134.05 L513.7,116.55 L520.45,116.55 L520.45,113.95 L513.7,113.95 L513.7,105.6 Z M528,104.65 C527.25,104.65 526.65,104.9 526.2,105.4 C525.7,105.8 525.45,106.4 525.45,107.15 C525.45,107.85 525.7,108.45 526.2,108.95 C526.65,109.4 527.25,109.65 528,109.65 C528.7,109.65 529.25,109.4 529.75,108.95 C530.25,108.45 530.55,107.85 530.55,107.15 C530.55,106.4 530.3,105.8 529.8,105.4 C529.3,104.9 528.7,104.65 528,104.65 Z M526.5,113.95 L526.5,139.8 L529.5,139.8 L529.5,113.95 L526.5,113.95 Z M548.6,113.25 C552.4,113.25 555.45,114.6 557.75,117.35 C559.85,119.9 560.9,123.1 560.9,126.9 C560.9,130.7 559.85,133.85 557.75,136.4 C555.45,139.1 552.4,140.5 548.6,140.5 C544.8,140.5 541.75,139.1 539.45,136.4 C537.35,133.85 536.3,130.7 536.3,126.9 C536.3,123.1 537.35,119.9 539.5,117.35 C541.75,114.6 544.8,113.25 548.6,113.25 Z M548.6,115.85 C545.65,115.85 543.35,116.95 541.65,119.25 C540.1,121.25 539.35,123.8 539.35,126.9 C539.35,129.95 540.1,132.5 541.65,134.5 C543.35,136.75 545.65,137.9 548.6,137.9 C551.55,137.9 553.9,136.75 555.6,134.5 C557.1,132.45 557.9,129.9 557.9,126.9 C557.9,123.8 557.1,121.25 555.6,119.25 C553.9,116.95 551.55,115.85 548.6,115.85 Z M577.6,113.25 C575.8,113.25 574.15,113.65 572.7,114.55 C571.25,115.45 570.1,116.65 569.2,118.2 L569.2,113.95 L566.2,113.95 L566.2,139.8 L569.2,139.8 L569.2,124.2 C569.35,121.65 570.15,119.6 571.65,118.1 C573.05,116.6 574.75,115.85 576.85,115.85 C581.75,115.85 584.2,118.6 584.2,124.1 L584.2,139.8 L587.2,139.8 L587.2,123.9 C587.2,116.8 584,113.25 577.6,113.25 Z" id="Real-time-magnificat"></path>
                    </g>
                </g>
            </g>
        </g>
    </g>
</svg>