<?xml version="1.0" encoding="UTF-8"?>
<svg width="383px" height="14px" viewBox="0 0 383 14" version="1.1" xmlns="http://www.w3.org/2000/svg" xmlns:xlink="http://www.w3.org/1999/xlink">
    <!-- Generator: Sketch 46 (44423) - http://www.bohemiancoding.com/sketch -->
    <title>observation the skin</title>
    <desc>Created with Sketch.</desc>
    <defs></defs>
    <g id="Page-1" stroke="none" stroke-width="1" fill="none" fill-rule="evenodd">
        <g id="首页-英文" transform="translate(-156.000000, -1486.000000)" fill="#777777">
            <g id="2" transform="translate(-5.000000, 1022.000000)">
                <g id="内容" transform="translate(0.000000, 287.000000)">
                    <g id="文字" transform="translate(160.000000, 0.000000)">
                        <path d="M4.77,180.035 C5.91,180.035 6.825,180.44 7.515,181.265 C8.145,182.03 8.46,182.99 8.46,184.13 C8.46,185.27 8.145,186.215 7.515,186.98 C6.825,187.79 5.91,188.21 4.77,188.21 C3.63,188.21 2.715,187.79 2.025,186.98 C1.395,186.215 1.08,185.27 1.08,184.13 C1.08,182.99 1.395,182.03 2.04,181.265 C2.715,180.44 3.63,180.035 4.77,180.035 Z M4.77,180.815 C3.885,180.815 3.195,181.145 2.685,181.835 C2.22,182.435 1.995,183.2 1.995,184.13 C1.995,185.045 2.22,185.81 2.685,186.41 C3.195,187.085 3.885,187.43 4.77,187.43 C5.655,187.43 6.36,187.085 6.87,186.41 C7.32,185.795 7.56,185.03 7.56,184.13 C7.56,183.2 7.32,182.435 6.87,181.835 C6.36,181.145 5.655,180.815 4.77,180.815 Z M10.05,177.08 L10.95,177.08 L10.95,181.88 C11.52,180.65 12.42,180.035 13.665,180.035 C14.745,180.035 15.615,180.44 16.245,181.28 C16.815,182.03 17.1,182.975 17.1,184.115 C17.1,185.27 16.815,186.23 16.245,186.98 C15.615,187.79 14.745,188.21 13.635,188.21 C12.345,188.21 11.43,187.625 10.905,186.47 L10.905,188 L10.05,188 L10.05,177.08 Z M13.5,180.8 C12.705,180.8 12.075,181.1 11.61,181.73 C11.145,182.33 10.92,183.095 10.92,184.055 L10.92,184.235 C10.92,185.15 11.13,185.9 11.565,186.485 C12.015,187.115 12.675,187.445 13.53,187.445 C14.4,187.445 15.075,187.115 15.555,186.455 C15.975,185.87 16.185,185.09 16.185,184.115 C16.185,183.14 15.96,182.36 15.54,181.79 C15.06,181.13 14.385,180.8 13.5,180.8 Z M21.33,180.035 C20.52,180.035 19.83,180.215 19.29,180.59 C18.72,180.98 18.45,181.475 18.45,182.105 C18.45,182.735 18.735,183.23 19.335,183.59 C19.695,183.815 20.325,184.04 21.225,184.28 C22.11,184.505 22.68,184.685 22.95,184.82 C23.46,185.075 23.715,185.435 23.715,185.9 C23.715,186.92 22.965,187.43 21.465,187.43 C20.745,187.43 20.205,187.295 19.845,187.025 C19.455,186.725 19.215,186.23 19.125,185.555 L18.24,185.555 C18.42,187.325 19.5,188.21 21.495,188.21 C23.595,188.21 24.645,187.415 24.645,185.855 C24.645,185.195 24.33,184.67 23.715,184.295 C23.325,184.055 22.65,183.815 21.705,183.575 C20.91,183.365 20.37,183.185 20.07,183.035 C19.605,182.795 19.38,182.48 19.38,182.09 C19.38,181.7 19.56,181.4 19.92,181.16 C20.28,180.92 20.745,180.815 21.315,180.815 C22.005,180.815 22.53,180.95 22.89,181.235 C23.22,181.49 23.43,181.88 23.535,182.42 L24.42,182.42 C24.195,180.83 23.16,180.035 21.33,180.035 Z M29.22,180.035 C30.45,180.035 31.365,180.44 31.98,181.28 C32.52,182.015 32.82,183.05 32.865,184.385 L26.565,184.385 C26.61,185.33 26.865,186.08 27.33,186.62 C27.81,187.16 28.44,187.43 29.25,187.43 C29.955,187.43 30.525,187.235 30.96,186.875 C31.32,186.56 31.59,186.11 31.785,185.51 L32.7,185.51 C32.52,186.26 32.175,186.875 31.665,187.355 C31.035,187.925 30.24,188.21 29.25,188.21 C28.155,188.21 27.285,187.835 26.64,187.1 C25.965,186.35 25.635,185.345 25.635,184.115 C25.635,182.975 25.95,182.03 26.595,181.25 C27.255,180.44 28.125,180.035 29.22,180.035 Z M29.235,180.815 C28.47,180.815 27.855,181.07 27.39,181.61 C26.925,182.135 26.655,182.81 26.58,183.65 L31.92,183.65 C31.77,181.76 30.87,180.815 29.235,180.815 Z M37.56,180.035 C36.99,180.035 36.48,180.215 36.06,180.575 C35.7,180.86 35.415,181.25 35.205,181.73 L35.205,180.245 L34.305,180.245 L34.305,188 L35.205,188 L35.205,183.905 C35.205,183.125 35.4,182.45 35.82,181.88 C36.24,181.25 36.81,180.95 37.5,180.95 C37.89,180.95 38.28,180.995 38.685,181.115 L38.685,180.2 C38.385,180.08 38.01,180.035 37.56,180.035 Z M38.835,180.245 L41.805,188 L42.735,188 L45.705,180.245 L44.7,180.245 L42.27,186.86 L39.825,180.245 L38.835,180.245 Z M50.01,180.035 C51.09,180.035 51.9,180.32 52.425,180.92 C52.875,181.415 53.115,182.105 53.115,183.005 L53.115,188 L52.26,188 L52.26,186.515 C51.945,186.965 51.525,187.355 51.015,187.655 C50.385,188.015 49.71,188.21 48.975,188.21 C48.225,188.21 47.61,188.015 47.16,187.64 C46.665,187.25 46.425,186.725 46.425,186.095 C46.425,185.195 46.785,184.535 47.52,184.115 C48.15,183.71 49.065,183.5 50.235,183.5 L52.215,183.47 L52.215,183.005 C52.215,181.535 51.465,180.8 49.965,180.8 C49.335,180.8 48.825,180.92 48.42,181.19 C47.97,181.475 47.685,181.88 47.565,182.42 L46.68,182.36 C46.83,181.58 47.22,180.98 47.85,180.59 C48.405,180.215 49.125,180.035 50.01,180.035 Z M52.215,184.175 L50.28,184.205 C48.315,184.22 47.34,184.85 47.34,186.08 C47.34,186.5 47.505,186.83 47.835,187.085 C48.165,187.34 48.615,187.475 49.155,187.475 C49.935,187.475 50.655,187.205 51.285,186.665 C51.9,186.155 52.215,185.585 52.215,184.985 L52.215,184.175 Z M56.88,177.74 L55.98,178.115 L55.98,180.245 L54.33,180.245 L54.33,181.025 L55.98,181.025 L55.98,186.275 C55.98,186.845 56.085,187.265 56.325,187.535 C56.58,187.835 57.015,188 57.615,188 L58.71,188 L58.71,187.22 L57.735,187.22 C57.405,187.22 57.18,187.145 57.06,187.01 C56.94,186.86 56.88,186.605 56.88,186.275 L56.88,181.025 L58.905,181.025 L58.905,180.245 L56.88,180.245 L56.88,177.74 Z M61.17,177.455 C60.945,177.455 60.765,177.53 60.63,177.68 C60.48,177.8 60.405,177.98 60.405,178.205 C60.405,178.415 60.48,178.595 60.63,178.745 C60.765,178.88 60.945,178.955 61.17,178.955 C61.38,178.955 61.545,178.88 61.695,178.745 C61.845,178.595 61.935,178.415 61.935,178.205 C61.935,177.98 61.86,177.8 61.71,177.68 C61.56,177.53 61.38,177.455 61.17,177.455 Z M60.72,180.245 L60.72,188 L61.62,188 L61.62,180.245 L60.72,180.245 Z M67.35,180.035 C68.49,180.035 69.405,180.44 70.095,181.265 C70.725,182.03 71.04,182.99 71.04,184.13 C71.04,185.27 70.725,186.215 70.095,186.98 C69.405,187.79 68.49,188.21 67.35,188.21 C66.21,188.21 65.295,187.79 64.605,186.98 C63.975,186.215 63.66,185.27 63.66,184.13 C63.66,182.99 63.975,182.03 64.62,181.265 C65.295,180.44 66.21,180.035 67.35,180.035 Z M67.35,180.815 C66.465,180.815 65.775,181.145 65.265,181.835 C64.8,182.435 64.575,183.2 64.575,184.13 C64.575,185.045 64.8,185.81 65.265,186.41 C65.775,187.085 66.465,187.43 67.35,187.43 C68.235,187.43 68.94,187.085 69.45,186.41 C69.9,185.795 70.14,185.03 70.14,184.13 C70.14,183.2 69.9,182.435 69.45,181.835 C68.94,181.145 68.235,180.815 67.35,180.815 Z M76.05,180.035 C75.51,180.035 75.015,180.155 74.58,180.425 C74.145,180.695 73.8,181.055 73.53,181.52 L73.53,180.245 L72.63,180.245 L72.63,188 L73.53,188 L73.53,183.32 C73.575,182.555 73.815,181.94 74.265,181.49 C74.685,181.04 75.195,180.815 75.825,180.815 C77.295,180.815 78.03,181.64 78.03,183.29 L78.03,188 L78.93,188 L78.93,183.23 C78.93,181.1 77.97,180.035 76.05,180.035 Z M87.69,177.74 L86.79,178.115 L86.79,180.245 L85.14,180.245 L85.14,181.025 L86.79,181.025 L86.79,186.275 C86.79,186.845 86.895,187.265 87.135,187.535 C87.39,187.835 87.825,188 88.425,188 L89.52,188 L89.52,187.22 L88.545,187.22 C88.215,187.22 87.99,187.145 87.87,187.01 C87.75,186.86 87.69,186.605 87.69,186.275 L87.69,181.025 L89.715,181.025 L89.715,180.245 L87.69,180.245 L87.69,177.74 Z M91.08,177.08 L91.08,188 L91.995,188 L91.995,183.515 C91.995,182.75 92.205,182.105 92.655,181.595 C93.105,181.07 93.645,180.815 94.29,180.815 C94.98,180.815 95.505,181.01 95.895,181.415 C96.27,181.835 96.465,182.42 96.465,183.17 L96.465,188 L97.365,188 L97.365,183.05 C97.365,182.09 97.11,181.34 96.615,180.815 C96.12,180.29 95.43,180.035 94.545,180.035 C94.005,180.035 93.51,180.17 93.075,180.44 C92.625,180.725 92.265,181.13 91.995,181.655 L91.995,177.08 L91.08,177.08 Z M102.39,180.035 C103.62,180.035 104.535,180.44 105.15,181.28 C105.69,182.015 105.99,183.05 106.035,184.385 L99.735,184.385 C99.78,185.33 100.035,186.08 100.5,186.62 C100.98,187.16 101.61,187.43 102.42,187.43 C103.125,187.43 103.695,187.235 104.13,186.875 C104.49,186.56 104.76,186.11 104.955,185.51 L105.87,185.51 C105.69,186.26 105.345,186.875 104.835,187.355 C104.205,187.925 103.41,188.21 102.42,188.21 C101.325,188.21 100.455,187.835 99.81,187.1 C99.135,186.35 98.805,185.345 98.805,184.115 C98.805,182.975 99.12,182.03 99.765,181.25 C100.425,180.44 101.295,180.035 102.39,180.035 Z M102.405,180.815 C101.64,180.815 101.025,181.07 100.56,181.61 C100.095,182.135 99.825,182.81 99.75,183.65 L105.09,183.65 C104.94,181.76 104.04,180.815 102.405,180.815 Z M115.11,180.035 C114.3,180.035 113.61,180.215 113.07,180.59 C112.5,180.98 112.23,181.475 112.23,182.105 C112.23,182.735 112.515,183.23 113.115,183.59 C113.475,183.815 114.105,184.04 115.005,184.28 C115.89,184.505 116.46,184.685 116.73,184.82 C117.24,185.075 117.495,185.435 117.495,185.9 C117.495,186.92 116.745,187.43 115.245,187.43 C114.525,187.43 113.985,187.295 113.625,187.025 C113.235,186.725 112.995,186.23 112.905,185.555 L112.02,185.555 C112.2,187.325 113.28,188.21 115.275,188.21 C117.375,188.21 118.425,187.415 118.425,185.855 C118.425,185.195 118.11,184.67 117.495,184.295 C117.105,184.055 116.43,183.815 115.485,183.575 C114.69,183.365 114.15,183.185 113.85,183.035 C113.385,182.795 113.16,182.48 113.16,182.09 C113.16,181.7 113.34,181.4 113.7,181.16 C114.06,180.92 114.525,180.815 115.095,180.815 C115.785,180.815 116.31,180.95 116.67,181.235 C117,181.49 117.21,181.88 117.315,182.42 L118.2,182.42 C117.975,180.83 116.94,180.035 115.11,180.035 Z M119.865,177.08 L119.865,188 L120.765,188 L120.765,185.255 L122.25,183.905 L125.46,188 L126.645,188 L122.895,183.32 L126.3,180.245 L125.07,180.245 L120.765,184.16 L120.765,177.08 L119.865,177.08 Z M128.49,177.455 C128.265,177.455 128.085,177.53 127.95,177.68 C127.8,177.8 127.725,177.98 127.725,178.205 C127.725,178.415 127.8,178.595 127.95,178.745 C128.085,178.88 128.265,178.955 128.49,178.955 C128.7,178.955 128.865,178.88 129.015,178.745 C129.165,178.595 129.255,178.415 129.255,178.205 C129.255,177.98 129.18,177.8 129.03,177.68 C128.88,177.53 128.7,177.455 128.49,177.455 Z M128.04,180.245 L128.04,188 L128.94,188 L128.94,180.245 L128.04,180.245 Z M134.7,180.035 C134.16,180.035 133.665,180.155 133.23,180.425 C132.795,180.695 132.45,181.055 132.18,181.52 L132.18,180.245 L131.28,180.245 L131.28,188 L132.18,188 L132.18,183.32 C132.225,182.555 132.465,181.94 132.915,181.49 C133.335,181.04 133.845,180.815 134.475,180.815 C135.945,180.815 136.68,181.64 136.68,183.29 L136.68,188 L137.58,188 L137.58,183.23 C137.58,181.1 136.62,180.035 134.7,180.035 Z M150.315,177.08 L151.215,177.08 L151.215,188 L150.36,188 L150.36,186.47 C149.82,187.625 148.92,188.21 147.645,188.21 C146.52,188.21 145.65,187.79 145.02,186.98 C144.45,186.23 144.165,185.27 144.165,184.115 C144.165,182.975 144.45,182.03 145.02,181.28 C145.65,180.44 146.505,180.035 147.6,180.035 C148.83,180.035 149.745,180.65 150.315,181.88 L150.315,177.08 Z M147.765,180.8 C146.88,180.8 146.205,181.13 145.725,181.79 C145.29,182.36 145.08,183.14 145.08,184.115 C145.08,185.09 145.29,185.87 145.71,186.455 C146.175,187.115 146.85,187.445 147.735,187.445 C148.575,187.445 149.235,187.115 149.7,186.485 C150.12,185.9 150.345,185.15 150.345,184.235 L150.345,184.055 C150.345,183.095 150.105,182.33 149.655,181.73 C149.175,181.1 148.545,180.8 147.765,180.8 Z M156.24,180.035 C157.47,180.035 158.385,180.44 159,181.28 C159.54,182.015 159.84,183.05 159.885,184.385 L153.585,184.385 C153.63,185.33 153.885,186.08 154.35,186.62 C154.83,187.16 155.46,187.43 156.27,187.43 C156.975,187.43 157.545,187.235 157.98,186.875 C158.34,186.56 158.61,186.11 158.805,185.51 L159.72,185.51 C159.54,186.26 159.195,186.875 158.685,187.355 C158.055,187.925 157.26,188.21 156.27,188.21 C155.175,188.21 154.305,187.835 153.66,187.1 C152.985,186.35 152.655,185.345 152.655,184.115 C152.655,182.975 152.97,182.03 153.615,181.25 C154.275,180.44 155.145,180.035 156.24,180.035 Z M156.255,180.815 C155.49,180.815 154.875,181.07 154.41,181.61 C153.945,182.135 153.675,182.81 153.6,183.65 L158.94,183.65 C158.79,181.76 157.89,180.815 156.255,180.815 Z M163.2,177.74 L162.3,178.115 L162.3,180.245 L160.65,180.245 L160.65,181.025 L162.3,181.025 L162.3,186.275 C162.3,186.845 162.405,187.265 162.645,187.535 C162.9,187.835 163.335,188 163.935,188 L165.03,188 L165.03,187.22 L164.055,187.22 C163.725,187.22 163.5,187.145 163.38,187.01 C163.26,186.86 163.2,186.605 163.2,186.275 L163.2,181.025 L165.225,181.025 L165.225,180.245 L163.2,180.245 L163.2,177.74 Z M169.875,180.035 C170.955,180.035 171.765,180.32 172.29,180.92 C172.74,181.415 172.98,182.105 172.98,183.005 L172.98,188 L172.125,188 L172.125,186.515 C171.81,186.965 171.39,187.355 170.88,187.655 C170.25,188.015 169.575,188.21 168.84,188.21 C168.09,188.21 167.475,188.015 167.025,187.64 C166.53,187.25 166.29,186.725 166.29,186.095 C166.29,185.195 166.65,184.535 167.385,184.115 C168.015,183.71 168.93,183.5 170.1,183.5 L172.08,183.47 L172.08,183.005 C172.08,181.535 171.33,180.8 169.83,180.8 C169.2,180.8 168.69,180.92 168.285,181.19 C167.835,181.475 167.55,181.88 167.43,182.42 L166.545,182.36 C166.695,181.58 167.085,180.98 167.715,180.59 C168.27,180.215 168.99,180.035 169.875,180.035 Z M172.08,184.175 L170.145,184.205 C168.18,184.22 167.205,184.85 167.205,186.08 C167.205,186.5 167.37,186.83 167.7,187.085 C168.03,187.34 168.48,187.475 169.02,187.475 C169.8,187.475 170.52,187.205 171.15,186.665 C171.765,186.155 172.08,185.585 172.08,184.985 L172.08,184.175 Z M175.77,177.455 C175.545,177.455 175.365,177.53 175.23,177.68 C175.08,177.8 175.005,177.98 175.005,178.205 C175.005,178.415 175.08,178.595 175.23,178.745 C175.365,178.88 175.545,178.955 175.77,178.955 C175.98,178.955 176.145,178.88 176.295,178.745 C176.445,178.595 176.535,178.415 176.535,178.205 C176.535,177.98 176.46,177.8 176.31,177.68 C176.16,177.53 175.98,177.455 175.77,177.455 Z M175.32,180.245 L175.32,188 L176.22,188 L176.22,180.245 L175.32,180.245 Z M178.845,177.08 L178.845,188 L179.745,188 L179.745,177.08 L178.845,177.08 Z M184.56,180.035 C183.75,180.035 183.06,180.215 182.52,180.59 C181.95,180.98 181.68,181.475 181.68,182.105 C181.68,182.735 181.965,183.23 182.565,183.59 C182.925,183.815 183.555,184.04 184.455,184.28 C185.34,184.505 185.91,184.685 186.18,184.82 C186.69,185.075 186.945,185.435 186.945,185.9 C186.945,186.92 186.195,187.43 184.695,187.43 C183.975,187.43 183.435,187.295 183.075,187.025 C182.685,186.725 182.445,186.23 182.355,185.555 L181.47,185.555 C181.65,187.325 182.73,188.21 184.725,188.21 C186.825,188.21 187.875,187.415 187.875,185.855 C187.875,185.195 187.56,184.67 186.945,184.295 C186.555,184.055 185.88,183.815 184.935,183.575 C184.14,183.365 183.6,183.185 183.3,183.035 C182.835,182.795 182.61,182.48 182.61,182.09 C182.61,181.7 182.79,181.4 183.15,181.16 C183.51,180.92 183.975,180.815 184.545,180.815 C185.235,180.815 185.76,180.95 186.12,181.235 C186.45,181.49 186.66,181.88 186.765,182.42 L187.65,182.42 C187.425,180.83 186.39,180.035 184.56,180.035 Z M194.31,177.08 L195.21,177.08 L195.21,181.88 C195.78,180.65 196.68,180.035 197.925,180.035 C199.005,180.035 199.875,180.44 200.505,181.28 C201.075,182.03 201.36,182.975 201.36,184.115 C201.36,185.27 201.075,186.23 200.505,186.98 C199.875,187.79 199.005,188.21 197.895,188.21 C196.605,188.21 195.69,187.625 195.165,186.47 L195.165,188 L194.31,188 L194.31,177.08 Z M197.76,180.8 C196.965,180.8 196.335,181.1 195.87,181.73 C195.405,182.33 195.18,183.095 195.18,184.055 L195.18,184.235 C195.18,185.15 195.39,185.9 195.825,186.485 C196.275,187.115 196.935,187.445 197.79,187.445 C198.66,187.445 199.335,187.115 199.815,186.455 C200.235,185.87 200.445,185.09 200.445,184.115 C200.445,183.14 200.22,182.36 199.8,181.79 C199.32,181.13 198.645,180.8 197.76,180.8 Z M202.08,180.245 L205.155,187.805 L203.85,190.97 L204.825,190.97 L209.1,180.245 L208.11,180.245 L205.605,186.71 L203.07,180.245 L202.08,180.245 Z M215.85,177.29 L215.31,183.14 L216.18,183.14 C216.42,182.69 216.765,182.33 217.215,182.075 C217.65,181.835 218.145,181.715 218.685,181.715 C219.51,181.715 220.17,181.955 220.65,182.45 C221.145,182.96 221.4,183.68 221.4,184.595 C221.4,185.405 221.13,186.08 220.605,186.62 C220.08,187.145 219.405,187.415 218.595,187.415 C217.89,187.415 217.305,187.22 216.84,186.86 C216.315,186.455 216.015,185.885 215.94,185.165 L215.025,185.165 C215.1,186.125 215.505,186.89 216.24,187.445 C216.885,187.955 217.665,188.21 218.595,188.21 C219.645,188.21 220.515,187.88 221.22,187.22 C221.94,186.53 222.315,185.645 222.315,184.595 C222.315,183.44 221.985,182.54 221.34,181.88 C220.71,181.25 219.885,180.935 218.865,180.935 C218.37,180.935 217.905,181.025 217.47,181.22 C216.99,181.415 216.6,181.7 216.285,182.075 L216.24,182.075 L216.615,178.13 L221.91,178.13 L221.91,177.29 L215.85,177.29 Z M227.67,177.08 C228.96,177.08 229.92,177.665 230.55,178.85 C231.06,179.795 231.33,181.055 231.33,182.645 C231.33,184.22 231.06,185.48 230.55,186.44 C229.92,187.61 228.96,188.21 227.67,188.21 C226.38,188.21 225.42,187.61 224.79,186.44 C224.265,185.48 224.01,184.22 224.01,182.645 C224.01,181.055 224.265,179.795 224.79,178.85 C225.42,177.665 226.38,177.08 227.67,177.08 Z M227.67,177.89 C226.635,177.89 225.885,178.415 225.435,179.48 C225.105,180.26 224.94,181.325 224.94,182.645 C224.94,183.965 225.105,185.015 225.435,185.81 C225.885,186.86 226.635,187.4 227.67,187.4 C228.69,187.4 229.44,186.86 229.905,185.81 C230.235,185.015 230.415,183.965 230.415,182.645 C230.415,181.325 230.235,180.26 229.905,179.48 C229.44,178.415 228.69,177.89 227.67,177.89 Z M239.985,177.74 L239.085,178.115 L239.085,180.245 L237.435,180.245 L237.435,181.025 L239.085,181.025 L239.085,186.275 C239.085,186.845 239.19,187.265 239.43,187.535 C239.685,187.835 240.12,188 240.72,188 L241.815,188 L241.815,187.22 L240.84,187.22 C240.51,187.22 240.285,187.145 240.165,187.01 C240.045,186.86 239.985,186.605 239.985,186.275 L239.985,181.025 L242.01,181.025 L242.01,180.245 L239.985,180.245 L239.985,177.74 Z M244.275,177.455 C244.05,177.455 243.87,177.53 243.735,177.68 C243.585,177.8 243.51,177.98 243.51,178.205 C243.51,178.415 243.585,178.595 243.735,178.745 C243.87,178.88 244.05,178.955 244.275,178.955 C244.485,178.955 244.65,178.88 244.8,178.745 C244.95,178.595 245.04,178.415 245.04,178.205 C245.04,177.98 244.965,177.8 244.815,177.68 C244.665,177.53 244.485,177.455 244.275,177.455 Z M243.825,180.245 L243.825,188 L244.725,188 L244.725,180.245 L243.825,180.245 Z M250.215,180.035 C249.27,180.035 248.52,180.485 247.965,181.415 L247.965,180.245 L247.065,180.245 L247.065,188 L247.965,188 L247.965,183.23 C247.965,182.555 248.16,181.985 248.565,181.52 C248.955,181.04 249.435,180.815 250.02,180.815 C251.31,180.815 251.955,181.55 251.955,183.05 L251.955,188 L252.87,188 L252.87,183.065 C252.87,182.405 253.05,181.88 253.44,181.46 C253.815,181.025 254.28,180.815 254.85,180.815 C255.54,180.815 256.065,181.01 256.395,181.4 C256.695,181.76 256.845,182.315 256.845,183.05 L256.845,188 L257.745,188 L257.745,182.93 C257.745,182.015 257.505,181.31 257.04,180.8 C256.56,180.29 255.9,180.035 255.09,180.035 C254.55,180.035 254.07,180.17 253.68,180.44 C253.26,180.71 252.915,181.1 252.645,181.625 C252.255,180.56 251.445,180.035 250.215,180.035 Z M262.77,180.035 C264,180.035 264.915,180.44 265.53,181.28 C266.07,182.015 266.37,183.05 266.415,184.385 L260.115,184.385 C260.16,185.33 260.415,186.08 260.88,186.62 C261.36,187.16 261.99,187.43 262.8,187.43 C263.505,187.43 264.075,187.235 264.51,186.875 C264.87,186.56 265.14,186.11 265.335,185.51 L266.25,185.51 C266.07,186.26 265.725,186.875 265.215,187.355 C264.585,187.925 263.79,188.21 262.8,188.21 C261.705,188.21 260.835,187.835 260.19,187.1 C259.515,186.35 259.185,185.345 259.185,184.115 C259.185,182.975 259.5,182.03 260.145,181.25 C260.805,180.44 261.675,180.035 262.77,180.035 Z M262.785,180.815 C262.02,180.815 261.405,181.07 260.94,181.61 C260.475,182.135 260.205,182.81 260.13,183.65 L265.47,183.65 C265.32,181.76 264.42,180.815 262.785,180.815 Z M270.495,180.035 C269.685,180.035 268.995,180.215 268.455,180.59 C267.885,180.98 267.615,181.475 267.615,182.105 C267.615,182.735 267.9,183.23 268.5,183.59 C268.86,183.815 269.49,184.04 270.39,184.28 C271.275,184.505 271.845,184.685 272.115,184.82 C272.625,185.075 272.88,185.435 272.88,185.9 C272.88,186.92 272.13,187.43 270.63,187.43 C269.91,187.43 269.37,187.295 269.01,187.025 C268.62,186.725 268.38,186.23 268.29,185.555 L267.405,185.555 C267.585,187.325 268.665,188.21 270.66,188.21 C272.76,188.21 273.81,187.415 273.81,185.855 C273.81,185.195 273.495,184.67 272.88,184.295 C272.49,184.055 271.815,183.815 270.87,183.575 C270.075,183.365 269.535,183.185 269.235,183.035 C268.77,182.795 268.545,182.48 268.545,182.09 C268.545,181.7 268.725,181.4 269.085,181.16 C269.445,180.92 269.91,180.815 270.48,180.815 C271.17,180.815 271.695,180.95 272.055,181.235 C272.385,181.49 272.595,181.88 272.7,182.42 L273.585,182.42 C273.36,180.83 272.325,180.035 270.495,180.035 Z M280.395,177.29 L280.395,188 L281.31,188 L281.31,182.87 L287.955,182.87 L287.955,188 L288.87,188 L288.87,177.29 L287.955,177.29 L287.955,182.045 L281.31,182.045 L281.31,177.29 L280.395,177.29 Z M291.06,177.29 L294.87,177.29 C296.535,177.29 297.795,177.785 298.635,178.79 C299.4,179.69 299.79,180.98 299.79,182.645 C299.79,184.28 299.355,185.57 298.5,186.515 C297.6,187.505 296.325,188 294.675,188 L291.06,188 L291.06,177.29 Z M291.975,178.1 L291.975,187.19 L294.54,187.19 C295.965,187.19 297.06,186.785 297.81,185.975 C298.53,185.195 298.89,184.085 298.89,182.645 C298.89,181.145 298.575,180.035 297.945,179.3 C297.255,178.49 296.175,178.1 294.735,178.1 L291.975,178.1 Z M309.765,180.035 C310.905,180.035 311.82,180.44 312.51,181.265 C313.14,182.03 313.455,182.99 313.455,184.13 C313.455,185.27 313.14,186.215 312.51,186.98 C311.82,187.79 310.905,188.21 309.765,188.21 C308.625,188.21 307.71,187.79 307.02,186.98 C306.39,186.215 306.075,185.27 306.075,184.13 C306.075,182.99 306.39,182.03 307.035,181.265 C307.71,180.44 308.625,180.035 309.765,180.035 Z M309.765,180.815 C308.88,180.815 308.19,181.145 307.68,181.835 C307.215,182.435 306.99,183.2 306.99,184.13 C306.99,185.045 307.215,185.81 307.68,186.41 C308.19,187.085 308.88,187.43 309.765,187.43 C310.65,187.43 311.355,187.085 311.865,186.41 C312.315,185.795 312.555,185.03 312.555,184.13 C312.555,183.2 312.315,182.435 311.865,181.835 C311.355,181.145 310.65,180.815 309.765,180.815 Z M318.63,180.035 C319.725,180.035 320.595,180.44 321.24,181.28 C321.81,182.03 322.095,182.975 322.095,184.145 C322.095,185.285 321.81,186.23 321.255,186.98 C320.625,187.79 319.77,188.21 318.66,188.21 C317.415,188.21 316.515,187.595 315.945,186.38 L315.945,190.97 L315.045,190.97 L315.045,180.245 L315.9,180.245 L315.9,181.775 C316.47,180.605 317.37,180.035 318.63,180.035 Z M318.525,180.8 C317.685,180.8 317.025,181.13 316.56,181.79 C316.125,182.375 315.915,183.14 315.915,184.085 L315.915,184.25 C315.915,185.18 316.14,185.945 316.605,186.545 C317.07,187.145 317.7,187.445 318.495,187.445 C319.38,187.445 320.055,187.115 320.535,186.485 C320.955,185.9 321.165,185.12 321.165,184.145 C321.165,183.17 320.955,182.39 320.55,181.805 C320.07,181.13 319.395,180.8 318.525,180.8 Z M325.56,177.74 L324.66,178.115 L324.66,180.245 L323.01,180.245 L323.01,181.025 L324.66,181.025 L324.66,186.275 C324.66,186.845 324.765,187.265 325.005,187.535 C325.26,187.835 325.695,188 326.295,188 L327.39,188 L327.39,187.22 L326.415,187.22 C326.085,187.22 325.86,187.145 325.74,187.01 C325.62,186.86 325.56,186.605 325.56,186.275 L325.56,181.025 L327.585,181.025 L327.585,180.245 L325.56,180.245 L325.56,177.74 Z M329.85,177.455 C329.625,177.455 329.445,177.53 329.31,177.68 C329.16,177.8 329.085,177.98 329.085,178.205 C329.085,178.415 329.16,178.595 329.31,178.745 C329.445,178.88 329.625,178.955 329.85,178.955 C330.06,178.955 330.225,178.88 330.375,178.745 C330.525,178.595 330.615,178.415 330.615,178.205 C330.615,177.98 330.54,177.8 330.39,177.68 C330.24,177.53 330.06,177.455 329.85,177.455 Z M329.4,180.245 L329.4,188 L330.3,188 L330.3,180.245 L329.4,180.245 Z M335.91,180.035 C334.785,180.035 333.9,180.44 333.255,181.265 C332.64,182.03 332.34,183.005 332.34,184.175 C332.34,185.36 332.625,186.32 333.225,187.04 C333.855,187.82 334.755,188.21 335.895,188.21 C336.825,188.21 337.59,187.955 338.16,187.46 C338.745,186.95 339.12,186.2 339.27,185.225 L338.385,185.225 C338.16,186.695 337.335,187.43 335.895,187.43 C335.04,187.43 334.38,187.13 333.93,186.545 C333.48,185.96 333.255,185.165 333.255,184.175 C333.255,183.17 333.48,182.36 333.96,181.76 C334.44,181.13 335.1,180.815 335.91,180.815 C336.585,180.815 337.14,180.98 337.56,181.31 C337.98,181.64 338.235,182.12 338.34,182.78 L339.24,182.78 C339.12,181.85 338.76,181.16 338.175,180.71 C337.59,180.26 336.84,180.035 335.91,180.035 Z M343.995,180.035 C345.075,180.035 345.885,180.32 346.41,180.92 C346.86,181.415 347.1,182.105 347.1,183.005 L347.1,188 L346.245,188 L346.245,186.515 C345.93,186.965 345.51,187.355 345,187.655 C344.37,188.015 343.695,188.21 342.96,188.21 C342.21,188.21 341.595,188.015 341.145,187.64 C340.65,187.25 340.41,186.725 340.41,186.095 C340.41,185.195 340.77,184.535 341.505,184.115 C342.135,183.71 343.05,183.5 344.22,183.5 L346.2,183.47 L346.2,183.005 C346.2,181.535 345.45,180.8 343.95,180.8 C343.32,180.8 342.81,180.92 342.405,181.19 C341.955,181.475 341.67,181.88 341.55,182.42 L340.665,182.36 C340.815,181.58 341.205,180.98 341.835,180.59 C342.39,180.215 343.11,180.035 343.995,180.035 Z M346.2,184.175 L344.265,184.205 C342.3,184.22 341.325,184.85 341.325,186.08 C341.325,186.5 341.49,186.83 341.82,187.085 C342.15,187.34 342.6,187.475 343.14,187.475 C343.92,187.475 344.64,187.205 345.27,186.665 C345.885,186.155 346.2,185.585 346.2,184.985 L346.2,184.175 Z M349.275,177.08 L349.275,188 L350.175,188 L350.175,177.08 L349.275,177.08 Z M357.63,177.08 L357.63,188 L358.53,188 L358.53,177.08 L357.63,177.08 Z M363.84,180.035 C365.07,180.035 365.985,180.44 366.6,181.28 C367.14,182.015 367.44,183.05 367.485,184.385 L361.185,184.385 C361.23,185.33 361.485,186.08 361.95,186.62 C362.43,187.16 363.06,187.43 363.87,187.43 C364.575,187.43 365.145,187.235 365.58,186.875 C365.94,186.56 366.21,186.11 366.405,185.51 L367.32,185.51 C367.14,186.26 366.795,186.875 366.285,187.355 C365.655,187.925 364.86,188.21 363.87,188.21 C362.775,188.21 361.905,187.835 361.26,187.1 C360.585,186.35 360.255,185.345 360.255,184.115 C360.255,182.975 360.57,182.03 361.215,181.25 C361.875,180.44 362.745,180.035 363.84,180.035 Z M363.855,180.815 C363.09,180.815 362.475,181.07 362.01,181.61 C361.545,182.135 361.275,182.81 361.2,183.65 L366.54,183.65 C366.39,181.76 365.49,180.815 363.855,180.815 Z M372.345,180.035 C371.805,180.035 371.31,180.155 370.875,180.425 C370.44,180.695 370.095,181.055 369.825,181.52 L369.825,180.245 L368.925,180.245 L368.925,188 L369.825,188 L369.825,183.32 C369.87,182.555 370.11,181.94 370.56,181.49 C370.98,181.04 371.49,180.815 372.12,180.815 C373.59,180.815 374.325,181.64 374.325,183.29 L374.325,188 L375.225,188 L375.225,183.23 C375.225,181.1 374.265,180.035 372.345,180.035 Z M379.755,180.035 C378.945,180.035 378.255,180.215 377.715,180.59 C377.145,180.98 376.875,181.475 376.875,182.105 C376.875,182.735 377.16,183.23 377.76,183.59 C378.12,183.815 378.75,184.04 379.65,184.28 C380.535,184.505 381.105,184.685 381.375,184.82 C381.885,185.075 382.14,185.435 382.14,185.9 C382.14,186.92 381.39,187.43 379.89,187.43 C379.17,187.43 378.63,187.295 378.27,187.025 C377.88,186.725 377.64,186.23 377.55,185.555 L376.665,185.555 C376.845,187.325 377.925,188.21 379.92,188.21 C382.02,188.21 383.07,187.415 383.07,185.855 C383.07,185.195 382.755,184.67 382.14,184.295 C381.75,184.055 381.075,183.815 380.13,183.575 C379.335,183.365 378.795,183.185 378.495,183.035 C378.03,182.795 377.805,182.48 377.805,182.09 C377.805,181.7 377.985,181.4 378.345,181.16 C378.705,180.92 379.17,180.815 379.74,180.815 C380.43,180.815 380.955,180.95 381.315,181.235 C381.645,181.49 381.855,181.88 381.96,182.42 L382.845,182.42 C382.62,180.83 381.585,180.035 379.755,180.035 Z" id="observation-the-skin"></path>
                    </g>
                </g>
            </g>
        </g>
    </g>
</svg>