<?xml version="1.0" encoding="UTF-8"?>
<svg width="501px" height="47px" viewBox="0 0 501 47" version="1.1" xmlns="http://www.w3.org/2000/svg" xmlns:xlink="http://www.w3.org/1999/xlink">
    <!-- Generator: Sketch 46 (44423) - http://www.bohemiancoding.com/sketch -->
    <title>txt3-1</title>
    <desc>Created with Sketch.</desc>
    <defs></defs>
    <g id="Page-1" stroke="none" stroke-width="1" fill="none" fill-rule="evenodd">
        <g id="首页-英文" transform="translate(-469.000000, -2214.000000)" fill="#38393B">
            <g id="3" transform="translate(-1.000000, 2048.000000)">
                <g id="标题" transform="translate(467.000000, 160.000000)">
                    <g id="Group-33">
                        <path d="M3.65,7.3 L16.35,7.3 C21.9,7.3 26.1,8.95 28.9,12.3 C31.45,15.3 32.75,19.6 32.75,25.15 C32.75,30.6 31.3,34.9 28.45,38.05 C25.45,41.35 21.2,43 15.7,43 L3.65,43 L3.65,7.3 Z M6.7,10 L6.7,40.3 L15.25,40.3 C20,40.3 23.65,38.95 26.15,36.25 C28.55,33.65 29.75,29.95 29.75,25.15 C29.75,20.15 28.7,16.45 26.6,14 C24.3,11.3 20.7,10 15.9,10 L6.7,10 Z M48.5,16.45 C52.6,16.45 55.65,17.8 57.7,20.6 C59.5,23.05 60.5,26.5 60.65,30.95 L39.65,30.95 C39.8,34.1 40.65,36.6 42.2,38.4 C43.8,40.2 45.9,41.1 48.6,41.1 C50.95,41.1 52.85,40.45 54.3,39.25 C55.5,38.2 56.4,36.7 57.05,34.7 L60.1,34.7 C59.5,37.2 58.35,39.25 56.65,40.85 C54.55,42.75 51.9,43.7 48.6,43.7 C44.95,43.7 42.05,42.45 39.9,40 C37.65,37.5 36.55,34.15 36.55,30.05 C36.55,26.25 37.6,23.1 39.75,20.5 C41.95,17.8 44.85,16.45 48.5,16.45 Z M48.55,19.05 C46,19.05 43.95,19.9 42.4,21.7 C40.85,23.45 39.95,25.7 39.7,28.5 L57.5,28.5 C57,22.2 54,19.05 48.55,19.05 Z M75.9,16.45 C80,16.45 83.05,17.8 85.1,20.6 C86.9,23.05 87.9,26.5 88.05,30.95 L67.05,30.95 C67.2,34.1 68.05,36.6 69.6,38.4 C71.2,40.2 73.3,41.1 76,41.1 C78.35,41.1 80.25,40.45 81.7,39.25 C82.9,38.2 83.8,36.7 84.45,34.7 L87.5,34.7 C86.9,37.2 85.75,39.25 84.05,40.85 C81.95,42.75 79.3,43.7 76,43.7 C72.35,43.7 69.45,42.45 67.3,40 C65.05,37.5 63.95,34.15 63.95,30.05 C63.95,26.25 65,23.1 67.15,20.5 C69.35,17.8 72.25,16.45 75.9,16.45 Z M75.95,19.05 C73.4,19.05 71.35,19.9 69.8,21.7 C68.25,23.45 67.35,25.7 67.1,28.5 L84.9,28.5 C84.4,22.2 81.4,19.05 75.95,19.05 Z M104.8,16.45 C108.45,16.45 111.35,17.8 113.5,20.6 C115.4,23.1 116.35,26.25 116.35,30.15 C116.35,33.95 115.4,37.1 113.55,39.6 C111.45,42.3 108.6,43.7 104.9,43.7 C100.75,43.7 97.75,41.65 95.85,37.6 L95.85,52.9 L92.85,52.9 L92.85,17.15 L95.7,17.15 L95.7,22.25 C97.6,18.35 100.6,16.45 104.8,16.45 Z M104.45,19 C101.65,19 99.45,20.1 97.9,22.3 C96.45,24.25 95.75,26.8 95.75,29.95 L95.75,30.5 C95.75,33.6 96.5,36.15 98.05,38.15 C99.6,40.15 101.7,41.15 104.35,41.15 C107.3,41.15 109.55,40.05 111.15,37.95 C112.55,36 113.25,33.4 113.25,30.15 C113.25,26.9 112.55,24.3 111.2,22.35 C109.6,20.1 107.35,19 104.45,19 Z M147.1,16.45 C144.4,16.45 142.1,17.05 140.3,18.3 C138.4,19.6 137.5,21.25 137.5,23.35 C137.5,25.45 138.45,27.1 140.45,28.3 C141.65,29.05 143.75,29.8 146.75,30.6 C149.7,31.35 151.6,31.95 152.5,32.4 C154.2,33.25 155.05,34.45 155.05,36 C155.05,39.4 152.55,41.1 147.55,41.1 C145.15,41.1 143.35,40.65 142.15,39.75 C140.85,38.75 140.05,37.1 139.75,34.85 L136.8,34.85 C137.4,40.75 141,43.7 147.65,43.7 C154.65,43.7 158.15,41.05 158.15,35.85 C158.15,33.65 157.1,31.9 155.05,30.65 C153.75,29.85 151.5,29.05 148.35,28.25 C145.7,27.55 143.9,26.95 142.9,26.45 C141.35,25.65 140.6,24.6 140.6,23.3 C140.6,22 141.2,21 142.4,20.2 C143.6,19.4 145.15,19.05 147.05,19.05 C149.35,19.05 151.1,19.5 152.3,20.45 C153.4,21.3 154.1,22.6 154.45,24.4 L157.4,24.4 C156.65,19.1 153.2,16.45 147.1,16.45 Z M162.95,6.6 L162.95,43 L165.95,43 L165.95,33.85 L170.9,29.35 L181.6,43 L185.55,43 L173.05,27.4 L184.4,17.15 L180.3,17.15 L165.95,30.2 L165.95,6.6 L162.95,6.6 Z M191.7,7.85 C190.95,7.85 190.35,8.1 189.9,8.6 C189.4,9 189.15,9.6 189.15,10.35 C189.15,11.05 189.4,11.65 189.9,12.15 C190.35,12.6 190.95,12.85 191.7,12.85 C192.4,12.85 192.95,12.6 193.45,12.15 C193.95,11.65 194.25,11.05 194.25,10.35 C194.25,9.6 194,9 193.5,8.6 C193,8.1 192.4,7.85 191.7,7.85 Z M190.2,17.15 L190.2,43 L193.2,43 L193.2,17.15 L190.2,17.15 Z M212.4,16.45 C210.6,16.45 208.95,16.85 207.5,17.75 C206.05,18.65 204.9,19.85 204,21.4 L204,17.15 L201,17.15 L201,43 L204,43 L204,27.4 C204.15,24.85 204.95,22.8 206.45,21.3 C207.85,19.8 209.55,19.05 211.65,19.05 C216.55,19.05 219,21.8 219,27.3 L219,43 L222,43 L222,27.1 C222,20 218.8,16.45 212.4,16.45 Z M256.25,16.45 C260.05,16.45 263.1,17.8 265.4,20.55 C267.5,23.1 268.55,26.3 268.55,30.1 C268.55,33.9 267.5,37.05 265.4,39.6 C263.1,42.3 260.05,43.7 256.25,43.7 C252.45,43.7 249.4,42.3 247.1,39.6 C245,37.05 243.95,33.9 243.95,30.1 C243.95,26.3 245,23.1 247.15,20.55 C249.4,17.8 252.45,16.45 256.25,16.45 Z M256.25,19.05 C253.3,19.05 251,20.15 249.3,22.45 C247.75,24.45 247,27 247,30.1 C247,33.15 247.75,35.7 249.3,37.7 C251,39.95 253.3,41.1 256.25,41.1 C259.2,41.1 261.55,39.95 263.25,37.7 C264.75,35.65 265.55,33.1 265.55,30.1 C265.55,27 264.75,24.45 263.25,22.45 C261.55,20.15 259.2,19.05 256.25,19.05 Z M273.85,6.6 L276.85,6.6 L276.85,22.6 C278.75,18.5 281.75,16.45 285.9,16.45 C289.5,16.45 292.4,17.8 294.5,20.6 C296.4,23.1 297.35,26.25 297.35,30.05 C297.35,33.9 296.4,37.1 294.5,39.6 C292.4,42.3 289.5,43.7 285.8,43.7 C281.5,43.7 278.45,41.75 276.7,37.9 L276.7,43 L273.85,43 L273.85,6.6 Z M285.35,19 C282.7,19 280.6,20 279.05,22.1 C277.5,24.1 276.75,26.65 276.75,29.85 L276.75,30.45 C276.75,33.5 277.45,36 278.9,37.95 C280.4,40.05 282.6,41.15 285.45,41.15 C288.35,41.15 290.6,40.05 292.2,37.85 C293.6,35.9 294.3,33.3 294.3,30.05 C294.3,26.8 293.55,24.2 292.15,22.3 C290.55,20.1 288.3,19 285.35,19 Z M311.45,16.45 C308.75,16.45 306.45,17.05 304.65,18.3 C302.75,19.6 301.85,21.25 301.85,23.35 C301.85,25.45 302.8,27.1 304.8,28.3 C306,29.05 308.1,29.8 311.1,30.6 C314.05,31.35 315.95,31.95 316.85,32.4 C318.55,33.25 319.4,34.45 319.4,36 C319.4,39.4 316.9,41.1 311.9,41.1 C309.5,41.1 307.7,40.65 306.5,39.75 C305.2,38.75 304.4,37.1 304.1,34.85 L301.15,34.85 C301.75,40.75 305.35,43.7 312,43.7 C319,43.7 322.5,41.05 322.5,35.85 C322.5,33.65 321.45,31.9 319.4,30.65 C318.1,29.85 315.85,29.05 312.7,28.25 C310.05,27.55 308.25,26.95 307.25,26.45 C305.7,25.65 304.95,24.6 304.95,23.3 C304.95,22 305.55,21 306.75,20.2 C307.95,19.4 309.5,19.05 311.4,19.05 C313.7,19.05 315.45,19.5 316.65,20.45 C317.75,21.3 318.45,22.6 318.8,24.4 L321.75,24.4 C321,19.1 317.55,16.45 311.45,16.45 Z M337.75,16.45 C341.85,16.45 344.9,17.8 346.95,20.6 C348.75,23.05 349.75,26.5 349.9,30.95 L328.9,30.95 C329.05,34.1 329.9,36.6 331.45,38.4 C333.05,40.2 335.15,41.1 337.85,41.1 C340.2,41.1 342.1,40.45 343.55,39.25 C344.75,38.2 345.65,36.7 346.3,34.7 L349.35,34.7 C348.75,37.2 347.6,39.25 345.9,40.85 C343.8,42.75 341.15,43.7 337.85,43.7 C334.2,43.7 331.3,42.45 329.15,40 C326.9,37.5 325.8,34.15 325.8,30.05 C325.8,26.25 326.85,23.1 329,20.5 C331.2,17.8 334.1,16.45 337.75,16.45 Z M337.8,19.05 C335.25,19.05 333.2,19.9 331.65,21.7 C330.1,23.45 329.2,25.7 328.95,28.5 L346.75,28.5 C346.25,22.2 343.25,19.05 337.8,19.05 Z M365.55,16.45 C363.65,16.45 361.95,17.05 360.55,18.25 C359.35,19.2 358.4,20.5 357.7,22.1 L357.7,17.15 L354.7,17.15 L354.7,43 L357.7,43 L357.7,29.35 C357.7,26.75 358.35,24.5 359.75,22.6 C361.15,20.5 363.05,19.5 365.35,19.5 C366.65,19.5 367.95,19.65 369.3,20.05 L369.3,17 C368.3,16.6 367.05,16.45 365.55,16.45 Z M369.8,17.15 L379.7,43 L382.8,43 L392.7,17.15 L389.35,17.15 L381.25,39.2 L373.1,17.15 L369.8,17.15 Z M407.05,16.45 C410.65,16.45 413.35,17.4 415.1,19.4 C416.6,21.05 417.4,23.35 417.4,26.35 L417.4,43 L414.55,43 L414.55,38.05 C413.5,39.55 412.1,40.85 410.4,41.85 C408.3,43.05 406.05,43.7 403.6,43.7 C401.1,43.7 399.05,43.05 397.55,41.8 C395.9,40.5 395.1,38.75 395.1,36.65 C395.1,33.65 396.3,31.45 398.75,30.05 C400.85,28.7 403.9,28 407.8,28 L414.4,27.9 L414.4,26.35 C414.4,21.45 411.9,19 406.9,19 C404.8,19 403.1,19.4 401.75,20.3 C400.25,21.25 399.3,22.6 398.9,24.4 L395.95,24.2 C396.45,21.6 397.75,19.6 399.85,18.3 C401.7,17.05 404.1,16.45 407.05,16.45 Z M414.4,30.25 L407.95,30.35 C401.4,30.4 398.15,32.5 398.15,36.6 C398.15,38 398.7,39.1 399.8,39.95 C400.9,40.8 402.4,41.25 404.2,41.25 C406.8,41.25 409.2,40.35 411.3,38.55 C413.35,36.85 414.4,34.95 414.4,32.95 L414.4,30.25 Z M429.95,8.8 L426.95,10.05 L426.95,17.15 L421.45,17.15 L421.45,19.75 L426.95,19.75 L426.95,37.25 C426.95,39.15 427.3,40.55 428.1,41.45 C428.95,42.45 430.4,43 432.4,43 L436.05,43 L436.05,40.4 L432.8,40.4 C431.7,40.4 430.95,40.15 430.55,39.7 C430.15,39.2 429.95,38.35 429.95,37.25 L429.95,19.75 L436.7,19.75 L436.7,17.15 L429.95,17.15 L429.95,8.8 Z M444.25,7.85 C443.5,7.85 442.9,8.1 442.45,8.6 C441.95,9 441.7,9.6 441.7,10.35 C441.7,11.05 441.95,11.65 442.45,12.15 C442.9,12.6 443.5,12.85 444.25,12.85 C444.95,12.85 445.5,12.6 446,12.15 C446.5,11.65 446.8,11.05 446.8,10.35 C446.8,9.6 446.55,9 446.05,8.6 C445.55,8.1 444.95,7.85 444.25,7.85 Z M442.75,17.15 L442.75,43 L445.75,43 L445.75,17.15 L442.75,17.15 Z M464.85,16.45 C468.65,16.45 471.7,17.8 474,20.55 C476.1,23.1 477.15,26.3 477.15,30.1 C477.15,33.9 476.1,37.05 474,39.6 C471.7,42.3 468.65,43.7 464.85,43.7 C461.05,43.7 458,42.3 455.7,39.6 C453.6,37.05 452.55,33.9 452.55,30.1 C452.55,26.3 453.6,23.1 455.75,20.55 C458,17.8 461.05,16.45 464.85,16.45 Z M464.85,19.05 C461.9,19.05 459.6,20.15 457.9,22.45 C456.35,24.45 455.6,27 455.6,30.1 C455.6,33.15 456.35,35.7 457.9,37.7 C459.6,39.95 461.9,41.1 464.85,41.1 C467.8,41.1 470.15,39.95 471.85,37.7 C473.35,35.65 474.15,33.1 474.15,30.1 C474.15,27 473.35,24.45 471.85,22.45 C470.15,20.15 467.8,19.05 464.85,19.05 Z M493.85,16.45 C492.05,16.45 490.4,16.85 488.95,17.75 C487.5,18.65 486.35,19.85 485.45,21.4 L485.45,17.15 L482.45,17.15 L482.45,43 L485.45,43 L485.45,27.4 C485.6,24.85 486.4,22.8 487.9,21.3 C489.3,19.8 491,19.05 493.1,19.05 C498,19.05 500.45,21.8 500.45,27.3 L500.45,43 L503.45,43 L503.45,27.1 C503.45,20 500.25,16.45 493.85,16.45 Z" id="txt3-1"></path>
                    </g>
                </g>
            </g>
        </g>
    </g>
</svg>