<?xml version="1.0" encoding="UTF-8"?>
<svg width="342px" height="16px" viewBox="0 0 342 16" version="1.1" xmlns="http://www.w3.org/2000/svg" xmlns:xlink="http://www.w3.org/1999/xlink">
    <!-- Generator: Sketch 46 (44423) - http://www.bohemiancoding.com/sketch -->
    <title>txt4-3</title>
    <desc>Created with Sketch.</desc>
    <defs></defs>
    <g id="Page-1" stroke="none" stroke-width="1" fill="none" fill-rule="evenodd">
        <g id="首页-英文" transform="translate(-943.000000, -3570.000000)" fill="#777777">
            <g id="4" transform="translate(-5.000000, 3073.000000)">
                <g id="文字" transform="translate(826.000000, 322.000000)">
                    <path d="M122.095,177.29 L122.095,188 L123.01,188 L123.01,178.805 L123.07,178.805 L127.075,188 L127.96,188 L131.98,178.805 L132.025,178.805 L132.025,188 L132.94,188 L132.94,177.29 L131.725,177.29 L127.555,186.845 L127.51,186.845 L123.31,177.29 L122.095,177.29 Z M138.37,180.035 C139.51,180.035 140.425,180.44 141.115,181.265 C141.745,182.03 142.06,182.99 142.06,184.13 C142.06,185.27 141.745,186.215 141.115,186.98 C140.425,187.79 139.51,188.21 138.37,188.21 C137.23,188.21 136.315,187.79 135.625,186.98 C134.995,186.215 134.68,185.27 134.68,184.13 C134.68,182.99 134.995,182.03 135.64,181.265 C136.315,180.44 137.23,180.035 138.37,180.035 Z M138.37,180.815 C137.485,180.815 136.795,181.145 136.285,181.835 C135.82,182.435 135.595,183.2 135.595,184.13 C135.595,185.045 135.82,185.81 136.285,186.41 C136.795,187.085 137.485,187.43 138.37,187.43 C139.255,187.43 139.96,187.085 140.47,186.41 C140.92,185.795 141.16,185.03 141.16,184.13 C141.16,183.2 140.92,182.435 140.47,181.835 C139.96,181.145 139.255,180.815 138.37,180.815 Z M144.55,177.455 C144.325,177.455 144.145,177.53 144.01,177.68 C143.86,177.8 143.785,177.98 143.785,178.205 C143.785,178.415 143.86,178.595 144.01,178.745 C144.145,178.88 144.325,178.955 144.55,178.955 C144.76,178.955 144.925,178.88 145.075,178.745 C145.225,178.595 145.315,178.415 145.315,178.205 C145.315,177.98 145.24,177.8 145.09,177.68 C144.94,177.53 144.76,177.455 144.55,177.455 Z M144.1,180.245 L144.1,188 L145,188 L145,180.245 L144.1,180.245 Z M149.98,180.035 C149.17,180.035 148.48,180.215 147.94,180.59 C147.37,180.98 147.1,181.475 147.1,182.105 C147.1,182.735 147.385,183.23 147.985,183.59 C148.345,183.815 148.975,184.04 149.875,184.28 C150.76,184.505 151.33,184.685 151.6,184.82 C152.11,185.075 152.365,185.435 152.365,185.9 C152.365,186.92 151.615,187.43 150.115,187.43 C149.395,187.43 148.855,187.295 148.495,187.025 C148.105,186.725 147.865,186.23 147.775,185.555 L146.89,185.555 C147.07,187.325 148.15,188.21 150.145,188.21 C152.245,188.21 153.295,187.415 153.295,185.855 C153.295,185.195 152.98,184.67 152.365,184.295 C151.975,184.055 151.3,183.815 150.355,183.575 C149.56,183.365 149.02,183.185 148.72,183.035 C148.255,182.795 148.03,182.48 148.03,182.09 C148.03,181.7 148.21,181.4 148.57,181.16 C148.93,180.92 149.395,180.815 149.965,180.815 C150.655,180.815 151.18,180.95 151.54,181.235 C151.87,181.49 152.08,181.88 152.185,182.42 L153.07,182.42 C152.845,180.83 151.81,180.035 149.98,180.035 Z M156.61,177.74 L155.71,178.115 L155.71,180.245 L154.06,180.245 L154.06,181.025 L155.71,181.025 L155.71,186.275 C155.71,186.845 155.815,187.265 156.055,187.535 C156.31,187.835 156.745,188 157.345,188 L158.44,188 L158.44,187.22 L157.465,187.22 C157.135,187.22 156.91,187.145 156.79,187.01 C156.67,186.86 156.61,186.605 156.61,186.275 L156.61,181.025 L158.635,181.025 L158.635,180.245 L156.61,180.245 L156.61,177.74 Z M160,180.245 L160,185.03 C160,187.145 160.945,188.21 162.835,188.21 C163.945,188.21 164.815,187.7 165.415,186.695 L165.415,188 L166.315,188 L166.315,180.245 L165.415,180.245 L165.415,184.955 C165.355,185.69 165.1,186.29 164.65,186.74 C164.2,187.19 163.675,187.43 163.075,187.43 C162.325,187.43 161.77,187.22 161.41,186.8 C161.065,186.395 160.9,185.795 160.9,184.985 L160.9,180.245 L160,180.245 Z M171.46,180.035 C170.89,180.035 170.38,180.215 169.96,180.575 C169.6,180.86 169.315,181.25 169.105,181.73 L169.105,180.245 L168.205,180.245 L168.205,188 L169.105,188 L169.105,183.905 C169.105,183.125 169.3,182.45 169.72,181.88 C170.14,181.25 170.71,180.95 171.4,180.95 C171.79,180.95 172.18,180.995 172.585,181.115 L172.585,180.2 C172.285,180.08 171.91,180.035 171.46,180.035 Z M176.74,180.035 C177.97,180.035 178.885,180.44 179.5,181.28 C180.04,182.015 180.34,183.05 180.385,184.385 L174.085,184.385 C174.13,185.33 174.385,186.08 174.85,186.62 C175.33,187.16 175.96,187.43 176.77,187.43 C177.475,187.43 178.045,187.235 178.48,186.875 C178.84,186.56 179.11,186.11 179.305,185.51 L180.22,185.51 C180.04,186.26 179.695,186.875 179.185,187.355 C178.555,187.925 177.76,188.21 176.77,188.21 C175.675,188.21 174.805,187.835 174.16,187.1 C173.485,186.35 173.155,185.345 173.155,184.115 C173.155,182.975 173.47,182.03 174.115,181.25 C174.775,180.44 175.645,180.035 176.74,180.035 Z M176.755,180.815 C175.99,180.815 175.375,181.07 174.91,181.61 C174.445,182.135 174.175,182.81 174.1,183.65 L179.44,183.65 C179.29,181.76 178.39,180.815 176.755,180.815 Z M186.91,175.7 L181.525,189.5 L182.35,189.5 L187.735,175.7 L186.91,175.7 Z M194.11,177.08 C195.685,177.08 196.93,177.62 197.86,178.7 C198.73,179.72 199.165,181.025 199.165,182.645 C199.165,184.265 198.73,185.585 197.86,186.605 C196.93,187.67 195.685,188.21 194.095,188.21 C192.505,188.21 191.245,187.67 190.33,186.59 C189.46,185.57 189.025,184.25 189.025,182.645 C189.025,181.04 189.46,179.72 190.33,178.7 C191.26,177.62 192.52,177.08 194.11,177.08 Z M194.11,177.92 C192.805,177.92 191.77,178.37 191.02,179.27 C190.3,180.14 189.94,181.265 189.94,182.645 C189.94,184.04 190.285,185.165 191.005,186.02 C191.755,186.92 192.79,187.37 194.095,187.37 C195.4,187.37 196.42,186.92 197.17,186.035 C197.89,185.18 198.25,184.055 198.25,182.645 C198.25,181.235 197.89,180.095 197.17,179.255 C196.42,178.355 195.4,177.92 194.11,177.92 Z M201.655,177.455 C201.43,177.455 201.25,177.53 201.115,177.68 C200.965,177.8 200.89,177.98 200.89,178.205 C200.89,178.415 200.965,178.595 201.115,178.745 C201.25,178.88 201.43,178.955 201.655,178.955 C201.865,178.955 202.03,178.88 202.18,178.745 C202.33,178.595 202.42,178.415 202.42,178.205 C202.42,177.98 202.345,177.8 202.195,177.68 C202.045,177.53 201.865,177.455 201.655,177.455 Z M201.205,180.245 L201.205,188 L202.105,188 L202.105,180.245 L201.205,180.245 Z M204.73,177.08 L204.73,188 L205.63,188 L205.63,177.08 L204.73,177.08 Z M212.89,175.7 L207.505,189.5 L208.33,189.5 L213.715,175.7 L212.89,175.7 Z M218.95,177.08 C217.87,177.08 216.97,177.305 216.28,177.77 C215.5,178.265 215.125,178.97 215.125,179.9 C215.125,180.77 215.53,181.445 216.355,181.91 C216.715,182.12 217.54,182.405 218.815,182.765 C220.03,183.095 220.81,183.38 221.17,183.59 C221.89,183.995 222.265,184.565 222.265,185.3 C222.265,185.93 221.965,186.44 221.395,186.815 C220.81,187.175 220.045,187.37 219.1,187.37 C218.11,187.37 217.345,187.145 216.805,186.71 C216.205,186.215 215.86,185.465 215.755,184.46 L214.855,184.46 C214.945,185.75 215.395,186.725 216.205,187.37 C216.91,187.925 217.885,188.21 219.115,188.21 C220.33,188.21 221.305,187.955 222.04,187.445 C222.805,186.905 223.195,186.17 223.195,185.255 C223.195,184.28 222.745,183.53 221.86,183.005 C221.38,182.705 220.465,182.375 219.1,181.985 C218.05,181.685 217.36,181.445 217.045,181.295 C216.37,180.935 216.04,180.47 216.04,179.87 C216.04,179.195 216.31,178.685 216.88,178.355 C217.375,178.055 218.05,177.905 218.92,177.905 C219.85,177.905 220.57,178.115 221.08,178.55 C221.59,178.985 221.905,179.615 222.025,180.455 L222.94,180.455 C222.85,179.345 222.445,178.505 221.74,177.935 C221.05,177.365 220.12,177.08 218.95,177.08 Z M227.77,180.035 C229,180.035 229.915,180.44 230.53,181.28 C231.07,182.015 231.37,183.05 231.415,184.385 L225.115,184.385 C225.16,185.33 225.415,186.08 225.88,186.62 C226.36,187.16 226.99,187.43 227.8,187.43 C228.505,187.43 229.075,187.235 229.51,186.875 C229.87,186.56 230.14,186.11 230.335,185.51 L231.25,185.51 C231.07,186.26 230.725,186.875 230.215,187.355 C229.585,187.925 228.79,188.21 227.8,188.21 C226.705,188.21 225.835,187.835 225.19,187.1 C224.515,186.35 224.185,185.345 224.185,184.115 C224.185,182.975 224.5,182.03 225.145,181.25 C225.805,180.44 226.675,180.035 227.77,180.035 Z M227.785,180.815 C227.02,180.815 226.405,181.07 225.94,181.61 C225.475,182.135 225.205,182.81 225.13,183.65 L230.47,183.65 C230.32,181.76 229.42,180.815 227.785,180.815 Z M236.275,180.035 C235.735,180.035 235.24,180.155 234.805,180.425 C234.37,180.695 234.025,181.055 233.755,181.52 L233.755,180.245 L232.855,180.245 L232.855,188 L233.755,188 L233.755,183.32 C233.8,182.555 234.04,181.94 234.49,181.49 C234.91,181.04 235.42,180.815 236.05,180.815 C237.52,180.815 238.255,181.64 238.255,183.29 L238.255,188 L239.155,188 L239.155,183.23 C239.155,181.1 238.195,180.035 236.275,180.035 Z M243.685,180.035 C242.875,180.035 242.185,180.215 241.645,180.59 C241.075,180.98 240.805,181.475 240.805,182.105 C240.805,182.735 241.09,183.23 241.69,183.59 C242.05,183.815 242.68,184.04 243.58,184.28 C244.465,184.505 245.035,184.685 245.305,184.82 C245.815,185.075 246.07,185.435 246.07,185.9 C246.07,186.92 245.32,187.43 243.82,187.43 C243.1,187.43 242.56,187.295 242.2,187.025 C241.81,186.725 241.57,186.23 241.48,185.555 L240.595,185.555 C240.775,187.325 241.855,188.21 243.85,188.21 C245.95,188.21 247,187.415 247,185.855 C247,185.195 246.685,184.67 246.07,184.295 C245.68,184.055 245.005,183.815 244.06,183.575 C243.265,183.365 242.725,183.185 242.425,183.035 C241.96,182.795 241.735,182.48 241.735,182.09 C241.735,181.7 241.915,181.4 242.275,181.16 C242.635,180.92 243.1,180.815 243.67,180.815 C244.36,180.815 244.885,180.95 245.245,181.235 C245.575,181.49 245.785,181.88 245.89,182.42 L246.775,182.42 C246.55,180.83 245.515,180.035 243.685,180.035 Z M249.34,177.455 C249.115,177.455 248.935,177.53 248.8,177.68 C248.65,177.8 248.575,177.98 248.575,178.205 C248.575,178.415 248.65,178.595 248.8,178.745 C248.935,178.88 249.115,178.955 249.34,178.955 C249.55,178.955 249.715,178.88 249.865,178.745 C250.015,178.595 250.105,178.415 250.105,178.205 C250.105,177.98 250.03,177.8 249.88,177.68 C249.73,177.53 249.55,177.455 249.34,177.455 Z M248.89,180.245 L248.89,188 L249.79,188 L249.79,180.245 L248.89,180.245 Z M254.005,177.74 L253.105,178.115 L253.105,180.245 L251.455,180.245 L251.455,181.025 L253.105,181.025 L253.105,186.275 C253.105,186.845 253.21,187.265 253.45,187.535 C253.705,187.835 254.14,188 254.74,188 L255.835,188 L255.835,187.22 L254.86,187.22 C254.53,187.22 254.305,187.145 254.185,187.01 C254.065,186.86 254.005,186.605 254.005,186.275 L254.005,181.025 L256.03,181.025 L256.03,180.245 L254.005,180.245 L254.005,177.74 Z M258.295,177.455 C258.07,177.455 257.89,177.53 257.755,177.68 C257.605,177.8 257.53,177.98 257.53,178.205 C257.53,178.415 257.605,178.595 257.755,178.745 C257.89,178.88 258.07,178.955 258.295,178.955 C258.505,178.955 258.67,178.88 258.82,178.745 C258.97,178.595 259.06,178.415 259.06,178.205 C259.06,177.98 258.985,177.8 258.835,177.68 C258.685,177.53 258.505,177.455 258.295,177.455 Z M257.845,180.245 L257.845,188 L258.745,188 L258.745,180.245 L257.845,180.245 Z M260.215,180.245 L263.185,188 L264.115,188 L267.085,180.245 L266.08,180.245 L263.65,186.86 L261.205,180.245 L260.215,180.245 Z M269.005,177.455 C268.78,177.455 268.6,177.53 268.465,177.68 C268.315,177.8 268.24,177.98 268.24,178.205 C268.24,178.415 268.315,178.595 268.465,178.745 C268.6,178.88 268.78,178.955 269.005,178.955 C269.215,178.955 269.38,178.88 269.53,178.745 C269.68,178.595 269.77,178.415 269.77,178.205 C269.77,177.98 269.695,177.8 269.545,177.68 C269.395,177.53 269.215,177.455 269.005,177.455 Z M268.555,180.245 L268.555,188 L269.455,188 L269.455,180.245 L268.555,180.245 Z M273.67,177.74 L272.77,178.115 L272.77,180.245 L271.12,180.245 L271.12,181.025 L272.77,181.025 L272.77,186.275 C272.77,186.845 272.875,187.265 273.115,187.535 C273.37,187.835 273.805,188 274.405,188 L275.5,188 L275.5,187.22 L274.525,187.22 C274.195,187.22 273.97,187.145 273.85,187.01 C273.73,186.86 273.67,186.605 273.67,186.275 L273.67,181.025 L275.695,181.025 L275.695,180.245 L273.67,180.245 L273.67,177.74 Z M276.19,180.245 L279.265,187.805 L277.96,190.97 L278.935,190.97 L283.21,180.245 L282.22,180.245 L279.715,186.71 L277.18,180.245 L276.19,180.245 Z M289.315,175.7 L283.93,189.5 L284.755,189.5 L290.14,175.7 L289.315,175.7 Z M291.88,177.29 L296.23,177.29 C298.6,177.29 299.8,178.31 299.8,180.365 C299.8,182.42 298.6,183.455 296.215,183.455 L292.795,183.455 L292.795,188 L291.88,188 L291.88,177.29 Z M292.795,178.1 L292.795,182.645 L296.17,182.645 C297.1,182.645 297.775,182.45 298.225,182.075 C298.645,181.7 298.87,181.13 298.87,180.365 C298.87,179.6 298.645,179.045 298.225,178.685 C297.775,178.295 297.085,178.1 296.17,178.1 L292.795,178.1 Z M304.63,180.035 C305.77,180.035 306.685,180.44 307.375,181.265 C308.005,182.03 308.32,182.99 308.32,184.13 C308.32,185.27 308.005,186.215 307.375,186.98 C306.685,187.79 305.77,188.21 304.63,188.21 C303.49,188.21 302.575,187.79 301.885,186.98 C301.255,186.215 300.94,185.27 300.94,184.13 C300.94,182.99 301.255,182.03 301.9,181.265 C302.575,180.44 303.49,180.035 304.63,180.035 Z M304.63,180.815 C303.745,180.815 303.055,181.145 302.545,181.835 C302.08,182.435 301.855,183.2 301.855,184.13 C301.855,185.045 302.08,185.81 302.545,186.41 C303.055,187.085 303.745,187.43 304.63,187.43 C305.515,187.43 306.22,187.085 306.73,186.41 C307.18,185.795 307.42,185.03 307.42,184.13 C307.42,183.2 307.18,182.435 306.73,181.835 C306.22,181.145 305.515,180.815 304.63,180.815 Z M313.165,180.035 C312.595,180.035 312.085,180.215 311.665,180.575 C311.305,180.86 311.02,181.25 310.81,181.73 L310.81,180.245 L309.91,180.245 L309.91,188 L310.81,188 L310.81,183.905 C310.81,183.125 311.005,182.45 311.425,181.88 C311.845,181.25 312.415,180.95 313.105,180.95 C313.495,180.95 313.885,180.995 314.29,181.115 L314.29,180.2 C313.99,180.08 313.615,180.035 313.165,180.035 Z M318.445,180.035 C319.675,180.035 320.59,180.44 321.205,181.28 C321.745,182.015 322.045,183.05 322.09,184.385 L315.79,184.385 C315.835,185.33 316.09,186.08 316.555,186.62 C317.035,187.16 317.665,187.43 318.475,187.43 C319.18,187.43 319.75,187.235 320.185,186.875 C320.545,186.56 320.815,186.11 321.01,185.51 L321.925,185.51 C321.745,186.26 321.4,186.875 320.89,187.355 C320.26,187.925 319.465,188.21 318.475,188.21 C317.38,188.21 316.51,187.835 315.865,187.1 C315.19,186.35 314.86,185.345 314.86,184.115 C314.86,182.975 315.175,182.03 315.82,181.25 C316.48,180.44 317.35,180.035 318.445,180.035 Z M318.46,180.815 C317.695,180.815 317.08,181.07 316.615,181.61 C316.15,182.135 315.88,182.81 315.805,183.65 L321.145,183.65 C320.995,181.76 320.095,180.815 318.46,180.815 Z M326.17,180.035 C325.36,180.035 324.67,180.215 324.13,180.59 C323.56,180.98 323.29,181.475 323.29,182.105 C323.29,182.735 323.575,183.23 324.175,183.59 C324.535,183.815 325.165,184.04 326.065,184.28 C326.95,184.505 327.52,184.685 327.79,184.82 C328.3,185.075 328.555,185.435 328.555,185.9 C328.555,186.92 327.805,187.43 326.305,187.43 C325.585,187.43 325.045,187.295 324.685,187.025 C324.295,186.725 324.055,186.23 323.965,185.555 L323.08,185.555 C323.26,187.325 324.34,188.21 326.335,188.21 C328.435,188.21 329.485,187.415 329.485,185.855 C329.485,185.195 329.17,184.67 328.555,184.295 C328.165,184.055 327.49,183.815 326.545,183.575 C325.75,183.365 325.21,183.185 324.91,183.035 C324.445,182.795 324.22,182.48 324.22,182.09 C324.22,181.7 324.4,181.4 324.76,181.16 C325.12,180.92 325.585,180.815 326.155,180.815 C326.845,180.815 327.37,180.95 327.73,181.235 C328.06,181.49 328.27,181.88 328.375,182.42 L329.26,182.42 C329.035,180.83 328,180.035 326.17,180.035 Z M336.01,175.7 L330.625,189.5 L331.45,189.5 L336.835,175.7 L336.01,175.7 Z M338.575,177.29 L338.575,188 L346.345,188 L346.345,187.19 L339.49,187.19 L339.49,182.87 L345.73,182.87 L345.73,182.045 L339.49,182.045 L339.49,178.1 L346.09,178.1 L346.09,177.29 L338.575,177.29 Z M348.22,177.08 L348.22,188 L349.12,188 L349.12,177.08 L348.22,177.08 Z M354.58,180.035 C355.66,180.035 356.47,180.32 356.995,180.92 C357.445,181.415 357.685,182.105 357.685,183.005 L357.685,188 L356.83,188 L356.83,186.515 C356.515,186.965 356.095,187.355 355.585,187.655 C354.955,188.015 354.28,188.21 353.545,188.21 C352.795,188.21 352.18,188.015 351.73,187.64 C351.235,187.25 350.995,186.725 350.995,186.095 C350.995,185.195 351.355,184.535 352.09,184.115 C352.72,183.71 353.635,183.5 354.805,183.5 L356.785,183.47 L356.785,183.005 C356.785,181.535 356.035,180.8 354.535,180.8 C353.905,180.8 353.395,180.92 352.99,181.19 C352.54,181.475 352.255,181.88 352.135,182.42 L351.25,182.36 C351.4,181.58 351.79,180.98 352.42,180.59 C352.975,180.215 353.695,180.035 354.58,180.035 Z M356.785,184.175 L354.85,184.205 C352.885,184.22 351.91,184.85 351.91,186.08 C351.91,186.5 352.075,186.83 352.405,187.085 C352.735,187.34 353.185,187.475 353.725,187.475 C354.505,187.475 355.225,187.205 355.855,186.665 C356.47,186.155 356.785,185.585 356.785,184.985 L356.785,184.175 Z M362.215,180.035 C361.405,180.035 360.715,180.215 360.175,180.59 C359.605,180.98 359.335,181.475 359.335,182.105 C359.335,182.735 359.62,183.23 360.22,183.59 C360.58,183.815 361.21,184.04 362.11,184.28 C362.995,184.505 363.565,184.685 363.835,184.82 C364.345,185.075 364.6,185.435 364.6,185.9 C364.6,186.92 363.85,187.43 362.35,187.43 C361.63,187.43 361.09,187.295 360.73,187.025 C360.34,186.725 360.1,186.23 360.01,185.555 L359.125,185.555 C359.305,187.325 360.385,188.21 362.38,188.21 C364.48,188.21 365.53,187.415 365.53,185.855 C365.53,185.195 365.215,184.67 364.6,184.295 C364.21,184.055 363.535,183.815 362.59,183.575 C361.795,183.365 361.255,183.185 360.955,183.035 C360.49,182.795 360.265,182.48 360.265,182.09 C360.265,181.7 360.445,181.4 360.805,181.16 C361.165,180.92 361.63,180.815 362.2,180.815 C362.89,180.815 363.415,180.95 363.775,181.235 C364.105,181.49 364.315,181.88 364.42,182.42 L365.305,182.42 C365.08,180.83 364.045,180.035 362.215,180.035 Z M368.845,177.74 L367.945,178.115 L367.945,180.245 L366.295,180.245 L366.295,181.025 L367.945,181.025 L367.945,186.275 C367.945,186.845 368.05,187.265 368.29,187.535 C368.545,187.835 368.98,188 369.58,188 L370.675,188 L370.675,187.22 L369.7,187.22 C369.37,187.22 369.145,187.145 369.025,187.01 C368.905,186.86 368.845,186.605 368.845,186.275 L368.845,181.025 L370.87,181.025 L370.87,180.245 L368.845,180.245 L368.845,177.74 Z M373.135,177.455 C372.91,177.455 372.73,177.53 372.595,177.68 C372.445,177.8 372.37,177.98 372.37,178.205 C372.37,178.415 372.445,178.595 372.595,178.745 C372.73,178.88 372.91,178.955 373.135,178.955 C373.345,178.955 373.51,178.88 373.66,178.745 C373.81,178.595 373.9,178.415 373.9,178.205 C373.9,177.98 373.825,177.8 373.675,177.68 C373.525,177.53 373.345,177.455 373.135,177.455 Z M372.685,180.245 L372.685,188 L373.585,188 L373.585,180.245 L372.685,180.245 Z M379.195,180.035 C378.07,180.035 377.185,180.44 376.54,181.265 C375.925,182.03 375.625,183.005 375.625,184.175 C375.625,185.36 375.91,186.32 376.51,187.04 C377.14,187.82 378.04,188.21 379.18,188.21 C380.11,188.21 380.875,187.955 381.445,187.46 C382.03,186.95 382.405,186.2 382.555,185.225 L381.67,185.225 C381.445,186.695 380.62,187.43 379.18,187.43 C378.325,187.43 377.665,187.13 377.215,186.545 C376.765,185.96 376.54,185.165 376.54,184.175 C376.54,183.17 376.765,182.36 377.245,181.76 C377.725,181.13 378.385,180.815 379.195,180.815 C379.87,180.815 380.425,180.98 380.845,181.31 C381.265,181.64 381.52,182.12 381.625,182.78 L382.525,182.78 C382.405,181.85 382.045,181.16 381.46,180.71 C380.875,180.26 380.125,180.035 379.195,180.035 Z M384.895,177.455 C384.67,177.455 384.49,177.53 384.355,177.68 C384.205,177.8 384.13,177.98 384.13,178.205 C384.13,178.415 384.205,178.595 384.355,178.745 C384.49,178.88 384.67,178.955 384.895,178.955 C385.105,178.955 385.27,178.88 385.42,178.745 C385.57,178.595 385.66,178.415 385.66,178.205 C385.66,177.98 385.585,177.8 385.435,177.68 C385.285,177.53 385.105,177.455 384.895,177.455 Z M384.445,180.245 L384.445,188 L385.345,188 L385.345,180.245 L384.445,180.245 Z M389.56,177.74 L388.66,178.115 L388.66,180.245 L387.01,180.245 L387.01,181.025 L388.66,181.025 L388.66,186.275 C388.66,186.845 388.765,187.265 389.005,187.535 C389.26,187.835 389.695,188 390.295,188 L391.39,188 L391.39,187.22 L390.415,187.22 C390.085,187.22 389.86,187.145 389.74,187.01 C389.62,186.86 389.56,186.605 389.56,186.275 L389.56,181.025 L391.585,181.025 L391.585,180.245 L389.56,180.245 L389.56,177.74 Z M392.08,180.245 L395.155,187.805 L393.85,190.97 L394.825,190.97 L399.1,180.245 L398.11,180.245 L395.605,186.71 L393.07,180.245 L392.08,180.245 Z M405.205,175.7 L399.82,189.5 L400.645,189.5 L406.03,175.7 L405.205,175.7 Z M407.77,177.29 L407.77,188 L408.685,188 L408.685,182.885 L414.55,182.885 L414.55,182.075 L408.685,182.075 L408.685,178.1 L414.865,178.1 L414.865,177.29 L407.77,177.29 Z M419.515,180.035 C420.595,180.035 421.405,180.32 421.93,180.92 C422.38,181.415 422.62,182.105 422.62,183.005 L422.62,188 L421.765,188 L421.765,186.515 C421.45,186.965 421.03,187.355 420.52,187.655 C419.89,188.015 419.215,188.21 418.48,188.21 C417.73,188.21 417.115,188.015 416.665,187.64 C416.17,187.25 415.93,186.725 415.93,186.095 C415.93,185.195 416.29,184.535 417.025,184.115 C417.655,183.71 418.57,183.5 419.74,183.5 L421.72,183.47 L421.72,183.005 C421.72,181.535 420.97,180.8 419.47,180.8 C418.84,180.8 418.33,180.92 417.925,181.19 C417.475,181.475 417.19,181.88 417.07,182.42 L416.185,182.36 C416.335,181.58 416.725,180.98 417.355,180.59 C417.91,180.215 418.63,180.035 419.515,180.035 Z M421.72,184.175 L419.785,184.205 C417.82,184.22 416.845,184.85 416.845,186.08 C416.845,186.5 417.01,186.83 417.34,187.085 C417.67,187.34 418.12,187.475 418.66,187.475 C419.44,187.475 420.16,187.205 420.79,186.665 C421.405,186.155 421.72,185.585 421.72,184.985 L421.72,184.175 Z M425.41,177.455 C425.185,177.455 425.005,177.53 424.87,177.68 C424.72,177.8 424.645,177.98 424.645,178.205 C424.645,178.415 424.72,178.595 424.87,178.745 C425.005,178.88 425.185,178.955 425.41,178.955 C425.62,178.955 425.785,178.88 425.935,178.745 C426.085,178.595 426.175,178.415 426.175,178.205 C426.175,177.98 426.1,177.8 425.95,177.68 C425.8,177.53 425.62,177.455 425.41,177.455 Z M424.96,180.245 L424.96,188 L425.86,188 L425.86,180.245 L424.96,180.245 Z M431.455,180.035 C430.885,180.035 430.375,180.215 429.955,180.575 C429.595,180.86 429.31,181.25 429.1,181.73 L429.1,180.245 L428.2,180.245 L428.2,188 L429.1,188 L429.1,183.905 C429.1,183.125 429.295,182.45 429.715,181.88 C430.135,181.25 430.705,180.95 431.395,180.95 C431.785,180.95 432.175,180.995 432.58,181.115 L432.58,180.2 C432.28,180.08 431.905,180.035 431.455,180.035 Z M437.02,180.035 C436.48,180.035 435.985,180.155 435.55,180.425 C435.115,180.695 434.77,181.055 434.5,181.52 L434.5,180.245 L433.6,180.245 L433.6,188 L434.5,188 L434.5,183.32 C434.545,182.555 434.785,181.94 435.235,181.49 C435.655,181.04 436.165,180.815 436.795,180.815 C438.265,180.815 439,181.64 439,183.29 L439,188 L439.9,188 L439.9,183.23 C439.9,181.1 438.94,180.035 437.02,180.035 Z M444.925,180.035 C446.155,180.035 447.07,180.44 447.685,181.28 C448.225,182.015 448.525,183.05 448.57,184.385 L442.27,184.385 C442.315,185.33 442.57,186.08 443.035,186.62 C443.515,187.16 444.145,187.43 444.955,187.43 C445.66,187.43 446.23,187.235 446.665,186.875 C447.025,186.56 447.295,186.11 447.49,185.51 L448.405,185.51 C448.225,186.26 447.88,186.875 447.37,187.355 C446.74,187.925 445.945,188.21 444.955,188.21 C443.86,188.21 442.99,187.835 442.345,187.1 C441.67,186.35 441.34,185.345 441.34,184.115 C441.34,182.975 441.655,182.03 442.3,181.25 C442.96,180.44 443.83,180.035 444.925,180.035 Z M444.94,180.815 C444.175,180.815 443.56,181.07 443.095,181.61 C442.63,182.135 442.36,182.81 442.285,183.65 L447.625,183.65 C447.475,181.76 446.575,180.815 444.94,180.815 Z M452.65,180.035 C451.84,180.035 451.15,180.215 450.61,180.59 C450.04,180.98 449.77,181.475 449.77,182.105 C449.77,182.735 450.055,183.23 450.655,183.59 C451.015,183.815 451.645,184.04 452.545,184.28 C453.43,184.505 454,184.685 454.27,184.82 C454.78,185.075 455.035,185.435 455.035,185.9 C455.035,186.92 454.285,187.43 452.785,187.43 C452.065,187.43 451.525,187.295 451.165,187.025 C450.775,186.725 450.535,186.23 450.445,185.555 L449.56,185.555 C449.74,187.325 450.82,188.21 452.815,188.21 C454.915,188.21 455.965,187.415 455.965,185.855 C455.965,185.195 455.65,184.67 455.035,184.295 C454.645,184.055 453.97,183.815 453.025,183.575 C452.23,183.365 451.69,183.185 451.39,183.035 C450.925,182.795 450.7,182.48 450.7,182.09 C450.7,181.7 450.88,181.4 451.24,181.16 C451.6,180.92 452.065,180.815 452.635,180.815 C453.325,180.815 453.85,180.95 454.21,181.235 C454.54,181.49 454.75,181.88 454.855,182.42 L455.74,182.42 C455.515,180.83 454.48,180.035 452.65,180.035 Z M460.045,180.035 C459.235,180.035 458.545,180.215 458.005,180.59 C457.435,180.98 457.165,181.475 457.165,182.105 C457.165,182.735 457.45,183.23 458.05,183.59 C458.41,183.815 459.04,184.04 459.94,184.28 C460.825,184.505 461.395,184.685 461.665,184.82 C462.175,185.075 462.43,185.435 462.43,185.9 C462.43,186.92 461.68,187.43 460.18,187.43 C459.46,187.43 458.92,187.295 458.56,187.025 C458.17,186.725 457.93,186.23 457.84,185.555 L456.955,185.555 C457.135,187.325 458.215,188.21 460.21,188.21 C462.31,188.21 463.36,187.415 463.36,185.855 C463.36,185.195 463.045,184.67 462.43,184.295 C462.04,184.055 461.365,183.815 460.42,183.575 C459.625,183.365 459.085,183.185 458.785,183.035 C458.32,182.795 458.095,182.48 458.095,182.09 C458.095,181.7 458.275,181.4 458.635,181.16 C458.995,180.92 459.46,180.815 460.03,180.815 C460.72,180.815 461.245,180.95 461.605,181.235 C461.935,181.49 462.145,181.88 462.25,182.42 L463.135,182.42 C462.91,180.83 461.875,180.035 460.045,180.035 Z" id="txt4-3"></path>
                </g>
            </g>
        </g>
    </g>
</svg>