<?xml version="1.0" encoding="UTF-8"?>
<svg width="463px" height="128px" viewBox="0 0 463 128" version="1.1" xmlns="http://www.w3.org/2000/svg" xmlns:xlink="http://www.w3.org/1999/xlink">
    <!-- Generator: Sketch 46 (44423) - http://www.bohemiancoding.com/sketch -->
    <title>6 dimensions dimensi</title>
    <desc>Created with Sketch.</desc>
    <defs></defs>
    <g id="Page-1" stroke="none" stroke-width="1" fill="none" fill-rule="evenodd">
        <g id="首页-英文" transform="translate(-821.000000, -3395.000000)" fill="#38393B">
            <g id="4" transform="translate(-5.000000, 3073.000000)">
                <g id="文字" transform="translate(824.000000, 300.000000)">
                    <path d="M179.4,22.5 C185.75,22.5 189.45,25.6 190.45,31.9 L187.4,31.9 C186.55,27.4 183.85,25.15 179.35,25.15 C176.3,25.15 173.9,26.65 172.2,29.7 C170.5,32.6 169.7,36.25 169.7,40.75 L169.7,42.5 L169.9,42.5 C170.7,40.4 172,38.75 173.8,37.55 C175.5,36.35 177.5,35.75 179.8,35.75 C183.2,35.75 185.9,36.8 187.95,39 C190,41.15 191.05,43.95 191.05,47.45 C191.05,50.95 189.95,53.85 187.75,56.15 C185.55,58.45 182.75,59.6 179.35,59.6 C175,59.6 171.75,57.95 169.6,54.65 C167.65,51.65 166.7,47.45 166.7,41.95 C166.7,36.35 167.75,31.75 169.9,28.2 C172.2,24.4 175.35,22.5 179.4,22.5 Z M179.3,38.35 C176.8,38.35 174.7,39.2 173,41 C171.25,42.7 170.4,44.9 170.4,47.5 C170.4,50.1 171.15,52.3 172.7,54.1 C174.35,56 176.55,56.95 179.25,56.95 C181.85,56.95 184,56.05 185.6,54.25 C187.2,52.45 188,50.15 188,47.45 C188,44.7 187.2,42.5 185.65,40.85 C184.05,39.15 181.9,38.35 179.3,38.35 Z M233.15,22.5 L236.15,22.5 L236.15,58.9 L233.3,58.9 L233.3,53.8 C231.5,57.65 228.5,59.6 224.25,59.6 C220.5,59.6 217.6,58.2 215.5,55.5 C213.6,53 212.65,49.8 212.65,45.95 C212.65,42.15 213.6,39 215.5,36.5 C217.6,33.7 220.45,32.35 224.1,32.35 C228.2,32.35 231.25,34.4 233.15,38.5 L233.15,22.5 Z M224.65,34.9 C221.7,34.9 219.45,36 217.85,38.2 C216.4,40.1 215.7,42.7 215.7,45.95 C215.7,49.2 216.4,51.8 217.8,53.75 C219.35,55.95 221.6,57.05 224.55,57.05 C227.35,57.05 229.55,55.95 231.1,53.85 C232.5,51.9 233.25,49.4 233.25,46.35 L233.25,45.75 C233.25,42.55 232.45,40 230.95,38 C229.35,35.9 227.25,34.9 224.65,34.9 Z M245.45,23.75 C244.7,23.75 244.1,24 243.65,24.5 C243.15,24.9 242.9,25.5 242.9,26.25 C242.9,26.95 243.15,27.55 243.65,28.05 C244.1,28.5 244.7,28.75 245.45,28.75 C246.15,28.75 246.7,28.5 247.2,28.05 C247.7,27.55 248,26.95 248,26.25 C248,25.5 247.75,24.9 247.25,24.5 C246.75,24 246.15,23.75 245.45,23.75 Z M243.95,33.05 L243.95,58.9 L246.95,58.9 L246.95,33.05 L243.95,33.05 Z M265.25,32.35 C262.1,32.35 259.6,33.85 257.75,36.95 L257.75,33.05 L254.75,33.05 L254.75,58.9 L257.75,58.9 L257.75,43 C257.75,40.75 258.4,38.85 259.75,37.3 C261.05,35.7 262.65,34.95 264.6,34.95 C268.9,34.95 271.05,37.4 271.05,42.4 L271.05,58.9 L274.1,58.9 L274.1,42.45 C274.1,40.25 274.7,38.5 276,37.1 C277.25,35.65 278.8,34.95 280.7,34.95 C283,34.95 284.75,35.6 285.85,36.9 C286.85,38.1 287.35,39.95 287.35,42.4 L287.35,58.9 L290.35,58.9 L290.35,42 C290.35,38.95 289.55,36.6 288,34.9 C286.4,33.2 284.2,32.35 281.5,32.35 C279.7,32.35 278.1,32.8 276.8,33.7 C275.4,34.6 274.25,35.9 273.35,37.65 C272.05,34.1 269.35,32.35 265.25,32.35 Z M307.1,32.35 C311.2,32.35 314.25,33.7 316.3,36.5 C318.1,38.95 319.1,42.4 319.25,46.85 L298.25,46.85 C298.4,50 299.25,52.5 300.8,54.3 C302.4,56.1 304.5,57 307.2,57 C309.55,57 311.45,56.35 312.9,55.15 C314.1,54.1 315,52.6 315.65,50.6 L318.7,50.6 C318.1,53.1 316.95,55.15 315.25,56.75 C313.15,58.65 310.5,59.6 307.2,59.6 C303.55,59.6 300.65,58.35 298.5,55.9 C296.25,53.4 295.15,50.05 295.15,45.95 C295.15,42.15 296.2,39 298.35,36.4 C300.55,33.7 303.45,32.35 307.1,32.35 Z M307.15,34.95 C304.6,34.95 302.55,35.8 301,37.6 C299.45,39.35 298.55,41.6 298.3,44.4 L316.1,44.4 C315.6,38.1 312.6,34.95 307.15,34.95 Z M335.45,32.35 C333.65,32.35 332,32.75 330.55,33.65 C329.1,34.55 327.95,35.75 327.05,37.3 L327.05,33.05 L324.05,33.05 L324.05,58.9 L327.05,58.9 L327.05,43.3 C327.2,40.75 328,38.7 329.5,37.2 C330.9,35.7 332.6,34.95 334.7,34.95 C339.6,34.95 342.05,37.7 342.05,43.2 L342.05,58.9 L345.05,58.9 L345.05,43 C345.05,35.9 341.85,32.35 335.45,32.35 Z M360.15,32.35 C357.45,32.35 355.15,32.95 353.35,34.2 C351.45,35.5 350.55,37.15 350.55,39.25 C350.55,41.35 351.5,43 353.5,44.2 C354.7,44.95 356.8,45.7 359.8,46.5 C362.75,47.25 364.65,47.85 365.55,48.3 C367.25,49.15 368.1,50.35 368.1,51.9 C368.1,55.3 365.6,57 360.6,57 C358.2,57 356.4,56.55 355.2,55.65 C353.9,54.65 353.1,53 352.8,50.75 L349.85,50.75 C350.45,56.65 354.05,59.6 360.7,59.6 C367.7,59.6 371.2,56.95 371.2,51.75 C371.2,49.55 370.15,47.8 368.1,46.55 C366.8,45.75 364.55,44.95 361.4,44.15 C358.75,43.45 356.95,42.85 355.95,42.35 C354.4,41.55 353.65,40.5 353.65,39.2 C353.65,37.9 354.25,36.9 355.45,36.1 C356.65,35.3 358.2,34.95 360.1,34.95 C362.4,34.95 364.15,35.4 365.35,36.35 C366.45,37.2 367.15,38.5 367.5,40.3 L370.45,40.3 C369.7,35 366.25,32.35 360.15,32.35 Z M379,23.75 C378.25,23.75 377.65,24 377.2,24.5 C376.7,24.9 376.45,25.5 376.45,26.25 C376.45,26.95 376.7,27.55 377.2,28.05 C377.65,28.5 378.25,28.75 379,28.75 C379.7,28.75 380.25,28.5 380.75,28.05 C381.25,27.55 381.55,26.95 381.55,26.25 C381.55,25.5 381.3,24.9 380.8,24.5 C380.3,24 379.7,23.75 379,23.75 Z M377.5,33.05 L377.5,58.9 L380.5,58.9 L380.5,33.05 L377.5,33.05 Z M399.6,32.35 C403.4,32.35 406.45,33.7 408.75,36.45 C410.85,39 411.9,42.2 411.9,46 C411.9,49.8 410.85,52.95 408.75,55.5 C406.45,58.2 403.4,59.6 399.6,59.6 C395.8,59.6 392.75,58.2 390.45,55.5 C388.35,52.95 387.3,49.8 387.3,46 C387.3,42.2 388.35,39 390.5,36.45 C392.75,33.7 395.8,32.35 399.6,32.35 Z M399.6,34.95 C396.65,34.95 394.35,36.05 392.65,38.35 C391.1,40.35 390.35,42.9 390.35,46 C390.35,49.05 391.1,51.6 392.65,53.6 C394.35,55.85 396.65,57 399.6,57 C402.55,57 404.9,55.85 406.6,53.6 C408.1,51.55 408.9,49 408.9,46 C408.9,42.9 408.1,40.35 406.6,38.35 C404.9,36.05 402.55,34.95 399.6,34.95 Z M428.6,32.35 C426.8,32.35 425.15,32.75 423.7,33.65 C422.25,34.55 421.1,35.75 420.2,37.3 L420.2,33.05 L417.2,33.05 L417.2,58.9 L420.2,58.9 L420.2,43.3 C420.35,40.75 421.15,38.7 422.65,37.2 C424.05,35.7 425.75,34.95 427.85,34.95 C432.75,34.95 435.2,37.7 435.2,43.2 L435.2,58.9 L438.2,58.9 L438.2,43 C438.2,35.9 435,32.35 428.6,32.35 Z M453.3,32.35 C450.6,32.35 448.3,32.95 446.5,34.2 C444.6,35.5 443.7,37.15 443.7,39.25 C443.7,41.35 444.65,43 446.65,44.2 C447.85,44.95 449.95,45.7 452.95,46.5 C455.9,47.25 457.8,47.85 458.7,48.3 C460.4,49.15 461.25,50.35 461.25,51.9 C461.25,55.3 458.75,57 453.75,57 C451.35,57 449.55,56.55 448.35,55.65 C447.05,54.65 446.25,53 445.95,50.75 L443,50.75 C443.6,56.65 447.2,59.6 453.85,59.6 C460.85,59.6 464.35,56.95 464.35,51.75 C464.35,49.55 463.3,47.8 461.25,46.55 C459.95,45.75 457.7,44.95 454.55,44.15 C451.9,43.45 450.1,42.85 449.1,42.35 C447.55,41.55 446.8,40.5 446.8,39.2 C446.8,37.9 447.4,36.9 448.6,36.1 C449.8,35.3 451.35,34.95 453.25,34.95 C455.55,34.95 457.3,35.4 458.5,36.35 C459.6,37.2 460.3,38.5 460.65,40.3 L463.6,40.3 C462.85,35 459.4,32.35 453.3,32.35 Z M23.15,103.4 L26.15,103.4 L26.15,139.8 L23.3,139.8 L23.3,134.7 C21.5,138.55 18.5,140.5 14.25,140.5 C10.5,140.5 7.6,139.1 5.5,136.4 C3.6,133.9 2.65,130.7 2.65,126.85 C2.65,123.05 3.6,119.9 5.5,117.4 C7.6,114.6 10.45,113.25 14.1,113.25 C18.2,113.25 21.25,115.3 23.15,119.4 L23.15,103.4 Z M14.65,115.8 C11.7,115.8 9.45,116.9 7.85,119.1 C6.4,121 5.7,123.6 5.7,126.85 C5.7,130.1 6.4,132.7 7.8,134.65 C9.35,136.85 11.6,137.95 14.55,137.95 C17.35,137.95 19.55,136.85 21.1,134.75 C22.5,132.8 23.25,130.3 23.25,127.25 L23.25,126.65 C23.25,123.45 22.45,120.9 20.95,118.9 C19.35,116.8 17.25,115.8 14.65,115.8 Z M35.45,104.65 C34.7,104.65 34.1,104.9 33.65,105.4 C33.15,105.8 32.9,106.4 32.9,107.15 C32.9,107.85 33.15,108.45 33.65,108.95 C34.1,109.4 34.7,109.65 35.45,109.65 C36.15,109.65 36.7,109.4 37.2,108.95 C37.7,108.45 38,107.85 38,107.15 C38,106.4 37.75,105.8 37.25,105.4 C36.75,104.9 36.15,104.65 35.45,104.65 Z M33.95,113.95 L33.95,139.8 L36.95,139.8 L36.95,113.95 L33.95,113.95 Z M55.25,113.25 C52.1,113.25 49.6,114.75 47.75,117.85 L47.75,113.95 L44.75,113.95 L44.75,139.8 L47.75,139.8 L47.75,123.9 C47.75,121.65 48.4,119.75 49.75,118.2 C51.05,116.6 52.65,115.85 54.6,115.85 C58.9,115.85 61.05,118.3 61.05,123.3 L61.05,139.8 L64.1,139.8 L64.1,123.35 C64.1,121.15 64.7,119.4 66,118 C67.25,116.55 68.8,115.85 70.7,115.85 C73,115.85 74.75,116.5 75.85,117.8 C76.85,119 77.35,120.85 77.35,123.3 L77.35,139.8 L80.35,139.8 L80.35,122.9 C80.35,119.85 79.55,117.5 78,115.8 C76.4,114.1 74.2,113.25 71.5,113.25 C69.7,113.25 68.1,113.7 66.8,114.6 C65.4,115.5 64.25,116.8 63.35,118.55 C62.05,115 59.35,113.25 55.25,113.25 Z M97.1,113.25 C101.2,113.25 104.25,114.6 106.3,117.4 C108.1,119.85 109.1,123.3 109.25,127.75 L88.25,127.75 C88.4,130.9 89.25,133.4 90.8,135.2 C92.4,137 94.5,137.9 97.2,137.9 C99.55,137.9 101.45,137.25 102.9,136.05 C104.1,135 105,133.5 105.65,131.5 L108.7,131.5 C108.1,134 106.95,136.05 105.25,137.65 C103.15,139.55 100.5,140.5 97.2,140.5 C93.55,140.5 90.65,139.25 88.5,136.8 C86.25,134.3 85.15,130.95 85.15,126.85 C85.15,123.05 86.2,119.9 88.35,117.3 C90.55,114.6 93.45,113.25 97.1,113.25 Z M97.15,115.85 C94.6,115.85 92.55,116.7 91,118.5 C89.45,120.25 88.55,122.5 88.3,125.3 L106.1,125.3 C105.6,119 102.6,115.85 97.15,115.85 Z M125.45,113.25 C123.65,113.25 122,113.65 120.55,114.55 C119.1,115.45 117.95,116.65 117.05,118.2 L117.05,113.95 L114.05,113.95 L114.05,139.8 L117.05,139.8 L117.05,124.2 C117.2,121.65 118,119.6 119.5,118.1 C120.9,116.6 122.6,115.85 124.7,115.85 C129.6,115.85 132.05,118.6 132.05,124.1 L132.05,139.8 L135.05,139.8 L135.05,123.9 C135.05,116.8 131.85,113.25 125.45,113.25 Z M150.15,113.25 C147.45,113.25 145.15,113.85 143.35,115.1 C141.45,116.4 140.55,118.05 140.55,120.15 C140.55,122.25 141.5,123.9 143.5,125.1 C144.7,125.85 146.8,126.6 149.8,127.4 C152.75,128.15 154.65,128.75 155.55,129.2 C157.25,130.05 158.1,131.25 158.1,132.8 C158.1,136.2 155.6,137.9 150.6,137.9 C148.2,137.9 146.4,137.45 145.2,136.55 C143.9,135.55 143.1,133.9 142.8,131.65 L139.85,131.65 C140.45,137.55 144.05,140.5 150.7,140.5 C157.7,140.5 161.2,137.85 161.2,132.65 C161.2,130.45 160.15,128.7 158.1,127.45 C156.8,126.65 154.55,125.85 151.4,125.05 C148.75,124.35 146.95,123.75 145.95,123.25 C144.4,122.45 143.65,121.4 143.65,120.1 C143.65,118.8 144.25,117.8 145.45,117 C146.65,116.2 148.2,115.85 150.1,115.85 C152.4,115.85 154.15,116.3 155.35,117.25 C156.45,118.1 157.15,119.4 157.5,121.2 L160.45,121.2 C159.7,115.9 156.25,113.25 150.15,113.25 Z M169,104.65 C168.25,104.65 167.65,104.9 167.2,105.4 C166.7,105.8 166.45,106.4 166.45,107.15 C166.45,107.85 166.7,108.45 167.2,108.95 C167.65,109.4 168.25,109.65 169,109.65 C169.7,109.65 170.25,109.4 170.75,108.95 C171.25,108.45 171.55,107.85 171.55,107.15 C171.55,106.4 171.3,105.8 170.8,105.4 C170.3,104.9 169.7,104.65 169,104.65 Z M167.5,113.95 L167.5,139.8 L170.5,139.8 L170.5,113.95 L167.5,113.95 Z M189.6,113.25 C193.4,113.25 196.45,114.6 198.75,117.35 C200.85,119.9 201.9,123.1 201.9,126.9 C201.9,130.7 200.85,133.85 198.75,136.4 C196.45,139.1 193.4,140.5 189.6,140.5 C185.8,140.5 182.75,139.1 180.45,136.4 C178.35,133.85 177.3,130.7 177.3,126.9 C177.3,123.1 178.35,119.9 180.5,117.35 C182.75,114.6 185.8,113.25 189.6,113.25 Z M189.6,115.85 C186.65,115.85 184.35,116.95 182.65,119.25 C181.1,121.25 180.35,123.8 180.35,126.9 C180.35,129.95 181.1,132.5 182.65,134.5 C184.35,136.75 186.65,137.9 189.6,137.9 C192.55,137.9 194.9,136.75 196.6,134.5 C198.1,132.45 198.9,129.9 198.9,126.9 C198.9,123.8 198.1,121.25 196.6,119.25 C194.9,116.95 192.55,115.85 189.6,115.85 Z M218.6,113.25 C216.8,113.25 215.15,113.65 213.7,114.55 C212.25,115.45 211.1,116.65 210.2,118.2 L210.2,113.95 L207.2,113.95 L207.2,139.8 L210.2,139.8 L210.2,124.2 C210.35,121.65 211.15,119.6 212.65,118.1 C214.05,116.6 215.75,115.85 217.85,115.85 C222.75,115.85 225.2,118.6 225.2,124.1 L225.2,139.8 L228.2,139.8 L228.2,123.9 C228.2,116.8 225,113.25 218.6,113.25 Z M245.45,113.25 C249.05,113.25 251.75,114.2 253.5,116.2 C255,117.85 255.8,120.15 255.8,123.15 L255.8,139.8 L252.95,139.8 L252.95,134.85 C251.9,136.35 250.5,137.65 248.8,138.65 C246.7,139.85 244.45,140.5 242,140.5 C239.5,140.5 237.45,139.85 235.95,138.6 C234.3,137.3 233.5,135.55 233.5,133.45 C233.5,130.45 234.7,128.25 237.15,126.85 C239.25,125.5 242.3,124.8 246.2,124.8 L252.8,124.7 L252.8,123.15 C252.8,118.25 250.3,115.8 245.3,115.8 C243.2,115.8 241.5,116.2 240.15,117.1 C238.65,118.05 237.7,119.4 237.3,121.2 L234.35,121 C234.85,118.4 236.15,116.4 238.25,115.1 C240.1,113.85 242.5,113.25 245.45,113.25 Z M252.8,127.05 L246.35,127.15 C239.8,127.2 236.55,129.3 236.55,133.4 C236.55,134.8 237.1,135.9 238.2,136.75 C239.3,137.6 240.8,138.05 242.6,138.05 C245.2,138.05 247.6,137.15 249.7,135.35 C251.75,133.65 252.8,131.75 252.8,129.75 L252.8,127.05 Z M263.05,103.4 L263.05,139.8 L266.05,139.8 L266.05,103.4 L263.05,103.4 Z M300.9,113.25 C304.5,113.25 307.2,114.2 308.95,116.2 C310.45,117.85 311.25,120.15 311.25,123.15 L311.25,139.8 L308.4,139.8 L308.4,134.85 C307.35,136.35 305.95,137.65 304.25,138.65 C302.15,139.85 299.9,140.5 297.45,140.5 C294.95,140.5 292.9,139.85 291.4,138.6 C289.75,137.3 288.95,135.55 288.95,133.45 C288.95,130.45 290.15,128.25 292.6,126.85 C294.7,125.5 297.75,124.8 301.65,124.8 L308.25,124.7 L308.25,123.15 C308.25,118.25 305.75,115.8 300.75,115.8 C298.65,115.8 296.95,116.2 295.6,117.1 C294.1,118.05 293.15,119.4 292.75,121.2 L289.8,121 C290.3,118.4 291.6,116.4 293.7,115.1 C295.55,113.85 297.95,113.25 300.9,113.25 Z M308.25,127.05 L301.8,127.15 C295.25,127.2 292,129.3 292,133.4 C292,134.8 292.55,135.9 293.65,136.75 C294.75,137.6 296.25,138.05 298.05,138.05 C300.65,138.05 303.05,137.15 305.15,135.35 C307.2,133.65 308.25,131.75 308.25,129.75 L308.25,127.05 Z M328.95,113.25 C327.15,113.25 325.5,113.65 324.05,114.55 C322.6,115.45 321.45,116.65 320.55,118.2 L320.55,113.95 L317.55,113.95 L317.55,139.8 L320.55,139.8 L320.55,124.2 C320.7,121.65 321.5,119.6 323,118.1 C324.4,116.6 326.1,115.85 328.2,115.85 C333.1,115.85 335.55,118.6 335.55,124.1 L335.55,139.8 L338.55,139.8 L338.55,123.9 C338.55,116.8 335.35,113.25 328.95,113.25 Z M355.8,113.25 C359.4,113.25 362.1,114.2 363.85,116.2 C365.35,117.85 366.15,120.15 366.15,123.15 L366.15,139.8 L363.3,139.8 L363.3,134.85 C362.25,136.35 360.85,137.65 359.15,138.65 C357.05,139.85 354.8,140.5 352.35,140.5 C349.85,140.5 347.8,139.85 346.3,138.6 C344.65,137.3 343.85,135.55 343.85,133.45 C343.85,130.45 345.05,128.25 347.5,126.85 C349.6,125.5 352.65,124.8 356.55,124.8 L363.15,124.7 L363.15,123.15 C363.15,118.25 360.65,115.8 355.65,115.8 C353.55,115.8 351.85,116.2 350.5,117.1 C349,118.05 348.05,119.4 347.65,121.2 L344.7,121 C345.2,118.4 346.5,116.4 348.6,115.1 C350.45,113.85 352.85,113.25 355.8,113.25 Z M363.15,127.05 L356.7,127.15 C350.15,127.2 346.9,129.3 346.9,133.4 C346.9,134.8 347.45,135.9 348.55,136.75 C349.65,137.6 351.15,138.05 352.95,138.05 C355.55,138.05 357.95,137.15 360.05,135.35 C362.1,133.65 363.15,131.75 363.15,129.75 L363.15,127.05 Z M373.4,103.4 L373.4,139.8 L376.4,139.8 L376.4,103.4 L373.4,103.4 Z M380.75,113.95 L391,139.15 L386.65,149.7 L389.9,149.7 L404.15,113.95 L400.85,113.95 L392.5,135.5 L384.05,113.95 L380.75,113.95 Z M416.35,113.25 C413.65,113.25 411.35,113.85 409.55,115.1 C407.65,116.4 406.75,118.05 406.75,120.15 C406.75,122.25 407.7,123.9 409.7,125.1 C410.9,125.85 413,126.6 416,127.4 C418.95,128.15 420.85,128.75 421.75,129.2 C423.45,130.05 424.3,131.25 424.3,132.8 C424.3,136.2 421.8,137.9 416.8,137.9 C414.4,137.9 412.6,137.45 411.4,136.55 C410.1,135.55 409.3,133.9 409,131.65 L406.05,131.65 C406.65,137.55 410.25,140.5 416.9,140.5 C423.9,140.5 427.4,137.85 427.4,132.65 C427.4,130.45 426.35,128.7 424.3,127.45 C423,126.65 420.75,125.85 417.6,125.05 C414.95,124.35 413.15,123.75 412.15,123.25 C410.6,122.45 409.85,121.4 409.85,120.1 C409.85,118.8 410.45,117.8 411.65,117 C412.85,116.2 414.4,115.85 416.3,115.85 C418.6,115.85 420.35,116.3 421.55,117.25 C422.65,118.1 423.35,119.4 423.7,121.2 L426.65,121.2 C425.9,115.9 422.45,113.25 416.35,113.25 Z M435.2,104.65 C434.45,104.65 433.85,104.9 433.4,105.4 C432.9,105.8 432.65,106.4 432.65,107.15 C432.65,107.85 432.9,108.45 433.4,108.95 C433.85,109.4 434.45,109.65 435.2,109.65 C435.9,109.65 436.45,109.4 436.95,108.95 C437.45,108.45 437.75,107.85 437.75,107.15 C437.75,106.4 437.5,105.8 437,105.4 C436.5,104.9 435.9,104.65 435.2,104.65 Z M433.7,113.95 L433.7,139.8 L436.7,139.8 L436.7,113.95 L433.7,113.95 Z M453.3,113.25 C450.6,113.25 448.3,113.85 446.5,115.1 C444.6,116.4 443.7,118.05 443.7,120.15 C443.7,122.25 444.65,123.9 446.65,125.1 C447.85,125.85 449.95,126.6 452.95,127.4 C455.9,128.15 457.8,128.75 458.7,129.2 C460.4,130.05 461.25,131.25 461.25,132.8 C461.25,136.2 458.75,137.9 453.75,137.9 C451.35,137.9 449.55,137.45 448.35,136.55 C447.05,135.55 446.25,133.9 445.95,131.65 L443,131.65 C443.6,137.55 447.2,140.5 453.85,140.5 C460.85,140.5 464.35,137.85 464.35,132.65 C464.35,130.45 463.3,128.7 461.25,127.45 C459.95,126.65 457.7,125.85 454.55,125.05 C451.9,124.35 450.1,123.75 449.1,123.25 C447.55,122.45 446.8,121.4 446.8,120.1 C446.8,118.8 447.4,117.8 448.6,117 C449.8,116.2 451.35,115.85 453.25,115.85 C455.55,115.85 457.3,116.3 458.5,117.25 C459.6,118.1 460.3,119.4 460.65,121.2 L463.6,121.2 C462.85,115.9 459.4,113.25 453.3,113.25 Z" id="6-dimensions-dimensi"></path>
                </g>
            </g>
        </g>
    </g>
</svg>