<?xml version="1.0" encoding="UTF-8"?>
<svg width="440px" height="129px" viewBox="0 0 440 129" version="1.1" xmlns="http://www.w3.org/2000/svg" xmlns:xlink="http://www.w3.org/1999/xlink">
    <!-- Generator: Sketch 46 (44423) - http://www.bohemiancoding.com/sketch -->
    <title>txt5-1</title>
    <desc>Created with Sketch.</desc>
    <defs></defs>
    <g id="Page-1" stroke="none" stroke-width="1" fill="none" fill-rule="evenodd">
        <g id="首页-英文" transform="translate(-156.000000, -4240.000000)" fill="#38393B">
            <g id="文字" transform="translate(154.000000, 4218.000000)">
                <path d="M3.65,23.2 L18.15,23.2 C26.05,23.2 30.05,26.6 30.05,33.45 C30.05,40.3 26.05,43.75 18.1,43.75 L6.7,43.75 L6.7,58.9 L3.65,58.9 L3.65,23.2 Z M6.7,25.9 L6.7,41.05 L17.95,41.05 C21.05,41.05 23.3,40.4 24.8,39.15 C26.2,37.9 26.95,36 26.95,33.45 C26.95,30.9 26.2,29.05 24.8,27.85 C23.3,26.55 21,25.9 17.95,25.9 L6.7,25.9 Z M45.7,32.35 C43.8,32.35 42.1,32.95 40.7,34.15 C39.5,35.1 38.55,36.4 37.85,38 L37.85,33.05 L34.85,33.05 L34.85,58.9 L37.85,58.9 L37.85,45.25 C37.85,42.65 38.5,40.4 39.9,38.5 C41.3,36.4 43.2,35.4 45.5,35.4 C46.8,35.4 48.1,35.55 49.45,35.95 L49.45,32.9 C48.45,32.5 47.2,32.35 45.7,32.35 Z M64.15,32.35 C67.95,32.35 71,33.7 73.3,36.45 C75.4,39 76.45,42.2 76.45,46 C76.45,49.8 75.4,52.95 73.3,55.5 C71,58.2 67.95,59.6 64.15,59.6 C60.35,59.6 57.3,58.2 55,55.5 C52.9,52.95 51.85,49.8 51.85,46 C51.85,42.2 52.9,39 55.05,36.45 C57.3,33.7 60.35,32.35 64.15,32.35 Z M64.15,34.95 C61.2,34.95 58.9,36.05 57.2,38.35 C55.65,40.35 54.9,42.9 54.9,46 C54.9,49.05 55.65,51.6 57.2,53.6 C58.9,55.85 61.2,57 64.15,57 C67.1,57 69.45,55.85 71.15,53.6 C72.65,51.55 73.45,49 73.45,46 C73.45,42.9 72.65,40.35 71.15,38.35 C69.45,36.05 67.1,34.95 64.15,34.95 Z M93.7,32.35 C97.35,32.35 100.25,33.7 102.4,36.5 C104.3,39 105.25,42.15 105.25,46.05 C105.25,49.85 104.3,53 102.45,55.5 C100.35,58.2 97.5,59.6 93.8,59.6 C89.65,59.6 86.65,57.55 84.75,53.5 L84.75,68.8 L81.75,68.8 L81.75,33.05 L84.6,33.05 L84.6,38.15 C86.5,34.25 89.5,32.35 93.7,32.35 Z M93.35,34.9 C90.55,34.9 88.35,36 86.8,38.2 C85.35,40.15 84.65,42.7 84.65,45.85 L84.65,46.4 C84.65,49.5 85.4,52.05 86.95,54.05 C88.5,56.05 90.6,57.05 93.25,57.05 C96.2,57.05 98.45,55.95 100.05,53.85 C101.45,51.9 102.15,49.3 102.15,46.05 C102.15,42.8 101.45,40.2 100.1,38.25 C98.5,36 96.25,34.9 93.35,34.9 Z M121.4,32.35 C119.5,32.35 117.8,32.95 116.4,34.15 C115.2,35.1 114.25,36.4 113.55,38 L113.55,33.05 L110.55,33.05 L110.55,58.9 L113.55,58.9 L113.55,45.25 C113.55,42.65 114.2,40.4 115.6,38.5 C117,36.4 118.9,35.4 121.2,35.4 C122.5,35.4 123.8,35.55 125.15,35.95 L125.15,32.9 C124.15,32.5 122.9,32.35 121.4,32.35 Z M131.55,23.75 C130.8,23.75 130.2,24 129.75,24.5 C129.25,24.9 129,25.5 129,26.25 C129,26.95 129.25,27.55 129.75,28.05 C130.2,28.5 130.8,28.75 131.55,28.75 C132.25,28.75 132.8,28.5 133.3,28.05 C133.8,27.55 134.1,26.95 134.1,26.25 C134.1,25.5 133.85,24.9 133.35,24.5 C132.85,24 132.25,23.75 131.55,23.75 Z M130.05,33.05 L130.05,58.9 L133.05,58.9 L133.05,33.05 L130.05,33.05 Z M151.3,32.35 C155.4,32.35 158.45,33.7 160.5,36.5 C162.3,38.95 163.3,42.4 163.45,46.85 L142.45,46.85 C142.6,50 143.45,52.5 145,54.3 C146.6,56.1 148.7,57 151.4,57 C153.75,57 155.65,56.35 157.1,55.15 C158.3,54.1 159.2,52.6 159.85,50.6 L162.9,50.6 C162.3,53.1 161.15,55.15 159.45,56.75 C157.35,58.65 154.7,59.6 151.4,59.6 C147.75,59.6 144.85,58.35 142.7,55.9 C140.45,53.4 139.35,50.05 139.35,45.95 C139.35,42.15 140.4,39 142.55,36.4 C144.75,33.7 147.65,32.35 151.3,32.35 Z M151.35,34.95 C148.8,34.95 146.75,35.8 145.2,37.6 C143.65,39.35 142.75,41.6 142.5,44.4 L160.3,44.4 C159.8,38.1 156.8,34.95 151.35,34.95 Z M174.5,24.7 L171.5,25.95 L171.5,33.05 L166,33.05 L166,35.65 L171.5,35.65 L171.5,53.15 C171.5,55.05 171.85,56.45 172.65,57.35 C173.5,58.35 174.95,58.9 176.95,58.9 L180.6,58.9 L180.6,56.3 L177.35,56.3 C176.25,56.3 175.5,56.05 175.1,55.6 C174.7,55.1 174.5,54.25 174.5,53.15 L174.5,35.65 L181.25,35.65 L181.25,33.05 L174.5,33.05 L174.5,24.7 Z M196.75,32.35 C200.35,32.35 203.05,33.3 204.8,35.3 C206.3,36.95 207.1,39.25 207.1,42.25 L207.1,58.9 L204.25,58.9 L204.25,53.95 C203.2,55.45 201.8,56.75 200.1,57.75 C198,58.95 195.75,59.6 193.3,59.6 C190.8,59.6 188.75,58.95 187.25,57.7 C185.6,56.4 184.8,54.65 184.8,52.55 C184.8,49.55 186,47.35 188.45,45.95 C190.55,44.6 193.6,43.9 197.5,43.9 L204.1,43.8 L204.1,42.25 C204.1,37.35 201.6,34.9 196.6,34.9 C194.5,34.9 192.8,35.3 191.45,36.2 C189.95,37.15 189,38.5 188.6,40.3 L185.65,40.1 C186.15,37.5 187.45,35.5 189.55,34.2 C191.4,32.95 193.8,32.35 196.75,32.35 Z M204.1,46.15 L197.65,46.25 C191.1,46.3 187.85,48.4 187.85,52.5 C187.85,53.9 188.4,55 189.5,55.85 C190.6,56.7 192.1,57.15 193.9,57.15 C196.5,57.15 198.9,56.25 201,54.45 C203.05,52.75 204.1,50.85 204.1,48.85 L204.1,46.15 Z M224.25,32.35 C222.35,32.35 220.65,32.95 219.25,34.15 C218.05,35.1 217.1,36.4 216.4,38 L216.4,33.05 L213.4,33.05 L213.4,58.9 L216.4,58.9 L216.4,45.25 C216.4,42.65 217.05,40.4 218.45,38.5 C219.85,36.4 221.75,35.4 224.05,35.4 C225.35,35.4 226.65,35.55 228,35.95 L228,32.9 C227,32.5 225.75,32.35 224.25,32.35 Z M228.5,33.05 L238.75,58.25 L234.4,68.8 L237.65,68.8 L251.9,33.05 L248.6,33.05 L240.25,54.6 L231.8,33.05 L228.5,33.05 Z M280.75,32.35 C278.05,32.35 275.75,32.95 273.95,34.2 C272.05,35.5 271.15,37.15 271.15,39.25 C271.15,41.35 272.1,43 274.1,44.2 C275.3,44.95 277.4,45.7 280.4,46.5 C283.35,47.25 285.25,47.85 286.15,48.3 C287.85,49.15 288.7,50.35 288.7,51.9 C288.7,55.3 286.2,57 281.2,57 C278.8,57 277,56.55 275.8,55.65 C274.5,54.65 273.7,53 273.4,50.75 L270.45,50.75 C271.05,56.65 274.65,59.6 281.3,59.6 C288.3,59.6 291.8,56.95 291.8,51.75 C291.8,49.55 290.75,47.8 288.7,46.55 C287.4,45.75 285.15,44.95 282,44.15 C279.35,43.45 277.55,42.85 276.55,42.35 C275,41.55 274.25,40.5 274.25,39.2 C274.25,37.9 274.85,36.9 276.05,36.1 C277.25,35.3 278.8,34.95 280.7,34.95 C283,34.95 284.75,35.4 285.95,36.35 C287.05,37.2 287.75,38.5 288.1,40.3 L291.05,40.3 C290.3,35 286.85,32.35 280.75,32.35 Z M296.6,22.5 L296.6,58.9 L299.6,58.9 L299.6,49.75 L304.55,45.25 L315.25,58.9 L319.2,58.9 L306.7,43.3 L318.05,33.05 L313.95,33.05 L299.6,46.1 L299.6,22.5 L296.6,22.5 Z M325.35,23.75 C324.6,23.75 324,24 323.55,24.5 C323.05,24.9 322.8,25.5 322.8,26.25 C322.8,26.95 323.05,27.55 323.55,28.05 C324,28.5 324.6,28.75 325.35,28.75 C326.05,28.75 326.6,28.5 327.1,28.05 C327.6,27.55 327.9,26.95 327.9,26.25 C327.9,25.5 327.65,24.9 327.15,24.5 C326.65,24 326.05,23.75 325.35,23.75 Z M323.85,33.05 L323.85,58.9 L326.85,58.9 L326.85,33.05 L323.85,33.05 Z M346.05,32.35 C344.25,32.35 342.6,32.75 341.15,33.65 C339.7,34.55 338.55,35.75 337.65,37.3 L337.65,33.05 L334.65,33.05 L334.65,58.9 L337.65,58.9 L337.65,43.3 C337.8,40.75 338.6,38.7 340.1,37.2 C341.5,35.7 343.2,34.95 345.3,34.95 C350.2,34.95 352.65,37.7 352.65,43.2 L352.65,58.9 L355.65,58.9 L355.65,43 C355.65,35.9 352.45,32.35 346.05,32.35 Z M22.65,103.4 L25.65,103.4 L25.65,139.8 L22.8,139.8 L22.8,134.7 C21,138.55 18,140.5 13.75,140.5 C10,140.5 7.1,139.1 5,136.4 C3.1,133.9 2.15,130.7 2.15,126.85 C2.15,123.05 3.1,119.9 5,117.4 C7.1,114.6 9.95,113.25 13.6,113.25 C17.7,113.25 20.75,115.3 22.65,119.4 L22.65,103.4 Z M14.15,115.8 C11.2,115.8 8.95,116.9 7.35,119.1 C5.9,121 5.2,123.6 5.2,126.85 C5.2,130.1 5.9,132.7 7.3,134.65 C8.85,136.85 11.1,137.95 14.05,137.95 C16.85,137.95 19.05,136.85 20.6,134.75 C22,132.8 22.75,130.3 22.75,127.25 L22.75,126.65 C22.75,123.45 21.95,120.9 20.45,118.9 C18.85,116.8 16.75,115.8 14.15,115.8 Z M42.4,113.25 C46.5,113.25 49.55,114.6 51.6,117.4 C53.4,119.85 54.4,123.3 54.55,127.75 L33.55,127.75 C33.7,130.9 34.55,133.4 36.1,135.2 C37.7,137 39.8,137.9 42.5,137.9 C44.85,137.9 46.75,137.25 48.2,136.05 C49.4,135 50.3,133.5 50.95,131.5 L54,131.5 C53.4,134 52.25,136.05 50.55,137.65 C48.45,139.55 45.8,140.5 42.5,140.5 C38.85,140.5 35.95,139.25 33.8,136.8 C31.55,134.3 30.45,130.95 30.45,126.85 C30.45,123.05 31.5,119.9 33.65,117.3 C35.85,114.6 38.75,113.25 42.4,113.25 Z M42.45,115.85 C39.9,115.85 37.85,116.7 36.3,118.5 C34.75,120.25 33.85,122.5 33.6,125.3 L51.4,125.3 C50.9,119 47.9,115.85 42.45,115.85 Z M65.6,105.6 L62.6,106.85 L62.6,113.95 L57.1,113.95 L57.1,116.55 L62.6,116.55 L62.6,134.05 C62.6,135.95 62.95,137.35 63.75,138.25 C64.6,139.25 66.05,139.8 68.05,139.8 L71.7,139.8 L71.7,137.2 L68.45,137.2 C67.35,137.2 66.6,136.95 66.2,136.5 C65.8,136 65.6,135.15 65.6,134.05 L65.6,116.55 L72.35,116.55 L72.35,113.95 L65.6,113.95 L65.6,105.6 Z M87.35,113.25 C91.45,113.25 94.5,114.6 96.55,117.4 C98.35,119.85 99.35,123.3 99.5,127.75 L78.5,127.75 C78.65,130.9 79.5,133.4 81.05,135.2 C82.65,137 84.75,137.9 87.45,137.9 C89.8,137.9 91.7,137.25 93.15,136.05 C94.35,135 95.25,133.5 95.9,131.5 L98.95,131.5 C98.35,134 97.2,136.05 95.5,137.65 C93.4,139.55 90.75,140.5 87.45,140.5 C83.8,140.5 80.9,139.25 78.75,136.8 C76.5,134.3 75.4,130.95 75.4,126.85 C75.4,123.05 76.45,119.9 78.6,117.3 C80.8,114.6 83.7,113.25 87.35,113.25 Z M87.4,115.85 C84.85,115.85 82.8,116.7 81.25,118.5 C79.7,120.25 78.8,122.5 78.55,125.3 L96.35,125.3 C95.85,119 92.85,115.85 87.4,115.85 Z M115.2,113.25 C111.45,113.25 108.5,114.6 106.35,117.35 C104.3,119.9 103.3,123.15 103.3,127.05 C103.3,131 104.25,134.2 106.25,136.6 C108.35,139.2 111.35,140.5 115.15,140.5 C118.25,140.5 120.8,139.65 122.7,138 C124.65,136.3 125.9,133.8 126.4,130.55 L123.45,130.55 C122.7,135.45 119.95,137.9 115.15,137.9 C112.3,137.9 110.1,136.9 108.6,134.95 C107.1,133 106.35,130.35 106.35,127.05 C106.35,123.7 107.1,121 108.7,119 C110.3,116.9 112.5,115.85 115.2,115.85 C117.45,115.85 119.3,116.4 120.7,117.5 C122.1,118.6 122.95,120.2 123.3,122.4 L126.3,122.4 C125.9,119.3 124.7,117 122.75,115.5 C120.8,114 118.3,113.25 115.2,113.25 Z M137.45,105.6 L134.45,106.85 L134.45,113.95 L128.95,113.95 L128.95,116.55 L134.45,116.55 L134.45,134.05 C134.45,135.95 134.8,137.35 135.6,138.25 C136.45,139.25 137.9,139.8 139.9,139.8 L143.55,139.8 L143.55,137.2 L140.3,137.2 C139.2,137.2 138.45,136.95 138.05,136.5 C137.65,136 137.45,135.15 137.45,134.05 L137.45,116.55 L144.2,116.55 L144.2,113.95 L137.45,113.95 L137.45,105.6 Z M151.75,104.65 C151,104.65 150.4,104.9 149.95,105.4 C149.45,105.8 149.2,106.4 149.2,107.15 C149.2,107.85 149.45,108.45 149.95,108.95 C150.4,109.4 151,109.65 151.75,109.65 C152.45,109.65 153,109.4 153.5,108.95 C154,108.45 154.3,107.85 154.3,107.15 C154.3,106.4 154.05,105.8 153.55,105.4 C153.05,104.9 152.45,104.65 151.75,104.65 Z M150.25,113.95 L150.25,139.8 L153.25,139.8 L153.25,113.95 L150.25,113.95 Z M172.35,113.25 C176.15,113.25 179.2,114.6 181.5,117.35 C183.6,119.9 184.65,123.1 184.65,126.9 C184.65,130.7 183.6,133.85 181.5,136.4 C179.2,139.1 176.15,140.5 172.35,140.5 C168.55,140.5 165.5,139.1 163.2,136.4 C161.1,133.85 160.05,130.7 160.05,126.9 C160.05,123.1 161.1,119.9 163.25,117.35 C165.5,114.6 168.55,113.25 172.35,113.25 Z M172.35,115.85 C169.4,115.85 167.1,116.95 165.4,119.25 C163.85,121.25 163.1,123.8 163.1,126.9 C163.1,129.95 163.85,132.5 165.4,134.5 C167.1,136.75 169.4,137.9 172.35,137.9 C175.3,137.9 177.65,136.75 179.35,134.5 C180.85,132.45 181.65,129.9 181.65,126.9 C181.65,123.8 180.85,121.25 179.35,119.25 C177.65,116.95 175.3,115.85 172.35,115.85 Z M201.35,113.25 C199.55,113.25 197.9,113.65 196.45,114.55 C195,115.45 193.85,116.65 192.95,118.2 L192.95,113.95 L189.95,113.95 L189.95,139.8 L192.95,139.8 L192.95,124.2 C193.1,121.65 193.9,119.6 195.4,118.1 C196.8,116.6 198.5,115.85 200.6,115.85 C205.5,115.85 207.95,118.6 207.95,124.1 L207.95,139.8 L210.95,139.8 L210.95,123.9 C210.95,116.8 207.75,113.25 201.35,113.25 Z M244.85,113.25 C248.45,113.25 251.15,114.2 252.9,116.2 C254.4,117.85 255.2,120.15 255.2,123.15 L255.2,139.8 L252.35,139.8 L252.35,134.85 C251.3,136.35 249.9,137.65 248.2,138.65 C246.1,139.85 243.85,140.5 241.4,140.5 C238.9,140.5 236.85,139.85 235.35,138.6 C233.7,137.3 232.9,135.55 232.9,133.45 C232.9,130.45 234.1,128.25 236.55,126.85 C238.65,125.5 241.7,124.8 245.6,124.8 L252.2,124.7 L252.2,123.15 C252.2,118.25 249.7,115.8 244.7,115.8 C242.6,115.8 240.9,116.2 239.55,117.1 C238.05,118.05 237.1,119.4 236.7,121.2 L233.75,121 C234.25,118.4 235.55,116.4 237.65,115.1 C239.5,113.85 241.9,113.25 244.85,113.25 Z M252.2,127.05 L245.75,127.15 C239.2,127.2 235.95,129.3 235.95,133.4 C235.95,134.8 236.5,135.9 237.6,136.75 C238.7,137.6 240.2,138.05 242,138.05 C244.6,138.05 247,137.15 249.1,135.35 C251.15,133.65 252.2,131.75 252.2,129.75 L252.2,127.05 Z M262.45,103.4 L262.45,139.8 L265.45,139.8 L265.45,103.4 L262.45,103.4 Z M283.35,113.25 C287.6,113.25 290.7,115.2 292.6,119.15 L292.6,113.95 L295.6,113.95 L295.6,137.9 C295.6,146.2 291.7,150.4 284,150.4 C280.6,150.4 278,149.65 276.15,148.2 C274.4,146.8 273.3,144.75 272.85,142 L275.85,142 C276.2,143.9 277,145.35 278.25,146.3 C279.55,147.35 281.45,147.9 284,147.9 C289.7,147.9 292.6,144.65 292.6,138.25 L292.6,133.3 C290.7,137.2 287.6,139.2 283.35,139.2 C279.75,139.2 276.85,137.9 274.7,135.35 C272.7,132.95 271.7,129.95 271.7,126.25 C271.7,122.6 272.7,119.55 274.7,117.15 C276.85,114.55 279.75,113.25 283.35,113.25 Z M283.7,115.8 C280.85,115.8 278.65,116.8 277.05,118.9 C275.5,120.8 274.75,123.25 274.75,126.25 C274.75,129.15 275.45,131.55 276.9,133.45 C278.45,135.55 280.7,136.6 283.65,136.6 C286.5,136.6 288.75,135.6 290.35,133.6 C291.85,131.7 292.6,129.25 292.6,126.25 C292.6,123.25 291.85,120.8 290.35,118.9 C288.75,116.8 286.5,115.8 283.7,115.8 Z M313.2,113.25 C317,113.25 320.05,114.6 322.35,117.35 C324.45,119.9 325.5,123.1 325.5,126.9 C325.5,130.7 324.45,133.85 322.35,136.4 C320.05,139.1 317,140.5 313.2,140.5 C309.4,140.5 306.35,139.1 304.05,136.4 C301.95,133.85 300.9,130.7 300.9,126.9 C300.9,123.1 301.95,119.9 304.1,117.35 C306.35,114.6 309.4,113.25 313.2,113.25 Z M313.2,115.85 C310.25,115.85 307.95,116.95 306.25,119.25 C304.7,121.25 303.95,123.8 303.95,126.9 C303.95,129.95 304.7,132.5 306.25,134.5 C307.95,136.75 310.25,137.9 313.2,137.9 C316.15,137.9 318.5,136.75 320.2,134.5 C321.7,132.45 322.5,129.9 322.5,126.9 C322.5,123.8 321.7,121.25 320.2,119.25 C318.5,116.95 316.15,115.85 313.2,115.85 Z M341.65,113.25 C339.75,113.25 338.05,113.85 336.65,115.05 C335.45,116 334.5,117.3 333.8,118.9 L333.8,113.95 L330.8,113.95 L330.8,139.8 L333.8,139.8 L333.8,126.15 C333.8,123.55 334.45,121.3 335.85,119.4 C337.25,117.3 339.15,116.3 341.45,116.3 C342.75,116.3 344.05,116.45 345.4,116.85 L345.4,113.8 C344.4,113.4 343.15,113.25 341.65,113.25 Z M351.8,104.65 C351.05,104.65 350.45,104.9 350,105.4 C349.5,105.8 349.25,106.4 349.25,107.15 C349.25,107.85 349.5,108.45 350,108.95 C350.45,109.4 351.05,109.65 351.8,109.65 C352.5,109.65 353.05,109.4 353.55,108.95 C354.05,108.45 354.35,107.85 354.35,107.15 C354.35,106.4 354.1,105.8 353.6,105.4 C353.1,104.9 352.5,104.65 351.8,104.65 Z M350.3,113.95 L350.3,139.8 L353.3,139.8 L353.3,113.95 L350.3,113.95 Z M367.35,105.6 L364.35,106.85 L364.35,113.95 L358.85,113.95 L358.85,116.55 L364.35,116.55 L364.35,134.05 C364.35,135.95 364.7,137.35 365.5,138.25 C366.35,139.25 367.8,139.8 369.8,139.8 L373.45,139.8 L373.45,137.2 L370.2,137.2 C369.1,137.2 368.35,136.95 367.95,136.5 C367.55,136 367.35,135.15 367.35,134.05 L367.35,116.55 L374.1,116.55 L374.1,113.95 L367.35,113.95 L367.35,105.6 Z M378.65,103.4 L378.65,139.8 L381.7,139.8 L381.7,124.85 C381.7,122.3 382.4,120.15 383.9,118.45 C385.4,116.7 387.2,115.85 389.35,115.85 C391.65,115.85 393.4,116.5 394.7,117.85 C395.95,119.25 396.6,121.2 396.6,123.7 L396.6,139.8 L399.6,139.8 L399.6,123.3 C399.6,120.1 398.75,117.6 397.1,115.85 C395.45,114.1 393.15,113.25 390.2,113.25 C388.4,113.25 386.75,113.7 385.3,114.6 C383.8,115.55 382.6,116.9 381.7,118.65 L381.7,103.4 L378.65,103.4 Z M416.4,113.25 C413.25,113.25 410.75,114.75 408.9,117.85 L408.9,113.95 L405.9,113.95 L405.9,139.8 L408.9,139.8 L408.9,123.9 C408.9,121.65 409.55,119.75 410.9,118.2 C412.2,116.6 413.8,115.85 415.75,115.85 C420.05,115.85 422.2,118.3 422.2,123.3 L422.2,139.8 L425.25,139.8 L425.25,123.35 C425.25,121.15 425.85,119.4 427.15,118 C428.4,116.55 429.95,115.85 431.85,115.85 C434.15,115.85 435.9,116.5 437,117.8 C438,119 438.5,120.85 438.5,123.3 L438.5,139.8 L441.5,139.8 L441.5,122.9 C441.5,119.85 440.7,117.5 439.15,115.8 C437.55,114.1 435.35,113.25 432.65,113.25 C430.85,113.25 429.25,113.7 427.95,114.6 C426.55,115.5 425.4,116.8 424.5,118.55 C423.2,115 420.5,113.25 416.4,113.25 Z" id="txt5-1"></path>
            </g>
        </g>
    </g>
</svg>