<?xml version="1.0" encoding="UTF-8"?>
<svg width="568px" height="39px" viewBox="0 0 568 39" version="1.1" xmlns="http://www.w3.org/2000/svg" xmlns:xlink="http://www.w3.org/1999/xlink">
    <!-- Generator: Sketch 46 (44423) - http://www.bohemiancoding.com/sketch -->
    <title>The latest artificia</title>
    <desc>Created with Sketch.</desc>
    <defs></defs>
    <g id="Page-1" stroke="none" stroke-width="1" fill="none" fill-rule="evenodd">
        <g id="首页-英文" transform="translate(-154.000000, -4445.000000)" fill="#777777">
            <g id="文字" transform="translate(154.000000, 4218.000000)">
                <path d="M0.27,227.56 L0.27,228.37 L4.2,228.37 L4.2,238.27 L5.115,238.27 L5.115,228.37 L9.045,228.37 L9.045,227.56 L0.27,227.56 Z M10.26,227.35 L10.26,238.27 L11.175,238.27 L11.175,233.785 C11.175,233.02 11.385,232.375 11.835,231.865 C12.285,231.34 12.825,231.085 13.47,231.085 C14.16,231.085 14.685,231.28 15.075,231.685 C15.45,232.105 15.645,232.69 15.645,233.44 L15.645,238.27 L16.545,238.27 L16.545,233.32 C16.545,232.36 16.29,231.61 15.795,231.085 C15.3,230.56 14.61,230.305 13.725,230.305 C13.185,230.305 12.69,230.44 12.255,230.71 C11.805,230.995 11.445,231.4 11.175,231.925 L11.175,227.35 L10.26,227.35 Z M21.57,230.305 C22.8,230.305 23.715,230.71 24.33,231.55 C24.87,232.285 25.17,233.32 25.215,234.655 L18.915,234.655 C18.96,235.6 19.215,236.35 19.68,236.89 C20.16,237.43 20.79,237.7 21.6,237.7 C22.305,237.7 22.875,237.505 23.31,237.145 C23.67,236.83 23.94,236.38 24.135,235.78 L25.05,235.78 C24.87,236.53 24.525,237.145 24.015,237.625 C23.385,238.195 22.59,238.48 21.6,238.48 C20.505,238.48 19.635,238.105 18.99,237.37 C18.315,236.62 17.985,235.615 17.985,234.385 C17.985,233.245 18.3,232.3 18.945,231.52 C19.605,230.71 20.475,230.305 21.57,230.305 Z M21.585,231.085 C20.82,231.085 20.205,231.34 19.74,231.88 C19.275,232.405 19.005,233.08 18.93,233.92 L24.27,233.92 C24.12,232.03 23.22,231.085 21.585,231.085 Z M31.935,227.35 L31.935,238.27 L32.835,238.27 L32.835,227.35 L31.935,227.35 Z M38.295,230.305 C39.375,230.305 40.185,230.59 40.71,231.19 C41.16,231.685 41.4,232.375 41.4,233.275 L41.4,238.27 L40.545,238.27 L40.545,236.785 C40.23,237.235 39.81,237.625 39.3,237.925 C38.67,238.285 37.995,238.48 37.26,238.48 C36.51,238.48 35.895,238.285 35.445,237.91 C34.95,237.52 34.71,236.995 34.71,236.365 C34.71,235.465 35.07,234.805 35.805,234.385 C36.435,233.98 37.35,233.77 38.52,233.77 L40.5,233.74 L40.5,233.275 C40.5,231.805 39.75,231.07 38.25,231.07 C37.62,231.07 37.11,231.19 36.705,231.46 C36.255,231.745 35.97,232.15 35.85,232.69 L34.965,232.63 C35.115,231.85 35.505,231.25 36.135,230.86 C36.69,230.485 37.41,230.305 38.295,230.305 Z M40.5,234.445 L38.565,234.475 C36.6,234.49 35.625,235.12 35.625,236.35 C35.625,236.77 35.79,237.1 36.12,237.355 C36.45,237.61 36.9,237.745 37.44,237.745 C38.22,237.745 38.94,237.475 39.57,236.935 C40.185,236.425 40.5,235.855 40.5,235.255 L40.5,234.445 Z M45.165,228.01 L44.265,228.385 L44.265,230.515 L42.615,230.515 L42.615,231.295 L44.265,231.295 L44.265,236.545 C44.265,237.115 44.37,237.535 44.61,237.805 C44.865,238.105 45.3,238.27 45.9,238.27 L46.995,238.27 L46.995,237.49 L46.02,237.49 C45.69,237.49 45.465,237.415 45.345,237.28 C45.225,237.13 45.165,236.875 45.165,236.545 L45.165,231.295 L47.19,231.295 L47.19,230.515 L45.165,230.515 L45.165,228.01 Z M51.69,230.305 C52.92,230.305 53.835,230.71 54.45,231.55 C54.99,232.285 55.29,233.32 55.335,234.655 L49.035,234.655 C49.08,235.6 49.335,236.35 49.8,236.89 C50.28,237.43 50.91,237.7 51.72,237.7 C52.425,237.7 52.995,237.505 53.43,237.145 C53.79,236.83 54.06,236.38 54.255,235.78 L55.17,235.78 C54.99,236.53 54.645,237.145 54.135,237.625 C53.505,238.195 52.71,238.48 51.72,238.48 C50.625,238.48 49.755,238.105 49.11,237.37 C48.435,236.62 48.105,235.615 48.105,234.385 C48.105,233.245 48.42,232.3 49.065,231.52 C49.725,230.71 50.595,230.305 51.69,230.305 Z M51.705,231.085 C50.94,231.085 50.325,231.34 49.86,231.88 C49.395,232.405 49.125,233.08 49.05,233.92 L54.39,233.92 C54.24,232.03 53.34,231.085 51.705,231.085 Z M59.415,230.305 C58.605,230.305 57.915,230.485 57.375,230.86 C56.805,231.25 56.535,231.745 56.535,232.375 C56.535,233.005 56.82,233.5 57.42,233.86 C57.78,234.085 58.41,234.31 59.31,234.55 C60.195,234.775 60.765,234.955 61.035,235.09 C61.545,235.345 61.8,235.705 61.8,236.17 C61.8,237.19 61.05,237.7 59.55,237.7 C58.83,237.7 58.29,237.565 57.93,237.295 C57.54,236.995 57.3,236.5 57.21,235.825 L56.325,235.825 C56.505,237.595 57.585,238.48 59.58,238.48 C61.68,238.48 62.73,237.685 62.73,236.125 C62.73,235.465 62.415,234.94 61.8,234.565 C61.41,234.325 60.735,234.085 59.79,233.845 C58.995,233.635 58.455,233.455 58.155,233.305 C57.69,233.065 57.465,232.75 57.465,232.36 C57.465,231.97 57.645,231.67 58.005,231.43 C58.365,231.19 58.83,231.085 59.4,231.085 C60.09,231.085 60.615,231.22 60.975,231.505 C61.305,231.76 61.515,232.15 61.62,232.69 L62.505,232.69 C62.28,231.1 61.245,230.305 59.415,230.305 Z M66.045,228.01 L65.145,228.385 L65.145,230.515 L63.495,230.515 L63.495,231.295 L65.145,231.295 L65.145,236.545 C65.145,237.115 65.25,237.535 65.49,237.805 C65.745,238.105 66.18,238.27 66.78,238.27 L67.875,238.27 L67.875,237.49 L66.9,237.49 C66.57,237.49 66.345,237.415 66.225,237.28 C66.105,237.13 66.045,236.875 66.045,236.545 L66.045,231.295 L68.07,231.295 L68.07,230.515 L66.045,230.515 L66.045,228.01 Z M77.715,230.305 C78.795,230.305 79.605,230.59 80.13,231.19 C80.58,231.685 80.82,232.375 80.82,233.275 L80.82,238.27 L79.965,238.27 L79.965,236.785 C79.65,237.235 79.23,237.625 78.72,237.925 C78.09,238.285 77.415,238.48 76.68,238.48 C75.93,238.48 75.315,238.285 74.865,237.91 C74.37,237.52 74.13,236.995 74.13,236.365 C74.13,235.465 74.49,234.805 75.225,234.385 C75.855,233.98 76.77,233.77 77.94,233.77 L79.92,233.74 L79.92,233.275 C79.92,231.805 79.17,231.07 77.67,231.07 C77.04,231.07 76.53,231.19 76.125,231.46 C75.675,231.745 75.39,232.15 75.27,232.69 L74.385,232.63 C74.535,231.85 74.925,231.25 75.555,230.86 C76.11,230.485 76.83,230.305 77.715,230.305 Z M79.92,234.445 L77.985,234.475 C76.02,234.49 75.045,235.12 75.045,236.35 C75.045,236.77 75.21,237.1 75.54,237.355 C75.87,237.61 76.32,237.745 76.86,237.745 C77.64,237.745 78.36,237.475 78.99,236.935 C79.605,236.425 79.92,235.855 79.92,235.255 L79.92,234.445 Z M85.965,230.305 C85.395,230.305 84.885,230.485 84.465,230.845 C84.105,231.13 83.82,231.52 83.61,232 L83.61,230.515 L82.71,230.515 L82.71,238.27 L83.61,238.27 L83.61,234.175 C83.61,233.395 83.805,232.72 84.225,232.15 C84.645,231.52 85.215,231.22 85.905,231.22 C86.295,231.22 86.685,231.265 87.09,231.385 L87.09,230.47 C86.79,230.35 86.415,230.305 85.965,230.305 Z M89.985,228.01 L89.085,228.385 L89.085,230.515 L87.435,230.515 L87.435,231.295 L89.085,231.295 L89.085,236.545 C89.085,237.115 89.19,237.535 89.43,237.805 C89.685,238.105 90.12,238.27 90.72,238.27 L91.815,238.27 L91.815,237.49 L90.84,237.49 C90.51,237.49 90.285,237.415 90.165,237.28 C90.045,237.13 89.985,236.875 89.985,236.545 L89.985,231.295 L92.01,231.295 L92.01,230.515 L89.985,230.515 L89.985,228.01 Z M94.275,227.725 C94.05,227.725 93.87,227.8 93.735,227.95 C93.585,228.07 93.51,228.25 93.51,228.475 C93.51,228.685 93.585,228.865 93.735,229.015 C93.87,229.15 94.05,229.225 94.275,229.225 C94.485,229.225 94.65,229.15 94.8,229.015 C94.95,228.865 95.04,228.685 95.04,228.475 C95.04,228.25 94.965,228.07 94.815,227.95 C94.665,227.8 94.485,227.725 94.275,227.725 Z M93.825,230.515 L93.825,238.27 L94.725,238.27 L94.725,230.515 L93.825,230.515 Z M100.215,227.56 C99.555,227.56 99.075,227.74 98.745,228.115 C98.415,228.46 98.265,228.955 98.265,229.6 L98.265,230.515 L96.195,230.515 L96.195,231.295 L98.265,231.295 L98.265,238.27 L99.165,238.27 L99.165,231.295 L103.005,231.295 L103.005,238.27 L103.905,238.27 L103.905,230.515 L99.165,230.515 L99.165,229.615 C99.165,229.165 99.255,228.85 99.435,228.655 C99.615,228.445 99.9,228.355 100.29,228.355 L101.595,228.355 L101.595,227.56 L100.215,227.56 Z M109.35,230.305 C108.225,230.305 107.34,230.71 106.695,231.535 C106.08,232.3 105.78,233.275 105.78,234.445 C105.78,235.63 106.065,236.59 106.665,237.31 C107.295,238.09 108.195,238.48 109.335,238.48 C110.265,238.48 111.03,238.225 111.6,237.73 C112.185,237.22 112.56,236.47 112.71,235.495 L111.825,235.495 C111.6,236.965 110.775,237.7 109.335,237.7 C108.48,237.7 107.82,237.4 107.37,236.815 C106.92,236.23 106.695,235.435 106.695,234.445 C106.695,233.44 106.92,232.63 107.4,232.03 C107.88,231.4 108.54,231.085 109.35,231.085 C110.025,231.085 110.58,231.25 111,231.58 C111.42,231.91 111.675,232.39 111.78,233.05 L112.68,233.05 C112.56,232.12 112.2,231.43 111.615,230.98 C111.03,230.53 110.28,230.305 109.35,230.305 Z M115.05,227.725 C114.825,227.725 114.645,227.8 114.51,227.95 C114.36,228.07 114.285,228.25 114.285,228.475 C114.285,228.685 114.36,228.865 114.51,229.015 C114.645,229.15 114.825,229.225 115.05,229.225 C115.26,229.225 115.425,229.15 115.575,229.015 C115.725,228.865 115.815,228.685 115.815,228.475 C115.815,228.25 115.74,228.07 115.59,227.95 C115.44,227.8 115.26,227.725 115.05,227.725 Z M114.6,230.515 L114.6,238.27 L115.5,238.27 L115.5,230.515 L114.6,230.515 Z M121.125,230.305 C122.205,230.305 123.015,230.59 123.54,231.19 C123.99,231.685 124.23,232.375 124.23,233.275 L124.23,238.27 L123.375,238.27 L123.375,236.785 C123.06,237.235 122.64,237.625 122.13,237.925 C121.5,238.285 120.825,238.48 120.09,238.48 C119.34,238.48 118.725,238.285 118.275,237.91 C117.78,237.52 117.54,236.995 117.54,236.365 C117.54,235.465 117.9,234.805 118.635,234.385 C119.265,233.98 120.18,233.77 121.35,233.77 L123.33,233.74 L123.33,233.275 C123.33,231.805 122.58,231.07 121.08,231.07 C120.45,231.07 119.94,231.19 119.535,231.46 C119.085,231.745 118.8,232.15 118.68,232.69 L117.795,232.63 C117.945,231.85 118.335,231.25 118.965,230.86 C119.52,230.485 120.24,230.305 121.125,230.305 Z M123.33,234.445 L121.395,234.475 C119.43,234.49 118.455,235.12 118.455,236.35 C118.455,236.77 118.62,237.1 118.95,237.355 C119.28,237.61 119.73,237.745 120.27,237.745 C121.05,237.745 121.77,237.475 122.4,236.935 C123.015,236.425 123.33,235.855 123.33,235.255 L123.33,234.445 Z M126.405,227.35 L126.405,238.27 L127.305,238.27 L127.305,227.35 L126.405,227.35 Z M135.375,227.725 C135.15,227.725 134.97,227.8 134.835,227.95 C134.685,228.07 134.61,228.25 134.61,228.475 C134.61,228.685 134.685,228.865 134.835,229.015 C134.97,229.15 135.15,229.225 135.375,229.225 C135.585,229.225 135.75,229.15 135.9,229.015 C136.05,228.865 136.14,228.685 136.14,228.475 C136.14,228.25 136.065,228.07 135.915,227.95 C135.765,227.8 135.585,227.725 135.375,227.725 Z M134.925,230.515 L134.925,238.27 L135.825,238.27 L135.825,230.515 L134.925,230.515 Z M141.585,230.305 C141.045,230.305 140.55,230.425 140.115,230.695 C139.68,230.965 139.335,231.325 139.065,231.79 L139.065,230.515 L138.165,230.515 L138.165,238.27 L139.065,238.27 L139.065,233.59 C139.11,232.825 139.35,232.21 139.8,231.76 C140.22,231.31 140.73,231.085 141.36,231.085 C142.83,231.085 143.565,231.91 143.565,233.56 L143.565,238.27 L144.465,238.27 L144.465,233.5 C144.465,231.37 143.505,230.305 141.585,230.305 Z M148.23,228.01 L147.33,228.385 L147.33,230.515 L145.68,230.515 L145.68,231.295 L147.33,231.295 L147.33,236.545 C147.33,237.115 147.435,237.535 147.675,237.805 C147.93,238.105 148.365,238.27 148.965,238.27 L150.06,238.27 L150.06,237.49 L149.085,237.49 C148.755,237.49 148.53,237.415 148.41,237.28 C148.29,237.13 148.23,236.875 148.23,236.545 L148.23,231.295 L150.255,231.295 L150.255,230.515 L148.23,230.515 L148.23,228.01 Z M154.755,230.305 C155.985,230.305 156.9,230.71 157.515,231.55 C158.055,232.285 158.355,233.32 158.4,234.655 L152.1,234.655 C152.145,235.6 152.4,236.35 152.865,236.89 C153.345,237.43 153.975,237.7 154.785,237.7 C155.49,237.7 156.06,237.505 156.495,237.145 C156.855,236.83 157.125,236.38 157.32,235.78 L158.235,235.78 C158.055,236.53 157.71,237.145 157.2,237.625 C156.57,238.195 155.775,238.48 154.785,238.48 C153.69,238.48 152.82,238.105 152.175,237.37 C151.5,236.62 151.17,235.615 151.17,234.385 C151.17,233.245 151.485,232.3 152.13,231.52 C152.79,230.71 153.66,230.305 154.755,230.305 Z M154.77,231.085 C154.005,231.085 153.39,231.34 152.925,231.88 C152.46,232.405 152.19,233.08 152.115,233.92 L157.455,233.92 C157.305,232.03 156.405,231.085 154.77,231.085 Z M160.125,227.35 L160.125,238.27 L161.025,238.27 L161.025,227.35 L160.125,227.35 Z M163.485,227.35 L163.485,238.27 L164.385,238.27 L164.385,227.35 L163.485,227.35 Z M167.46,227.725 C167.235,227.725 167.055,227.8 166.92,227.95 C166.77,228.07 166.695,228.25 166.695,228.475 C166.695,228.685 166.77,228.865 166.92,229.015 C167.055,229.15 167.235,229.225 167.46,229.225 C167.67,229.225 167.835,229.15 167.985,229.015 C168.135,228.865 168.225,228.685 168.225,228.475 C168.225,228.25 168.15,228.07 168,227.95 C167.85,227.8 167.67,227.725 167.46,227.725 Z M167.01,230.515 L167.01,238.27 L167.91,238.27 L167.91,230.515 L167.01,230.515 Z M173.445,230.305 C174.72,230.305 175.65,230.89 176.22,232.075 L176.22,230.515 L177.12,230.515 L177.12,237.7 C177.12,240.19 175.95,241.45 173.64,241.45 C172.62,241.45 171.84,241.225 171.285,240.79 C170.76,240.37 170.43,239.755 170.295,238.93 L171.195,238.93 C171.3,239.5 171.54,239.935 171.915,240.22 C172.305,240.535 172.875,240.7 173.64,240.7 C175.35,240.7 176.22,239.725 176.22,237.805 L176.22,236.32 C175.65,237.49 174.72,238.09 173.445,238.09 C172.365,238.09 171.495,237.7 170.85,236.935 C170.25,236.215 169.95,235.315 169.95,234.205 C169.95,233.11 170.25,232.195 170.85,231.475 C171.495,230.695 172.365,230.305 173.445,230.305 Z M173.55,231.07 C172.695,231.07 172.035,231.37 171.555,232 C171.09,232.57 170.865,233.305 170.865,234.205 C170.865,235.075 171.075,235.795 171.51,236.365 C171.975,236.995 172.65,237.31 173.535,237.31 C174.39,237.31 175.065,237.01 175.545,236.41 C175.995,235.84 176.22,235.105 176.22,234.205 C176.22,233.305 175.995,232.57 175.545,232 C175.065,231.37 174.39,231.07 173.55,231.07 Z M182.145,230.305 C183.375,230.305 184.29,230.71 184.905,231.55 C185.445,232.285 185.745,233.32 185.79,234.655 L179.49,234.655 C179.535,235.6 179.79,236.35 180.255,236.89 C180.735,237.43 181.365,237.7 182.175,237.7 C182.88,237.7 183.45,237.505 183.885,237.145 C184.245,236.83 184.515,236.38 184.71,235.78 L185.625,235.78 C185.445,236.53 185.1,237.145 184.59,237.625 C183.96,238.195 183.165,238.48 182.175,238.48 C181.08,238.48 180.21,238.105 179.565,237.37 C178.89,236.62 178.56,235.615 178.56,234.385 C178.56,233.245 178.875,232.3 179.52,231.52 C180.18,230.71 181.05,230.305 182.145,230.305 Z M182.16,231.085 C181.395,231.085 180.78,231.34 180.315,231.88 C179.85,232.405 179.58,233.08 179.505,233.92 L184.845,233.92 C184.695,232.03 183.795,231.085 182.16,231.085 Z M190.65,230.305 C190.11,230.305 189.615,230.425 189.18,230.695 C188.745,230.965 188.4,231.325 188.13,231.79 L188.13,230.515 L187.23,230.515 L187.23,238.27 L188.13,238.27 L188.13,233.59 C188.175,232.825 188.415,232.21 188.865,231.76 C189.285,231.31 189.795,231.085 190.425,231.085 C191.895,231.085 192.63,231.91 192.63,233.56 L192.63,238.27 L193.53,238.27 L193.53,233.5 C193.53,231.37 192.57,230.305 190.65,230.305 Z M198.69,230.305 C197.565,230.305 196.68,230.71 196.035,231.535 C195.42,232.3 195.12,233.275 195.12,234.445 C195.12,235.63 195.405,236.59 196.005,237.31 C196.635,238.09 197.535,238.48 198.675,238.48 C199.605,238.48 200.37,238.225 200.94,237.73 C201.525,237.22 201.9,236.47 202.05,235.495 L201.165,235.495 C200.94,236.965 200.115,237.7 198.675,237.7 C197.82,237.7 197.16,237.4 196.71,236.815 C196.26,236.23 196.035,235.435 196.035,234.445 C196.035,233.44 196.26,232.63 196.74,232.03 C197.22,231.4 197.88,231.085 198.69,231.085 C199.365,231.085 199.92,231.25 200.34,231.58 C200.76,231.91 201.015,232.39 201.12,233.05 L202.02,233.05 C201.9,232.12 201.54,231.43 200.955,230.98 C200.37,230.53 199.62,230.305 198.69,230.305 Z M206.625,230.305 C207.855,230.305 208.77,230.71 209.385,231.55 C209.925,232.285 210.225,233.32 210.27,234.655 L203.97,234.655 C204.015,235.6 204.27,236.35 204.735,236.89 C205.215,237.43 205.845,237.7 206.655,237.7 C207.36,237.7 207.93,237.505 208.365,237.145 C208.725,236.83 208.995,236.38 209.19,235.78 L210.105,235.78 C209.925,236.53 209.58,237.145 209.07,237.625 C208.44,238.195 207.645,238.48 206.655,238.48 C205.56,238.48 204.69,238.105 204.045,237.37 C203.37,236.62 203.04,235.615 203.04,234.385 C203.04,233.245 203.355,232.3 204,231.52 C204.66,230.71 205.53,230.305 206.625,230.305 Z M206.64,231.085 C205.875,231.085 205.26,231.34 204.795,231.88 C204.33,232.405 204.06,233.08 203.985,233.92 L209.325,233.92 C209.175,232.03 208.275,231.085 206.64,231.085 Z M219.99,230.305 C221.07,230.305 221.88,230.59 222.405,231.19 C222.855,231.685 223.095,232.375 223.095,233.275 L223.095,238.27 L222.24,238.27 L222.24,236.785 C221.925,237.235 221.505,237.625 220.995,237.925 C220.365,238.285 219.69,238.48 218.955,238.48 C218.205,238.48 217.59,238.285 217.14,237.91 C216.645,237.52 216.405,236.995 216.405,236.365 C216.405,235.465 216.765,234.805 217.5,234.385 C218.13,233.98 219.045,233.77 220.215,233.77 L222.195,233.74 L222.195,233.275 C222.195,231.805 221.445,231.07 219.945,231.07 C219.315,231.07 218.805,231.19 218.4,231.46 C217.95,231.745 217.665,232.15 217.545,232.69 L216.66,232.63 C216.81,231.85 217.2,231.25 217.83,230.86 C218.385,230.485 219.105,230.305 219.99,230.305 Z M222.195,234.445 L220.26,234.475 C218.295,234.49 217.32,235.12 217.32,236.35 C217.32,236.77 217.485,237.1 217.815,237.355 C218.145,237.61 218.595,237.745 219.135,237.745 C219.915,237.745 220.635,237.475 221.265,236.935 C221.88,236.425 222.195,235.855 222.195,235.255 L222.195,234.445 Z M228.405,230.305 C227.865,230.305 227.37,230.425 226.935,230.695 C226.5,230.965 226.155,231.325 225.885,231.79 L225.885,230.515 L224.985,230.515 L224.985,238.27 L225.885,238.27 L225.885,233.59 C225.93,232.825 226.17,232.21 226.62,231.76 C227.04,231.31 227.55,231.085 228.18,231.085 C229.65,231.085 230.385,231.91 230.385,233.56 L230.385,238.27 L231.285,238.27 L231.285,233.5 C231.285,231.37 230.325,230.305 228.405,230.305 Z M236.46,230.305 C237.54,230.305 238.35,230.59 238.875,231.19 C239.325,231.685 239.565,232.375 239.565,233.275 L239.565,238.27 L238.71,238.27 L238.71,236.785 C238.395,237.235 237.975,237.625 237.465,237.925 C236.835,238.285 236.16,238.48 235.425,238.48 C234.675,238.48 234.06,238.285 233.61,237.91 C233.115,237.52 232.875,236.995 232.875,236.365 C232.875,235.465 233.235,234.805 233.97,234.385 C234.6,233.98 235.515,233.77 236.685,233.77 L238.665,233.74 L238.665,233.275 C238.665,231.805 237.915,231.07 236.415,231.07 C235.785,231.07 235.275,231.19 234.87,231.46 C234.42,231.745 234.135,232.15 234.015,232.69 L233.13,232.63 C233.28,231.85 233.67,231.25 234.3,230.86 C234.855,230.485 235.575,230.305 236.46,230.305 Z M238.665,234.445 L236.73,234.475 C234.765,234.49 233.79,235.12 233.79,236.35 C233.79,236.77 233.955,237.1 234.285,237.355 C234.615,237.61 235.065,237.745 235.605,237.745 C236.385,237.745 237.105,237.475 237.735,236.935 C238.35,236.425 238.665,235.855 238.665,235.255 L238.665,234.445 Z M241.74,227.35 L241.74,238.27 L242.64,238.27 L242.64,227.35 L241.74,227.35 Z M243.945,230.515 L247.02,238.075 L245.715,241.24 L246.69,241.24 L250.965,230.515 L249.975,230.515 L247.47,236.98 L244.935,230.515 L243.945,230.515 Z M254.625,230.305 C253.815,230.305 253.125,230.485 252.585,230.86 C252.015,231.25 251.745,231.745 251.745,232.375 C251.745,233.005 252.03,233.5 252.63,233.86 C252.99,234.085 253.62,234.31 254.52,234.55 C255.405,234.775 255.975,234.955 256.245,235.09 C256.755,235.345 257.01,235.705 257.01,236.17 C257.01,237.19 256.26,237.7 254.76,237.7 C254.04,237.7 253.5,237.565 253.14,237.295 C252.75,236.995 252.51,236.5 252.42,235.825 L251.535,235.825 C251.715,237.595 252.795,238.48 254.79,238.48 C256.89,238.48 257.94,237.685 257.94,236.125 C257.94,235.465 257.625,234.94 257.01,234.565 C256.62,234.325 255.945,234.085 255,233.845 C254.205,233.635 253.665,233.455 253.365,233.305 C252.9,233.065 252.675,232.75 252.675,232.36 C252.675,231.97 252.855,231.67 253.215,231.43 C253.575,231.19 254.04,231.085 254.61,231.085 C255.3,231.085 255.825,231.22 256.185,231.505 C256.515,231.76 256.725,232.15 256.83,232.69 L257.715,232.69 C257.49,231.1 256.455,230.305 254.625,230.305 Z M260.28,227.725 C260.055,227.725 259.875,227.8 259.74,227.95 C259.59,228.07 259.515,228.25 259.515,228.475 C259.515,228.685 259.59,228.865 259.74,229.015 C259.875,229.15 260.055,229.225 260.28,229.225 C260.49,229.225 260.655,229.15 260.805,229.015 C260.955,228.865 261.045,228.685 261.045,228.475 C261.045,228.25 260.97,228.07 260.82,227.95 C260.67,227.8 260.49,227.725 260.28,227.725 Z M259.83,230.515 L259.83,238.27 L260.73,238.27 L260.73,230.515 L259.83,230.515 Z M265.71,230.305 C264.9,230.305 264.21,230.485 263.67,230.86 C263.1,231.25 262.83,231.745 262.83,232.375 C262.83,233.005 263.115,233.5 263.715,233.86 C264.075,234.085 264.705,234.31 265.605,234.55 C266.49,234.775 267.06,234.955 267.33,235.09 C267.84,235.345 268.095,235.705 268.095,236.17 C268.095,237.19 267.345,237.7 265.845,237.7 C265.125,237.7 264.585,237.565 264.225,237.295 C263.835,236.995 263.595,236.5 263.505,235.825 L262.62,235.825 C262.8,237.595 263.88,238.48 265.875,238.48 C267.975,238.48 269.025,237.685 269.025,236.125 C269.025,235.465 268.71,234.94 268.095,234.565 C267.705,234.325 267.03,234.085 266.085,233.845 C265.29,233.635 264.75,233.455 264.45,233.305 C263.985,233.065 263.76,232.75 263.76,232.36 C263.76,231.97 263.94,231.67 264.3,231.43 C264.66,231.19 265.125,231.085 265.695,231.085 C266.385,231.085 266.91,231.22 267.27,231.505 C267.6,231.76 267.81,232.15 267.915,232.69 L268.8,232.69 C268.575,231.1 267.54,230.305 265.71,230.305 Z M278.61,227.56 C277.95,227.56 277.47,227.74 277.14,228.115 C276.81,228.46 276.66,228.955 276.66,229.6 L276.66,230.515 L274.59,230.515 L274.59,231.295 L276.66,231.295 L276.66,238.27 L277.56,238.27 L277.56,231.295 L279.885,231.295 L279.885,230.515 L277.56,230.515 L277.56,229.615 C277.56,229.165 277.65,228.85 277.83,228.655 C278.01,228.445 278.295,228.355 278.685,228.355 L279.99,228.355 L279.99,227.56 L278.61,227.56 Z M284.265,230.305 C283.695,230.305 283.185,230.485 282.765,230.845 C282.405,231.13 282.12,231.52 281.91,232 L281.91,230.515 L281.01,230.515 L281.01,238.27 L281.91,238.27 L281.91,234.175 C281.91,233.395 282.105,232.72 282.525,232.15 C282.945,231.52 283.515,231.22 284.205,231.22 C284.595,231.22 284.985,231.265 285.39,231.385 L285.39,230.47 C285.09,230.35 284.715,230.305 284.265,230.305 Z M289.8,230.305 C290.94,230.305 291.855,230.71 292.545,231.535 C293.175,232.3 293.49,233.26 293.49,234.4 C293.49,235.54 293.175,236.485 292.545,237.25 C291.855,238.06 290.94,238.48 289.8,238.48 C288.66,238.48 287.745,238.06 287.055,237.25 C286.425,236.485 286.11,235.54 286.11,234.4 C286.11,233.26 286.425,232.3 287.07,231.535 C287.745,230.71 288.66,230.305 289.8,230.305 Z M289.8,231.085 C288.915,231.085 288.225,231.415 287.715,232.105 C287.25,232.705 287.025,233.47 287.025,234.4 C287.025,235.315 287.25,236.08 287.715,236.68 C288.225,237.355 288.915,237.7 289.8,237.7 C290.685,237.7 291.39,237.355 291.9,236.68 C292.35,236.065 292.59,235.3 292.59,234.4 C292.59,233.47 292.35,232.705 291.9,232.105 C291.39,231.415 290.685,231.085 289.8,231.085 Z M298.23,230.305 C297.285,230.305 296.535,230.755 295.98,231.685 L295.98,230.515 L295.08,230.515 L295.08,238.27 L295.98,238.27 L295.98,233.5 C295.98,232.825 296.175,232.255 296.58,231.79 C296.97,231.31 297.45,231.085 298.035,231.085 C299.325,231.085 299.97,231.82 299.97,233.32 L299.97,238.27 L300.885,238.27 L300.885,233.335 C300.885,232.675 301.065,232.15 301.455,231.73 C301.83,231.295 302.295,231.085 302.865,231.085 C303.555,231.085 304.08,231.28 304.41,231.67 C304.71,232.03 304.86,232.585 304.86,233.32 L304.86,238.27 L305.76,238.27 L305.76,233.2 C305.76,232.285 305.52,231.58 305.055,231.07 C304.575,230.56 303.915,230.305 303.105,230.305 C302.565,230.305 302.085,230.44 301.695,230.71 C301.275,230.98 300.93,231.37 300.66,231.895 C300.27,230.83 299.46,230.305 298.23,230.305 Z M316.29,227.35 C315.21,227.35 314.31,227.575 313.62,228.04 C312.84,228.535 312.465,229.24 312.465,230.17 C312.465,231.04 312.87,231.715 313.695,232.18 C314.055,232.39 314.88,232.675 316.155,233.035 C317.37,233.365 318.15,233.65 318.51,233.86 C319.23,234.265 319.605,234.835 319.605,235.57 C319.605,236.2 319.305,236.71 318.735,237.085 C318.15,237.445 317.385,237.64 316.44,237.64 C315.45,237.64 314.685,237.415 314.145,236.98 C313.545,236.485 313.2,235.735 313.095,234.73 L312.195,234.73 C312.285,236.02 312.735,236.995 313.545,237.64 C314.25,238.195 315.225,238.48 316.455,238.48 C317.67,238.48 318.645,238.225 319.38,237.715 C320.145,237.175 320.535,236.44 320.535,235.525 C320.535,234.55 320.085,233.8 319.2,233.275 C318.72,232.975 317.805,232.645 316.44,232.255 C315.39,231.955 314.7,231.715 314.385,231.565 C313.71,231.205 313.38,230.74 313.38,230.14 C313.38,229.465 313.65,228.955 314.22,228.625 C314.715,228.325 315.39,228.175 316.26,228.175 C317.19,228.175 317.91,228.385 318.42,228.82 C318.93,229.255 319.245,229.885 319.365,230.725 L320.28,230.725 C320.19,229.615 319.785,228.775 319.08,228.205 C318.39,227.635 317.46,227.35 316.29,227.35 Z M322.875,227.725 C322.65,227.725 322.47,227.8 322.335,227.95 C322.185,228.07 322.11,228.25 322.11,228.475 C322.11,228.685 322.185,228.865 322.335,229.015 C322.47,229.15 322.65,229.225 322.875,229.225 C323.085,229.225 323.25,229.15 323.4,229.015 C323.55,228.865 323.64,228.685 323.64,228.475 C323.64,228.25 323.565,228.07 323.415,227.95 C323.265,227.8 323.085,227.725 322.875,227.725 Z M322.425,230.515 L322.425,238.27 L323.325,238.27 L323.325,230.515 L322.425,230.515 Z M325.95,227.35 L325.95,238.27 L326.85,238.27 L326.85,227.35 L325.95,227.35 Z M329.925,227.725 C329.7,227.725 329.52,227.8 329.385,227.95 C329.235,228.07 329.16,228.25 329.16,228.475 C329.16,228.685 329.235,228.865 329.385,229.015 C329.52,229.15 329.7,229.225 329.925,229.225 C330.135,229.225 330.3,229.15 330.45,229.015 C330.6,228.865 330.69,228.685 330.69,228.475 C330.69,228.25 330.615,228.07 330.465,227.95 C330.315,227.8 330.135,227.725 329.925,227.725 Z M329.475,230.515 L329.475,238.27 L330.375,238.27 L330.375,230.515 L329.475,230.515 Z M335.985,230.305 C334.86,230.305 333.975,230.71 333.33,231.535 C332.715,232.3 332.415,233.275 332.415,234.445 C332.415,235.63 332.7,236.59 333.3,237.31 C333.93,238.09 334.83,238.48 335.97,238.48 C336.9,238.48 337.665,238.225 338.235,237.73 C338.82,237.22 339.195,236.47 339.345,235.495 L338.46,235.495 C338.235,236.965 337.41,237.7 335.97,237.7 C335.115,237.7 334.455,237.4 334.005,236.815 C333.555,236.23 333.33,235.435 333.33,234.445 C333.33,233.44 333.555,232.63 334.035,232.03 C334.515,231.4 335.175,231.085 335.985,231.085 C336.66,231.085 337.215,231.25 337.635,231.58 C338.055,231.91 338.31,232.39 338.415,233.05 L339.315,233.05 C339.195,232.12 338.835,231.43 338.25,230.98 C337.665,230.53 336.915,230.305 335.985,230.305 Z M344.175,230.305 C345.315,230.305 346.23,230.71 346.92,231.535 C347.55,232.3 347.865,233.26 347.865,234.4 C347.865,235.54 347.55,236.485 346.92,237.25 C346.23,238.06 345.315,238.48 344.175,238.48 C343.035,238.48 342.12,238.06 341.43,237.25 C340.8,236.485 340.485,235.54 340.485,234.4 C340.485,233.26 340.8,232.3 341.445,231.535 C342.12,230.71 343.035,230.305 344.175,230.305 Z M344.175,231.085 C343.29,231.085 342.6,231.415 342.09,232.105 C341.625,232.705 341.4,233.47 341.4,234.4 C341.4,235.315 341.625,236.08 342.09,236.68 C342.6,237.355 343.29,237.7 344.175,237.7 C345.06,237.7 345.765,237.355 346.275,236.68 C346.725,236.065 346.965,235.3 346.965,234.4 C346.965,233.47 346.725,232.705 346.275,232.105 C345.765,231.415 345.06,231.085 344.175,231.085 Z M352.875,230.305 C352.335,230.305 351.84,230.425 351.405,230.695 C350.97,230.965 350.625,231.325 350.355,231.79 L350.355,230.515 L349.455,230.515 L349.455,238.27 L350.355,238.27 L350.355,233.59 C350.4,232.825 350.64,232.21 351.09,231.76 C351.51,231.31 352.02,231.085 352.65,231.085 C354.12,231.085 354.855,231.91 354.855,233.56 L354.855,238.27 L355.755,238.27 L355.755,233.5 C355.755,231.37 354.795,230.305 352.875,230.305 Z M361.77,227.56 L365.82,238.27 L366.99,238.27 L371.025,227.56 L370.005,227.56 L366.42,237.295 L366.375,237.295 L362.79,227.56 L361.77,227.56 Z M375.33,230.305 C376.41,230.305 377.22,230.59 377.745,231.19 C378.195,231.685 378.435,232.375 378.435,233.275 L378.435,238.27 L377.58,238.27 L377.58,236.785 C377.265,237.235 376.845,237.625 376.335,237.925 C375.705,238.285 375.03,238.48 374.295,238.48 C373.545,238.48 372.93,238.285 372.48,237.91 C371.985,237.52 371.745,236.995 371.745,236.365 C371.745,235.465 372.105,234.805 372.84,234.385 C373.47,233.98 374.385,233.77 375.555,233.77 L377.535,233.74 L377.535,233.275 C377.535,231.805 376.785,231.07 375.285,231.07 C374.655,231.07 374.145,231.19 373.74,231.46 C373.29,231.745 373.005,232.15 372.885,232.69 L372,232.63 C372.15,231.85 372.54,231.25 373.17,230.86 C373.725,230.485 374.445,230.305 375.33,230.305 Z M377.535,234.445 L375.6,234.475 C373.635,234.49 372.66,235.12 372.66,236.35 C372.66,236.77 372.825,237.1 373.155,237.355 C373.485,237.61 373.935,237.745 374.475,237.745 C375.255,237.745 375.975,237.475 376.605,236.935 C377.22,236.425 377.535,235.855 377.535,235.255 L377.535,234.445 Z M380.61,227.35 L380.61,238.27 L381.51,238.27 L381.51,227.35 L380.61,227.35 Z M383.97,227.35 L383.97,238.27 L384.87,238.27 L384.87,227.35 L383.97,227.35 Z M390.18,230.305 C391.41,230.305 392.325,230.71 392.94,231.55 C393.48,232.285 393.78,233.32 393.825,234.655 L387.525,234.655 C387.57,235.6 387.825,236.35 388.29,236.89 C388.77,237.43 389.4,237.7 390.21,237.7 C390.915,237.7 391.485,237.505 391.92,237.145 C392.28,236.83 392.55,236.38 392.745,235.78 L393.66,235.78 C393.48,236.53 393.135,237.145 392.625,237.625 C391.995,238.195 391.2,238.48 390.21,238.48 C389.115,238.48 388.245,238.105 387.6,237.37 C386.925,236.62 386.595,235.615 386.595,234.385 C386.595,233.245 386.91,232.3 387.555,231.52 C388.215,230.71 389.085,230.305 390.18,230.305 Z M390.195,231.085 C389.43,231.085 388.815,231.34 388.35,231.88 C387.885,232.405 387.615,233.08 387.54,233.92 L392.88,233.92 C392.73,232.03 391.83,231.085 390.195,231.085 Z M394.395,230.515 L397.47,238.075 L396.165,241.24 L397.14,241.24 L401.415,230.515 L400.425,230.515 L397.92,236.98 L395.385,230.515 L394.395,230.515 Z M410.715,230.305 C411.795,230.305 412.605,230.59 413.13,231.19 C413.58,231.685 413.82,232.375 413.82,233.275 L413.82,238.27 L412.965,238.27 L412.965,236.785 C412.65,237.235 412.23,237.625 411.72,237.925 C411.09,238.285 410.415,238.48 409.68,238.48 C408.93,238.48 408.315,238.285 407.865,237.91 C407.37,237.52 407.13,236.995 407.13,236.365 C407.13,235.465 407.49,234.805 408.225,234.385 C408.855,233.98 409.77,233.77 410.94,233.77 L412.92,233.74 L412.92,233.275 C412.92,231.805 412.17,231.07 410.67,231.07 C410.04,231.07 409.53,231.19 409.125,231.46 C408.675,231.745 408.39,232.15 408.27,232.69 L407.385,232.63 C407.535,231.85 407.925,231.25 408.555,230.86 C409.11,230.485 409.83,230.305 410.715,230.305 Z M412.92,234.445 L410.985,234.475 C409.02,234.49 408.045,235.12 408.045,236.35 C408.045,236.77 408.21,237.1 408.54,237.355 C408.87,237.61 409.32,237.745 409.86,237.745 C410.64,237.745 411.36,237.475 411.99,236.935 C412.605,236.425 412.92,235.855 412.92,235.255 L412.92,234.445 Z M421.56,227.35 L422.46,227.35 L422.46,238.27 L421.605,238.27 L421.605,236.74 C421.065,237.895 420.165,238.48 418.89,238.48 C417.765,238.48 416.895,238.06 416.265,237.25 C415.695,236.5 415.41,235.54 415.41,234.385 C415.41,233.245 415.695,232.3 416.265,231.55 C416.895,230.71 417.75,230.305 418.845,230.305 C420.075,230.305 420.99,230.92 421.56,232.15 L421.56,227.35 Z M419.01,231.07 C418.125,231.07 417.45,231.4 416.97,232.06 C416.535,232.63 416.325,233.41 416.325,234.385 C416.325,235.36 416.535,236.14 416.955,236.725 C417.42,237.385 418.095,237.715 418.98,237.715 C419.82,237.715 420.48,237.385 420.945,236.755 C421.365,236.17 421.59,235.42 421.59,234.505 L421.59,234.325 C421.59,233.365 421.35,232.6 420.9,232 C420.42,231.37 419.79,231.07 419.01,231.07 Z M430.2,227.35 L431.1,227.35 L431.1,238.27 L430.245,238.27 L430.245,236.74 C429.705,237.895 428.805,238.48 427.53,238.48 C426.405,238.48 425.535,238.06 424.905,237.25 C424.335,236.5 424.05,235.54 424.05,234.385 C424.05,233.245 424.335,232.3 424.905,231.55 C425.535,230.71 426.39,230.305 427.485,230.305 C428.715,230.305 429.63,230.92 430.2,232.15 L430.2,227.35 Z M427.65,231.07 C426.765,231.07 426.09,231.4 425.61,232.06 C425.175,232.63 424.965,233.41 424.965,234.385 C424.965,235.36 425.175,236.14 425.595,236.725 C426.06,237.385 426.735,237.715 427.62,237.715 C428.46,237.715 429.12,237.385 429.585,236.755 C430.005,236.17 430.23,235.42 430.23,234.505 L430.23,234.325 C430.23,233.365 429.99,232.6 429.54,232 C429.06,231.37 428.43,231.07 427.65,231.07 Z M435.63,230.305 C434.82,230.305 434.13,230.485 433.59,230.86 C433.02,231.25 432.75,231.745 432.75,232.375 C432.75,233.005 433.035,233.5 433.635,233.86 C433.995,234.085 434.625,234.31 435.525,234.55 C436.41,234.775 436.98,234.955 437.25,235.09 C437.76,235.345 438.015,235.705 438.015,236.17 C438.015,237.19 437.265,237.7 435.765,237.7 C435.045,237.7 434.505,237.565 434.145,237.295 C433.755,236.995 433.515,236.5 433.425,235.825 L432.54,235.825 C432.72,237.595 433.8,238.48 435.795,238.48 C437.895,238.48 438.945,237.685 438.945,236.125 C438.945,235.465 438.63,234.94 438.015,234.565 C437.625,234.325 436.95,234.085 436.005,233.845 C435.21,233.635 434.67,233.455 434.37,233.305 C433.905,233.065 433.68,232.75 433.68,232.36 C433.68,231.97 433.86,231.67 434.22,231.43 C434.58,231.19 435.045,231.085 435.615,231.085 C436.305,231.085 436.83,231.22 437.19,231.505 C437.52,231.76 437.73,232.15 437.835,232.69 L438.72,232.69 C438.495,231.1 437.46,230.305 435.63,230.305 Z M447.255,228.01 L446.355,228.385 L446.355,230.515 L444.705,230.515 L444.705,231.295 L446.355,231.295 L446.355,236.545 C446.355,237.115 446.46,237.535 446.7,237.805 C446.955,238.105 447.39,238.27 447.99,238.27 L449.085,238.27 L449.085,237.49 L448.11,237.49 C447.78,237.49 447.555,237.415 447.435,237.28 C447.315,237.13 447.255,236.875 447.255,236.545 L447.255,231.295 L449.28,231.295 L449.28,230.515 L447.255,230.515 L447.255,228.01 Z M453.78,230.305 C455.01,230.305 455.925,230.71 456.54,231.55 C457.08,232.285 457.38,233.32 457.425,234.655 L451.125,234.655 C451.17,235.6 451.425,236.35 451.89,236.89 C452.37,237.43 453,237.7 453.81,237.7 C454.515,237.7 455.085,237.505 455.52,237.145 C455.88,236.83 456.15,236.38 456.345,235.78 L457.26,235.78 C457.08,236.53 456.735,237.145 456.225,237.625 C455.595,238.195 454.8,238.48 453.81,238.48 C452.715,238.48 451.845,238.105 451.2,237.37 C450.525,236.62 450.195,235.615 450.195,234.385 C450.195,233.245 450.51,232.3 451.155,231.52 C451.815,230.71 452.685,230.305 453.78,230.305 Z M453.795,231.085 C453.03,231.085 452.415,231.34 451.95,231.88 C451.485,232.405 451.215,233.08 451.14,233.92 L456.48,233.92 C456.33,232.03 455.43,231.085 453.795,231.085 Z M462.285,230.305 C461.745,230.305 461.25,230.425 460.815,230.695 C460.38,230.965 460.035,231.325 459.765,231.79 L459.765,230.515 L458.865,230.515 L458.865,238.27 L459.765,238.27 L459.765,233.59 C459.81,232.825 460.05,232.21 460.5,231.76 C460.92,231.31 461.43,231.085 462.06,231.085 C463.53,231.085 464.265,231.91 464.265,233.56 L464.265,238.27 L465.165,238.27 L465.165,233.5 C465.165,231.37 464.205,230.305 462.285,230.305 Z M469.695,230.305 C468.885,230.305 468.195,230.485 467.655,230.86 C467.085,231.25 466.815,231.745 466.815,232.375 C466.815,233.005 467.1,233.5 467.7,233.86 C468.06,234.085 468.69,234.31 469.59,234.55 C470.475,234.775 471.045,234.955 471.315,235.09 C471.825,235.345 472.08,235.705 472.08,236.17 C472.08,237.19 471.33,237.7 469.83,237.7 C469.11,237.7 468.57,237.565 468.21,237.295 C467.82,236.995 467.58,236.5 467.49,235.825 L466.605,235.825 C466.785,237.595 467.865,238.48 469.86,238.48 C471.96,238.48 473.01,237.685 473.01,236.125 C473.01,235.465 472.695,234.94 472.08,234.565 C471.69,234.325 471.015,234.085 470.07,233.845 C469.275,233.635 468.735,233.455 468.435,233.305 C467.97,233.065 467.745,232.75 467.745,232.36 C467.745,231.97 467.925,231.67 468.285,231.43 C468.645,231.19 469.11,231.085 469.68,231.085 C470.37,231.085 470.895,231.22 471.255,231.505 C471.585,231.76 471.795,232.15 471.9,232.69 L472.785,232.69 C472.56,231.1 471.525,230.305 469.695,230.305 Z M482.835,230.305 C483.975,230.305 484.89,230.71 485.58,231.535 C486.21,232.3 486.525,233.26 486.525,234.4 C486.525,235.54 486.21,236.485 485.58,237.25 C484.89,238.06 483.975,238.48 482.835,238.48 C481.695,238.48 480.78,238.06 480.09,237.25 C479.46,236.485 479.145,235.54 479.145,234.4 C479.145,233.26 479.46,232.3 480.105,231.535 C480.78,230.71 481.695,230.305 482.835,230.305 Z M482.835,231.085 C481.95,231.085 481.26,231.415 480.75,232.105 C480.285,232.705 480.06,233.47 480.06,234.4 C480.06,235.315 480.285,236.08 480.75,236.68 C481.26,237.355 481.95,237.7 482.835,237.7 C483.72,237.7 484.425,237.355 484.935,236.68 C485.385,236.065 485.625,235.3 485.625,234.4 C485.625,233.47 485.385,232.705 484.935,232.105 C484.425,231.415 483.72,231.085 482.835,231.085 Z M491.265,227.56 C490.605,227.56 490.125,227.74 489.795,228.115 C489.465,228.46 489.315,228.955 489.315,229.6 L489.315,230.515 L487.245,230.515 L487.245,231.295 L489.315,231.295 L489.315,238.27 L490.215,238.27 L490.215,231.295 L492.54,231.295 L492.54,230.515 L490.215,230.515 L490.215,229.615 C490.215,229.165 490.305,228.85 490.485,228.655 C490.665,228.445 490.95,228.355 491.34,228.355 L492.645,228.355 L492.645,227.56 L491.265,227.56 Z M500.535,228.01 L499.635,228.385 L499.635,230.515 L497.985,230.515 L497.985,231.295 L499.635,231.295 L499.635,236.545 C499.635,237.115 499.74,237.535 499.98,237.805 C500.235,238.105 500.67,238.27 501.27,238.27 L502.365,238.27 L502.365,237.49 L501.39,237.49 C501.06,237.49 500.835,237.415 500.715,237.28 C500.595,237.13 500.535,236.875 500.535,236.545 L500.535,231.295 L502.56,231.295 L502.56,230.515 L500.535,230.515 L500.535,228.01 Z M503.925,227.35 L503.925,238.27 L504.84,238.27 L504.84,233.785 C504.84,233.02 505.05,232.375 505.5,231.865 C505.95,231.34 506.49,231.085 507.135,231.085 C507.825,231.085 508.35,231.28 508.74,231.685 C509.115,232.105 509.31,232.69 509.31,233.44 L509.31,238.27 L510.21,238.27 L510.21,233.32 C510.21,232.36 509.955,231.61 509.46,231.085 C508.965,230.56 508.275,230.305 507.39,230.305 C506.85,230.305 506.355,230.44 505.92,230.71 C505.47,230.995 505.11,231.4 504.84,231.925 L504.84,227.35 L503.925,227.35 Z M515.49,230.305 C516.63,230.305 517.545,230.71 518.235,231.535 C518.865,232.3 519.18,233.26 519.18,234.4 C519.18,235.54 518.865,236.485 518.235,237.25 C517.545,238.06 516.63,238.48 515.49,238.48 C514.35,238.48 513.435,238.06 512.745,237.25 C512.115,236.485 511.8,235.54 511.8,234.4 C511.8,233.26 512.115,232.3 512.76,231.535 C513.435,230.71 514.35,230.305 515.49,230.305 Z M515.49,231.085 C514.605,231.085 513.915,231.415 513.405,232.105 C512.94,232.705 512.715,233.47 512.715,234.4 C512.715,235.315 512.94,236.08 513.405,236.68 C513.915,237.355 514.605,237.7 515.49,237.7 C516.375,237.7 517.08,237.355 517.59,236.68 C518.04,236.065 518.28,235.3 518.28,234.4 C518.28,233.47 518.04,232.705 517.59,232.105 C517.08,231.415 516.375,231.085 515.49,231.085 Z M520.77,230.515 L520.77,235.3 C520.77,237.415 521.715,238.48 523.605,238.48 C524.715,238.48 525.585,237.97 526.185,236.965 L526.185,238.27 L527.085,238.27 L527.085,230.515 L526.185,230.515 L526.185,235.225 C526.125,235.96 525.87,236.56 525.42,237.01 C524.97,237.46 524.445,237.7 523.845,237.7 C523.095,237.7 522.54,237.49 522.18,237.07 C521.835,236.665 521.67,236.065 521.67,235.255 L521.67,230.515 L520.77,230.515 Z M531.615,230.305 C530.805,230.305 530.115,230.485 529.575,230.86 C529.005,231.25 528.735,231.745 528.735,232.375 C528.735,233.005 529.02,233.5 529.62,233.86 C529.98,234.085 530.61,234.31 531.51,234.55 C532.395,234.775 532.965,234.955 533.235,235.09 C533.745,235.345 534,235.705 534,236.17 C534,237.19 533.25,237.7 531.75,237.7 C531.03,237.7 530.49,237.565 530.13,237.295 C529.74,236.995 529.5,236.5 529.41,235.825 L528.525,235.825 C528.705,237.595 529.785,238.48 531.78,238.48 C533.88,238.48 534.93,237.685 534.93,236.125 C534.93,235.465 534.615,234.94 534,234.565 C533.61,234.325 532.935,234.085 531.99,233.845 C531.195,233.635 530.655,233.455 530.355,233.305 C529.89,233.065 529.665,232.75 529.665,232.36 C529.665,231.97 529.845,231.67 530.205,231.43 C530.565,231.19 531.03,231.085 531.6,231.085 C532.29,231.085 532.815,231.22 533.175,231.505 C533.505,231.76 533.715,232.15 533.82,232.69 L534.705,232.69 C534.48,231.1 533.445,230.305 531.615,230.305 Z M539.655,230.305 C540.735,230.305 541.545,230.59 542.07,231.19 C542.52,231.685 542.76,232.375 542.76,233.275 L542.76,238.27 L541.905,238.27 L541.905,236.785 C541.59,237.235 541.17,237.625 540.66,237.925 C540.03,238.285 539.355,238.48 538.62,238.48 C537.87,238.48 537.255,238.285 536.805,237.91 C536.31,237.52 536.07,236.995 536.07,236.365 C536.07,235.465 536.43,234.805 537.165,234.385 C537.795,233.98 538.71,233.77 539.88,233.77 L541.86,233.74 L541.86,233.275 C541.86,231.805 541.11,231.07 539.61,231.07 C538.98,231.07 538.47,231.19 538.065,231.46 C537.615,231.745 537.33,232.15 537.21,232.69 L536.325,232.63 C536.475,231.85 536.865,231.25 537.495,230.86 C538.05,230.485 538.77,230.305 539.655,230.305 Z M541.86,234.445 L539.925,234.475 C537.96,234.49 536.985,235.12 536.985,236.35 C536.985,236.77 537.15,237.1 537.48,237.355 C537.81,237.61 538.26,237.745 538.8,237.745 C539.58,237.745 540.3,237.475 540.93,236.935 C541.545,236.425 541.86,235.855 541.86,235.255 L541.86,234.445 Z M548.07,230.305 C547.53,230.305 547.035,230.425 546.6,230.695 C546.165,230.965 545.82,231.325 545.55,231.79 L545.55,230.515 L544.65,230.515 L544.65,238.27 L545.55,238.27 L545.55,233.59 C545.595,232.825 545.835,232.21 546.285,231.76 C546.705,231.31 547.215,231.085 547.845,231.085 C549.315,231.085 550.05,231.91 550.05,233.56 L550.05,238.27 L550.95,238.27 L550.95,233.5 C550.95,231.37 549.99,230.305 548.07,230.305 Z M558.69,227.35 L559.59,227.35 L559.59,238.27 L558.735,238.27 L558.735,236.74 C558.195,237.895 557.295,238.48 556.02,238.48 C554.895,238.48 554.025,238.06 553.395,237.25 C552.825,236.5 552.54,235.54 552.54,234.385 C552.54,233.245 552.825,232.3 553.395,231.55 C554.025,230.71 554.88,230.305 555.975,230.305 C557.205,230.305 558.12,230.92 558.69,232.15 L558.69,227.35 Z M556.14,231.07 C555.255,231.07 554.58,231.4 554.1,232.06 C553.665,232.63 553.455,233.41 553.455,234.385 C553.455,235.36 553.665,236.14 554.085,236.725 C554.55,237.385 555.225,237.715 556.11,237.715 C556.95,237.715 557.61,237.385 558.075,236.755 C558.495,236.17 558.72,235.42 558.72,234.505 L558.72,234.325 C558.72,233.365 558.48,232.6 558.03,232 C557.55,231.37 556.92,231.07 556.14,231.07 Z M564.12,230.305 C563.31,230.305 562.62,230.485 562.08,230.86 C561.51,231.25 561.24,231.745 561.24,232.375 C561.24,233.005 561.525,233.5 562.125,233.86 C562.485,234.085 563.115,234.31 564.015,234.55 C564.9,234.775 565.47,234.955 565.74,235.09 C566.25,235.345 566.505,235.705 566.505,236.17 C566.505,237.19 565.755,237.7 564.255,237.7 C563.535,237.7 562.995,237.565 562.635,237.295 C562.245,236.995 562.005,236.5 561.915,235.825 L561.03,235.825 C561.21,237.595 562.29,238.48 564.285,238.48 C566.385,238.48 567.435,237.685 567.435,236.125 C567.435,235.465 567.12,234.94 566.505,234.565 C566.115,234.325 565.44,234.085 564.495,233.845 C563.7,233.635 563.16,233.455 562.86,233.305 C562.395,233.065 562.17,232.75 562.17,232.36 C562.17,231.97 562.35,231.67 562.71,231.43 C563.07,231.19 563.535,231.085 564.105,231.085 C564.795,231.085 565.32,231.22 565.68,231.505 C566.01,231.76 566.22,232.15 566.325,232.69 L567.21,232.69 C566.985,231.1 565.95,230.305 564.12,230.305 Z M4.335,254.575 C5.475,254.575 6.39,254.98 7.08,255.805 C7.71,256.57 8.025,257.53 8.025,258.67 C8.025,259.81 7.71,260.755 7.08,261.52 C6.39,262.33 5.475,262.75 4.335,262.75 C3.195,262.75 2.28,262.33 1.59,261.52 C0.96,260.755 0.645,259.81 0.645,258.67 C0.645,257.53 0.96,256.57 1.605,255.805 C2.28,254.98 3.195,254.575 4.335,254.575 Z M4.335,255.355 C3.45,255.355 2.76,255.685 2.25,256.375 C1.785,256.975 1.56,257.74 1.56,258.67 C1.56,259.585 1.785,260.35 2.25,260.95 C2.76,261.625 3.45,261.97 4.335,261.97 C5.22,261.97 5.925,261.625 6.435,260.95 C6.885,260.335 7.125,259.57 7.125,258.67 C7.125,257.74 6.885,256.975 6.435,256.375 C5.925,255.685 5.22,255.355 4.335,255.355 Z M12.765,251.83 C12.105,251.83 11.625,252.01 11.295,252.385 C10.965,252.73 10.815,253.225 10.815,253.87 L10.815,254.785 L8.745,254.785 L8.745,255.565 L10.815,255.565 L10.815,262.54 L11.715,262.54 L11.715,255.565 L14.04,255.565 L14.04,254.785 L11.715,254.785 L11.715,253.885 C11.715,253.435 11.805,253.12 11.985,252.925 C12.165,252.715 12.45,252.625 12.84,252.625 L14.145,252.625 L14.145,251.83 L12.765,251.83 Z M22.035,252.28 L21.135,252.655 L21.135,254.785 L19.485,254.785 L19.485,255.565 L21.135,255.565 L21.135,260.815 C21.135,261.385 21.24,261.805 21.48,262.075 C21.735,262.375 22.17,262.54 22.77,262.54 L23.865,262.54 L23.865,261.76 L22.89,261.76 C22.56,261.76 22.335,261.685 22.215,261.55 C22.095,261.4 22.035,261.145 22.035,260.815 L22.035,255.565 L24.06,255.565 L24.06,254.785 L22.035,254.785 L22.035,252.28 Z M26.325,251.995 C26.1,251.995 25.92,252.07 25.785,252.22 C25.635,252.34 25.56,252.52 25.56,252.745 C25.56,252.955 25.635,253.135 25.785,253.285 C25.92,253.42 26.1,253.495 26.325,253.495 C26.535,253.495 26.7,253.42 26.85,253.285 C27,253.135 27.09,252.955 27.09,252.745 C27.09,252.52 27.015,252.34 26.865,252.22 C26.715,252.07 26.535,251.995 26.325,251.995 Z M25.875,254.785 L25.875,262.54 L26.775,262.54 L26.775,254.785 L25.875,254.785 Z M32.265,254.575 C31.32,254.575 30.57,255.025 30.015,255.955 L30.015,254.785 L29.115,254.785 L29.115,262.54 L30.015,262.54 L30.015,257.77 C30.015,257.095 30.21,256.525 30.615,256.06 C31.005,255.58 31.485,255.355 32.07,255.355 C33.36,255.355 34.005,256.09 34.005,257.59 L34.005,262.54 L34.92,262.54 L34.92,257.605 C34.92,256.945 35.1,256.42 35.49,256 C35.865,255.565 36.33,255.355 36.9,255.355 C37.59,255.355 38.115,255.55 38.445,255.94 C38.745,256.3 38.895,256.855 38.895,257.59 L38.895,262.54 L39.795,262.54 L39.795,257.47 C39.795,256.555 39.555,255.85 39.09,255.34 C38.61,254.83 37.95,254.575 37.14,254.575 C36.6,254.575 36.12,254.71 35.73,254.98 C35.31,255.25 34.965,255.64 34.695,256.165 C34.305,255.1 33.495,254.575 32.265,254.575 Z M44.82,254.575 C46.05,254.575 46.965,254.98 47.58,255.82 C48.12,256.555 48.42,257.59 48.465,258.925 L42.165,258.925 C42.21,259.87 42.465,260.62 42.93,261.16 C43.41,261.7 44.04,261.97 44.85,261.97 C45.555,261.97 46.125,261.775 46.56,261.415 C46.92,261.1 47.19,260.65 47.385,260.05 L48.3,260.05 C48.12,260.8 47.775,261.415 47.265,261.895 C46.635,262.465 45.84,262.75 44.85,262.75 C43.755,262.75 42.885,262.375 42.24,261.64 C41.565,260.89 41.235,259.885 41.235,258.655 C41.235,257.515 41.55,256.57 42.195,255.79 C42.855,254.98 43.725,254.575 44.82,254.575 Z M44.835,255.355 C44.07,255.355 43.455,255.61 42.99,256.15 C42.525,256.675 42.255,257.35 42.18,258.19 L47.52,258.19 C47.37,256.3 46.47,255.355 44.835,255.355 Z M52.545,254.575 C51.735,254.575 51.045,254.755 50.505,255.13 C49.935,255.52 49.665,256.015 49.665,256.645 C49.665,257.275 49.95,257.77 50.55,258.13 C50.91,258.355 51.54,258.58 52.44,258.82 C53.325,259.045 53.895,259.225 54.165,259.36 C54.675,259.615 54.93,259.975 54.93,260.44 C54.93,261.46 54.18,261.97 52.68,261.97 C51.96,261.97 51.42,261.835 51.06,261.565 C50.67,261.265 50.43,260.77 50.34,260.095 L49.455,260.095 C49.635,261.865 50.715,262.75 52.71,262.75 C54.81,262.75 55.86,261.955 55.86,260.395 C55.86,259.735 55.545,259.21 54.93,258.835 C54.54,258.595 53.865,258.355 52.92,258.115 C52.125,257.905 51.585,257.725 51.285,257.575 C50.82,257.335 50.595,257.02 50.595,256.63 C50.595,256.24 50.775,255.94 51.135,255.7 C51.495,255.46 51.96,255.355 52.53,255.355 C53.22,255.355 53.745,255.49 54.105,255.775 C54.435,256.03 54.645,256.42 54.75,256.96 L55.635,256.96 C55.41,255.37 54.375,254.575 52.545,254.575 Z M64.17,252.28 L63.27,252.655 L63.27,254.785 L61.62,254.785 L61.62,255.565 L63.27,255.565 L63.27,260.815 C63.27,261.385 63.375,261.805 63.615,262.075 C63.87,262.375 64.305,262.54 64.905,262.54 L66,262.54 L66,261.76 L65.025,261.76 C64.695,261.76 64.47,261.685 64.35,261.55 C64.23,261.4 64.17,261.145 64.17,260.815 L64.17,255.565 L66.195,255.565 L66.195,254.785 L64.17,254.785 L64.17,252.28 Z M70.95,254.575 C72.09,254.575 73.005,254.98 73.695,255.805 C74.325,256.57 74.64,257.53 74.64,258.67 C74.64,259.81 74.325,260.755 73.695,261.52 C73.005,262.33 72.09,262.75 70.95,262.75 C69.81,262.75 68.895,262.33 68.205,261.52 C67.575,260.755 67.26,259.81 67.26,258.67 C67.26,257.53 67.575,256.57 68.22,255.805 C68.895,254.98 69.81,254.575 70.95,254.575 Z M70.95,255.355 C70.065,255.355 69.375,255.685 68.865,256.375 C68.4,256.975 68.175,257.74 68.175,258.67 C68.175,259.585 68.4,260.35 68.865,260.95 C69.375,261.625 70.065,261.97 70.95,261.97 C71.835,261.97 72.54,261.625 73.05,260.95 C73.5,260.335 73.74,259.57 73.74,258.67 C73.74,257.74 73.5,256.975 73.05,256.375 C72.54,255.685 71.835,255.355 70.95,255.355 Z M83.1,252.28 L82.2,252.655 L82.2,254.785 L80.55,254.785 L80.55,255.565 L82.2,255.565 L82.2,260.815 C82.2,261.385 82.305,261.805 82.545,262.075 C82.8,262.375 83.235,262.54 83.835,262.54 L84.93,262.54 L84.93,261.76 L83.955,261.76 C83.625,261.76 83.4,261.685 83.28,261.55 C83.16,261.4 83.1,261.145 83.1,260.815 L83.1,255.565 L85.125,255.565 L85.125,254.785 L83.1,254.785 L83.1,252.28 Z M86.49,251.62 L86.49,262.54 L87.405,262.54 L87.405,258.055 C87.405,257.29 87.615,256.645 88.065,256.135 C88.515,255.61 89.055,255.355 89.7,255.355 C90.39,255.355 90.915,255.55 91.305,255.955 C91.68,256.375 91.875,256.96 91.875,257.71 L91.875,262.54 L92.775,262.54 L92.775,257.59 C92.775,256.63 92.52,255.88 92.025,255.355 C91.53,254.83 90.84,254.575 89.955,254.575 C89.415,254.575 88.92,254.71 88.485,254.98 C88.035,255.265 87.675,255.67 87.405,256.195 L87.405,251.62 L86.49,251.62 Z M97.8,254.575 C99.03,254.575 99.945,254.98 100.56,255.82 C101.1,256.555 101.4,257.59 101.445,258.925 L95.145,258.925 C95.19,259.87 95.445,260.62 95.91,261.16 C96.39,261.7 97.02,261.97 97.83,261.97 C98.535,261.97 99.105,261.775 99.54,261.415 C99.9,261.1 100.17,260.65 100.365,260.05 L101.28,260.05 C101.1,260.8 100.755,261.415 100.245,261.895 C99.615,262.465 98.82,262.75 97.83,262.75 C96.735,262.75 95.865,262.375 95.22,261.64 C94.545,260.89 94.215,259.885 94.215,258.655 C94.215,257.515 94.53,256.57 95.175,255.79 C95.835,254.98 96.705,254.575 97.8,254.575 Z M97.815,255.355 C97.05,255.355 96.435,255.61 95.97,256.15 C95.505,256.675 95.235,257.35 95.16,258.19 L100.5,258.19 C100.35,256.3 99.45,255.355 97.815,255.355 Z M108.165,251.62 L108.165,262.54 L109.065,262.54 L109.065,251.62 L108.165,251.62 Z M114.525,254.575 C115.605,254.575 116.415,254.86 116.94,255.46 C117.39,255.955 117.63,256.645 117.63,257.545 L117.63,262.54 L116.775,262.54 L116.775,261.055 C116.46,261.505 116.04,261.895 115.53,262.195 C114.9,262.555 114.225,262.75 113.49,262.75 C112.74,262.75 112.125,262.555 111.675,262.18 C111.18,261.79 110.94,261.265 110.94,260.635 C110.94,259.735 111.3,259.075 112.035,258.655 C112.665,258.25 113.58,258.04 114.75,258.04 L116.73,258.01 L116.73,257.545 C116.73,256.075 115.98,255.34 114.48,255.34 C113.85,255.34 113.34,255.46 112.935,255.73 C112.485,256.015 112.2,256.42 112.08,256.96 L111.195,256.9 C111.345,256.12 111.735,255.52 112.365,255.13 C112.92,254.755 113.64,254.575 114.525,254.575 Z M116.73,258.715 L114.795,258.745 C112.83,258.76 111.855,259.39 111.855,260.62 C111.855,261.04 112.02,261.37 112.35,261.625 C112.68,261.88 113.13,262.015 113.67,262.015 C114.45,262.015 115.17,261.745 115.8,261.205 C116.415,260.695 116.73,260.125 116.73,259.525 L116.73,258.715 Z M122.775,254.575 C122.205,254.575 121.695,254.755 121.275,255.115 C120.915,255.4 120.63,255.79 120.42,256.27 L120.42,254.785 L119.52,254.785 L119.52,262.54 L120.42,262.54 L120.42,258.445 C120.42,257.665 120.615,256.99 121.035,256.42 C121.455,255.79 122.025,255.49 122.715,255.49 C123.105,255.49 123.495,255.535 123.9,255.655 L123.9,254.74 C123.6,254.62 123.225,254.575 122.775,254.575 Z M128.115,254.575 C129.39,254.575 130.32,255.16 130.89,256.345 L130.89,254.785 L131.79,254.785 L131.79,261.97 C131.79,264.46 130.62,265.72 128.31,265.72 C127.29,265.72 126.51,265.495 125.955,265.06 C125.43,264.64 125.1,264.025 124.965,263.2 L125.865,263.2 C125.97,263.77 126.21,264.205 126.585,264.49 C126.975,264.805 127.545,264.97 128.31,264.97 C130.02,264.97 130.89,263.995 130.89,262.075 L130.89,260.59 C130.32,261.76 129.39,262.36 128.115,262.36 C127.035,262.36 126.165,261.97 125.52,261.205 C124.92,260.485 124.62,259.585 124.62,258.475 C124.62,257.38 124.92,256.465 125.52,255.745 C126.165,254.965 127.035,254.575 128.115,254.575 Z M128.22,255.34 C127.365,255.34 126.705,255.64 126.225,256.27 C125.76,256.84 125.535,257.575 125.535,258.475 C125.535,259.345 125.745,260.065 126.18,260.635 C126.645,261.265 127.32,261.58 128.205,261.58 C129.06,261.58 129.735,261.28 130.215,260.68 C130.665,260.11 130.89,259.375 130.89,258.475 C130.89,257.575 130.665,256.84 130.215,256.27 C129.735,255.64 129.06,255.34 128.22,255.34 Z M136.815,254.575 C138.045,254.575 138.96,254.98 139.575,255.82 C140.115,256.555 140.415,257.59 140.46,258.925 L134.16,258.925 C134.205,259.87 134.46,260.62 134.925,261.16 C135.405,261.7 136.035,261.97 136.845,261.97 C137.55,261.97 138.12,261.775 138.555,261.415 C138.915,261.1 139.185,260.65 139.38,260.05 L140.295,260.05 C140.115,260.8 139.77,261.415 139.26,261.895 C138.63,262.465 137.835,262.75 136.845,262.75 C135.75,262.75 134.88,262.375 134.235,261.64 C133.56,260.89 133.23,259.885 133.23,258.655 C133.23,257.515 133.545,256.57 134.19,255.79 C134.85,254.98 135.72,254.575 136.815,254.575 Z M136.83,255.355 C136.065,255.355 135.45,255.61 134.985,256.15 C134.52,256.675 134.25,257.35 134.175,258.19 L139.515,258.19 C139.365,256.3 138.465,255.355 136.83,255.355 Z M145.155,254.575 C144.585,254.575 144.075,254.755 143.655,255.115 C143.295,255.4 143.01,255.79 142.8,256.27 L142.8,254.785 L141.9,254.785 L141.9,262.54 L142.8,262.54 L142.8,258.445 C142.8,257.665 142.995,256.99 143.415,256.42 C143.835,255.79 144.405,255.49 145.095,255.49 C145.485,255.49 145.875,255.535 146.28,255.655 L146.28,254.74 C145.98,254.62 145.605,254.575 145.155,254.575 Z M158.145,251.62 L159.045,251.62 L159.045,262.54 L158.19,262.54 L158.19,261.01 C157.65,262.165 156.75,262.75 155.475,262.75 C154.35,262.75 153.48,262.33 152.85,261.52 C152.28,260.77 151.995,259.81 151.995,258.655 C151.995,257.515 152.28,256.57 152.85,255.82 C153.48,254.98 154.335,254.575 155.43,254.575 C156.66,254.575 157.575,255.19 158.145,256.42 L158.145,251.62 Z M155.595,255.34 C154.71,255.34 154.035,255.67 153.555,256.33 C153.12,256.9 152.91,257.68 152.91,258.655 C152.91,259.63 153.12,260.41 153.54,260.995 C154.005,261.655 154.68,261.985 155.565,261.985 C156.405,261.985 157.065,261.655 157.53,261.025 C157.95,260.44 158.175,259.69 158.175,258.775 L158.175,258.595 C158.175,257.635 157.935,256.87 157.485,256.27 C157.005,255.64 156.375,255.34 155.595,255.34 Z M164.22,254.575 C165.3,254.575 166.11,254.86 166.635,255.46 C167.085,255.955 167.325,256.645 167.325,257.545 L167.325,262.54 L166.47,262.54 L166.47,261.055 C166.155,261.505 165.735,261.895 165.225,262.195 C164.595,262.555 163.92,262.75 163.185,262.75 C162.435,262.75 161.82,262.555 161.37,262.18 C160.875,261.79 160.635,261.265 160.635,260.635 C160.635,259.735 160.995,259.075 161.73,258.655 C162.36,258.25 163.275,258.04 164.445,258.04 L166.425,258.01 L166.425,257.545 C166.425,256.075 165.675,255.34 164.175,255.34 C163.545,255.34 163.035,255.46 162.63,255.73 C162.18,256.015 161.895,256.42 161.775,256.96 L160.89,256.9 C161.04,256.12 161.43,255.52 162.06,255.13 C162.615,254.755 163.335,254.575 164.22,254.575 Z M166.425,258.715 L164.49,258.745 C162.525,258.76 161.55,259.39 161.55,260.62 C161.55,261.04 161.715,261.37 162.045,261.625 C162.375,261.88 162.825,262.015 163.365,262.015 C164.145,262.015 164.865,261.745 165.495,261.205 C166.11,260.695 166.425,260.125 166.425,259.525 L166.425,258.715 Z M171.09,252.28 L170.19,252.655 L170.19,254.785 L168.54,254.785 L168.54,255.565 L170.19,255.565 L170.19,260.815 C170.19,261.385 170.295,261.805 170.535,262.075 C170.79,262.375 171.225,262.54 171.825,262.54 L172.92,262.54 L172.92,261.76 L171.945,261.76 C171.615,261.76 171.39,261.685 171.27,261.55 C171.15,261.4 171.09,261.145 171.09,260.815 L171.09,255.565 L173.115,255.565 L173.115,254.785 L171.09,254.785 L171.09,252.28 Z M177.765,254.575 C178.845,254.575 179.655,254.86 180.18,255.46 C180.63,255.955 180.87,256.645 180.87,257.545 L180.87,262.54 L180.015,262.54 L180.015,261.055 C179.7,261.505 179.28,261.895 178.77,262.195 C178.14,262.555 177.465,262.75 176.73,262.75 C175.98,262.75 175.365,262.555 174.915,262.18 C174.42,261.79 174.18,261.265 174.18,260.635 C174.18,259.735 174.54,259.075 175.275,258.655 C175.905,258.25 176.82,258.04 177.99,258.04 L179.97,258.01 L179.97,257.545 C179.97,256.075 179.22,255.34 177.72,255.34 C177.09,255.34 176.58,255.46 176.175,255.73 C175.725,256.015 175.44,256.42 175.32,256.96 L174.435,256.9 C174.585,256.12 174.975,255.52 175.605,255.13 C176.16,254.755 176.88,254.575 177.765,254.575 Z M179.97,258.715 L178.035,258.745 C176.07,258.76 175.095,259.39 175.095,260.62 C175.095,261.04 175.26,261.37 175.59,261.625 C175.92,261.88 176.37,262.015 176.91,262.015 C177.69,262.015 178.41,261.745 179.04,261.205 C179.655,260.695 179.97,260.125 179.97,259.525 L179.97,258.715 Z M183.75,261.04 C183.525,261.04 183.345,261.115 183.21,261.265 C183.06,261.415 182.985,261.595 182.985,261.805 C182.985,262.015 183.06,262.21 183.21,262.36 C183.345,262.495 183.525,262.57 183.75,262.57 C183.96,262.57 184.14,262.495 184.29,262.36 C184.44,262.21 184.515,262.015 184.515,261.805 C184.515,261.595 184.44,261.415 184.29,261.265 C184.14,261.115 183.96,261.04 183.75,261.04 Z M194.97,251.83 L196.05,251.83 L200.34,262.54 L199.335,262.54 L198.09,259.345 L192.93,259.345 L191.685,262.54 L190.68,262.54 L194.97,251.83 Z M193.23,258.565 L197.79,258.565 L195.54,252.82 L195.495,252.82 L193.23,258.565 Z M201.57,251.83 L201.57,262.54 L202.485,262.54 L202.485,251.83 L201.57,251.83 Z M209.655,251.62 L209.655,262.54 L210.555,262.54 L210.555,259.795 L212.04,258.445 L215.25,262.54 L216.435,262.54 L212.685,257.86 L216.09,254.785 L214.86,254.785 L210.555,258.7 L210.555,251.62 L209.655,251.62 Z M220.8,254.575 C220.26,254.575 219.765,254.695 219.33,254.965 C218.895,255.235 218.55,255.595 218.28,256.06 L218.28,254.785 L217.38,254.785 L217.38,262.54 L218.28,262.54 L218.28,257.86 C218.325,257.095 218.565,256.48 219.015,256.03 C219.435,255.58 219.945,255.355 220.575,255.355 C222.045,255.355 222.78,256.18 222.78,257.83 L222.78,262.54 L223.68,262.54 L223.68,257.77 C223.68,255.64 222.72,254.575 220.8,254.575 Z M228.96,254.575 C230.1,254.575 231.015,254.98 231.705,255.805 C232.335,256.57 232.65,257.53 232.65,258.67 C232.65,259.81 232.335,260.755 231.705,261.52 C231.015,262.33 230.1,262.75 228.96,262.75 C227.82,262.75 226.905,262.33 226.215,261.52 C225.585,260.755 225.27,259.81 225.27,258.67 C225.27,257.53 225.585,256.57 226.23,255.805 C226.905,254.98 227.82,254.575 228.96,254.575 Z M228.96,255.355 C228.075,255.355 227.385,255.685 226.875,256.375 C226.41,256.975 226.185,257.74 226.185,258.67 C226.185,259.585 226.41,260.35 226.875,260.95 C227.385,261.625 228.075,261.97 228.96,261.97 C229.845,261.97 230.55,261.625 231.06,260.95 C231.51,260.335 231.75,259.57 231.75,258.67 C231.75,257.74 231.51,256.975 231.06,256.375 C230.55,255.685 229.845,255.355 228.96,255.355 Z M233.37,254.785 L236.04,262.54 L236.895,262.54 L238.875,255.955 L240.825,262.54 L241.695,262.54 L244.35,254.785 L243.36,254.785 L241.245,261.385 L239.295,254.785 L238.425,254.785 L236.475,261.385 L234.375,254.785 L233.37,254.785 Z M248.01,254.575 C247.2,254.575 246.51,254.755 245.97,255.13 C245.4,255.52 245.13,256.015 245.13,256.645 C245.13,257.275 245.415,257.77 246.015,258.13 C246.375,258.355 247.005,258.58 247.905,258.82 C248.79,259.045 249.36,259.225 249.63,259.36 C250.14,259.615 250.395,259.975 250.395,260.44 C250.395,261.46 249.645,261.97 248.145,261.97 C247.425,261.97 246.885,261.835 246.525,261.565 C246.135,261.265 245.895,260.77 245.805,260.095 L244.92,260.095 C245.1,261.865 246.18,262.75 248.175,262.75 C250.275,262.75 251.325,261.955 251.325,260.395 C251.325,259.735 251.01,259.21 250.395,258.835 C250.005,258.595 249.33,258.355 248.385,258.115 C247.59,257.905 247.05,257.725 246.75,257.575 C246.285,257.335 246.06,257.02 246.06,256.63 C246.06,256.24 246.24,255.94 246.6,255.7 C246.96,255.46 247.425,255.355 247.995,255.355 C248.685,255.355 249.21,255.49 249.57,255.775 C249.9,256.03 250.11,256.42 250.215,256.96 L251.1,256.96 C250.875,255.37 249.84,254.575 248.01,254.575 Z M256.89,254.785 L259.965,262.345 L258.66,265.51 L259.635,265.51 L263.91,254.785 L262.92,254.785 L260.415,261.25 L257.88,254.785 L256.89,254.785 Z M268.32,254.575 C269.46,254.575 270.375,254.98 271.065,255.805 C271.695,256.57 272.01,257.53 272.01,258.67 C272.01,259.81 271.695,260.755 271.065,261.52 C270.375,262.33 269.46,262.75 268.32,262.75 C267.18,262.75 266.265,262.33 265.575,261.52 C264.945,260.755 264.63,259.81 264.63,258.67 C264.63,257.53 264.945,256.57 265.59,255.805 C266.265,254.98 267.18,254.575 268.32,254.575 Z M268.32,255.355 C267.435,255.355 266.745,255.685 266.235,256.375 C265.77,256.975 265.545,257.74 265.545,258.67 C265.545,259.585 265.77,260.35 266.235,260.95 C266.745,261.625 267.435,261.97 268.32,261.97 C269.205,261.97 269.91,261.625 270.42,260.95 C270.87,260.335 271.11,259.57 271.11,258.67 C271.11,257.74 270.87,256.975 270.42,256.375 C269.91,255.685 269.205,255.355 268.32,255.355 Z M273.6,254.785 L273.6,259.57 C273.6,261.685 274.545,262.75 276.435,262.75 C277.545,262.75 278.415,262.24 279.015,261.235 L279.015,262.54 L279.915,262.54 L279.915,254.785 L279.015,254.785 L279.015,259.495 C278.955,260.23 278.7,260.83 278.25,261.28 C277.8,261.73 277.275,261.97 276.675,261.97 C275.925,261.97 275.37,261.76 275.01,261.34 C274.665,260.935 274.5,260.335 274.5,259.525 L274.5,254.785 L273.6,254.785 Z M286.8,251.62 L287.7,251.62 L287.7,256.42 C288.27,255.19 289.17,254.575 290.415,254.575 C291.495,254.575 292.365,254.98 292.995,255.82 C293.565,256.57 293.85,257.515 293.85,258.655 C293.85,259.81 293.565,260.77 292.995,261.52 C292.365,262.33 291.495,262.75 290.385,262.75 C289.095,262.75 288.18,262.165 287.655,261.01 L287.655,262.54 L286.8,262.54 L286.8,251.62 Z M290.25,255.34 C289.455,255.34 288.825,255.64 288.36,256.27 C287.895,256.87 287.67,257.635 287.67,258.595 L287.67,258.775 C287.67,259.69 287.88,260.44 288.315,261.025 C288.765,261.655 289.425,261.985 290.28,261.985 C291.15,261.985 291.825,261.655 292.305,260.995 C292.725,260.41 292.935,259.63 292.935,258.655 C292.935,257.68 292.71,256.9 292.29,256.33 C291.81,255.67 291.135,255.34 290.25,255.34 Z M298.575,254.575 C299.805,254.575 300.72,254.98 301.335,255.82 C301.875,256.555 302.175,257.59 302.22,258.925 L295.92,258.925 C295.965,259.87 296.22,260.62 296.685,261.16 C297.165,261.7 297.795,261.97 298.605,261.97 C299.31,261.97 299.88,261.775 300.315,261.415 C300.675,261.1 300.945,260.65 301.14,260.05 L302.055,260.05 C301.875,260.8 301.53,261.415 301.02,261.895 C300.39,262.465 299.595,262.75 298.605,262.75 C297.51,262.75 296.64,262.375 295.995,261.64 C295.32,260.89 294.99,259.885 294.99,258.655 C294.99,257.515 295.305,256.57 295.95,255.79 C296.61,254.98 297.48,254.575 298.575,254.575 Z M298.59,255.355 C297.825,255.355 297.21,255.61 296.745,256.15 C296.28,256.675 296.01,257.35 295.935,258.19 L301.275,258.19 C301.125,256.3 300.225,255.355 298.59,255.355 Z M305.535,252.28 L304.635,252.655 L304.635,254.785 L302.985,254.785 L302.985,255.565 L304.635,255.565 L304.635,260.815 C304.635,261.385 304.74,261.805 304.98,262.075 C305.235,262.375 305.67,262.54 306.27,262.54 L307.365,262.54 L307.365,261.76 L306.39,261.76 C306.06,261.76 305.835,261.685 305.715,261.55 C305.595,261.4 305.535,261.145 305.535,260.815 L305.535,255.565 L307.56,255.565 L307.56,254.785 L305.535,254.785 L305.535,252.28 Z M310.8,252.28 L309.9,252.655 L309.9,254.785 L308.25,254.785 L308.25,255.565 L309.9,255.565 L309.9,260.815 C309.9,261.385 310.005,261.805 310.245,262.075 C310.5,262.375 310.935,262.54 311.535,262.54 L312.63,262.54 L312.63,261.76 L311.655,261.76 C311.325,261.76 311.1,261.685 310.98,261.55 C310.86,261.4 310.8,261.145 310.8,260.815 L310.8,255.565 L312.825,255.565 L312.825,254.785 L310.8,254.785 L310.8,252.28 Z M317.325,254.575 C318.555,254.575 319.47,254.98 320.085,255.82 C320.625,256.555 320.925,257.59 320.97,258.925 L314.67,258.925 C314.715,259.87 314.97,260.62 315.435,261.16 C315.915,261.7 316.545,261.97 317.355,261.97 C318.06,261.97 318.63,261.775 319.065,261.415 C319.425,261.1 319.695,260.65 319.89,260.05 L320.805,260.05 C320.625,260.8 320.28,261.415 319.77,261.895 C319.14,262.465 318.345,262.75 317.355,262.75 C316.26,262.75 315.39,262.375 314.745,261.64 C314.07,260.89 313.74,259.885 313.74,258.655 C313.74,257.515 314.055,256.57 314.7,255.79 C315.36,254.98 316.23,254.575 317.325,254.575 Z M317.34,255.355 C316.575,255.355 315.96,255.61 315.495,256.15 C315.03,256.675 314.76,257.35 314.685,258.19 L320.025,258.19 C319.875,256.3 318.975,255.355 317.34,255.355 Z M325.665,254.575 C325.095,254.575 324.585,254.755 324.165,255.115 C323.805,255.4 323.52,255.79 323.31,256.27 L323.31,254.785 L322.41,254.785 L322.41,262.54 L323.31,262.54 L323.31,258.445 C323.31,257.665 323.505,256.99 323.925,256.42 C324.345,255.79 324.915,255.49 325.605,255.49 C325.995,255.49 326.385,255.535 326.79,255.655 L326.79,254.74 C326.49,254.62 326.115,254.575 325.665,254.575 Z M334.68,252.28 L333.78,252.655 L333.78,254.785 L332.13,254.785 L332.13,255.565 L333.78,255.565 L333.78,260.815 C333.78,261.385 333.885,261.805 334.125,262.075 C334.38,262.375 334.815,262.54 335.415,262.54 L336.51,262.54 L336.51,261.76 L335.535,261.76 C335.205,261.76 334.98,261.685 334.86,261.55 C334.74,261.4 334.68,261.145 334.68,260.815 L334.68,255.565 L336.705,255.565 L336.705,254.785 L334.68,254.785 L334.68,252.28 Z M338.07,251.62 L338.07,262.54 L338.985,262.54 L338.985,258.055 C338.985,257.29 339.195,256.645 339.645,256.135 C340.095,255.61 340.635,255.355 341.28,255.355 C341.97,255.355 342.495,255.55 342.885,255.955 C343.26,256.375 343.455,256.96 343.455,257.71 L343.455,262.54 L344.355,262.54 L344.355,257.59 C344.355,256.63 344.1,255.88 343.605,255.355 C343.11,254.83 342.42,254.575 341.535,254.575 C340.995,254.575 340.5,254.71 340.065,254.98 C339.615,255.265 339.255,255.67 338.985,256.195 L338.985,251.62 L338.07,251.62 Z M349.53,254.575 C350.61,254.575 351.42,254.86 351.945,255.46 C352.395,255.955 352.635,256.645 352.635,257.545 L352.635,262.54 L351.78,262.54 L351.78,261.055 C351.465,261.505 351.045,261.895 350.535,262.195 C349.905,262.555 349.23,262.75 348.495,262.75 C347.745,262.75 347.13,262.555 346.68,262.18 C346.185,261.79 345.945,261.265 345.945,260.635 C345.945,259.735 346.305,259.075 347.04,258.655 C347.67,258.25 348.585,258.04 349.755,258.04 L351.735,258.01 L351.735,257.545 C351.735,256.075 350.985,255.34 349.485,255.34 C348.855,255.34 348.345,255.46 347.94,255.73 C347.49,256.015 347.205,256.42 347.085,256.96 L346.2,256.9 C346.35,256.12 346.74,255.52 347.37,255.13 C347.925,254.755 348.645,254.575 349.53,254.575 Z M351.735,258.715 L349.8,258.745 C347.835,258.76 346.86,259.39 346.86,260.62 C346.86,261.04 347.025,261.37 347.355,261.625 C347.685,261.88 348.135,262.015 348.675,262.015 C349.455,262.015 350.175,261.745 350.805,261.205 C351.42,260.695 351.735,260.125 351.735,259.525 L351.735,258.715 Z M357.945,254.575 C357.405,254.575 356.91,254.695 356.475,254.965 C356.04,255.235 355.695,255.595 355.425,256.06 L355.425,254.785 L354.525,254.785 L354.525,262.54 L355.425,262.54 L355.425,257.86 C355.47,257.095 355.71,256.48 356.16,256.03 C356.58,255.58 357.09,255.355 357.72,255.355 C359.19,255.355 359.925,256.18 359.925,257.83 L359.925,262.54 L360.825,262.54 L360.825,257.77 C360.825,255.64 359.865,254.575 357.945,254.575 Z M366.84,254.785 L369.915,262.345 L368.61,265.51 L369.585,265.51 L373.86,254.785 L372.87,254.785 L370.365,261.25 L367.83,254.785 L366.84,254.785 Z M378.27,254.575 C379.41,254.575 380.325,254.98 381.015,255.805 C381.645,256.57 381.96,257.53 381.96,258.67 C381.96,259.81 381.645,260.755 381.015,261.52 C380.325,262.33 379.41,262.75 378.27,262.75 C377.13,262.75 376.215,262.33 375.525,261.52 C374.895,260.755 374.58,259.81 374.58,258.67 C374.58,257.53 374.895,256.57 375.54,255.805 C376.215,254.98 377.13,254.575 378.27,254.575 Z M378.27,255.355 C377.385,255.355 376.695,255.685 376.185,256.375 C375.72,256.975 375.495,257.74 375.495,258.67 C375.495,259.585 375.72,260.35 376.185,260.95 C376.695,261.625 377.385,261.97 378.27,261.97 C379.155,261.97 379.86,261.625 380.37,260.95 C380.82,260.335 381.06,259.57 381.06,258.67 C381.06,257.74 380.82,256.975 380.37,256.375 C379.86,255.685 379.155,255.355 378.27,255.355 Z M383.55,254.785 L383.55,259.57 C383.55,261.685 384.495,262.75 386.385,262.75 C387.495,262.75 388.365,262.24 388.965,261.235 L388.965,262.54 L389.865,262.54 L389.865,254.785 L388.965,254.785 L388.965,259.495 C388.905,260.23 388.65,260.83 388.2,261.28 C387.75,261.73 387.225,261.97 386.625,261.97 C385.875,261.97 385.32,261.76 384.96,261.34 C384.615,260.935 384.45,260.335 384.45,259.525 L384.45,254.785 L383.55,254.785 Z" id="The-latest-artificia"></path>
            </g>
        </g>
    </g>
</svg>