<?xml version="1.0" encoding="UTF-8"?>
<svg width="406px" height="19px" viewBox="0 0 406 19" version="1.1" xmlns="http://www.w3.org/2000/svg" xmlns:xlink="http://www.w3.org/1999/xlink">
    <!-- Generator: Sketch 46 (44423) - http://www.bohemiancoding.com/sketch -->
    <title>Group 34</title>
    <desc>Created with Sketch.</desc>
    <defs></defs>
    <g id="Page-1" stroke="none" stroke-width="1" fill="none" fill-rule="evenodd">
        <g id="首页-英文" transform="translate(-518.000000, -5315.000000)">
            <g id="6" transform="translate(0.000000, 5126.000000)">
                <g id="标题" transform="translate(457.000000, 81.000000)">
                    <g id="Group-21" transform="translate(60.000000, 108.000000)">
                        <g id="Group-34">
                            <path d="M1.145,3.29 L1.145,14 L2.06,14 L2.06,4.805 L2.12,4.805 L6.125,14 L7.01,14 L11.03,4.805 L11.075,4.805 L11.075,14 L11.99,14 L11.99,3.29 L10.775,3.29 L6.605,12.845 L6.56,12.845 L2.36,3.29 L1.145,3.29 Z M17.165,6.035 C18.395,6.035 19.31,6.44 19.925,7.28 C20.465,8.015 20.765,9.05 20.81,10.385 L14.51,10.385 C14.555,11.33 14.81,12.08 15.275,12.62 C15.755,13.16 16.385,13.43 17.195,13.43 C17.9,13.43 18.47,13.235 18.905,12.875 C19.265,12.56 19.535,12.11 19.73,11.51 L20.645,11.51 C20.465,12.26 20.12,12.875 19.61,13.355 C18.98,13.925 18.185,14.21 17.195,14.21 C16.1,14.21 15.23,13.835 14.585,13.1 C13.91,12.35 13.58,11.345 13.58,10.115 C13.58,8.975 13.895,8.03 14.54,7.25 C15.2,6.44 16.07,6.035 17.165,6.035 Z M17.18,6.815 C16.415,6.815 15.8,7.07 15.335,7.61 C14.87,8.135 14.6,8.81 14.525,9.65 L19.865,9.65 C19.715,7.76 18.815,6.815 17.18,6.815 Z M28.1,3.08 L29,3.08 L29,14 L28.145,14 L28.145,12.47 C27.605,13.625 26.705,14.21 25.43,14.21 C24.305,14.21 23.435,13.79 22.805,12.98 C22.235,12.23 21.95,11.27 21.95,10.115 C21.95,8.975 22.235,8.03 22.805,7.28 C23.435,6.44 24.29,6.035 25.385,6.035 C26.615,6.035 27.53,6.65 28.1,7.88 L28.1,3.08 Z M25.55,6.8 C24.665,6.8 23.99,7.13 23.51,7.79 C23.075,8.36 22.865,9.14 22.865,10.115 C22.865,11.09 23.075,11.87 23.495,12.455 C23.96,13.115 24.635,13.445 25.52,13.445 C26.36,13.445 27.02,13.115 27.485,12.485 C27.905,11.9 28.13,11.15 28.13,10.235 L28.13,10.055 C28.13,9.095 27.89,8.33 27.44,7.73 C26.96,7.1 26.33,6.8 25.55,6.8 Z M31.79,3.455 C31.565,3.455 31.385,3.53 31.25,3.68 C31.1,3.8 31.025,3.98 31.025,4.205 C31.025,4.415 31.1,4.595 31.25,4.745 C31.385,4.88 31.565,4.955 31.79,4.955 C32,4.955 32.165,4.88 32.315,4.745 C32.465,4.595 32.555,4.415 32.555,4.205 C32.555,3.98 32.48,3.8 32.33,3.68 C32.18,3.53 32,3.455 31.79,3.455 Z M31.34,6.245 L31.34,14 L32.24,14 L32.24,6.245 L31.34,6.245 Z M37.85,6.035 C36.725,6.035 35.84,6.44 35.195,7.265 C34.58,8.03 34.28,9.005 34.28,10.175 C34.28,11.36 34.565,12.32 35.165,13.04 C35.795,13.82 36.695,14.21 37.835,14.21 C38.765,14.21 39.53,13.955 40.1,13.46 C40.685,12.95 41.06,12.2 41.21,11.225 L40.325,11.225 C40.1,12.695 39.275,13.43 37.835,13.43 C36.98,13.43 36.32,13.13 35.87,12.545 C35.42,11.96 35.195,11.165 35.195,10.175 C35.195,9.17 35.42,8.36 35.9,7.76 C36.38,7.13 37.04,6.815 37.85,6.815 C38.525,6.815 39.08,6.98 39.5,7.31 C39.92,7.64 40.175,8.12 40.28,8.78 L41.18,8.78 C41.06,7.85 40.7,7.16 40.115,6.71 C39.53,6.26 38.78,6.035 37.85,6.035 Z M45.935,6.035 C47.015,6.035 47.825,6.32 48.35,6.92 C48.8,7.415 49.04,8.105 49.04,9.005 L49.04,14 L48.185,14 L48.185,12.515 C47.87,12.965 47.45,13.355 46.94,13.655 C46.31,14.015 45.635,14.21 44.9,14.21 C44.15,14.21 43.535,14.015 43.085,13.64 C42.59,13.25 42.35,12.725 42.35,12.095 C42.35,11.195 42.71,10.535 43.445,10.115 C44.075,9.71 44.99,9.5 46.16,9.5 L48.14,9.47 L48.14,9.005 C48.14,7.535 47.39,6.8 45.89,6.8 C45.26,6.8 44.75,6.92 44.345,7.19 C43.895,7.475 43.61,7.88 43.49,8.42 L42.605,8.36 C42.755,7.58 43.145,6.98 43.775,6.59 C44.33,6.215 45.05,6.035 45.935,6.035 Z M48.14,10.175 L46.205,10.205 C44.24,10.22 43.265,10.85 43.265,12.08 C43.265,12.5 43.43,12.83 43.76,13.085 C44.09,13.34 44.54,13.475 45.08,13.475 C45.86,13.475 46.58,13.205 47.21,12.665 C47.825,12.155 48.14,11.585 48.14,10.985 L48.14,10.175 Z M51.215,3.08 L51.215,14 L52.115,14 L52.115,3.08 L51.215,3.08 Z M59.435,3.29 L59.435,14 L60.35,14 L60.35,8.87 L66.995,8.87 L66.995,14 L67.91,14 L67.91,3.29 L66.995,3.29 L66.995,8.045 L60.35,8.045 L60.35,3.29 L59.435,3.29 Z M70.1,3.29 L73.91,3.29 C75.575,3.29 76.835,3.785 77.675,4.79 C78.44,5.69 78.83,6.98 78.83,8.645 C78.83,10.28 78.395,11.57 77.54,12.515 C76.64,13.505 75.365,14 73.715,14 L70.1,14 L70.1,3.29 Z M71.015,4.1 L71.015,13.19 L73.58,13.19 C75.005,13.19 76.1,12.785 76.85,11.975 C77.57,11.195 77.93,10.085 77.93,8.645 C77.93,7.145 77.615,6.035 76.985,5.3 C76.295,4.49 75.215,4.1 73.775,4.1 L71.015,4.1 Z M88.685,6.035 C87.56,6.035 86.675,6.44 86.03,7.265 C85.415,8.03 85.115,9.005 85.115,10.175 C85.115,11.36 85.4,12.32 86,13.04 C86.63,13.82 87.53,14.21 88.67,14.21 C89.6,14.21 90.365,13.955 90.935,13.46 C91.52,12.95 91.895,12.2 92.045,11.225 L91.16,11.225 C90.935,12.695 90.11,13.43 88.67,13.43 C87.815,13.43 87.155,13.13 86.705,12.545 C86.255,11.96 86.03,11.165 86.03,10.175 C86.03,9.17 86.255,8.36 86.735,7.76 C87.215,7.13 87.875,6.815 88.685,6.815 C89.36,6.815 89.915,6.98 90.335,7.31 C90.755,7.64 91.01,8.12 91.115,8.78 L92.015,8.78 C91.895,7.85 91.535,7.16 90.95,6.71 C90.365,6.26 89.615,6.035 88.685,6.035 Z M96.77,6.035 C97.85,6.035 98.66,6.32 99.185,6.92 C99.635,7.415 99.875,8.105 99.875,9.005 L99.875,14 L99.02,14 L99.02,12.515 C98.705,12.965 98.285,13.355 97.775,13.655 C97.145,14.015 96.47,14.21 95.735,14.21 C94.985,14.21 94.37,14.015 93.92,13.64 C93.425,13.25 93.185,12.725 93.185,12.095 C93.185,11.195 93.545,10.535 94.28,10.115 C94.91,9.71 95.825,9.5 96.995,9.5 L98.975,9.47 L98.975,9.005 C98.975,7.535 98.225,6.8 96.725,6.8 C96.095,6.8 95.585,6.92 95.18,7.19 C94.73,7.475 94.445,7.88 94.325,8.42 L93.44,8.36 C93.59,7.58 93.98,6.98 94.61,6.59 C95.165,6.215 95.885,6.035 96.77,6.035 Z M98.975,10.175 L97.04,10.205 C95.075,10.22 94.1,10.85 94.1,12.08 C94.1,12.5 94.265,12.83 94.595,13.085 C94.925,13.34 95.375,13.475 95.915,13.475 C96.695,13.475 97.415,13.205 98.045,12.665 C98.66,12.155 98.975,11.585 98.975,10.985 L98.975,10.175 Z M104.915,6.035 C103.97,6.035 103.22,6.485 102.665,7.415 L102.665,6.245 L101.765,6.245 L101.765,14 L102.665,14 L102.665,9.23 C102.665,8.555 102.86,7.985 103.265,7.52 C103.655,7.04 104.135,6.815 104.72,6.815 C106.01,6.815 106.655,7.55 106.655,9.05 L106.655,14 L107.57,14 L107.57,9.065 C107.57,8.405 107.75,7.88 108.14,7.46 C108.515,7.025 108.98,6.815 109.55,6.815 C110.24,6.815 110.765,7.01 111.095,7.4 C111.395,7.76 111.545,8.315 111.545,9.05 L111.545,14 L112.445,14 L112.445,8.93 C112.445,8.015 112.205,7.31 111.74,6.8 C111.26,6.29 110.6,6.035 109.79,6.035 C109.25,6.035 108.77,6.17 108.38,6.44 C107.96,6.71 107.615,7.1 107.345,7.625 C106.955,6.56 106.145,6.035 104.915,6.035 Z M117.47,6.035 C118.7,6.035 119.615,6.44 120.23,7.28 C120.77,8.015 121.07,9.05 121.115,10.385 L114.815,10.385 C114.86,11.33 115.115,12.08 115.58,12.62 C116.06,13.16 116.69,13.43 117.5,13.43 C118.205,13.43 118.775,13.235 119.21,12.875 C119.57,12.56 119.84,12.11 120.035,11.51 L120.95,11.51 C120.77,12.26 120.425,12.875 119.915,13.355 C119.285,13.925 118.49,14.21 117.5,14.21 C116.405,14.21 115.535,13.835 114.89,13.1 C114.215,12.35 113.885,11.345 113.885,10.115 C113.885,8.975 114.2,8.03 114.845,7.25 C115.505,6.44 116.375,6.035 117.47,6.035 Z M117.485,6.815 C116.72,6.815 116.105,7.07 115.64,7.61 C115.175,8.135 114.905,8.81 114.83,9.65 L120.17,9.65 C120.02,7.76 119.12,6.815 117.485,6.815 Z M125.81,6.035 C125.24,6.035 124.73,6.215 124.31,6.575 C123.95,6.86 123.665,7.25 123.455,7.73 L123.455,6.245 L122.555,6.245 L122.555,14 L123.455,14 L123.455,9.905 C123.455,9.125 123.65,8.45 124.07,7.88 C124.49,7.25 125.06,6.95 125.75,6.95 C126.14,6.95 126.53,6.995 126.935,7.115 L126.935,6.2 C126.635,6.08 126.26,6.035 125.81,6.035 Z M131.24,6.035 C132.32,6.035 133.13,6.32 133.655,6.92 C134.105,7.415 134.345,8.105 134.345,9.005 L134.345,14 L133.49,14 L133.49,12.515 C133.175,12.965 132.755,13.355 132.245,13.655 C131.615,14.015 130.94,14.21 130.205,14.21 C129.455,14.21 128.84,14.015 128.39,13.64 C127.895,13.25 127.655,12.725 127.655,12.095 C127.655,11.195 128.015,10.535 128.75,10.115 C129.38,9.71 130.295,9.5 131.465,9.5 L133.445,9.47 L133.445,9.005 C133.445,7.535 132.695,6.8 131.195,6.8 C130.565,6.8 130.055,6.92 129.65,7.19 C129.2,7.475 128.915,7.88 128.795,8.42 L127.91,8.36 C128.06,7.58 128.45,6.98 129.08,6.59 C129.635,6.215 130.355,6.035 131.24,6.035 Z M133.445,10.175 L131.51,10.205 C129.545,10.22 128.57,10.85 128.57,12.08 C128.57,12.5 128.735,12.83 129.065,13.085 C129.395,13.34 129.845,13.475 130.385,13.475 C131.165,13.475 131.885,13.205 132.515,12.665 C133.13,12.155 133.445,11.585 133.445,10.985 L133.445,10.175 Z M144.38,6.035 C143.435,6.035 142.685,6.485 142.13,7.415 L142.13,6.245 L141.23,6.245 L141.23,14 L142.13,14 L142.13,9.23 C142.13,8.555 142.325,7.985 142.73,7.52 C143.12,7.04 143.6,6.815 144.185,6.815 C145.475,6.815 146.12,7.55 146.12,9.05 L146.12,14 L147.035,14 L147.035,9.065 C147.035,8.405 147.215,7.88 147.605,7.46 C147.98,7.025 148.445,6.815 149.015,6.815 C149.705,6.815 150.23,7.01 150.56,7.4 C150.86,7.76 151.01,8.315 151.01,9.05 L151.01,14 L151.91,14 L151.91,8.93 C151.91,8.015 151.67,7.31 151.205,6.8 C150.725,6.29 150.065,6.035 149.255,6.035 C148.715,6.035 148.235,6.17 147.845,6.44 C147.425,6.71 147.08,7.1 146.81,7.625 C146.42,6.56 145.61,6.035 144.38,6.035 Z M157.19,6.035 C158.33,6.035 159.245,6.44 159.935,7.265 C160.565,8.03 160.88,8.99 160.88,10.13 C160.88,11.27 160.565,12.215 159.935,12.98 C159.245,13.79 158.33,14.21 157.19,14.21 C156.05,14.21 155.135,13.79 154.445,12.98 C153.815,12.215 153.5,11.27 153.5,10.13 C153.5,8.99 153.815,8.03 154.46,7.265 C155.135,6.44 156.05,6.035 157.19,6.035 Z M157.19,6.815 C156.305,6.815 155.615,7.145 155.105,7.835 C154.64,8.435 154.415,9.2 154.415,10.13 C154.415,11.045 154.64,11.81 155.105,12.41 C155.615,13.085 156.305,13.43 157.19,13.43 C158.075,13.43 158.78,13.085 159.29,12.41 C159.74,11.795 159.98,11.03 159.98,10.13 C159.98,9.2 159.74,8.435 159.29,7.835 C158.78,7.145 158.075,6.815 157.19,6.815 Z M168.32,3.08 L169.22,3.08 L169.22,14 L168.365,14 L168.365,12.47 C167.825,13.625 166.925,14.21 165.65,14.21 C164.525,14.21 163.655,13.79 163.025,12.98 C162.455,12.23 162.17,11.27 162.17,10.115 C162.17,8.975 162.455,8.03 163.025,7.28 C163.655,6.44 164.51,6.035 165.605,6.035 C166.835,6.035 167.75,6.65 168.32,7.88 L168.32,3.08 Z M165.77,6.8 C164.885,6.8 164.21,7.13 163.73,7.79 C163.295,8.36 163.085,9.14 163.085,10.115 C163.085,11.09 163.295,11.87 163.715,12.455 C164.18,13.115 164.855,13.445 165.74,13.445 C166.58,13.445 167.24,13.115 167.705,12.485 C168.125,11.9 168.35,11.15 168.35,10.235 L168.35,10.055 C168.35,9.095 168.11,8.33 167.66,7.73 C167.18,7.1 166.55,6.8 165.77,6.8 Z M171.11,6.245 L171.11,11.03 C171.11,13.145 172.055,14.21 173.945,14.21 C175.055,14.21 175.925,13.7 176.525,12.695 L176.525,14 L177.425,14 L177.425,6.245 L176.525,6.245 L176.525,10.955 C176.465,11.69 176.21,12.29 175.76,12.74 C175.31,13.19 174.785,13.43 174.185,13.43 C173.435,13.43 172.88,13.22 172.52,12.8 C172.175,12.395 172.01,11.795 172.01,10.985 L172.01,6.245 L171.11,6.245 Z M179.6,3.08 L179.6,14 L180.5,14 L180.5,3.08 L179.6,3.08 Z M185.81,6.035 C187.04,6.035 187.955,6.44 188.57,7.28 C189.11,8.015 189.41,9.05 189.455,10.385 L183.155,10.385 C183.2,11.33 183.455,12.08 183.92,12.62 C184.4,13.16 185.03,13.43 185.84,13.43 C186.545,13.43 187.115,13.235 187.55,12.875 C187.91,12.56 188.18,12.11 188.375,11.51 L189.29,11.51 C189.11,12.26 188.765,12.875 188.255,13.355 C187.625,13.925 186.83,14.21 185.84,14.21 C184.745,14.21 183.875,13.835 183.23,13.1 C182.555,12.35 182.225,11.345 182.225,10.115 C182.225,8.975 182.54,8.03 183.185,7.25 C183.845,6.44 184.715,6.035 185.81,6.035 Z M185.825,6.815 C185.06,6.815 184.445,7.07 183.98,7.61 C183.515,8.135 183.245,8.81 183.17,9.65 L188.51,9.65 C188.36,7.76 187.46,6.815 185.825,6.815 Z" id="Medical-HD-camera-mo" fill="#777777"></path>
                            <path d="M217.1625,3.29 L221.5125,3.29 C223.8825,3.29 225.0825,4.31 225.0825,6.365 C225.0825,8.42 223.8825,9.455 221.4975,9.455 L218.0775,9.455 L218.0775,14 L217.1625,14 L217.1625,3.29 Z M218.0775,4.1 L218.0775,8.645 L221.4525,8.645 C222.3825,8.645 223.0575,8.45 223.5075,8.075 C223.9275,7.7 224.1525,7.13 224.1525,6.365 C224.1525,5.6 223.9275,5.045 223.5075,4.685 C223.0575,4.295 222.3675,4.1 221.4525,4.1 L218.0775,4.1 Z M229.9125,6.035 C231.0525,6.035 231.9675,6.44 232.6575,7.265 C233.2875,8.03 233.6025,8.99 233.6025,10.13 C233.6025,11.27 233.2875,12.215 232.6575,12.98 C231.9675,13.79 231.0525,14.21 229.9125,14.21 C228.7725,14.21 227.8575,13.79 227.1675,12.98 C226.5375,12.215 226.2225,11.27 226.2225,10.13 C226.2225,8.99 226.5375,8.03 227.1825,7.265 C227.8575,6.44 228.7725,6.035 229.9125,6.035 Z M229.9125,6.815 C229.0275,6.815 228.3375,7.145 227.8275,7.835 C227.3625,8.435 227.1375,9.2 227.1375,10.13 C227.1375,11.045 227.3625,11.81 227.8275,12.41 C228.3375,13.085 229.0275,13.43 229.9125,13.43 C230.7975,13.43 231.5025,13.085 232.0125,12.41 C232.4625,11.795 232.7025,11.03 232.7025,10.13 C232.7025,9.2 232.4625,8.435 232.0125,7.835 C231.5025,7.145 230.7975,6.815 229.9125,6.815 Z M235.4775,3.08 L235.4775,14 L236.3775,14 L236.3775,3.08 L235.4775,3.08 Z M241.8375,6.035 C242.9175,6.035 243.7275,6.32 244.2525,6.92 C244.7025,7.415 244.9425,8.105 244.9425,9.005 L244.9425,14 L244.0875,14 L244.0875,12.515 C243.7725,12.965 243.3525,13.355 242.8425,13.655 C242.2125,14.015 241.5375,14.21 240.8025,14.21 C240.0525,14.21 239.4375,14.015 238.9875,13.64 C238.4925,13.25 238.2525,12.725 238.2525,12.095 C238.2525,11.195 238.6125,10.535 239.3475,10.115 C239.9775,9.71 240.8925,9.5 242.0625,9.5 L244.0425,9.47 L244.0425,9.005 C244.0425,7.535 243.2925,6.8 241.7925,6.8 C241.1625,6.8 240.6525,6.92 240.2475,7.19 C239.7975,7.475 239.5125,7.88 239.3925,8.42 L238.5075,8.36 C238.6575,7.58 239.0475,6.98 239.6775,6.59 C240.2325,6.215 240.9525,6.035 241.8375,6.035 Z M244.0425,10.175 L242.1075,10.205 C240.1425,10.22 239.1675,10.85 239.1675,12.08 C239.1675,12.5 239.3325,12.83 239.6625,13.085 C239.9925,13.34 240.4425,13.475 240.9825,13.475 C241.7625,13.475 242.4825,13.205 243.1125,12.665 C243.7275,12.155 244.0425,11.585 244.0425,10.985 L244.0425,10.175 Z M250.0875,6.035 C249.5175,6.035 249.0075,6.215 248.5875,6.575 C248.2275,6.86 247.9425,7.25 247.7325,7.73 L247.7325,6.245 L246.8325,6.245 L246.8325,14 L247.7325,14 L247.7325,9.905 C247.7325,9.125 247.9275,8.45 248.3475,7.88 C248.7675,7.25 249.3375,6.95 250.0275,6.95 C250.4175,6.95 250.8075,6.995 251.2125,7.115 L251.2125,6.2 C250.9125,6.08 250.5375,6.035 250.0875,6.035 Z M253.1325,3.455 C252.9075,3.455 252.7275,3.53 252.5925,3.68 C252.4425,3.8 252.3675,3.98 252.3675,4.205 C252.3675,4.415 252.4425,4.595 252.5925,4.745 C252.7275,4.88 252.9075,4.955 253.1325,4.955 C253.3425,4.955 253.5075,4.88 253.6575,4.745 C253.8075,4.595 253.8975,4.415 253.8975,4.205 C253.8975,3.98 253.8225,3.8 253.6725,3.68 C253.5225,3.53 253.3425,3.455 253.1325,3.455 Z M252.6825,6.245 L252.6825,14 L253.5825,14 L253.5825,6.245 L252.6825,6.245 Z M255.5025,6.245 L255.5025,7.025 L260.3475,7.025 L255.3525,13.295 L255.3525,14 L261.7575,14 L261.7575,13.22 L256.5075,13.22 L261.5175,6.935 L261.5175,6.245 L255.5025,6.245 Z M263.9775,3.455 C263.7525,3.455 263.5725,3.53 263.4375,3.68 C263.2875,3.8 263.2125,3.98 263.2125,4.205 C263.2125,4.415 263.2875,4.595 263.4375,4.745 C263.5725,4.88 263.7525,4.955 263.9775,4.955 C264.1875,4.955 264.3525,4.88 264.5025,4.745 C264.6525,4.595 264.7425,4.415 264.7425,4.205 C264.7425,3.98 264.6675,3.8 264.5175,3.68 C264.3675,3.53 264.1875,3.455 263.9775,3.455 Z M263.5275,6.245 L263.5275,14 L264.4275,14 L264.4275,6.245 L263.5275,6.245 Z M270.1875,6.035 C269.6475,6.035 269.1525,6.155 268.7175,6.425 C268.2825,6.695 267.9375,7.055 267.6675,7.52 L267.6675,6.245 L266.7675,6.245 L266.7675,14 L267.6675,14 L267.6675,9.32 C267.7125,8.555 267.9525,7.94 268.4025,7.49 C268.8225,7.04 269.3325,6.815 269.9625,6.815 C271.4325,6.815 272.1675,7.64 272.1675,9.29 L272.1675,14 L273.0675,14 L273.0675,9.23 C273.0675,7.1 272.1075,6.035 270.1875,6.035 Z M278.1525,6.035 C279.4275,6.035 280.3575,6.62 280.9275,7.805 L280.9275,6.245 L281.8275,6.245 L281.8275,13.43 C281.8275,15.92 280.6575,17.18 278.3475,17.18 C277.3275,17.18 276.5475,16.955 275.9925,16.52 C275.4675,16.1 275.1375,15.485 275.0025,14.66 L275.9025,14.66 C276.0075,15.23 276.2475,15.665 276.6225,15.95 C277.0125,16.265 277.5825,16.43 278.3475,16.43 C280.0575,16.43 280.9275,15.455 280.9275,13.535 L280.9275,12.05 C280.3575,13.22 279.4275,13.82 278.1525,13.82 C277.0725,13.82 276.2025,13.43 275.5575,12.665 C274.9575,11.945 274.6575,11.045 274.6575,9.935 C274.6575,8.84 274.9575,7.925 275.5575,7.205 C276.2025,6.425 277.0725,6.035 278.1525,6.035 Z M278.2575,6.8 C277.4025,6.8 276.7425,7.1 276.2625,7.73 C275.7975,8.3 275.5725,9.035 275.5725,9.935 C275.5725,10.805 275.7825,11.525 276.2175,12.095 C276.6825,12.725 277.3575,13.04 278.2425,13.04 C279.0975,13.04 279.7725,12.74 280.2525,12.14 C280.7025,11.57 280.9275,10.835 280.9275,9.935 C280.9275,9.035 280.7025,8.3 280.2525,7.73 C279.7725,7.1 279.0975,6.8 278.2575,6.8 Z M288.9975,3.08 L288.9975,14 L289.8975,14 L289.8975,3.08 L288.9975,3.08 Z M295.2075,6.035 C296.4375,6.035 297.3525,6.44 297.9675,7.28 C298.5075,8.015 298.8075,9.05 298.8525,10.385 L292.5525,10.385 C292.5975,11.33 292.8525,12.08 293.3175,12.62 C293.7975,13.16 294.4275,13.43 295.2375,13.43 C295.9425,13.43 296.5125,13.235 296.9475,12.875 C297.3075,12.56 297.5775,12.11 297.7725,11.51 L298.6875,11.51 C298.5075,12.26 298.1625,12.875 297.6525,13.355 C297.0225,13.925 296.2275,14.21 295.2375,14.21 C294.1425,14.21 293.2725,13.835 292.6275,13.1 C291.9525,12.35 291.6225,11.345 291.6225,10.115 C291.6225,8.975 291.9375,8.03 292.5825,7.25 C293.2425,6.44 294.1125,6.035 295.2075,6.035 Z M295.2225,6.815 C294.4575,6.815 293.8425,7.07 293.3775,7.61 C292.9125,8.135 292.6425,8.81 292.5675,9.65 L297.9075,9.65 C297.7575,7.76 296.8575,6.815 295.2225,6.815 Z M303.7125,6.035 C303.1725,6.035 302.6775,6.155 302.2425,6.425 C301.8075,6.695 301.4625,7.055 301.1925,7.52 L301.1925,6.245 L300.2925,6.245 L300.2925,14 L301.1925,14 L301.1925,9.32 C301.2375,8.555 301.4775,7.94 301.9275,7.49 C302.3475,7.04 302.8575,6.815 303.4875,6.815 C304.9575,6.815 305.6925,7.64 305.6925,9.29 L305.6925,14 L306.5925,14 L306.5925,9.23 C306.5925,7.1 305.6325,6.035 303.7125,6.035 Z M311.1225,6.035 C310.3125,6.035 309.6225,6.215 309.0825,6.59 C308.5125,6.98 308.2425,7.475 308.2425,8.105 C308.2425,8.735 308.5275,9.23 309.1275,9.59 C309.4875,9.815 310.1175,10.04 311.0175,10.28 C311.9025,10.505 312.4725,10.685 312.7425,10.82 C313.2525,11.075 313.5075,11.435 313.5075,11.9 C313.5075,12.92 312.7575,13.43 311.2575,13.43 C310.5375,13.43 309.9975,13.295 309.6375,13.025 C309.2475,12.725 309.0075,12.23 308.9175,11.555 L308.0325,11.555 C308.2125,13.325 309.2925,14.21 311.2875,14.21 C313.3875,14.21 314.4375,13.415 314.4375,11.855 C314.4375,11.195 314.1225,10.67 313.5075,10.295 C313.1175,10.055 312.4425,9.815 311.4975,9.575 C310.7025,9.365 310.1625,9.185 309.8625,9.035 C309.3975,8.795 309.1725,8.48 309.1725,8.09 C309.1725,7.7 309.3525,7.4 309.7125,7.16 C310.0725,6.92 310.5375,6.815 311.1075,6.815 C311.7975,6.815 312.3225,6.95 312.6825,7.235 C313.0125,7.49 313.2225,7.88 313.3275,8.42 L314.2125,8.42 C313.9875,6.83 312.9525,6.035 311.1225,6.035 Z" id="Polarizing-lens" fill="#777777"></path>
                            <path d="M344.3475,3.29 L345.4275,3.29 L349.7175,14 L348.7125,14 L347.4675,10.805 L342.3075,10.805 L341.0625,14 L340.0575,14 L344.3475,3.29 Z M342.6075,10.025 L347.1675,10.025 L344.9175,4.28 L344.8725,4.28 L342.6075,10.025 Z M354.0825,6.035 C353.5425,6.035 353.0475,6.155 352.6125,6.425 C352.1775,6.695 351.8325,7.055 351.5625,7.52 L351.5625,6.245 L350.6625,6.245 L350.6625,14 L351.5625,14 L351.5625,9.32 C351.6075,8.555 351.8475,7.94 352.2975,7.49 C352.7175,7.04 353.2275,6.815 353.8575,6.815 C355.3275,6.815 356.0625,7.64 356.0625,9.29 L356.0625,14 L356.9625,14 L356.9625,9.23 C356.9625,7.1 356.0025,6.035 354.0825,6.035 Z M360.7275,3.74 L359.8275,4.115 L359.8275,6.245 L358.1775,6.245 L358.1775,7.025 L359.8275,7.025 L359.8275,12.275 C359.8275,12.845 359.9325,13.265 360.1725,13.535 C360.4275,13.835 360.8625,14 361.4625,14 L362.5575,14 L362.5575,13.22 L361.5825,13.22 C361.2525,13.22 361.0275,13.145 360.9075,13.01 C360.7875,12.86 360.7275,12.605 360.7275,12.275 L360.7275,7.025 L362.7525,7.025 L362.7525,6.245 L360.7275,6.245 L360.7275,3.74 Z M365.0175,3.455 C364.7925,3.455 364.6125,3.53 364.4775,3.68 C364.3275,3.8 364.2525,3.98 364.2525,4.205 C364.2525,4.415 364.3275,4.595 364.4775,4.745 C364.6125,4.88 364.7925,4.955 365.0175,4.955 C365.2275,4.955 365.3925,4.88 365.5425,4.745 C365.6925,4.595 365.7825,4.415 365.7825,4.205 C365.7825,3.98 365.7075,3.8 365.5575,3.68 C365.4075,3.53 365.2275,3.455 365.0175,3.455 Z M364.5675,6.245 L364.5675,14 L365.4675,14 L365.4675,6.245 L364.5675,6.245 Z M367.6125,9.725 L367.6125,10.505 L375.1875,10.505 L375.1875,9.725 L367.6125,9.725 Z M381.5625,3.08 C380.0025,3.08 378.7725,3.635 377.8575,4.775 C377.0025,5.81 376.5825,7.115 376.5825,8.705 C376.5825,10.28 377.0025,11.57 377.8725,12.575 C378.8025,13.655 380.1225,14.21 381.8025,14.21 C382.6425,14.21 383.4525,14.09 384.2325,13.85 C384.9675,13.61 385.5825,13.28 386.0775,12.89 L386.0775,8.6 L381.5025,8.6 L381.5025,9.41 L385.1625,9.41 L385.1625,12.455 C384.7725,12.725 384.2775,12.935 383.7075,13.115 C383.1075,13.295 382.5075,13.385 381.8775,13.385 C380.4375,13.385 379.3425,12.935 378.5775,12.035 C377.8575,11.21 377.4975,10.1 377.4975,8.705 C377.4975,7.28 377.8575,6.14 378.5775,5.27 C379.3125,4.37 380.3025,3.92 381.5625,3.92 C382.5825,3.92 383.4225,4.175 384.0525,4.7 C384.6525,5.195 385.0275,5.885 385.1925,6.755 L386.1225,6.755 C385.9275,5.615 385.4625,4.715 384.7275,4.085 C383.9325,3.41 382.8825,3.08 381.5625,3.08 Z M388.3125,3.08 L388.3125,14 L389.2125,14 L389.2125,3.08 L388.3125,3.08 Z M394.6725,6.035 C395.7525,6.035 396.5625,6.32 397.0875,6.92 C397.5375,7.415 397.7775,8.105 397.7775,9.005 L397.7775,14 L396.9225,14 L396.9225,12.515 C396.6075,12.965 396.1875,13.355 395.6775,13.655 C395.0475,14.015 394.3725,14.21 393.6375,14.21 C392.8875,14.21 392.2725,14.015 391.8225,13.64 C391.3275,13.25 391.0875,12.725 391.0875,12.095 C391.0875,11.195 391.4475,10.535 392.1825,10.115 C392.8125,9.71 393.7275,9.5 394.8975,9.5 L396.8775,9.47 L396.8775,9.005 C396.8775,7.535 396.1275,6.8 394.6275,6.8 C393.9975,6.8 393.4875,6.92 393.0825,7.19 C392.6325,7.475 392.3475,7.88 392.2275,8.42 L391.3425,8.36 C391.4925,7.58 391.8825,6.98 392.5125,6.59 C393.0675,6.215 393.7875,6.035 394.6725,6.035 Z M396.8775,10.175 L394.9425,10.205 C392.9775,10.22 392.0025,10.85 392.0025,12.08 C392.0025,12.5 392.1675,12.83 392.4975,13.085 C392.8275,13.34 393.2775,13.475 393.8175,13.475 C394.5975,13.475 395.3175,13.205 395.9475,12.665 C396.5625,12.155 396.8775,11.585 396.8775,10.985 L396.8775,10.175 Z M402.8025,6.035 C404.0325,6.035 404.9475,6.44 405.5625,7.28 C406.1025,8.015 406.4025,9.05 406.4475,10.385 L400.1475,10.385 C400.1925,11.33 400.4475,12.08 400.9125,12.62 C401.3925,13.16 402.0225,13.43 402.8325,13.43 C403.5375,13.43 404.1075,13.235 404.5425,12.875 C404.9025,12.56 405.1725,12.11 405.3675,11.51 L406.2825,11.51 C406.1025,12.26 405.7575,12.875 405.2475,13.355 C404.6175,13.925 403.8225,14.21 402.8325,14.21 C401.7375,14.21 400.8675,13.835 400.2225,13.1 C399.5475,12.35 399.2175,11.345 399.2175,10.115 C399.2175,8.975 399.5325,8.03 400.1775,7.25 C400.8375,6.44 401.7075,6.035 402.8025,6.035 Z M402.8175,6.815 C402.0525,6.815 401.4375,7.07 400.9725,7.61 C400.5075,8.135 400.2375,8.81 400.1625,9.65 L405.5025,9.65 C405.3525,7.76 404.4525,6.815 402.8175,6.815 Z" id="Anti-Glae" fill="#777777"></path>
                            <rect id="Rectangle-6" fill="#6D6D6D" x="202" y="0" width="1" height="19"></rect>
                            <rect id="Rectangle-6-Copy" fill="#6D6D6D" x="327" y="0" width="1" height="19"></rect>
                        </g>
                    </g>
                </g>
            </g>
        </g>
    </g>
</svg>