<?xml version="1.0" encoding="UTF-8"?>
<svg width="521px" height="48px" viewBox="0 0 521 48" version="1.1" xmlns="http://www.w3.org/2000/svg" xmlns:xlink="http://www.w3.org/1999/xlink">
    <!-- Generator: Sketch 46 (44423) - http://www.bohemiancoding.com/sketch -->
    <title>50 times magnificati</title>
    <desc>Created with Sketch.</desc>
    <defs></defs>
    <g id="Page-1" stroke="none" stroke-width="1" fill="none" fill-rule="evenodd">
        <g id="首页-英文" transform="translate(-459.000000, -5213.000000)" fill="#38393B">
            <g id="6" transform="translate(0.000000, 5126.000000)">
                <g id="标题" transform="translate(457.000000, 81.000000)">
                    <path d="M5.6,7.3 L3.8,26.8 L6.7,26.8 C7.5,25.3 8.65,24.1 10.15,23.25 C11.6,22.45 13.25,22.05 15.05,22.05 C17.8,22.05 20,22.85 21.6,24.5 C23.25,26.2 24.1,28.6 24.1,31.65 C24.1,34.35 23.2,36.6 21.45,38.4 C19.7,40.15 17.45,41.05 14.75,41.05 C12.4,41.05 10.45,40.4 8.9,39.2 C7.15,37.85 6.15,35.95 5.9,33.55 L2.85,33.55 C3.1,36.75 4.45,39.3 6.9,41.15 C9.05,42.85 11.65,43.7 14.75,43.7 C18.25,43.7 21.15,42.6 23.5,40.4 C25.9,38.1 27.15,35.15 27.15,31.65 C27.15,27.8 26.05,24.8 23.9,22.6 C21.8,20.5 19.05,19.45 15.65,19.45 C14,19.45 12.45,19.75 11,20.4 C9.4,21.05 8.1,22 7.05,23.25 L6.9,23.25 L8.15,10.1 L25.8,10.1 L25.8,7.3 L5.6,7.3 Z M45,6.6 C49.3,6.6 52.5,8.55 54.6,12.5 C56.3,15.65 57.2,19.85 57.2,25.15 C57.2,30.4 56.3,34.6 54.6,37.8 C52.5,41.7 49.3,43.7 45,43.7 C40.7,43.7 37.5,41.7 35.4,37.8 C33.65,34.6 32.8,30.4 32.8,25.15 C32.8,19.85 33.65,15.65 35.4,12.5 C37.5,8.55 40.7,6.6 45,6.6 Z M45,9.3 C41.55,9.3 39.05,11.05 37.55,14.6 C36.45,17.2 35.9,20.75 35.9,25.15 C35.9,29.55 36.45,33.05 37.55,35.7 C39.05,39.2 41.55,41 45,41 C48.4,41 50.9,39.2 52.45,35.7 C53.55,33.05 54.15,29.55 54.15,25.15 C54.15,20.75 53.55,17.2 52.45,14.6 C50.9,11.05 48.4,9.3 45,9.3 Z M86.05,8.8 L83.05,10.05 L83.05,17.15 L77.55,17.15 L77.55,19.75 L83.05,19.75 L83.05,37.25 C83.05,39.15 83.4,40.55 84.2,41.45 C85.05,42.45 86.5,43 88.5,43 L92.15,43 L92.15,40.4 L88.9,40.4 C87.8,40.4 87.05,40.15 86.65,39.7 C86.25,39.2 86.05,38.35 86.05,37.25 L86.05,19.75 L92.8,19.75 L92.8,17.15 L86.05,17.15 L86.05,8.8 Z M100.35,7.85 C99.6,7.85 99,8.1 98.55,8.6 C98.05,9 97.8,9.6 97.8,10.35 C97.8,11.05 98.05,11.65 98.55,12.15 C99,12.6 99.6,12.85 100.35,12.85 C101.05,12.85 101.6,12.6 102.1,12.15 C102.6,11.65 102.9,11.05 102.9,10.35 C102.9,9.6 102.65,9 102.15,8.6 C101.65,8.1 101.05,7.85 100.35,7.85 Z M98.85,17.15 L98.85,43 L101.85,43 L101.85,17.15 L98.85,17.15 Z M120.15,16.45 C117,16.45 114.5,17.95 112.65,21.05 L112.65,17.15 L109.65,17.15 L109.65,43 L112.65,43 L112.65,27.1 C112.65,24.85 113.3,22.95 114.65,21.4 C115.95,19.8 117.55,19.05 119.5,19.05 C123.8,19.05 125.95,21.5 125.95,26.5 L125.95,43 L129,43 L129,26.55 C129,24.35 129.6,22.6 130.9,21.2 C132.15,19.75 133.7,19.05 135.6,19.05 C137.9,19.05 139.65,19.7 140.75,21 C141.75,22.2 142.25,24.05 142.25,26.5 L142.25,43 L145.25,43 L145.25,26.1 C145.25,23.05 144.45,20.7 142.9,19 C141.3,17.3 139.1,16.45 136.4,16.45 C134.6,16.45 133,16.9 131.7,17.8 C130.3,18.7 129.15,20 128.25,21.75 C126.95,18.2 124.25,16.45 120.15,16.45 Z M162,16.45 C166.1,16.45 169.15,17.8 171.2,20.6 C173,23.05 174,26.5 174.15,30.95 L153.15,30.95 C153.3,34.1 154.15,36.6 155.7,38.4 C157.3,40.2 159.4,41.1 162.1,41.1 C164.45,41.1 166.35,40.45 167.8,39.25 C169,38.2 169.9,36.7 170.55,34.7 L173.6,34.7 C173,37.2 171.85,39.25 170.15,40.85 C168.05,42.75 165.4,43.7 162.1,43.7 C158.45,43.7 155.55,42.45 153.4,40 C151.15,37.5 150.05,34.15 150.05,30.05 C150.05,26.25 151.1,23.1 153.25,20.5 C155.45,17.8 158.35,16.45 162,16.45 Z M162.05,19.05 C159.5,19.05 157.45,19.9 155.9,21.7 C154.35,23.45 153.45,25.7 153.2,28.5 L171,28.5 C170.5,22.2 167.5,19.05 162.05,19.05 Z M187.75,16.45 C185.05,16.45 182.75,17.05 180.95,18.3 C179.05,19.6 178.15,21.25 178.15,23.35 C178.15,25.45 179.1,27.1 181.1,28.3 C182.3,29.05 184.4,29.8 187.4,30.6 C190.35,31.35 192.25,31.95 193.15,32.4 C194.85,33.25 195.7,34.45 195.7,36 C195.7,39.4 193.2,41.1 188.2,41.1 C185.8,41.1 184,40.65 182.8,39.75 C181.5,38.75 180.7,37.1 180.4,34.85 L177.45,34.85 C178.05,40.75 181.65,43.7 188.3,43.7 C195.3,43.7 198.8,41.05 198.8,35.85 C198.8,33.65 197.75,31.9 195.7,30.65 C194.4,29.85 192.15,29.05 189,28.25 C186.35,27.55 184.55,26.95 183.55,26.45 C182,25.65 181.25,24.6 181.25,23.3 C181.25,22 181.85,21 183.05,20.2 C184.25,19.4 185.8,19.05 187.7,19.05 C190,19.05 191.75,19.5 192.95,20.45 C194.05,21.3 194.75,22.6 195.1,24.4 L198.05,24.4 C197.3,19.1 193.85,16.45 187.75,16.45 Z M230.75,16.45 C227.6,16.45 225.1,17.95 223.25,21.05 L223.25,17.15 L220.25,17.15 L220.25,43 L223.25,43 L223.25,27.1 C223.25,24.85 223.9,22.95 225.25,21.4 C226.55,19.8 228.15,19.05 230.1,19.05 C234.4,19.05 236.55,21.5 236.55,26.5 L236.55,43 L239.6,43 L239.6,26.55 C239.6,24.35 240.2,22.6 241.5,21.2 C242.75,19.75 244.3,19.05 246.2,19.05 C248.5,19.05 250.25,19.7 251.35,21 C252.35,22.2 252.85,24.05 252.85,26.5 L252.85,43 L255.85,43 L255.85,26.1 C255.85,23.05 255.05,20.7 253.5,19 C251.9,17.3 249.7,16.45 247,16.45 C245.2,16.45 243.6,16.9 242.3,17.8 C240.9,18.7 239.75,20 238.85,21.75 C237.55,18.2 234.85,16.45 230.75,16.45 Z M273.1,16.45 C276.7,16.45 279.4,17.4 281.15,19.4 C282.65,21.05 283.45,23.35 283.45,26.35 L283.45,43 L280.6,43 L280.6,38.05 C279.55,39.55 278.15,40.85 276.45,41.85 C274.35,43.05 272.1,43.7 269.65,43.7 C267.15,43.7 265.1,43.05 263.6,41.8 C261.95,40.5 261.15,38.75 261.15,36.65 C261.15,33.65 262.35,31.45 264.8,30.05 C266.9,28.7 269.95,28 273.85,28 L280.45,27.9 L280.45,26.35 C280.45,21.45 277.95,19 272.95,19 C270.85,19 269.15,19.4 267.8,20.3 C266.3,21.25 265.35,22.6 264.95,24.4 L262,24.2 C262.5,21.6 263.8,19.6 265.9,18.3 C267.75,17.05 270.15,16.45 273.1,16.45 Z M280.45,30.25 L274,30.35 C267.45,30.4 264.2,32.5 264.2,36.6 C264.2,38 264.75,39.1 265.85,39.95 C266.95,40.8 268.45,41.25 270.25,41.25 C272.85,41.25 275.25,40.35 277.35,38.55 C279.4,36.85 280.45,34.95 280.45,32.95 L280.45,30.25 Z M300.4,16.45 C304.65,16.45 307.75,18.4 309.65,22.35 L309.65,17.15 L312.65,17.15 L312.65,41.1 C312.65,49.4 308.75,53.6 301.05,53.6 C297.65,53.6 295.05,52.85 293.2,51.4 C291.45,50 290.35,47.95 289.9,45.2 L292.9,45.2 C293.25,47.1 294.05,48.55 295.3,49.5 C296.6,50.55 298.5,51.1 301.05,51.1 C306.75,51.1 309.65,47.85 309.65,41.45 L309.65,36.5 C307.75,40.4 304.65,42.4 300.4,42.4 C296.8,42.4 293.9,41.1 291.75,38.55 C289.75,36.15 288.75,33.15 288.75,29.45 C288.75,25.8 289.75,22.75 291.75,20.35 C293.9,17.75 296.8,16.45 300.4,16.45 Z M300.75,19 C297.9,19 295.7,20 294.1,22.1 C292.55,24 291.8,26.45 291.8,29.45 C291.8,32.35 292.5,34.75 293.95,36.65 C295.5,38.75 297.75,39.8 300.7,39.8 C303.55,39.8 305.8,38.8 307.4,36.8 C308.9,34.9 309.65,32.45 309.65,29.45 C309.65,26.45 308.9,24 307.4,22.1 C305.8,20 303.55,19 300.75,19 Z M330.35,16.45 C328.55,16.45 326.9,16.85 325.45,17.75 C324,18.65 322.85,19.85 321.95,21.4 L321.95,17.15 L318.95,17.15 L318.95,43 L321.95,43 L321.95,27.4 C322.1,24.85 322.9,22.8 324.4,21.3 C325.8,19.8 327.5,19.05 329.6,19.05 C334.5,19.05 336.95,21.8 336.95,27.3 L336.95,43 L339.95,43 L339.95,27.1 C339.95,20 336.75,16.45 330.35,16.45 Z M349.25,7.85 C348.5,7.85 347.9,8.1 347.45,8.6 C346.95,9 346.7,9.6 346.7,10.35 C346.7,11.05 346.95,11.65 347.45,12.15 C347.9,12.6 348.5,12.85 349.25,12.85 C349.95,12.85 350.5,12.6 351,12.15 C351.5,11.65 351.8,11.05 351.8,10.35 C351.8,9.6 351.55,9 351.05,8.6 C350.55,8.1 349.95,7.85 349.25,7.85 Z M347.75,17.15 L347.75,43 L350.75,43 L350.75,17.15 L347.75,17.15 Z M369.05,7.3 C366.85,7.3 365.25,7.9 364.15,9.15 C363.05,10.3 362.55,11.95 362.55,14.1 L362.55,17.15 L355.65,17.15 L355.65,19.75 L362.55,19.75 L362.55,43 L365.55,43 L365.55,19.75 L378.35,19.75 L378.35,43 L381.35,43 L381.35,17.15 L365.55,17.15 L365.55,14.15 C365.55,12.65 365.85,11.6 366.45,10.95 C367.05,10.25 368,9.95 369.3,9.95 L373.65,9.95 L373.65,7.3 L369.05,7.3 Z M399.5,16.45 C395.75,16.45 392.8,17.8 390.65,20.55 C388.6,23.1 387.6,26.35 387.6,30.25 C387.6,34.2 388.55,37.4 390.55,39.8 C392.65,42.4 395.65,43.7 399.45,43.7 C402.55,43.7 405.1,42.85 407,41.2 C408.95,39.5 410.2,37 410.7,33.75 L407.75,33.75 C407,38.65 404.25,41.1 399.45,41.1 C396.6,41.1 394.4,40.1 392.9,38.15 C391.4,36.2 390.65,33.55 390.65,30.25 C390.65,26.9 391.4,24.2 393,22.2 C394.6,20.1 396.8,19.05 399.5,19.05 C401.75,19.05 403.6,19.6 405,20.7 C406.4,21.8 407.25,23.4 407.6,25.6 L410.6,25.6 C410.2,22.5 409,20.2 407.05,18.7 C405.1,17.2 402.6,16.45 399.5,16.45 Z M426.45,16.45 C430.05,16.45 432.75,17.4 434.5,19.4 C436,21.05 436.8,23.35 436.8,26.35 L436.8,43 L433.95,43 L433.95,38.05 C432.9,39.55 431.5,40.85 429.8,41.85 C427.7,43.05 425.45,43.7 423,43.7 C420.5,43.7 418.45,43.05 416.95,41.8 C415.3,40.5 414.5,38.75 414.5,36.65 C414.5,33.65 415.7,31.45 418.15,30.05 C420.25,28.7 423.3,28 427.2,28 L433.8,27.9 L433.8,26.35 C433.8,21.45 431.3,19 426.3,19 C424.2,19 422.5,19.4 421.15,20.3 C419.65,21.25 418.7,22.6 418.3,24.4 L415.35,24.2 C415.85,21.6 417.15,19.6 419.25,18.3 C421.1,17.05 423.5,16.45 426.45,16.45 Z M433.8,30.25 L427.35,30.35 C420.8,30.4 417.55,32.5 417.55,36.6 C417.55,38 418.1,39.1 419.2,39.95 C420.3,40.8 421.8,41.25 423.6,41.25 C426.2,41.25 428.6,40.35 430.7,38.55 C432.75,36.85 433.8,34.95 433.8,32.95 L433.8,30.25 Z M449.35,8.8 L446.35,10.05 L446.35,17.15 L440.85,17.15 L440.85,19.75 L446.35,19.75 L446.35,37.25 C446.35,39.15 446.7,40.55 447.5,41.45 C448.35,42.45 449.8,43 451.8,43 L455.45,43 L455.45,40.4 L452.2,40.4 C451.1,40.4 450.35,40.15 449.95,39.7 C449.55,39.2 449.35,38.35 449.35,37.25 L449.35,19.75 L456.1,19.75 L456.1,17.15 L449.35,17.15 L449.35,8.8 Z M463.65,7.85 C462.9,7.85 462.3,8.1 461.85,8.6 C461.35,9 461.1,9.6 461.1,10.35 C461.1,11.05 461.35,11.65 461.85,12.15 C462.3,12.6 462.9,12.85 463.65,12.85 C464.35,12.85 464.9,12.6 465.4,12.15 C465.9,11.65 466.2,11.05 466.2,10.35 C466.2,9.6 465.95,9 465.45,8.6 C464.95,8.1 464.35,7.85 463.65,7.85 Z M462.15,17.15 L462.15,43 L465.15,43 L465.15,17.15 L462.15,17.15 Z M484.25,16.45 C488.05,16.45 491.1,17.8 493.4,20.55 C495.5,23.1 496.55,26.3 496.55,30.1 C496.55,33.9 495.5,37.05 493.4,39.6 C491.1,42.3 488.05,43.7 484.25,43.7 C480.45,43.7 477.4,42.3 475.1,39.6 C473,37.05 471.95,33.9 471.95,30.1 C471.95,26.3 473,23.1 475.15,20.55 C477.4,17.8 480.45,16.45 484.25,16.45 Z M484.25,19.05 C481.3,19.05 479,20.15 477.3,22.45 C475.75,24.45 475,27 475,30.1 C475,33.15 475.75,35.7 477.3,37.7 C479,39.95 481.3,41.1 484.25,41.1 C487.2,41.1 489.55,39.95 491.25,37.7 C492.75,35.65 493.55,33.1 493.55,30.1 C493.55,27 492.75,24.45 491.25,22.45 C489.55,20.15 487.2,19.05 484.25,19.05 Z M513.25,16.45 C511.45,16.45 509.8,16.85 508.35,17.75 C506.9,18.65 505.75,19.85 504.85,21.4 L504.85,17.15 L501.85,17.15 L501.85,43 L504.85,43 L504.85,27.4 C505,24.85 505.8,22.8 507.3,21.3 C508.7,19.8 510.4,19.05 512.5,19.05 C517.4,19.05 519.85,21.8 519.85,27.3 L519.85,43 L522.85,43 L522.85,27.1 C522.85,20 519.65,16.45 513.25,16.45 Z" id="50-times-magnificati"></path>
                </g>
            </g>
        </g>
    </g>
</svg>