<?xml version="1.0" encoding="UTF-8"?>
<svg width="504px" height="71px" viewBox="0 0 504 71" version="1.1" xmlns="http://www.w3.org/2000/svg" xmlns:xlink="http://www.w3.org/1999/xlink">
    <!-- Generator: Sketch 46 (44423) - http://www.bohemiancoding.com/sketch -->
    <title>Group 32</title>
    <desc>Created with Sketch.</desc>
    <defs>
        <polygon id="path-1" points="0 0.196311355 0 70.5150921 79.2830312 70.5150921 79.2830312 0.196311355"></polygon>
        <polygon id="path-3" points="0 70.5405928 79.2830312 70.5405928 79.2830312 0.221745573 0 0.221745573"></polygon>
    </defs>
    <g id="Page-1" stroke="none" stroke-width="1" fill="none" fill-rule="evenodd">
        <g id="首页-英文" transform="translate(-804.000000, -6846.000000)">
            <g id="7" transform="translate(-9.000000, 6151.000000)">
                <g id="Group-32" transform="translate(813.000000, 695.000000)">
                    <g id="Group-19" transform="translate(164.000000, 0.000000)">
                        <path d="M2.16,4.58 L2.16,26 L17.85,26 L17.85,23.87 L4.62,23.87 L4.62,16.01 L16.62,16.01 L16.62,13.88 L4.62,13.88 L4.62,6.71 L17.34,6.71 L17.34,4.58 L2.16,4.58 Z M28.23,10.07 C27.21,10.07 26.28,10.31 25.44,10.79 C24.6,11.24 23.91,11.9 23.37,12.77 L23.37,10.49 L20.97,10.49 L20.97,26 L23.37,26 L23.37,16.64 C23.46,15.23 23.91,14.12 24.75,13.28 C25.53,12.5 26.46,12.11 27.54,12.11 C30.24,12.11 31.62,13.61 31.62,16.64 L31.62,26 L34.02,26 L34.02,16.46 C34.02,12.2 32.07,10.07 28.23,10.07 Z M44.67,10.07 C46.98,10.07 48.84,10.85 50.22,12.47 C51.54,14 52.2,15.92 52.2,18.26 C52.2,20.57 51.54,22.49 50.25,23.99 C48.84,25.61 46.98,26.42 44.67,26.42 C42.33,26.42 40.5,25.61 39.12,23.99 C37.8,22.49 37.14,20.57 37.14,18.26 C37.14,15.92 37.8,14 39.12,12.47 C40.5,10.85 42.33,10.07 44.67,10.07 Z M44.67,12.08 C43.02,12.08 41.73,12.71 40.83,13.97 C39.99,15.11 39.6,16.52 39.6,18.26 C39.6,19.97 39.99,21.38 40.83,22.52 C41.73,23.78 43.02,24.41 44.67,24.41 C46.29,24.41 47.58,23.78 48.54,22.52 C49.35,21.38 49.77,19.94 49.77,18.26 C49.77,16.52 49.35,15.11 48.54,13.97 C47.58,12.71 46.29,12.08 44.67,12.08 Z M55.32,10.49 L55.32,20.09 C55.32,24.29 57.18,26.42 60.96,26.42 C63.06,26.42 64.74,25.46 66,23.6 L66,26 L68.4,26 L68.4,10.49 L66,10.49 L66,19.94 C65.82,21.26 65.31,22.34 64.47,23.18 C63.66,23.96 62.73,24.38 61.71,24.38 C60.3,24.38 59.28,23.99 58.65,23.27 C58.02,22.55 57.72,21.44 57.72,19.97 L57.72,10.49 L55.32,10.49 Z M78.51,10.07 C80.85,10.07 82.59,11.09 83.73,13.16 L83.73,10.49 L86.13,10.49 L86.13,24.92 C86.13,29.87 83.76,32.36 79.05,32.36 C76.95,32.36 75.33,31.94 74.25,31.1 C73.14,30.26 72.45,29 72.18,27.32 L74.58,27.32 C74.76,28.37 75.21,29.15 75.9,29.63 C76.59,30.14 77.64,30.41 79.05,30.41 C82.17,30.41 83.73,28.67 83.73,25.25 L83.73,22.52 C82.59,24.59 80.85,25.64 78.51,25.64 C76.35,25.64 74.64,24.89 73.38,23.42 C72.12,21.98 71.52,20.15 71.52,17.9 C71.52,15.62 72.12,13.79 73.38,12.35 C74.64,10.82 76.35,10.07 78.51,10.07 Z M78.87,12.05 C77.31,12.05 76.11,12.59 75.24,13.73 C74.4,14.75 73.98,16.16 73.98,17.9 C73.98,19.52 74.34,20.87 75.09,21.89 C75.93,23.03 77.16,23.63 78.84,23.63 C80.4,23.63 81.6,23.09 82.5,22.01 C83.34,20.96 83.76,19.58 83.76,17.9 C83.76,16.16 83.34,14.75 82.5,13.73 C81.6,12.59 80.4,12.05 78.87,12.05 Z M89.85,4.16 L89.85,26 L92.25,26 L92.25,17.15 C92.25,15.71 92.64,14.48 93.45,13.52 C94.23,12.56 95.22,12.08 96.42,12.08 C97.71,12.08 98.7,12.47 99.42,13.25 C100.08,14.03 100.44,15.14 100.44,16.58 L100.44,26 L102.84,26 L102.84,16.22 C102.84,14.24 102.36,12.71 101.4,11.66 C100.44,10.58 99.03,10.07 97.23,10.07 C96.18,10.07 95.25,10.31 94.41,10.79 C93.51,11.3 92.79,12.05 92.25,13.04 L92.25,4.16 L89.85,4.16 Z M116.52,4.16 L118.92,4.16 L118.92,13.34 C120.12,11.15 121.83,10.07 124.05,10.07 C126.24,10.07 127.98,10.88 129.24,12.56 C130.38,14.06 130.98,15.92 130.98,18.2 C130.98,20.54 130.38,22.46 129.24,23.96 C127.95,25.58 126.18,26.42 123.93,26.42 C121.53,26.42 119.82,25.43 118.77,23.45 L118.77,26 L116.52,26 L116.52,4.16 Z M123.54,12.05 C122.13,12.05 120.99,12.59 120.15,13.73 C119.25,14.84 118.83,16.31 118.83,18.11 L118.83,18.41 C118.83,20.15 119.22,21.56 120,22.64 C120.84,23.84 122.07,24.44 123.63,24.44 C125.31,24.44 126.57,23.81 127.41,22.61 C128.13,21.53 128.52,20.06 128.52,18.2 C128.52,16.34 128.13,14.9 127.35,13.85 C126.48,12.65 125.22,12.05 123.54,12.05 Z M140.85,10.07 C143.07,10.07 144.69,10.64 145.77,11.81 C146.67,12.83 147.15,14.24 147.15,16.04 L147.15,26 L144.9,26 L144.9,23.39 C144.3,24.23 143.49,24.92 142.53,25.46 C141.39,26.09 140.1,26.42 138.66,26.42 C137.1,26.42 135.87,26.03 134.94,25.25 C133.98,24.44 133.5,23.39 133.5,22.13 C133.5,20.36 134.19,19.04 135.63,18.14 C136.89,17.3 138.69,16.85 141.03,16.82 L144.75,16.76 L144.75,15.95 C144.75,13.34 143.4,12.05 140.7,12.05 C139.56,12.05 138.63,12.26 137.91,12.74 C137.1,13.22 136.59,13.97 136.35,14.96 L133.98,14.78 C134.31,13.16 135.12,11.93 136.38,11.15 C137.52,10.43 138.99,10.07 140.85,10.07 Z M144.75,18.56 L141.18,18.62 C137.7,18.68 135.96,19.82 135.96,22.07 C135.96,22.79 136.23,23.36 136.83,23.84 C137.43,24.29 138.21,24.53 139.17,24.53 C140.64,24.53 141.93,24.05 143.07,23.09 C144.18,22.16 144.75,21.08 144.75,19.88 L144.75,18.56 Z M155.01,5.48 L152.64,6.47 L152.64,10.49 L149.52,10.49 L149.52,12.5 L152.64,12.5 L152.64,22.37 C152.64,23.54 152.88,24.41 153.39,25.01 C153.93,25.67 154.86,26 156.12,26 L158.46,26 L158.46,23.99 L156.48,23.99 C155.94,23.99 155.55,23.84 155.34,23.6 C155.1,23.36 155.01,22.94 155.01,22.37 L155.01,12.5 L158.85,12.5 L158.85,10.49 L155.01,10.49 L155.01,5.48 Z M165.66,5.48 L163.29,6.47 L163.29,10.49 L160.17,10.49 L160.17,12.5 L163.29,12.5 L163.29,22.37 C163.29,23.54 163.53,24.41 164.04,25.01 C164.58,25.67 165.51,26 166.77,26 L169.11,26 L169.11,23.99 L167.13,23.99 C166.59,23.99 166.2,23.84 165.99,23.6 C165.75,23.36 165.66,22.94 165.66,22.37 L165.66,12.5 L169.5,12.5 L169.5,10.49 L165.66,10.49 L165.66,5.48 Z M178.56,10.07 C181.05,10.07 182.94,10.91 184.2,12.59 C185.34,14.09 185.94,16.22 186,18.92 L173.76,18.92 C173.88,20.66 174.33,22.01 175.17,22.97 C176.01,23.93 177.18,24.41 178.65,24.41 C179.91,24.41 180.96,24.08 181.74,23.45 C182.4,22.91 182.91,22.1 183.3,21.02 L185.7,21.02 C185.34,22.52 184.65,23.72 183.6,24.68 C182.31,25.82 180.66,26.42 178.65,26.42 C176.43,26.42 174.63,25.67 173.31,24.23 C171.93,22.73 171.27,20.75 171.27,18.23 C171.27,15.95 171.9,14.03 173.22,12.5 C174.54,10.88 176.31,10.07 178.56,10.07 Z M178.62,12.08 C177.24,12.08 176.13,12.53 175.29,13.43 C174.45,14.33 173.97,15.53 173.82,17.06 L183.51,17.06 C183.21,13.73 181.56,12.08 178.62,12.08 Z M195.63,10.07 C194.55,10.07 193.62,10.4 192.81,11.06 C192.15,11.57 191.61,12.29 191.19,13.19 L191.19,10.49 L188.82,10.49 L188.82,26 L191.19,26 L191.19,17.78 C191.19,16.34 191.58,15.11 192.42,14.09 C193.23,13.01 194.25,12.5 195.45,12.5 C196.2,12.5 196.98,12.59 197.76,12.83 L197.76,10.43 C197.19,10.19 196.47,10.07 195.63,10.07 Z M198.06,10.49 L204.21,25.64 L201.54,31.94 L204.15,31.94 L212.64,10.49 L210,10.49 L205.41,22.73 L200.67,10.49 L198.06,10.49 Z M231.33,10.07 C229.02,10.07 227.19,10.88 225.87,12.53 C224.64,14.03 224.04,15.95 224.04,18.32 C224.04,20.69 224.64,22.61 225.87,24.08 C227.16,25.64 228.96,26.42 231.3,26.42 C233.22,26.42 234.75,25.91 235.92,24.92 C237.12,23.9 237.87,22.37 238.23,20.39 L235.83,20.39 C235.47,23.06 233.94,24.41 231.3,24.41 C229.74,24.41 228.54,23.84 227.73,22.76 C226.89,21.68 226.5,20.18 226.5,18.29 C226.5,16.4 226.92,14.9 227.76,13.79 C228.63,12.65 229.83,12.08 231.33,12.08 C232.56,12.08 233.55,12.35 234.33,12.95 C235.08,13.55 235.56,14.45 235.77,15.65 L238.14,15.65 C237.87,13.76 237.15,12.35 235.95,11.42 C234.78,10.52 233.25,10.07 231.33,10.07 Z M247.8,10.07 C250.02,10.07 251.64,10.64 252.72,11.81 C253.62,12.83 254.1,14.24 254.1,16.04 L254.1,26 L251.85,26 L251.85,23.39 C251.25,24.23 250.44,24.92 249.48,25.46 C248.34,26.09 247.05,26.42 245.61,26.42 C244.05,26.42 242.82,26.03 241.89,25.25 C240.93,24.44 240.45,23.39 240.45,22.13 C240.45,20.36 241.14,19.04 242.58,18.14 C243.84,17.3 245.64,16.85 247.98,16.82 L251.7,16.76 L251.7,15.95 C251.7,13.34 250.35,12.05 247.65,12.05 C246.51,12.05 245.58,12.26 244.86,12.74 C244.05,13.22 243.54,13.97 243.3,14.96 L240.93,14.78 C241.26,13.16 242.07,11.93 243.33,11.15 C244.47,10.43 245.94,10.07 247.8,10.07 Z M251.7,18.56 L248.13,18.62 C244.65,18.68 242.91,19.82 242.91,22.07 C242.91,22.79 243.18,23.36 243.78,23.84 C244.38,24.29 245.16,24.53 246.12,24.53 C247.59,24.53 248.88,24.05 250.02,23.09 C251.13,22.16 251.7,21.08 251.7,19.88 L251.7,18.56 Z M265.23,10.07 C267.45,10.07 269.22,10.88 270.51,12.56 C271.68,14.06 272.28,15.95 272.28,18.29 C272.28,20.57 271.68,22.46 270.54,23.96 C269.28,25.58 267.57,26.42 265.35,26.42 C263.13,26.42 261.42,25.34 260.22,23.18 L260.22,31.94 L257.82,31.94 L257.82,10.49 L260.07,10.49 L260.07,13.04 C261.18,11.06 262.89,10.07 265.23,10.07 Z M264.93,12.05 C263.37,12.05 262.14,12.65 261.3,13.88 C260.52,14.96 260.13,16.4 260.13,18.14 L260.13,18.44 C260.13,20.24 260.55,21.68 261.45,22.79 C262.29,23.87 263.4,24.44 264.84,24.44 C266.52,24.44 267.78,23.84 268.65,22.7 C269.43,21.62 269.82,20.15 269.82,18.29 C269.82,16.46 269.43,14.99 268.71,13.91 C267.84,12.65 266.58,12.05 264.93,12.05 Z M282.15,10.07 C284.37,10.07 285.99,10.64 287.07,11.81 C287.97,12.83 288.45,14.24 288.45,16.04 L288.45,26 L286.2,26 L286.2,23.39 C285.6,24.23 284.79,24.92 283.83,25.46 C282.69,26.09 281.4,26.42 279.96,26.42 C278.4,26.42 277.17,26.03 276.24,25.25 C275.28,24.44 274.8,23.39 274.8,22.13 C274.8,20.36 275.49,19.04 276.93,18.14 C278.19,17.3 279.99,16.85 282.33,16.82 L286.05,16.76 L286.05,15.95 C286.05,13.34 284.7,12.05 282,12.05 C280.86,12.05 279.93,12.26 279.21,12.74 C278.4,13.22 277.89,13.97 277.65,14.96 L275.28,14.78 C275.61,13.16 276.42,11.93 277.68,11.15 C278.82,10.43 280.29,10.07 282.15,10.07 Z M286.05,18.56 L282.48,18.62 C279,18.68 277.26,19.82 277.26,22.07 C277.26,22.79 277.53,23.36 278.13,23.84 C278.73,24.29 279.51,24.53 280.47,24.53 C281.94,24.53 283.23,24.05 284.37,23.09 C285.48,22.16 286.05,21.08 286.05,19.88 L286.05,18.56 Z M298.86,10.07 C296.55,10.07 294.72,10.88 293.4,12.53 C292.17,14.03 291.57,15.95 291.57,18.32 C291.57,20.69 292.17,22.61 293.4,24.08 C294.69,25.64 296.49,26.42 298.83,26.42 C300.75,26.42 302.28,25.91 303.45,24.92 C304.65,23.9 305.4,22.37 305.76,20.39 L303.36,20.39 C303,23.06 301.47,24.41 298.83,24.41 C297.27,24.41 296.07,23.84 295.26,22.76 C294.42,21.68 294.03,20.18 294.03,18.29 C294.03,16.4 294.45,14.9 295.29,13.79 C296.16,12.65 297.36,12.08 298.86,12.08 C300.09,12.08 301.08,12.35 301.86,12.95 C302.61,13.55 303.09,14.45 303.3,15.65 L305.67,15.65 C305.4,13.76 304.68,12.35 303.48,11.42 C302.31,10.52 300.78,10.07 298.86,10.07 Z M310.56,4.64 C310.05,4.64 309.63,4.79 309.27,5.15 C308.91,5.45 308.76,5.87 308.76,6.41 C308.76,6.92 308.91,7.34 309.27,7.7 C309.63,8.03 310.05,8.21 310.56,8.21 C311.07,8.21 311.49,8.03 311.85,7.7 C312.21,7.34 312.39,6.92 312.39,6.41 C312.39,5.87 312.21,5.45 311.85,5.15 C311.49,4.79 311.07,4.64 310.56,4.64 Z M309.36,10.49 L309.36,26 L311.76,26 L311.76,10.49 L309.36,10.49 Z M320.4,5.48 L318.03,6.47 L318.03,10.49 L314.91,10.49 L314.91,12.5 L318.03,12.5 L318.03,22.37 C318.03,23.54 318.27,24.41 318.78,25.01 C319.32,25.67 320.25,26 321.51,26 L323.85,26 L323.85,23.99 L321.87,23.99 C321.33,23.99 320.94,23.84 320.73,23.6 C320.49,23.36 320.4,22.94 320.4,22.37 L320.4,12.5 L324.24,12.5 L324.24,10.49 L320.4,10.49 L320.4,5.48 Z M325.2,10.49 L331.35,25.64 L328.68,31.94 L331.29,31.94 L339.78,10.49 L337.14,10.49 L332.55,22.73 L327.81,10.49 L325.2,10.49 Z" id="Enough-battery-capac" fill="#454545"></path>
                        <path d="M1.394,52.862 L1.394,65 L2.431,65 L2.431,52.862 L1.394,52.862 Z M8.772,55.973 C8.16,55.973 7.599,56.109 7.106,56.415 C6.613,56.721 6.222,57.129 5.916,57.656 L5.916,56.211 L4.896,56.211 L4.896,65 L5.916,65 L5.916,59.696 C5.967,58.829 6.239,58.132 6.749,57.622 C7.225,57.112 7.803,56.857 8.517,56.857 C10.183,56.857 11.016,57.792 11.016,59.662 L11.016,65 L12.036,65 L12.036,59.594 C12.036,57.18 10.948,55.973 8.772,55.973 Z M17.799,55.973 C19.244,55.973 20.298,56.636 20.944,57.979 L20.944,56.211 L21.964,56.211 L21.964,64.354 C21.964,67.176 20.638,68.604 18.02,68.604 C16.864,68.604 15.98,68.349 15.351,67.856 C14.756,67.38 14.382,66.683 14.229,65.748 L15.249,65.748 C15.368,66.394 15.64,66.887 16.065,67.21 C16.507,67.567 17.153,67.754 18.02,67.754 C19.958,67.754 20.944,66.649 20.944,64.473 L20.944,62.79 C20.298,64.116 19.244,64.796 17.799,64.796 C16.575,64.796 15.589,64.354 14.858,63.487 C14.178,62.671 13.838,61.651 13.838,60.393 C13.838,59.152 14.178,58.115 14.858,57.299 C15.589,56.415 16.575,55.973 17.799,55.973 Z M17.918,56.84 C16.949,56.84 16.201,57.18 15.657,57.894 C15.13,58.54 14.875,59.373 14.875,60.393 C14.875,61.379 15.113,62.195 15.606,62.841 C16.133,63.555 16.898,63.912 17.901,63.912 C18.87,63.912 19.635,63.572 20.179,62.892 C20.689,62.246 20.944,61.413 20.944,60.393 C20.944,59.373 20.689,58.54 20.179,57.894 C19.635,57.18 18.87,56.84 17.918,56.84 Z M27.659,55.973 C29.053,55.973 30.09,56.432 30.787,57.384 C31.399,58.217 31.739,59.39 31.79,60.903 L24.65,60.903 C24.701,61.974 24.99,62.824 25.517,63.436 C26.061,64.048 26.775,64.354 27.693,64.354 C28.492,64.354 29.138,64.133 29.631,63.725 C30.039,63.368 30.345,62.858 30.566,62.178 L31.603,62.178 C31.399,63.028 31.008,63.725 30.43,64.269 C29.716,64.915 28.815,65.238 27.693,65.238 C26.452,65.238 25.466,64.813 24.735,63.98 C23.97,63.13 23.596,61.991 23.596,60.597 C23.596,59.305 23.953,58.234 24.684,57.35 C25.432,56.432 26.418,55.973 27.659,55.973 Z M27.676,56.857 C26.809,56.857 26.112,57.146 25.585,57.758 C25.058,58.353 24.752,59.118 24.667,60.07 L30.719,60.07 C30.549,57.928 29.529,56.857 27.676,56.857 Z M37.298,55.973 C36.686,55.973 36.125,56.109 35.632,56.415 C35.139,56.721 34.748,57.129 34.442,57.656 L34.442,56.211 L33.422,56.211 L33.422,65 L34.442,65 L34.442,59.696 C34.493,58.829 34.765,58.132 35.275,57.622 C35.751,57.112 36.329,56.857 37.043,56.857 C38.709,56.857 39.542,57.792 39.542,59.662 L39.542,65 L40.562,65 L40.562,59.594 C40.562,57.18 39.474,55.973 37.298,55.973 Z M46.257,55.973 C47.651,55.973 48.688,56.432 49.385,57.384 C49.997,58.217 50.337,59.39 50.388,60.903 L43.248,60.903 C43.299,61.974 43.588,62.824 44.115,63.436 C44.659,64.048 45.373,64.354 46.291,64.354 C47.09,64.354 47.736,64.133 48.229,63.725 C48.637,63.368 48.943,62.858 49.164,62.178 L50.201,62.178 C49.997,63.028 49.606,63.725 49.028,64.269 C48.314,64.915 47.413,65.238 46.291,65.238 C45.05,65.238 44.064,64.813 43.333,63.98 C42.568,63.13 42.194,61.991 42.194,60.597 C42.194,59.305 42.551,58.234 43.282,57.35 C44.03,56.432 45.016,55.973 46.257,55.973 Z M46.274,56.857 C45.407,56.857 44.71,57.146 44.183,57.758 C43.656,58.353 43.35,59.118 43.265,60.07 L49.317,60.07 C49.147,57.928 48.127,56.857 46.274,56.857 Z M55.709,55.973 C55.063,55.973 54.485,56.177 54.009,56.585 C53.601,56.908 53.278,57.35 53.04,57.894 L53.04,56.211 L52.02,56.211 L52.02,65 L53.04,65 L53.04,60.359 C53.04,59.475 53.261,58.71 53.737,58.064 C54.213,57.35 54.859,57.01 55.641,57.01 C56.083,57.01 56.525,57.061 56.984,57.197 L56.984,56.16 C56.644,56.024 56.219,55.973 55.709,55.973 Z M61.863,55.973 C63.087,55.973 64.005,56.296 64.6,56.976 C65.11,57.537 65.382,58.319 65.382,59.339 L65.382,65 L64.413,65 L64.413,63.317 C64.056,63.827 63.58,64.269 63.002,64.609 C62.288,65.017 61.523,65.238 60.69,65.238 C59.84,65.238 59.143,65.017 58.633,64.592 C58.072,64.15 57.8,63.555 57.8,62.841 C57.8,61.821 58.208,61.073 59.041,60.597 C59.755,60.138 60.792,59.9 62.118,59.9 L64.362,59.866 L64.362,59.339 C64.362,57.673 63.512,56.84 61.812,56.84 C61.098,56.84 60.52,56.976 60.061,57.282 C59.551,57.605 59.228,58.064 59.092,58.676 L58.089,58.608 C58.259,57.724 58.701,57.044 59.415,56.602 C60.044,56.177 60.86,55.973 61.863,55.973 Z M64.362,60.665 L62.169,60.699 C59.942,60.716 58.837,61.43 58.837,62.824 C58.837,63.3 59.024,63.674 59.398,63.963 C59.772,64.252 60.282,64.405 60.894,64.405 C61.778,64.405 62.594,64.099 63.308,63.487 C64.005,62.909 64.362,62.263 64.362,61.583 L64.362,60.665 Z M67.847,52.624 L67.847,65 L68.867,65 L68.867,52.624 L67.847,52.624 Z M72.454,63.3 C72.165,63.3 71.944,63.368 71.791,63.538 C71.621,63.691 71.536,63.912 71.536,64.184 C71.536,64.422 71.621,64.626 71.791,64.796 C71.961,64.966 72.165,65.051 72.403,65.051 C72.573,65.051 72.675,65.034 72.743,65.017 C72.743,65.425 72.641,65.782 72.403,66.088 C72.165,66.428 71.825,66.666 71.383,66.802 L71.383,67.482 C72.029,67.312 72.539,66.989 72.93,66.513 C73.321,66.02 73.525,65.442 73.525,64.762 C73.525,64.32 73.423,63.963 73.253,63.708 C73.049,63.436 72.794,63.3 72.454,63.3 Z M86.785,52.624 C84.949,52.624 83.504,53.253 82.467,54.545 C81.515,55.718 81.039,57.197 81.039,58.982 C81.039,60.767 81.498,62.229 82.433,63.368 C83.453,64.609 84.864,65.238 86.683,65.238 C87.958,65.238 89.063,64.864 89.998,64.15 C91.018,63.351 91.647,62.246 91.902,60.852 L90.899,60.852 C90.661,61.974 90.134,62.841 89.335,63.453 C88.587,63.997 87.703,64.286 86.666,64.286 C85.204,64.286 84.065,63.776 83.249,62.773 C82.467,61.821 82.076,60.546 82.076,58.982 C82.076,57.418 82.467,56.143 83.266,55.157 C84.116,54.103 85.272,53.576 86.768,53.576 C87.754,53.576 88.621,53.831 89.352,54.341 C90.117,54.868 90.576,55.599 90.729,56.534 L91.732,56.534 C91.579,55.344 91.035,54.392 90.083,53.678 C89.165,52.964 88.06,52.624 86.785,52.624 Z M93.704,52.624 L93.704,65 L94.741,65 L94.741,59.917 C94.741,59.05 94.979,58.319 95.489,57.741 C95.999,57.146 96.611,56.857 97.342,56.857 C98.124,56.857 98.719,57.078 99.161,57.537 C99.586,58.013 99.807,58.676 99.807,59.526 L99.807,65 L100.827,65 L100.827,59.39 C100.827,58.302 100.538,57.452 99.977,56.857 C99.416,56.262 98.634,55.973 97.631,55.973 C97.019,55.973 96.458,56.126 95.965,56.432 C95.455,56.755 95.047,57.214 94.741,57.809 L94.741,52.624 L93.704,52.624 Z M106.692,55.973 C107.916,55.973 108.834,56.296 109.429,56.976 C109.939,57.537 110.211,58.319 110.211,59.339 L110.211,65 L109.242,65 L109.242,63.317 C108.885,63.827 108.409,64.269 107.831,64.609 C107.117,65.017 106.352,65.238 105.519,65.238 C104.669,65.238 103.972,65.017 103.462,64.592 C102.901,64.15 102.629,63.555 102.629,62.841 C102.629,61.821 103.037,61.073 103.87,60.597 C104.584,60.138 105.621,59.9 106.947,59.9 L109.191,59.866 L109.191,59.339 C109.191,57.673 108.341,56.84 106.641,56.84 C105.927,56.84 105.349,56.976 104.89,57.282 C104.38,57.605 104.057,58.064 103.921,58.676 L102.918,58.608 C103.088,57.724 103.53,57.044 104.244,56.602 C104.873,56.177 105.689,55.973 106.692,55.973 Z M109.191,60.665 L106.998,60.699 C104.771,60.716 103.666,61.43 103.666,62.824 C103.666,63.3 103.853,63.674 104.227,63.963 C104.601,64.252 105.111,64.405 105.723,64.405 C106.607,64.405 107.423,64.099 108.137,63.487 C108.834,62.909 109.191,62.263 109.191,61.583 L109.191,60.665 Z M116.042,55.973 C115.396,55.973 114.818,56.177 114.342,56.585 C113.934,56.908 113.611,57.35 113.373,57.894 L113.373,56.211 L112.353,56.211 L112.353,65 L113.373,65 L113.373,60.359 C113.373,59.475 113.594,58.71 114.07,58.064 C114.546,57.35 115.192,57.01 115.974,57.01 C116.416,57.01 116.858,57.061 117.317,57.197 L117.317,56.16 C116.977,56.024 116.552,55.973 116.042,55.973 Z M122.094,55.973 C123.539,55.973 124.593,56.636 125.239,57.979 L125.239,56.211 L126.259,56.211 L126.259,64.354 C126.259,67.176 124.933,68.604 122.315,68.604 C121.159,68.604 120.275,68.349 119.646,67.856 C119.051,67.38 118.677,66.683 118.524,65.748 L119.544,65.748 C119.663,66.394 119.935,66.887 120.36,67.21 C120.802,67.567 121.448,67.754 122.315,67.754 C124.253,67.754 125.239,66.649 125.239,64.473 L125.239,62.79 C124.593,64.116 123.539,64.796 122.094,64.796 C120.87,64.796 119.884,64.354 119.153,63.487 C118.473,62.671 118.133,61.651 118.133,60.393 C118.133,59.152 118.473,58.115 119.153,57.299 C119.884,56.415 120.87,55.973 122.094,55.973 Z M122.213,56.84 C121.244,56.84 120.496,57.18 119.952,57.894 C119.425,58.54 119.17,59.373 119.17,60.393 C119.17,61.379 119.408,62.195 119.901,62.841 C120.428,63.555 121.193,63.912 122.196,63.912 C123.165,63.912 123.93,63.572 124.474,62.892 C124.984,62.246 125.239,61.413 125.239,60.393 C125.239,59.373 124.984,58.54 124.474,57.894 C123.93,57.18 123.165,56.84 122.213,56.84 Z M131.954,55.973 C133.348,55.973 134.385,56.432 135.082,57.384 C135.694,58.217 136.034,59.39 136.085,60.903 L128.945,60.903 C128.996,61.974 129.285,62.824 129.812,63.436 C130.356,64.048 131.07,64.354 131.988,64.354 C132.787,64.354 133.433,64.133 133.926,63.725 C134.334,63.368 134.64,62.858 134.861,62.178 L135.898,62.178 C135.694,63.028 135.303,63.725 134.725,64.269 C134.011,64.915 133.11,65.238 131.988,65.238 C130.747,65.238 129.761,64.813 129.03,63.98 C128.265,63.13 127.891,61.991 127.891,60.597 C127.891,59.305 128.248,58.234 128.979,57.35 C129.727,56.432 130.713,55.973 131.954,55.973 Z M131.971,56.857 C131.104,56.857 130.407,57.146 129.88,57.758 C129.353,58.353 129.047,59.118 128.962,60.07 L135.014,60.07 C134.844,57.928 133.824,56.857 131.971,56.857 Z M147.22,55.973 C148.512,55.973 149.549,56.432 150.331,57.367 C151.045,58.234 151.402,59.322 151.402,60.614 C151.402,61.906 151.045,62.977 150.331,63.844 C149.549,64.762 148.512,65.238 147.22,65.238 C145.928,65.238 144.891,64.762 144.109,63.844 C143.395,62.977 143.038,61.906 143.038,60.614 C143.038,59.322 143.395,58.234 144.126,57.367 C144.891,56.432 145.928,55.973 147.22,55.973 Z M147.22,56.857 C146.217,56.857 145.435,57.231 144.857,58.013 C144.33,58.693 144.075,59.56 144.075,60.614 C144.075,61.651 144.33,62.518 144.857,63.198 C145.435,63.963 146.217,64.354 147.22,64.354 C148.223,64.354 149.022,63.963 149.6,63.198 C150.11,62.501 150.382,61.634 150.382,60.614 C150.382,59.56 150.11,58.693 149.6,58.013 C149.022,57.231 148.223,56.857 147.22,56.857 Z M157.08,55.973 C156.468,55.973 155.907,56.109 155.414,56.415 C154.921,56.721 154.53,57.129 154.224,57.656 L154.224,56.211 L153.204,56.211 L153.204,65 L154.224,65 L154.224,59.696 C154.275,58.829 154.547,58.132 155.057,57.622 C155.533,57.112 156.111,56.857 156.825,56.857 C158.491,56.857 159.324,57.792 159.324,59.662 L159.324,65 L160.344,65 L160.344,59.594 C160.344,57.18 159.256,55.973 157.08,55.973 Z M162.809,52.624 L162.809,65 L163.829,65 L163.829,52.624 L162.809,52.624 Z M165.308,56.211 L168.793,64.779 L167.314,68.366 L168.419,68.366 L173.264,56.211 L172.142,56.211 L169.303,63.538 L166.43,56.211 L165.308,56.211 Z M183.923,55.973 C185.215,55.973 186.252,56.432 187.034,57.367 C187.748,58.234 188.105,59.322 188.105,60.614 C188.105,61.906 187.748,62.977 187.034,63.844 C186.252,64.762 185.215,65.238 183.923,65.238 C182.631,65.238 181.594,64.762 180.812,63.844 C180.098,62.977 179.741,61.906 179.741,60.614 C179.741,59.322 180.098,58.234 180.829,57.367 C181.594,56.432 182.631,55.973 183.923,55.973 Z M183.923,56.857 C182.92,56.857 182.138,57.231 181.56,58.013 C181.033,58.693 180.778,59.56 180.778,60.614 C180.778,61.651 181.033,62.518 181.56,63.198 C182.138,63.963 182.92,64.354 183.923,64.354 C184.926,64.354 185.725,63.963 186.303,63.198 C186.813,62.501 187.085,61.634 187.085,60.614 C187.085,59.56 186.813,58.693 186.303,58.013 C185.725,57.231 184.926,56.857 183.923,56.857 Z M193.783,55.973 C193.171,55.973 192.61,56.109 192.117,56.415 C191.624,56.721 191.233,57.129 190.927,57.656 L190.927,56.211 L189.907,56.211 L189.907,65 L190.927,65 L190.927,59.696 C190.978,58.829 191.25,58.132 191.76,57.622 C192.236,57.112 192.814,56.857 193.528,56.857 C195.194,56.857 196.027,57.792 196.027,59.662 L196.027,65 L197.047,65 L197.047,59.594 C197.047,57.18 195.959,55.973 193.783,55.973 Z M202.895,55.973 C201.62,55.973 200.617,56.432 199.886,57.367 C199.189,58.234 198.849,59.339 198.849,60.665 C198.849,62.008 199.172,63.096 199.852,63.912 C200.566,64.796 201.586,65.238 202.878,65.238 C203.932,65.238 204.799,64.949 205.445,64.388 C206.108,63.81 206.533,62.96 206.703,61.855 L205.7,61.855 C205.445,63.521 204.51,64.354 202.878,64.354 C201.909,64.354 201.161,64.014 200.651,63.351 C200.141,62.688 199.886,61.787 199.886,60.665 C199.886,59.526 200.141,58.608 200.685,57.928 C201.229,57.214 201.977,56.857 202.895,56.857 C203.66,56.857 204.289,57.044 204.765,57.418 C205.241,57.792 205.53,58.336 205.649,59.084 L206.669,59.084 C206.533,58.03 206.125,57.248 205.462,56.738 C204.799,56.228 203.949,55.973 202.895,55.973 Z M211.888,55.973 C213.282,55.973 214.319,56.432 215.016,57.384 C215.628,58.217 215.968,59.39 216.019,60.903 L208.879,60.903 C208.93,61.974 209.219,62.824 209.746,63.436 C210.29,64.048 211.004,64.354 211.922,64.354 C212.721,64.354 213.367,64.133 213.86,63.725 C214.268,63.368 214.574,62.858 214.795,62.178 L215.832,62.178 C215.628,63.028 215.237,63.725 214.659,64.269 C213.945,64.915 213.044,65.238 211.922,65.238 C210.681,65.238 209.695,64.813 208.964,63.98 C208.199,63.13 207.825,61.991 207.825,60.597 C207.825,59.305 208.182,58.234 208.913,57.35 C209.661,56.432 210.647,55.973 211.888,55.973 Z M211.905,56.857 C211.038,56.857 210.341,57.146 209.814,57.758 C209.287,58.353 208.981,59.118 208.896,60.07 L214.948,60.07 C214.778,57.928 213.758,56.857 211.905,56.857 Z M227.035,55.973 C228.259,55.973 229.177,56.296 229.772,56.976 C230.282,57.537 230.554,58.319 230.554,59.339 L230.554,65 L229.585,65 L229.585,63.317 C229.228,63.827 228.752,64.269 228.174,64.609 C227.46,65.017 226.695,65.238 225.862,65.238 C225.012,65.238 224.315,65.017 223.805,64.592 C223.244,64.15 222.972,63.555 222.972,62.841 C222.972,61.821 223.38,61.073 224.213,60.597 C224.927,60.138 225.964,59.9 227.29,59.9 L229.534,59.866 L229.534,59.339 C229.534,57.673 228.684,56.84 226.984,56.84 C226.27,56.84 225.692,56.976 225.233,57.282 C224.723,57.605 224.4,58.064 224.264,58.676 L223.261,58.608 C223.431,57.724 223.873,57.044 224.587,56.602 C225.216,56.177 226.032,55.973 227.035,55.973 Z M229.534,60.665 L227.341,60.699 C225.114,60.716 224.009,61.43 224.009,62.824 C224.009,63.3 224.196,63.674 224.57,63.963 C224.944,64.252 225.454,64.405 226.066,64.405 C226.95,64.405 227.766,64.099 228.48,63.487 C229.177,62.909 229.534,62.263 229.534,61.583 L229.534,60.665 Z M241.927,55.973 C240.856,55.973 240.006,56.483 239.377,57.537 L239.377,56.211 L238.357,56.211 L238.357,65 L239.377,65 L239.377,59.594 C239.377,58.829 239.598,58.183 240.057,57.656 C240.499,57.112 241.043,56.857 241.706,56.857 C243.168,56.857 243.899,57.69 243.899,59.39 L243.899,65 L244.936,65 L244.936,59.407 C244.936,58.659 245.14,58.064 245.582,57.588 C246.007,57.095 246.534,56.857 247.18,56.857 C247.962,56.857 248.557,57.078 248.931,57.52 C249.271,57.928 249.441,58.557 249.441,59.39 L249.441,65 L250.461,65 L250.461,59.254 C250.461,58.217 250.189,57.418 249.662,56.84 C249.118,56.262 248.37,55.973 247.452,55.973 C246.84,55.973 246.296,56.126 245.854,56.432 C245.378,56.738 244.987,57.18 244.681,57.775 C244.239,56.568 243.321,55.973 241.927,55.973 Z M256.445,55.973 C257.737,55.973 258.774,56.432 259.556,57.367 C260.27,58.234 260.627,59.322 260.627,60.614 C260.627,61.906 260.27,62.977 259.556,63.844 C258.774,64.762 257.737,65.238 256.445,65.238 C255.153,65.238 254.116,64.762 253.334,63.844 C252.62,62.977 252.263,61.906 252.263,60.614 C252.263,59.322 252.62,58.234 253.351,57.367 C254.116,56.432 255.153,55.973 256.445,55.973 Z M256.445,56.857 C255.442,56.857 254.66,57.231 254.082,58.013 C253.555,58.693 253.3,59.56 253.3,60.614 C253.3,61.651 253.555,62.518 254.082,63.198 C254.66,63.963 255.442,64.354 256.445,64.354 C257.448,64.354 258.247,63.963 258.825,63.198 C259.335,62.501 259.607,61.634 259.607,60.614 C259.607,59.56 259.335,58.693 258.825,58.013 C258.247,57.231 257.448,56.857 256.445,56.857 Z M266.305,55.973 C265.693,55.973 265.132,56.109 264.639,56.415 C264.146,56.721 263.755,57.129 263.449,57.656 L263.449,56.211 L262.429,56.211 L262.429,65 L263.449,65 L263.449,59.696 C263.5,58.829 263.772,58.132 264.282,57.622 C264.758,57.112 265.336,56.857 266.05,56.857 C267.716,56.857 268.549,57.792 268.549,59.662 L268.549,65 L269.569,65 L269.569,59.594 C269.569,57.18 268.481,55.973 266.305,55.973 Z M273.836,53.372 L272.816,53.797 L272.816,56.211 L270.946,56.211 L270.946,57.095 L272.816,57.095 L272.816,63.045 C272.816,63.691 272.935,64.167 273.207,64.473 C273.496,64.813 273.989,65 274.669,65 L275.91,65 L275.91,64.116 L274.805,64.116 C274.431,64.116 274.176,64.031 274.04,63.878 C273.904,63.708 273.836,63.419 273.836,63.045 L273.836,57.095 L276.131,57.095 L276.131,56.211 L273.836,56.211 L273.836,53.372 Z M277.678,52.624 L277.678,65 L278.715,65 L278.715,59.917 C278.715,59.05 278.953,58.319 279.463,57.741 C279.973,57.146 280.585,56.857 281.316,56.857 C282.098,56.857 282.693,57.078 283.135,57.537 C283.56,58.013 283.781,58.676 283.781,59.526 L283.781,65 L284.801,65 L284.801,59.39 C284.801,58.302 284.512,57.452 283.951,56.857 C283.39,56.262 282.608,55.973 281.605,55.973 C280.993,55.973 280.432,56.126 279.939,56.432 C279.429,56.755 279.021,57.214 278.715,57.809 L278.715,52.624 L277.678,52.624 Z" id="Ingeneral,-Charge-on" fill="#B3B3B3"></path>
                    </g>
                    <g id="Page-1">
                        <g id="Group-3" transform="translate(0.000000, 0.025501)">
                            <mask id="mask-2" fill="white">
                                <use xlink:href="#path-1"></use>
                            </mask>
                            <g id="Clip-2"></g>
                            <path d="M44.1332113,0.196311355 L44.1332113,5.66256146 C60.5277144,5.66256146 73.8181821,18.956652 73.8181821,35.3556241 C73.8181821,51.7548179 60.5277144,65.0486867 44.1332113,65.0486867 C27.7387082,65.0486867 14.4482405,51.7548179 14.4482405,35.3556241 L23.6115959,35.3556241 L11.8057536,21.5692584 L-8.86740573e-05,35.3556241 L8.98325838,35.3556241 C8.98325838,54.7736621 24.720465,70.5151586 44.1332113,70.5151586 C63.5459576,70.5151586 79.2831642,54.7736621 79.2831642,35.3556241 C79.2831642,15.9375861 63.5459576,0.196311355 44.1332113,0.196311355" id="Fill-1" fill="#B4BAC3" mask="url(#mask-2)"></path>
                        </g>
                        <mask id="mask-4" fill="white">
                            <use xlink:href="#path-3"></use>
                        </mask>
                        <g id="Clip-5"></g>
                        <polygon id="Fill-4" fill="#B4BAC3" mask="url(#mask-4)" points="43.8646176 16.2570549 45.8340684 16.2570549 45.8340684 10.9626576 43.8646176 10.9626576"></polygon>
                        <polygon id="Fill-6" fill="#B4BAC3" mask="url(#mask-4)" points="54.337977 18.8373751 52.5644959 17.9807719 54.8658093 13.2130204 56.6392905 14.0696235"></polygon>
                        <polygon id="Fill-7" fill="#B4BAC3" mask="url(#mask-4)" points="60.8742304 24.8596079 59.64942 23.3167022 63.7944888 20.0242239 65.0192992 21.5669079"></polygon>
                        <polygon id="Fill-8" fill="#B4BAC3" mask="url(#mask-4)" points="64.1425567 33.1254624 63.7102706 31.2035935 68.8742044 30.0412032 69.3064904 31.9632938"></polygon>
                        <polygon id="Fill-9" fill="#B4BAC3" mask="url(#mask-4)" points="63.4926645 41.9906286 63.938695 40.0718642 69.0942047 41.2710642 68.6479525 43.1900504"></polygon>
                        <polygon id="Fill-10" fill="#B4BAC3" mask="url(#mask-4)" points="59.053752 49.6913201 60.2896467 48.157506 64.4109952 51.4794764 63.1751005 53.0135123"></polygon>
                        <polygon id="Fill-11" fill="#B4BAC3" mask="url(#mask-4)" points="51.7091459 54.6953194 53.4888342 53.8513558 55.7560082 58.6357383 53.9763199 59.4794802"></polygon>
                        <polygon id="Fill-12" fill="#B4BAC3" mask="url(#mask-4)" points="42.9198842 56.0071662 44.889335 56.021358 44.8514268 61.3155335 42.881976 61.3013418"></polygon>
                        <polygon id="Fill-13" fill="#B4BAC3" mask="url(#mask-4)" points="34.4346858 53.3659325 36.2021815 54.2351752 33.8665068 58.9862958 32.0992328 58.1170532"></polygon>
                        <polygon id="Fill-14" fill="#B4BAC3" mask="url(#mask-4)" points="27.9417497 47.2969336 29.1554758 48.8484874 24.9869084 52.11103 23.7731822 50.559698"></polygon>
                        <polygon id="Fill-15" fill="#B4BAC3" mask="url(#mask-4)" points="24.732835 39.0077959 25.1513766 40.9327692 19.9792405 42.0579062 19.560699 40.1329329"></polygon>
                        <path d="M36.1289367,29.9663419 C36.1511052,29.807572 36.1706135,29.6394889 36.1828062,29.4647534 L36.1828062,42.4333215 C35.7418744,42.3444015 35.1785725,42.1911753 34.5095267,41.9776343 L34.4893534,41.9712037 C34.0127303,41.8241864 33.584878,41.7527843 33.1811893,41.7527843 C32.952632,41.7527843 32.7309468,41.7762893 32.5187941,41.8226342 C32.8621844,41.1396578 33.2086783,40.36377 33.5522903,39.5084974 C33.9639596,38.4833676 34.3472532,37.4014709 34.6917519,36.2925213 C35.0349205,35.1862327 35.3357472,34.0803875 35.5858081,33.0051432 C35.840746,31.9083896 36.0234146,30.8861425 36.1289367,29.9663419 M39.3123353,22.3582513 C38.2010277,22.3582513 37.4823245,22.8436523 37.0753106,23.250999 C36.6682966,23.6581238 36.1828062,24.3852276 36.1828062,25.5367523 L36.1828062,28.770468 C36.1477799,28.3298596 36.0356072,27.8759464 35.7813344,27.4510818 C35.3310919,26.7018036 34.5711552,26.2095284 33.6396342,26.0622893 C33.4591825,26.0339059 33.2787308,26.0192707 33.1029345,26.0192707 C32.3993058,26.0194924 31.7444479,26.2456729 31.2093,26.6736419 C30.2443046,27.4455382 30.0640745,28.7119272 30.0046629,29.1281436 C29.8701,30.1013849 29.6810026,31.0950268 29.4418043,32.090221 C29.1986157,33.1009373 28.9288249,34.0806092 28.6397475,35.0017403 C28.3566556,35.9033578 28.0564939,36.733795 27.7474648,37.4693251 C27.4575006,38.160506 27.1795075,38.7206353 26.9208009,39.1346343 L26.889765,39.1858575 C26.3723519,40.0681832 26.1633028,40.8203442 26.2318035,41.552548 C26.314492,42.4322127 26.7631828,43.2034438 27.4958522,43.7249894 L27.61002,43.8010481 C28.1617943,44.1427581 28.737954,44.3161631 29.3225377,44.3161631 C29.6588341,44.3161631 29.9860414,44.258731 30.2983957,44.1451973 C30.1296933,44.8822796 30.2190325,45.6191401 30.5613143,46.2588761 C30.9568006,46.9959584 31.6469065,47.5212736 32.6141187,47.8215171 C34.3929203,48.3894075 35.8609194,48.6654808 37.1016911,48.6654808 C37.9352272,48.6654808 38.652157,48.5532775 39.2934921,48.3224404 C40.0017761,48.0672112 40.6025429,47.6886915 41.0793876,47.1970816 C41.5637697,46.6966018 41.9160274,46.0978888 42.1284017,45.4155777 C42.3046414,44.847909 42.3937588,44.2418783 42.3937588,43.6121209 L42.3937588,31.3832961 C42.5722154,31.9152637 42.7564357,32.4924674 42.9444247,33.1086984 C43.2494635,34.1105449 43.5567191,35.1567405 43.8575458,36.2175713 C44.1526088,37.2588885 44.4248381,38.2888967 44.6666966,39.2781037 C44.9067816,40.262654 45.1069633,41.1458667 45.2614778,41.9024626 L45.2639164,41.9144368 C45.4330621,42.718708 45.7381009,43.7216632 46.6031163,44.3438813 C47.0943706,44.6984525 47.6907036,44.8864927 48.3253882,44.8864927 C48.5741189,44.8864927 48.8317171,44.8574441 49.0917538,44.8002337 C50.2199094,44.5840318 51.0492336,43.8910769 51.3731156,42.8903391 C51.5837164,42.2357462 51.5732972,41.4988856 51.3411929,40.5686629 C51.1483268,39.7814662 50.9031431,38.8168729 50.6147307,37.7105843 C50.3263183,36.6054043 50.0101953,35.4554318 49.6750074,34.292598 C49.3427013,33.1419602 49.0172675,32.0352281 48.7073517,31.001672 C48.386795,29.93308 48.0959441,29.0396671 47.8430013,28.3464905 C47.4457416,27.2215752 46.7478767,26.6771898 46.230907,26.4186345 C45.8141389,26.2104154 45.3725421,26.1048645 44.9174225,26.1048645 C44.4623029,26.1048645 44.0162724,26.2106371 43.5910803,26.419078 C43.0326554,26.6867249 42.6524654,27.0344219 42.3937588,27.3836712 L42.3937588,25.5367523 C42.3937588,24.3870015 41.9093768,23.6601195 41.5030279,23.2527729 C40.9246514,22.674904 40.147645,22.3582513 39.3123353,22.3582513 M44.9174225,28.2498094 C45.0373542,28.2498094 45.1555123,28.2788581 45.2716754,28.3369554 C45.5119821,28.4571415 45.6959807,28.7017269 45.8243364,29.0700463 C46.0646431,29.7273002 46.3410845,30.5763639 46.6534389,31.6181246 C46.9657932,32.6596636 47.2861283,33.7495431 47.6148873,34.8868761 C47.9427597,36.0248744 48.2515671,37.1464635 48.5397577,38.2520869 C48.8281701,39.3577104 49.0684768,40.3034552 49.2606778,41.0882128 C49.3885902,41.6013321 49.4127538,41.9818475 49.3329472,42.2299808 C49.2524755,42.4787793 49.0283518,42.6348882 48.6599111,42.6987509 C48.5397577,42.7273561 48.4280284,42.7415478 48.3253882,42.7415478 C48.1405028,42.7415478 47.9835497,42.695203 47.8549723,42.6025133 C47.654569,42.4583787 47.4903003,42.0820765 47.3623879,41.4729414 C47.2018879,40.6879621 46.9977159,39.7865663 46.7496502,38.7687541 C46.5009195,37.7513854 46.2246998,36.7058551 45.9205478,35.632163 C45.6161741,34.5586927 45.30781,33.5091709 44.9954557,32.4833759 C44.6828796,31.4580243 44.3827179,30.5446543 44.0943056,29.7432658 C43.9659499,29.3747247 43.9382392,29.0822423 44.0102869,28.8658186 C44.0823346,28.6496167 44.2541406,28.4775421 44.5268133,28.3491514 C44.6591593,28.2828495 44.7890668,28.2498094 44.9174225,28.2498094 M33.1027128,28.1642156 C33.1674449,28.1642156 33.2346155,28.1697592 33.3048897,28.1808465 C33.6090417,28.2289653 33.8216377,28.3533646 33.9417911,28.5533791 C34.0619444,28.7538371 34.0816744,29.1343525 34.0016461,29.695147 C33.9056564,30.5446543 33.7373974,31.4857425 33.4970907,32.5192987 C33.256784,33.5528548 32.9721403,34.5986069 32.6440462,35.6561115 C32.3155089,36.7138379 31.9550488,37.7316501 31.5626661,38.7086611 C31.1700617,39.6863373 30.7816694,40.5356228 30.397489,41.2567394 C30.1571823,41.6891433 29.9046829,41.9698732 29.6402125,42.0978204 C29.5395675,42.1468262 29.4338237,42.1712182 29.3225377,42.1712182 C29.1418643,42.1712182 28.9474465,42.1066902 28.7392841,41.9776343 C28.5147171,41.8177557 28.3907951,41.6090932 28.3666314,41.3527553 C28.3426894,41.0966391 28.4666114,40.7360808 28.7392841,40.2710804 C29.0593975,39.7584046 29.3881565,39.1015942 29.7244529,38.3002057 C30.060971,37.499039 30.3810843,36.6138307 30.6856797,35.6439155 C30.9898317,34.6746656 31.2702634,33.6572969 31.5267531,32.5915877 C31.7827995,31.5261002 31.9834245,30.472587 32.1275199,29.4306046 C32.2075482,28.8700318 32.3474315,28.5094735 32.5480566,28.3491514 C32.7019061,28.2258609 32.8867915,28.1642156 33.1027128,28.1642156 M39.3123353,24.5031962 C39.5845647,24.5031962 39.8089101,24.5914509 39.9851498,24.7675169 C40.1611678,24.9442482 40.2496201,25.2003643 40.2496201,25.5367523 L40.2496201,43.6121209 C40.2496201,44.0287809 40.1930904,44.4172791 40.0813611,44.7778374 C39.9689667,45.1383957 39.7889584,45.4468438 39.540671,45.7034034 C39.292162,45.9595196 38.9678366,46.1599775 38.5674733,46.3043339 C38.1666665,46.4484685 37.6782942,46.5205358 37.1016911,46.5205358 C36.0923586,46.5205358 34.8105751,46.2719591 33.256784,45.7754707 C32.8400159,45.6468583 32.5719986,45.4707923 32.4518452,45.2466075 C32.3316919,45.0219793 32.3277015,44.7576585 32.4396525,44.4534236 C32.5358639,44.1806766 32.6921519,44.0088237 32.9085166,43.9365347 C32.9863281,43.9105905 33.077219,43.8977292 33.1811893,43.8977292 C33.3656314,43.8977292 33.5910852,43.9385304 33.8575507,44.020798 C34.6103935,44.2611702 35.2470732,44.433023 35.7680333,44.5374652 C36.2883283,44.6414639 36.7330287,44.6937958 37.1016911,44.6937958 C37.5823045,44.6937958 37.9066299,44.5651834 38.0746672,44.309289 C38.2431479,44.0525076 38.3271666,43.6759836 38.3271666,43.1794953 L38.3271666,25.5367523 C38.3271666,25.2003643 38.4149539,24.9442482 38.5914153,24.7675169 C38.7676549,24.5914509 39.00774,24.5031962 39.3123353,24.5031962" id="Fill-19" fill="#FEFEFE" mask="url(#mask-4)"></path>
                    </g>
                </g>
            </g>
        </g>
    </g>
</svg>