<?xml version="1.0" encoding="UTF-8"?>
<svg width="436px" height="86px" viewBox="0 0 436 86" version="1.1" xmlns="http://www.w3.org/2000/svg" xmlns:xlink="http://www.w3.org/1999/xlink">
    <!-- Generator: Sketch 46 (44423) - http://www.bohemiancoding.com/sketch -->
    <title>Group 16</title>
    <desc>Created with Sketch.</desc>
    <defs>
        <polygon id="path-1" points="84.6569479 7.75593253e-05 84.6569479 77.7927788 0 77.7927788 0 38.8964282 0 7.75593253e-05"></polygon>
    </defs>
    <g id="Page-1" stroke="none" stroke-width="1" fill="none" fill-rule="evenodd">
        <g id="首页-英文" transform="translate(-801.000000, -6415.000000)">
            <g id="7" transform="translate(-9.000000, 6151.000000)">
                <g id="Group-16" transform="translate(810.000000, 264.000000)">
                    <g id="Group-27" transform="translate(166.000000, 0.000000)">
                        <path d="M2.16,4.58 L2.16,26 L4.62,26 L4.62,8.96 L4.71,8.96 L12.12,26 L14.34,26 L21.75,8.96 L21.84,8.96 L21.84,26 L24.3,26 L24.3,4.58 L21.24,4.58 L13.29,22.85 L13.2,22.85 L5.22,4.58 L2.16,4.58 Z M30.3,4.64 C29.79,4.64 29.37,4.79 29.01,5.15 C28.65,5.45 28.5,5.87 28.5,6.41 C28.5,6.92 28.65,7.34 29.01,7.7 C29.37,8.03 29.79,8.21 30.3,8.21 C30.81,8.21 31.23,8.03 31.59,7.7 C31.95,7.34 32.13,6.92 32.13,6.41 C32.13,5.87 31.95,5.45 31.59,5.15 C31.23,4.79 30.81,4.64 30.3,4.64 Z M29.1,10.49 L29.1,26 L31.5,26 L31.5,10.49 L29.1,10.49 Z M43.26,10.07 C42.24,10.07 41.31,10.31 40.47,10.79 C39.63,11.24 38.94,11.9 38.4,12.77 L38.4,10.49 L36,10.49 L36,26 L38.4,26 L38.4,16.64 C38.49,15.23 38.94,14.12 39.78,13.28 C40.56,12.5 41.49,12.11 42.57,12.11 C45.27,12.11 46.65,13.61 46.65,16.64 L46.65,26 L49.05,26 L49.05,16.46 C49.05,12.2 47.1,10.07 43.26,10.07 Z M54.75,4.64 C54.24,4.64 53.82,4.79 53.46,5.15 C53.1,5.45 52.95,5.87 52.95,6.41 C52.95,6.92 53.1,7.34 53.46,7.7 C53.82,8.03 54.24,8.21 54.75,8.21 C55.26,8.21 55.68,8.03 56.04,7.7 C56.4,7.34 56.58,6.92 56.58,6.41 C56.58,5.87 56.4,5.45 56.04,5.15 C55.68,4.79 55.26,4.64 54.75,4.64 Z M53.55,10.49 L53.55,26 L55.95,26 L55.95,10.49 L53.55,10.49 Z M81.9,4.16 L84.3,4.16 L84.3,26 L82.05,26 L82.05,23.45 C80.97,25.43 79.23,26.42 76.89,26.42 C74.61,26.42 72.84,25.58 71.58,23.96 C70.41,22.46 69.84,20.54 69.84,18.2 C69.84,15.92 70.41,14.06 71.58,12.56 C72.84,10.88 74.55,10.07 76.77,10.07 C78.99,10.07 80.7,11.15 81.9,13.34 L81.9,4.16 Z M77.28,12.05 C75.57,12.05 74.28,12.65 73.44,13.85 C72.66,14.9 72.3,16.34 72.3,18.2 C72.3,20.06 72.66,21.53 73.41,22.61 C74.25,23.81 75.51,24.44 77.19,24.44 C78.75,24.44 79.95,23.84 80.82,22.64 C81.57,21.56 81.96,20.15 81.96,18.41 L81.96,18.11 C81.96,16.31 81.51,14.84 80.67,13.73 C79.8,12.59 78.66,12.05 77.28,12.05 Z M94.41,10.07 C96.9,10.07 98.79,10.91 100.05,12.59 C101.19,14.09 101.79,16.22 101.85,18.92 L89.61,18.92 C89.73,20.66 90.18,22.01 91.02,22.97 C91.86,23.93 93.03,24.41 94.5,24.41 C95.76,24.41 96.81,24.08 97.59,23.45 C98.25,22.91 98.76,22.1 99.15,21.02 L101.55,21.02 C101.19,22.52 100.5,23.72 99.45,24.68 C98.16,25.82 96.51,26.42 94.5,26.42 C92.28,26.42 90.48,25.67 89.16,24.23 C87.78,22.73 87.12,20.75 87.12,18.23 C87.12,15.95 87.75,14.03 89.07,12.5 C90.39,10.88 92.16,10.07 94.41,10.07 Z M94.47,12.08 C93.09,12.08 91.98,12.53 91.14,13.43 C90.3,14.33 89.82,15.53 89.67,17.06 L99.36,17.06 C99.06,13.73 97.41,12.08 94.47,12.08 Z M110.16,10.07 C108.42,10.07 106.98,10.46 105.9,11.24 C104.73,12.02 104.16,13.04 104.16,14.36 C104.16,15.68 104.73,16.67 105.93,17.39 C106.65,17.87 107.94,18.32 109.77,18.77 C111.45,19.19 112.56,19.52 113.07,19.76 C114.03,20.24 114.54,20.9 114.54,21.77 C114.54,23.51 113.13,24.41 110.37,24.41 C109.05,24.41 108.06,24.17 107.4,23.69 C106.74,23.15 106.29,22.28 106.11,21.05 L103.77,21.05 C104.13,24.62 106.35,26.42 110.43,26.42 C114.81,26.42 117,24.8 117,21.62 C117,20.27 116.37,19.22 115.14,18.44 C114.33,17.93 113.01,17.45 111.15,17 C109.59,16.58 108.51,16.25 107.94,15.98 C107.04,15.53 106.62,14.96 106.62,14.3 C106.62,13.61 106.95,13.07 107.61,12.68 C108.21,12.26 109.05,12.08 110.13,12.08 C111.36,12.08 112.32,12.32 112.98,12.8 C113.58,13.22 113.97,13.94 114.18,14.9 L116.52,14.9 C116.1,11.66 114,10.07 110.16,10.07 Z M121.8,4.64 C121.29,4.64 120.87,4.79 120.51,5.15 C120.15,5.45 120,5.87 120,6.41 C120,6.92 120.15,7.34 120.51,7.7 C120.87,8.03 121.29,8.21 121.8,8.21 C122.31,8.21 122.73,8.03 123.09,7.7 C123.45,7.34 123.63,6.92 123.63,6.41 C123.63,5.87 123.45,5.45 123.09,5.15 C122.73,4.79 122.31,4.64 121.8,4.64 Z M120.6,10.49 L120.6,26 L123,26 L123,10.49 L120.6,10.49 Z M133.89,10.07 C136.23,10.07 137.97,11.09 139.11,13.16 L139.11,10.49 L141.51,10.49 L141.51,24.92 C141.51,29.87 139.14,32.36 134.43,32.36 C132.33,32.36 130.71,31.94 129.63,31.1 C128.52,30.26 127.83,29 127.56,27.32 L129.96,27.32 C130.14,28.37 130.59,29.15 131.28,29.63 C131.97,30.14 133.02,30.41 134.43,30.41 C137.55,30.41 139.11,28.67 139.11,25.25 L139.11,22.52 C137.97,24.59 136.23,25.64 133.89,25.64 C131.73,25.64 130.02,24.89 128.76,23.42 C127.5,21.98 126.9,20.15 126.9,17.9 C126.9,15.62 127.5,13.79 128.76,12.35 C130.02,10.82 131.73,10.07 133.89,10.07 Z M134.25,12.05 C132.69,12.05 131.49,12.59 130.62,13.73 C129.78,14.75 129.36,16.16 129.36,17.9 C129.36,19.52 129.72,20.87 130.47,21.89 C131.31,23.03 132.54,23.63 134.22,23.63 C135.78,23.63 136.98,23.09 137.88,22.01 C138.72,20.96 139.14,19.58 139.14,17.9 C139.14,16.16 138.72,14.75 137.88,13.73 C136.98,12.59 135.78,12.05 134.25,12.05 Z M152.49,10.07 C151.47,10.07 150.54,10.31 149.7,10.79 C148.86,11.24 148.17,11.9 147.63,12.77 L147.63,10.49 L145.23,10.49 L145.23,26 L147.63,26 L147.63,16.64 C147.72,15.23 148.17,14.12 149.01,13.28 C149.79,12.5 150.72,12.11 151.8,12.11 C154.5,12.11 155.88,13.61 155.88,16.64 L155.88,26 L158.28,26 L158.28,16.46 C158.28,12.2 156.33,10.07 152.49,10.07 Z" id="Mini-design" fill="#454545"></path>
                        <path d="M6.477,52.624 C4.641,52.624 3.196,53.253 2.159,54.545 C1.207,55.718 0.731,57.197 0.731,58.982 C0.731,60.767 1.19,62.229 2.125,63.368 C3.145,64.609 4.556,65.238 6.375,65.238 C7.65,65.238 8.755,64.864 9.69,64.15 C10.71,63.351 11.339,62.246 11.594,60.852 L10.591,60.852 C10.353,61.974 9.826,62.841 9.027,63.453 C8.279,63.997 7.395,64.286 6.358,64.286 C4.896,64.286 3.757,63.776 2.941,62.773 C2.159,61.821 1.768,60.546 1.768,58.982 C1.768,57.418 2.159,56.143 2.958,55.157 C3.808,54.103 4.964,53.576 6.46,53.576 C7.446,53.576 8.313,53.831 9.044,54.341 C9.809,54.868 10.268,55.599 10.421,56.534 L11.424,56.534 C11.271,55.344 10.727,54.392 9.775,53.678 C8.857,52.964 7.752,52.624 6.477,52.624 Z M17.238,55.973 C18.53,55.973 19.567,56.432 20.349,57.367 C21.063,58.234 21.42,59.322 21.42,60.614 C21.42,61.906 21.063,62.977 20.349,63.844 C19.567,64.762 18.53,65.238 17.238,65.238 C15.946,65.238 14.909,64.762 14.127,63.844 C13.413,62.977 13.056,61.906 13.056,60.614 C13.056,59.322 13.413,58.234 14.144,57.367 C14.909,56.432 15.946,55.973 17.238,55.973 Z M17.238,56.857 C16.235,56.857 15.453,57.231 14.875,58.013 C14.348,58.693 14.093,59.56 14.093,60.614 C14.093,61.651 14.348,62.518 14.875,63.198 C15.453,63.963 16.235,64.354 17.238,64.354 C18.241,64.354 19.04,63.963 19.618,63.198 C20.128,62.501 20.4,61.634 20.4,60.614 C20.4,59.56 20.128,58.693 19.618,58.013 C19.04,57.231 18.241,56.857 17.238,56.857 Z M26.792,55.973 C25.721,55.973 24.871,56.483 24.242,57.537 L24.242,56.211 L23.222,56.211 L23.222,65 L24.242,65 L24.242,59.594 C24.242,58.829 24.463,58.183 24.922,57.656 C25.364,57.112 25.908,56.857 26.571,56.857 C28.033,56.857 28.764,57.69 28.764,59.39 L28.764,65 L29.801,65 L29.801,59.407 C29.801,58.659 30.005,58.064 30.447,57.588 C30.872,57.095 31.399,56.857 32.045,56.857 C32.827,56.857 33.422,57.078 33.796,57.52 C34.136,57.928 34.306,58.557 34.306,59.39 L34.306,65 L35.326,65 L35.326,59.254 C35.326,58.217 35.054,57.418 34.527,56.84 C33.983,56.262 33.235,55.973 32.317,55.973 C31.705,55.973 31.161,56.126 30.719,56.432 C30.243,56.738 29.852,57.18 29.546,57.775 C29.104,56.568 28.186,55.973 26.792,55.973 Z M41.531,55.973 C42.772,55.973 43.758,56.432 44.489,57.384 C45.135,58.234 45.458,59.305 45.458,60.631 C45.458,61.923 45.135,62.994 44.506,63.844 C43.792,64.762 42.823,65.238 41.565,65.238 C40.154,65.238 39.134,64.541 38.488,63.164 L38.488,68.366 L37.468,68.366 L37.468,56.211 L38.437,56.211 L38.437,57.945 C39.083,56.619 40.103,55.973 41.531,55.973 Z M41.412,56.84 C40.46,56.84 39.712,57.214 39.185,57.962 C38.692,58.625 38.454,59.492 38.454,60.563 L38.454,60.75 C38.454,61.804 38.709,62.671 39.236,63.351 C39.763,64.031 40.477,64.371 41.378,64.371 C42.381,64.371 43.146,63.997 43.69,63.283 C44.166,62.62 44.404,61.736 44.404,60.631 C44.404,59.526 44.166,58.642 43.707,57.979 C43.163,57.214 42.398,56.84 41.412,56.84 Z M50.983,55.973 C52.207,55.973 53.125,56.296 53.72,56.976 C54.23,57.537 54.502,58.319 54.502,59.339 L54.502,65 L53.533,65 L53.533,63.317 C53.176,63.827 52.7,64.269 52.122,64.609 C51.408,65.017 50.643,65.238 49.81,65.238 C48.96,65.238 48.263,65.017 47.753,64.592 C47.192,64.15 46.92,63.555 46.92,62.841 C46.92,61.821 47.328,61.073 48.161,60.597 C48.875,60.138 49.912,59.9 51.238,59.9 L53.482,59.866 L53.482,59.339 C53.482,57.673 52.632,56.84 50.932,56.84 C50.218,56.84 49.64,56.976 49.181,57.282 C48.671,57.605 48.348,58.064 48.212,58.676 L47.209,58.608 C47.379,57.724 47.821,57.044 48.535,56.602 C49.164,56.177 49.98,55.973 50.983,55.973 Z M53.482,60.665 L51.289,60.699 C49.062,60.716 47.957,61.43 47.957,62.824 C47.957,63.3 48.144,63.674 48.518,63.963 C48.892,64.252 49.402,64.405 50.014,64.405 C50.898,64.405 51.714,64.099 52.428,63.487 C53.125,62.909 53.482,62.263 53.482,61.583 L53.482,60.665 Z M60.35,55.973 C59.075,55.973 58.072,56.432 57.341,57.367 C56.644,58.234 56.304,59.339 56.304,60.665 C56.304,62.008 56.627,63.096 57.307,63.912 C58.021,64.796 59.041,65.238 60.333,65.238 C61.387,65.238 62.254,64.949 62.9,64.388 C63.563,63.81 63.988,62.96 64.158,61.855 L63.155,61.855 C62.9,63.521 61.965,64.354 60.333,64.354 C59.364,64.354 58.616,64.014 58.106,63.351 C57.596,62.688 57.341,61.787 57.341,60.665 C57.341,59.526 57.596,58.608 58.14,57.928 C58.684,57.214 59.432,56.857 60.35,56.857 C61.115,56.857 61.744,57.044 62.22,57.418 C62.696,57.792 62.985,58.336 63.104,59.084 L64.124,59.084 C63.988,58.03 63.58,57.248 62.917,56.738 C62.254,56.228 61.404,55.973 60.35,55.973 Z M67.915,53.372 L66.895,53.797 L66.895,56.211 L65.025,56.211 L65.025,57.095 L66.895,57.095 L66.895,63.045 C66.895,63.691 67.014,64.167 67.286,64.473 C67.575,64.813 68.068,65 68.748,65 L69.989,65 L69.989,64.116 L68.884,64.116 C68.51,64.116 68.255,64.031 68.119,63.878 C67.983,63.708 67.915,63.419 67.915,63.045 L67.915,57.095 L70.21,57.095 L70.21,56.211 L67.915,56.211 L67.915,53.372 Z M81.141,55.973 C82.365,55.973 83.283,56.296 83.878,56.976 C84.388,57.537 84.66,58.319 84.66,59.339 L84.66,65 L83.691,65 L83.691,63.317 C83.334,63.827 82.858,64.269 82.28,64.609 C81.566,65.017 80.801,65.238 79.968,65.238 C79.118,65.238 78.421,65.017 77.911,64.592 C77.35,64.15 77.078,63.555 77.078,62.841 C77.078,61.821 77.486,61.073 78.319,60.597 C79.033,60.138 80.07,59.9 81.396,59.9 L83.64,59.866 L83.64,59.339 C83.64,57.673 82.79,56.84 81.09,56.84 C80.376,56.84 79.798,56.976 79.339,57.282 C78.829,57.605 78.506,58.064 78.37,58.676 L77.367,58.608 C77.537,57.724 77.979,57.044 78.693,56.602 C79.322,56.177 80.138,55.973 81.141,55.973 Z M83.64,60.665 L81.447,60.699 C79.22,60.716 78.115,61.43 78.115,62.824 C78.115,63.3 78.302,63.674 78.676,63.963 C79.05,64.252 79.56,64.405 80.172,64.405 C81.056,64.405 81.872,64.099 82.586,63.487 C83.283,62.909 83.64,62.263 83.64,61.583 L83.64,60.665 Z M90.678,55.973 C90.066,55.973 89.505,56.109 89.012,56.415 C88.519,56.721 88.128,57.129 87.822,57.656 L87.822,56.211 L86.802,56.211 L86.802,65 L87.822,65 L87.822,59.696 C87.873,58.829 88.145,58.132 88.655,57.622 C89.131,57.112 89.709,56.857 90.423,56.857 C92.089,56.857 92.922,57.792 92.922,59.662 L92.922,65 L93.942,65 L93.942,59.594 C93.942,57.18 92.854,55.973 90.678,55.973 Z M102.714,52.624 L103.734,52.624 L103.734,65 L102.765,65 L102.765,63.266 C102.153,64.575 101.133,65.238 99.688,65.238 C98.413,65.238 97.427,64.762 96.713,63.844 C96.067,62.994 95.744,61.906 95.744,60.597 C95.744,59.305 96.067,58.234 96.713,57.384 C97.427,56.432 98.396,55.973 99.637,55.973 C101.031,55.973 102.068,56.67 102.714,58.064 L102.714,52.624 Z M99.824,56.84 C98.821,56.84 98.056,57.214 97.512,57.962 C97.019,58.608 96.781,59.492 96.781,60.597 C96.781,61.702 97.019,62.586 97.495,63.249 C98.022,63.997 98.787,64.371 99.79,64.371 C100.742,64.371 101.49,63.997 102.017,63.283 C102.493,62.62 102.748,61.77 102.748,60.733 L102.748,60.529 C102.748,59.441 102.476,58.574 101.966,57.894 C101.422,57.18 100.708,56.84 99.824,56.84 Z M111.86,52.624 L111.86,65 L112.88,65 L112.88,52.624 L111.86,52.624 Z M116.365,53.049 C116.11,53.049 115.906,53.134 115.753,53.304 C115.583,53.44 115.498,53.644 115.498,53.899 C115.498,54.137 115.583,54.341 115.753,54.511 C115.906,54.664 116.11,54.749 116.365,54.749 C116.603,54.749 116.79,54.664 116.96,54.511 C117.13,54.341 117.232,54.137 117.232,53.899 C117.232,53.644 117.147,53.44 116.977,53.304 C116.807,53.134 116.603,53.049 116.365,53.049 Z M115.855,56.211 L115.855,65 L116.875,65 L116.875,56.211 L115.855,56.211 Z M123.148,55.973 C124.593,55.973 125.647,56.636 126.293,57.979 L126.293,56.211 L127.313,56.211 L127.313,64.354 C127.313,67.176 125.987,68.604 123.369,68.604 C122.213,68.604 121.329,68.349 120.7,67.856 C120.105,67.38 119.731,66.683 119.578,65.748 L120.598,65.748 C120.717,66.394 120.989,66.887 121.414,67.21 C121.856,67.567 122.502,67.754 123.369,67.754 C125.307,67.754 126.293,66.649 126.293,64.473 L126.293,62.79 C125.647,64.116 124.593,64.796 123.148,64.796 C121.924,64.796 120.938,64.354 120.207,63.487 C119.527,62.671 119.187,61.651 119.187,60.393 C119.187,59.152 119.527,58.115 120.207,57.299 C120.938,56.415 121.924,55.973 123.148,55.973 Z M123.267,56.84 C122.298,56.84 121.55,57.18 121.006,57.894 C120.479,58.54 120.224,59.373 120.224,60.393 C120.224,61.379 120.462,62.195 120.955,62.841 C121.482,63.555 122.247,63.912 123.25,63.912 C124.219,63.912 124.984,63.572 125.528,62.892 C126.038,62.246 126.293,61.413 126.293,60.393 C126.293,59.373 126.038,58.54 125.528,57.894 C124.984,57.18 124.219,56.84 123.267,56.84 Z M129.455,52.624 L129.455,65 L130.492,65 L130.492,59.917 C130.492,59.05 130.73,58.319 131.24,57.741 C131.75,57.146 132.362,56.857 133.093,56.857 C133.875,56.857 134.47,57.078 134.912,57.537 C135.337,58.013 135.558,58.676 135.558,59.526 L135.558,65 L136.578,65 L136.578,59.39 C136.578,58.302 136.289,57.452 135.728,56.857 C135.167,56.262 134.385,55.973 133.382,55.973 C132.77,55.973 132.209,56.126 131.716,56.432 C131.206,56.755 130.798,57.214 130.492,57.809 L130.492,52.624 L129.455,52.624 Z M140.845,53.372 L139.825,53.797 L139.825,56.211 L137.955,56.211 L137.955,57.095 L139.825,57.095 L139.825,63.045 C139.825,63.691 139.944,64.167 140.216,64.473 C140.505,64.813 140.998,65 141.678,65 L142.919,65 L142.919,64.116 L141.814,64.116 C141.44,64.116 141.185,64.031 141.049,63.878 C140.913,63.708 140.845,63.419 140.845,63.045 L140.845,57.095 L143.14,57.095 L143.14,56.211 L140.845,56.211 L140.845,53.372 Z M143.701,56.211 L146.727,65 L147.696,65 L149.94,57.537 L152.15,65 L153.136,65 L156.145,56.211 L155.023,56.211 L152.626,63.691 L150.416,56.211 L149.43,56.211 L147.22,63.691 L144.84,56.211 L143.701,56.211 Z M160.854,55.973 C162.248,55.973 163.285,56.432 163.982,57.384 C164.594,58.217 164.934,59.39 164.985,60.903 L157.845,60.903 C157.896,61.974 158.185,62.824 158.712,63.436 C159.256,64.048 159.97,64.354 160.888,64.354 C161.687,64.354 162.333,64.133 162.826,63.725 C163.234,63.368 163.54,62.858 163.761,62.178 L164.798,62.178 C164.594,63.028 164.203,63.725 163.625,64.269 C162.911,64.915 162.01,65.238 160.888,65.238 C159.647,65.238 158.661,64.813 157.93,63.98 C157.165,63.13 156.791,61.991 156.791,60.597 C156.791,59.305 157.148,58.234 157.879,57.35 C158.627,56.432 159.613,55.973 160.854,55.973 Z M160.871,56.857 C160.004,56.857 159.307,57.146 158.78,57.758 C158.253,58.353 157.947,59.118 157.862,60.07 L163.914,60.07 C163.744,57.928 162.724,56.857 160.871,56.857 Z M167.637,53.049 C167.382,53.049 167.178,53.134 167.025,53.304 C166.855,53.44 166.77,53.644 166.77,53.899 C166.77,54.137 166.855,54.341 167.025,54.511 C167.178,54.664 167.382,54.749 167.637,54.749 C167.875,54.749 168.062,54.664 168.232,54.511 C168.402,54.341 168.504,54.137 168.504,53.899 C168.504,53.644 168.419,53.44 168.249,53.304 C168.079,53.134 167.875,53.049 167.637,53.049 Z M167.127,56.211 L167.127,65 L168.147,65 L168.147,56.211 L167.127,56.211 Z M174.42,55.973 C175.865,55.973 176.919,56.636 177.565,57.979 L177.565,56.211 L178.585,56.211 L178.585,64.354 C178.585,67.176 177.259,68.604 174.641,68.604 C173.485,68.604 172.601,68.349 171.972,67.856 C171.377,67.38 171.003,66.683 170.85,65.748 L171.87,65.748 C171.989,66.394 172.261,66.887 172.686,67.21 C173.128,67.567 173.774,67.754 174.641,67.754 C176.579,67.754 177.565,66.649 177.565,64.473 L177.565,62.79 C176.919,64.116 175.865,64.796 174.42,64.796 C173.196,64.796 172.21,64.354 171.479,63.487 C170.799,62.671 170.459,61.651 170.459,60.393 C170.459,59.152 170.799,58.115 171.479,57.299 C172.21,56.415 173.196,55.973 174.42,55.973 Z M174.539,56.84 C173.57,56.84 172.822,57.18 172.278,57.894 C171.751,58.54 171.496,59.373 171.496,60.393 C171.496,61.379 171.734,62.195 172.227,62.841 C172.754,63.555 173.519,63.912 174.522,63.912 C175.491,63.912 176.256,63.572 176.8,62.892 C177.31,62.246 177.565,61.413 177.565,60.393 C177.565,59.373 177.31,58.54 176.8,57.894 C176.256,57.18 175.491,56.84 174.539,56.84 Z M180.727,52.624 L180.727,65 L181.764,65 L181.764,59.917 C181.764,59.05 182.002,58.319 182.512,57.741 C183.022,57.146 183.634,56.857 184.365,56.857 C185.147,56.857 185.742,57.078 186.184,57.537 C186.609,58.013 186.83,58.676 186.83,59.526 L186.83,65 L187.85,65 L187.85,59.39 C187.85,58.302 187.561,57.452 187,56.857 C186.439,56.262 185.657,55.973 184.654,55.973 C184.042,55.973 183.481,56.126 182.988,56.432 C182.478,56.755 182.07,57.214 181.764,57.809 L181.764,52.624 L180.727,52.624 Z M192.117,53.372 L191.097,53.797 L191.097,56.211 L189.227,56.211 L189.227,57.095 L191.097,57.095 L191.097,63.045 C191.097,63.691 191.216,64.167 191.488,64.473 C191.777,64.813 192.27,65 192.95,65 L194.191,65 L194.191,64.116 L193.086,64.116 C192.712,64.116 192.457,64.031 192.321,63.878 C192.185,63.708 192.117,63.419 192.117,63.045 L192.117,57.095 L194.412,57.095 L194.412,56.211 L192.117,56.211 L192.117,53.372 Z M197.081,63.3 C196.792,63.3 196.571,63.368 196.418,63.538 C196.248,63.691 196.163,63.912 196.163,64.184 C196.163,64.422 196.248,64.626 196.418,64.796 C196.588,64.966 196.792,65.051 197.03,65.051 C197.2,65.051 197.302,65.034 197.37,65.017 C197.37,65.425 197.268,65.782 197.03,66.088 C196.792,66.428 196.452,66.666 196.01,66.802 L196.01,67.482 C196.656,67.312 197.166,66.989 197.557,66.513 C197.948,66.02 198.152,65.442 198.152,64.762 C198.152,64.32 198.05,63.963 197.88,63.708 C197.676,63.436 197.421,63.3 197.081,63.3 Z M209.729,55.973 C210.953,55.973 211.871,56.296 212.466,56.976 C212.976,57.537 213.248,58.319 213.248,59.339 L213.248,65 L212.279,65 L212.279,63.317 C211.922,63.827 211.446,64.269 210.868,64.609 C210.154,65.017 209.389,65.238 208.556,65.238 C207.706,65.238 207.009,65.017 206.499,64.592 C205.938,64.15 205.666,63.555 205.666,62.841 C205.666,61.821 206.074,61.073 206.907,60.597 C207.621,60.138 208.658,59.9 209.984,59.9 L212.228,59.866 L212.228,59.339 C212.228,57.673 211.378,56.84 209.678,56.84 C208.964,56.84 208.386,56.976 207.927,57.282 C207.417,57.605 207.094,58.064 206.958,58.676 L205.955,58.608 C206.125,57.724 206.567,57.044 207.281,56.602 C207.91,56.177 208.726,55.973 209.729,55.973 Z M212.228,60.665 L210.035,60.699 C207.808,60.716 206.703,61.43 206.703,62.824 C206.703,63.3 206.89,63.674 207.264,63.963 C207.638,64.252 208.148,64.405 208.76,64.405 C209.644,64.405 210.46,64.099 211.174,63.487 C211.871,62.909 212.228,62.263 212.228,61.583 L212.228,60.665 Z M221.051,52.624 L222.071,52.624 L222.071,58.064 C222.717,56.67 223.737,55.973 225.148,55.973 C226.372,55.973 227.358,56.432 228.072,57.384 C228.718,58.234 229.041,59.305 229.041,60.597 C229.041,61.906 228.718,62.994 228.072,63.844 C227.358,64.762 226.372,65.238 225.114,65.238 C223.652,65.238 222.615,64.575 222.02,63.266 L222.02,65 L221.051,65 L221.051,52.624 Z M224.961,56.84 C224.06,56.84 223.346,57.18 222.819,57.894 C222.292,58.574 222.037,59.441 222.037,60.529 L222.037,60.733 C222.037,61.77 222.275,62.62 222.768,63.283 C223.278,63.997 224.026,64.371 224.995,64.371 C225.981,64.371 226.746,63.997 227.29,63.249 C227.766,62.586 228.004,61.702 228.004,60.597 C228.004,59.492 227.749,58.608 227.273,57.962 C226.729,57.214 225.964,56.84 224.961,56.84 Z M230.843,56.211 L230.843,61.634 C230.843,64.031 231.914,65.238 234.056,65.238 C235.314,65.238 236.3,64.66 236.98,63.521 L236.98,65 L238,65 L238,56.211 L236.98,56.211 L236.98,61.549 C236.912,62.382 236.623,63.062 236.113,63.572 C235.603,64.082 235.008,64.354 234.328,64.354 C233.478,64.354 232.849,64.116 232.441,63.64 C232.05,63.181 231.863,62.501 231.863,61.583 L231.863,56.211 L230.843,56.211 Z M242.267,53.372 L241.247,53.797 L241.247,56.211 L239.377,56.211 L239.377,57.095 L241.247,57.095 L241.247,63.045 C241.247,63.691 241.366,64.167 241.638,64.473 C241.927,64.813 242.42,65 243.1,65 L244.341,65 L244.341,64.116 L243.236,64.116 C242.862,64.116 242.607,64.031 242.471,63.878 C242.335,63.708 242.267,63.419 242.267,63.045 L242.267,57.095 L244.562,57.095 L244.562,56.211 L242.267,56.211 L242.267,53.372 Z M248.234,53.372 L247.214,53.797 L247.214,56.211 L245.344,56.211 L245.344,57.095 L247.214,57.095 L247.214,63.045 C247.214,63.691 247.333,64.167 247.605,64.473 C247.894,64.813 248.387,65 249.067,65 L250.308,65 L250.308,64.116 L249.203,64.116 C248.829,64.116 248.574,64.031 248.438,63.878 C248.302,63.708 248.234,63.419 248.234,63.045 L248.234,57.095 L250.529,57.095 L250.529,56.211 L248.234,56.211 L248.234,53.372 Z M255.918,55.973 C257.21,55.973 258.247,56.432 259.029,57.367 C259.743,58.234 260.1,59.322 260.1,60.614 C260.1,61.906 259.743,62.977 259.029,63.844 C258.247,64.762 257.21,65.238 255.918,65.238 C254.626,65.238 253.589,64.762 252.807,63.844 C252.093,62.977 251.736,61.906 251.736,60.614 C251.736,59.322 252.093,58.234 252.824,57.367 C253.589,56.432 254.626,55.973 255.918,55.973 Z M255.918,56.857 C254.915,56.857 254.133,57.231 253.555,58.013 C253.028,58.693 252.773,59.56 252.773,60.614 C252.773,61.651 253.028,62.518 253.555,63.198 C254.133,63.963 254.915,64.354 255.918,64.354 C256.921,64.354 257.72,63.963 258.298,63.198 C258.808,62.501 259.08,61.634 259.08,60.614 C259.08,59.56 258.808,58.693 258.298,58.013 C257.72,57.231 256.921,56.857 255.918,56.857 Z M265.778,55.973 C265.166,55.973 264.605,56.109 264.112,56.415 C263.619,56.721 263.228,57.129 262.922,57.656 L262.922,56.211 L261.902,56.211 L261.902,65 L262.922,65 L262.922,59.696 C262.973,58.829 263.245,58.132 263.755,57.622 C264.231,57.112 264.809,56.857 265.523,56.857 C267.189,56.857 268.022,57.792 268.022,59.662 L268.022,65 L269.042,65 L269.042,59.594 C269.042,57.18 267.954,55.973 265.778,55.973 Z M4.777,72.973 C3.502,72.973 2.499,73.432 1.768,74.367 C1.071,75.234 0.731,76.339 0.731,77.665 C0.731,79.008 1.054,80.096 1.734,80.912 C2.448,81.796 3.468,82.238 4.76,82.238 C5.814,82.238 6.681,81.949 7.327,81.388 C7.99,80.81 8.415,79.96 8.585,78.855 L7.582,78.855 C7.327,80.521 6.392,81.354 4.76,81.354 C3.791,81.354 3.043,81.014 2.533,80.351 C2.023,79.688 1.768,78.787 1.768,77.665 C1.768,76.526 2.023,75.608 2.567,74.928 C3.111,74.214 3.859,73.857 4.777,73.857 C5.542,73.857 6.171,74.044 6.647,74.418 C7.123,74.792 7.412,75.336 7.531,76.084 L8.551,76.084 C8.415,75.03 8.007,74.248 7.344,73.738 C6.681,73.228 5.831,72.973 4.777,72.973 Z M14.059,72.973 C15.351,72.973 16.388,73.432 17.17,74.367 C17.884,75.234 18.241,76.322 18.241,77.614 C18.241,78.906 17.884,79.977 17.17,80.844 C16.388,81.762 15.351,82.238 14.059,82.238 C12.767,82.238 11.73,81.762 10.948,80.844 C10.234,79.977 9.877,78.906 9.877,77.614 C9.877,76.322 10.234,75.234 10.965,74.367 C11.73,73.432 12.767,72.973 14.059,72.973 Z M14.059,73.857 C13.056,73.857 12.274,74.231 11.696,75.013 C11.169,75.693 10.914,76.56 10.914,77.614 C10.914,78.651 11.169,79.518 11.696,80.198 C12.274,80.963 13.056,81.354 14.059,81.354 C15.062,81.354 15.861,80.963 16.439,80.198 C16.949,79.501 17.221,78.634 17.221,77.614 C17.221,76.56 16.949,75.693 16.439,75.013 C15.861,74.231 15.062,73.857 14.059,73.857 Z M23.613,72.973 C22.542,72.973 21.692,73.483 21.063,74.537 L21.063,73.211 L20.043,73.211 L20.043,82 L21.063,82 L21.063,76.594 C21.063,75.829 21.284,75.183 21.743,74.656 C22.185,74.112 22.729,73.857 23.392,73.857 C24.854,73.857 25.585,74.69 25.585,76.39 L25.585,82 L26.622,82 L26.622,76.407 C26.622,75.659 26.826,75.064 27.268,74.588 C27.693,74.095 28.22,73.857 28.866,73.857 C29.648,73.857 30.243,74.078 30.617,74.52 C30.957,74.928 31.127,75.557 31.127,76.39 L31.127,82 L32.147,82 L32.147,76.254 C32.147,75.217 31.875,74.418 31.348,73.84 C30.804,73.262 30.056,72.973 29.138,72.973 C28.526,72.973 27.982,73.126 27.54,73.432 C27.064,73.738 26.673,74.18 26.367,74.775 C25.925,73.568 25.007,72.973 23.613,72.973 Z M38.352,72.973 C39.593,72.973 40.579,73.432 41.31,74.384 C41.956,75.234 42.279,76.305 42.279,77.631 C42.279,78.923 41.956,79.994 41.327,80.844 C40.613,81.762 39.644,82.238 38.386,82.238 C36.975,82.238 35.955,81.541 35.309,80.164 L35.309,85.366 L34.289,85.366 L34.289,73.211 L35.258,73.211 L35.258,74.945 C35.904,73.619 36.924,72.973 38.352,72.973 Z M38.233,73.84 C37.281,73.84 36.533,74.214 36.006,74.962 C35.513,75.625 35.275,76.492 35.275,77.563 L35.275,77.75 C35.275,78.804 35.53,79.671 36.057,80.351 C36.584,81.031 37.298,81.371 38.199,81.371 C39.202,81.371 39.967,80.997 40.511,80.283 C40.987,79.62 41.225,78.736 41.225,77.631 C41.225,76.526 40.987,75.642 40.528,74.979 C39.984,74.214 39.219,73.84 38.233,73.84 Z M44.404,69.624 L44.404,82 L45.424,82 L45.424,69.624 L44.404,69.624 Z M51.442,72.973 C52.836,72.973 53.873,73.432 54.57,74.384 C55.182,75.217 55.522,76.39 55.573,77.903 L48.433,77.903 C48.484,78.974 48.773,79.824 49.3,80.436 C49.844,81.048 50.558,81.354 51.476,81.354 C52.275,81.354 52.921,81.133 53.414,80.725 C53.822,80.368 54.128,79.858 54.349,79.178 L55.386,79.178 C55.182,80.028 54.791,80.725 54.213,81.269 C53.499,81.915 52.598,82.238 51.476,82.238 C50.235,82.238 49.249,81.813 48.518,80.98 C47.753,80.13 47.379,78.991 47.379,77.597 C47.379,76.305 47.736,75.234 48.467,74.35 C49.215,73.432 50.201,72.973 51.442,72.973 Z M51.459,73.857 C50.592,73.857 49.895,74.146 49.368,74.758 C48.841,75.353 48.535,76.118 48.45,77.07 L54.502,77.07 C54.332,74.928 53.312,73.857 51.459,73.857 Z M59.33,70.372 L58.31,70.797 L58.31,73.211 L56.44,73.211 L56.44,74.095 L58.31,74.095 L58.31,80.045 C58.31,80.691 58.429,81.167 58.701,81.473 C58.99,81.813 59.483,82 60.163,82 L61.404,82 L61.404,81.116 L60.299,81.116 C59.925,81.116 59.67,81.031 59.534,80.878 C59.398,80.708 59.33,80.419 59.33,80.045 L59.33,74.095 L61.625,74.095 L61.625,73.211 L59.33,73.211 L59.33,70.372 Z M66.725,72.973 C68.119,72.973 69.156,73.432 69.853,74.384 C70.465,75.217 70.805,76.39 70.856,77.903 L63.716,77.903 C63.767,78.974 64.056,79.824 64.583,80.436 C65.127,81.048 65.841,81.354 66.759,81.354 C67.558,81.354 68.204,81.133 68.697,80.725 C69.105,80.368 69.411,79.858 69.632,79.178 L70.669,79.178 C70.465,80.028 70.074,80.725 69.496,81.269 C68.782,81.915 67.881,82.238 66.759,82.238 C65.518,82.238 64.532,81.813 63.801,80.98 C63.036,80.13 62.662,78.991 62.662,77.597 C62.662,76.305 63.019,75.234 63.75,74.35 C64.498,73.432 65.484,72.973 66.725,72.973 Z M66.742,73.857 C65.875,73.857 65.178,74.146 64.651,74.758 C64.124,75.353 63.818,76.118 63.733,77.07 L69.785,77.07 C69.615,74.928 68.595,73.857 66.742,73.857 Z M75.48,72.973 C74.562,72.973 73.78,73.177 73.168,73.602 C72.522,74.044 72.216,74.605 72.216,75.319 C72.216,76.033 72.539,76.594 73.219,77.002 C73.627,77.257 74.341,77.512 75.361,77.784 C76.364,78.039 77.01,78.243 77.316,78.396 C77.894,78.685 78.183,79.093 78.183,79.62 C78.183,80.776 77.333,81.354 75.633,81.354 C74.817,81.354 74.205,81.201 73.797,80.895 C73.355,80.555 73.083,79.994 72.981,79.229 L71.978,79.229 C72.182,81.235 73.406,82.238 75.667,82.238 C78.047,82.238 79.237,81.337 79.237,79.569 C79.237,78.821 78.88,78.226 78.183,77.801 C77.741,77.529 76.976,77.257 75.905,76.985 C75.004,76.747 74.392,76.543 74.052,76.373 C73.525,76.101 73.27,75.744 73.27,75.302 C73.27,74.86 73.474,74.52 73.882,74.248 C74.29,73.976 74.817,73.857 75.463,73.857 C76.245,73.857 76.84,74.01 77.248,74.333 C77.622,74.622 77.86,75.064 77.979,75.676 L78.982,75.676 C78.727,73.874 77.554,72.973 75.48,72.973 Z M90.253,72.973 C91.477,72.973 92.395,73.296 92.99,73.976 C93.5,74.537 93.772,75.319 93.772,76.339 L93.772,82 L92.803,82 L92.803,80.317 C92.446,80.827 91.97,81.269 91.392,81.609 C90.678,82.017 89.913,82.238 89.08,82.238 C88.23,82.238 87.533,82.017 87.023,81.592 C86.462,81.15 86.19,80.555 86.19,79.841 C86.19,78.821 86.598,78.073 87.431,77.597 C88.145,77.138 89.182,76.9 90.508,76.9 L92.752,76.866 L92.752,76.339 C92.752,74.673 91.902,73.84 90.202,73.84 C89.488,73.84 88.91,73.976 88.451,74.282 C87.941,74.605 87.618,75.064 87.482,75.676 L86.479,75.608 C86.649,74.724 87.091,74.044 87.805,73.602 C88.434,73.177 89.25,72.973 90.253,72.973 Z M92.752,77.665 L90.559,77.699 C88.332,77.716 87.227,78.43 87.227,79.824 C87.227,80.3 87.414,80.674 87.788,80.963 C88.162,81.252 88.672,81.405 89.284,81.405 C90.168,81.405 90.984,81.099 91.698,80.487 C92.395,79.909 92.752,79.263 92.752,78.583 L92.752,77.665 Z M96.237,69.624 L96.237,82 L97.257,82 L97.257,69.624 L96.237,69.624 Z M100.045,69.624 L100.045,82 L101.065,82 L101.065,69.624 L100.045,69.624 Z M113.033,72.973 C114.325,72.973 115.362,73.432 116.144,74.367 C116.858,75.234 117.215,76.322 117.215,77.614 C117.215,78.906 116.858,79.977 116.144,80.844 C115.362,81.762 114.325,82.238 113.033,82.238 C111.741,82.238 110.704,81.762 109.922,80.844 C109.208,79.977 108.851,78.906 108.851,77.614 C108.851,76.322 109.208,75.234 109.939,74.367 C110.704,73.432 111.741,72.973 113.033,72.973 Z M113.033,73.857 C112.03,73.857 111.248,74.231 110.67,75.013 C110.143,75.693 109.888,76.56 109.888,77.614 C109.888,78.651 110.143,79.518 110.67,80.198 C111.248,80.963 112.03,81.354 113.033,81.354 C114.036,81.354 114.835,80.963 115.413,80.198 C115.923,79.501 116.195,78.634 116.195,77.614 C116.195,76.56 115.923,75.693 115.413,75.013 C114.835,74.231 114.036,73.857 113.033,73.857 Z M123.08,72.973 C124.321,72.973 125.307,73.432 126.038,74.384 C126.684,75.234 127.007,76.305 127.007,77.631 C127.007,78.923 126.684,79.994 126.055,80.844 C125.341,81.762 124.372,82.238 123.114,82.238 C121.703,82.238 120.683,81.541 120.037,80.164 L120.037,85.366 L119.017,85.366 L119.017,73.211 L119.986,73.211 L119.986,74.945 C120.632,73.619 121.652,72.973 123.08,72.973 Z M122.961,73.84 C122.009,73.84 121.261,74.214 120.734,74.962 C120.241,75.625 120.003,76.492 120.003,77.563 L120.003,77.75 C120.003,78.804 120.258,79.671 120.785,80.351 C121.312,81.031 122.026,81.371 122.927,81.371 C123.93,81.371 124.695,80.997 125.239,80.283 C125.715,79.62 125.953,78.736 125.953,77.631 C125.953,76.526 125.715,75.642 125.256,74.979 C124.712,74.214 123.947,73.84 122.961,73.84 Z M132.362,72.973 C133.756,72.973 134.793,73.432 135.49,74.384 C136.102,75.217 136.442,76.39 136.493,77.903 L129.353,77.903 C129.404,78.974 129.693,79.824 130.22,80.436 C130.764,81.048 131.478,81.354 132.396,81.354 C133.195,81.354 133.841,81.133 134.334,80.725 C134.742,80.368 135.048,79.858 135.269,79.178 L136.306,79.178 C136.102,80.028 135.711,80.725 135.133,81.269 C134.419,81.915 133.518,82.238 132.396,82.238 C131.155,82.238 130.169,81.813 129.438,80.98 C128.673,80.13 128.299,78.991 128.299,77.597 C128.299,76.305 128.656,75.234 129.387,74.35 C130.135,73.432 131.121,72.973 132.362,72.973 Z M132.379,73.857 C131.512,73.857 130.815,74.146 130.288,74.758 C129.761,75.353 129.455,76.118 129.37,77.07 L135.422,77.07 C135.252,74.928 134.232,73.857 132.379,73.857 Z M141.814,72.973 C141.168,72.973 140.59,73.177 140.114,73.585 C139.706,73.908 139.383,74.35 139.145,74.894 L139.145,73.211 L138.125,73.211 L138.125,82 L139.145,82 L139.145,77.359 C139.145,76.475 139.366,75.71 139.842,75.064 C140.318,74.35 140.964,74.01 141.746,74.01 C142.188,74.01 142.63,74.061 143.089,74.197 L143.089,73.16 C142.749,73.024 142.324,72.973 141.814,72.973 Z M147.968,72.973 C149.192,72.973 150.11,73.296 150.705,73.976 C151.215,74.537 151.487,75.319 151.487,76.339 L151.487,82 L150.518,82 L150.518,80.317 C150.161,80.827 149.685,81.269 149.107,81.609 C148.393,82.017 147.628,82.238 146.795,82.238 C145.945,82.238 145.248,82.017 144.738,81.592 C144.177,81.15 143.905,80.555 143.905,79.841 C143.905,78.821 144.313,78.073 145.146,77.597 C145.86,77.138 146.897,76.9 148.223,76.9 L150.467,76.866 L150.467,76.339 C150.467,74.673 149.617,73.84 147.917,73.84 C147.203,73.84 146.625,73.976 146.166,74.282 C145.656,74.605 145.333,75.064 145.197,75.676 L144.194,75.608 C144.364,74.724 144.806,74.044 145.52,73.602 C146.149,73.177 146.965,72.973 147.968,72.973 Z M150.467,77.665 L148.274,77.699 C146.047,77.716 144.942,78.43 144.942,79.824 C144.942,80.3 145.129,80.674 145.503,80.963 C145.877,81.252 146.387,81.405 146.999,81.405 C147.883,81.405 148.699,81.099 149.413,80.487 C150.11,79.909 150.467,79.263 150.467,78.583 L150.467,77.665 Z M155.754,70.372 L154.734,70.797 L154.734,73.211 L152.864,73.211 L152.864,74.095 L154.734,74.095 L154.734,80.045 C154.734,80.691 154.853,81.167 155.125,81.473 C155.414,81.813 155.907,82 156.587,82 L157.828,82 L157.828,81.116 L156.723,81.116 C156.349,81.116 156.094,81.031 155.958,80.878 C155.822,80.708 155.754,80.419 155.754,80.045 L155.754,74.095 L158.049,74.095 L158.049,73.211 L155.754,73.211 L155.754,70.372 Z M160.616,70.049 C160.361,70.049 160.157,70.134 160.004,70.304 C159.834,70.44 159.749,70.644 159.749,70.899 C159.749,71.137 159.834,71.341 160.004,71.511 C160.157,71.664 160.361,71.749 160.616,71.749 C160.854,71.749 161.041,71.664 161.211,71.511 C161.381,71.341 161.483,71.137 161.483,70.899 C161.483,70.644 161.398,70.44 161.228,70.304 C161.058,70.134 160.854,70.049 160.616,70.049 Z M160.106,73.211 L160.106,82 L161.126,82 L161.126,73.211 L160.106,73.211 Z M167.62,72.973 C168.912,72.973 169.949,73.432 170.731,74.367 C171.445,75.234 171.802,76.322 171.802,77.614 C171.802,78.906 171.445,79.977 170.731,80.844 C169.949,81.762 168.912,82.238 167.62,82.238 C166.328,82.238 165.291,81.762 164.509,80.844 C163.795,79.977 163.438,78.906 163.438,77.614 C163.438,76.322 163.795,75.234 164.526,74.367 C165.291,73.432 166.328,72.973 167.62,72.973 Z M167.62,73.857 C166.617,73.857 165.835,74.231 165.257,75.013 C164.73,75.693 164.475,76.56 164.475,77.614 C164.475,78.651 164.73,79.518 165.257,80.198 C165.835,80.963 166.617,81.354 167.62,81.354 C168.623,81.354 169.422,80.963 170,80.198 C170.51,79.501 170.782,78.634 170.782,77.614 C170.782,76.56 170.51,75.693 170,75.013 C169.422,74.231 168.623,73.857 167.62,73.857 Z M177.48,72.973 C176.868,72.973 176.307,73.109 175.814,73.415 C175.321,73.721 174.93,74.129 174.624,74.656 L174.624,73.211 L173.604,73.211 L173.604,82 L174.624,82 L174.624,76.696 C174.675,75.829 174.947,75.132 175.457,74.622 C175.933,74.112 176.511,73.857 177.225,73.857 C178.891,73.857 179.724,74.792 179.724,76.662 L179.724,82 L180.744,82 L180.744,76.594 C180.744,74.18 179.656,72.973 177.48,72.973 Z M185.878,72.973 C184.96,72.973 184.178,73.177 183.566,73.602 C182.92,74.044 182.614,74.605 182.614,75.319 C182.614,76.033 182.937,76.594 183.617,77.002 C184.025,77.257 184.739,77.512 185.759,77.784 C186.762,78.039 187.408,78.243 187.714,78.396 C188.292,78.685 188.581,79.093 188.581,79.62 C188.581,80.776 187.731,81.354 186.031,81.354 C185.215,81.354 184.603,81.201 184.195,80.895 C183.753,80.555 183.481,79.994 183.379,79.229 L182.376,79.229 C182.58,81.235 183.804,82.238 186.065,82.238 C188.445,82.238 189.635,81.337 189.635,79.569 C189.635,78.821 189.278,78.226 188.581,77.801 C188.139,77.529 187.374,77.257 186.303,76.985 C185.402,76.747 184.79,76.543 184.45,76.373 C183.923,76.101 183.668,75.744 183.668,75.302 C183.668,74.86 183.872,74.52 184.28,74.248 C184.688,73.976 185.215,73.857 185.861,73.857 C186.643,73.857 187.238,74.01 187.646,74.333 C188.02,74.622 188.258,75.064 188.377,75.676 L189.38,75.676 C189.125,73.874 187.952,72.973 185.878,72.973 Z" id="Compact-and-lightwei" fill="#B3B3B3"></path>
                    </g>
                    <g id="Page-1">
                        <mask id="mask-2" fill="white">
                            <use xlink:href="#path-1"></use>
                        </mask>
                        <g id="Clip-2"></g>
                        <path d="M4.00015159,66.959874 L38.0705491,66.959874 L38.0705491,9.84538075 L4.00015159,9.84538075 L4.00015159,66.959874 Z M37.9892902,0.0969491566 L4.08141045,0.0969491566 C1.82735214,0.0969491566 0,1.95876076 0,4.25529238 L0,73.5374864 C0,75.8340181 1.82735214,77.6958297 4.08141045,77.6958297 L37.9892902,77.6958297 C40.2431541,77.6958297 42.0705063,75.8340181 42.0705063,73.5374864 L42.0705063,4.25529238 C42.0705063,1.95876076 40.2431541,0.0969491566 37.9892902,0.0969491566 L37.9892902,0.0969491566 Z" id="Fill-1" fill="#B4BAC3" mask="url(#mask-2)"></path>
                        <path d="M59.7150297,45.7657607 C57.7795916,45.7657607 56.210596,47.330714 56.210596,49.2611656 C56.210596,51.1916172 57.7795916,52.7565705 59.7150297,52.7565705 C61.6504678,52.7565705 63.2194634,51.1916172 63.2194634,49.2611656 C63.2194634,47.330714 61.6504678,45.7657607 59.7150297,45.7657607" id="Fill-3" fill="#B4BAC3" mask="url(#mask-2)"></path>
                        <path d="M59.7150297,54.1547906 C57.0054942,54.1547906 54.8087836,51.9637397 54.8087836,49.261185 C54.8087836,46.5584364 57.0054942,44.3675793 59.7150297,44.3675793 C62.4247597,44.3675793 64.6212758,46.5584364 64.6212758,49.261185 C64.6212758,51.9637397 62.4247597,54.1547906 59.7150297,54.1547906 M59.7150297,61.2446824 C59.4008807,61.2446824 59.1462178,60.9906756 59.1462178,60.6773359 C59.1462178,60.3639963 59.4008807,60.1099895 59.7150297,60.1099895 C60.0291788,60.1099895 60.2838417,60.3639963 60.2838417,60.6773359 C60.2838417,60.9906756 60.0291788,61.2446824 59.7150297,61.2446824 M59.7150297,64.8457619 C59.4008807,64.8457619 59.1462178,64.5917551 59.1462178,64.2784154 C59.1462178,63.9650757 59.4008807,63.711069 59.7150297,63.711069 C60.0291788,63.711069 60.2838417,63.9650757 60.2838417,64.2784154 C60.2838417,64.5917551 60.0291788,64.8457619 59.7150297,64.8457619 M59.7150297,37.6268984 L59.7150297,37.6268984 C53.1911882,37.6268984 47.9025589,42.7432932 47.9025589,49.0546833 L47.9025589,65.062928 C47.9025589,71.3743181 53.1911882,76.490519 59.7150297,76.490519 L59.7150297,76.490519 C66.2390657,76.490519 71.5276949,71.3743181 71.5276949,65.062928 L71.5276949,49.0546833 C71.5276949,42.7432932 66.2390657,37.6268984 59.7150297,37.6268984" id="Fill-4" fill="#B4BAC3" mask="url(#mask-2)"></path>
                        <polygon id="Fill-5" fill="#B4BAC3" mask="url(#mask-2)" points="78.2662892 7.75593253e-05 78.2662892 0.387874186 84.2679746 0.387874186 84.2679746 37.3359733 78.2662892 37.3359733 78.2662892 37.7239639 84.2679746 37.7239639 84.2679746 77.4048659 78.2662892 77.4048659 78.2662892 77.7928564 84.6569673 77.7928564 84.6569673 7.75593253e-05"></polygon>
                        <path d="M26.0083142,5.86501679 L16.0622698,5.86501679 C15.8435707,5.86501679 15.6662787,5.68818152 15.6662787,5.47023982 C15.6662787,5.25210422 15.8435707,5.07526896 16.0622698,5.07526896 L26.0083142,5.07526896 C26.2270133,5.07526896 26.4043053,5.25210422 26.4043053,5.47023982 C26.4043053,5.68818152 26.2270133,5.86501679 26.0083142,5.86501679" id="Fill-6" fill="#FEFEFE" mask="url(#mask-2)"></path>
                        <path d="M23.7187197,72.5681306 C23.7187197,74.0464114 22.5173329,75.2447029 21.0352337,75.2447029 C19.5533289,75.2447029 18.351942,74.0464114 18.351942,72.5681306 C18.351942,71.0898499 19.5533289,69.8915583 21.0352337,69.8915583 C22.5173329,69.8915583 23.7187197,71.0898499 23.7187197,72.5681306" id="Fill-7" fill="#FEFEFE" mask="url(#mask-2)"></path>
                    </g>
                </g>
            </g>
        </g>
    </g>
</svg>