<?xml version="1.0" encoding="UTF-8"?>
<svg width="399px" height="78px" viewBox="0 0 399 78" version="1.1" xmlns="http://www.w3.org/2000/svg" xmlns:xlink="http://www.w3.org/1999/xlink">
    <!-- Generator: Sketch 46 (44423) - http://www.bohemiancoding.com/sketch -->
    <title>Group 28</title>
    <desc>Created with Sketch.</desc>
    <defs>
        <polygon id="path-1" points="25.3318625 0.0921630675 25.3318625 26.0650857 0.170953049 26.0650857 0.170953049 0.0921630675 25.3318625 0.0921630675"></polygon>
        <polygon id="path-3" points="0 13.8441689 0 0.089104432 29.6213508 0.089104432 29.6213508 13.8441689 4.52456399e-15 13.8441689"></polygon>
    </defs>
    <g id="Page-1" stroke="none" stroke-width="1" fill="none" fill-rule="evenodd">
        <g id="首页-英文" transform="translate(-795.000000, -6630.000000)">
            <g id="7" transform="translate(-9.000000, 6151.000000)">
                <g id="Group-28" transform="translate(804.000000, 479.000000)">
                    <g id="Group-20" transform="translate(172.000000, 0.000000)">
                        <path d="M2.16,4.58 L11.4,4.58 C13.53,4.58 15.21,5.06 16.44,6.05 C17.7,7.07 18.36,8.57 18.36,10.55 C18.36,11.75 18.03,12.8 17.37,13.73 C16.65,14.69 15.69,15.29 14.46,15.59 L14.46,15.65 C16.5,16.1 17.64,17.39 17.88,19.55 L18.21,22.85 C18.33,24.17 18.72,25.22 19.35,26 L16.68,26 C16.2,25.28 15.9,24.35 15.81,23.15 L15.54,20.3 C15.42,19.04 14.97,18.11 14.19,17.57 C13.47,17.03 12.45,16.79 11.1,16.79 L4.62,16.79 L4.62,26 L2.16,26 L2.16,4.58 Z M4.62,6.71 L4.62,14.66 L11.1,14.66 C12.66,14.66 13.89,14.27 14.73,13.55 C15.48,12.86 15.87,11.9 15.87,10.64 C15.87,9.32 15.48,8.33 14.76,7.7 C13.98,7.04 12.75,6.71 11.1,6.71 L4.62,6.71 Z M28.53,10.07 C31.02,10.07 32.91,10.91 34.17,12.59 C35.31,14.09 35.91,16.22 35.97,18.92 L23.73,18.92 C23.85,20.66 24.3,22.01 25.14,22.97 C25.98,23.93 27.15,24.41 28.62,24.41 C29.88,24.41 30.93,24.08 31.71,23.45 C32.37,22.91 32.88,22.1 33.27,21.02 L35.67,21.02 C35.31,22.52 34.62,23.72 33.57,24.68 C32.28,25.82 30.63,26.42 28.62,26.42 C26.4,26.42 24.6,25.67 23.28,24.23 C21.9,22.73 21.24,20.75 21.24,18.23 C21.24,15.95 21.87,14.03 23.19,12.5 C24.51,10.88 26.28,10.07 28.53,10.07 Z M28.59,12.08 C27.21,12.08 26.1,12.53 25.26,13.43 C24.42,14.33 23.94,15.53 23.79,17.06 L33.48,17.06 C33.18,13.73 31.53,12.08 28.59,12.08 Z M39.27,4.16 L39.27,26 L41.64,26 L41.64,4.16 L39.27,4.16 Z M47.82,4.64 C47.31,4.64 46.89,4.79 46.53,5.15 C46.17,5.45 46.02,5.87 46.02,6.41 C46.02,6.92 46.17,7.34 46.53,7.7 C46.89,8.03 47.31,8.21 47.82,8.21 C48.33,8.21 48.75,8.03 49.11,7.7 C49.47,7.34 49.65,6.92 49.65,6.41 C49.65,5.87 49.47,5.45 49.11,5.15 C48.75,4.79 48.33,4.64 47.82,4.64 Z M46.62,10.49 L46.62,26 L49.02,26 L49.02,10.49 L46.62,10.49 Z M60.27,10.07 C62.49,10.07 64.11,10.64 65.19,11.81 C66.09,12.83 66.57,14.24 66.57,16.04 L66.57,26 L64.32,26 L64.32,23.39 C63.72,24.23 62.91,24.92 61.95,25.46 C60.81,26.09 59.52,26.42 58.08,26.42 C56.52,26.42 55.29,26.03 54.36,25.25 C53.4,24.44 52.92,23.39 52.92,22.13 C52.92,20.36 53.61,19.04 55.05,18.14 C56.31,17.3 58.11,16.85 60.45,16.82 L64.17,16.76 L64.17,15.95 C64.17,13.34 62.82,12.05 60.12,12.05 C58.98,12.05 58.05,12.26 57.33,12.74 C56.52,13.22 56.01,13.97 55.77,14.96 L53.4,14.78 C53.73,13.16 54.54,11.93 55.8,11.15 C56.94,10.43 58.41,10.07 60.27,10.07 Z M64.17,18.56 L60.6,18.62 C57.12,18.68 55.38,19.82 55.38,22.07 C55.38,22.79 55.65,23.36 56.25,23.84 C56.85,24.29 57.63,24.53 58.59,24.53 C60.06,24.53 61.35,24.05 62.49,23.09 C63.6,22.16 64.17,21.08 64.17,19.88 L64.17,18.56 Z M70.29,4.16 L72.69,4.16 L72.69,13.34 C73.89,11.15 75.6,10.07 77.82,10.07 C80.01,10.07 81.75,10.88 83.01,12.56 C84.15,14.06 84.75,15.92 84.75,18.2 C84.75,20.54 84.15,22.46 83.01,23.96 C81.72,25.58 79.95,26.42 77.7,26.42 C75.3,26.42 73.59,25.43 72.54,23.45 L72.54,26 L70.29,26 L70.29,4.16 Z M77.31,12.05 C75.9,12.05 74.76,12.59 73.92,13.73 C73.02,14.84 72.6,16.31 72.6,18.11 L72.6,18.41 C72.6,20.15 72.99,21.56 73.77,22.64 C74.61,23.84 75.84,24.44 77.4,24.44 C79.08,24.44 80.34,23.81 81.18,22.61 C81.9,21.53 82.29,20.06 82.29,18.2 C82.29,16.34 81.9,14.9 81.12,13.85 C80.25,12.65 78.99,12.05 77.31,12.05 Z M88.35,4.16 L88.35,26 L90.72,26 L90.72,4.16 L88.35,4.16 Z M101.31,10.07 C103.8,10.07 105.69,10.91 106.95,12.59 C108.09,14.09 108.69,16.22 108.75,18.92 L96.51,18.92 C96.63,20.66 97.08,22.01 97.92,22.97 C98.76,23.93 99.93,24.41 101.4,24.41 C102.66,24.41 103.71,24.08 104.49,23.45 C105.15,22.91 105.66,22.1 106.05,21.02 L108.45,21.02 C108.09,22.52 107.4,23.72 106.35,24.68 C105.06,25.82 103.41,26.42 101.4,26.42 C99.18,26.42 97.38,25.67 96.06,24.23 C94.68,22.73 94.02,20.75 94.02,18.23 C94.02,15.95 94.65,14.03 95.97,12.5 C97.29,10.88 99.06,10.07 101.31,10.07 Z M101.37,12.08 C99.99,12.08 98.88,12.53 98.04,13.43 C97.2,14.33 96.72,15.53 96.57,17.06 L106.26,17.06 C105.96,13.73 104.31,12.08 101.37,12.08 Z" id="Reliable" fill="#454545"></path>
                        <path d="M3.893,52.862 C3.485,53.338 2.992,53.763 2.448,54.12 C1.904,54.46 1.343,54.715 0.782,54.885 L0.782,55.939 C1.938,55.599 2.907,55.004 3.689,54.154 L3.689,65 L4.743,65 L4.743,52.862 L3.893,52.862 Z M8.925,63.3 C8.67,63.3 8.466,63.385 8.313,63.555 C8.143,63.725 8.058,63.929 8.058,64.167 C8.058,64.405 8.143,64.626 8.313,64.796 C8.466,64.949 8.67,65.034 8.925,65.034 C9.163,65.034 9.367,64.949 9.537,64.796 C9.707,64.626 9.792,64.405 9.792,64.167 C9.792,63.929 9.707,63.725 9.537,63.555 C9.367,63.385 9.163,63.3 8.925,63.3 Z M13.022,52.862 L12.41,59.492 L13.396,59.492 C13.668,58.982 14.059,58.574 14.569,58.285 C15.062,58.013 15.623,57.877 16.235,57.877 C17.17,57.877 17.918,58.149 18.462,58.71 C19.023,59.288 19.312,60.104 19.312,61.141 C19.312,62.059 19.006,62.824 18.411,63.436 C17.816,64.031 17.051,64.337 16.133,64.337 C15.334,64.337 14.671,64.116 14.144,63.708 C13.549,63.249 13.209,62.603 13.124,61.787 L12.087,61.787 C12.172,62.875 12.631,63.742 13.464,64.371 C14.195,64.949 15.079,65.238 16.133,65.238 C17.323,65.238 18.309,64.864 19.108,64.116 C19.924,63.334 20.349,62.331 20.349,61.141 C20.349,59.832 19.975,58.812 19.244,58.064 C18.53,57.35 17.595,56.993 16.439,56.993 C15.878,56.993 15.351,57.095 14.858,57.316 C14.314,57.537 13.872,57.86 13.515,58.285 L13.464,58.285 L13.889,53.814 L19.89,53.814 L19.89,52.862 L13.022,52.862 Z M31.62,55.973 C30.549,55.973 29.699,56.483 29.07,57.537 L29.07,56.211 L28.05,56.211 L28.05,65 L29.07,65 L29.07,59.594 C29.07,58.829 29.291,58.183 29.75,57.656 C30.192,57.112 30.736,56.857 31.399,56.857 C32.861,56.857 33.592,57.69 33.592,59.39 L33.592,65 L34.629,65 L34.629,59.407 C34.629,58.659 34.833,58.064 35.275,57.588 C35.7,57.095 36.227,56.857 36.873,56.857 C37.655,56.857 38.25,57.078 38.624,57.52 C38.964,57.928 39.134,58.557 39.134,59.39 L39.134,65 L40.154,65 L40.154,59.254 C40.154,58.217 39.882,57.418 39.355,56.84 C38.811,56.262 38.063,55.973 37.145,55.973 C36.533,55.973 35.989,56.126 35.547,56.432 C35.071,56.738 34.68,57.18 34.374,57.775 C33.932,56.568 33.014,55.973 31.62,55.973 Z M45.849,55.973 C47.243,55.973 48.28,56.432 48.977,57.384 C49.589,58.217 49.929,59.39 49.98,60.903 L42.84,60.903 C42.891,61.974 43.18,62.824 43.707,63.436 C44.251,64.048 44.965,64.354 45.883,64.354 C46.682,64.354 47.328,64.133 47.821,63.725 C48.229,63.368 48.535,62.858 48.756,62.178 L49.793,62.178 C49.589,63.028 49.198,63.725 48.62,64.269 C47.906,64.915 47.005,65.238 45.883,65.238 C44.642,65.238 43.656,64.813 42.925,63.98 C42.16,63.13 41.786,61.991 41.786,60.597 C41.786,59.305 42.143,58.234 42.874,57.35 C43.622,56.432 44.608,55.973 45.849,55.973 Z M45.866,56.857 C44.999,56.857 44.302,57.146 43.775,57.758 C43.248,58.353 42.942,59.118 42.857,60.07 L48.909,60.07 C48.739,57.928 47.719,56.857 45.866,56.857 Z M53.737,53.372 L52.717,53.797 L52.717,56.211 L50.847,56.211 L50.847,57.095 L52.717,57.095 L52.717,63.045 C52.717,63.691 52.836,64.167 53.108,64.473 C53.397,64.813 53.89,65 54.57,65 L55.811,65 L55.811,64.116 L54.706,64.116 C54.332,64.116 54.077,64.031 53.941,63.878 C53.805,63.708 53.737,63.419 53.737,63.045 L53.737,57.095 L56.032,57.095 L56.032,56.211 L53.737,56.211 L53.737,53.372 Z M61.132,55.973 C62.526,55.973 63.563,56.432 64.26,57.384 C64.872,58.217 65.212,59.39 65.263,60.903 L58.123,60.903 C58.174,61.974 58.463,62.824 58.99,63.436 C59.534,64.048 60.248,64.354 61.166,64.354 C61.965,64.354 62.611,64.133 63.104,63.725 C63.512,63.368 63.818,62.858 64.039,62.178 L65.076,62.178 C64.872,63.028 64.481,63.725 63.903,64.269 C63.189,64.915 62.288,65.238 61.166,65.238 C59.925,65.238 58.939,64.813 58.208,63.98 C57.443,63.13 57.069,61.991 57.069,60.597 C57.069,59.305 57.426,58.234 58.157,57.35 C58.905,56.432 59.891,55.973 61.132,55.973 Z M61.149,56.857 C60.282,56.857 59.585,57.146 59.058,57.758 C58.531,58.353 58.225,59.118 58.14,60.07 L64.192,60.07 C64.022,57.928 63.002,56.857 61.149,56.857 Z M70.584,55.973 C69.938,55.973 69.36,56.177 68.884,56.585 C68.476,56.908 68.153,57.35 67.915,57.894 L67.915,56.211 L66.895,56.211 L66.895,65 L67.915,65 L67.915,60.359 C67.915,59.475 68.136,58.71 68.612,58.064 C69.088,57.35 69.734,57.01 70.516,57.01 C70.958,57.01 71.4,57.061 71.859,57.197 L71.859,56.16 C71.519,56.024 71.094,55.973 70.584,55.973 Z M76.007,55.973 C75.089,55.973 74.307,56.177 73.695,56.602 C73.049,57.044 72.743,57.605 72.743,58.319 C72.743,59.033 73.066,59.594 73.746,60.002 C74.154,60.257 74.868,60.512 75.888,60.784 C76.891,61.039 77.537,61.243 77.843,61.396 C78.421,61.685 78.71,62.093 78.71,62.62 C78.71,63.776 77.86,64.354 76.16,64.354 C75.344,64.354 74.732,64.201 74.324,63.895 C73.882,63.555 73.61,62.994 73.508,62.229 L72.505,62.229 C72.709,64.235 73.933,65.238 76.194,65.238 C78.574,65.238 79.764,64.337 79.764,62.569 C79.764,61.821 79.407,61.226 78.71,60.801 C78.268,60.529 77.503,60.257 76.432,59.985 C75.531,59.747 74.919,59.543 74.579,59.373 C74.052,59.101 73.797,58.744 73.797,58.302 C73.797,57.86 74.001,57.52 74.409,57.248 C74.817,56.976 75.344,56.857 75.99,56.857 C76.772,56.857 77.367,57.01 77.775,57.333 C78.149,57.622 78.387,58.064 78.506,58.676 L79.509,58.676 C79.254,56.874 78.081,55.973 76.007,55.973 Z M90.627,52.862 C89.879,52.862 89.335,53.066 88.961,53.491 C88.587,53.882 88.417,54.443 88.417,55.174 L88.417,56.211 L86.071,56.211 L86.071,57.095 L88.417,57.095 L88.417,65 L89.437,65 L89.437,57.095 L92.072,57.095 L92.072,56.211 L89.437,56.211 L89.437,55.191 C89.437,54.681 89.539,54.324 89.743,54.103 C89.947,53.865 90.27,53.763 90.712,53.763 L92.191,53.763 L92.191,52.862 L90.627,52.862 Z M97.036,55.973 C96.39,55.973 95.812,56.177 95.336,56.585 C94.928,56.908 94.605,57.35 94.367,57.894 L94.367,56.211 L93.347,56.211 L93.347,65 L94.367,65 L94.367,60.359 C94.367,59.475 94.588,58.71 95.064,58.064 C95.54,57.35 96.186,57.01 96.968,57.01 C97.41,57.01 97.852,57.061 98.311,57.197 L98.311,56.16 C97.971,56.024 97.546,55.973 97.036,55.973 Z M103.02,55.973 C104.414,55.973 105.451,56.432 106.148,57.384 C106.76,58.217 107.1,59.39 107.151,60.903 L100.011,60.903 C100.062,61.974 100.351,62.824 100.878,63.436 C101.422,64.048 102.136,64.354 103.054,64.354 C103.853,64.354 104.499,64.133 104.992,63.725 C105.4,63.368 105.706,62.858 105.927,62.178 L106.964,62.178 C106.76,63.028 106.369,63.725 105.791,64.269 C105.077,64.915 104.176,65.238 103.054,65.238 C101.813,65.238 100.827,64.813 100.096,63.98 C99.331,63.13 98.957,61.991 98.957,60.597 C98.957,59.305 99.314,58.234 100.045,57.35 C100.793,56.432 101.779,55.973 103.02,55.973 Z M103.037,56.857 C102.17,56.857 101.473,57.146 100.946,57.758 C100.419,58.353 100.113,59.118 100.028,60.07 L106.08,60.07 C105.91,57.928 104.89,56.857 103.037,56.857 Z M112.336,55.973 C113.73,55.973 114.767,56.432 115.464,57.384 C116.076,58.217 116.416,59.39 116.467,60.903 L109.327,60.903 C109.378,61.974 109.667,62.824 110.194,63.436 C110.738,64.048 111.452,64.354 112.37,64.354 C113.169,64.354 113.815,64.133 114.308,63.725 C114.716,63.368 115.022,62.858 115.243,62.178 L116.28,62.178 C116.076,63.028 115.685,63.725 115.107,64.269 C114.393,64.915 113.492,65.238 112.37,65.238 C111.129,65.238 110.143,64.813 109.412,63.98 C108.647,63.13 108.273,61.991 108.273,60.597 C108.273,59.305 108.63,58.234 109.361,57.35 C110.109,56.432 111.095,55.973 112.336,55.973 Z M112.353,56.857 C111.486,56.857 110.789,57.146 110.262,57.758 C109.735,58.353 109.429,59.118 109.344,60.07 L115.396,60.07 C115.226,57.928 114.206,56.857 112.353,56.857 Z M127.33,52.862 C126.582,52.862 126.038,53.066 125.664,53.491 C125.29,53.882 125.12,54.443 125.12,55.174 L125.12,56.211 L122.774,56.211 L122.774,57.095 L125.12,57.095 L125.12,65 L126.14,65 L126.14,57.095 L128.775,57.095 L128.775,56.211 L126.14,56.211 L126.14,55.191 C126.14,54.681 126.242,54.324 126.446,54.103 C126.65,53.865 126.973,53.763 127.415,53.763 L128.894,53.763 L128.894,52.862 L127.33,52.862 Z M133.773,55.973 C134.997,55.973 135.915,56.296 136.51,56.976 C137.02,57.537 137.292,58.319 137.292,59.339 L137.292,65 L136.323,65 L136.323,63.317 C135.966,63.827 135.49,64.269 134.912,64.609 C134.198,65.017 133.433,65.238 132.6,65.238 C131.75,65.238 131.053,65.017 130.543,64.592 C129.982,64.15 129.71,63.555 129.71,62.841 C129.71,61.821 130.118,61.073 130.951,60.597 C131.665,60.138 132.702,59.9 134.028,59.9 L136.272,59.866 L136.272,59.339 C136.272,57.673 135.422,56.84 133.722,56.84 C133.008,56.84 132.43,56.976 131.971,57.282 C131.461,57.605 131.138,58.064 131.002,58.676 L129.999,58.608 C130.169,57.724 130.611,57.044 131.325,56.602 C131.954,56.177 132.77,55.973 133.773,55.973 Z M136.272,60.665 L134.079,60.699 C131.852,60.716 130.747,61.43 130.747,62.824 C130.747,63.3 130.934,63.674 131.308,63.963 C131.682,64.252 132.192,64.405 132.804,64.405 C133.688,64.405 134.504,64.099 135.218,63.487 C135.915,62.909 136.272,62.263 136.272,61.583 L136.272,60.665 Z M139.757,52.624 L139.757,65 L140.777,65 L140.777,52.624 L139.757,52.624 Z M143.565,52.624 L143.565,65 L144.585,65 L144.585,52.624 L143.565,52.624 Z M148.172,63.3 C147.883,63.3 147.662,63.368 147.509,63.538 C147.339,63.691 147.254,63.912 147.254,64.184 C147.254,64.422 147.339,64.626 147.509,64.796 C147.679,64.966 147.883,65.051 148.121,65.051 C148.291,65.051 148.393,65.034 148.461,65.017 C148.461,65.425 148.359,65.782 148.121,66.088 C147.883,66.428 147.543,66.666 147.101,66.802 L147.101,67.482 C147.747,67.312 148.257,66.989 148.648,66.513 C149.039,66.02 149.243,65.442 149.243,64.762 C149.243,64.32 149.141,63.963 148.971,63.708 C148.767,63.436 148.512,63.3 148.172,63.3 Z M160.089,55.973 C159.171,55.973 158.389,56.177 157.777,56.602 C157.131,57.044 156.825,57.605 156.825,58.319 C156.825,59.033 157.148,59.594 157.828,60.002 C158.236,60.257 158.95,60.512 159.97,60.784 C160.973,61.039 161.619,61.243 161.925,61.396 C162.503,61.685 162.792,62.093 162.792,62.62 C162.792,63.776 161.942,64.354 160.242,64.354 C159.426,64.354 158.814,64.201 158.406,63.895 C157.964,63.555 157.692,62.994 157.59,62.229 L156.587,62.229 C156.791,64.235 158.015,65.238 160.276,65.238 C162.656,65.238 163.846,64.337 163.846,62.569 C163.846,61.821 163.489,61.226 162.792,60.801 C162.35,60.529 161.585,60.257 160.514,59.985 C159.613,59.747 159.001,59.543 158.661,59.373 C158.134,59.101 157.879,58.744 157.879,58.302 C157.879,57.86 158.083,57.52 158.491,57.248 C158.899,56.976 159.426,56.857 160.072,56.857 C160.854,56.857 161.449,57.01 161.857,57.333 C162.231,57.622 162.469,58.064 162.588,58.676 L163.591,58.676 C163.336,56.874 162.163,55.973 160.089,55.973 Z M167.603,53.372 L166.583,53.797 L166.583,56.211 L164.713,56.211 L164.713,57.095 L166.583,57.095 L166.583,63.045 C166.583,63.691 166.702,64.167 166.974,64.473 C167.263,64.813 167.756,65 168.436,65 L169.677,65 L169.677,64.116 L168.572,64.116 C168.198,64.116 167.943,64.031 167.807,63.878 C167.671,63.708 167.603,63.419 167.603,63.045 L167.603,57.095 L169.898,57.095 L169.898,56.211 L167.603,56.211 L167.603,53.372 Z M172.465,53.049 C172.21,53.049 172.006,53.134 171.853,53.304 C171.683,53.44 171.598,53.644 171.598,53.899 C171.598,54.137 171.683,54.341 171.853,54.511 C172.006,54.664 172.21,54.749 172.465,54.749 C172.703,54.749 172.89,54.664 173.06,54.511 C173.23,54.341 173.332,54.137 173.332,53.899 C173.332,53.644 173.247,53.44 173.077,53.304 C172.907,53.134 172.703,53.049 172.465,53.049 Z M171.955,56.211 L171.955,65 L172.975,65 L172.975,56.211 L171.955,56.211 Z M175.95,52.624 L175.95,65 L176.97,65 L176.97,52.624 L175.95,52.624 Z M179.758,52.624 L179.758,65 L180.778,65 L180.778,52.624 L179.758,52.624 Z M192.525,55.973 C193.97,55.973 195.024,56.636 195.67,57.979 L195.67,56.211 L196.69,56.211 L196.69,64.354 C196.69,67.176 195.364,68.604 192.746,68.604 C191.59,68.604 190.706,68.349 190.077,67.856 C189.482,67.38 189.108,66.683 188.955,65.748 L189.975,65.748 C190.094,66.394 190.366,66.887 190.791,67.21 C191.233,67.567 191.879,67.754 192.746,67.754 C194.684,67.754 195.67,66.649 195.67,64.473 L195.67,62.79 C195.024,64.116 193.97,64.796 192.525,64.796 C191.301,64.796 190.315,64.354 189.584,63.487 C188.904,62.671 188.564,61.651 188.564,60.393 C188.564,59.152 188.904,58.115 189.584,57.299 C190.315,56.415 191.301,55.973 192.525,55.973 Z M192.644,56.84 C191.675,56.84 190.927,57.18 190.383,57.894 C189.856,58.54 189.601,59.373 189.601,60.393 C189.601,61.379 189.839,62.195 190.332,62.841 C190.859,63.555 191.624,63.912 192.627,63.912 C193.596,63.912 194.361,63.572 194.905,62.892 C195.415,62.246 195.67,61.413 195.67,60.393 C195.67,59.373 195.415,58.54 194.905,57.894 C194.361,57.18 193.596,56.84 192.644,56.84 Z M202.674,55.973 C203.966,55.973 205.003,56.432 205.785,57.367 C206.499,58.234 206.856,59.322 206.856,60.614 C206.856,61.906 206.499,62.977 205.785,63.844 C205.003,64.762 203.966,65.238 202.674,65.238 C201.382,65.238 200.345,64.762 199.563,63.844 C198.849,62.977 198.492,61.906 198.492,60.614 C198.492,59.322 198.849,58.234 199.58,57.367 C200.345,56.432 201.382,55.973 202.674,55.973 Z M202.674,56.857 C201.671,56.857 200.889,57.231 200.311,58.013 C199.784,58.693 199.529,59.56 199.529,60.614 C199.529,61.651 199.784,62.518 200.311,63.198 C200.889,63.963 201.671,64.354 202.674,64.354 C203.677,64.354 204.476,63.963 205.054,63.198 C205.564,62.501 205.836,61.634 205.836,60.614 C205.836,59.56 205.564,58.693 205.054,58.013 C204.476,57.231 203.677,56.857 202.674,56.857 Z M212.5,55.973 C213.792,55.973 214.829,56.432 215.611,57.367 C216.325,58.234 216.682,59.322 216.682,60.614 C216.682,61.906 216.325,62.977 215.611,63.844 C214.829,64.762 213.792,65.238 212.5,65.238 C211.208,65.238 210.171,64.762 209.389,63.844 C208.675,62.977 208.318,61.906 208.318,60.614 C208.318,59.322 208.675,58.234 209.406,57.367 C210.171,56.432 211.208,55.973 212.5,55.973 Z M212.5,56.857 C211.497,56.857 210.715,57.231 210.137,58.013 C209.61,58.693 209.355,59.56 209.355,60.614 C209.355,61.651 209.61,62.518 210.137,63.198 C210.715,63.963 211.497,64.354 212.5,64.354 C213.503,64.354 214.302,63.963 214.88,63.198 C215.39,62.501 215.662,61.634 215.662,60.614 C215.662,59.56 215.39,58.693 214.88,58.013 C214.302,57.231 213.503,56.857 212.5,56.857 Z M225.114,52.624 L226.134,52.624 L226.134,65 L225.165,65 L225.165,63.266 C224.553,64.575 223.533,65.238 222.088,65.238 C220.813,65.238 219.827,64.762 219.113,63.844 C218.467,62.994 218.144,61.906 218.144,60.597 C218.144,59.305 218.467,58.234 219.113,57.384 C219.827,56.432 220.796,55.973 222.037,55.973 C223.431,55.973 224.468,56.67 225.114,58.064 L225.114,52.624 Z M222.224,56.84 C221.221,56.84 220.456,57.214 219.912,57.962 C219.419,58.608 219.181,59.492 219.181,60.597 C219.181,61.702 219.419,62.586 219.895,63.249 C220.422,63.997 221.187,64.371 222.19,64.371 C223.142,64.371 223.89,63.997 224.417,63.283 C224.893,62.62 225.148,61.77 225.148,60.733 L225.148,60.529 C225.148,59.441 224.876,58.574 224.366,57.894 C223.822,57.18 223.108,56.84 222.224,56.84 Z" id="1.5-meters-free-fall" fill="#B3B3B3"></path>
                    </g>
                    <g id="Page-1">
                        <polygon id="Fill-1" fill="#B4BAC3" points="60.7304567 0.221630651 46.1156738 13.2291045 43.6799135 29.506844 36.7786296 41.3550736 21.3520742 48.5924814 19.3220895 63.2257786 8.76705453 72.4822218 8.76705453 77.0460533 19.3220895 77.0460533 60.7304567 77.0460533"></polygon>
                        <g id="Group-18" transform="translate(0.000000, 0.132548)">
                            <path d="M90.0864706,39.0137771 C89.0272037,38.0535771 87.3910405,38.1349237 86.4320554,39.1955324 C85.4728489,40.2561411 85.5540925,41.8943771 86.6133593,42.8545771 C87.6726262,43.8149987 89.3087894,43.7334305 90.2679959,42.6728218 C91.2269811,41.6124347 91.1457374,39.9741987 90.0864706,39.0137771" id="Fill-2" fill="#B4BAC3"></path>
                            <g id="Group-6" transform="translate(71.724650, 32.139658)">
                                <mask id="mask-2" fill="white">
                                    <use xlink:href="#path-1"></use>
                                </mask>
                                <g id="Clip-5"></g>
                                <path d="M14.194109,11.4831674 C12.7111355,10.1388431 12.5973501,7.84517977 13.9401949,6.36032755 C15.2828184,4.87547534 17.5733584,4.76154579 19.0563319,6.10587012 C20.5395269,7.4504161 20.6530909,9.74385779 19.3104674,11.22871 C17.967844,12.7135622 15.6770826,12.8274918 14.194109,11.4831674 M10.6718531,15.378494 C10.4998468,15.2226721 10.4865645,14.9566887 10.6424106,14.7844645 C10.7980354,14.6124619 11.0636823,14.5991627 11.2354672,14.7549846 C11.4074736,14.9108066 11.4207559,15.17679 11.2651311,15.3490142 C11.109285,15.5212384 10.8438595,15.5343159 10.6718531,15.378494 M8.88272159,17.3569671 C8.71093663,17.2009235 8.69765429,16.9351617 8.85350044,16.7629375 C9.00912522,16.5907133 9.2745507,16.5774141 9.44655704,16.7334577 C9.61856338,16.8892796 9.63184572,17.155263 9.47599957,17.3274872 C9.32037478,17.4997115 9.05472793,17.512789 8.88272159,17.3569671 M22.4052533,2.40271652 L22.4050319,2.40249487 C18.8345168,-0.834301199 13.3982753,-0.647226222 10.2629784,2.82031043 L2.30995434,11.6154942 C-0.825564006,15.0830308 -0.472696437,20.5177362 3.09781863,23.7547539 C6.66811233,26.99155 12.1045752,26.804475 15.2400935,23.3369384 L23.1928962,14.5417546 C26.3284145,11.074218 25.9757683,5.63951259 22.4052533,2.40271652" id="Fill-4" fill="#B4BAC3" mask="url(#mask-2)"></path>
                            </g>
                            <g id="Group-9">
                                <mask id="mask-4" fill="white">
                                    <use xlink:href="#path-3"></use>
                                </mask>
                                <g id="Clip-8"></g>
                                <path d="M27.1893538,13.8441689 L2.43217403,13.8441689 C1.08888645,13.8441689 -4.42744754e-05,12.7538587 -4.42744754e-05,11.4090911 L-4.42744754e-05,2.52413794 C-4.42744754e-05,1.1793703 1.08888645,0.0890601014 2.43217403,0.0890601014 L27.1893538,0.0890601014 C28.53242,0.0890601014 29.6213508,1.1793703 29.6213508,2.52413794 L29.6213508,11.4090911 C29.6213508,12.7538587 28.53242,13.8441689 27.1893538,13.8441689" id="Fill-7" fill="#B4BAC3" mask="url(#mask-4)"></path>
                            </g>
                            <path d="M6.72451801,10.4855081 C6.72451801,10.7253365 6.58638165,10.8454723 6.31055167,10.8454723 C6.02763777,10.8454723 5.88595945,10.7253365 5.88595945,10.4855081 L5.88595945,4.12806204 L5.39584101,4.12806204 C5.27231522,4.12806204 5.1850945,4.10279362 5.13440023,4.05181347 C5.08348458,4.00105498 5.05824813,3.89200179 5.05824813,3.72465392 C5.05824813,3.55752769 5.08724791,3.44315484 5.14546885,3.38109205 C5.20324704,3.31947257 5.29400971,3.28844118 5.4175355,3.28844118 L6.16909472,3.28844118 C6.53945071,3.28844118 6.72451801,3.43406708 6.72451801,3.72465392 L6.72451801,10.4855081 Z" id="Fill-10" fill="#FEFEFE"></path>
                            <path d="M8.66305378,10.1583264 C8.66305378,9.99120016 8.72105335,9.85133724 8.83727385,9.73851595 C8.95349434,9.62591632 9.09140933,9.56939485 9.25124019,9.56939485 C9.4106283,9.56939485 9.54699369,9.62591632 9.65945085,9.73851595 C9.77212939,9.85133724 9.82835798,9.99120016 9.82835798,10.1583264 C9.82835798,10.3110452 9.77212939,10.4455884 9.65945085,10.5617345 C9.54699369,10.6781022 9.4106283,10.7361753 9.25124019,10.7361753 C9.09140933,10.7361753 8.95349434,10.6781022 8.83727385,10.5617345 C8.72105335,10.4455884 8.66305378,10.3110452 8.66305378,10.1583264" id="Fill-12" fill="#FEFEFE"></path>
                            <path d="M12.4965371,6.09097505 C12.6707572,6.05462399 12.8285957,6.02736069 12.970274,6.00918516 C13.1117309,5.99100963 13.2768747,5.98192186 13.4657054,5.98192186 C13.8143669,5.98192186 14.1300439,6.03822168 14.4131791,6.15104296 C14.6965358,6.26364259 14.9360607,6.4219027 15.1319753,6.62537999 C15.3281112,6.82885727 15.4804154,7.07600016 15.589552,7.36680866 C15.6984672,7.65761715 15.7527034,7.98123026 15.7527034,8.33720469 C15.7527034,8.67167878 15.6929329,8.9915238 15.5731704,9.29673973 C15.4534079,9.60217731 15.2845008,9.86926895 15.0666704,10.098458 C14.84884,10.3274253 14.5911625,10.5091806 14.2934167,10.6437239 C13.9956708,10.7780455 13.6726885,10.845428 13.3242484,10.845428 C13.0918074,10.845428 12.8830533,10.8234843 12.697986,10.7798187 C12.5129187,10.7363748 12.3457825,10.6745336 12.1970203,10.594517 C12.0480367,10.5147219 11.9118927,10.4218494 11.7885882,10.3163427 C11.6650625,10.2110576 11.5490633,10.0966847 11.4401481,9.97300247 C11.3529274,9.87857837 11.3148514,9.76952518 11.3256986,9.64584291 C11.3365458,9.52216064 11.3783852,9.420422 11.4509954,9.34040533 C11.5089949,9.28233229 11.583376,9.24775445 11.6743601,9.23689347 C11.7649014,9.22603248 11.8503511,9.26415676 11.9300452,9.35126632 C12.133265,9.59131632 12.3603931,9.76753031 12.6109866,9.88035159 C12.8613588,9.99295122 13.0955708,10.049251 13.3131798,10.049251 C13.5383155,10.049251 13.7470697,10.002039 13.9396636,9.90761489 C14.1318149,9.81319079 14.298951,9.68773529 14.4404079,9.5312484 C14.5820863,9.37498317 14.6945434,9.19167629 14.7782222,8.98066281 C14.8614582,8.76987098 14.9032976,8.55176461 14.9032976,8.3263437 C14.9032976,7.84646535 14.7762298,7.46500086 14.5220944,7.18128525 C14.2679589,6.8977913 13.8976029,6.75615515 13.4112478,6.75615515 C13.2153332,6.75615515 13.0537314,6.77078424 12.9266636,6.79982075 C12.7995959,6.82885727 12.6889097,6.85966702 12.5946051,6.89247163 C12.5000791,6.9250546 12.4130797,6.95431277 12.3331643,6.97958119 C12.2530275,7.00529292 12.1660281,7.01792713 12.0717235,7.01792713 C11.9118927,7.01792713 11.7956722,6.9687202 11.7232834,6.87074966 C11.6506732,6.77255746 11.6252154,6.65796295 11.6471313,6.52718779 L12.0936394,3.8119408 C12.1297231,3.62287094 12.1806387,3.48854934 12.2459436,3.40831102 C12.3114698,3.32851601 12.4383162,3.28839685 12.6271468,3.28839685 L15.1975015,3.28839685 C15.4224158,3.28839685 15.5350944,3.4229401 15.5350944,3.69202662 C15.5350944,3.95357695 15.4224158,4.08457376 15.1975015,4.08457376 L12.8449772,4.08457376 L12.4965371,6.09097505 Z" id="Fill-14" fill="#FEFEFE"></path>
                            <path d="M24.7265861,10.2238026 C24.748502,10.3762998 24.7429677,10.5163843 24.7102046,10.6436131 C24.6776628,10.7706201 24.55945,10.8380026 24.3562302,10.8453171 C24.2256204,10.8453171 24.1313158,10.8071928 24.0730949,10.7309443 C24.0148739,10.654474 23.9712636,10.5254721 23.9424852,10.3437168 L23.3106884,5.99289368 C23.2889939,5.85480397 23.2617651,5.68390965 23.229002,5.48021072 C23.1964603,5.27695508 23.1599338,5.10051944 23.1203082,4.9513471 C23.0802398,4.80261806 23.0366294,4.70597743 22.9894771,4.66253348 C22.9421034,4.61886787 22.8931801,4.68425545 22.8424858,4.85869622 L21.2198263,10.45277 C21.1832999,10.5908597 21.1381399,10.6908251 21.0836823,10.7526662 C21.0292247,10.8142857 20.943775,10.8453171 20.8277758,10.8453171 C20.70425,10.8453171 20.6170293,10.8180538 20.5663351,10.7635272 C20.5154194,10.7090006 20.4682671,10.6054888 20.4246567,10.45277 C20.1488268,9.51495692 19.8710044,8.5844584 19.5916325,7.66105277 C19.3120392,6.73809045 19.0415221,5.80737027 18.7803027,4.86955721 C18.7293871,4.69511644 18.6767004,4.60800689 18.6222428,4.60800689 C18.5677852,4.60800689 18.5259459,4.69511644 18.4971674,4.86955721 L17.6911506,10.3217732 C17.6694561,10.489121 17.6276167,10.618123 17.5658539,10.7090006 C17.5043123,10.7998783 17.3898628,10.8453171 17.222948,10.8453171 C16.9468967,10.8453171 16.8417448,10.6635618 16.9070497,10.3000512 L17.8981338,3.81182997 C17.9271336,3.5937236 17.9977514,3.43036547 18.1104299,3.32109064 C18.2228871,3.21203745 18.3700997,3.15773251 18.5514037,3.15773251 C18.732929,3.15773251 18.8836836,3.20494456 19.0034461,3.29936866 C19.1232085,3.39401441 19.2195055,3.56114064 19.2921157,3.80096898 L20.8386231,9.26404594 L22.3523674,3.79010799 C22.4176722,3.55759419 22.5104273,3.39401441 22.6301897,3.29936866 C22.7499522,3.20494456 22.8969434,3.15773251 23.0711635,3.15773251 C23.2456049,3.15773251 23.3925962,3.21203745 23.5123586,3.32109064 C23.6321211,3.43036547 23.7100442,3.5974917 23.7463493,3.82291261 L24.7265861,10.2238026 Z" id="Fill-16" fill="#FEFEFE"></path>
                        </g>
                    </g>
                </g>
            </g>
        </g>
    </g>
</svg>