<?xml version="1.0" encoding="UTF-8"?>
<svg width="502px" height="15px" viewBox="0 0 502 15" version="1.1" xmlns="http://www.w3.org/2000/svg" xmlns:xlink="http://www.w3.org/1999/xlink">
    <!-- Generator: Sketch 46 (44423) - http://www.bohemiancoding.com/sketch -->
    <title>App for intelligent</title>
    <desc>Created with Sketch.</desc>
    <defs></defs>
    <g id="Page-1" stroke="none" stroke-width="1" fill="none" fill-rule="evenodd">
        <g id="首页-英文" transform="translate(-155.000000, -7418.000000)" fill="#777777">
            <g id="标题" transform="translate(155.000000, 7304.000000)">
                <path d="M4.29,114.56 L5.37,114.56 L9.66,125.27 L8.655,125.27 L7.41,122.075 L2.25,122.075 L1.005,125.27 L0,125.27 L4.29,114.56 Z M2.55,121.295 L7.11,121.295 L4.86,115.55 L4.815,115.55 L2.55,121.295 Z M14.19,117.305 C15.285,117.305 16.155,117.71 16.8,118.55 C17.37,119.3 17.655,120.245 17.655,121.415 C17.655,122.555 17.37,123.5 16.815,124.25 C16.185,125.06 15.33,125.48 14.22,125.48 C12.975,125.48 12.075,124.865 11.505,123.65 L11.505,128.24 L10.605,128.24 L10.605,117.515 L11.46,117.515 L11.46,119.045 C12.03,117.875 12.93,117.305 14.19,117.305 Z M14.085,118.07 C13.245,118.07 12.585,118.4 12.12,119.06 C11.685,119.645 11.475,120.41 11.475,121.355 L11.475,121.52 C11.475,122.45 11.7,123.215 12.165,123.815 C12.63,124.415 13.26,124.715 14.055,124.715 C14.94,124.715 15.615,124.385 16.095,123.755 C16.515,123.17 16.725,122.39 16.725,121.415 C16.725,120.44 16.515,119.66 16.11,119.075 C15.63,118.4 14.955,118.07 14.085,118.07 Z M22.83,117.305 C23.925,117.305 24.795,117.71 25.44,118.55 C26.01,119.3 26.295,120.245 26.295,121.415 C26.295,122.555 26.01,123.5 25.455,124.25 C24.825,125.06 23.97,125.48 22.86,125.48 C21.615,125.48 20.715,124.865 20.145,123.65 L20.145,128.24 L19.245,128.24 L19.245,117.515 L20.1,117.515 L20.1,119.045 C20.67,117.875 21.57,117.305 22.83,117.305 Z M22.725,118.07 C21.885,118.07 21.225,118.4 20.76,119.06 C20.325,119.645 20.115,120.41 20.115,121.355 L20.115,121.52 C20.115,122.45 20.34,123.215 20.805,123.815 C21.27,124.415 21.9,124.715 22.695,124.715 C23.58,124.715 24.255,124.385 24.735,123.755 C25.155,123.17 25.365,122.39 25.365,121.415 C25.365,120.44 25.155,119.66 24.75,119.075 C24.27,118.4 23.595,118.07 22.725,118.07 Z M36.03,114.56 C35.37,114.56 34.89,114.74 34.56,115.115 C34.23,115.46 34.08,115.955 34.08,116.6 L34.08,117.515 L32.01,117.515 L32.01,118.295 L34.08,118.295 L34.08,125.27 L34.98,125.27 L34.98,118.295 L37.305,118.295 L37.305,117.515 L34.98,117.515 L34.98,116.615 C34.98,116.165 35.07,115.85 35.25,115.655 C35.43,115.445 35.715,115.355 36.105,115.355 L37.41,115.355 L37.41,114.56 L36.03,114.56 Z M41.82,117.305 C42.96,117.305 43.875,117.71 44.565,118.535 C45.195,119.3 45.51,120.26 45.51,121.4 C45.51,122.54 45.195,123.485 44.565,124.25 C43.875,125.06 42.96,125.48 41.82,125.48 C40.68,125.48 39.765,125.06 39.075,124.25 C38.445,123.485 38.13,122.54 38.13,121.4 C38.13,120.26 38.445,119.3 39.09,118.535 C39.765,117.71 40.68,117.305 41.82,117.305 Z M41.82,118.085 C40.935,118.085 40.245,118.415 39.735,119.105 C39.27,119.705 39.045,120.47 39.045,121.4 C39.045,122.315 39.27,123.08 39.735,123.68 C40.245,124.355 40.935,124.7 41.82,124.7 C42.705,124.7 43.41,124.355 43.92,123.68 C44.37,123.065 44.61,122.3 44.61,121.4 C44.61,120.47 44.37,119.705 43.92,119.105 C43.41,118.415 42.705,118.085 41.82,118.085 Z M50.355,117.305 C49.785,117.305 49.275,117.485 48.855,117.845 C48.495,118.13 48.21,118.52 48,119 L48,117.515 L47.1,117.515 L47.1,125.27 L48,125.27 L48,121.175 C48,120.395 48.195,119.72 48.615,119.15 C49.035,118.52 49.605,118.22 50.295,118.22 C50.685,118.22 51.075,118.265 51.48,118.385 L51.48,117.47 C51.18,117.35 50.805,117.305 50.355,117.305 Z M58.395,114.725 C58.17,114.725 57.99,114.8 57.855,114.95 C57.705,115.07 57.63,115.25 57.63,115.475 C57.63,115.685 57.705,115.865 57.855,116.015 C57.99,116.15 58.17,116.225 58.395,116.225 C58.605,116.225 58.77,116.15 58.92,116.015 C59.07,115.865 59.16,115.685 59.16,115.475 C59.16,115.25 59.085,115.07 58.935,114.95 C58.785,114.8 58.605,114.725 58.395,114.725 Z M57.945,117.515 L57.945,125.27 L58.845,125.27 L58.845,117.515 L57.945,117.515 Z M64.605,117.305 C64.065,117.305 63.57,117.425 63.135,117.695 C62.7,117.965 62.355,118.325 62.085,118.79 L62.085,117.515 L61.185,117.515 L61.185,125.27 L62.085,125.27 L62.085,120.59 C62.13,119.825 62.37,119.21 62.82,118.76 C63.24,118.31 63.75,118.085 64.38,118.085 C65.85,118.085 66.585,118.91 66.585,120.56 L66.585,125.27 L67.485,125.27 L67.485,120.5 C67.485,118.37 66.525,117.305 64.605,117.305 Z M71.25,115.01 L70.35,115.385 L70.35,117.515 L68.7,117.515 L68.7,118.295 L70.35,118.295 L70.35,123.545 C70.35,124.115 70.455,124.535 70.695,124.805 C70.95,125.105 71.385,125.27 71.985,125.27 L73.08,125.27 L73.08,124.49 L72.105,124.49 C71.775,124.49 71.55,124.415 71.43,124.28 C71.31,124.13 71.25,123.875 71.25,123.545 L71.25,118.295 L73.275,118.295 L73.275,117.515 L71.25,117.515 L71.25,115.01 Z M77.775,117.305 C79.005,117.305 79.92,117.71 80.535,118.55 C81.075,119.285 81.375,120.32 81.42,121.655 L75.12,121.655 C75.165,122.6 75.42,123.35 75.885,123.89 C76.365,124.43 76.995,124.7 77.805,124.7 C78.51,124.7 79.08,124.505 79.515,124.145 C79.875,123.83 80.145,123.38 80.34,122.78 L81.255,122.78 C81.075,123.53 80.73,124.145 80.22,124.625 C79.59,125.195 78.795,125.48 77.805,125.48 C76.71,125.48 75.84,125.105 75.195,124.37 C74.52,123.62 74.19,122.615 74.19,121.385 C74.19,120.245 74.505,119.3 75.15,118.52 C75.81,117.71 76.68,117.305 77.775,117.305 Z M77.79,118.085 C77.025,118.085 76.41,118.34 75.945,118.88 C75.48,119.405 75.21,120.08 75.135,120.92 L80.475,120.92 C80.325,119.03 79.425,118.085 77.79,118.085 Z M83.145,114.35 L83.145,125.27 L84.045,125.27 L84.045,114.35 L83.145,114.35 Z M86.505,114.35 L86.505,125.27 L87.405,125.27 L87.405,114.35 L86.505,114.35 Z M90.48,114.725 C90.255,114.725 90.075,114.8 89.94,114.95 C89.79,115.07 89.715,115.25 89.715,115.475 C89.715,115.685 89.79,115.865 89.94,116.015 C90.075,116.15 90.255,116.225 90.48,116.225 C90.69,116.225 90.855,116.15 91.005,116.015 C91.155,115.865 91.245,115.685 91.245,115.475 C91.245,115.25 91.17,115.07 91.02,114.95 C90.87,114.8 90.69,114.725 90.48,114.725 Z M90.03,117.515 L90.03,125.27 L90.93,125.27 L90.93,117.515 L90.03,117.515 Z M96.465,117.305 C97.74,117.305 98.67,117.89 99.24,119.075 L99.24,117.515 L100.14,117.515 L100.14,124.7 C100.14,127.19 98.97,128.45 96.66,128.45 C95.64,128.45 94.86,128.225 94.305,127.79 C93.78,127.37 93.45,126.755 93.315,125.93 L94.215,125.93 C94.32,126.5 94.56,126.935 94.935,127.22 C95.325,127.535 95.895,127.7 96.66,127.7 C98.37,127.7 99.24,126.725 99.24,124.805 L99.24,123.32 C98.67,124.49 97.74,125.09 96.465,125.09 C95.385,125.09 94.515,124.7 93.87,123.935 C93.27,123.215 92.97,122.315 92.97,121.205 C92.97,120.11 93.27,119.195 93.87,118.475 C94.515,117.695 95.385,117.305 96.465,117.305 Z M96.57,118.07 C95.715,118.07 95.055,118.37 94.575,119 C94.11,119.57 93.885,120.305 93.885,121.205 C93.885,122.075 94.095,122.795 94.53,123.365 C94.995,123.995 95.67,124.31 96.555,124.31 C97.41,124.31 98.085,124.01 98.565,123.41 C99.015,122.84 99.24,122.105 99.24,121.205 C99.24,120.305 99.015,119.57 98.565,119 C98.085,118.37 97.41,118.07 96.57,118.07 Z M105.165,117.305 C106.395,117.305 107.31,117.71 107.925,118.55 C108.465,119.285 108.765,120.32 108.81,121.655 L102.51,121.655 C102.555,122.6 102.81,123.35 103.275,123.89 C103.755,124.43 104.385,124.7 105.195,124.7 C105.9,124.7 106.47,124.505 106.905,124.145 C107.265,123.83 107.535,123.38 107.73,122.78 L108.645,122.78 C108.465,123.53 108.12,124.145 107.61,124.625 C106.98,125.195 106.185,125.48 105.195,125.48 C104.1,125.48 103.23,125.105 102.585,124.37 C101.91,123.62 101.58,122.615 101.58,121.385 C101.58,120.245 101.895,119.3 102.54,118.52 C103.2,117.71 104.07,117.305 105.165,117.305 Z M105.18,118.085 C104.415,118.085 103.8,118.34 103.335,118.88 C102.87,119.405 102.6,120.08 102.525,120.92 L107.865,120.92 C107.715,119.03 106.815,118.085 105.18,118.085 Z M113.67,117.305 C113.13,117.305 112.635,117.425 112.2,117.695 C111.765,117.965 111.42,118.325 111.15,118.79 L111.15,117.515 L110.25,117.515 L110.25,125.27 L111.15,125.27 L111.15,120.59 C111.195,119.825 111.435,119.21 111.885,118.76 C112.305,118.31 112.815,118.085 113.445,118.085 C114.915,118.085 115.65,118.91 115.65,120.56 L115.65,125.27 L116.55,125.27 L116.55,120.5 C116.55,118.37 115.59,117.305 113.67,117.305 Z M120.315,115.01 L119.415,115.385 L119.415,117.515 L117.765,117.515 L117.765,118.295 L119.415,118.295 L119.415,123.545 C119.415,124.115 119.52,124.535 119.76,124.805 C120.015,125.105 120.45,125.27 121.05,125.27 L122.145,125.27 L122.145,124.49 L121.17,124.49 C120.84,124.49 120.615,124.415 120.495,124.28 C120.375,124.13 120.315,123.875 120.315,123.545 L120.315,118.295 L122.34,118.295 L122.34,117.515 L120.315,117.515 L120.315,115.01 Z M131.85,117.305 C130.905,117.305 130.155,117.755 129.6,118.685 L129.6,117.515 L128.7,117.515 L128.7,125.27 L129.6,125.27 L129.6,120.5 C129.6,119.825 129.795,119.255 130.2,118.79 C130.59,118.31 131.07,118.085 131.655,118.085 C132.945,118.085 133.59,118.82 133.59,120.32 L133.59,125.27 L134.505,125.27 L134.505,120.335 C134.505,119.675 134.685,119.15 135.075,118.73 C135.45,118.295 135.915,118.085 136.485,118.085 C137.175,118.085 137.7,118.28 138.03,118.67 C138.33,119.03 138.48,119.585 138.48,120.32 L138.48,125.27 L139.38,125.27 L139.38,120.2 C139.38,119.285 139.14,118.58 138.675,118.07 C138.195,117.56 137.535,117.305 136.725,117.305 C136.185,117.305 135.705,117.44 135.315,117.71 C134.895,117.98 134.55,118.37 134.28,118.895 C133.89,117.83 133.08,117.305 131.85,117.305 Z M144.555,117.305 C145.635,117.305 146.445,117.59 146.97,118.19 C147.42,118.685 147.66,119.375 147.66,120.275 L147.66,125.27 L146.805,125.27 L146.805,123.785 C146.49,124.235 146.07,124.625 145.56,124.925 C144.93,125.285 144.255,125.48 143.52,125.48 C142.77,125.48 142.155,125.285 141.705,124.91 C141.21,124.52 140.97,123.995 140.97,123.365 C140.97,122.465 141.33,121.805 142.065,121.385 C142.695,120.98 143.61,120.77 144.78,120.77 L146.76,120.74 L146.76,120.275 C146.76,118.805 146.01,118.07 144.51,118.07 C143.88,118.07 143.37,118.19 142.965,118.46 C142.515,118.745 142.23,119.15 142.11,119.69 L141.225,119.63 C141.375,118.85 141.765,118.25 142.395,117.86 C142.95,117.485 143.67,117.305 144.555,117.305 Z M146.76,121.445 L144.825,121.475 C142.86,121.49 141.885,122.12 141.885,123.35 C141.885,123.77 142.05,124.1 142.38,124.355 C142.71,124.61 143.16,124.745 143.7,124.745 C144.48,124.745 145.2,124.475 145.83,123.935 C146.445,123.425 146.76,122.855 146.76,122.255 L146.76,121.445 Z M152.97,117.305 C152.43,117.305 151.935,117.425 151.5,117.695 C151.065,117.965 150.72,118.325 150.45,118.79 L150.45,117.515 L149.55,117.515 L149.55,125.27 L150.45,125.27 L150.45,120.59 C150.495,119.825 150.735,119.21 151.185,118.76 C151.605,118.31 152.115,118.085 152.745,118.085 C154.215,118.085 154.95,118.91 154.95,120.56 L154.95,125.27 L155.85,125.27 L155.85,120.5 C155.85,118.37 154.89,117.305 152.97,117.305 Z M161.025,117.305 C162.105,117.305 162.915,117.59 163.44,118.19 C163.89,118.685 164.13,119.375 164.13,120.275 L164.13,125.27 L163.275,125.27 L163.275,123.785 C162.96,124.235 162.54,124.625 162.03,124.925 C161.4,125.285 160.725,125.48 159.99,125.48 C159.24,125.48 158.625,125.285 158.175,124.91 C157.68,124.52 157.44,123.995 157.44,123.365 C157.44,122.465 157.8,121.805 158.535,121.385 C159.165,120.98 160.08,120.77 161.25,120.77 L163.23,120.74 L163.23,120.275 C163.23,118.805 162.48,118.07 160.98,118.07 C160.35,118.07 159.84,118.19 159.435,118.46 C158.985,118.745 158.7,119.15 158.58,119.69 L157.695,119.63 C157.845,118.85 158.235,118.25 158.865,117.86 C159.42,117.485 160.14,117.305 161.025,117.305 Z M163.23,121.445 L161.295,121.475 C159.33,121.49 158.355,122.12 158.355,123.35 C158.355,123.77 158.52,124.1 158.85,124.355 C159.18,124.61 159.63,124.745 160.17,124.745 C160.95,124.745 161.67,124.475 162.3,123.935 C162.915,123.425 163.23,122.855 163.23,122.255 L163.23,121.445 Z M169.215,117.305 C170.49,117.305 171.42,117.89 171.99,119.075 L171.99,117.515 L172.89,117.515 L172.89,124.7 C172.89,127.19 171.72,128.45 169.41,128.45 C168.39,128.45 167.61,128.225 167.055,127.79 C166.53,127.37 166.2,126.755 166.065,125.93 L166.965,125.93 C167.07,126.5 167.31,126.935 167.685,127.22 C168.075,127.535 168.645,127.7 169.41,127.7 C171.12,127.7 171.99,126.725 171.99,124.805 L171.99,123.32 C171.42,124.49 170.49,125.09 169.215,125.09 C168.135,125.09 167.265,124.7 166.62,123.935 C166.02,123.215 165.72,122.315 165.72,121.205 C165.72,120.11 166.02,119.195 166.62,118.475 C167.265,117.695 168.135,117.305 169.215,117.305 Z M169.32,118.07 C168.465,118.07 167.805,118.37 167.325,119 C166.86,119.57 166.635,120.305 166.635,121.205 C166.635,122.075 166.845,122.795 167.28,123.365 C167.745,123.995 168.42,124.31 169.305,124.31 C170.16,124.31 170.835,124.01 171.315,123.41 C171.765,122.84 171.99,122.105 171.99,121.205 C171.99,120.305 171.765,119.57 171.315,119 C170.835,118.37 170.16,118.07 169.32,118.07 Z M177.915,117.305 C179.145,117.305 180.06,117.71 180.675,118.55 C181.215,119.285 181.515,120.32 181.56,121.655 L175.26,121.655 C175.305,122.6 175.56,123.35 176.025,123.89 C176.505,124.43 177.135,124.7 177.945,124.7 C178.65,124.7 179.22,124.505 179.655,124.145 C180.015,123.83 180.285,123.38 180.48,122.78 L181.395,122.78 C181.215,123.53 180.87,124.145 180.36,124.625 C179.73,125.195 178.935,125.48 177.945,125.48 C176.85,125.48 175.98,125.105 175.335,124.37 C174.66,123.62 174.33,122.615 174.33,121.385 C174.33,120.245 174.645,119.3 175.29,118.52 C175.95,117.71 176.82,117.305 177.915,117.305 Z M177.93,118.085 C177.165,118.085 176.55,118.34 176.085,118.88 C175.62,119.405 175.35,120.08 175.275,120.92 L180.615,120.92 C180.465,119.03 179.565,118.085 177.93,118.085 Z M186.15,117.305 C185.205,117.305 184.455,117.755 183.9,118.685 L183.9,117.515 L183,117.515 L183,125.27 L183.9,125.27 L183.9,120.5 C183.9,119.825 184.095,119.255 184.5,118.79 C184.89,118.31 185.37,118.085 185.955,118.085 C187.245,118.085 187.89,118.82 187.89,120.32 L187.89,125.27 L188.805,125.27 L188.805,120.335 C188.805,119.675 188.985,119.15 189.375,118.73 C189.75,118.295 190.215,118.085 190.785,118.085 C191.475,118.085 192,118.28 192.33,118.67 C192.63,119.03 192.78,119.585 192.78,120.32 L192.78,125.27 L193.68,125.27 L193.68,120.2 C193.68,119.285 193.44,118.58 192.975,118.07 C192.495,117.56 191.835,117.305 191.025,117.305 C190.485,117.305 190.005,117.44 189.615,117.71 C189.195,117.98 188.85,118.37 188.58,118.895 C188.19,117.83 187.38,117.305 186.15,117.305 Z M198.705,117.305 C199.935,117.305 200.85,117.71 201.465,118.55 C202.005,119.285 202.305,120.32 202.35,121.655 L196.05,121.655 C196.095,122.6 196.35,123.35 196.815,123.89 C197.295,124.43 197.925,124.7 198.735,124.7 C199.44,124.7 200.01,124.505 200.445,124.145 C200.805,123.83 201.075,123.38 201.27,122.78 L202.185,122.78 C202.005,123.53 201.66,124.145 201.15,124.625 C200.52,125.195 199.725,125.48 198.735,125.48 C197.64,125.48 196.77,125.105 196.125,124.37 C195.45,123.62 195.12,122.615 195.12,121.385 C195.12,120.245 195.435,119.3 196.08,118.52 C196.74,117.71 197.61,117.305 198.705,117.305 Z M198.72,118.085 C197.955,118.085 197.34,118.34 196.875,118.88 C196.41,119.405 196.14,120.08 196.065,120.92 L201.405,120.92 C201.255,119.03 200.355,118.085 198.72,118.085 Z M207.21,117.305 C206.67,117.305 206.175,117.425 205.74,117.695 C205.305,117.965 204.96,118.325 204.69,118.79 L204.69,117.515 L203.79,117.515 L203.79,125.27 L204.69,125.27 L204.69,120.59 C204.735,119.825 204.975,119.21 205.425,118.76 C205.845,118.31 206.355,118.085 206.985,118.085 C208.455,118.085 209.19,118.91 209.19,120.56 L209.19,125.27 L210.09,125.27 L210.09,120.5 C210.09,118.37 209.13,117.305 207.21,117.305 Z M213.855,115.01 L212.955,115.385 L212.955,117.515 L211.305,117.515 L211.305,118.295 L212.955,118.295 L212.955,123.545 C212.955,124.115 213.06,124.535 213.3,124.805 C213.555,125.105 213.99,125.27 214.59,125.27 L215.685,125.27 L215.685,124.49 L214.71,124.49 C214.38,124.49 214.155,124.415 214.035,124.28 C213.915,124.13 213.855,123.875 213.855,123.545 L213.855,118.295 L215.88,118.295 L215.88,117.515 L213.855,117.515 L213.855,115.01 Z M218.235,123.77 C217.98,123.77 217.785,123.83 217.65,123.98 C217.5,124.115 217.425,124.31 217.425,124.55 C217.425,124.76 217.5,124.94 217.65,125.09 C217.8,125.24 217.98,125.315 218.19,125.315 C218.34,125.315 218.43,125.3 218.49,125.285 C218.49,125.645 218.4,125.96 218.19,126.23 C217.98,126.53 217.68,126.74 217.29,126.86 L217.29,127.46 C217.86,127.31 218.31,127.025 218.655,126.605 C219,126.17 219.18,125.66 219.18,125.06 C219.18,124.67 219.09,124.355 218.94,124.13 C218.76,123.89 218.535,123.77 218.235,123.77 Z M227.985,115.01 L227.085,115.385 L227.085,117.515 L225.435,117.515 L225.435,118.295 L227.085,118.295 L227.085,123.545 C227.085,124.115 227.19,124.535 227.43,124.805 C227.685,125.105 228.12,125.27 228.72,125.27 L229.815,125.27 L229.815,124.49 L228.84,124.49 C228.51,124.49 228.285,124.415 228.165,124.28 C228.045,124.13 227.985,123.875 227.985,123.545 L227.985,118.295 L230.01,118.295 L230.01,117.515 L227.985,117.515 L227.985,115.01 Z M234.765,117.305 C235.905,117.305 236.82,117.71 237.51,118.535 C238.14,119.3 238.455,120.26 238.455,121.4 C238.455,122.54 238.14,123.485 237.51,124.25 C236.82,125.06 235.905,125.48 234.765,125.48 C233.625,125.48 232.71,125.06 232.02,124.25 C231.39,123.485 231.075,122.54 231.075,121.4 C231.075,120.26 231.39,119.3 232.035,118.535 C232.71,117.71 233.625,117.305 234.765,117.305 Z M234.765,118.085 C233.88,118.085 233.19,118.415 232.68,119.105 C232.215,119.705 231.99,120.47 231.99,121.4 C231.99,122.315 232.215,123.08 232.68,123.68 C233.19,124.355 233.88,124.7 234.765,124.7 C235.65,124.7 236.355,124.355 236.865,123.68 C237.315,123.065 237.555,122.3 237.555,121.4 C237.555,120.47 237.315,119.705 236.865,119.105 C236.355,118.415 235.65,118.085 234.765,118.085 Z M248.625,117.305 C249.72,117.305 250.59,117.71 251.235,118.55 C251.805,119.3 252.09,120.245 252.09,121.415 C252.09,122.555 251.805,123.5 251.25,124.25 C250.62,125.06 249.765,125.48 248.655,125.48 C247.41,125.48 246.51,124.865 245.94,123.65 L245.94,128.24 L245.04,128.24 L245.04,117.515 L245.895,117.515 L245.895,119.045 C246.465,117.875 247.365,117.305 248.625,117.305 Z M248.52,118.07 C247.68,118.07 247.02,118.4 246.555,119.06 C246.12,119.645 245.91,120.41 245.91,121.355 L245.91,121.52 C245.91,122.45 246.135,123.215 246.6,123.815 C247.065,124.415 247.695,124.715 248.49,124.715 C249.375,124.715 250.05,124.385 250.53,123.755 C250.95,123.17 251.16,122.39 251.16,121.415 C251.16,120.44 250.95,119.66 250.545,119.075 C250.065,118.4 249.39,118.07 248.52,118.07 Z M256.935,117.305 C256.365,117.305 255.855,117.485 255.435,117.845 C255.075,118.13 254.79,118.52 254.58,119 L254.58,117.515 L253.68,117.515 L253.68,125.27 L254.58,125.27 L254.58,121.175 C254.58,120.395 254.775,119.72 255.195,119.15 C255.615,118.52 256.185,118.22 256.875,118.22 C257.265,118.22 257.655,118.265 258.06,118.385 L258.06,117.47 C257.76,117.35 257.385,117.305 256.935,117.305 Z M262.47,117.305 C263.61,117.305 264.525,117.71 265.215,118.535 C265.845,119.3 266.16,120.26 266.16,121.4 C266.16,122.54 265.845,123.485 265.215,124.25 C264.525,125.06 263.61,125.48 262.47,125.48 C261.33,125.48 260.415,125.06 259.725,124.25 C259.095,123.485 258.78,122.54 258.78,121.4 C258.78,120.26 259.095,119.3 259.74,118.535 C260.415,117.71 261.33,117.305 262.47,117.305 Z M262.47,118.085 C261.585,118.085 260.895,118.415 260.385,119.105 C259.92,119.705 259.695,120.47 259.695,121.4 C259.695,122.315 259.92,123.08 260.385,123.68 C260.895,124.355 261.585,124.7 262.47,124.7 C263.355,124.7 264.06,124.355 264.57,123.68 C265.02,123.065 265.26,122.3 265.26,121.4 C265.26,120.47 265.02,119.705 264.57,119.105 C264.06,118.415 263.355,118.085 262.47,118.085 Z M266.88,117.515 L269.85,125.27 L270.78,125.27 L273.75,117.515 L272.745,117.515 L270.315,124.13 L267.87,117.515 L266.88,117.515 Z M275.67,114.725 C275.445,114.725 275.265,114.8 275.13,114.95 C274.98,115.07 274.905,115.25 274.905,115.475 C274.905,115.685 274.98,115.865 275.13,116.015 C275.265,116.15 275.445,116.225 275.67,116.225 C275.88,116.225 276.045,116.15 276.195,116.015 C276.345,115.865 276.435,115.685 276.435,115.475 C276.435,115.25 276.36,115.07 276.21,114.95 C276.06,114.8 275.88,114.725 275.67,114.725 Z M275.22,117.515 L275.22,125.27 L276.12,125.27 L276.12,117.515 L275.22,117.515 Z M284.31,114.35 L285.21,114.35 L285.21,125.27 L284.355,125.27 L284.355,123.74 C283.815,124.895 282.915,125.48 281.64,125.48 C280.515,125.48 279.645,125.06 279.015,124.25 C278.445,123.5 278.16,122.54 278.16,121.385 C278.16,120.245 278.445,119.3 279.015,118.55 C279.645,117.71 280.5,117.305 281.595,117.305 C282.825,117.305 283.74,117.92 284.31,119.15 L284.31,114.35 Z M281.76,118.07 C280.875,118.07 280.2,118.4 279.72,119.06 C279.285,119.63 279.075,120.41 279.075,121.385 C279.075,122.36 279.285,123.14 279.705,123.725 C280.17,124.385 280.845,124.715 281.73,124.715 C282.57,124.715 283.23,124.385 283.695,123.755 C284.115,123.17 284.34,122.42 284.34,121.505 L284.34,121.325 C284.34,120.365 284.1,119.6 283.65,119 C283.17,118.37 282.54,118.07 281.76,118.07 Z M290.235,117.305 C291.465,117.305 292.38,117.71 292.995,118.55 C293.535,119.285 293.835,120.32 293.88,121.655 L287.58,121.655 C287.625,122.6 287.88,123.35 288.345,123.89 C288.825,124.43 289.455,124.7 290.265,124.7 C290.97,124.7 291.54,124.505 291.975,124.145 C292.335,123.83 292.605,123.38 292.8,122.78 L293.715,122.78 C293.535,123.53 293.19,124.145 292.68,124.625 C292.05,125.195 291.255,125.48 290.265,125.48 C289.17,125.48 288.3,125.105 287.655,124.37 C286.98,123.62 286.65,122.615 286.65,121.385 C286.65,120.245 286.965,119.3 287.61,118.52 C288.27,117.71 289.14,117.305 290.235,117.305 Z M290.25,118.085 C289.485,118.085 288.87,118.34 288.405,118.88 C287.94,119.405 287.67,120.08 287.595,120.92 L292.935,120.92 C292.785,119.03 291.885,118.085 290.25,118.085 Z M303.585,117.305 C302.46,117.305 301.575,117.71 300.93,118.535 C300.315,119.3 300.015,120.275 300.015,121.445 C300.015,122.63 300.3,123.59 300.9,124.31 C301.53,125.09 302.43,125.48 303.57,125.48 C304.5,125.48 305.265,125.225 305.835,124.73 C306.42,124.22 306.795,123.47 306.945,122.495 L306.06,122.495 C305.835,123.965 305.01,124.7 303.57,124.7 C302.715,124.7 302.055,124.4 301.605,123.815 C301.155,123.23 300.93,122.435 300.93,121.445 C300.93,120.44 301.155,119.63 301.635,119.03 C302.115,118.4 302.775,118.085 303.585,118.085 C304.26,118.085 304.815,118.25 305.235,118.58 C305.655,118.91 305.91,119.39 306.015,120.05 L306.915,120.05 C306.795,119.12 306.435,118.43 305.85,117.98 C305.265,117.53 304.515,117.305 303.585,117.305 Z M308.385,117.515 L308.385,122.3 C308.385,124.415 309.33,125.48 311.22,125.48 C312.33,125.48 313.2,124.97 313.8,123.965 L313.8,125.27 L314.7,125.27 L314.7,117.515 L313.8,117.515 L313.8,122.225 C313.74,122.96 313.485,123.56 313.035,124.01 C312.585,124.46 312.06,124.7 311.46,124.7 C310.71,124.7 310.155,124.49 309.795,124.07 C309.45,123.665 309.285,123.065 309.285,122.255 L309.285,117.515 L308.385,117.515 Z M319.23,117.305 C318.42,117.305 317.73,117.485 317.19,117.86 C316.62,118.25 316.35,118.745 316.35,119.375 C316.35,120.005 316.635,120.5 317.235,120.86 C317.595,121.085 318.225,121.31 319.125,121.55 C320.01,121.775 320.58,121.955 320.85,122.09 C321.36,122.345 321.615,122.705 321.615,123.17 C321.615,124.19 320.865,124.7 319.365,124.7 C318.645,124.7 318.105,124.565 317.745,124.295 C317.355,123.995 317.115,123.5 317.025,122.825 L316.14,122.825 C316.32,124.595 317.4,125.48 319.395,125.48 C321.495,125.48 322.545,124.685 322.545,123.125 C322.545,122.465 322.23,121.94 321.615,121.565 C321.225,121.325 320.55,121.085 319.605,120.845 C318.81,120.635 318.27,120.455 317.97,120.305 C317.505,120.065 317.28,119.75 317.28,119.36 C317.28,118.97 317.46,118.67 317.82,118.43 C318.18,118.19 318.645,118.085 319.215,118.085 C319.905,118.085 320.43,118.22 320.79,118.505 C321.12,118.76 321.33,119.15 321.435,119.69 L322.32,119.69 C322.095,118.1 321.06,117.305 319.23,117.305 Z M325.86,115.01 L324.96,115.385 L324.96,117.515 L323.31,117.515 L323.31,118.295 L324.96,118.295 L324.96,123.545 C324.96,124.115 325.065,124.535 325.305,124.805 C325.56,125.105 325.995,125.27 326.595,125.27 L327.69,125.27 L327.69,124.49 L326.715,124.49 C326.385,124.49 326.16,124.415 326.04,124.28 C325.92,124.13 325.86,123.875 325.86,123.545 L325.86,118.295 L327.885,118.295 L327.885,117.515 L325.86,117.515 L325.86,115.01 Z M332.64,117.305 C333.78,117.305 334.695,117.71 335.385,118.535 C336.015,119.3 336.33,120.26 336.33,121.4 C336.33,122.54 336.015,123.485 335.385,124.25 C334.695,125.06 333.78,125.48 332.64,125.48 C331.5,125.48 330.585,125.06 329.895,124.25 C329.265,123.485 328.95,122.54 328.95,121.4 C328.95,120.26 329.265,119.3 329.91,118.535 C330.585,117.71 331.5,117.305 332.64,117.305 Z M332.64,118.085 C331.755,118.085 331.065,118.415 330.555,119.105 C330.09,119.705 329.865,120.47 329.865,121.4 C329.865,122.315 330.09,123.08 330.555,123.68 C331.065,124.355 331.755,124.7 332.64,124.7 C333.525,124.7 334.23,124.355 334.74,123.68 C335.19,123.065 335.43,122.3 335.43,121.4 C335.43,120.47 335.19,119.705 334.74,119.105 C334.23,118.415 333.525,118.085 332.64,118.085 Z M341.07,117.305 C340.125,117.305 339.375,117.755 338.82,118.685 L338.82,117.515 L337.92,117.515 L337.92,125.27 L338.82,125.27 L338.82,120.5 C338.82,119.825 339.015,119.255 339.42,118.79 C339.81,118.31 340.29,118.085 340.875,118.085 C342.165,118.085 342.81,118.82 342.81,120.32 L342.81,125.27 L343.725,125.27 L343.725,120.335 C343.725,119.675 343.905,119.15 344.295,118.73 C344.67,118.295 345.135,118.085 345.705,118.085 C346.395,118.085 346.92,118.28 347.25,118.67 C347.55,119.03 347.7,119.585 347.7,120.32 L347.7,125.27 L348.6,125.27 L348.6,120.2 C348.6,119.285 348.36,118.58 347.895,118.07 C347.415,117.56 346.755,117.305 345.945,117.305 C345.405,117.305 344.925,117.44 344.535,117.71 C344.115,117.98 343.77,118.37 343.5,118.895 C343.11,117.83 342.3,117.305 341.07,117.305 Z M351.39,114.725 C351.165,114.725 350.985,114.8 350.85,114.95 C350.7,115.07 350.625,115.25 350.625,115.475 C350.625,115.685 350.7,115.865 350.85,116.015 C350.985,116.15 351.165,116.225 351.39,116.225 C351.6,116.225 351.765,116.15 351.915,116.015 C352.065,115.865 352.155,115.685 352.155,115.475 C352.155,115.25 352.08,115.07 351.93,114.95 C351.78,114.8 351.6,114.725 351.39,114.725 Z M350.94,117.515 L350.94,125.27 L351.84,125.27 L351.84,117.515 L350.94,117.515 Z M353.76,117.515 L353.76,118.295 L358.605,118.295 L353.61,124.565 L353.61,125.27 L360.015,125.27 L360.015,124.49 L354.765,124.49 L359.775,118.205 L359.775,117.515 L353.76,117.515 Z M364.47,117.305 C365.7,117.305 366.615,117.71 367.23,118.55 C367.77,119.285 368.07,120.32 368.115,121.655 L361.815,121.655 C361.86,122.6 362.115,123.35 362.58,123.89 C363.06,124.43 363.69,124.7 364.5,124.7 C365.205,124.7 365.775,124.505 366.21,124.145 C366.57,123.83 366.84,123.38 367.035,122.78 L367.95,122.78 C367.77,123.53 367.425,124.145 366.915,124.625 C366.285,125.195 365.49,125.48 364.5,125.48 C363.405,125.48 362.535,125.105 361.89,124.37 C361.215,123.62 360.885,122.615 360.885,121.385 C360.885,120.245 361.2,119.3 361.845,118.52 C362.505,117.71 363.375,117.305 364.47,117.305 Z M364.485,118.085 C363.72,118.085 363.105,118.34 362.64,118.88 C362.175,119.405 361.905,120.08 361.83,120.92 L367.17,120.92 C367.02,119.03 366.12,118.085 364.485,118.085 Z M375.405,114.35 L376.305,114.35 L376.305,125.27 L375.45,125.27 L375.45,123.74 C374.91,124.895 374.01,125.48 372.735,125.48 C371.61,125.48 370.74,125.06 370.11,124.25 C369.54,123.5 369.255,122.54 369.255,121.385 C369.255,120.245 369.54,119.3 370.11,118.55 C370.74,117.71 371.595,117.305 372.69,117.305 C373.92,117.305 374.835,117.92 375.405,119.15 L375.405,114.35 Z M372.855,118.07 C371.97,118.07 371.295,118.4 370.815,119.06 C370.38,119.63 370.17,120.41 370.17,121.385 C370.17,122.36 370.38,123.14 370.8,123.725 C371.265,124.385 371.94,124.715 372.825,124.715 C373.665,124.715 374.325,124.385 374.79,123.755 C375.21,123.17 375.435,122.42 375.435,121.505 L375.435,121.325 C375.435,120.365 375.195,119.6 374.745,119 C374.265,118.37 373.635,118.07 372.855,118.07 Z M385.83,117.305 C385.02,117.305 384.33,117.485 383.79,117.86 C383.22,118.25 382.95,118.745 382.95,119.375 C382.95,120.005 383.235,120.5 383.835,120.86 C384.195,121.085 384.825,121.31 385.725,121.55 C386.61,121.775 387.18,121.955 387.45,122.09 C387.96,122.345 388.215,122.705 388.215,123.17 C388.215,124.19 387.465,124.7 385.965,124.7 C385.245,124.7 384.705,124.565 384.345,124.295 C383.955,123.995 383.715,123.5 383.625,122.825 L382.74,122.825 C382.92,124.595 384,125.48 385.995,125.48 C388.095,125.48 389.145,124.685 389.145,123.125 C389.145,122.465 388.83,121.94 388.215,121.565 C387.825,121.325 387.15,121.085 386.205,120.845 C385.41,120.635 384.87,120.455 384.57,120.305 C384.105,120.065 383.88,119.75 383.88,119.36 C383.88,118.97 384.06,118.67 384.42,118.43 C384.78,118.19 385.245,118.085 385.815,118.085 C386.505,118.085 387.03,118.22 387.39,118.505 C387.72,118.76 387.93,119.15 388.035,119.69 L388.92,119.69 C388.695,118.1 387.66,117.305 385.83,117.305 Z M390.585,114.35 L390.585,125.27 L391.485,125.27 L391.485,122.525 L392.97,121.175 L396.18,125.27 L397.365,125.27 L393.615,120.59 L397.02,117.515 L395.79,117.515 L391.485,121.43 L391.485,114.35 L390.585,114.35 Z M399.21,114.725 C398.985,114.725 398.805,114.8 398.67,114.95 C398.52,115.07 398.445,115.25 398.445,115.475 C398.445,115.685 398.52,115.865 398.67,116.015 C398.805,116.15 398.985,116.225 399.21,116.225 C399.42,116.225 399.585,116.15 399.735,116.015 C399.885,115.865 399.975,115.685 399.975,115.475 C399.975,115.25 399.9,115.07 399.75,114.95 C399.6,114.8 399.42,114.725 399.21,114.725 Z M398.76,117.515 L398.76,125.27 L399.66,125.27 L399.66,117.515 L398.76,117.515 Z M405.42,117.305 C404.88,117.305 404.385,117.425 403.95,117.695 C403.515,117.965 403.17,118.325 402.9,118.79 L402.9,117.515 L402,117.515 L402,125.27 L402.9,125.27 L402.9,120.59 C402.945,119.825 403.185,119.21 403.635,118.76 C404.055,118.31 404.565,118.085 405.195,118.085 C406.665,118.085 407.4,118.91 407.4,120.56 L407.4,125.27 L408.3,125.27 L408.3,120.5 C408.3,118.37 407.34,117.305 405.42,117.305 Z M418.455,117.305 C417.33,117.305 416.445,117.71 415.8,118.535 C415.185,119.3 414.885,120.275 414.885,121.445 C414.885,122.63 415.17,123.59 415.77,124.31 C416.4,125.09 417.3,125.48 418.44,125.48 C419.37,125.48 420.135,125.225 420.705,124.73 C421.29,124.22 421.665,123.47 421.815,122.495 L420.93,122.495 C420.705,123.965 419.88,124.7 418.44,124.7 C417.585,124.7 416.925,124.4 416.475,123.815 C416.025,123.23 415.8,122.435 415.8,121.445 C415.8,120.44 416.025,119.63 416.505,119.03 C416.985,118.4 417.645,118.085 418.455,118.085 C419.13,118.085 419.685,118.25 420.105,118.58 C420.525,118.91 420.78,119.39 420.885,120.05 L421.785,120.05 C421.665,119.12 421.305,118.43 420.72,117.98 C420.135,117.53 419.385,117.305 418.455,117.305 Z M426.54,117.305 C427.62,117.305 428.43,117.59 428.955,118.19 C429.405,118.685 429.645,119.375 429.645,120.275 L429.645,125.27 L428.79,125.27 L428.79,123.785 C428.475,124.235 428.055,124.625 427.545,124.925 C426.915,125.285 426.24,125.48 425.505,125.48 C424.755,125.48 424.14,125.285 423.69,124.91 C423.195,124.52 422.955,123.995 422.955,123.365 C422.955,122.465 423.315,121.805 424.05,121.385 C424.68,120.98 425.595,120.77 426.765,120.77 L428.745,120.74 L428.745,120.275 C428.745,118.805 427.995,118.07 426.495,118.07 C425.865,118.07 425.355,118.19 424.95,118.46 C424.5,118.745 424.215,119.15 424.095,119.69 L423.21,119.63 C423.36,118.85 423.75,118.25 424.38,117.86 C424.935,117.485 425.655,117.305 426.54,117.305 Z M428.745,121.445 L426.81,121.475 C424.845,121.49 423.87,122.12 423.87,123.35 C423.87,123.77 424.035,124.1 424.365,124.355 C424.695,124.61 425.145,124.745 425.685,124.745 C426.465,124.745 427.185,124.475 427.815,123.935 C428.43,123.425 428.745,122.855 428.745,122.255 L428.745,121.445 Z M434.79,117.305 C434.22,117.305 433.71,117.485 433.29,117.845 C432.93,118.13 432.645,118.52 432.435,119 L432.435,117.515 L431.535,117.515 L431.535,125.27 L432.435,125.27 L432.435,121.175 C432.435,120.395 432.63,119.72 433.05,119.15 C433.47,118.52 434.04,118.22 434.73,118.22 C435.12,118.22 435.51,118.265 435.915,118.385 L435.915,117.47 C435.615,117.35 435.24,117.305 434.79,117.305 Z M440.07,117.305 C441.3,117.305 442.215,117.71 442.83,118.55 C443.37,119.285 443.67,120.32 443.715,121.655 L437.415,121.655 C437.46,122.6 437.715,123.35 438.18,123.89 C438.66,124.43 439.29,124.7 440.1,124.7 C440.805,124.7 441.375,124.505 441.81,124.145 C442.17,123.83 442.44,123.38 442.635,122.78 L443.55,122.78 C443.37,123.53 443.025,124.145 442.515,124.625 C441.885,125.195 441.09,125.48 440.1,125.48 C439.005,125.48 438.135,125.105 437.49,124.37 C436.815,123.62 436.485,122.615 436.485,121.385 C436.485,120.245 436.8,119.3 437.445,118.52 C438.105,117.71 438.975,117.305 440.07,117.305 Z M440.085,118.085 C439.32,118.085 438.705,118.34 438.24,118.88 C437.775,119.405 437.505,120.08 437.43,120.92 L442.77,120.92 C442.62,119.03 441.72,118.085 440.085,118.085 Z M452.79,117.305 C451.98,117.305 451.29,117.485 450.75,117.86 C450.18,118.25 449.91,118.745 449.91,119.375 C449.91,120.005 450.195,120.5 450.795,120.86 C451.155,121.085 451.785,121.31 452.685,121.55 C453.57,121.775 454.14,121.955 454.41,122.09 C454.92,122.345 455.175,122.705 455.175,123.17 C455.175,124.19 454.425,124.7 452.925,124.7 C452.205,124.7 451.665,124.565 451.305,124.295 C450.915,123.995 450.675,123.5 450.585,122.825 L449.7,122.825 C449.88,124.595 450.96,125.48 452.955,125.48 C455.055,125.48 456.105,124.685 456.105,123.125 C456.105,122.465 455.79,121.94 455.175,121.565 C454.785,121.325 454.11,121.085 453.165,120.845 C452.37,120.635 451.83,120.455 451.53,120.305 C451.065,120.065 450.84,119.75 450.84,119.36 C450.84,118.97 451.02,118.67 451.38,118.43 C451.74,118.19 452.205,118.085 452.775,118.085 C453.465,118.085 453.99,118.22 454.35,118.505 C454.68,118.76 454.89,119.15 454.995,119.69 L455.88,119.69 C455.655,118.1 454.62,117.305 452.79,117.305 Z M460.935,117.305 C462.075,117.305 462.99,117.71 463.68,118.535 C464.31,119.3 464.625,120.26 464.625,121.4 C464.625,122.54 464.31,123.485 463.68,124.25 C462.99,125.06 462.075,125.48 460.935,125.48 C459.795,125.48 458.88,125.06 458.19,124.25 C457.56,123.485 457.245,122.54 457.245,121.4 C457.245,120.26 457.56,119.3 458.205,118.535 C458.88,117.71 459.795,117.305 460.935,117.305 Z M460.935,118.085 C460.05,118.085 459.36,118.415 458.85,119.105 C458.385,119.705 458.16,120.47 458.16,121.4 C458.16,122.315 458.385,123.08 458.85,123.68 C459.36,124.355 460.05,124.7 460.935,124.7 C461.82,124.7 462.525,124.355 463.035,123.68 C463.485,123.065 463.725,122.3 463.725,121.4 C463.725,120.47 463.485,119.705 463.035,119.105 C462.525,118.415 461.82,118.085 460.935,118.085 Z M466.5,114.35 L466.5,125.27 L467.4,125.27 L467.4,114.35 L466.5,114.35 Z M469.575,117.515 L469.575,122.3 C469.575,124.415 470.52,125.48 472.41,125.48 C473.52,125.48 474.39,124.97 474.99,123.965 L474.99,125.27 L475.89,125.27 L475.89,117.515 L474.99,117.515 L474.99,122.225 C474.93,122.96 474.675,123.56 474.225,124.01 C473.775,124.46 473.25,124.7 472.65,124.7 C471.9,124.7 471.345,124.49 470.985,124.07 C470.64,123.665 470.475,123.065 470.475,122.255 L470.475,117.515 L469.575,117.515 Z M479.655,115.01 L478.755,115.385 L478.755,117.515 L477.105,117.515 L477.105,118.295 L478.755,118.295 L478.755,123.545 C478.755,124.115 478.86,124.535 479.1,124.805 C479.355,125.105 479.79,125.27 480.39,125.27 L481.485,125.27 L481.485,124.49 L480.51,124.49 C480.18,124.49 479.955,124.415 479.835,124.28 C479.715,124.13 479.655,123.875 479.655,123.545 L479.655,118.295 L481.68,118.295 L481.68,117.515 L479.655,117.515 L479.655,115.01 Z M483.945,114.725 C483.72,114.725 483.54,114.8 483.405,114.95 C483.255,115.07 483.18,115.25 483.18,115.475 C483.18,115.685 483.255,115.865 483.405,116.015 C483.54,116.15 483.72,116.225 483.945,116.225 C484.155,116.225 484.32,116.15 484.47,116.015 C484.62,115.865 484.71,115.685 484.71,115.475 C484.71,115.25 484.635,115.07 484.485,114.95 C484.335,114.8 484.155,114.725 483.945,114.725 Z M483.495,117.515 L483.495,125.27 L484.395,125.27 L484.395,117.515 L483.495,117.515 Z M490.125,117.305 C491.265,117.305 492.18,117.71 492.87,118.535 C493.5,119.3 493.815,120.26 493.815,121.4 C493.815,122.54 493.5,123.485 492.87,124.25 C492.18,125.06 491.265,125.48 490.125,125.48 C488.985,125.48 488.07,125.06 487.38,124.25 C486.75,123.485 486.435,122.54 486.435,121.4 C486.435,120.26 486.75,119.3 487.395,118.535 C488.07,117.71 488.985,117.305 490.125,117.305 Z M490.125,118.085 C489.24,118.085 488.55,118.415 488.04,119.105 C487.575,119.705 487.35,120.47 487.35,121.4 C487.35,122.315 487.575,123.08 488.04,123.68 C488.55,124.355 489.24,124.7 490.125,124.7 C491.01,124.7 491.715,124.355 492.225,123.68 C492.675,123.065 492.915,122.3 492.915,121.4 C492.915,120.47 492.675,119.705 492.225,119.105 C491.715,118.415 491.01,118.085 490.125,118.085 Z M498.825,117.305 C498.285,117.305 497.79,117.425 497.355,117.695 C496.92,117.965 496.575,118.325 496.305,118.79 L496.305,117.515 L495.405,117.515 L495.405,125.27 L496.305,125.27 L496.305,120.59 C496.35,119.825 496.59,119.21 497.04,118.76 C497.46,118.31 497.97,118.085 498.6,118.085 C500.07,118.085 500.805,118.91 500.805,120.56 L500.805,125.27 L501.705,125.27 L501.705,120.5 C501.705,118.37 500.745,117.305 498.825,117.305 Z" id="App-for-intelligent"></path>
            </g>
        </g>
    </g>
</svg>