<?xml version="1.0" encoding="UTF-8"?>
<svg width="310px" height="47px" viewBox="0 0 310 47" version="1.1" xmlns="http://www.w3.org/2000/svg" xmlns:xlink="http://www.w3.org/1999/xlink">
    <!-- Generator: Sketch 46 (44423) - http://www.bohemiancoding.com/sketch -->
    <title>iSkincare App</title>
    <desc>Created with Sketch.</desc>
    <defs></defs>
    <g id="Page-1" stroke="none" stroke-width="1" fill="none" fill-rule="evenodd">
        <g id="首页-英文" transform="translate(-158.000000, -7304.000000)" fill="#38393B">
            <g id="标题" transform="translate(155.000000, 7282.000000)">
                <path d="M6.15,23.75 C5.4,23.75 4.8,24 4.35,24.5 C3.85,24.9 3.6,25.5 3.6,26.25 C3.6,26.95 3.85,27.55 4.35,28.05 C4.8,28.5 5.4,28.75 6.15,28.75 C6.85,28.75 7.4,28.5 7.9,28.05 C8.4,27.55 8.7,26.95 8.7,26.25 C8.7,25.5 8.45,24.9 7.95,24.5 C7.45,24 6.85,23.75 6.15,23.75 Z M4.65,33.05 L4.65,58.9 L7.65,58.9 L7.65,33.05 L4.65,33.05 Z M27.6,22.5 C24,22.5 21,23.25 18.7,24.8 C16.1,26.45 14.85,28.8 14.85,31.9 C14.85,34.8 16.2,37.05 18.95,38.6 C20.15,39.3 22.9,40.25 27.15,41.45 C31.2,42.55 33.8,43.5 35,44.2 C37.4,45.55 38.65,47.45 38.65,49.9 C38.65,52 37.65,53.7 35.75,54.95 C33.8,56.15 31.25,56.8 28.1,56.8 C24.8,56.8 22.25,56.05 20.45,54.6 C18.45,52.95 17.3,50.45 16.95,47.1 L13.95,47.1 C14.25,51.4 15.75,54.65 18.45,56.8 C20.8,58.65 24.05,59.6 28.15,59.6 C32.2,59.6 35.45,58.75 37.9,57.05 C40.45,55.25 41.75,52.8 41.75,49.75 C41.75,46.5 40.25,44 37.3,42.25 C35.7,41.25 32.65,40.15 28.1,38.85 C24.6,37.85 22.3,37.05 21.25,36.55 C19,35.35 17.9,33.8 17.9,31.8 C17.9,29.55 18.8,27.85 20.7,26.75 C22.35,25.75 24.6,25.25 27.5,25.25 C30.6,25.25 33,25.95 34.7,27.4 C36.4,28.85 37.45,30.95 37.85,33.75 L40.9,33.75 C40.6,30.05 39.25,27.25 36.9,25.35 C34.6,23.45 31.5,22.5 27.6,22.5 Z M46.55,22.5 L46.55,58.9 L49.55,58.9 L49.55,49.75 L54.5,45.25 L65.2,58.9 L69.15,58.9 L56.65,43.3 L68,33.05 L63.9,33.05 L49.55,46.1 L49.55,22.5 L46.55,22.5 Z M75.3,23.75 C74.55,23.75 73.95,24 73.5,24.5 C73,24.9 72.75,25.5 72.75,26.25 C72.75,26.95 73,27.55 73.5,28.05 C73.95,28.5 74.55,28.75 75.3,28.75 C76,28.75 76.55,28.5 77.05,28.05 C77.55,27.55 77.85,26.95 77.85,26.25 C77.85,25.5 77.6,24.9 77.1,24.5 C76.6,24 76,23.75 75.3,23.75 Z M73.8,33.05 L73.8,58.9 L76.8,58.9 L76.8,33.05 L73.8,33.05 Z M96,32.35 C94.2,32.35 92.55,32.75 91.1,33.65 C89.65,34.55 88.5,35.75 87.6,37.3 L87.6,33.05 L84.6,33.05 L84.6,58.9 L87.6,58.9 L87.6,43.3 C87.75,40.75 88.55,38.7 90.05,37.2 C91.45,35.7 93.15,34.95 95.25,34.95 C100.15,34.95 102.6,37.7 102.6,43.2 L102.6,58.9 L105.6,58.9 L105.6,43 C105.6,35.9 102.4,32.35 96,32.35 Z M122.8,32.35 C119.05,32.35 116.1,33.7 113.95,36.45 C111.9,39 110.9,42.25 110.9,46.15 C110.9,50.1 111.85,53.3 113.85,55.7 C115.95,58.3 118.95,59.6 122.75,59.6 C125.85,59.6 128.4,58.75 130.3,57.1 C132.25,55.4 133.5,52.9 134,49.65 L131.05,49.65 C130.3,54.55 127.55,57 122.75,57 C119.9,57 117.7,56 116.2,54.05 C114.7,52.1 113.95,49.45 113.95,46.15 C113.95,42.8 114.7,40.1 116.3,38.1 C117.9,36 120.1,34.95 122.8,34.95 C125.05,34.95 126.9,35.5 128.3,36.6 C129.7,37.7 130.55,39.3 130.9,41.5 L133.9,41.5 C133.5,38.4 132.3,36.1 130.35,34.6 C128.4,33.1 125.9,32.35 122.8,32.35 Z M149.75,32.35 C153.35,32.35 156.05,33.3 157.8,35.3 C159.3,36.95 160.1,39.25 160.1,42.25 L160.1,58.9 L157.25,58.9 L157.25,53.95 C156.2,55.45 154.8,56.75 153.1,57.75 C151,58.95 148.75,59.6 146.3,59.6 C143.8,59.6 141.75,58.95 140.25,57.7 C138.6,56.4 137.8,54.65 137.8,52.55 C137.8,49.55 139,47.35 141.45,45.95 C143.55,44.6 146.6,43.9 150.5,43.9 L157.1,43.8 L157.1,42.25 C157.1,37.35 154.6,34.9 149.6,34.9 C147.5,34.9 145.8,35.3 144.45,36.2 C142.95,37.15 142,38.5 141.6,40.3 L138.65,40.1 C139.15,37.5 140.45,35.5 142.55,34.2 C144.4,32.95 146.8,32.35 149.75,32.35 Z M157.1,46.15 L150.65,46.25 C144.1,46.3 140.85,48.4 140.85,52.5 C140.85,53.9 141.4,55 142.5,55.85 C143.6,56.7 145.1,57.15 146.9,57.15 C149.5,57.15 151.9,56.25 154,54.45 C156.05,52.75 157.1,50.85 157.1,48.85 L157.1,46.15 Z M177.25,32.35 C175.35,32.35 173.65,32.95 172.25,34.15 C171.05,35.1 170.1,36.4 169.4,38 L169.4,33.05 L166.4,33.05 L166.4,58.9 L169.4,58.9 L169.4,45.25 C169.4,42.65 170.05,40.4 171.45,38.5 C172.85,36.4 174.75,35.4 177.05,35.4 C178.35,35.4 179.65,35.55 181,35.95 L181,32.9 C180,32.5 178.75,32.35 177.25,32.35 Z M194.85,32.35 C198.95,32.35 202,33.7 204.05,36.5 C205.85,38.95 206.85,42.4 207,46.85 L186,46.85 C186.15,50 187,52.5 188.55,54.3 C190.15,56.1 192.25,57 194.95,57 C197.3,57 199.2,56.35 200.65,55.15 C201.85,54.1 202.75,52.6 203.4,50.6 L206.45,50.6 C205.85,53.1 204.7,55.15 203,56.75 C200.9,58.65 198.25,59.6 194.95,59.6 C191.3,59.6 188.4,58.35 186.25,55.9 C184,53.4 182.9,50.05 182.9,45.95 C182.9,42.15 183.95,39 186.1,36.4 C188.3,33.7 191.2,32.35 194.85,32.35 Z M194.9,34.95 C192.35,34.95 190.3,35.8 188.75,37.6 C187.2,39.35 186.3,41.6 186.05,44.4 L203.85,44.4 C203.35,38.1 200.35,34.95 194.9,34.95 Z M239.6,23.2 L243.2,23.2 L257.5,58.9 L254.15,58.9 L250,48.25 L232.8,48.25 L228.65,58.9 L225.3,58.9 L239.6,23.2 Z M233.8,45.65 L249,45.65 L241.5,26.5 L241.35,26.5 L233.8,45.65 Z M272.6,32.35 C276.25,32.35 279.15,33.7 281.3,36.5 C283.2,39 284.15,42.15 284.15,46.05 C284.15,49.85 283.2,53 281.35,55.5 C279.25,58.2 276.4,59.6 272.7,59.6 C268.55,59.6 265.55,57.55 263.65,53.5 L263.65,68.8 L260.65,68.8 L260.65,33.05 L263.5,33.05 L263.5,38.15 C265.4,34.25 268.4,32.35 272.6,32.35 Z M272.25,34.9 C269.45,34.9 267.25,36 265.7,38.2 C264.25,40.15 263.55,42.7 263.55,45.85 L263.55,46.4 C263.55,49.5 264.3,52.05 265.85,54.05 C267.4,56.05 269.5,57.05 272.15,57.05 C275.1,57.05 277.35,55.95 278.95,53.85 C280.35,51.9 281.05,49.3 281.05,46.05 C281.05,42.8 280.35,40.2 279,38.25 C277.4,36 275.15,34.9 272.25,34.9 Z M301.4,32.35 C305.05,32.35 307.95,33.7 310.1,36.5 C312,39 312.95,42.15 312.95,46.05 C312.95,49.85 312,53 310.15,55.5 C308.05,58.2 305.2,59.6 301.5,59.6 C297.35,59.6 294.35,57.55 292.45,53.5 L292.45,68.8 L289.45,68.8 L289.45,33.05 L292.3,33.05 L292.3,38.15 C294.2,34.25 297.2,32.35 301.4,32.35 Z M301.05,34.9 C298.25,34.9 296.05,36 294.5,38.2 C293.05,40.15 292.35,42.7 292.35,45.85 L292.35,46.4 C292.35,49.5 293.1,52.05 294.65,54.05 C296.2,56.05 298.3,57.05 300.95,57.05 C303.9,57.05 306.15,55.95 307.75,53.85 C309.15,51.9 309.85,49.3 309.85,46.05 C309.85,42.8 309.15,40.2 307.8,38.25 C306.2,36 303.95,34.9 301.05,34.9 Z" id="iSkincare-App"></path>
            </g>
        </g>
    </g>
</svg>