<?xml version="1.0" encoding="UTF-8"?>
<svg width="205px" height="67px" viewBox="0 0 205 67" version="1.1" xmlns="http://www.w3.org/2000/svg" xmlns:xlink="http://www.w3.org/1999/xlink">
    <!-- Generator: Sketch 46 (44423) - http://www.bohemiancoding.com/sketch -->
    <title>yingyuen</title>
    <desc>Created with Sketch.</desc>
    <defs></defs>
    <g id="Page-1" stroke="none" stroke-width="1" fill="none" fill-rule="evenodd">
        <g id="yingyuen">
            <rect id="Rectangle-24-Copy-2" fill-opacity="0.01" fill="#FFFFFF" x="0" y="0" width="205" height="67"></rect>
            <path d="M68,23.308 L68,39.016 L79.396,39.016 L79.396,37.828 L69.342,37.828 L69.342,31.492 L78.494,31.492 L78.494,30.282 L69.342,30.282 L69.342,24.496 L79.022,24.496 L79.022,23.308 L68,23.308 Z M86.744,27.334 C85.952,27.334 85.226,27.51 84.588,27.906 C83.95,28.302 83.444,28.83 83.048,29.512 L83.048,27.642 L81.728,27.642 L81.728,39.016 L83.048,39.016 L83.048,32.152 C83.114,31.03 83.466,30.128 84.126,29.468 C84.742,28.808 85.49,28.478 86.414,28.478 C88.57,28.478 89.648,29.688 89.648,32.108 L89.648,39.016 L90.968,39.016 L90.968,32.02 C90.968,28.896 89.56,27.334 86.744,27.334 Z M98.426,27.334 C100.296,27.334 101.66,28.192 102.496,29.93 L102.496,27.642 L103.816,27.642 L103.816,38.18 C103.816,41.832 102.1,43.68 98.712,43.68 C97.216,43.68 96.072,43.35 95.258,42.712 C94.488,42.096 94.004,41.194 93.806,39.984 L95.126,39.984 C95.28,40.82 95.632,41.458 96.182,41.876 C96.754,42.338 97.59,42.58 98.712,42.58 C101.22,42.58 102.496,41.15 102.496,38.334 L102.496,36.156 C101.66,37.872 100.296,38.752 98.426,38.752 C96.842,38.752 95.566,38.18 94.62,37.058 C93.74,36.002 93.3,34.682 93.3,33.054 C93.3,31.448 93.74,30.106 94.62,29.05 C95.566,27.906 96.842,27.334 98.426,27.334 Z M98.58,28.456 C97.326,28.456 96.358,28.896 95.654,29.82 C94.972,30.656 94.642,31.734 94.642,33.054 C94.642,34.33 94.95,35.386 95.588,36.222 C96.27,37.146 97.26,37.608 98.558,37.608 C99.812,37.608 100.802,37.168 101.506,36.288 C102.166,35.452 102.496,34.374 102.496,33.054 C102.496,31.734 102.166,30.656 101.506,29.82 C100.802,28.896 99.812,28.456 98.58,28.456 Z M107.006,23 L107.006,39.016 L108.326,39.016 L108.326,23 L107.006,23 Z M112.836,23.55 C112.506,23.55 112.242,23.66 112.044,23.88 C111.824,24.056 111.714,24.32 111.714,24.65 C111.714,24.958 111.824,25.222 112.044,25.442 C112.242,25.64 112.506,25.75 112.836,25.75 C113.144,25.75 113.386,25.64 113.606,25.442 C113.826,25.222 113.958,24.958 113.958,24.65 C113.958,24.32 113.848,24.056 113.628,23.88 C113.408,23.66 113.144,23.55 112.836,23.55 Z M112.176,27.642 L112.176,39.016 L113.496,39.016 L113.496,27.642 L112.176,27.642 Z M120.8,27.334 C119.612,27.334 118.6,27.598 117.808,28.148 C116.972,28.72 116.576,29.446 116.576,30.37 C116.576,31.294 116.994,32.02 117.874,32.548 C118.402,32.878 119.326,33.208 120.646,33.56 C121.944,33.89 122.78,34.154 123.176,34.352 C123.924,34.726 124.298,35.254 124.298,35.936 C124.298,37.432 123.198,38.18 120.998,38.18 C119.942,38.18 119.15,37.982 118.622,37.586 C118.05,37.146 117.698,36.42 117.566,35.43 L116.268,35.43 C116.532,38.026 118.116,39.324 121.042,39.324 C124.122,39.324 125.662,38.158 125.662,35.87 C125.662,34.902 125.2,34.132 124.298,33.582 C123.726,33.23 122.736,32.878 121.35,32.526 C120.184,32.218 119.392,31.954 118.952,31.734 C118.27,31.382 117.94,30.92 117.94,30.348 C117.94,29.776 118.204,29.336 118.732,28.984 C119.26,28.632 119.942,28.478 120.778,28.478 C121.79,28.478 122.56,28.676 123.088,29.094 C123.572,29.468 123.88,30.04 124.034,30.832 L125.332,30.832 C125.002,28.5 123.484,27.334 120.8,27.334 Z M127.774,23 L127.774,39.016 L129.116,39.016 L129.116,32.438 C129.116,31.316 129.424,30.37 130.084,29.622 C130.744,28.852 131.536,28.478 132.482,28.478 C133.494,28.478 134.264,28.764 134.836,29.358 C135.386,29.974 135.672,30.832 135.672,31.932 L135.672,39.016 L136.992,39.016 L136.992,31.756 C136.992,30.348 136.618,29.248 135.892,28.478 C135.166,27.708 134.154,27.334 132.856,27.334 C132.064,27.334 131.338,27.532 130.7,27.928 C130.04,28.346 129.512,28.94 129.116,29.71 L129.116,23 L127.774,23 Z" id="English" fill="#2E91EE"></path>
        </g>
    </g>
</svg>