<?xml version="1.0" encoding="UTF-8"?>
<svg width="205px" height="67px" viewBox="0 0 205 67" version="1.1" xmlns="http://www.w3.org/2000/svg" xmlns:xlink="http://www.w3.org/1999/xlink">
    <!-- Generator: Sketch 46 (44423) - http://www.bohemiancoding.com/sketch -->
    <title>zhongwenyuyan2</title>
    <desc>Created with Sketch.</desc>
    <defs></defs>
    <g id="Page-1" stroke="none" stroke-width="1" fill="none" fill-rule="evenodd">
        <g id="zhongwenyuyan2">
            <rect id="Rectangle-24-Copy-2" fill-opacity="0.01" fill="#FFFFFF" x="0" y="0" width="205" height="67"></rect>
            <path d="M89.876,23.066 L91.504,23.066 L91.504,27.026 L99.402,27.026 L99.402,37.366 L97.818,37.366 L97.818,35.98 L91.504,35.98 L91.504,43.482 L89.876,43.482 L89.876,35.98 L83.584,35.98 L83.584,37.366 L82,37.366 L82,27.026 L89.876,27.026 L89.876,23.066 Z M83.584,34.44 L89.876,34.44 L89.876,28.566 L83.584,28.566 L83.584,34.44 Z M91.504,34.44 L97.818,34.44 L97.818,28.566 L91.504,28.566 L91.504,34.44 Z M103.098,26.872 L112.206,26.872 C111.612,25.706 110.886,24.606 110.006,23.572 L111.59,23 C112.426,24.056 113.174,25.354 113.878,26.872 L122.282,26.872 L122.282,28.456 L118.85,28.456 C117.772,31.932 116.144,34.858 113.988,37.19 C116.32,39.17 119.246,40.798 122.766,42.096 L121.908,43.416 C118.256,42.052 115.264,40.358 112.888,38.312 C110.38,40.622 107.256,42.316 103.516,43.394 L102.68,42.008 C106.376,41.018 109.412,39.456 111.788,37.3 C109.236,34.792 107.476,31.844 106.486,28.456 L103.098,28.456 L103.098,26.872 Z M108.048,28.456 C108.994,31.426 110.6,34 112.888,36.2 C114.846,34.066 116.276,31.492 117.2,28.456 L108.048,28.456 Z" id="中文-copy-2" fill="#151515"></path>
        </g>
    </g>
</svg>