<?xml version="1.0" encoding="UTF-8"?>
<svg width="205px" height="67px" viewBox="0 0 205 67" version="1.1" xmlns="http://www.w3.org/2000/svg" xmlns:xlink="http://www.w3.org/1999/xlink">
    <!-- Generator: Sketch 46 (44423) - http://www.bohemiancoding.com/sketch -->
    <title>zhongwenyuyan1</title>
    <desc>Created with Sketch.</desc>
    <defs></defs>
    <g id="Page-1" stroke="none" stroke-width="1" fill="none" fill-rule="evenodd">
        <g id="zhongwenyuyan1">
            <rect id="Rectangle-24-Copy" fill-opacity="0.01" fill="#FFFFFF" x="0" y="0" width="205" height="67"></rect>
            <path d="M89.9212089,23.0644468 L91.5585537,23.0644468 L91.5585537,26.9312567 L99.5018888,26.9312567 L99.5018888,37.027927 L97.9087965,37.027927 L97.9087965,35.6745435 L91.5585537,35.6745435 L91.5585537,43 L89.9212089,43 L89.9212089,35.6745435 L83.5930923,35.6745435 L83.5930923,37.027927 L82,37.027927 L82,26.9312567 L89.9212089,26.9312567 L89.9212089,23.0644468 Z M83.5930923,34.1707841 L89.9212089,34.1707841 L89.9212089,28.4350161 L83.5930923,28.4350161 L83.5930923,34.1707841 Z M91.5585537,34.1707841 L97.9087965,34.1707841 L97.9087965,28.4350161 L91.5585537,28.4350161 L91.5585537,34.1707841 Z M103.219104,26.7808808 L112.379385,26.7808808 C111.781975,25.6423201 111.051808,24.5682062 110.166757,23.5585392 L111.759849,23 C112.600648,24.0311493 113.352941,25.2986037 114.060982,26.7808808 L122.513222,26.7808808 L122.513222,28.3276047 L119.061522,28.3276047 C117.977334,31.7218045 116.339989,34.5789474 114.171614,36.8560687 C116.516999,38.7894737 119.459795,40.3791622 123,41.6466165 L122.137075,42.9355532 C118.464112,41.603652 115.454938,39.9495166 113.0653,37.9516649 C110.542903,40.207304 107.400971,41.8614393 103.639504,42.9140709 L102.798705,41.5606874 C106.51592,40.593985 109.569347,39.0687433 111.958985,36.9634801 C109.392337,34.5145005 107.622234,31.6358754 106.626552,28.3276047 L103.219104,28.3276047 L103.219104,26.7808808 Z M108.197518,28.3276047 C109.148948,31.2277121 110.764166,33.7411386 113.0653,35.8893663 C115.034539,33.8055854 116.472747,31.292159 117.402051,28.3276047 L108.197518,28.3276047 Z" id="中文-copy" fill="#707070"></path>
        </g>
    </g>
</svg>