<?xml version="1.0" encoding="UTF-8"?>
<svg width="101px" height="18px" viewBox="0 0 101 18" version="1.1" xmlns="http://www.w3.org/2000/svg" xmlns:xlink="http://www.w3.org/1999/xlink">
    <!-- Generator: Sketch 46 (44423) - http://www.bohemiancoding.com/sketch -->
    <title>选择语言</title>
    <desc>Created with Sketch.</desc>
    <defs></defs>
    <g id="Page-1" stroke="none" stroke-width="1" fill="none" fill-rule="evenodd">
        <g id="首页-英文" transform="translate(-1289.000000, -41.000000)">
            <g id="导航">
                <g id="选择语言" transform="translate(1289.000000, 41.000000)">
                    <path d="M29.5375,3.29 L29.5375,14 L37.3825,14 L37.3825,12.935 L30.7675,12.935 L30.7675,9.005 L36.7675,9.005 L36.7675,7.94 L30.7675,7.94 L30.7675,4.355 L37.1275,4.355 L37.1275,3.29 L29.5375,3.29 Z M42.5725,6.035 C42.0625,6.035 41.5975,6.155 41.1775,6.395 C40.7575,6.62 40.4125,6.95 40.1425,7.385 L40.1425,6.245 L38.9425,6.245 L38.9425,14 L40.1425,14 L40.1425,9.32 C40.1875,8.615 40.4125,8.06 40.8325,7.64 C41.2225,7.25 41.6875,7.055 42.2275,7.055 C43.5775,7.055 44.2675,7.805 44.2675,9.32 L44.2675,14 L45.4675,14 L45.4675,9.23 C45.4675,7.1 44.4925,6.035 42.5725,6.035 Z M50.5225,6.035 C51.6925,6.035 52.5625,6.545 53.1325,7.58 L53.1325,6.245 L54.3325,6.245 L54.3325,13.46 C54.3325,15.935 53.1475,17.18 50.7925,17.18 C49.7425,17.18 48.9325,16.97 48.3925,16.55 C47.8375,16.13 47.4925,15.5 47.3575,14.66 L48.5575,14.66 C48.6475,15.185 48.8725,15.575 49.2175,15.815 C49.5625,16.07 50.0875,16.205 50.7925,16.205 C52.3525,16.205 53.1325,15.335 53.1325,13.625 L53.1325,12.26 C52.5625,13.295 51.6925,13.82 50.5225,13.82 C49.4425,13.82 48.5875,13.445 47.9575,12.71 C47.3275,11.99 47.0275,11.075 47.0275,9.95 C47.0275,8.81 47.3275,7.895 47.9575,7.175 C48.5875,6.41 49.4425,6.035 50.5225,6.035 Z M50.7025,7.025 C49.9225,7.025 49.3225,7.295 48.8875,7.865 C48.4675,8.375 48.2575,9.08 48.2575,9.95 C48.2575,10.76 48.4375,11.435 48.8125,11.945 C49.2325,12.515 49.8475,12.815 50.6875,12.815 C51.4675,12.815 52.0675,12.545 52.5175,12.005 C52.9375,11.48 53.1475,10.79 53.1475,9.95 C53.1475,9.08 52.9375,8.375 52.5175,7.865 C52.0675,7.295 51.4675,7.025 50.7025,7.025 Z M56.4325,3.08 L56.4325,14 L57.6175,14 L57.6175,3.08 L56.4325,3.08 Z M60.7075,3.32 C60.4525,3.32 60.2425,3.395 60.0625,3.575 C59.8825,3.725 59.8075,3.935 59.8075,4.205 C59.8075,4.46 59.8825,4.67 60.0625,4.85 C60.2425,5.015 60.4525,5.105 60.7075,5.105 C60.9625,5.105 61.1725,5.015 61.3525,4.85 C61.5325,4.67 61.6225,4.46 61.6225,4.205 C61.6225,3.935 61.5325,3.725 61.3525,3.575 C61.1725,3.395 60.9625,3.32 60.7075,3.32 Z M60.1075,6.245 L60.1075,14 L61.3075,14 L61.3075,6.245 L60.1075,6.245 Z M66.3025,6.035 C65.4325,6.035 64.7125,6.23 64.1725,6.62 C63.5875,7.01 63.3025,7.52 63.3025,8.18 C63.3025,8.84 63.5875,9.335 64.1875,9.695 C64.5475,9.935 65.1925,10.16 66.1075,10.385 C66.9475,10.595 67.5025,10.76 67.7575,10.88 C68.2375,11.12 68.4925,11.45 68.4925,11.885 C68.4925,12.755 67.7875,13.205 66.4075,13.205 C65.7475,13.205 65.2525,13.085 64.9225,12.845 C64.5925,12.575 64.3675,12.14 64.2775,11.525 L63.1075,11.525 C63.2875,13.31 64.3975,14.21 66.4375,14.21 C68.6275,14.21 69.7225,13.4 69.7225,11.81 C69.7225,11.135 69.4075,10.61 68.7925,10.22 C68.3875,9.965 67.7275,9.725 66.7975,9.5 C66.0175,9.29 65.4775,9.125 65.1925,8.99 C64.7425,8.765 64.5325,8.48 64.5325,8.15 C64.5325,7.805 64.6975,7.535 65.0275,7.34 C65.3275,7.13 65.7475,7.04 66.2875,7.04 C66.9025,7.04 67.3825,7.16 67.7125,7.4 C68.0125,7.61 68.2075,7.97 68.3125,8.45 L69.4825,8.45 C69.2725,6.83 68.2225,6.035 66.3025,6.035 Z M71.1325,3.08 L71.1325,14 L72.3325,14 L72.3325,9.575 C72.3325,8.855 72.5275,8.24 72.9325,7.76 C73.3225,7.28 73.8175,7.04 74.4175,7.04 C75.0625,7.04 75.5575,7.235 75.9175,7.625 C76.2475,8.015 76.4275,8.57 76.4275,9.29 L76.4275,14 L77.6275,14 L77.6275,9.11 C77.6275,8.12 77.3875,7.355 76.9075,6.83 C76.4275,6.29 75.7225,6.035 74.8225,6.035 C74.2975,6.035 73.8325,6.155 73.4125,6.395 C72.9625,6.65 72.6025,7.025 72.3325,7.52 L72.3325,3.08 L71.1325,3.08 Z" id="English" fill="#38393B"></path>
                    <path d="M17.9989193,8.99270794 C17.9989193,4.02617452 13.969774,0 8.99954966,0 C4.02923527,0 0,4.02617448 0,8.99270794 C0,13.58057 3.4380383,17.3656997 7.88000956,17.9164765 C8.13041666,17.9692478 8.43541351,17.9999995 8.79867303,17.9999995 C8.90065073,17.9999995 8.99899152,17.9946342 9.09396543,17.9849117 C14.0206908,17.934283 17.9989193,13.9279135 17.9989193,8.99270794 Z M16.712099,9.119946 C16.6862085,8.67125495 16.6269376,8.23205228 16.5366808,7.80521873 C16.5446928,7.65281032 16.5468714,7.50841395 16.5427844,7.37417211 C16.6543945,7.89606962 16.7132513,8.43752005 16.7132513,8.99270794 C16.7132693,9.03521665 16.7127832,9.07759932 16.712099,9.119946 Z M1.28566796,8.99270794 C1.28566796,8.44763858 1.34241827,7.91583859 1.4501034,7.40274531 C1.78322332,7.75901907 2.56838318,7.75061094 2.75986141,7.21828882 C3.10246973,7.42247827 3.56288174,7.45965765 3.56288174,7.86778447 C3.56288174,9.21473986 3.61084583,10.6587937 4.83468622,10.6811014 C4.8691469,10.6815515 5.5172022,10.9267013 5.8256199,11.7265708 C5.93226078,12.0030304 6.35407106,11.7265708 6.81664361,11.7265708 C7.04756981,11.7265708 6.81664361,12.1156128 6.81664361,12.9568928 C6.81664361,13.794914 8.62338085,15.0852631 8.62338085,15.0852631 C8.61500874,15.6399829 8.63778448,16.0885299 8.68394811,16.4468742 C8.27612735,16.4393663 7.93243874,16.4934159 7.66242471,16.5853291 C4.03951586,15.9526497 1.28566796,12.7941858 1.28566796,8.99270794 Z M10.8985602,16.4653649 C10.8585721,16.2695835 10.683622,16.1623665 10.3644196,16.2462677 C10.6191118,15.1616564 10.7429289,14.5540933 11.2746209,14.092781 C12.0439008,13.425929 11.366228,12.6843581 10.7808285,12.7717522 C10.3194262,12.8414117 10.6110097,12.2004682 10.1991919,12.1650173 C9.78737418,12.1305566 9.24956066,11.3114222 8.65686932,11.0295612 C8.34269017,10.8803576 8.03393035,10.4805128 7.54939226,10.4625983 C7.11993005,10.4459441 6.4923099,10.8257318 6.4923099,10.532978 C6.4923099,9.59000844 6.39683185,8.91712489 6.3772069,8.64840719 C6.36136291,8.43251477 6.23608734,8.57568686 6.81664362,8.58964038 C7.13260524,8.5981025 6.97827035,7.95499846 7.29100915,7.92988213 C7.59816654,7.905576 8.33008698,8.21741457 8.51655997,8.09312926 C8.68979963,7.9773961 9.78998485,10.9810569 9.78998485,8.58962236 C9.78998485,8.30587087 9.64303182,7.81252857 9.78998485,7.54379283 C10.3711713,6.48184924 10.9152684,5.61637117 10.8664041,5.48976326 C10.8386771,5.4184833 10.2718043,5.35962647 9.81823397,5.51181881 C9.66515939,5.56293369 9.86691823,5.8026821 9.64706483,5.853887 C8.82333928,6.04405092 8.09555988,5.63178302 8.35041412,5.24427139 C8.61138987,4.84712732 9.55697014,5.07103172 9.63986303,4.27431298 C9.68755705,3.817952 9.72707701,3.28941081 9.75352567,2.89658784 C10.862137,3.06995352 10.7401022,1.45782732 9.0916969,1.28527183 C12.4265332,1.32428765 15.2524532,3.47797233 16.2894425,6.46697749 C16.2369953,6.41913944 16.1759779,6.39006211 16.1055082,6.38296831 C15.6071246,5.13808062 14.3974178,6.03900964 14.8077772,7.13703432 C12.6090272,8.82722821 13.171849,10.0060572 13.894245,10.6811013 C14.2743748,11.0359527 14.6367881,11.5696252 14.8727556,11.9529058 C14.6159209,12.7018045 15.819074,12.4019209 16.4124496,11.1310167 C15.6576813,13.7486063 13.5521408,15.7940837 10.8985602,16.4653649 Z" id="Shape" fill="#8D8E91" fill-rule="nonzero"></path>
                    <polygon id="Triangle-2" fill="#38393B" points="95 12 89 6 101 6"></polygon>
                </g>
            </g>
        </g>
    </g>
</svg>