<?xml version="1.0" encoding="UTF-8"?>
<svg width="94px" height="41px" viewBox="0 0 94 41" version="1.1" xmlns="http://www.w3.org/2000/svg" xmlns:xlink="http://www.w3.org/1999/xlink">
    <!-- Generator: Sketch 46 (44423) - http://www.bohemiancoding.com/sketch -->
    <title>btn-sl-en4</title>
    <desc>Created with Sketch.</desc>
    <defs></defs>
    <g id="Page-1" stroke="none" stroke-width="1" fill="none" fill-rule="evenodd">
        <g id="btn-sl-en4">
            <g id="Group-39">
                <rect id="Rectangle-23-Copy-7" fill-opacity="0.01" fill="#FFFFFF" x="0" y="0" width="94" height="41"></rect>
                <path d="M12.368,15 C11.216,15 10.256,15.24 9.52,15.736 C8.688,16.264 8.288,17.016 8.288,18.008 C8.288,18.936 8.72,19.656 9.6,20.152 C9.984,20.376 10.864,20.68 12.224,21.064 C13.52,21.416 14.352,21.72 14.736,21.944 C15.504,22.376 15.904,22.984 15.904,23.768 C15.904,24.44 15.584,24.984 14.976,25.384 C14.352,25.768 13.536,25.976 12.528,25.976 C11.472,25.976 10.656,25.736 10.08,25.272 C9.44,24.744 9.072,23.944 8.96,22.872 L8,22.872 C8.096,24.248 8.576,25.288 9.44,25.976 C10.192,26.568 11.232,26.872 12.544,26.872 C13.84,26.872 14.88,26.6 15.664,26.056 C16.48,25.48 16.896,24.696 16.896,23.72 C16.896,22.68 16.416,21.88 15.472,21.32 C14.96,21 13.984,20.648 12.528,20.232 C11.408,19.912 10.672,19.656 10.336,19.496 C9.616,19.112 9.264,18.616 9.264,17.976 C9.264,17.256 9.552,16.712 10.16,16.36 C10.688,16.04 11.408,15.88 12.336,15.88 C13.328,15.88 14.096,16.104 14.64,16.568 C15.184,17.032 15.52,17.704 15.648,18.6 L16.624,18.6 C16.528,17.416 16.096,16.52 15.344,15.912 C14.608,15.304 13.616,15 12.368,15 Z M23.536,15 C25.216,15 26.544,15.576 27.536,16.728 C28.464,17.816 28.928,19.208 28.928,20.936 C28.928,22.664 28.464,24.072 27.536,25.16 C26.544,26.296 25.216,26.872 23.52,26.872 C21.824,26.872 20.48,26.296 19.504,25.144 C18.576,24.056 18.112,22.648 18.112,20.936 C18.112,19.224 18.576,17.816 19.504,16.728 C20.496,15.576 21.84,15 23.536,15 Z M23.536,15.896 C22.144,15.896 21.04,16.376 20.24,17.336 C19.472,18.264 19.088,19.464 19.088,20.936 C19.088,22.424 19.456,23.624 20.224,24.536 C21.024,25.496 22.128,25.976 23.52,25.976 C24.912,25.976 26,25.496 26.8,24.552 C27.568,23.64 27.952,22.44 27.952,20.936 C27.952,19.432 27.568,18.216 26.8,17.32 C26,16.36 24.912,15.896 23.536,15.896 Z M30.784,15.224 L30.784,26.648 L38.624,26.648 L38.624,25.784 L31.76,25.784 L31.76,15.224 L30.784,15.224 Z M40.16,15.224 L40.16,22.232 C40.16,23.72 40.512,24.856 41.248,25.656 C41.984,26.456 43.104,26.872 44.608,26.872 C46.112,26.872 47.232,26.456 47.984,25.64 C48.688,24.856 49.056,23.72 49.056,22.232 L49.056,15.224 L48.08,15.224 L48.08,22.232 C48.08,23.448 47.808,24.376 47.28,25 C46.704,25.656 45.824,25.992 44.608,25.992 C43.392,25.992 42.512,25.656 41.936,25 C41.392,24.376 41.136,23.448 41.136,22.232 L41.136,15.224 L40.16,15.224 Z M50.512,15.224 L50.512,16.088 L54.704,16.088 L54.704,26.648 L55.68,26.648 L55.68,16.088 L59.872,16.088 L59.872,15.224 L50.512,15.224 Z M61.472,15.224 L61.472,26.648 L62.448,26.648 L62.448,15.224 L61.472,15.224 Z M69.872,15 C71.552,15 72.88,15.576 73.872,16.728 C74.8,17.816 75.264,19.208 75.264,20.936 C75.264,22.664 74.8,24.072 73.872,25.16 C72.88,26.296 71.552,26.872 69.856,26.872 C68.16,26.872 66.816,26.296 65.84,25.144 C64.912,24.056 64.448,22.648 64.448,20.936 C64.448,19.224 64.912,17.816 65.84,16.728 C66.832,15.576 68.176,15 69.872,15 Z M69.872,15.896 C68.48,15.896 67.376,16.376 66.576,17.336 C65.808,18.264 65.424,19.464 65.424,20.936 C65.424,22.424 65.792,23.624 66.56,24.536 C67.36,25.496 68.464,25.976 69.856,25.976 C71.248,25.976 72.336,25.496 73.136,24.552 C73.904,23.64 74.288,22.44 74.288,20.936 C74.288,19.432 73.904,18.216 73.136,17.32 C72.336,16.36 71.248,15.896 69.872,15.896 Z M77.12,15.224 L77.12,26.648 L78.096,26.648 L78.096,16.664 L78.144,16.664 L85.088,26.648 L86.176,26.648 L86.176,15.224 L85.184,15.224 L85.184,25.128 L85.136,25.128 L78.224,15.224 L77.12,15.224 Z" id="SOLUTION-Copy-3" fill="#000000"></path>
            </g>
        </g>
    </g>
</svg>