<?xml version="1.0" encoding="UTF-8"?>
<svg width="135px" height="41px" viewBox="0 0 135 41" version="1.1" xmlns="http://www.w3.org/2000/svg" xmlns:xlink="http://www.w3.org/1999/xlink">
    <!-- Generator: Sketch 46 (44423) - http://www.bohemiancoding.com/sketch -->
    <title>btn-about-en3</title>
    <desc>Created with Sketch.</desc>
    <defs></defs>
    <g id="Page-1" stroke="none" stroke-width="1" fill="none" fill-rule="evenodd">
        <g id="btn-about-en3">
            <rect id="Rectangle-23-Copy-9" fill-opacity="0.01" fill="#FFFFFF" x="0" y="0" width="135" height="41"></rect>
            <path d="M14.576,15.224 L15.728,15.224 L20.304,26.648 L19.232,26.648 L17.904,23.24 L12.4,23.24 L11.072,26.648 L10,26.648 L14.576,15.224 Z M12.72,22.408 L17.584,22.408 L15.184,16.28 L15.136,16.28 L12.72,22.408 Z M21.472,15.224 L26.496,15.224 C27.52,15.224 28.352,15.464 28.96,15.976 C29.568,16.488 29.872,17.192 29.872,18.088 C29.872,18.744 29.68,19.304 29.312,19.768 C28.944,20.216 28.464,20.52 27.888,20.696 C28.64,20.824 29.232,21.128 29.68,21.608 C30.112,22.104 30.336,22.728 30.336,23.496 C30.336,24.584 29.936,25.4 29.168,25.944 C28.496,26.408 27.584,26.648 26.448,26.648 L21.472,26.648 L21.472,15.224 Z M22.448,16.072 L22.448,20.328 L26.288,20.328 C27.104,20.328 27.744,20.136 28.192,19.784 C28.656,19.416 28.896,18.888 28.896,18.184 C28.896,17.48 28.656,16.936 28.208,16.584 C27.744,16.232 27.104,16.072 26.304,16.072 L22.448,16.072 Z M22.448,21.16 L22.448,25.8 L26.416,25.8 C27.264,25.8 27.952,25.624 28.464,25.288 C29.056,24.872 29.36,24.28 29.36,23.48 C29.36,22.696 29.072,22.104 28.528,21.72 C28,21.336 27.296,21.16 26.4,21.16 L22.448,21.16 Z M37.136,15 C38.816,15 40.144,15.576 41.136,16.728 C42.064,17.816 42.528,19.208 42.528,20.936 C42.528,22.664 42.064,24.072 41.136,25.16 C40.144,26.296 38.816,26.872 37.12,26.872 C35.424,26.872 34.08,26.296 33.104,25.144 C32.176,24.056 31.712,22.648 31.712,20.936 C31.712,19.224 32.176,17.816 33.104,16.728 C34.096,15.576 35.44,15 37.136,15 Z M37.136,15.896 C35.744,15.896 34.64,16.376 33.84,17.336 C33.072,18.264 32.688,19.464 32.688,20.936 C32.688,22.424 33.056,23.624 33.824,24.536 C34.624,25.496 35.728,25.976 37.12,25.976 C38.512,25.976 39.6,25.496 40.4,24.552 C41.168,23.64 41.552,22.44 41.552,20.936 C41.552,19.432 41.168,18.216 40.4,17.32 C39.6,16.36 38.512,15.896 37.136,15.896 Z M44.384,15.224 L44.384,22.232 C44.384,23.72 44.736,24.856 45.472,25.656 C46.208,26.456 47.328,26.872 48.832,26.872 C50.336,26.872 51.456,26.456 52.208,25.64 C52.912,24.856 53.28,23.72 53.28,22.232 L53.28,15.224 L52.304,15.224 L52.304,22.232 C52.304,23.448 52.032,24.376 51.504,25 C50.928,25.656 50.048,25.992 48.832,25.992 C47.616,25.992 46.736,25.656 46.16,25 C45.616,24.376 45.36,23.448 45.36,22.232 L45.36,15.224 L44.384,15.224 Z M54.736,15.224 L54.736,16.088 L58.928,16.088 L58.928,26.648 L59.904,26.648 L59.904,16.088 L64.096,16.088 L64.096,15.224 L54.736,15.224 Z M70.128,15.224 L74.08,20.712 L69.792,26.648 L71.008,26.648 L74.672,21.48 L78.336,26.648 L79.568,26.648 L75.264,20.712 L79.232,15.224 L78.016,15.224 L74.672,19.912 L71.344,15.224 L70.128,15.224 Z M80.96,15.224 L80.96,26.648 L81.936,26.648 L81.936,15.224 L80.96,15.224 Z M87.824,15.224 L88.976,15.224 L93.552,26.648 L92.48,26.648 L91.152,23.24 L85.648,23.24 L84.32,26.648 L83.248,26.648 L87.824,15.224 Z M85.968,22.408 L90.832,22.408 L88.432,16.28 L88.384,16.28 L85.968,22.408 Z M99.664,15 C101.344,15 102.672,15.576 103.664,16.728 C104.592,17.816 105.056,19.208 105.056,20.936 C105.056,22.664 104.592,24.072 103.664,25.16 C102.672,26.296 101.344,26.872 99.648,26.872 C97.952,26.872 96.608,26.296 95.632,25.144 C94.704,24.056 94.24,22.648 94.24,20.936 C94.24,19.224 94.704,17.816 95.632,16.728 C96.624,15.576 97.968,15 99.664,15 Z M99.664,15.896 C98.272,15.896 97.168,16.376 96.368,17.336 C95.6,18.264 95.216,19.464 95.216,20.936 C95.216,22.424 95.584,23.624 96.352,24.536 C97.152,25.496 98.256,25.976 99.648,25.976 C101.04,25.976 102.128,25.496 102.928,24.552 C103.696,23.64 104.08,22.44 104.08,20.936 C104.08,19.432 103.696,18.216 102.928,17.32 C102.128,16.36 101.04,15.896 99.664,15.896 Z M106.912,15.224 L106.912,26.648 L107.888,26.648 L107.888,21.192 L114.144,21.192 L114.144,20.328 L107.888,20.328 L107.888,16.088 L114.48,16.088 L114.48,15.224 L106.912,15.224 Z M116.096,15.224 L116.096,22.232 C116.096,23.72 116.448,24.856 117.184,25.656 C117.92,26.456 119.04,26.872 120.544,26.872 C122.048,26.872 123.168,26.456 123.92,25.64 C124.624,24.856 124.992,23.72 124.992,22.232 L124.992,15.224 L124.016,15.224 L124.016,22.232 C124.016,23.448 123.744,24.376 123.216,25 C122.64,25.656 121.76,25.992 120.544,25.992 C119.328,25.992 118.448,25.656 117.872,25 C117.328,24.376 117.072,23.448 117.072,22.232 L117.072,15.224 L116.096,15.224 Z" id="ABOUT-XIAOFU-Copy-2" fill="#0D2A50"></path>
        </g>
    </g>
</svg>