<?xml version="1.0" encoding="UTF-8"?>
<svg width="188px" height="22px" viewBox="0 0 188 22" version="1.1" xmlns="http://www.w3.org/2000/svg" xmlns:xlink="http://www.w3.org/1999/xlink">
    <!-- Generator: Sketch 45 (43475) - http://www.bohemiancoding.com/sketch -->
    <title>logo</title>
    <desc>Created with Sketch.</desc>
    <defs></defs>
    <g id="Page-1" stroke="none" stroke-width="1" fill="none" fill-rule="evenodd">
        <g id="新版" transform="translate(-40.000000, -30.000000)" fill="#000000">
            <g id="1" transform="translate(-2.000000, 0.000000)">
                <g id="logo" transform="translate(42.000000, 30.000000)">
                    <path d="M3.1047647,0.0218379505 C3.44913317,-0.0791887835 3.70302451,0.203090178 3.70302451,0.203090178 L12.0355809,8.32139972 C12.0355809,8.32139972 12.2072505,8.476345 12.4027132,8.47440802 C12.5981759,8.47247104 12.8098696,8.31372674 12.8098696,8.31372674 C12.8098696,8.31372674 18.6653906,2.58764905 21.1101332,0.19695052 C21.1970098,0.111994369 21.3218563,0.0218379505 21.5284774,0.0218379505 C21.7350985,0.0218379505 21.844505,0.11939265 21.9352432,0.208125003 C28.1475373,6.2830888 42.8979082,20.7073849 42.8979082,20.7073849 C42.8979082,20.7073849 43.0859431,21.0353986 42.9137589,21.3048032 C42.7415746,21.5742079 42.4947324,21.5526535 42.4947324,21.5526535 L36.4396318,21.5526535 C36.4396318,21.5526535 36.2674475,21.5742079 36.0952633,21.5068567 C35.9230791,21.4395055 35.8028536,21.322857 35.8028536,21.322857 L21.8902179,7.71777695 C21.8095509,7.63889319 21.6787029,7.63896579 21.5979526,7.71793107 L7.67928424,21.3289104 C7.60301724,21.4034914 7.5815547,21.4395055 7.44380732,21.5068567 C7.30605993,21.5742079 7.24519587,21.5526535 7.14255218,21.5526535 L0.54949355,21.5526535 C0.54949355,21.5526535 0.177632782,21.5405323 0.0398853973,21.2374521 C-0.0978619873,20.9343719 0.165392795,20.678682 0.165392795,20.678682 L7.96714605,13.049396 C7.96714605,13.049396 8.0981074,12.8859087 8.0981074,12.6838553 C8.0981074,12.4818018 7.97811099,12.3508217 7.97811099,12.3508217 L3.00047553,7.49121104 C3.00047553,7.49121104 2.89814363,7.39678953 2.82926994,7.26208722 C2.76039624,7.1273849 2.79113872,6.90829633 2.79113872,6.90829633 L2.79113872,0.542789934 C2.79113872,0.542789934 2.76039624,0.122864684 3.1047647,0.0218379505 Z M17.4304927,21.5068567 C17.2655452,21.4476168 17.1620654,21.3170152 17.1620654,21.3170152 L14.8477532,19.0575777 C14.8477532,19.0575777 14.7034441,18.875504 14.7099819,18.6781081 C14.7165197,18.4807123 14.8730709,18.2931591 14.8730709,18.2931591 L18.1298835,15.1083423 C18.1298835,15.1083423 18.349632,14.9042242 18.5669086,14.9064434 C18.7841852,14.9086626 18.9972179,15.117201 18.9972179,15.117201 L24.13409,20.1322726 C24.13409,20.1322726 24.2834251,20.361887 24.2489882,20.4965894 C24.2145514,20.6312917 24.1122986,20.8108658 24.1122986,20.8108658 L23.5438216,21.3667759 C23.5438216,21.3667759 23.4214796,21.4654462 23.3191934,21.5068567 C23.2169072,21.5482672 23.0846933,21.5526535 23.0846933,21.5526535 L17.8181763,21.5526535 C17.8181763,21.5526535 17.5954402,21.5660966 17.4304927,21.5068567 Z"></path>
                    <path d="M73.7301614,21.7463125 L72.6329947,21.7463125 L72.5110873,21.220375 C72.8696385,21.248425 73.2138476,21.26245 73.5365437,21.26245 C73.8018716,21.26245 73.9381211,21.1292125 73.9381211,20.86975 L73.9381211,15.498175 L74.4687769,15.498175 L74.4687769,21.0029875 C74.4687769,21.4938625 74.217791,21.7463125 73.7301614,21.7463125 Z M72.0162866,17.125075 L72.5326003,17.321425 C72.1883912,18.723925 71.7366167,19.789825 71.1772768,20.519125 L70.7326733,20.1334375 C71.3063552,19.3901125 71.7294456,18.387325 72.0162866,17.125075 Z M76.0894283,16.956775 L75.6233118,17.2442875 C76.1754806,18.45745 76.6129131,19.5584125 76.9356092,20.5541875 L77.3945547,20.238625 C77.0933717,19.3059625 76.6559392,18.2120125 76.0894283,16.956775 Z M102.375565,17.8052875 L102.375565,18.9693625 L103.39385,18.9693625 L103.39385,17.8052875 L102.375565,17.8052875 Z M103.39385,17.3424625 L103.39385,16.1293 L102.375565,16.1293 L102.375565,17.3424625 L103.39385,17.3424625 Z M102.368393,19.4392 C102.325367,20.406925 102.146092,21.20635 101.844909,21.837475 L101.464844,21.4938625 C101.744514,20.855725 101.887935,20.042275 101.902277,19.060525 L101.902277,15.666475 L103.88148,15.666475 L103.88148,21.220375 C103.88148,21.59905 103.680691,21.7954 103.286285,21.7954 L102.748458,21.7954 L102.62655,21.3395875 C102.805826,21.3536125 102.977931,21.3676375 103.135693,21.3676375 C103.307798,21.3676375 103.39385,21.26245 103.39385,21.052075 L103.39385,19.4392 L102.368393,19.4392 Z M104.390622,16.5430375 L104.390622,17.0339125 L105.767459,17.0339125 L105.767459,17.629975 C105.767459,17.89645 105.745946,18.162925 105.710091,18.4294 L104.189834,18.4294 L104.189834,18.920275 L105.616867,18.920275 C105.373053,19.8950125 104.849568,20.7505375 104.032071,21.4938625 L104.426477,21.82345 C105.186606,21.1011625 105.717262,20.2736875 106.011274,19.341025 C106.369825,20.3368 106.936336,21.1712875 107.696464,21.8444875 L108.033503,21.4588 C107.24469,20.81365 106.68535,19.97215 106.341141,18.920275 L107.918766,18.920275 L107.918766,18.4294 L106.204891,18.4294 C106.233576,18.1699375 106.255089,17.9034625 106.26226,17.629975 L106.26226,17.0339125 L107.624754,17.0339125 L107.624754,16.5430375 L106.26226,16.5430375 L106.26226,15.414025 L105.767459,15.414025 L105.767459,16.5430375 L104.390622,16.5430375 Z M142.903441,19.1937625 L142.982323,19.6846375 L142.258049,19.7968375 L142.258049,21.8024125 L141.734564,21.8024125 L141.734564,19.8809875 L139.497205,20.238625 L139.425495,19.74775 L141.734564,19.3831 L141.734564,15.4210375 L142.258049,15.4210375 L142.258049,19.29895 L142.903441,19.1937625 Z M140.106742,15.7856875 C140.623056,16.143325 141.053317,16.5009625 141.404697,16.8656125 L141.053317,17.2162375 C140.737792,16.872625 140.30036,16.507975 139.74102,16.1293 L140.106742,15.7856875 Z M139.891611,17.3985625 C140.415096,17.7772375 140.8597,18.1489 141.218251,18.527575 L140.852528,18.8852125 C140.529832,18.527575 140.085229,18.1489 139.525889,17.742175 L139.891611,17.3985625 Z M136.542743,17.2863625 L137.718791,17.2863625 L137.718791,16.2485125 C137.374582,16.2976 137.023202,16.339675 136.650308,16.3747375 L136.549914,15.8978875 C137.482147,15.8277625 138.313986,15.6805 139.031088,15.470125 L139.210364,15.946975 C138.90201,16.031125 138.579314,16.10125 138.235105,16.1643625 L138.235105,17.2863625 L139.224706,17.2863625 L139.224706,17.770225 L138.235105,17.770225 L138.235105,18.1138375 C138.636682,18.4294 139.052601,18.7870375 139.468521,19.1797375 L139.174509,19.6075 C138.801616,19.1797375 138.493262,18.8431375 138.235105,18.5977 L138.235105,21.8024125 L137.718791,21.8024125 L137.718791,18.527575 C137.43195,19.2148 137.051886,19.8389125 136.564256,20.3999125 L136.341954,19.8389125 C136.951491,19.2358375 137.388924,18.5416 137.661423,17.770225 L136.542743,17.770225 L136.542743,17.2863625 Z M167.884451,21.7463125 C168.300371,21.7463125 168.50833,21.5359375 168.50833,21.1151875 L168.50833,19.1026 C168.766487,18.9833875 169.024644,18.8571625 169.282801,18.7169125 L169.282801,18.2260375 C169.031815,18.3662875 168.773658,18.4925125 168.50833,18.6187375 L168.50833,17.16715 L169.268459,17.16715 L169.268459,16.6832875 L168.50833,16.6832875 L168.50833,15.4 L168.006359,15.4 L168.006359,16.6832875 L167.138665,16.6832875 L167.138665,17.16715 L168.006359,17.16715 L168.006359,18.8221 C167.676492,18.9413125 167.346624,19.0465 167.002415,19.13065 L167.131494,19.6285375 C167.432677,19.5303625 167.719518,19.425175 168.006359,19.312975 L168.006359,20.9889625 C168.006359,21.1993375 167.905964,21.304525 167.712347,21.304525 C167.540242,21.304525 167.360966,21.2905 167.17452,21.2694625 L167.282085,21.7463125 L167.884451,21.7463125 Z M169.526616,16.4098 L171.247662,16.4098 L171.247662,15.414025 L171.749633,15.414025 L171.749633,16.4098 L173.47785,16.4098 L173.47785,16.8936625 L171.749633,16.8936625 L171.749633,18.0367 L173.19818,18.0367 L173.19818,18.4855 C172.947194,19.256875 172.531275,19.91605 171.950422,20.463025 C172.42371,20.8206625 173.004562,21.136225 173.68581,21.4097125 L173.413311,21.8304625 C172.696208,21.5219125 172.086671,21.164275 171.599042,20.771575 C171.039702,21.20635 170.358455,21.5639875 169.5553,21.8444875 L169.311485,21.4237375 C170.071614,21.1783 170.717006,20.855725 171.240491,20.4560125 C170.638124,19.8809875 170.243718,19.2358375 170.042929,18.51355 L169.662865,18.51355 L169.662865,18.0367 L171.247662,18.0367 L171.247662,16.8936625 L169.526616,16.8936625 L169.526616,16.4098 Z M170.523388,18.51355 C170.709835,19.13065 171.068386,19.677625 171.5847,20.1614875 C172.0795,19.69165 172.445223,19.144675 172.681866,18.51355 L170.523388,18.51355 Z" id="小肤科技"></path>
                    <path d="M50.0947656,0.562063881 L55.177102,5.47993763 L49.6990099,10.7992705 L51.8027639,10.7992705 L56.2185644,6.41189621 L60.6551941,10.7992705 L62.7589482,10.7992705 L57.2391975,5.47993763 L62.3631924,0.562063881 L60.2594384,0.562063881 L56.2185644,4.54797905 L52.1985196,0.562063881 L50.0947656,0.562063881 Z M64.5362822,0.562063881 L64.5362822,10.7992705 L66.2234512,10.7992705 L66.2234512,0.562063881 L64.5362822,0.562063881 Z M73.8132867,0.562063881 L75.7920652,0.562063881 L81.6450838,10.7992705 L79.7912807,10.7992705 L78.2082579,7.93170559 L71.3762647,7.93170559 L69.7932419,10.7992705 L67.9602681,10.7992705 L73.8132867,0.562063881 Z M71.9549183,6.52376299 L77.7037906,6.52376299 L74.8918422,1.4051597 L74.8085252,1.4051597 L71.9549183,6.52376299 Z M89.6358109,0 C91.8437111,0 93.6141972,0.501823852 94.9056105,1.5341472 C96.1137069,2.50911926 96.7385843,3.7708478 96.7385843,5.33367065 C96.7385843,6.88215568 96.1137069,8.1295464 94.9056105,9.10451846 C93.6141972,10.122504 91.8437111,10.6386657 89.6149816,10.6386657 C87.3862521,10.6386657 85.6365953,10.122504 84.345182,9.10451846 C83.1162564,8.1295464 82.5122082,6.86781786 82.5122082,5.33367065 C82.5122082,3.78518563 83.1162564,2.52345708 84.345182,1.54848503 C85.6365953,0.516161676 87.3862521,0 89.6358109,0 Z M89.6398055,1.12412776 C87.9318072,1.12412776 86.5779061,1.52558684 85.5989315,2.34284283 C84.6824446,3.11708534 84.2242011,4.13507087 84.2242011,5.41113724 C84.2242011,6.67286578 84.6824446,7.69085131 85.5989315,8.46509382 C86.5570769,9.26801199 87.910978,9.66947107 89.6189763,9.66947107 C91.3269746,9.66947107 92.6808757,9.26801199 93.6390211,8.49376947 C94.555508,7.71952696 95.0345807,6.70154143 95.0345807,5.41113724 C95.0345807,4.10639522 94.555508,3.07407187 93.6390211,2.29982936 C92.6808757,1.51124902 91.3478038,1.12412776 89.6398055,1.12412776 Z M99.3468056,0.562063881 L99.3468056,10.7992705 L101.054804,10.7992705 L101.054804,6.03911278 L108.865772,6.03911278 L108.865772,5.02112725 L101.054804,5.02112725 L101.054804,1.58004941 L109.303186,1.58004941 L109.303186,0.562063881 L99.3468056,0.562063881 Z M111.330756,0.562063881 L111.330756,6.87070659 C111.330756,8.20412425 111.830658,9.22210978 112.830462,9.939001 C113.830266,10.6415544 115.309143,11 117.267092,11 C119.225041,11 120.703918,10.6415544 121.724551,9.92466317 C122.703525,9.22210978 123.203427,8.20412425 123.203427,6.87070659 L123.203427,0.562063881 L121.495429,0.562063881 L121.495429,6.88504441 C121.495429,7.88869212 121.162161,8.64859681 120.516454,9.16475848 C119.80826,9.69525799 118.725139,9.96767665 117.267092,9.96767665 C115.788215,9.96767665 114.705094,9.69525799 114.017729,9.16475848 C113.351193,8.64859681 113.038755,7.88869212 113.038755,6.88504441 L113.038755,0.562063881 L111.330756,0.562063881 Z" id="xiaofutech"></path>
                    <path d="M133.307296,0.562063881 L145.492406,0.562063881 L145.492406,1.58004941 L140.243435,1.58004941 L140.243435,10.7992705 L138.556266,10.7992705 L138.556266,1.58004941 L133.307296,1.58004941 L133.307296,0.562063881 Z M147.288572,0.562063881 L157.828171,0.562063881 L157.828171,1.58004941 L148.99657,1.58004941 L148.99657,5.00678943 L157.328269,5.00678943 L157.328269,6.02477495 L148.99657,6.02477495 L148.99657,9.78128493 L158.182268,9.78128493 L158.182268,10.7992705 L147.288572,10.7992705 L147.288572,0.562063881 Z M167.168805,0 C168.814315,0 170.209875,0.301094311 171.334654,0.903282933 C172.459433,1.50547156 173.125969,2.32272754 173.334262,3.34071307 L171.688751,3.34071307 C171.480459,2.59514621 170.938898,2.02163323 170.105728,1.62017415 C169.293388,1.23305289 168.314413,1.04666118 167.147975,1.04666118 C165.419148,1.04666118 164.086076,1.46245808 163.14876,2.29405189 C162.273931,3.06829441 161.836517,4.08627994 161.836517,5.3623463 C161.836517,6.63841267 162.253102,7.6563982 163.12793,8.40196506 C164.044417,9.1905454 165.35666,9.59200448 167.106317,9.59200448 C168.293584,9.59200448 169.293388,9.37693712 170.126558,8.94680239 C171.001386,8.48799201 171.605434,7.81411427 171.897044,6.92516916 L173.542554,6.92516916 C173.209286,8.11520858 172.438604,9.04716716 171.209679,9.70670708 C170.06407,10.3232335 168.68934,10.6386657 167.106317,10.6386657 C164.79427,10.6386657 163.023784,10.1081662 161.794859,9.06150498 C160.670079,8.11520858 160.128519,6.88215568 160.128519,5.3623463 C160.128519,3.84253692 160.690909,2.59514621 161.836517,1.62017415 C163.086272,0.530499501 164.877587,0 167.168805,0 Z M175.821788,0.562063881 L177.529786,0.562063881 L177.529786,5.00678943 L186.132265,5.00678943 L186.132265,0.562063881 L187.840263,0.562063881 L187.840263,10.7992705 L186.132265,10.7992705 L186.132265,6.02477495 L177.529786,6.02477495 L177.529786,10.7992705 L175.821788,10.7992705 L175.821788,0.562063881 Z" id="Combined-Shape"></path>
                </g>
            </g>
        </g>
    </g>
</svg>