<?xml version="1.0" encoding="UTF-8"?>
<svg width="375px" height="58px" viewBox="0 0 375 58" version="1.1" xmlns="http://www.w3.org/2000/svg" xmlns:xlink="http://www.w3.org/1999/xlink">
    <!-- Generator: Sketch 46.1 (44463) - http://www.bohemiancoding.com/sketch -->
    <title>btn-en-home</title>
    <desc>Created with Sketch.</desc>
    <defs></defs>
    <g id="Page-1" stroke="none" stroke-width="1" fill="none" fill-rule="evenodd">
        <g id="英文2" transform="translate(0.000000, -137.000000)">
            <g id="btn-en-home" transform="translate(0.000000, 137.000000)">
                <rect id="Rectangle" fill="#FFFFFF" x="0" y="0" width="375" height="58"></rect>
                <path d="M166.08,22.29 L166.08,33 L167.31,33 L167.31,28.005 L173.505,28.005 L173.505,33 L174.735,33 L174.735,22.29 L173.505,22.29 L173.505,26.94 L167.31,26.94 L167.31,22.29 L166.08,22.29 Z M181.56,22.08 C183.15,22.08 184.425,22.605 185.355,23.685 C186.225,24.705 186.675,26.025 186.675,27.66 C186.675,29.28 186.225,30.585 185.355,31.605 C184.425,32.67 183.15,33.21 181.545,33.21 C179.94,33.21 178.68,32.67 177.75,31.605 C176.865,30.585 176.43,29.265 176.43,27.66 C176.43,26.04 176.865,24.72 177.75,23.7 C178.68,22.62 179.94,22.08 181.56,22.08 Z M181.56,23.175 C180.33,23.175 179.355,23.595 178.65,24.45 C177.99,25.26 177.66,26.325 177.66,27.66 C177.66,28.98 177.99,30.045 178.65,30.855 C179.34,31.695 180.315,32.115 181.545,32.115 C182.775,32.115 183.75,31.695 184.44,30.885 C185.1,30.075 185.445,29.01 185.445,27.66 C185.445,26.295 185.1,25.215 184.44,24.405 C183.75,23.58 182.79,23.175 181.56,23.175 Z M188.385,22.29 L188.385,33 L189.615,33 L189.615,24.48 L189.66,24.48 L193.365,33 L194.475,33 L198.18,24.48 L198.225,24.48 L198.225,33 L199.455,33 L199.455,22.29 L197.925,22.29 L193.95,31.425 L193.905,31.425 L189.915,22.29 L188.385,22.29 Z M201.615,22.29 L201.615,33 L209.46,33 L209.46,31.935 L202.845,31.935 L202.845,28.005 L208.845,28.005 L208.845,26.94 L202.845,26.94 L202.845,23.355 L209.205,23.355 L209.205,22.29 L201.615,22.29 Z" id="HOME" fill="#111111"></path>
            </g>
        </g>
    </g>
</svg>