<?xml version="1.0" encoding="UTF-8"?>
<svg width="28px" height="15px" viewBox="0 0 28 15" version="1.1" xmlns="http://www.w3.org/2000/svg" xmlns:xlink="http://www.w3.org/1999/xlink">
    <!-- Generator: Sketch 46 (44423) - http://www.bohemiancoding.com/sketch -->
    <title>logo</title>
    <desc>Created with Sketch.</desc>
    <defs></defs>
    <g id="Page-1" stroke="none" stroke-width="1" fill="none" fill-rule="evenodd">
        <g id="移动端首页" transform="translate(-174.000000, -85.000000)" fill="#231815">
            <g id="Group-18">
                <g id="Group" transform="translate(0.000000, 65.000000)">
                    <g id="更多" transform="translate(5.000000, 5.000000)">
                        <path d="M180.512098,24.866722 L184.151756,28.5063805 C184.457024,28.8116488 184.240537,29.3340878 183.808927,29.3340878 L180.220829,29.3340878 C180.006732,29.3340878 179.801171,29.248722 179.649561,29.0971122 L177.965463,27.4133561 L180.512098,24.866722 Z M196.537556,28.5064488 C196.842824,28.8117171 196.626678,29.3338146 196.194727,29.3338146 L192.606629,29.3338146 C192.392532,29.3338146 192.186971,29.2487902 192.035361,29.0971805 L183.753849,20.8156683 C183.249166,20.3082537 182.431361,20.3082537 181.926678,20.8156683 L179.247556,23.4947902 L179.193946,23.5484 L176.647312,26.0950341 L176.593702,26.1486439 L173.645166,29.0971805 C173.493556,29.2487902 173.287995,29.3338146 173.073898,29.3338146 L169.4858,29.3338146 C169.053849,29.3338146 168.837702,28.8117171 169.142971,28.5064488 L174.100337,23.5480585 L170.6898,20.1371805 C170.53819,19.9855707 170.453166,19.7803512 170.453166,19.5659122 L170.453166,15.9781561 C170.453166,15.5462049 170.975263,15.3300585 171.280532,15.6353268 L176.646629,21.0014244 L181.926678,15.7196683 C182.431361,15.2153268 183.249166,15.2153268 183.753849,15.7196683 L196.537556,28.5064488 Z" id="logo"></path>
                    </g>
                </g>
            </g>
        </g>
    </g>
</svg>